<?xml version="1.0" encoding="utf-8"?>
<!-- Generator: Adobe Illustrator 25.0.0, SVG Export Plug-In . SVG Version: 6.00 Build 0)  -->
<svg version="1.1" id="Layer_1" xmlns="http://www.w3.org/2000/svg" xmlns:xlink="http://www.w3.org/1999/xlink" x="0px" y="0px"
	 viewBox="0 0 601.45 400.52" style="enable-background:new 0 0 601.45 400.52;" xml:space="preserve">
<g>
	<g>
		<g>
			<rect x="34.7" y="34.49" style="fill:#B2E2FB;" width="565.38" height="365.38"/>
		</g>
		<g>
			<g>
				<path d="M599.44,35.13v364.1H35.34V35.13H599.44 M600.72,33.85H34.06v366.67h566.67V33.85L600.72,33.85z"/>
			</g>
		</g>
	</g>
	<g>
		<g>
			<rect x="18.03" y="17.83" style="fill:#F0C0FB;" width="565.38" height="365.38"/>
		</g>
		<g>
			<path d="M582.77,18.47v364.1H18.67V18.47H582.77 M584.06,17.18H17.39v366.67h566.67V17.18L584.06,17.18z"/>
		</g>
	</g>
	<g>
		<g>
			<rect x="1.36" y="1.16" style="fill:#F4F4F4;" width="565.38" height="365.38"/>
		</g>
		<g>
			<path d="M566.11,1.8v364.1H2.01V1.8H566.11 M567.39,0.52H0.72v366.67h566.67V0.52L567.39,0.52z"/>
		</g>
	</g>
	<g>
		<path d="M473.47,216.06v1.57h-5.98v-8.98h1.63v7.42H473.47z"/>
		<path d="M478.48,208.45c2.48,0,4.43,2.16,4.43,4.68c0,2.53-1.95,4.7-4.43,4.7s-4.43-2.04-4.43-4.7S476,208.45,478.48,208.45z
			 M478.48,216.2c1.83,0,2.75-1.58,2.75-3.07c0-1.49-0.91-3.05-2.75-3.05s-2.73,1.57-2.73,3.05
			C475.75,214.62,476.64,216.2,478.48,216.2z"/>
		<path d="M491.5,216.9c0-0.51,0.23-1.16,0.36-1.66l-0.27-0.06c-0.14,0.49-0.17,1.22-0.51,1.6c-0.45,0.49-1.28,1.04-2.61,1.04
			c-2.64,0-4.7-2.03-4.7-4.7s2.01-4.68,4.77-4.68c1.99,0,3.59,0.92,4.2,2.54c0,0-1.68,0.39-1.67,0.37c-0.4-0.82-1.37-1.32-2.63-1.32
			c-1.77,0-2.99,1.28-2.99,3.09s1.31,3.11,3.21,3.11c2.04,0,2.64-1.32,2.64-2.03h-2.41v-1.45h4.22v4.86h-1.62V216.9z"/>
		<path d="M498.54,208.45c2.48,0,4.43,2.16,4.43,4.68c0,2.53-1.95,4.7-4.43,4.7s-4.43-2.04-4.43-4.7S496.06,208.45,498.54,208.45z
			 M498.54,216.2c1.83,0,2.75-1.58,2.75-3.07c0-1.49-0.91-3.05-2.75-3.05s-2.73,1.57-2.73,3.05
			C495.8,214.62,496.7,216.2,498.54,216.2z"/>
		<path d="M505.94,217.62v-7.42h-2.4v-1.57h6.48v1.57h-2.4v7.42H505.94z"/>
		<path d="M511.4,208.64h1.68v8.98h-1.68V208.64z"/>
		<path d="M516.39,213.86v3.76h-1.68v-8.98h3.36c1.91,0,3.49,0.41,3.49,2.57c0,2.16-1.57,2.67-3.63,2.67
			C517.6,213.88,517.04,213.88,516.39,213.86z M517.8,212.46c1.1,0,2.12-0.09,2.12-1.26c0-1.13-0.94-1.14-2.12-1.14h-1.41v2.4H517.8
			z"/>
		<path d="M526.35,208.45c2.48,0,4.43,2.16,4.43,4.68c0,2.53-1.95,4.7-4.43,4.7s-4.43-2.04-4.43-4.7S523.87,208.45,526.35,208.45z
			 M526.35,216.2c1.83,0,2.75-1.58,2.75-3.07c0-1.49-0.91-3.05-2.75-3.05s-2.73,1.57-2.73,3.05
			C523.62,214.62,524.51,216.2,526.35,216.2z"/>
	</g>
	<g>
		<path d="M453.07,213.08h1.69v-1.78h1.48v1.78h1.8v1.41h-1.8v1.81h-1.48v-1.81h-1.69V213.08z"/>
	</g>
	<g>
		<path d="M349.9,234.59h11.5v1.28h-10.04v6.72h9.39v1.28h-9.39v7.39h10.16v1.28H349.9V234.59z"/>
		<path d="M376.33,251.28v1.28H365.4v-17.97h1.46v16.68H376.33z"/>
		<path d="M388.06,245.04v7.52h-1.44v-17.97h4.93c3.82,0,6.98,0.82,6.98,5.13c0,4.31-3.16,5.34-7.31,5.34
			C390.53,245.07,389.27,245.07,388.06,245.04z M391.73,243.6c2.77,0,5.31-0.28,5.31-3.95c0-3.54-2.34-3.57-5.31-3.57h-3.67v7.52
			H391.73z"/>
		<path d="M412.91,248.07c0.28,1.03,1.36,4.49,1.36,4.49h-1.41c-0.62-2.26-1.1-3.93-1.21-4.29c-0.9-2.9-2.93-3.34-4-3.39
			c-0.23,0-0.44,0-0.72,0c-0.67,0-1.92-0.03-3.49-0.03v7.7h-1.46v-17.97H407c3.75,0,6.83,0.82,6.83,5.03c0,2.64-1.57,3.62-3.52,4.31
			c-0.46,0.15-1.08,0.1-1.54,0.1v0.31c0.46,0,1.1-0.1,1.54,0.08C411.29,244.86,412.29,245.89,412.91,248.07z M403.44,243.37h3.64
			c2.77,0,5.31,0,5.31-3.7c0-3.54-2.36-3.36-5.31-3.36h-3.64V243.37z"/>
		<path d="M422.97,234.21c4.95,0,8.34,3.93,8.34,9.37c0,5.44-3.39,9.39-8.34,9.39c-4.95,0-8.34-4.03-8.34-9.39
			C414.63,238.21,418.02,234.21,422.97,234.21z M422.97,251.61c4.06,0,6.88-3.75,6.88-8.03s-2.82-7.98-6.88-7.98
			c-4.08,0-6.9,3.7-6.9,7.98S418.89,251.61,422.97,251.61z"/>
		<path d="M436.55,245.04v7.52h-1.44v-17.97h4.93c3.82,0,6.98,0.82,6.98,5.13c0,4.31-3.16,5.34-7.31,5.34
			C439.01,245.07,437.75,245.07,436.55,245.04z M440.22,243.6c2.77,0,5.31-0.28,5.31-3.95c0-3.54-2.34-3.57-5.31-3.57h-3.67v7.52
			H440.22z"/>
		<path d="M463.63,246.32c0.03,4.29-3,6.62-6.9,6.62c-3.9,0-6.9-2.33-6.93-6.62c0-5.34,0.03-11.73,0.03-11.73h1.44v12.04
			c0.03,2.62,2.33,4.95,5.47,4.95c3.16,0,5.49-2.33,5.47-4.95c0-4.08,0-12.04,0-12.04h1.44V246.32z"/>
		<path d="M478.95,251.28v1.28h-10.93v-17.97h1.46v16.68H478.95z"/>
		<path d="M492.79,238.21c-0.03-1.1-1.67-2.52-4.21-2.52c-2.67,0-5.52,1.05-5.52,3.23c0,3.39,11.75,3.05,11.75,8.83
			c0,3.88-3.46,5.18-6.52,5.18c-3.98,0-6.67-2.57-6.78-5.13l1.9,0.54c0.46,2.33,3.11,3.23,4.65,3.23c3.39,0,5.54-1.44,5.54-3.34
			c0-5.06-11.91-3.82-11.91-9.27c0-3.7,3.93-4.77,6.65-4.77c4.18,0,6.62,2.72,6.31,4.57L492.79,238.21z"/>
		<path d="M505.65,234.21c4.95,0,8.34,3.93,8.34,9.37c0,5.44-3.39,9.39-8.34,9.39s-8.34-4.03-8.34-9.39
			C497.3,238.21,500.69,234.21,505.65,234.21z M505.65,251.61c4.05,0,6.88-3.75,6.88-8.03s-2.82-7.98-6.88-7.98
			c-4.08,0-6.9,3.7-6.9,7.98S501.56,251.61,505.65,251.61z"/>
		<path d="M528.67,248.07c0.28,1.03,1.36,4.49,1.36,4.49h-1.41c-0.62-2.26-1.1-3.93-1.21-4.29c-0.9-2.9-2.93-3.34-4-3.39
			c-0.23,0-0.44,0-0.72,0c-0.67,0-1.92-0.03-3.49-0.03v7.7h-1.46v-17.97h5.03c3.75,0,6.83,0.82,6.83,5.03
			c0,2.64-1.57,3.62-3.52,4.31c-0.46,0.15-1.08,0.1-1.54,0.1v0.31c0.46,0,1.1-0.1,1.54,0.08
			C527.05,244.86,528.05,245.89,528.67,248.07z M519.2,243.37h3.64c2.77,0,5.31,0,5.31-3.7c0-3.54-2.36-3.36-5.31-3.36h-3.64V243.37
			z"/>
		<path d="M447.35,278.23h-1.03v-18.35h5.34c4.8,0,8.42,3.64,8.42,8.98c0,5.34-3.75,9.42-8.55,9.39L447.35,278.23z M451.69,276.87
			c3.95,0,6.93-3.82,6.93-8.03c0-4.18-2.85-7.57-6.8-7.57h-4.05v15.6H451.69z"/>
		<path d="M464.17,260.26h11.5v1.28h-10.04v6.72h9.39v1.28h-9.39v7.39h10.16v1.28h-11.63V260.26z"/>
		<path d="M497.02,276.94v1.28h-10.93v-17.97h1.46v16.68H497.02z"/>
		<path d="M505.85,259.88c4.95,0,8.34,3.93,8.34,9.37c0,5.44-3.39,9.39-8.34,9.39s-8.34-4.03-8.34-9.39
			C497.51,263.88,500.9,259.88,505.85,259.88z M505.85,277.28c4.05,0,6.88-3.75,6.88-8.03s-2.82-7.98-6.88-7.98
			c-4.08,0-6.9,3.7-6.9,7.98S501.77,277.28,505.85,277.28z"/>
		<path d="M527.95,263.88c-0.03-1.1-1.67-2.52-4.21-2.52c-2.67,0-5.52,1.05-5.52,3.23c0,3.39,11.75,3.05,11.75,8.83
			c0,3.88-3.46,5.18-6.52,5.18c-3.98,0-6.67-2.57-6.78-5.13l1.9,0.54c0.46,2.33,3.11,3.23,4.65,3.23c3.39,0,5.54-1.44,5.54-3.34
			c0-5.06-11.91-3.82-11.91-9.27c0-3.7,3.93-4.77,6.65-4.77c4.18,0,6.62,2.72,6.31,4.57L527.95,263.88z"/>
		<path d="M345.15,285.93h11.5v1.28h-10.04v6.72H356v1.28h-9.39v7.39h10.16v1.28h-11.63V285.93z"/>
		<path d="M357.67,303.9h-1.31l6.03-9.39l-5.65-8.57h1.62l4.47,6.75c0.28,0.41,0.31,1.03,0.31,1.54l0.31,0.03
			c0.03-0.51,0.08-1.13,0.38-1.54l4.9-6.78h1.31l-5.75,8.91l6.13,9.06h-1.64l-4.98-7.31c-0.31-0.41-0.33-1.03-0.33-1.54h-0.31
			c0,0.51-0.05,1.13-0.36,1.54L357.67,303.9z"/>
		<path d="M374.74,296.38v7.52h-1.44v-17.97h4.93c3.82,0,6.98,0.82,6.98,5.13c0,4.31-3.16,5.34-7.31,5.34
			C377.21,296.4,375.95,296.4,374.74,296.38z M378.41,294.94c2.77,0,5.31-0.28,5.31-3.95c0-3.54-2.34-3.57-5.31-3.57h-3.67v7.52
			H378.41z"/>
		<path d="M399.59,302.61v1.28h-10.93v-17.97h1.46v16.68H399.59z"/>
		<path d="M408.42,285.55c4.95,0,8.34,3.93,8.34,9.37c0,5.44-3.39,9.39-8.34,9.39c-4.95,0-8.34-4.03-8.34-9.39
			C400.08,289.55,403.46,285.55,408.42,285.55z M408.42,302.95c4.06,0,6.88-3.75,6.88-8.03s-2.82-7.98-6.88-7.98
			c-4.08,0-6.9,3.7-6.9,7.98S404.34,302.95,408.42,302.95z"/>
		<path d="M431.44,299.4c0.28,1.03,1.36,4.49,1.36,4.49h-1.41c-0.62-2.26-1.1-3.93-1.21-4.29c-0.9-2.9-2.93-3.34-4-3.39
			c-0.23,0-0.44,0-0.72,0c-0.67,0-1.92-0.03-3.49-0.03v7.7h-1.46v-17.97h5.03c3.75,0,6.83,0.82,6.83,5.03
			c0,2.64-1.57,3.62-3.52,4.31c-0.46,0.15-1.08,0.1-1.54,0.1v0.31c0.46,0,1.1-0.1,1.54,0.08
			C429.82,296.2,430.82,297.22,431.44,299.4z M421.97,294.71h3.64c2.77,0,5.31,0,5.31-3.7c0-3.54-2.36-3.36-5.31-3.36h-3.64V294.71z
			"/>
		<path d="M439.55,285.88h2.26l7.06,17.99h-1.72l-2.67-6.52h-7.55l-2.44,6.52h-1.8L439.55,285.88z M440.91,288.29
			c-0.15-0.41-0.1-0.95-0.1-1.39h-0.31c0,0.44,0.05,0.98-0.1,1.39l-3,7.57h6.54L440.91,288.29z"/>
		<path d="M452.54,303.9h-1.03v-18.35h5.34c4.8,0,8.42,3.64,8.42,8.98c0,5.34-3.75,9.42-8.55,9.39L452.54,303.9z M456.88,302.54
			c3.95,0,6.93-3.82,6.93-8.03c0-4.18-2.85-7.57-6.8-7.57h-4.06v15.6H456.88z"/>
		<path d="M474.36,285.55c4.95,0,8.34,3.93,8.34,9.37c0,5.44-3.39,9.39-8.34,9.39c-4.95,0-8.34-4.03-8.34-9.39
			C466.02,289.55,469.4,285.55,474.36,285.55z M474.36,302.95c4.06,0,6.88-3.75,6.88-8.03s-2.82-7.98-6.88-7.98
			c-4.08,0-6.9,3.7-6.9,7.98S470.28,302.95,474.36,302.95z"/>
		<path d="M497.38,299.4c0.28,1.03,1.36,4.49,1.36,4.49h-1.41c-0.62-2.26-1.1-3.93-1.21-4.29c-0.9-2.9-2.93-3.34-4-3.39
			c-0.23,0-0.44,0-0.72,0c-0.67,0-1.92-0.03-3.49-0.03v7.7h-1.46v-17.97h5.03c3.75,0,6.83,0.82,6.83,5.03
			c0,2.64-1.57,3.62-3.52,4.31c-0.46,0.15-1.08,0.1-1.54,0.1v0.31c0.46,0,1.1-0.1,1.54,0.08
			C495.76,296.2,496.76,297.22,497.38,299.4z M487.91,294.71h3.64c2.77,0,5.31,0,5.31-3.7c0-3.54-2.36-3.36-5.31-3.36h-3.64V294.71z
			"/>
		<path d="M502.44,285.93h11.5v1.28H503.9v6.72h9.39v1.28h-9.39v7.39h10.16v1.28h-11.63V285.93z"/>
		<path d="M527.95,289.55c-0.03-1.1-1.67-2.52-4.21-2.52c-2.67,0-5.52,1.05-5.52,3.23c0,3.39,11.75,3.05,11.75,8.83
			c0,3.88-3.46,5.18-6.52,5.18c-3.98,0-6.67-2.57-6.78-5.13l1.9,0.54c0.46,2.33,3.11,3.23,4.65,3.23c3.39,0,5.54-1.44,5.54-3.34
			c0-5.06-11.91-3.82-11.91-9.27c0-3.7,3.93-4.77,6.65-4.77c4.18,0,6.62,2.72,6.31,4.57L527.95,289.55z"/>
		<path d="M412.63,329.56h-1.03v-18.35h5.34c4.8,0,8.42,3.64,8.42,8.98c0,5.34-3.75,9.42-8.55,9.39L412.63,329.56z M416.96,328.2
			c3.95,0,6.93-3.82,6.93-8.03c0-4.18-2.85-7.57-6.8-7.57h-4.05v15.6H416.96z"/>
		<path d="M429.28,311.6h1.44v17.97h-1.44V311.6z"/>
		<path d="M448.41,327.36c0-0.56,0.23-1.31,0.33-1.87l-0.33-0.05c-0.08,0.56-0.05,1.36-0.31,1.87c-0.67,1.1-2.31,2.67-5.26,2.67
			c-4.85,0-8.6-4.06-8.6-9.39c0-5.34,3.52-9.37,8.26-9.37c3.46,0,6.26,1.85,7.37,5.08c0,0-1.31,0.77-1.28,0.74
			c-0.85-2.75-3.11-4.44-6.01-4.44c-4.11,0-6.9,3.9-6.9,7.98c0,4.08,3.03,8.01,7.03,8.01c4.31,0,5.31-3.8,5.31-5.85h-4.83v-1.36
			h6.39v8.19h-1.18V327.36z"/>
		<path d="M453.49,311.6h1.44v17.97h-1.44V311.6z"/>
		<path d="M461.7,329.56v-16.68h-5.49v-1.28h12.45v1.28h-5.49v16.68H461.7z"/>
		<path d="M475.56,311.55h2.26l7.06,17.99h-1.72l-2.67-6.52h-7.55l-2.44,6.52h-1.8L475.56,311.55z M476.92,313.96
			c-0.15-0.41-0.1-0.95-0.1-1.39h-0.31c0,0.44,0.05,0.98-0.1,1.39l-3,7.57h6.54L476.92,313.96z"/>
		<path d="M498.61,328.28v1.28h-10.93V311.6h1.46v16.68H498.61z"/>
		<path d="M502.44,311.6h11.5v1.28H503.9v6.72h9.39v1.28h-9.39v7.39h10.16v1.28h-11.63V311.6z"/>
		<path d="M527.95,315.22c-0.03-1.1-1.67-2.52-4.21-2.52c-2.67,0-5.52,1.05-5.52,3.23c0,3.39,11.75,3.05,11.75,8.83
			c0,3.88-3.46,5.18-6.52,5.18c-3.98,0-6.67-2.57-6.78-5.13l1.9,0.54c0.46,2.33,3.11,3.23,4.65,3.23c3.39,0,5.54-1.44,5.54-3.34
			c0-5.06-11.91-3.82-11.91-9.27c0-3.7,3.93-4.77,6.65-4.77c4.18,0,6.62,2.72,6.31,4.57L527.95,315.22z"/>
	</g>
	<g>
		<path d="M50.9,41.63h11.55l18.9,49.08H70.5l-6.37-16.94H49.64L43.83,90.7H32.98L50.9,41.63z M57.9,55.07
			c-0.7-1.47-0.28-3.64-0.28-5.32h-1.75c0,1.68,0.42,3.85-0.28,5.32L50.48,66.2h12.6L57.9,55.07z"/>
		<path d="M94.65,90.78h-10.5v-49h10.5l21.28,27.51c1.82,2.45,2.94,6.23,3.92,9.17l1.61-0.56c-0.98-2.94-2.45-6.58-2.45-9.66V41.77
			h10.5v49h-10.5L97.8,63.33c-1.89-2.45-3.01-6.23-3.99-9.17l-1.61,0.56c0.98,2.94,2.45,6.58,2.45,9.66V90.78z"/>
		<path d="M149.11,90.78v-39.2h-12.6v-9.8h35.77v9.8h-12.67v39.2H149.11z"/>
		<path d="M179.28,41.77h10.5v49h-10.5V41.77z"/>
		<path d="M208.68,90.78h-10.5v-49h16.45l11.41,31.5c0.98,2.66,0.77,6.37,0.77,9.17h1.75c0-2.8-0.21-6.51,0.7-9.17l11.34-31.5h16.45
			v49h-10.5V56.61c0-2.87,1.19-6.51,1.61-9.31l-1.75-0.28c-0.42,2.8-0.42,6.65-1.33,9.31l-11.13,34.44h-12.6l-11.2-34.44
			c-0.91-2.66-0.91-6.51-1.4-9.31l-1.68,0.28c0.42,2.8,1.61,6.44,1.61,9.31V90.78z"/>
		<path d="M277.77,41.63h11.55l18.9,49.08h-10.85L291,73.76h-14.49L270.7,90.7h-10.85L277.77,41.63z M284.77,55.07
			c-0.7-1.47-0.28-3.64-0.28-5.32h-1.75c0,1.68,0.42,3.85-0.28,5.32l-5.11,11.13h12.6L284.77,55.07z"/>
		<path d="M322.22,90.78v-39.2h-12.6v-9.8h35.77v9.8h-12.67v39.2H322.22z"/>
		<path d="M352.38,41.77h34.86v9.8h-24.71v9.38h22.96v9.8h-22.96v10.22h25.06v9.8h-35.21V41.77z"/>
		<path d="M428.9,78.52c0.63,2.8,3.71,12.25,3.71,12.25h-10.78c-1.54-6.16-2.66-10.71-2.94-11.69c-2.17-7.91-6.86-6.58-9.38-6.72
			h-6.86v18.41h-10.15v-49h18.48c11.2,0,20.44,2.24,20.44,13.72c0,6.09-3.01,8.89-7.21,10.78c-2.59,1.19-6.3,0.77-9.17,0.77v1.75
			c2.87,0,6.79-0.77,9.17,0.84C427.08,71.45,427.99,74.53,428.9,78.52z M402.64,63.96h7.42c5.67,0,10.85-3.08,10.85-8.33
			c0-5.32-4.76-7.42-10.85-7.42h-7.42V63.96z"/>
		<path d="M441.42,41.77h10.5v49h-10.5V41.77z"/>
		<path d="M472.64,41.63h11.55l18.9,49.08h-10.85l-6.37-16.94h-14.49l-5.81,16.94h-10.85L472.64,41.63z M479.64,55.07
			c-0.7-1.47-0.28-3.64-0.28-5.32h-1.75c0,1.68,0.42,3.85-0.28,5.32l-5.11,11.13h12.6L479.64,55.07z"/>
	</g>
	<g>
		<path d="M40.7,293.49c3.41,0,5.14,3.02,5.14,7.03c0,4.01-1.73,7.05-5.14,7.05c-3.43,0-5.16-3.04-5.16-7.05
			C35.54,296.51,37.28,293.49,40.7,293.49z M40.7,305.83c2.37,0,3.31-2.54,3.31-5.32c0-2.77-0.94-5.28-3.31-5.28
			c-2.39,0-3.33,2.5-3.33,5.28C37.37,303.29,38.32,305.83,40.7,305.83z"/>
		<path d="M52.14,302.69c-2.45,0-4.72-1.41-4.72-4.24c0-2.43,1.87-4.68,4.85-4.68c4.06,0,5.33,2.68,5.33,6.62
			c0,4.83-1.75,7.14-4.68,7.14c-3.56,0-4.89-2.04-5.2-3.68h1.91c0.35,0.96,1.27,1.94,3.1,1.94c2.16,0,2.95-1.71,3.06-4.66
			c0.02-0.56,0.27-1.25,0.42-1.79l-0.33-0.08c-0.15,0.54-0.23,1.27-0.54,1.73C54.72,301.98,53.85,302.69,52.14,302.69z
			 M52.27,295.53c-1.96,0-3,1.12-3,2.77s1.17,2.66,3.16,2.66c1.96,0,2.85-1.16,2.85-2.66S54.26,295.53,52.27,295.53z"/>
		<path d="M60.38,305.27h1.98v1.98h-1.98V305.27z"/>
		<path d="M66.81,305.77l0.13,0.33c0.52-0.23,1.17-0.54,1.73-0.54h5.28v1.69h-8.84v-1.66c1.41-1.42,2.46-2.68,5.12-5.26
			c3-2.93,1.56-5.04-0.46-5.04c-2.06,0-2.52,1.35-2.52,2.62h-1.91c0-1.96,1.1-4.43,4.68-4.43c3.33,0,5.22,3.91,2.73,6.62
			c-1.69,1.87-3.47,3.77-4.37,4.76C68,305.29,67.33,305.56,66.81,305.77z"/>
		<path d="M81.13,293.49c3.41,0,5.14,3.02,5.14,7.03c0,4.01-1.73,7.05-5.14,7.05c-3.43,0-5.16-3.04-5.16-7.05
			C75.97,296.51,77.7,293.49,81.13,293.49z M81.13,305.83c2.37,0,3.31-2.54,3.31-5.32c0-2.77-0.94-5.28-3.31-5.28
			c-2.39,0-3.33,2.5-3.33,5.28C77.8,303.29,78.74,305.83,81.13,305.83z"/>
		<path d="M89.85,305.77l0.13,0.33c0.52-0.23,1.17-0.54,1.73-0.54h5.28v1.69h-8.84v-1.66c1.41-1.42,2.46-2.68,5.12-5.26
			c3-2.93,1.56-5.04-0.46-5.04c-2.06,0-2.52,1.35-2.52,2.62h-1.91c0-1.96,1.1-4.43,4.68-4.43c3.33,0,5.22,3.91,2.73,6.62
			c-1.69,1.87-3.47,3.77-4.37,4.76C91.04,305.29,90.37,305.56,89.85,305.77z"/>
		<path d="M104.17,293.49c3.41,0,5.14,3.02,5.14,7.03c0,4.01-1.73,7.05-5.14,7.05c-3.43,0-5.16-3.04-5.16-7.05
			C99.01,296.51,100.75,293.49,104.17,293.49z M104.17,305.83c2.37,0,3.31-2.54,3.31-5.32c0-2.77-0.94-5.28-3.31-5.28
			c-2.39,0-3.33,2.5-3.33,5.28C100.84,303.29,101.79,305.83,104.17,305.83z"/>
		<path d="M48.62,324.1h-0.27c0,0.27-0.69,2.62-3.25,2.7c-0.27,0.02-0.52,0-0.75-0.02c-2.58-0.29-4.39-2.46-4.39-5.14
			s1.85-4.74,4.45-5.01c0.27-0.02,0.52-0.04,0.79-0.02c1.27,0.04,2.31,0.5,2.97,1.21c0.39,0.42,0.5,1.12,0.67,1.6l0.33-0.12
			c-0.17-0.48-0.48-1.08-0.5-1.6l-0.04-0.75h1.54v7.78c0,1.35,0.35,1.66,1.02,1.66c1.64,0,1.58-3.35,1.58-4.53
			c-0.02-4.85-3.47-7.76-7.45-7.76c-4.22,0-7.49,3.14-7.49,7.68c0,4.83,3.7,7.22,7.72,7.22c0.77,0,1.54-0.08,2.31-0.25l0.4,1.62
			c-0.94,0.19-1.85,0.27-2.73,0.27c-5.39,0-9.4-3.37-9.38-8.9c0-5.45,3.89-9.26,9.13-9.26c5.18,0,9.17,3.72,9.19,9.28
			c0,4.06-1.21,6.12-3.29,6.12c-1.54,0-2.54-0.98-2.54-2.52V324.1z M45.04,325.18c2.14,0,3.22-1.73,3.33-3.54
			c0-2.14-1.19-3.43-3.31-3.43c-2.18,0-3.33,1.5-3.33,3.43C41.72,323.58,42.86,325.18,45.04,325.18z"/>
		<path d="M60.51,312.99h2.29l5.26,13.5h-1.98l-1.89-4.79H59.2l-1.75,4.79h-2L60.51,312.99z M61.9,315.55
			c-0.15-0.35-0.08-0.83-0.08-1.21h-0.35c0,0.38,0.08,0.87-0.06,1.21l-1.93,4.64h4.33L61.9,315.55z"/>
		<path d="M71.43,326.51h-1.79v-13.48h1.79l6.74,9.28c0.5,0.67,0.85,1.71,1.12,2.52l0.31-0.12c-0.25-0.79-0.6-1.83-0.6-2.68v-9.01
			h1.81v13.48H79l-6.74-9.26c-0.5-0.67-0.83-1.71-1.1-2.52l-0.33,0.12c0.27,0.79,0.6,1.83,0.6,2.68V326.51z"/>
		<path d="M86.02,326.51v-11.82h-3.87v-1.66h9.55v1.66h-3.87v11.82H86.02z"/>
		<path d="M93.99,313.03h1.79v13.48h-1.79V313.03z"/>
		<path d="M97.92,327.89h8.55v1.56h-8.55V327.89z"/>
		<path d="M110.99,326.51h-1.81v-13.48h2.52l4.64,10.48c0.21,0.52,0.19,1.23,0.19,1.79h0.35c0-0.56-0.04-1.27,0.19-1.79l4.64-10.48
			h2.48v13.48h-1.79v-9.78c0-0.56,0.23-1.25,0.35-1.81l-0.33-0.06c-0.12,0.54-0.17,1.29-0.38,1.79l-4.33,9.86h-2.02l-4.35-9.86
			c-0.21-0.5-0.27-1.25-0.37-1.79l-0.33,0.06c0.1,0.56,0.35,1.25,0.35,1.81V326.51z"/>
		<path d="M130.12,312.99h2.29l5.26,13.5h-1.98l-1.89-4.79h-4.99l-1.75,4.79h-2L130.12,312.99z M131.51,315.55
			c-0.15-0.35-0.08-0.83-0.08-1.21h-0.35c0,0.38,0.08,0.87-0.06,1.21l-1.93,4.64h4.33L131.51,315.55z"/>
		<path d="M141.79,326.51v-11.82h-3.87v-1.66h9.55v1.66h-3.87v11.82H141.79z"/>
		<path d="M149.76,313.03h9.01v1.66h-7.24v4.06h6.76v1.66h-6.76v4.45h7.34v1.66h-9.11V313.03z"/>
		<path d="M170.07,323.14c0.21,0.77,1.04,3.37,1.04,3.37h-1.83c-0.44-1.69-0.79-2.95-0.87-3.22c-0.64-2.18-2.08-2.23-2.83-2.27
			c-0.15,0.02-0.31,0.02-0.5,0.02c-0.5,0-1.44-0.02-2.16-0.02v5.49h-1.77v-13.48h4.29c2.91,0,5.33,0.62,5.33,3.77
			c0,1.85-1.06,2.62-2.39,3.14c-0.48,0.19-1.17,0.12-1.69,0.12v0.35c0.52,0,1.23-0.15,1.69,0.12
			C169.15,320.92,169.7,321.71,170.07,323.14z M162.93,319.42h2.46c1.87,0,3.58-0.35,3.58-2.58c0-2.18-1.58-2.33-3.58-2.33h-2.46
			V319.42z"/>
		<path d="M173.65,313.03h1.79v13.48h-1.79V313.03z"/>
		<path d="M181.37,312.99h2.29l5.26,13.5h-1.98l-1.89-4.79h-4.99l-1.75,4.79h-2L181.37,312.99z M182.76,315.55
			c-0.15-0.35-0.08-0.83-0.08-1.21h-0.35c0,0.38,0.08,0.87-0.06,1.21l-1.93,4.64h4.33L182.76,315.55z"/>
		<path d="M189.43,327.89h8.55v1.56h-8.55V327.89z"/>
	</g>
	<g>
		<path d="M404.18,193.64h1.68v8.98h-1.68V193.64z"/>
		<path d="M409.07,202.62h-1.48v-9.18h3.76c2.54,0,4.46,1.82,4.46,4.49c0,2.67-1.99,4.71-4.53,4.7L409.07,202.62z M411.05,201.04
			c1.8,0,3.14-1.46,3.14-3.08c0-1.63-1.28-2.93-3.08-2.93h-1.83v6.01H411.05z"/>
		<path d="M417.17,193.64h6.26v1.57h-4.63v2.05h4.31v1.57h-4.31v2.23h4.7v1.57h-6.33V193.64z"/>
		<path d="M426.28,202.62h-1.68v-8.98h1.68l4.09,5.43c0.33,0.44,0.54,1.14,0.72,1.67l0.28-0.09c-0.18-0.53-0.44-1.21-0.44-1.77
			v-5.24h1.68v8.98h-1.68l-4.09-5.42c-0.35-0.45-0.55-1.14-0.73-1.68l-0.27,0.1c0.18,0.53,0.44,1.21,0.44,1.77V202.62z"/>
		<path d="M436.19,202.62v-7.42h-2.4v-1.57h6.48v1.57h-2.4v7.42H436.19z"/>
		<path d="M441.64,193.64h1.68v8.98h-1.68V193.64z"/>
		<path d="M446.53,202.62h-1.48v-9.18h3.76c2.54,0,4.46,1.82,4.46,4.49c0,2.67-1.99,4.71-4.53,4.7L446.53,202.62z M448.51,201.04
			c1.8,0,3.14-1.46,3.14-3.08c0-1.63-1.28-2.93-3.08-2.93h-1.83v6.01H448.51z"/>
		<path d="M456.74,193.61h1.92l3.46,9h-1.76l-1.21-3.13h-2.86l-1.1,3.13h-1.77L456.74,193.61z M457.9,195.83
			c-0.12-0.27-0.05-0.64-0.05-0.92h-0.3c0,0.28,0.06,0.66-0.05,0.92l-1.05,2.39h2.5L457.9,195.83z"/>
		<path d="M464.55,202.62h-1.48v-9.18h3.76c2.54,0,4.46,1.82,4.46,4.49c0,2.67-1.99,4.71-4.53,4.7L464.55,202.62z M466.53,201.04
			c1.8,0,3.14-1.46,3.14-3.08c0-1.63-1.28-2.93-3.08-2.93h-1.83v6.01H466.53z"/>
		<path d="M483.15,201.9c0-0.51,0.23-1.16,0.36-1.66l-0.27-0.06c-0.14,0.49-0.17,1.22-0.51,1.6c-0.45,0.49-1.28,1.04-2.61,1.04
			c-2.64,0-4.7-2.03-4.7-4.7c0-2.67,2.01-4.68,4.77-4.68c1.99,0,3.59,0.92,4.2,2.54c0,0-1.68,0.39-1.67,0.37
			c-0.4-0.82-1.37-1.32-2.63-1.32c-1.77,0-2.99,1.28-2.99,3.09c0,1.81,1.31,3.11,3.21,3.11c2.04,0,2.64-1.32,2.64-2.03h-2.41v-1.45
			h4.22v4.86h-1.62V201.9z"/>
		<path d="M492.62,200.38c0.12,0.51,0.68,2.25,0.68,2.25h-1.73c-0.28-1.13-0.5-1.96-0.54-2.14c-0.41-1.45-1.31-1.3-1.78-1.32
			c-0.09,0-0.19,0-0.31,0c-0.31,0-0.96,0-1.12,0v3.46h-1.63v-8.98h3.21c2.01,0,3.68,0.41,3.68,2.51c0,1.16-0.6,1.67-1.41,2.01
			c-0.42,0.19-1.04,0.12-1.5,0.12v0.3c0.46,0,1.12-0.13,1.5,0.13C492.18,199.02,492.41,199.57,492.62,200.38z M487.82,197.77h1.45
			c1.12,0,2.13-0.45,2.13-1.59c0-1.13-0.94-1.42-2.13-1.42h-1.45V197.77z"/>
		<path d="M496.82,193.61h1.92l3.46,9h-1.76l-1.21-3.13h-2.86l-1.1,3.13h-1.77L496.82,193.61z M497.98,195.83
			c-0.12-0.27-0.05-0.64-0.05-0.92h-0.29c0,0.28,0.06,0.66-0.05,0.92l-1.05,2.39h2.5L497.98,195.83z"/>
		<path d="M504.59,195.27v2.31h3.88v1.62h-3.88v3.43h-1.68v-8.98h6.26v1.63H504.59z"/>
		<path d="M510.75,193.64h1.68v8.98h-1.68V193.64z"/>
		<path d="M513.53,198.12c0-2.67,1.96-4.67,4.62-4.67c2.73,0,4.02,1.49,4.2,3.21h-1.69c-0.21-0.76-0.69-1.59-2.49-1.59
			c-1.66,0-2.95,1.13-2.95,3.07c0,1.93,1.28,3.07,2.95,3.07c1.89,0,2.39-0.83,2.61-1.59h1.69c-0.24,2-1.6,3.21-4.26,3.21
			C515.51,202.81,513.53,200.8,513.53,198.12z"/>
		<path d="M525.99,193.61h1.92l3.46,9h-1.76l-1.21-3.13h-2.86l-1.1,3.13h-1.77L525.99,193.61z M527.16,195.83
			c-0.12-0.27-0.05-0.64-0.05-0.92h-0.3c0,0.28,0.06,0.66-0.05,0.92l-1.05,2.39h2.5L527.16,195.83z"/>
	</g>
	<g>
		<g>
			<path d="M499.04,189.44l1.13,1.13l-2.39,2.08l-0.82-0.82L499.04,189.44z"/>
		</g>
	</g>
</g>
</svg>
