<?xml version="1.0" encoding="utf-8"?>
<!-- Generator: Adobe Illustrator 25.0.0, SVG Export Plug-In . SVG Version: 6.00 Build 0)  -->
<svg version="1.1" id="Layer_1" xmlns="http://www.w3.org/2000/svg" xmlns:xlink="http://www.w3.org/1999/xlink" x="0px" y="0px"
	 viewBox="0 0 601.45 400.52" style="enable-background:new 0 0 601.45 400.52;" xml:space="preserve">
<g>
	<g>
		<g>
			<rect x="34.7" y="34.23" style="fill:#B2E2FB;" width="565.38" height="365.38"/>
		</g>
		<g>
			<g>
				<path d="M599.44,34.88v364.1H35.34V34.88H599.44 M600.72,33.59H34.06v366.67h566.67V33.59L600.72,33.59z"/>
			</g>
		</g>
	</g>
	<g>
		<g>
			<rect x="18.03" y="17.57" style="fill:#285F4A;" width="565.38" height="365.38"/>
		</g>
		<g>
			<path d="M582.77,18.21v364.1H18.67V18.21H582.77 M584.06,16.93H17.39v366.67h566.67V16.93L584.06,16.93z"/>
		</g>
	</g>
	<g>
		<g>
			<rect x="1.36" y="0.9" style="fill:#F4F4F4;" width="565.38" height="365.38"/>
		</g>
		<g>
			<path d="M566.11,1.54v364.1H2.01V1.54H566.11 M567.39,0.26H0.72v366.67h566.67V0.26L567.39,0.26z"/>
		</g>
	</g>
	<g>
		<path d="M454.69,188.6v3.76H453v-8.98h3.36c1.91,0,3.49,0.41,3.49,2.57c0,2.16-1.57,2.67-3.63,2.67
			C455.89,188.62,455.34,188.62,454.69,188.6z M456.1,187.2c1.1,0,2.12-0.09,2.12-1.26c0-1.13-0.94-1.14-2.12-1.14h-1.41v2.4H456.1z
			"/>
		<path d="M462.96,183.35h1.92l3.46,9h-1.76l-1.21-3.13h-2.86l-1.1,3.13h-1.77L462.96,183.35z M464.13,185.58
			c-0.12-0.27-0.05-0.64-0.05-0.92h-0.29c0,0.28,0.06,0.66-0.05,0.92l-1.05,2.39h2.5L464.13,185.58z"/>
		<path d="M476.35,191.64c0-0.51,0.23-1.16,0.36-1.66l-0.27-0.06c-0.14,0.49-0.17,1.22-0.51,1.6c-0.45,0.49-1.28,1.04-2.61,1.04
			c-2.64,0-4.7-2.03-4.7-4.7s2.01-4.68,4.77-4.68c1.99,0,3.59,0.92,4.2,2.54c0,0-1.68,0.39-1.67,0.37c-0.4-0.82-1.37-1.32-2.63-1.32
			c-1.77,0-2.99,1.28-2.99,3.09s1.31,3.11,3.21,3.11c2.04,0,2.64-1.32,2.64-2.03h-2.41v-1.45h4.22v4.86h-1.62V191.64z"/>
		<path d="M479.39,183.38h1.68v8.98h-1.68V183.38z"/>
		<path d="M484.49,192.36h-1.68v-8.98h1.68l4.09,5.43c0.33,0.44,0.54,1.14,0.72,1.67l0.28-0.09c-0.18-0.53-0.44-1.21-0.44-1.77
			v-5.24h1.68v8.98h-1.68l-4.09-5.42c-0.35-0.45-0.55-1.14-0.73-1.68l-0.27,0.1c0.18,0.53,0.44,1.21,0.44,1.77V192.36z"/>
		<path d="M494.68,183.35h1.92l3.46,9h-1.76l-1.21-3.13h-2.86l-1.1,3.13h-1.77L494.68,183.35z M495.84,185.58
			c-0.12-0.27-0.05-0.64-0.05-0.92h-0.29c0,0.28,0.06,0.66-0.05,0.92l-1.05,2.39h2.5L495.84,185.58z"/>
		<path d="M507.48,192.36h-1.94l-2.23-8.98h1.63l1.36,5.79c0.12,0.45,0.04,1.08,0.03,1.54l0.28,0.01c0.01-0.47-0.04-1.09,0.08-1.55
			l1.63-5.79h1.92l1.66,5.79c0.12,0.46,0.06,1.08,0.08,1.55l0.29-0.01c-0.01-0.46-0.09-1.09,0.01-1.54l1.36-5.79h1.63l-2.22,8.98
			h-1.95l-1.62-6.56c-0.12-0.49-0.05-1.14-0.05-1.64h-0.29c0,0.5,0.06,1.16-0.05,1.64L507.48,192.36z"/>
		<path d="M516.35,183.38h6.26v1.57h-4.63V187h4.31v1.57h-4.31v2.23h4.7v1.57h-6.33V183.38z"/>
		<path d="M531.06,189.86c0,2.16-1.33,2.53-3.61,2.53c-0.35,0-1.26-0.01-2.04-0.01v-0.01h-1.63v-8.98h3.52c1.86,0,3.3,0.29,3.3,2.21
			c0,0.94-0.47,1.44-1.48,1.8c-0.33,0.13-0.81,0.04-1.16,0.04v0.28c0.35,0,0.82-0.08,1.16,0.04
			C530.08,188.06,531.06,188.56,531.06,189.86z M526.88,186.76c1.16,0,2.03-0.1,2.03-1.09c0-0.96-0.8-0.98-2.03-0.98h-1.46v2.07
			H526.88z M526.91,191.09c1.53,0,2.46,0.05,2.46-1.28c0-1.37-1.19-1.37-2.82-1.37c-0.19,0-0.58,0-1.01-0.01h-0.13v2.67H526.91z"/>
	</g>
	<g>
		<path d="M438.07,187.82h1.69v-1.78h1.48v1.78h1.8v1.41h-1.8v1.81h-1.48v-1.81h-1.69V187.82z"/>
	</g>
	<g>
		<path d="M427,226.02v1.28h-10.93v-17.96h1.46v16.68H427z"/>
		<path d="M435.83,208.95c4.95,0,8.34,3.93,8.34,9.37s-3.39,9.39-8.34,9.39s-8.34-4.03-8.34-9.39S430.88,208.95,435.83,208.95z
			 M435.83,226.35c4.06,0,6.88-3.75,6.88-8.03c0-4.29-2.82-7.98-6.88-7.98c-4.08,0-6.9,3.7-6.9,7.98
			C428.93,222.6,431.75,226.35,435.83,226.35z"/>
		<path d="M446.9,218.29c0-5.34,3.59-9.34,8.5-9.34c3.67,0,7.11,2.05,7.73,5.65h-1.59c-0.62-2.54-2.82-4.34-6.16-4.34
			c-4.24,0-7.03,4.05-7.03,8.03c0,4,2.85,8.08,7.13,8.08c3.31,0,5.54-1.8,6.16-4.34h1.59c-0.59,3.39-4,5.65-7.78,5.65
			C450.51,227.68,446.9,223.66,446.9,218.29z"/>
		<path d="M479.75,221.06c0.03,4.29-3,6.62-6.9,6.62s-6.9-2.33-6.93-6.62c0-5.34,0.03-11.73,0.03-11.73h1.44v12.04
			c0.03,2.62,2.34,4.95,5.47,4.95c3.16,0,5.49-2.34,5.47-4.95c0-4.08,0-12.04,0-12.04h1.44V221.06z"/>
		<path d="M487.99,227.3v-16.68h-5.49v-1.28h12.45v1.28h-5.49v16.68H487.99z"/>
		<path d="M505.65,208.95c4.95,0,8.34,3.93,8.34,9.37s-3.39,9.39-8.34,9.39s-8.34-4.03-8.34-9.39S500.7,208.95,505.65,208.95z
			 M505.65,226.35c4.06,0,6.88-3.75,6.88-8.03c0-4.29-2.82-7.98-6.88-7.98c-4.08,0-6.9,3.7-6.9,7.98
			C498.75,222.6,501.57,226.35,505.65,226.35z"/>
		<path d="M528.67,222.81c0.28,1.03,1.36,4.49,1.36,4.49h-1.41c-0.62-2.26-1.1-3.93-1.21-4.29c-0.9-2.9-2.93-3.34-4-3.39
			c-0.23,0-0.44,0-0.72,0c-0.67,0-1.92-0.03-3.49-0.03v7.7h-1.46v-17.96h5.03c3.75,0,6.83,0.82,6.83,5.03
			c0,2.64-1.57,3.62-3.52,4.31c-0.46,0.15-1.08,0.1-1.54,0.1v0.31c0.46,0,1.1-0.1,1.54,0.08
			C527.06,219.6,528.06,220.63,528.67,222.81z M519.2,218.11h3.64c2.77,0,5.31,0,5.31-3.7c0-3.54-2.36-3.36-5.31-3.36h-3.64V218.11z
			"/>
		<path d="M374.95,245.45v7.52h-1.44V235h4.93c3.82,0,6.98,0.82,6.98,5.13s-3.16,5.34-7.32,5.34
			C377.41,245.47,376.16,245.47,374.95,245.45z M378.62,244.01c2.77,0,5.31-0.28,5.31-3.95c0-3.54-2.33-3.57-5.31-3.57h-3.67v7.52
			H378.62z"/>
		<path d="M402.03,246.73c0.03,4.29-3,6.62-6.9,6.62s-6.9-2.33-6.93-6.62c0-5.34,0.03-11.73,0.03-11.73h1.44v12.04
			c0.03,2.62,2.34,4.95,5.47,4.95c3.16,0,5.49-2.34,5.47-4.95c0-4.08,0-12.04,0-12.04h1.44V246.73z"/>
		<path d="M419.3,247.96c0,4.31-2.93,5.06-7.47,5.06c-0.69,0-2.52-0.03-3.95-0.03v-0.03h-1.46V235h5.59c3.44,0,6.37,0.79,6.37,4.64
			c0,1.88-0.1,2.98-1.41,3.52c-0.44,0.15-1.05,0.03-1.51,0.03v0.31c0.46,0.03,1.08-0.05,1.49,0.13
			C418.35,244.24,419.3,245.52,419.3,247.96z M412.19,242.78c2.41,0,4.72-0.18,4.72-3.26c0-2.93-2.16-2.93-4.72-2.93h-4.31v6.18
			H412.19z M412.68,251.45c2.34,0,5.18,0.03,5.18-3.57c0-4.05-3.36-3.8-5.9-3.8c-0.62,0-2.28,0-3.67-0.03h-0.41v7.39H412.68z"/>
		<path d="M433.85,251.68v1.28h-10.93V235h1.46v16.68H433.85z"/>
		<path d="M437.53,235h1.44v17.96h-1.44V235z"/>
		<path d="M440.63,243.96c0-5.34,3.59-9.34,8.5-9.34c3.67,0,7.11,2.05,7.73,5.65h-1.59c-0.62-2.54-2.82-4.34-6.16-4.34
			c-4.24,0-7.03,4.05-7.03,8.03c0,4,2.85,8.08,7.13,8.08c3.31,0,5.54-1.8,6.16-4.34h1.59c-0.59,3.39-4,5.65-7.78,5.65
			C444.25,253.35,440.63,249.32,440.63,243.96z"/>
		<path d="M460.32,235h1.44v17.96h-1.44V235z"/>
		<path d="M468.53,252.97v-16.68h-5.49V235h12.45v1.28H470v16.68H468.53z"/>
		<path d="M482.39,234.95h2.26l7.06,17.99h-1.72l-2.67-6.52h-7.55l-2.44,6.52h-1.8L482.39,234.95z M483.75,237.36
			c-0.15-0.41-0.1-0.95-0.1-1.39h-0.31c0,0.44,0.05,0.98-0.1,1.39l-3,7.57h6.54L483.75,237.36z"/>
		<path d="M505.29,248.48c0.28,1.03,1.36,4.49,1.36,4.49h-1.41c-0.62-2.26-1.1-3.93-1.21-4.29c-0.9-2.9-2.93-3.34-4-3.39
			c-0.23,0-0.44,0-0.72,0c-0.67,0-1.92-0.03-3.49-0.03v7.7h-1.46V235h5.03c3.75,0,6.83,0.82,6.83,5.03c0,2.64-1.57,3.62-3.52,4.31
			c-0.46,0.15-1.08,0.1-1.54,0.1v0.31c0.46,0,1.1-0.1,1.54,0.08C503.67,245.27,504.67,246.3,505.29,248.48z M495.82,243.78h3.64
			c2.77,0,5.31,0,5.31-3.7c0-3.54-2.36-3.36-5.31-3.36h-3.64V243.78z"/>
		<path d="M510.19,235h1.44v17.96h-1.44V235z"/>
		<path d="M521.64,234.62c4.95,0,8.34,3.93,8.34,9.37s-3.39,9.39-8.34,9.39s-8.34-4.03-8.34-9.39S516.69,234.62,521.64,234.62z
			 M521.64,252.02c4.06,0,6.88-3.75,6.88-8.03c0-4.29-2.82-7.98-6.88-7.98c-4.08,0-6.9,3.7-6.9,7.98
			C514.74,248.27,517.56,252.02,521.64,252.02z"/>
		<path d="M374.87,269.63c0-5.34,3.59-9.34,8.5-9.34c3.67,0,7.11,2.05,7.73,5.65h-1.59c-0.62-2.54-2.82-4.34-6.16-4.34
			c-4.24,0-7.03,4.05-7.03,8.03c0,4,2.85,8.08,7.13,8.08c3.31,0,5.54-1.8,6.16-4.34h1.59c-0.59,3.39-4,5.65-7.78,5.65
			C378.49,279.02,374.87,274.99,374.87,269.63z"/>
		<path d="M401.87,260.29c4.95,0,8.34,3.93,8.34,9.37s-3.39,9.39-8.34,9.39s-8.34-4.03-8.34-9.39S396.92,260.29,401.87,260.29z
			 M401.87,277.69c4.06,0,6.88-3.75,6.88-8.03c0-4.29-2.82-7.98-6.88-7.98c-4.08,0-6.9,3.7-6.9,7.98
			C394.97,273.94,397.79,277.69,401.87,277.69z"/>
		<path d="M415.4,278.64h-1.44v-17.96h1.44l9.78,13.88c0.64,0.92,1.16,2.28,1.49,3.36l0.31-0.1c-0.33-1.05-0.72-2.46-0.72-3.59
			v-13.55h1.44v17.96h-1.44l-9.78-13.86c-0.64-0.92-1.16-2.28-1.49-3.36l-0.31,0.1c0.33,1.05,0.72,2.46,0.72,3.59V278.64z"/>
		<path d="M440.61,278.64h-1.46v-17.96h1.57l7.54,15.58c0.23,0.49,0.26,1.18,0.26,1.72h0.31c0-0.54,0-1.23,0.26-1.72l7.55-15.58
			h1.51v17.96h-1.44v-13.37c0-0.54,0.26-1.21,0.38-1.75l-0.31-0.08c-0.13,0.51-0.26,1.23-0.51,1.72l-6.9,13.47h-1.41l-6.9-13.47
			c-0.26-0.49-0.38-1.18-0.51-1.72l-0.31,0.08c0.13,0.54,0.39,1.21,0.39,1.75V278.64z"/>
		<path d="M466.22,260.62h2.26l7.06,17.99h-1.72l-2.67-6.52h-7.55l-2.44,6.52h-1.8L466.22,260.62z M467.58,263.03
			c-0.15-0.41-0.1-0.95-0.1-1.39h-0.31c0,0.44,0.05,0.98-0.1,1.39l-3,7.57h6.54L467.58,263.03z"/>
		<path d="M488.19,264.29c-0.03-1.1-1.67-2.52-4.21-2.52c-2.67,0-5.52,1.05-5.52,3.23c0,3.39,11.75,3.05,11.75,8.83
			c0,3.88-3.46,5.18-6.52,5.18c-3.98,0-6.67-2.57-6.78-5.13l1.9,0.54c0.46,2.34,3.11,3.23,4.65,3.23c3.39,0,5.54-1.44,5.54-3.34
			c0-5.06-11.91-3.82-11.91-9.27c0-3.7,3.93-4.77,6.65-4.77c4.18,0,6.62,2.72,6.31,4.57L488.19,264.29z"/>
		<path d="M501.41,278.64h-1.03v-18.35h5.34c4.8,0,8.42,3.64,8.42,8.98s-3.75,9.42-8.55,9.39L501.41,278.64z M505.75,277.28
			c3.95,0,6.93-3.82,6.93-8.03c0-4.18-2.85-7.57-6.8-7.57h-4.06v15.61H505.75z"/>
		<path d="M518.23,260.67h11.5v1.28h-10.04v6.72h9.39v1.28h-9.39v7.39h10.16v1.28h-11.63V260.67z"/>
		<path d="M390.22,303.43l0.15,0.31c0.67-0.31,1.57-0.67,2.31-0.67h7.29v1.23h-10.88V303c3.13-3.16,3.98-4.39,7.34-7.83
			c4.03-4.13,1.95-7.7-1.39-7.7c-3.23,0-4,1.46-4,3.62h-1.69c0-2.62,1.28-5.13,5.39-5.13c4.44,0,7.11,5.36,3.52,9.39
			c-2.36,2.64-4.77,5.39-5.98,6.78C391.76,302.69,390.91,303.12,390.22,303.43z"/>
		<path d="M410.09,293.24c3.29,0,5.47,2.15,5.47,5.59c0,3.41-2.46,5.85-6.16,5.85c-2.62,0-5.54-2.44-6.18-4.82h1.8
			c0.51,1.74,3,3.46,4.47,3.46c2.72,0,4.62-2.26,4.62-4.54c0-2-1.13-4.16-3.82-4.16c-2.41,0-3.29,0.85-4.44,1.49h-2.36l1.87-9.78
			h9.24v1.33h-7.75l-0.97,6.06c-0.1,0.62-0.51,1.28-0.82,1.82l0.26,0.15c0.33-0.51,0.72-1.23,1.26-1.54
			C407.47,293.63,408.68,293.24,410.09,293.24z"/>
		<path d="M430.21,286.29h2.26l7.06,17.99h-1.72l-2.67-6.52h-7.55l-2.44,6.52h-1.8L430.21,286.29z M431.57,288.7
			c-0.15-0.41-0.1-0.95-0.1-1.39h-0.31c0,0.44,0.05,0.98-0.1,1.39l-3,7.57h6.54L431.57,288.7z"/>
		<path d="M443.76,304.3h-1.44v-17.96h1.44l9.78,13.88c0.64,0.92,1.16,2.28,1.49,3.36l0.31-0.1c-0.33-1.05-0.72-2.46-0.72-3.59
			v-13.55h1.44v17.96h-1.44l-9.78-13.86c-0.64-0.92-1.16-2.28-1.49-3.36l-0.31,0.1c0.33,1.05,0.72,2.46,0.72,3.59V304.3z"/>
		<path d="M466.09,285.95c4.95,0,8.34,3.93,8.34,9.37s-3.39,9.39-8.34,9.39s-8.34-4.03-8.34-9.39S461.14,285.95,466.09,285.95z
			 M466.09,303.35c4.06,0,6.88-3.75,6.88-8.03c0-4.29-2.82-7.98-6.88-7.98c-4.08,0-6.9,3.7-6.9,7.98
			C459.19,299.61,462.01,303.35,466.09,303.35z"/>
		<path d="M488.19,289.96c-0.03-1.1-1.67-2.52-4.21-2.52c-2.67,0-5.52,1.05-5.52,3.23c0,3.39,11.75,3.05,11.75,8.83
			c0,3.88-3.46,5.18-6.52,5.18c-3.98,0-6.67-2.57-6.78-5.13l1.9,0.54c0.46,2.34,3.11,3.23,4.64,3.23c3.39,0,5.54-1.44,5.54-3.34
			c0-5.06-11.91-3.82-11.91-9.27c0-3.7,3.93-4.77,6.65-4.77c4.18,0,6.62,2.72,6.31,4.57L488.19,289.96z"/>
		<path d="M501.41,304.3h-1.03v-18.35h5.34c4.8,0,8.42,3.64,8.42,8.98s-3.75,9.42-8.55,9.39L501.41,304.3z M505.75,302.94
			c3.95,0,6.93-3.82,6.93-8.03c0-4.18-2.85-7.57-6.8-7.57h-4.06v15.61H505.75z"/>
		<path d="M518.23,286.34h11.5v1.28h-10.04v6.72h9.39v1.28h-9.39v7.39h10.16v1.28h-11.63V286.34z"/>
		<path d="M380.21,312.01h11.5v1.28h-10.04v6.72h9.39v1.28h-9.39v7.39h10.16v1.28h-11.63V312.01z"/>
		<path d="M392.74,329.97h-1.31l6.03-9.39l-5.65-8.57h1.62l4.47,6.75c0.28,0.41,0.31,1.03,0.31,1.54l0.31,0.03
			c0.03-0.51,0.08-1.13,0.38-1.54l4.9-6.78h1.31l-5.75,8.91l6.13,9.06h-1.64l-4.98-7.31c-0.31-0.41-0.33-1.03-0.33-1.54h-0.31
			c0,0.51-0.05,1.13-0.36,1.54L392.74,329.97z"/>
		<path d="M409.81,322.45v7.52h-1.44v-17.96h4.93c3.82,0,6.98,0.82,6.98,5.13s-3.16,5.34-7.32,5.34
			C412.27,322.48,411.01,322.48,409.81,322.45z M413.48,321.02c2.77,0,5.31-0.28,5.31-3.95c0-3.54-2.33-3.57-5.31-3.57h-3.67v7.52
			H413.48z"/>
		<path d="M423.72,312.01h11.5v1.28h-10.04v6.72h9.39v1.28h-9.39v7.39h10.16v1.28h-11.63V312.01z"/>
		<path d="M450.15,325.48c0.28,1.03,1.36,4.49,1.36,4.49h-1.41c-0.62-2.26-1.1-3.93-1.21-4.29c-0.9-2.9-2.93-3.34-4-3.39
			c-0.23,0-0.44,0-0.72,0c-0.67,0-1.92-0.03-3.49-0.03v7.7h-1.46v-17.96h5.03c3.75,0,6.83,0.82,6.83,5.03
			c0,2.64-1.57,3.62-3.52,4.31c-0.46,0.15-1.08,0.1-1.54,0.1v0.31c0.46,0,1.1-0.1,1.54,0.08
			C448.54,322.27,449.54,323.3,450.15,325.48z M440.68,320.78h3.64c2.77,0,5.31,0,5.31-3.7c0-3.54-2.36-3.36-5.31-3.36h-3.64V320.78
			z"/>
		<path d="M455.06,312.01h1.44v17.96h-1.44V312.01z"/>
		<path d="M461.5,312.01H473v1.28h-10.04v6.72h9.39v1.28h-9.39v7.39h10.16v1.28H461.5V312.01z"/>
		<path d="M478.44,329.97H477v-17.96h1.44l9.78,13.88c0.64,0.92,1.16,2.28,1.49,3.36l0.31-0.1c-0.33-1.05-0.72-2.46-0.72-3.59
			v-13.55h1.44v17.96h-1.44l-9.78-13.86c-0.64-0.92-1.16-2.28-1.49-3.36l-0.31,0.1c0.33,1.05,0.72,2.46,0.72,3.59V329.97z"/>
		<path d="M492.43,320.96c0-5.34,3.59-9.34,8.5-9.34c3.67,0,7.11,2.05,7.73,5.65h-1.59c-0.62-2.54-2.82-4.34-6.16-4.34
			c-4.24,0-7.03,4.05-7.03,8.03c0,4,2.85,8.08,7.13,8.08c3.31,0,5.54-1.8,6.16-4.34h1.59c-0.59,3.39-4,5.65-7.78,5.65
			C496.05,330.36,492.43,326.33,492.43,320.96z"/>
		<path d="M512.12,312.01h1.44v17.96h-1.44V312.01z"/>
		<path d="M521.61,311.96h2.26l7.06,17.99h-1.72l-2.67-6.52H519l-2.44,6.52h-1.8L521.61,311.96z M522.97,314.37
			c-0.15-0.41-0.1-0.95-0.1-1.39h-0.31c0,0.44,0.05,0.98-0.1,1.39l-3,7.57H526L522.97,314.37z"/>
	</g>
	<g>
		<g>
			<path d="M468.36,256.26l1.18,1.18l-2.96,2.78l-1-1L468.36,256.26z"/>
		</g>
	</g>
	<g>
		<path d="M36.48,65.94c0.07-14.56,10.92-25.48,25.69-25.48c16.17,0,22.61,8.75,23.38,17.99H75.13c-1.05-3.36-2.8-7.84-12.74-7.84
			c-8.47,0-15.4,4.9-15.4,15.4c0,10.43,6.86,15.4,15.26,15.4c10.57,0,12.53-4.48,13.58-7.91h10.43C85,84.85,78.07,91.57,62.53,91.57
			C47.54,91.57,36.55,80.58,36.48,65.94z"/>
		<path d="M93.32,41.51h34.86v9.8h-24.71v9.38h22.96v9.8h-22.96v10.22h25.06v9.8H93.32V41.51z"/>
		<path d="M167.46,54.39c-4.06-3.71-9.1-5.39-15.82-5.39c-3.99,0-7.56,1.61-7.56,4.27c0,6.51,32.41,5.6,32.41,23.31
			c0,8.96-9.73,14.98-24.15,14.98c-8.96,0-14.56-2.59-21-9.73l7.42-5.95c3.64,3.85,7.14,5.95,15.19,5.95c5.88,0,9.31-2.1,9.31-5.11
			c0-8.26-30.66-7.56-30.66-22.89c0-7.7,9.17-13.37,21.7-13.37c7.63,0,14.07,2.45,20.51,7.84L167.46,54.39z"/>
		<path d="M195.17,41.37h11.55l18.9,49.08h-10.85l-6.37-16.94h-14.49l-5.81,16.94h-10.85L195.17,41.37z M202.17,54.81
			c-0.7-1.47-0.28-3.64-0.28-5.32h-1.75c0,1.68,0.42,3.85-0.28,5.32l-5.11,11.13h12.6L202.17,54.81z"/>
		<path d="M266.58,78.27c0.63,2.8,3.71,12.25,3.71,12.25H259.5c-1.54-6.16-2.66-10.71-2.94-11.69c-2.17-7.91-6.86-6.58-9.38-6.72
			h-6.86v18.41h-10.15v-49h18.48c11.2,0,20.44,2.24,20.44,13.72c0,6.09-3.01,8.89-7.21,10.78c-2.59,1.19-6.3,0.77-9.17,0.77v1.75
			c2.87,0,6.79-0.77,9.17,0.84C264.75,71.19,265.67,74.27,266.58,78.27z M240.32,63.7h7.42c5.67,0,10.85-3.08,10.85-8.33
			c0-5.32-4.76-7.42-10.85-7.42h-7.42V63.7z"/>
		<path d="M49.08,160.52h-10.5v-49h16.45l11.41,31.5c0.98,2.66,0.77,6.37,0.77,9.17h1.75c0-2.8-0.21-6.51,0.7-9.17l11.34-31.5h16.45
			v49h-10.5v-34.16c0-2.87,1.19-6.51,1.61-9.31l-1.75-0.28c-0.42,2.8-0.42,6.65-1.33,9.31l-11.13,34.44h-12.6l-11.2-34.44
			c-0.91-2.66-0.91-6.51-1.4-9.31l-1.68,0.28c0.42,2.8,1.61,6.44,1.61,9.31V160.52z"/>
		<path d="M128.33,110.46c13.51,0,24.5,12.04,24.5,25.55c0,13.51-10.99,25.62-24.5,25.62s-24.5-11.13-24.5-25.62
			C103.82,121.52,114.81,110.46,128.33,110.46z M128.33,151.49c9.73,0,14-8.26,14-15.47c0-7.21-4.27-15.4-14-15.4s-14,8.19-14,15.4
			C114.32,143.22,118.59,151.49,128.33,151.49z"/>
		<path d="M195.53,148.27c0.63,2.8,3.71,12.25,3.71,12.25h-10.78c-1.54-6.16-2.66-10.71-2.94-11.69c-2.17-7.91-6.86-6.58-9.38-6.72
			h-6.86v18.41h-10.15v-49h18.48c11.2,0,20.44,2.24,20.44,13.72c0,6.09-3.01,8.89-7.21,10.78c-2.59,1.19-6.3,0.77-9.17,0.77v1.75
			c2.87,0,6.79-0.77,9.17,0.84C193.71,141.19,194.62,144.27,195.53,148.27z M169.27,133.7h7.42c5.67,0,10.85-3.08,10.85-8.33
			c0-5.32-4.76-7.42-10.85-7.42h-7.42V133.7z"/>
		<path d="M218.62,111.37h11.55l18.9,49.08h-10.85l-6.37-16.94h-14.49l-5.81,16.94H200.7L218.62,111.37z M225.62,124.81
			c-0.7-1.47-0.28-3.64-0.28-5.32h-1.75c0,1.68,0.42,3.85-0.28,5.32l-5.11,11.13h12.6L225.62,124.81z"/>
		<path d="M285.26,150.72v9.8h-33.39v-49h10.15v39.2H285.26z"/>
		<path d="M290.86,111.51h34.86v9.8h-24.71v9.38h22.96v9.8h-22.96v10.22h25.06v9.8h-35.21V111.51z"/>
		<path d="M364.99,124.39c-4.06-3.71-9.1-5.39-15.82-5.39c-3.99,0-7.56,1.61-7.56,4.27c0,6.51,32.41,5.6,32.41,23.31
			c0,8.96-9.73,14.98-24.15,14.98c-8.96,0-14.56-2.59-21-9.73l7.42-5.95c3.64,3.85,7.14,5.95,15.19,5.95c5.88,0,9.31-2.1,9.31-5.11
			c0-8.26-30.66-7.56-30.66-22.89c0-7.7,9.17-13.37,21.7-13.37c7.63,0,14.07,2.45,20.51,7.84L364.99,124.39z"/>
	</g>
	<g>
		<polygon points="116.94,25.35 105.75,38.52 110.65,43.42 123.82,32.23 		"/>
	</g>
	<g>
		<path style="fill:#F4F4F4;" d="M125.24,30.81l-6.88-6.88l-1.53-1.53l-1.4,1.65l-11.19,13.17l-1.19,1.41l1.3,1.3l4.9,4.9l1.3,1.3
			l1.41-1.19l13.17-11.19l1.65-1.4L125.24,30.81z M123.82,32.23l-13.17,11.19l-4.9-4.9l11.19-13.17L123.82,32.23z"/>
	</g>
	<g>
		<path d="M38.05,297.56v-1.73c1.41,0,2.54-1.02,2.54-2.31h2.33V307h-1.79v-9.57c0-0.58,0.33-1.2,0.58-1.7l-0.29-0.15
			c-0.27,0.5-0.58,1.18-1.08,1.43C39.63,297.35,38.76,297.56,38.05,297.56z"/>
		<path d="M49.46,297.56v-1.73c1.41,0,2.54-1.02,2.54-2.31h2.33V307h-1.79v-9.57c0-0.58,0.33-1.2,0.58-1.7l-0.29-0.15
			c-0.27,0.5-0.58,1.18-1.08,1.43C51.04,297.35,50.17,297.56,49.46,297.56z"/>
		<path d="M59.01,305.01h1.98V307h-1.98V305.01z"/>
		<path d="M65.44,305.52l0.13,0.33c0.52-0.23,1.17-0.54,1.73-0.54h5.28v1.7h-8.84v-1.66c1.41-1.43,2.46-2.68,5.12-5.26
			c3-2.93,1.56-5.04-0.46-5.04c-2.06,0-2.52,1.35-2.52,2.62h-1.91c0-1.96,1.1-4.43,4.68-4.43c3.33,0,5.22,3.91,2.73,6.62
			c-1.69,1.87-3.47,3.77-4.37,4.76C66.63,305.03,65.96,305.3,65.44,305.52z"/>
		<path d="M79.76,293.23c3.41,0,5.14,3.02,5.14,7.03s-1.73,7.05-5.14,7.05c-3.43,0-5.16-3.04-5.16-7.05S76.34,293.23,79.76,293.23z
			 M79.76,305.57c2.37,0,3.31-2.54,3.31-5.31s-0.94-5.28-3.31-5.28c-2.39,0-3.33,2.5-3.33,5.28S77.38,305.57,79.76,305.57z"/>
		<path d="M88.48,305.52l0.13,0.33c0.52-0.23,1.17-0.54,1.73-0.54h5.28v1.7h-8.84v-1.66c1.41-1.43,2.46-2.68,5.12-5.26
			c3-2.93,1.56-5.04-0.46-5.04c-2.06,0-2.52,1.35-2.52,2.62h-1.91c0-1.96,1.1-4.43,4.68-4.43c3.33,0,5.22,3.91,2.73,6.62
			c-1.69,1.87-3.47,3.77-4.37,4.76C89.68,305.03,89,305.3,88.48,305.52z"/>
		<path d="M102.81,293.23c3.41,0,5.14,3.02,5.14,7.03s-1.73,7.05-5.14,7.05c-3.43,0-5.16-3.04-5.16-7.05S99.38,293.23,102.81,293.23
			z M102.81,305.57c2.37,0,3.31-2.54,3.31-5.31s-0.94-5.28-3.31-5.28c-2.39,0-3.33,2.5-3.33,5.28S100.42,305.57,102.81,305.57z"/>
		<path d="M48.62,323.84h-0.27c0,0.27-0.69,2.62-3.25,2.7c-0.27,0.02-0.52,0-0.75-0.02c-2.58-0.29-4.39-2.46-4.39-5.14
			c0-2.68,1.85-4.74,4.45-5.01c0.27-0.02,0.52-0.04,0.79-0.02c1.27,0.04,2.31,0.5,2.97,1.21c0.39,0.42,0.5,1.12,0.67,1.6l0.33-0.12
			c-0.17-0.48-0.48-1.08-0.5-1.6l-0.04-0.75h1.54v7.78c0,1.35,0.35,1.66,1.02,1.66c1.64,0,1.58-3.35,1.58-4.53
			c-0.02-4.85-3.47-7.76-7.45-7.76c-4.22,0-7.49,3.14-7.49,7.68c0,4.83,3.7,7.22,7.72,7.22c0.77,0,1.54-0.08,2.31-0.25l0.4,1.62
			c-0.94,0.19-1.85,0.27-2.73,0.27c-5.39,0-9.4-3.37-9.38-8.9c0-5.45,3.89-9.26,9.13-9.26c5.18,0,9.17,3.71,9.19,9.28
			c0,4.06-1.21,6.12-3.29,6.12c-1.54,0-2.54-0.98-2.54-2.52V323.84z M45.04,324.92c2.14,0,3.22-1.73,3.33-3.54
			c0-2.14-1.19-3.43-3.31-3.43c-2.18,0-3.33,1.5-3.33,3.43C41.72,323.32,42.86,324.92,45.04,324.92z"/>
		<path d="M56.41,319.49c0.02-4.01,2.83-7.01,6.66-7.01c3.43,0,5.68,1.89,6.05,4.53h-1.87c-0.39-1.52-1.58-2.81-4.18-2.81
			c-2.83,0-4.85,2.35-4.85,5.3c0,2.96,2.04,5.33,4.89,5.33c2.66,0,3.87-1.29,4.26-2.81h1.87c-0.4,2.77-2.7,4.53-6.1,4.53
			C59.26,326.54,56.43,323.51,56.41,319.49z"/>
		<path d="M71.54,312.77h9.01v1.66h-7.24v4.06h6.76v1.66h-6.76v4.45h7.34v1.66h-9.11V312.77z"/>
		<path d="M91.18,315.81c-0.46-0.9-1.75-1.73-3.64-1.73c-1.64,0-3.31,0.67-3.31,1.95c0,2.23,8.86,1.98,8.86,6.53
			c0,2.73-2.62,3.99-5.58,3.99c-2.77,0-4.62-1.44-5.37-3.37l1.68-0.42c0.62,1.48,2.2,2.12,3.77,2.12c2.18,0,3.52-0.88,3.52-2.08
			c0-3.18-8.74-2.54-8.74-6.68c0-2.5,2.77-3.62,5.37-3.62c2.73,0,4.53,1.48,5.1,2.91L91.18,315.81z"/>
		<path d="M98.76,312.73h2.29l5.26,13.5h-1.98l-1.89-4.79h-4.99l-1.75,4.79h-2L98.76,312.73z M100.15,315.29
			c-0.15-0.35-0.08-0.83-0.08-1.21h-0.35c0,0.38,0.08,0.87-0.06,1.21l-1.93,4.64h4.33L100.15,315.29z"/>
		<path d="M116.92,322.88c0.21,0.77,1.04,3.37,1.04,3.37h-1.83c-0.44-1.69-0.79-2.95-0.87-3.21c-0.64-2.18-2.08-2.23-2.83-2.27
			c-0.15,0.02-0.31,0.02-0.5,0.02c-0.5,0-1.44-0.02-2.16-0.02v5.49H108v-13.48h4.29c2.91,0,5.33,0.62,5.33,3.77
			c0,1.85-1.06,2.62-2.39,3.14c-0.48,0.19-1.17,0.12-1.69,0.12v0.35c0.52,0,1.23-0.15,1.69,0.12
			C115.99,320.66,116.55,321.45,116.92,322.88z M109.77,319.16h2.46c1.87,0,3.58-0.35,3.58-2.58c0-2.18-1.58-2.33-3.58-2.33h-2.46
			V319.16z"/>
		<path d="M122.19,326.25h-1.81v-13.48h2.52l4.64,10.47c0.21,0.52,0.19,1.23,0.19,1.79h0.35c0-0.56-0.04-1.27,0.19-1.79l4.64-10.47
			h2.48v13.48h-1.79v-9.78c0-0.56,0.23-1.25,0.35-1.81l-0.33-0.06c-0.12,0.54-0.17,1.29-0.38,1.79l-4.33,9.86h-2.02l-4.35-9.86
			c-0.21-0.5-0.27-1.25-0.37-1.79l-0.33,0.06c0.1,0.56,0.35,1.25,0.35,1.81V326.25z"/>
		<path d="M143.31,312.48c3.72,0,6.45,3.08,6.45,7.03c0,3.93-2.73,7.05-6.45,7.05c-3.72,0-6.45-3.04-6.45-7.05
			C136.86,315.5,139.59,312.48,143.31,312.48z M143.31,324.82c2.89,0,4.64-2.6,4.64-5.32c0-2.73-1.75-5.29-4.64-5.29
			c-2.91,0-4.66,2.56-4.66,5.29C138.65,322.22,140.4,324.82,143.31,324.82z"/>
		<path d="M161.06,322.88c0.21,0.77,1.04,3.37,1.04,3.37h-1.83c-0.44-1.69-0.79-2.95-0.87-3.21c-0.64-2.18-2.08-2.23-2.83-2.27
			c-0.15,0.02-0.31,0.02-0.5,0.02c-0.5,0-1.44-0.02-2.16-0.02v5.49h-1.77v-13.48h4.29c2.91,0,5.33,0.62,5.33,3.77
			c0,1.85-1.06,2.62-2.39,3.14c-0.48,0.19-1.17,0.12-1.69,0.12v0.35c0.52,0,1.23-0.15,1.69,0.12
			C160.14,320.66,160.69,321.45,161.06,322.88z M153.92,319.16h2.46c1.87,0,3.58-0.35,3.58-2.58c0-2.18-1.58-2.33-3.58-2.33h-2.46
			V319.16z"/>
		<path d="M167.26,312.73h2.29l5.26,13.5h-1.98l-1.89-4.79h-4.99l-1.75,4.79h-2L167.26,312.73z M168.64,315.29
			c-0.15-0.35-0.08-0.83-0.08-1.21h-0.35c0,0.38,0.08,0.87-0.06,1.21l-1.93,4.64h4.33L168.64,315.29z"/>
		<path d="M184.97,324.59v1.66h-8.59v-13.48h1.77v11.82H184.97z"/>
		<path d="M187.32,312.77h9.01v1.66h-7.24v4.06h6.76v1.66h-6.76v4.45h7.34v1.66h-9.11V312.77z"/>
		<path d="M206.95,315.81c-0.46-0.9-1.75-1.73-3.64-1.73c-1.64,0-3.31,0.67-3.31,1.95c0,2.23,8.86,1.98,8.86,6.53
			c0,2.73-2.62,3.99-5.58,3.99c-2.77,0-4.62-1.44-5.37-3.37l1.68-0.42c0.62,1.48,2.2,2.12,3.77,2.12c2.18,0,3.52-0.88,3.52-2.08
			c0-3.18-8.74-2.54-8.74-6.68c0-2.5,2.77-3.62,5.37-3.62c2.73,0,4.53,1.48,5.1,2.91L206.95,315.81z"/>
		<path d="M211.01,324.27H213v1.98h-1.98V324.27z"/>
		<path d="M213.77,319.49c0.02-4.01,2.83-7.01,6.66-7.01c3.43,0,5.68,1.89,6.05,4.53h-1.87c-0.38-1.52-1.58-2.81-4.18-2.81
			c-2.83,0-4.85,2.35-4.85,5.3c0,2.96,2.04,5.33,4.89,5.33c2.66,0,3.87-1.29,4.26-2.81h1.87c-0.4,2.77-2.7,4.53-6.1,4.53
			C216.62,326.54,213.79,323.51,213.77,319.49z"/>
		<path d="M234.39,312.48c3.72,0,6.45,3.08,6.45,7.03c0,3.93-2.73,7.05-6.45,7.05c-3.72,0-6.45-3.04-6.45-7.05
			C227.93,315.5,230.67,312.48,234.39,312.48z M234.39,324.82c2.89,0,4.64-2.6,4.64-5.32c0-2.73-1.75-5.29-4.64-5.29
			c-2.91,0-4.66,2.56-4.66,5.29C229.73,322.22,231.48,324.82,234.39,324.82z"/>
	</g>
	<g>
		<path d="M404.18,168.38h1.68v8.98h-1.68V168.38z"/>
		<path d="M409.07,177.36h-1.48v-9.18h3.76c2.54,0,4.46,1.82,4.46,4.49c0,2.67-1.99,4.71-4.53,4.7L409.07,177.36z M411.05,175.79
			c1.8,0,3.14-1.46,3.14-3.08c0-1.63-1.28-2.93-3.08-2.93h-1.83v6.01H411.05z"/>
		<path d="M417.17,168.38h6.26v1.57h-4.63V172h4.31v1.57h-4.31v2.23h4.7v1.57h-6.33V168.38z"/>
		<path d="M426.28,177.36h-1.68v-8.98h1.68l4.09,5.43c0.33,0.44,0.54,1.14,0.72,1.67l0.28-0.09c-0.18-0.53-0.44-1.21-0.44-1.77
			v-5.24h1.68v8.98h-1.68l-4.09-5.42c-0.35-0.45-0.55-1.14-0.73-1.68l-0.27,0.1c0.18,0.53,0.44,1.21,0.44,1.77V177.36z"/>
		<path d="M436.19,177.36v-7.42h-2.4v-1.57h6.48v1.57h-2.4v7.42H436.19z"/>
		<path d="M441.64,168.38h1.68v8.98h-1.68V168.38z"/>
		<path d="M446.53,177.36h-1.48v-9.18h3.76c2.54,0,4.46,1.82,4.46,4.49c0,2.67-1.99,4.71-4.53,4.7L446.53,177.36z M448.51,175.79
			c1.8,0,3.14-1.46,3.14-3.08c0-1.63-1.28-2.93-3.08-2.93h-1.83v6.01H448.51z"/>
		<path d="M456.74,168.35h1.92l3.46,9h-1.76l-1.21-3.13h-2.86l-1.1,3.13h-1.77L456.74,168.35z M457.9,170.58
			c-0.12-0.27-0.05-0.64-0.05-0.92h-0.3c0,0.28,0.06,0.66-0.05,0.92l-1.05,2.39h2.5L457.9,170.58z"/>
		<path d="M464.55,177.36h-1.48v-9.18h3.76c2.54,0,4.46,1.82,4.46,4.49c0,2.67-1.99,4.71-4.53,4.7L464.55,177.36z M466.53,175.79
			c1.8,0,3.14-1.46,3.14-3.08c0-1.63-1.28-2.93-3.08-2.93h-1.83v6.01H466.53z"/>
		<path d="M483.15,176.64c0-0.51,0.23-1.16,0.36-1.66l-0.27-0.06c-0.14,0.49-0.17,1.22-0.51,1.6c-0.45,0.49-1.28,1.04-2.61,1.04
			c-2.64,0-4.7-2.03-4.7-4.7s2.01-4.68,4.77-4.68c1.99,0,3.59,0.92,4.2,2.54c0,0-1.68,0.39-1.67,0.37c-0.4-0.82-1.37-1.32-2.63-1.32
			c-1.77,0-2.99,1.28-2.99,3.09s1.31,3.11,3.21,3.11c2.04,0,2.64-1.32,2.64-2.03h-2.41v-1.45h4.22v4.86h-1.62V176.64z"/>
		<path d="M492.62,175.12c0.12,0.51,0.68,2.25,0.68,2.25h-1.73c-0.28-1.13-0.5-1.96-0.54-2.14c-0.41-1.45-1.31-1.3-1.78-1.32
			c-0.09,0-0.19,0-0.31,0c-0.31,0-0.96,0-1.12,0v3.46h-1.63v-8.98h3.21c2.01,0,3.68,0.41,3.68,2.51c0,1.16-0.6,1.67-1.41,2.01
			c-0.42,0.19-1.04,0.12-1.5,0.12v0.3c0.46,0,1.12-0.13,1.5,0.13C492.18,173.76,492.41,174.31,492.62,175.12z M487.82,172.51h1.45
			c1.12,0,2.13-0.45,2.13-1.59c0-1.13-0.94-1.42-2.13-1.42h-1.45V172.51z"/>
		<path d="M496.82,168.35h1.92l3.46,9h-1.76l-1.21-3.13h-2.86l-1.1,3.13h-1.77L496.82,168.35z M497.98,170.58
			c-0.12-0.27-0.05-0.64-0.05-0.92h-0.29c0,0.28,0.06,0.66-0.05,0.92l-1.05,2.39h2.5L497.98,170.58z"/>
		<path d="M504.59,170.01v2.31h3.88v1.62h-3.88v3.43h-1.68v-8.98h6.26v1.63H504.59z"/>
		<path d="M510.75,168.38h1.68v8.98h-1.68V168.38z"/>
		<path d="M513.53,172.86c0-2.67,1.96-4.67,4.62-4.67c2.73,0,4.02,1.49,4.2,3.21h-1.69c-0.21-0.76-0.69-1.59-2.49-1.59
			c-1.66,0-2.95,1.13-2.95,3.07c0,1.92,1.28,3.07,2.95,3.07c1.89,0,2.39-0.83,2.61-1.59h1.69c-0.24,2-1.6,3.21-4.26,3.21
			C515.51,177.56,513.53,175.54,513.53,172.86z"/>
		<path d="M525.99,168.35h1.92l3.46,9h-1.76l-1.21-3.13h-2.86l-1.1,3.13h-1.77L525.99,168.35z M527.16,170.58
			c-0.12-0.27-0.05-0.64-0.05-0.92h-0.3c0,0.28,0.06,0.66-0.05,0.92l-1.05,2.39h2.5L527.16,170.58z"/>
	</g>
	<g>
		<g>
			<path d="M499.04,164.18l1.13,1.13l-2.39,2.08l-0.82-0.82L499.04,164.18z"/>
		</g>
	</g>
	<g>
		<path d="M455.72,284.91c-1.64,0-2.48-0.05-3.28-0.1c-0.79-0.05-1.61-0.1-3.22-0.1s-2.43,0.05-3.22,0.1
			c-0.81,0.05-1.64,0.1-3.28,0.1v-1.1c1.61,0,2.43-0.05,3.22-0.1c0.81-0.05,1.64-0.1,3.28-0.1s2.48,0.05,3.28,0.1
			c0.79,0.05,1.61,0.1,3.22,0.1V284.91z"/>
	</g>
</g>
</svg>
