<?xml version="1.0" encoding="utf-8"?>
<!-- Generator: Adobe Illustrator 25.0.0, SVG Export Plug-In . SVG Version: 6.00 Build 0)  -->
<svg version="1.1" id="Layer_1" xmlns="http://www.w3.org/2000/svg" xmlns:xlink="http://www.w3.org/1999/xlink" x="0px" y="0px"
	 viewBox="0 0 601.45 400.52" style="enable-background:new 0 0 601.45 400.52;" xml:space="preserve">
<g>
	<g>
		<g>
			<rect x="34.7" y="34.23" style="fill:#B2E2FB;" width="565.38" height="365.38"/>
		</g>
		<g>
			<g>
				<path d="M599.44,34.88v364.1H35.34V34.88H599.44 M600.72,33.59H34.06v366.67h566.67V33.59L600.72,33.59z"/>
			</g>
		</g>
	</g>
	<g>
		<g>
			<rect x="18.03" y="17.57" style="fill:#1147CD;" width="565.38" height="365.38"/>
		</g>
		<g>
			<path d="M582.77,18.21v364.1H18.67V18.21H582.77 M584.06,16.93H17.39v366.67h566.67V16.93L584.06,16.93z"/>
		</g>
	</g>
	<g>
		<g>
			<rect x="1.36" y="0.9" style="fill:#F4F4F4;" width="565.38" height="365.38"/>
		</g>
		<g>
			<path d="M566.11,1.54v364.1H2.01V1.54H566.11 M567.39,0.26H0.72v366.67h566.67V0.26L567.39,0.26z"/>
		</g>
	</g>
	<g>
		<path d="M458.84,200.12c0.12,0.51,0.68,2.25,0.68,2.25h-1.73c-0.28-1.13-0.5-1.96-0.54-2.14c-0.41-1.45-1.31-1.3-1.78-1.32
			c-0.09,0-0.19,0-0.31,0c-0.31,0-0.96,0-1.12,0v3.46h-1.63v-8.98h3.21c2.02,0,3.68,0.41,3.68,2.51c0,1.16-0.6,1.67-1.41,2.01
			c-0.42,0.19-1.04,0.12-1.5,0.12v0.3c0.46,0,1.12-0.13,1.5,0.13C458.4,198.76,458.64,199.31,458.84,200.12z M454.04,197.51h1.45
			c1.12,0,2.13-0.45,2.13-1.59c0-1.13-0.94-1.42-2.13-1.42h-1.45V197.51z"/>
		<path d="M460.93,193.38h6.26v1.57h-4.63V197h4.31v1.56h-4.31v2.23h4.7v1.56h-6.33V193.38z"/>
		<path d="M470.19,202.36v-7.42h-2.4v-1.57h6.48v1.57h-2.4v7.42H470.19z"/>
		<path d="M479.27,193.19c2.48,0,4.43,2.16,4.43,4.68c0,2.53-1.95,4.7-4.43,4.7c-2.48,0-4.43-2.04-4.43-4.7
			C474.84,195.22,476.79,193.19,479.27,193.19z M479.27,200.94c1.83,0,2.75-1.58,2.75-3.07c0-1.49-0.91-3.05-2.75-3.05
			c-1.84,0-2.73,1.57-2.73,3.05C476.54,199.36,477.44,200.94,479.27,200.94z"/>
		<path d="M488.59,202.57c-2.55,0-4.36-2.03-4.36-4.7c0-2.67,1.94-4.68,4.66-4.68c2.73,0,4.67,1.86,4.67,4.48
			c0,1.59-0.29,3.05-1.67,3.89l1.03,1.84h-1.63l-0.53-1.03c-0.17-0.33-0.09-0.76-0.04-1.12l-0.28-0.05c-0.06,0.36-0.1,0.82-0.4,1.04
			C489.76,202.43,489.4,202.57,488.59,202.57z M491.96,197.67c0-1.57-1.19-2.98-3.03-2.98s-3.03,1.5-3.03,3.18
			c0,1.68,1.08,3.21,2.75,3.21c0.47,0,0.91-0.15,1.32-0.41l-1.04-1.85h1.63l0.31,0.62c0.17,0.32,0.1,0.77,0.08,1.13l0.28,0.03
			c0.04-0.36,0.13-0.77,0.28-1.09C491.79,198.99,491.96,198.28,491.96,197.67z"/>
		<path d="M502.75,199.25c0.01,2.14-1.73,3.31-3.97,3.31c-2.25,0-3.96-1.17-3.98-3.31c0-2.67,0.01-5.86,0.01-5.86h1.68v5.39
			c0.01,1.17,0.98,2.21,2.28,2.21c1.32,0,2.3-1.04,2.28-2.21c0-1.84,0-5.39,0-5.39h1.68V199.25z"/>
		<path d="M504.44,193.38h6.26v1.57h-4.63V197h4.31v1.56h-4.31v2.23h4.7v1.56h-6.33V193.38z"/>
		<path d="M516.55,202.36h-1.48v-9.18h3.76c2.54,0,4.47,1.82,4.47,4.49c0,2.67-1.99,4.71-4.53,4.7L516.55,202.36z M518.53,200.78
			c1.8,0,3.14-1.46,3.14-3.08c0-1.63-1.28-2.93-3.08-2.93h-1.83v6.01H518.53z"/>
		<path d="M524.65,193.38h6.26v1.57h-4.63V197h4.31v1.56h-4.31v2.23h4.7v1.56h-6.33V193.38z"/>
	</g>
	<g>
		<path d="M462.36,213.6v3.76h-1.68v-8.98h3.36c1.91,0,3.49,0.41,3.49,2.57s-1.57,2.67-3.63,2.67
			C463.57,213.62,463.01,213.62,462.36,213.6z M463.77,212.2c1.1,0,2.12-0.09,2.12-1.26c0-1.13-0.94-1.14-2.12-1.14h-1.41v2.4
			H463.77z"/>
		<path d="M474.96,215.12c0.12,0.51,0.68,2.25,0.68,2.25h-1.73c-0.28-1.13-0.5-1.96-0.54-2.14c-0.41-1.45-1.31-1.3-1.78-1.32
			c-0.09,0-0.19,0-0.31,0c-0.31,0-0.96,0-1.12,0v3.46h-1.63v-8.98h3.21c2.01,0,3.68,0.41,3.68,2.52c0,1.15-0.6,1.67-1.41,2.01
			c-0.42,0.19-1.04,0.12-1.5,0.12v0.3c0.46,0,1.12-0.13,1.5,0.13C474.53,213.76,474.76,214.31,474.96,215.12z M470.16,212.51h1.45
			c1.12,0,2.13-0.45,2.13-1.59c0-1.13-0.94-1.42-2.13-1.42h-1.45V212.51z"/>
		<path d="M480.84,208.19c2.48,0,4.43,2.16,4.43,4.69c0,2.53-1.95,4.7-4.43,4.7s-4.43-2.04-4.43-4.7S478.36,208.19,480.84,208.19z
			 M480.84,215.94c1.83,0,2.75-1.58,2.75-3.07c0-1.49-0.91-3.05-2.75-3.05s-2.73,1.56-2.73,3.05
			C478.11,214.36,479,215.94,480.84,215.94z"/>
		<path d="M488.05,217.36h-1.48v-9.18h3.76c2.54,0,4.47,1.82,4.47,4.49s-1.99,4.71-4.53,4.7L488.05,217.36z M490.03,215.78
			c1.8,0,3.14-1.46,3.14-3.08c0-1.63-1.28-2.93-3.08-2.93h-1.83v6.01H490.03z"/>
		<path d="M504.03,214.25c0.01,2.14-1.73,3.31-3.97,3.31c-2.25,0-3.96-1.17-3.98-3.31c0-2.67,0.01-5.87,0.01-5.87h1.68v5.39
			c0.01,1.17,0.98,2.21,2.28,2.21c1.32,0,2.3-1.04,2.28-2.21c0-1.84,0-5.39,0-5.39h1.68V214.25z"/>
		<path d="M505.29,212.86c0-2.67,1.96-4.67,4.62-4.67c2.73,0,4.02,1.49,4.2,3.21h-1.69c-0.21-0.76-0.69-1.59-2.49-1.59
			c-1.66,0-2.95,1.13-2.95,3.07c0,1.92,1.28,3.07,2.95,3.07c1.89,0,2.39-0.83,2.6-1.59h1.69c-0.24,2-1.6,3.21-4.26,3.21
			C507.28,217.56,505.29,215.54,505.29,212.86z"/>
		<path d="M517.26,217.36v-7.42h-2.4v-1.57h6.48v1.57h-2.4v7.42H517.26z"/>
		<path d="M526.35,208.19c2.48,0,4.43,2.16,4.43,4.69c0,2.53-1.95,4.7-4.43,4.7s-4.43-2.04-4.43-4.7S523.87,208.19,526.35,208.19z
			 M526.35,215.94c1.83,0,2.75-1.58,2.75-3.07c0-1.49-0.91-3.05-2.75-3.05s-2.73,1.56-2.73,3.05
			C523.62,214.36,524.51,215.94,526.35,215.94z"/>
	</g>
	<g>
		<path d="M414.94,251.02v1.28h-10.93v-17.96h1.46v16.68H414.94z"/>
		<path d="M431.93,246.06c0.03,4.29-3,6.62-6.9,6.62s-6.9-2.33-6.93-6.62c0-5.34,0.03-11.73,0.03-11.73h1.44v12.04
			c0.03,2.62,2.34,4.95,5.47,4.95c3.16,0,5.49-2.34,5.47-4.95c0-4.08,0-12.04,0-12.04h1.44V246.06z"/>
		<path d="M435.06,243.29c0-5.34,3.59-9.34,8.5-9.34c3.67,0,7.11,2.05,7.73,5.65h-1.59c-0.62-2.54-2.82-4.34-6.16-4.34
			c-4.24,0-7.03,4.05-7.03,8.03c0,4,2.85,8.08,7.13,8.08c3.31,0,5.54-1.8,6.16-4.34h1.59c-0.59,3.39-4,5.65-7.78,5.65
			C438.68,252.68,435.06,248.66,435.06,243.29z"/>
		<path d="M454.75,234.34h11.5v1.28h-10.04v6.72h9.39v1.28h-9.39v7.39h10.16v1.28h-11.63V234.34z"/>
		<path d="M489.55,247.3c0,4.31-2.93,5.06-7.47,5.06c-0.69,0-2.52-0.03-3.95-0.03v-0.03h-1.46v-17.96h5.59
			c3.44,0,6.37,0.79,6.37,4.64c0,1.88-0.1,2.98-1.41,3.52c-0.44,0.15-1.05,0.03-1.51,0.03v0.31c0.46,0.03,1.08-0.05,1.49,0.13
			C488.6,243.57,489.55,244.86,489.55,247.3z M482.45,242.11c2.41,0,4.72-0.18,4.72-3.26c0-2.93-2.16-2.93-4.72-2.93h-4.31v6.18
			H482.45z M482.93,250.79c2.34,0,5.18,0.03,5.18-3.57c0-4.05-3.36-3.8-5.9-3.8c-0.62,0-2.28,0-3.67-0.03h-0.41v7.39H482.93z"/>
		<path d="M493.02,234.34h1.44v17.96h-1.44V234.34z"/>
		<path d="M499.46,234.34h11.5v1.28h-10.04v6.72h9.39v1.28h-9.39v7.39h10.16v1.28h-11.63V234.34z"/>
		<path d="M516.4,252.3h-1.44v-17.96h1.44l9.78,13.88c0.64,0.92,1.16,2.28,1.49,3.36l0.31-0.1c-0.33-1.05-0.72-2.46-0.72-3.59
			v-13.55h1.44v17.96h-1.44l-9.78-13.86c-0.64-0.92-1.16-2.28-1.49-3.36l-0.31,0.1c0.33,1.05,0.72,2.46,0.72,3.59V252.3z"/>
		<path d="M387.66,260h1.44v8.16h11.37V260h1.46v17.96h-1.46v-8.52h-11.37v8.52h-1.44V260z"/>
		<path d="M420.1,271.73c0.03,4.29-3,6.62-6.9,6.62s-6.9-2.33-6.93-6.62c0-5.34,0.03-11.73,0.03-11.73h1.44v12.04
			c0.03,2.62,2.34,4.95,5.47,4.95c3.16,0,5.49-2.34,5.47-4.95c0-4.08,0-12.04,0-12.04h1.44V271.73z"/>
		<path d="M424.49,260h11.5v1.28h-10.04v6.72h9.39v1.28h-9.39v7.39h10.16v1.28h-11.63V260z"/>
		<path d="M450.92,276.68v1.28h-10.93V260h1.46v16.68H450.92z"/>
		<path d="M454.75,260h11.5v1.28h-10.04v6.72h9.39v1.28h-9.39v7.39h10.16v1.28h-11.63V260z"/>
		<path d="M489.55,272.96c0,4.31-2.93,5.06-7.47,5.06c-0.69,0-2.52-0.03-3.95-0.03v-0.03h-1.46V260h5.59c3.44,0,6.37,0.79,6.37,4.64
			c0,1.88-0.1,2.98-1.41,3.52c-0.44,0.15-1.05,0.03-1.51,0.03v0.31c0.46,0.03,1.08-0.05,1.49,0.13
			C488.6,269.24,489.55,270.52,489.55,272.96z M482.45,267.78c2.41,0,4.72-0.18,4.72-3.26c0-2.93-2.16-2.93-4.72-2.93h-4.31v6.18
			H482.45z M482.93,276.45c2.34,0,5.18,0.03,5.18-3.57c0-4.05-3.36-3.8-5.9-3.8c-0.62,0-2.28,0-3.67-0.03h-0.41v7.39H482.93z"/>
		<path d="M493.02,260h1.44v17.96h-1.44V260z"/>
		<path d="M499.46,260h11.5v1.28h-10.04v6.72h9.39v1.28h-9.39v7.39h10.16v1.28h-11.63V260z"/>
		<path d="M516.4,277.97h-1.44V260h1.44l9.78,13.88c0.64,0.92,1.16,2.28,1.49,3.36l0.31-0.1c-0.33-1.05-0.72-2.46-0.72-3.59V260
			h1.44v17.96h-1.44l-9.78-13.86c-0.64-0.92-1.16-2.28-1.49-3.36l-0.31,0.1c0.33,1.05,0.72,2.46,0.72,3.59V277.97z"/>
		<path d="M415.66,296.12v7.52h-1.44v-17.96h4.93c3.82,0,6.98,0.82,6.98,5.13s-3.16,5.34-7.32,5.34
			C418.12,296.14,416.86,296.14,415.66,296.12z M419.33,294.68c2.77,0,5.31-0.28,5.31-3.95c0-3.54-2.33-3.57-5.31-3.57h-3.67v7.52
			H419.33z"/>
		<path d="M434.57,285.29c4.95,0,8.34,3.93,8.34,9.37s-3.39,9.39-8.34,9.39s-8.34-4.03-8.34-9.39S429.62,285.29,434.57,285.29z
			 M434.57,302.69c4.06,0,6.88-3.75,6.88-8.03c0-4.29-2.82-7.98-6.88-7.98c-4.08,0-6.9,3.7-6.9,7.98
			C427.67,298.94,430.49,302.69,434.57,302.69z"/>
		<path d="M448.1,303.64h-1.44v-17.96h1.44l9.78,13.88c0.64,0.92,1.16,2.28,1.49,3.36l0.31-0.1c-0.33-1.05-0.72-2.46-0.72-3.59
			v-13.55h1.44v17.96h-1.44l-9.78-13.86c-0.64-0.92-1.16-2.28-1.49-3.36l-0.31,0.1c0.33,1.05,0.72,2.46,0.72,3.59V303.64z"/>
		<path d="M467.2,303.64v-16.68h-5.49v-1.28h12.45v1.28h-5.49v16.68H467.2z"/>
		<path d="M477.54,285.67h11.5v1.28h-10.04v6.72h9.39v1.28h-9.39v7.39h10.16v1.28h-11.63V285.67z"/>
		<path d="M499.46,285.67h11.5v1.28h-10.04v6.72h9.39v1.28h-9.39v7.39h10.16v1.28h-11.63V285.67z"/>
		<path d="M516.4,303.64h-1.44v-17.96h1.44l9.78,13.88c0.64,0.92,1.16,2.28,1.49,3.36l0.31-0.1c-0.33-1.05-0.72-2.46-0.72-3.59
			v-13.55h1.44v17.96h-1.44l-9.78-13.86c-0.64-0.92-1.16-2.28-1.49-3.36l-0.31,0.1c0.33,1.05,0.72,2.46,0.72,3.59V303.64z"/>
		<path d="M429.39,329.3h-1.46v-17.96h1.57l7.54,15.58c0.23,0.49,0.26,1.18,0.26,1.72h0.31c0-0.54,0-1.23,0.26-1.72l7.55-15.58h1.51
			v17.96h-1.44v-13.37c0-0.54,0.26-1.21,0.38-1.75l-0.31-0.08c-0.13,0.51-0.26,1.23-0.51,1.72l-6.9,13.47h-1.41l-6.9-13.47
			c-0.26-0.49-0.38-1.18-0.51-1.72l-0.31,0.08c0.13,0.54,0.39,1.21,0.39,1.75V329.3z"/>
		<path d="M455.01,311.29h2.26l7.06,17.99h-1.72l-2.67-6.52h-7.55l-2.44,6.52h-1.8L455.01,311.29z M456.37,313.7
			c-0.15-0.41-0.1-0.95-0.1-1.39h-0.31c0,0.44,0.05,0.98-0.1,1.39l-3,7.57h6.54L456.37,313.7z"/>
		<path d="M477.9,324.81c0.28,1.03,1.36,4.49,1.36,4.49h-1.41c-0.62-2.26-1.1-3.93-1.21-4.29c-0.9-2.9-2.93-3.34-4-3.39
			c-0.23,0-0.44,0-0.72,0c-0.67,0-1.92-0.03-3.49-0.03v7.7h-1.46v-17.96H472c3.75,0,6.83,0.82,6.83,5.03c0,2.64-1.57,3.62-3.52,4.31
			c-0.46,0.15-1.08,0.1-1.54,0.1v0.31c0.46,0,1.1-0.1,1.54,0.08C476.28,321.6,477.29,322.63,477.9,324.81z M468.43,320.12h3.64
			c2.77,0,5.31,0,5.31-3.7c0-3.54-2.36-3.36-5.31-3.36h-3.64V320.12z"/>
		<path d="M479.62,320.3c0-5.34,3.59-9.34,8.5-9.34c3.67,0,7.11,2.05,7.73,5.65h-1.59c-0.62-2.54-2.82-4.34-6.16-4.34
			c-4.24,0-7.03,4.05-7.03,8.03c0,4,2.85,8.08,7.13,8.08c3.31,0,5.54-1.8,6.16-4.34h1.59c-0.59,3.39-4,5.65-7.78,5.65
			C483.24,329.69,479.62,325.66,479.62,320.3z"/>
		<path d="M499.28,311.34h1.44v8.16h11.37v-8.16h1.46v17.96h-1.46v-8.52h-11.37v8.52h-1.44V311.34z"/>
		<path d="M521.61,311.29h2.26l7.06,17.99h-1.72l-2.67-6.52H519l-2.44,6.52h-1.8L521.61,311.29z M522.97,313.7
			c-0.15-0.41-0.1-0.95-0.1-1.39h-0.31c0,0.44,0.05,0.98-0.1,1.39l-3,7.57H526L522.97,313.7z"/>
	</g>
	<g>
		<path d="M49.08,51.66v11.13H69.6v10.15H49.08v17.57h-10.5v-49h34.86v10.15H49.08z"/>
		<path d="M125.25,73.5c0,11.69-9.73,18.06-22.33,18.06c-12.67,0-22.33-6.37-22.4-18.06c0-14.56,0.07-31.99,0.07-31.99h10.5V70
			c0,6.23,5.04,11.76,11.83,11.76c6.86,0,11.9-5.53,11.83-11.76c0-9.66,0-28.49,0-28.49h10.5V73.5z"/>
		<path d="M167.1,80.72v9.8h-33.39v-49h10.15v39.2H167.1z"/>
		<path d="M183.9,90.52v-39.2h-12.6v-9.8h35.77v9.8H194.4v39.2H183.9z"/>
		<path d="M233.95,40.46c13.51,0,24.5,12.04,24.5,25.55c0,13.51-10.99,25.62-24.5,25.62s-24.5-11.13-24.5-25.62
			C209.45,51.52,220.44,40.46,233.95,40.46z M233.95,81.49c9.73,0,14-8.26,14-15.47c0-7.21-4.27-15.4-14-15.4s-14,8.19-14,15.4
			C219.95,73.22,224.22,81.49,233.95,81.49z"/>
		<path d="M275.25,90.52h-10.5v-49h10.5l21.28,27.51c1.82,2.45,2.94,6.23,3.92,9.17l1.61-0.56c-0.98-2.94-2.45-6.58-2.45-9.66V41.51
			h10.5v49h-10.5L278.4,63.07c-1.89-2.45-3.01-6.23-3.99-9.17l-1.61,0.56c0.98,2.94,2.45,6.58,2.45,9.66V90.52z"/>
		<path d="M58.95,161.78c-15.19,0-19.95-8.26-19.95-14.91c0-6.23,3.92-11.69,13.72-14.91c-6.09-3.92-7.56-7.35-7.56-10.15
			c0-6.72,5.46-11.27,15.05-11.27c9.17,0,14.77,5.25,14.77,11.62c0,4.2-2.1,8.54-10.71,12.32l12.74,10.5
			c2.73-3.08,2.59-4.69,2.59-7.21h7.77c0,4.62-0.56,8.89-4.13,13.02l10.22,9.73h-9.94l-4.13-3.71c-1.47-1.33-1.54-3.5-1.54-5.46
			h-1.75c0,1.96-0.07,4.2-1.54,5.46C71.21,159.75,67.5,161.78,58.95,161.78z M56.78,137.97c-5.67,2.73-7.63,5.18-7.63,7.98
			s2.24,6.44,10.01,6.44c4.97,0,8.12-1.68,10.43-2.8L56.78,137.97z M59.79,129.08c5.11-1.96,6.93-3.99,6.93-6.58
			c0-2.59-2.03-4.9-6.23-4.9c-3.85,0-6.37,2.31-6.37,4.55C54.12,124.32,56.71,126.63,59.79,129.08z"/>
		<path d="M135.54,148.27c0.63,2.8,3.71,12.25,3.71,12.25h-10.78c-1.54-6.16-2.66-10.71-2.94-11.69c-2.17-7.91-6.86-6.58-9.38-6.72
			h-6.86v18.41H99.13v-49h18.48c11.2,0,20.44,2.24,20.44,13.72c0,6.09-3.01,8.89-7.21,10.78c-2.59,1.19-6.3,0.77-9.17,0.77v1.75
			c2.87,0,6.79-0.77,9.17,0.84C133.72,141.19,134.63,144.27,135.54,148.27z M109.28,133.7h7.42c5.67,0,10.85-3.08,10.85-8.33
			c0-5.32-4.76-7.42-10.85-7.42h-7.42V133.7z"/>
		<path d="M168.78,110.46c13.51,0,24.5,12.04,24.5,25.55c0,13.51-10.99,25.62-24.5,25.62s-24.5-11.13-24.5-25.62
			C144.28,121.52,155.27,110.46,168.78,110.46z M168.78,151.49c9.73,0,14-8.26,14-15.47c0-7.21-4.27-15.4-14-15.4s-14,8.19-14,15.4
			C154.78,143.22,159.05,151.49,168.78,151.49z"/>
		<path d="M211.9,111.37h11.55l18.9,49.08H231.5l-6.37-16.94h-14.49l-5.81,16.94h-10.85L211.9,111.37z M218.9,124.81
			c-0.7-1.47-0.28-3.64-0.28-5.32h-1.75c0,1.68,0.42,3.85-0.28,5.32l-5.11,11.13h12.6L218.9,124.81z"/>
		<path d="M283.3,148.27c0.63,2.8,3.71,12.25,3.71,12.25h-10.78c-1.54-6.16-2.66-10.71-2.94-11.69c-2.17-7.91-6.86-6.58-9.38-6.72
			h-6.86v18.41H246.9v-49h18.48c11.2,0,20.44,2.24,20.44,13.72c0,6.09-3.01,8.89-7.21,10.78c-2.59,1.19-6.3,0.77-9.17,0.77v1.75
			c2.87,0,6.79-0.77,9.17,0.84C281.48,141.19,282.39,144.27,283.3,148.27z M257.05,133.7h7.42c5.67,0,10.85-3.08,10.85-8.33
			c0-5.32-4.76-7.42-10.85-7.42h-7.42V133.7z"/>
		<path d="M324.74,111.51h13.44l-19.81,18.83l21.77,30.17h-12.88l-16.8-24.15l-6.23,5.32v18.83h-10.15v-49h10.15v14.14
			c0,2.1-1.33,4.34-2.24,6.16l1.61,0.77c0.84-1.89,1.68-4.41,3.22-5.74L324.74,111.51z"/>
	</g>
	<g>
		<path d="M40.7,293.23c3.41,0,5.14,3.02,5.14,7.03s-1.73,7.05-5.14,7.05c-3.43,0-5.16-3.04-5.16-7.05S37.28,293.23,40.7,293.23z
			 M40.7,305.57c2.37,0,3.31-2.54,3.31-5.31s-0.94-5.28-3.31-5.28c-2.39,0-3.33,2.5-3.33,5.28S38.32,305.57,40.7,305.57z"/>
		<path d="M57.24,303.2c0,2.64-1.6,4.08-4.91,4.08c-3.37,0-5.01-1.56-5.06-3.85h1.77c0,1.41,1.27,2.27,3.37,2.27
			c2.18,0,3.04-1.04,3.04-2.64c0-1.85-1.02-2.25-4.85-2.25v-1.64c3.68,0,4.68-0.38,4.68-2.2c0-1.52-0.89-2.18-2.89-2.18
			c-1.96,0-3.16,0.87-3.16,2.27h-1.77c0.04-2.29,1.62-3.85,4.87-3.85c3.18,0,4.72,1.06,4.72,3.7c0,1.08-0.42,1.93-1.23,2.54
			c-0.44,0.35-1.16,0.33-1.73,0.33l0.02,0.35c0.56,0,1.27-0.04,1.71,0.31C56.7,301.1,57.24,302.03,57.24,303.2z"/>
		<path d="M59.63,305.01h1.98V307h-1.98V305.01z"/>
		<path d="M66.06,305.52l0.13,0.33c0.52-0.23,1.17-0.54,1.73-0.54h5.28v1.7h-8.84v-1.66c1.41-1.43,2.46-2.68,5.12-5.26
			c3-2.93,1.56-5.04-0.46-5.04c-2.06,0-2.52,1.35-2.52,2.62h-1.91c0-1.96,1.1-4.43,4.68-4.43c3.33,0,5.22,3.91,2.73,6.62
			c-1.69,1.87-3.47,3.77-4.37,4.76C67.25,305.03,66.58,305.3,66.06,305.52z"/>
		<path d="M80.38,293.23c3.41,0,5.14,3.02,5.14,7.03s-1.73,7.05-5.14,7.05c-3.43,0-5.16-3.04-5.16-7.05S76.95,293.23,80.38,293.23z
			 M80.38,305.57c2.37,0,3.31-2.54,3.31-5.31s-0.94-5.28-3.31-5.28c-2.39,0-3.33,2.5-3.33,5.28S77.99,305.57,80.38,305.57z"/>
		<path d="M89.1,305.52l0.13,0.33c0.52-0.23,1.17-0.54,1.73-0.54h5.28v1.7h-8.84v-1.66c1.41-1.43,2.46-2.68,5.12-5.26
			c3-2.93,1.56-5.04-0.46-5.04c-2.06,0-2.52,1.35-2.52,2.62h-1.91c0-1.96,1.1-4.43,4.68-4.43c3.33,0,5.22,3.91,2.73,6.62
			c-1.69,1.87-3.47,3.77-4.37,4.76C90.29,305.03,89.62,305.3,89.1,305.52z"/>
		<path d="M100.77,297.56v-1.73c1.41,0,2.54-1.02,2.54-2.31h2.33V307h-1.79v-9.57c0-0.58,0.33-1.2,0.58-1.7l-0.29-0.15
			c-0.27,0.5-0.58,1.18-1.08,1.43C102.34,297.35,101.48,297.56,100.77,297.56z"/>
		<path d="M48.62,323.84h-0.27c0,0.27-0.69,2.62-3.25,2.7c-0.27,0.02-0.52,0-0.75-0.02c-2.58-0.29-4.39-2.46-4.39-5.14
			c0-2.68,1.85-4.74,4.45-5.01c0.27-0.02,0.52-0.04,0.79-0.02c1.27,0.04,2.31,0.5,2.97,1.21c0.39,0.42,0.5,1.12,0.67,1.6l0.33-0.12
			c-0.17-0.48-0.48-1.08-0.5-1.6l-0.04-0.75h1.54v7.78c0,1.35,0.35,1.66,1.02,1.66c1.64,0,1.58-3.35,1.58-4.53
			c-0.02-4.85-3.47-7.76-7.45-7.76c-4.22,0-7.49,3.14-7.49,7.68c0,4.83,3.7,7.22,7.72,7.22c0.77,0,1.54-0.08,2.31-0.25l0.4,1.62
			c-0.94,0.19-1.85,0.27-2.73,0.27c-5.39,0-9.4-3.37-9.38-8.9c0-5.45,3.89-9.26,9.13-9.26c5.18,0,9.17,3.71,9.19,9.28
			c0,4.06-1.21,6.12-3.29,6.12c-1.54,0-2.54-0.98-2.54-2.52V323.84z M45.04,324.92c2.14,0,3.22-1.73,3.33-3.54
			c0-2.14-1.19-3.43-3.31-3.43c-2.18,0-3.33,1.5-3.33,3.43C41.72,323.32,42.86,324.92,45.04,324.92z"/>
		<path d="M59.01,314.5v4.28h6.16v1.73h-6.16v5.74h-1.79v-13.48h9.01v1.73H59.01z"/>
		<path d="M79.23,321.57c0,3.22-2.43,4.97-5.58,4.97c-3.14,0-5.56-1.75-5.56-4.97c0-4,0-8.8,0-8.8h1.81v8.57
			c0.02,1.85,1.6,3.51,3.77,3.51c2.16,0,3.77-1.66,3.75-3.53c0-2.89,0-8.55,0-8.55h1.79L79.23,321.57z"/>
		<path d="M90.72,324.59v1.66h-8.59v-13.48h1.77v11.82H90.72z"/>
		<path d="M95.09,326.25v-11.82h-3.87v-1.66h9.55v1.66H96.9v11.82H95.09z"/>
		<path d="M108.54,312.48c3.72,0,6.45,3.08,6.45,7.03c0,3.93-2.73,7.05-6.45,7.05s-6.45-3.04-6.45-7.05
			C102.09,315.5,104.83,312.48,108.54,312.48z M108.54,324.82c2.89,0,4.64-2.6,4.64-5.32c0-2.73-1.75-5.29-4.64-5.29
			c-2.91,0-4.66,2.56-4.66,5.29C103.88,322.22,105.64,324.82,108.54,324.82z"/>
		<path d="M119.17,326.25h-1.79v-13.48h1.79l6.74,9.28c0.5,0.67,0.85,1.71,1.12,2.52l0.31-0.12c-0.25-0.79-0.6-1.83-0.6-2.68v-9.01
			h1.81v13.48h-1.81l-6.74-9.26c-0.5-0.67-0.83-1.71-1.1-2.52l-0.33,0.12c0.27,0.79,0.6,1.83,0.6,2.68V326.25z"/>
		<path d="M134.47,312.73h2.29l5.26,13.5h-1.98l-1.89-4.79h-4.99l-1.75,4.79h-2L134.47,312.73z M135.86,315.29
			c-0.15-0.35-0.08-0.83-0.08-1.21h-0.35c0,0.38,0.08,0.87-0.06,1.21l-1.93,4.64h4.33L135.86,315.29z"/>
		<path d="M145.39,326.25h-1.79v-13.48h1.79l6.74,9.28c0.5,0.67,0.85,1.71,1.12,2.52l0.31-0.12c-0.25-0.79-0.6-1.83-0.6-2.68v-9.01
			h1.81v13.48h-1.81l-6.74-9.26c-0.5-0.67-0.83-1.71-1.1-2.52l-0.33,0.12c0.27,0.79,0.6,1.83,0.6,2.68V326.25z"/>
		<path d="M159.44,326.25h-1.48v-13.77h4.83c3.7,0,6.51,2.73,6.51,6.74c0,4-2.91,7.07-6.6,7.05L159.44,326.25z M162.56,324.55
			c2.83,0,4.95-2.54,4.95-5.33c0-2.77-2.02-5.03-4.85-5.03h-2.91v10.36H162.56z"/>
		<path d="M180.75,322.88c0.21,0.77,1.04,3.37,1.04,3.37h-1.83c-0.44-1.69-0.79-2.95-0.87-3.21c-0.64-2.18-2.08-2.23-2.83-2.27
			c-0.15,0.02-0.31,0.02-0.5,0.02c-0.5,0-1.44-0.02-2.16-0.02v5.49h-1.77v-13.48h4.29c2.91,0,5.33,0.62,5.33,3.77
			c0,1.85-1.06,2.62-2.39,3.14c-0.48,0.19-1.17,0.12-1.69,0.12v0.35c0.52,0,1.23-0.15,1.69,0.12
			C179.83,320.66,180.39,321.45,180.75,322.88z M173.61,319.16h2.46c1.87,0,3.58-0.35,3.58-2.58c0-2.18-1.58-2.33-3.58-2.33h-2.46
			V319.16z"/>
		<path d="M188.94,312.48c3.72,0,6.45,3.08,6.45,7.03c0,3.93-2.73,7.05-6.45,7.05s-6.45-3.04-6.45-7.05
			C182.48,315.5,185.22,312.48,188.94,312.48z M188.94,324.82c2.89,0,4.64-2.6,4.64-5.32c0-2.73-1.75-5.29-4.64-5.29
			c-2.91,0-4.66,2.56-4.66,5.29C184.27,322.22,186.03,324.82,188.94,324.82z"/>
		<path d="M200.7,312.73h2.29l5.26,13.5h-1.98l-1.89-4.79h-4.99l-1.75,4.79h-2L200.7,312.73z M202.08,315.29
			c-0.15-0.35-0.08-0.83-0.08-1.21h-0.35c0,0.38,0.08,0.87-0.06,1.21l-1.93,4.64h4.33L202.08,315.29z"/>
		<path d="M218.85,322.88c0.21,0.77,1.04,3.37,1.04,3.37h-1.83c-0.44-1.69-0.79-2.95-0.87-3.21c-0.64-2.18-2.08-2.23-2.83-2.27
			c-0.15,0.02-0.31,0.02-0.5,0.02c-0.5,0-1.44-0.02-2.16-0.02v5.49h-1.77v-13.48h4.29c2.91,0,5.33,0.62,5.33,3.77
			c0,1.85-1.06,2.62-2.39,3.14c-0.48,0.19-1.17,0.12-1.69,0.12v0.35c0.52,0,1.23-0.15,1.69,0.12
			C217.93,320.66,218.49,321.45,218.85,322.88z M211.71,319.16h2.46c1.87,0,3.58-0.35,3.58-2.58c0-2.18-1.58-2.33-3.58-2.33h-2.46
			V319.16z"/>
		<path d="M230.25,312.77h2.31l-5.45,5.18l5.99,8.3h-2.12l-5.14-7.16l-1.75,1.67v5.49h-1.77v-13.48h1.77v4.76
			c0,0.58-0.31,1.23-0.54,1.73l0.31,0.15c0.23-0.52,0.5-1.19,0.92-1.58L230.25,312.77z"/>
	</g>
	<g>
	</g>
</g>
</svg>
