<?xml version="1.0" encoding="utf-8"?>
<!-- Generator: Adobe Illustrator 25.0.0, SVG Export Plug-In . SVG Version: 6.00 Build 0)  -->
<svg version="1.1" id="Layer_1" xmlns="http://www.w3.org/2000/svg" xmlns:xlink="http://www.w3.org/1999/xlink" x="0px" y="0px"
	 viewBox="0 0 400.52 601.45" style="enable-background:new 0 0 400.52 601.45;" xml:space="preserve">
<g>
	<g>
		<g>
			<rect x="34.23" y="34.7" style="fill:#F0C0FB;" width="365.38" height="565.38"/>
		</g>
		<g>
			<path d="M398.98,35.34v564.1H34.88V35.34H398.98 M400.26,34.06H33.59v566.67h366.67V34.06L400.26,34.06z"/>
		</g>
	</g>
	<g>
		<g>
			<rect x="17.57" y="18.03" style="fill:#ED664D;" width="365.38" height="565.38"/>
		</g>
		<g>
			<path d="M382.31,18.67v564.1H18.21V18.67H382.31 M383.59,17.39H16.93v566.67h366.67V17.39L383.59,17.39z"/>
		</g>
	</g>
	<g>
		<g>
			<rect x="0.9" y="1.36" style="fill:#F4F4F4;" width="365.38" height="565.38"/>
		</g>
		<g>
			<path d="M365.64,2.01v564.1H1.54V2.01H365.64 M366.93,0.72H0.26v566.67h366.67V0.72L366.93,0.72z"/>
		</g>
	</g>
	<g>
		<path d="M310.33,385.97v1.28H299.4v-17.97h1.46v16.68H310.33z"/>
		<path d="M317.21,369.23h2.26l7.06,17.99h-1.72l-2.67-6.52h-7.55l-2.44,6.52h-1.8L317.21,369.23z M318.57,371.64
			c-0.15-0.41-0.1-0.95-0.1-1.38h-0.31c0,0.44,0.05,0.97-0.1,1.38l-3,7.57h6.54L318.57,371.64z"/>
		<path d="M175.81,394.95h11.5v1.28h-10.04v6.72h9.39v1.28h-9.39v7.39h10.16v1.28h-11.63V394.95z"/>
		<path d="M188.34,412.92h-1.31l6.03-9.39l-5.65-8.57h1.62l4.47,6.75c0.28,0.41,0.31,1.03,0.31,1.54l0.31,0.03
			c0.03-0.51,0.08-1.13,0.38-1.54l4.9-6.78h1.31l-5.75,8.91l6.13,9.06h-1.64l-4.98-7.31c-0.31-0.41-0.33-1.03-0.33-1.54h-0.31
			c0,0.51-0.05,1.13-0.36,1.54L188.34,412.92z"/>
		<path d="M205.41,405.4v7.52h-1.44v-17.97h4.93c3.82,0,6.98,0.82,6.98,5.13c0,4.31-3.16,5.34-7.32,5.34
			C207.87,405.42,206.61,405.42,205.41,405.4z M209.08,403.96c2.77,0,5.31-0.28,5.31-3.95c0-3.54-2.33-3.57-5.31-3.57h-3.67v7.52
			H209.08z"/>
		<path d="M219.32,394.95h11.5v1.28h-10.04v6.72h9.39v1.28h-9.39v7.39h10.16v1.28h-11.63V394.95z"/>
		<path d="M245.75,408.43c0.28,1.03,1.36,4.49,1.36,4.49h-1.41c-0.62-2.26-1.1-3.93-1.21-4.29c-0.9-2.9-2.93-3.34-4-3.39
			c-0.23,0-0.44,0-0.72,0c-0.67,0-1.92-0.03-3.49-0.03v7.7h-1.46v-17.97h5.03c3.75,0,6.83,0.82,6.83,5.03
			c0,2.64-1.57,3.62-3.52,4.31c-0.46,0.15-1.08,0.1-1.54,0.1v0.31c0.46,0,1.1-0.1,1.54,0.08
			C244.14,405.22,245.14,406.24,245.75,408.43z M236.28,403.73h3.64c2.77,0,5.31,0,5.31-3.7c0-3.54-2.36-3.36-5.31-3.36h-3.64
			V403.73z"/>
		<path d="M250.66,394.95h1.44v17.97h-1.44V394.95z"/>
		<path d="M257.1,394.95h11.5v1.28h-10.04v6.72h9.39v1.28h-9.39v7.39h10.16v1.28H257.1V394.95z"/>
		<path d="M274.04,412.92h-1.44v-17.97h1.44l9.78,13.88c0.64,0.92,1.16,2.29,1.49,3.36l0.31-0.1c-0.33-1.05-0.72-2.46-0.72-3.59
			v-13.55h1.44v17.97h-1.44l-9.78-13.86c-0.64-0.92-1.16-2.29-1.49-3.36l-0.31,0.1c0.33,1.05,0.72,2.46,0.72,3.59V412.92z"/>
		<path d="M288.03,403.91c0-5.34,3.59-9.34,8.5-9.34c3.67,0,7.11,2.05,7.73,5.65h-1.59c-0.62-2.54-2.82-4.34-6.16-4.34
			c-4.24,0-7.03,4.06-7.03,8.03c0,4,2.85,8.09,7.13,8.09c3.31,0,5.54-1.8,6.16-4.34h1.59c-0.59,3.39-4,5.65-7.78,5.65
			C291.65,413.3,288.03,409.27,288.03,403.91z"/>
		<path d="M307.72,394.95h1.44v17.97h-1.44V394.95z"/>
		<path d="M317.21,394.9h2.26l7.06,17.99h-1.72l-2.67-6.52h-7.55l-2.44,6.52h-1.8L317.21,394.9z M318.57,397.31
			c-0.15-0.41-0.1-0.95-0.1-1.38h-0.31c0,0.44,0.05,0.97-0.1,1.38l-3,7.57h6.54L318.57,397.31z"/>
		<path d="M169.83,439c-4.9,0-8.37-4.05-8.37-9.39c0-5.34,3.39-9.37,8.16-9.37c4.8,0,8.19,4.11,8.19,9.5c0,3.26-1.51,5.96-3.39,7.62
			l2.05,3.67h-1.46l-1.41-2.75c-0.13-0.23,0.03-0.51,0.15-0.74l-0.31-0.13c-0.1,0.26-0.26,0.49-0.51,0.59
			C172.09,438.43,171.27,439,169.83,439z M176.3,429.73c0-4.23-2.64-8.03-6.7-8.03s-6.7,3.75-6.7,7.91c0,4.16,2.72,7.96,6.88,7.96
			c1.21,0,2.28-0.31,3.18-0.82l-2.08-3.7h1.46l1.13,2.23c0.1,0.23,0.03,0.56,0,0.82l0.31,0.05c0.03-0.28-0.03-0.64,0.18-0.82
			C175.12,433.81,176.3,431.68,176.3,429.73z"/>
		<path d="M194.75,432.35c0.03,4.29-3,6.62-6.9,6.62s-6.9-2.34-6.93-6.62c0-5.34,0.03-11.73,0.03-11.73h1.44v12.04
			c0.03,2.62,2.34,4.95,5.47,4.95c3.16,0,5.49-2.33,5.47-4.95c0-4.08,0-12.04,0-12.04h1.44V432.35z"/>
		<path d="M199.14,420.62h11.5v1.28h-10.04v6.72H210v1.28h-9.39v7.39h10.16v1.28h-11.63V420.62z"/>
		<path d="M221.06,420.62h11.5v1.28h-10.04v6.72h9.39v1.28h-9.39v7.39h10.16v1.28h-11.63V420.62z"/>
		<path d="M246.57,424.24c-0.03-1.1-1.67-2.52-4.21-2.52c-2.67,0-5.52,1.05-5.52,3.23c0,3.39,11.75,3.05,11.75,8.83
			c0,3.88-3.46,5.19-6.52,5.19c-3.98,0-6.67-2.57-6.78-5.13l1.9,0.54c0.46,2.33,3.11,3.23,4.65,3.23c3.39,0,5.54-1.44,5.54-3.34
			c0-5.06-11.91-3.82-11.91-9.27c0-3.7,3.93-4.77,6.65-4.77c4.18,0,6.62,2.72,6.31,4.57L246.57,424.24z"/>
		<path d="M256.2,438.59V421.9h-5.49v-1.28h12.45v1.28h-5.49v16.68H256.2z"/>
		<path d="M270.06,420.57h2.26l7.06,17.99h-1.72l-2.67-6.52h-7.55l-2.44,6.52h-1.8L270.06,420.57z M271.42,422.98
			c-0.15-0.41-0.1-0.95-0.1-1.38h-0.31c0,0.44,0.05,0.97-0.1,1.38l-3,7.57h6.54L271.42,422.98z"/>
		<path d="M294.91,433.58c0,4.31-2.93,5.06-7.47,5.06c-0.69,0-2.52-0.03-3.95-0.03v-0.03h-1.46v-17.97h5.59
			c3.44,0,6.37,0.8,6.37,4.65c0,1.87-0.1,2.98-1.41,3.52c-0.44,0.15-1.05,0.03-1.51,0.03v0.31c0.46,0.03,1.08-0.05,1.49,0.13
			C293.96,429.86,294.91,431.14,294.91,433.58z M287.8,428.4c2.41,0,4.72-0.18,4.72-3.26c0-2.93-2.16-2.93-4.72-2.93h-4.31v6.19
			H287.8z M288.29,437.07c2.34,0,5.18,0.03,5.18-3.57c0-4.05-3.36-3.8-5.9-3.8c-0.62,0-2.28,0-3.67-0.03h-0.41v7.39H288.29z"/>
		<path d="M301.58,420.57h2.26l7.06,17.99h-1.72l-2.67-6.52h-7.55l-2.44,6.52h-1.8L301.58,420.57z M302.94,422.98
			c-0.15-0.41-0.1-0.95-0.1-1.38h-0.31c0,0.44,0.05,0.97-0.1,1.38l-3,7.57h6.54L302.94,422.98z"/>
		<path d="M323.55,424.24c-0.03-1.1-1.67-2.52-4.21-2.52c-2.67,0-5.52,1.05-5.52,3.23c0,3.39,11.75,3.05,11.75,8.83
			c0,3.88-3.46,5.19-6.52,5.19c-3.98,0-6.67-2.57-6.78-5.13l1.9,0.54c0.46,2.33,3.11,3.23,4.65,3.23c3.39,0,5.54-1.44,5.54-3.34
			c0-5.06-11.91-3.82-11.91-9.27c0-3.7,3.93-4.77,6.65-4.77c4.18,0,6.62,2.72,6.31,4.57L323.55,424.24z"/>
		<path d="M204.61,459.25c0,4.31-2.93,5.06-7.47,5.06c-0.69,0-2.52-0.03-3.95-0.03v-0.03h-1.46v-17.97h5.59
			c3.44,0,6.37,0.8,6.37,4.65c0,1.87-0.1,2.98-1.41,3.52c-0.44,0.15-1.05,0.03-1.51,0.03v0.31c0.46,0.03,1.08-0.05,1.49,0.13
			C203.66,455.53,204.61,456.81,204.61,459.25z M197.5,454.06c2.41,0,4.72-0.18,4.72-3.26c0-2.93-2.16-2.93-4.72-2.93h-4.31v6.19
			H197.5z M197.99,462.74c2.34,0,5.18,0.03,5.18-3.57c0-4.05-3.36-3.8-5.9-3.8c-0.62,0-2.28,0-3.67-0.03h-0.41v7.39H197.99z"/>
		<path d="M221.4,458.02c0.03,4.29-3,6.62-6.9,6.62s-6.9-2.34-6.93-6.62c0-5.34,0.03-11.73,0.03-11.73h1.44v12.04
			c0.03,2.62,2.34,4.95,5.47,4.95c3.16,0,5.49-2.33,5.47-4.95c0-4.08,0-12.04,0-12.04h1.44V458.02z"/>
		<path d="M235.8,449.91c-0.03-1.1-1.67-2.52-4.21-2.52c-2.67,0-5.52,1.05-5.52,3.23c0,3.39,11.75,3.05,11.75,8.83
			c0,3.88-3.46,5.19-6.52,5.19c-3.98,0-6.67-2.57-6.78-5.13l1.9,0.54c0.46,2.33,3.11,3.23,4.65,3.23c3.39,0,5.54-1.44,5.54-3.34
			c0-5.06-11.91-3.82-11.91-9.27c0-3.7,3.93-4.77,6.65-4.77c4.18,0,6.62,2.72,6.31,4.57L235.8,449.91z"/>
		<path d="M240.31,455.24c0-5.34,3.59-9.34,8.5-9.34c3.67,0,7.11,2.05,7.73,5.65h-1.59c-0.62-2.54-2.82-4.34-6.16-4.34
			c-4.24,0-7.03,4.06-7.03,8.03c0,4,2.85,8.09,7.13,8.09c3.31,0,5.54-1.8,6.16-4.34h1.59c-0.59,3.39-4,5.65-7.78,5.65
			C243.93,464.64,240.31,460.61,240.31,455.24z"/>
		<path d="M263.52,446.24h2.26l7.06,17.99h-1.72l-2.67-6.52h-7.55l-2.44,6.52h-1.8L263.52,446.24z M264.88,448.65
			c-0.15-0.41-0.1-0.95-0.1-1.38h-0.31c0,0.44,0.05,0.97-0.1,1.38l-3,7.57h6.54L264.88,448.65z"/>
		<path d="M277.07,464.25h-1.44v-17.97h1.44l9.78,13.88c0.64,0.92,1.16,2.29,1.49,3.36l0.31-0.1c-0.33-1.05-0.72-2.46-0.72-3.59
			v-13.55h1.44v17.97h-1.44l-9.78-13.86c-0.64-0.92-1.16-2.29-1.49-3.36l-0.31,0.1c0.33,1.05,0.72,2.46,0.72,3.59V464.25z"/>
		<path d="M295.42,464.25h-1.03V445.9h5.34c4.8,0,8.42,3.64,8.42,8.98c0,5.34-3.75,9.42-8.55,9.39L295.42,464.25z M299.76,462.89
			c3.95,0,6.93-3.82,6.93-8.03c0-4.18-2.85-7.57-6.8-7.57h-4.06v15.6H299.76z"/>
		<path d="M317.24,445.9c4.95,0,8.34,3.93,8.34,9.37c0,5.44-3.39,9.39-8.34,9.39s-8.34-4.03-8.34-9.39
			C308.9,449.91,312.29,445.9,317.24,445.9z M317.24,463.3c4.06,0,6.88-3.75,6.88-8.03c0-4.29-2.82-7.98-6.88-7.98
			c-4.08,0-6.9,3.7-6.9,7.98C310.34,459.56,313.16,463.3,317.24,463.3z"/>
	</g>
	<g>
		<path style="fill:#F4F4F4;" d="M63.05,77.37c0,10.64-4.69,15.33-15.33,15.33c-7.35,0-11.2-2.1-15.75-8.68l6.3-6.23
			c2.45,3.43,5.32,5.04,8.89,5.04c3.85,0,5.39-1.75,5.39-6.23V42.85h10.5V77.37z"/>
		<path style="fill:#F4F4F4;" d="M71.51,42.64h34.86v9.8H81.66v9.38h22.96v9.8H81.66v10.22h25.06v9.8H71.51V42.64z"/>
		<path style="fill:#F4F4F4;" d="M123.94,42.5h11.55l18.9,49.08h-10.85l-6.37-16.94h-14.49l-5.81,16.94h-10.85L123.94,42.5z
			 M130.95,55.94c-0.7-1.47-0.28-3.64-0.28-5.32h-1.75c0,1.68,0.42,3.85-0.28,5.32l-5.11,11.13h12.6L130.95,55.94z"/>
		<path style="fill:#F4F4F4;" d="M167.69,91.65h-10.5v-49h10.5l21.28,27.51c1.82,2.45,2.94,6.23,3.92,9.17l1.61-0.56
			c-0.98-2.94-2.45-6.58-2.45-9.66V42.64h10.5v49h-10.5l-21.21-27.44c-1.89-2.45-3.01-6.23-3.99-9.17l-1.61,0.56
			c0.98,2.94,2.45,6.58,2.45,9.66V91.65z"/>
		<path style="fill:#F4F4F4;" d="M45.26,141.14v20.51h-10.5v-49h19.6c10.36,0,18.97,2.24,18.97,14c0,11.76-8.47,14.56-19.67,14.56
			C51.77,141.21,48.84,141.21,45.26,141.14z M52.41,132.53c5.6,0,10.78-0.35,10.78-5.88c0-5.25-4.76-5.25-10.78-5.25h-7.14v11.13
			H52.41z"/>
		<path style="fill:#F4F4F4;" d="M79.56,112.64h10.5v49h-10.5V112.64z"/>
		<path style="fill:#F4F4F4;" d="M98.46,112.64h34.86v9.8h-24.71v9.38h22.96v9.8h-22.96v10.22h25.06v9.8H98.46V112.64z"/>
		<path style="fill:#F4F4F4;" d="M174.98,149.4c0.63,2.8,3.71,12.25,3.71,12.25H167.9c-1.54-6.16-2.66-10.71-2.94-11.69
			c-2.17-7.91-6.86-6.58-9.38-6.72h-6.86v18.41h-10.15v-49h18.48c11.2,0,20.44,2.24,20.44,13.72c0,6.09-3.01,8.89-7.21,10.78
			c-2.59,1.19-6.3,0.77-9.17,0.77v1.75c2.87,0,6.79-0.77,9.17,0.84C173.16,142.33,174.07,145.41,174.98,149.4z M148.72,134.84h7.42
			c5.67,0,10.85-3.08,10.85-8.33c0-5.32-4.76-7.42-10.85-7.42h-7.42V134.84z"/>
		<path style="fill:#F4F4F4;" d="M222.16,149.4c0.63,2.8,3.71,12.25,3.71,12.25h-10.78c-1.54-6.16-2.66-10.71-2.94-11.69
			c-2.17-7.91-6.86-6.58-9.38-6.72h-6.86v18.41h-10.15v-49h18.48c11.2,0,20.44,2.24,20.44,13.72c0,6.09-3.01,8.89-7.21,10.78
			c-2.59,1.19-6.3,0.77-9.17,0.77v1.75c2.87,0,6.79-0.77,9.17,0.84C220.34,142.33,221.25,145.41,222.16,149.4z M195.9,134.84h7.42
			c5.67,0,10.85-3.08,10.85-8.33c0-5.32-4.76-7.42-10.85-7.42h-7.42V134.84z"/>
		<path style="fill:#F4F4F4;" d="M232.93,112.64h34.86v9.8h-24.71v9.38h22.96v9.8h-22.96v10.22h25.06v9.8h-35.21V112.64z"/>
	</g>
	<g>
		<path d="M259.07,493.98c3.41,0,5.14,3.02,5.14,7.03c0,4.01-1.73,7.05-5.14,7.05c-3.43,0-5.16-3.04-5.16-7.05
			C253.91,497,255.64,493.98,259.07,493.98z M259.07,506.32c2.37,0,3.31-2.54,3.31-5.32c0-2.77-0.94-5.28-3.31-5.28
			c-2.39,0-3.33,2.5-3.33,5.28C255.74,503.78,256.68,506.32,259.07,506.32z"/>
		<path d="M267.95,498.31v-1.73c1.41,0,2.54-1.02,2.54-2.31h2.33v13.48h-1.79v-9.57c0-0.58,0.33-1.19,0.58-1.69l-0.29-0.15
			c-0.27,0.5-0.58,1.17-1.08,1.42C269.53,498.1,268.66,498.31,267.95,498.31z"/>
		<path d="M277.49,505.77h1.98v1.98h-1.98V505.77z"/>
		<path d="M283.92,506.27l0.13,0.33c0.52-0.23,1.17-0.54,1.73-0.54h5.28v1.69h-8.84v-1.66c1.41-1.42,2.46-2.68,5.12-5.26
			c3-2.93,1.56-5.04-0.46-5.04c-2.06,0-2.52,1.35-2.52,2.62h-1.91c0-1.96,1.1-4.43,4.68-4.43c3.33,0,5.22,3.91,2.73,6.62
			c-1.69,1.87-3.47,3.78-4.37,4.76C285.12,505.79,284.44,506.05,283.92,506.27z"/>
		<path d="M298.25,493.98c3.41,0,5.14,3.02,5.14,7.03c0,4.01-1.73,7.05-5.14,7.05c-3.43,0-5.16-3.04-5.16-7.05
			C293.09,497,294.82,493.98,298.25,493.98z M298.25,506.32c2.37,0,3.31-2.54,3.31-5.32c0-2.77-0.94-5.28-3.31-5.28
			c-2.39,0-3.33,2.5-3.33,5.28C294.92,503.78,295.86,506.32,298.25,506.32z"/>
		<path d="M306.97,506.27l0.13,0.33c0.52-0.23,1.17-0.54,1.73-0.54h5.28v1.69h-8.84v-1.66c1.41-1.42,2.46-2.68,5.12-5.26
			c3-2.93,1.56-5.04-0.46-5.04c-2.06,0-2.52,1.35-2.52,2.62h-1.91c0-1.96,1.1-4.43,4.68-4.43c3.33,0,5.22,3.91,2.73,6.62
			c-1.69,1.87-3.47,3.78-4.37,4.76C308.16,505.79,307.49,506.05,306.97,506.27z"/>
		<path d="M318.63,498.31v-1.73c1.41,0,2.54-1.02,2.54-2.31h2.33v13.48h-1.79v-9.57c0-0.58,0.33-1.19,0.58-1.69l-0.29-0.15
			c-0.27,0.5-0.58,1.17-1.08,1.42C320.21,498.1,319.34,498.31,318.63,498.31z"/>
		<path d="M205.62,524.59h-0.27c0,0.27-0.69,2.62-3.25,2.7c-0.27,0.02-0.52,0-0.75-0.02c-2.58-0.29-4.39-2.46-4.39-5.14
			c0-2.68,1.85-4.74,4.45-5.01c0.27-0.02,0.52-0.04,0.79-0.02c1.27,0.04,2.31,0.5,2.97,1.21c0.38,0.42,0.5,1.12,0.67,1.6l0.33-0.12
			c-0.17-0.48-0.48-1.08-0.5-1.6l-0.04-0.75h1.54v7.78c0,1.35,0.35,1.66,1.02,1.66c1.64,0,1.58-3.35,1.58-4.53
			c-0.02-4.85-3.47-7.76-7.45-7.76c-4.22,0-7.49,3.14-7.49,7.68c0,4.83,3.7,7.22,7.72,7.22c0.77,0,1.54-0.08,2.31-0.25l0.4,1.62
			c-0.94,0.19-1.85,0.27-2.73,0.27c-5.39,0-9.4-3.37-9.38-8.9c0-5.45,3.89-9.26,9.13-9.26c5.18,0,9.17,3.72,9.19,9.28
			c0,4.06-1.21,6.12-3.29,6.12c-1.54,0-2.54-0.98-2.54-2.52V524.59z M202.03,525.67c2.14,0,3.22-1.73,3.33-3.54
			c0-2.14-1.19-3.43-3.31-3.43c-2.18,0-3.33,1.5-3.33,3.43C198.72,524.07,199.86,525.67,202.03,525.67z"/>
		<path d="M213.41,520.24c0.02-4.01,2.83-7.01,6.66-7.01c3.43,0,5.68,1.89,6.05,4.53h-1.87c-0.38-1.52-1.58-2.81-4.18-2.81
			c-2.83,0-4.85,2.35-4.85,5.29c0,2.96,2.04,5.33,4.89,5.33c2.66,0,3.87-1.29,4.25-2.81h1.87c-0.4,2.77-2.7,4.53-6.1,4.53
			C216.26,527.29,213.43,524.27,213.41,520.24z"/>
		<path d="M228.54,513.52h1.79V527h-1.79V513.52z"/>
		<path d="M233.53,513.52h9.01v1.66h-7.24v4.06h6.76v1.66h-6.76v4.45h7.34V527h-9.11V513.52z"/>
		<path d="M246.71,527h-1.79v-13.48h1.79l6.74,9.28c0.5,0.67,0.85,1.71,1.12,2.52l0.31-0.12c-0.25-0.79-0.6-1.83-0.6-2.68v-9.01
			h1.81V527h-1.81l-6.74-9.26c-0.5-0.67-0.83-1.71-1.1-2.52l-0.33,0.12c0.27,0.79,0.6,1.83,0.6,2.68V527z"/>
		<path d="M261.3,527v-11.82h-3.87v-1.66h9.55v1.66h-3.87V527H261.3z"/>
		<path d="M269.27,513.52h1.79V527h-1.79V513.52z"/>
		<path d="M276.05,515.25v4.27h6.16v1.73h-6.16V527h-1.79v-13.48h9.01v1.73H276.05z"/>
		<path d="M285.52,513.52h1.79V527h-1.79V513.52z"/>
		<path d="M288.75,520.24c0.02-4.01,2.83-7.01,6.66-7.01c3.43,0,5.68,1.89,6.05,4.53h-1.87c-0.38-1.52-1.58-2.81-4.18-2.81
			c-2.83,0-4.85,2.35-4.85,5.29c0,2.96,2.04,5.33,4.89,5.33c2.66,0,3.87-1.29,4.25-2.81h1.87c-0.4,2.77-2.7,4.53-6.1,4.53
			C291.6,527.29,288.77,524.27,288.75,520.24z"/>
		<path d="M309.37,513.23c3.72,0,6.45,3.08,6.45,7.03c0,3.93-2.73,7.05-6.45,7.05s-6.45-3.04-6.45-7.05S305.66,513.23,309.37,513.23
			z M309.37,525.57c2.89,0,4.64-2.6,4.64-5.31c0-2.73-1.75-5.29-4.64-5.29c-2.91,0-4.66,2.56-4.66,5.29
			C304.71,522.97,306.47,525.57,309.37,525.57z"/>
		<path d="M317.15,528.39h8.55v1.56h-8.55V528.39z"/>
	</g>
	<g>
		<path d="M269.07,350.75v1.56h-5.98v-8.98h1.63v7.42H269.07z"/>
		<path d="M274.08,343.14c2.48,0,4.43,2.16,4.43,4.69c0,2.53-1.95,4.7-4.43,4.7s-4.43-2.04-4.43-4.7S271.6,343.14,274.08,343.14z
			 M274.08,350.89c1.83,0,2.75-1.58,2.75-3.07c0-1.49-0.91-3.05-2.75-3.05s-2.73,1.56-2.73,3.05
			C271.34,349.31,272.24,350.89,274.08,350.89z"/>
		<path d="M287.1,351.6c0-0.51,0.23-1.15,0.36-1.65l-0.27-0.06c-0.14,0.49-0.17,1.22-0.51,1.6c-0.45,0.49-1.28,1.04-2.61,1.04
			c-2.64,0-4.7-2.03-4.7-4.7c0-2.67,2.01-4.69,4.77-4.69c1.99,0,3.59,0.93,4.2,2.54c0,0-1.68,0.39-1.67,0.37
			c-0.4-0.82-1.37-1.32-2.63-1.32c-1.77,0-2.99,1.28-2.99,3.09c0,1.81,1.31,3.11,3.21,3.11c2.04,0,2.64-1.32,2.64-2.03h-2.41v-1.45
			h4.22v4.86h-1.62V351.6z"/>
		<path d="M294.14,343.14c2.48,0,4.43,2.16,4.43,4.69c0,2.53-1.95,4.7-4.43,4.7s-4.43-2.04-4.43-4.7S291.66,343.14,294.14,343.14z
			 M294.14,350.89c1.83,0,2.75-1.58,2.75-3.07c0-1.49-0.91-3.05-2.75-3.05s-2.73,1.56-2.73,3.05
			C291.4,349.31,292.3,350.89,294.14,350.89z"/>
		<path d="M301.54,352.32v-7.42h-2.4v-1.57h6.48v1.57h-2.4v7.42H301.54z"/>
		<path d="M307,343.33h1.68v8.98H307V343.33z"/>
		<path d="M311.99,348.56v3.76h-1.68v-8.98h3.36c1.91,0,3.49,0.41,3.49,2.57s-1.57,2.67-3.63,2.67
			C313.2,348.57,312.64,348.57,311.99,348.56z M313.4,347.16c1.1,0,2.12-0.09,2.12-1.26c0-1.13-0.94-1.14-2.12-1.14h-1.41v2.4H313.4
			z"/>
		<path d="M321.95,343.14c2.48,0,4.43,2.16,4.43,4.69c0,2.53-1.95,4.7-4.43,4.7s-4.43-2.04-4.43-4.7S319.47,343.14,321.95,343.14z
			 M321.95,350.89c1.83,0,2.75-1.58,2.75-3.07c0-1.49-0.91-3.05-2.75-3.05s-2.73,1.56-2.73,3.05
			C319.22,349.31,320.11,350.89,321.95,350.89z"/>
	</g>
	<g>
		<path d="M85.23,504.19c10.64,0,15.33,4.69,15.33,15.33c0,7.35-2.1,11.2-8.68,15.75l-6.23-6.3c3.43-2.45,5.04-5.32,5.04-8.89
			c0-3.85-1.75-5.39-6.23-5.39H50.72v-10.5H85.23z"/>
		<path d="M50.51,495.72v-34.87h9.8v24.71h9.38v-22.96h9.8v22.96h10.22v-25.06h9.8v35.21H50.51z"/>
		<path d="M50.37,443.29v-11.55l49.08-18.9v10.85l-16.94,6.37v14.49l16.94,5.81v10.85L50.37,443.29z M63.81,436.29
			c-1.47,0.7-3.64,0.28-5.32,0.28v1.75c1.68,0,3.85-0.42,5.32,0.28l11.13,5.11v-12.6L63.81,436.29z"/>
		<path d="M99.51,399.54v10.5h-49v-10.5l27.51-21.28c2.45-1.82,6.23-2.94,9.17-3.92l-0.56-1.61c-2.94,0.98-6.58,2.45-9.66,2.45
			H50.51v-10.5h49v10.5l-27.44,21.21c-2.45,1.89-6.23,3.01-9.17,3.99l0.56,1.61c2.94-0.98,6.58-2.45,9.66-2.45H99.51z"/>
		<path d="M79,328.98h20.51v10.5h-49v-19.6c0-10.36,2.24-18.97,14-18.97c11.76,0,14.56,8.47,14.56,19.67
			C79.07,322.47,79.07,325.41,79,328.98z M70.39,321.84c0-5.6-0.35-10.78-5.88-10.78c-5.25,0-5.25,4.76-5.25,10.78v7.14h11.13
			V321.84z"/>
		<path d="M50.51,294.68v-10.5h49v10.5H50.51z"/>
		<path d="M50.51,275.78v-34.86h9.8v24.71h9.38v-22.96h9.8v22.96h10.22v-25.06h9.8v35.21H50.51z"/>
		<path d="M87.26,199.27c2.8-0.63,12.25-3.71,12.25-3.71v10.78c-6.16,1.54-10.71,2.66-11.69,2.94c-7.91,2.17-6.58,6.86-6.72,9.38
			v6.86h18.41v10.15h-49v-18.48c0-11.2,2.24-20.44,13.72-20.44c6.09,0,8.89,3.01,10.78,7.21c1.19,2.59,0.77,6.3,0.77,9.17h1.75
			c0-2.87-0.77-6.79,0.84-9.17C80.19,201.09,83.27,200.18,87.26,199.27z M72.7,225.52v-7.42c0-5.67-3.08-10.85-8.33-10.85
			c-5.32,0-7.42,4.76-7.42,10.85v7.42H72.7z"/>
		<path d="M87.26,152.09c2.8-0.63,12.25-3.71,12.25-3.71v10.78c-6.16,1.54-10.71,2.66-11.69,2.94c-7.91,2.17-6.58,6.86-6.72,9.38
			v6.86h18.41v10.15h-49v-18.48c0-11.2,2.24-20.44,13.72-20.44c6.09,0,8.89,3.01,10.78,7.21c1.19,2.59,0.77,6.3,0.77,9.17h1.75
			c0-2.87-0.77-6.79,0.84-9.17C80.19,153.91,83.27,153,87.26,152.09z M72.7,178.34v-7.42c0-5.67-3.08-10.85-8.33-10.85
			c-5.32,0-7.42,4.76-7.42,10.85v7.42H72.7z"/>
		<path d="M50.51,141.31v-34.86h9.8v24.71h9.38V108.2h9.8v22.96h10.22V106.1h9.8v35.21H50.51z"/>
	</g>
</g>
</svg>
