<?xml version="1.0" encoding="utf-8"?>
<!-- Generator: Adobe Illustrator 25.0.0, SVG Export Plug-In . SVG Version: 6.00 Build 0)  -->
<svg version="1.1" id="Layer_1" xmlns="http://www.w3.org/2000/svg" xmlns:xlink="http://www.w3.org/1999/xlink" x="0px" y="0px"
	 viewBox="0 0 601.45 400.52" style="enable-background:new 0 0 601.45 400.52;" xml:space="preserve">
<g>
	<g>
		<g>
			<rect x="34.7" y="34.23" style="fill:#B2E2FB;" width="565.38" height="365.38"/>
		</g>
		<g>
			<g>
				<path d="M599.44,34.88v364.1H35.34V34.88H599.44 M600.72,33.59H34.06v366.67h566.67V33.59L600.72,33.59z"/>
			</g>
		</g>
	</g>
	<g>
		<g>
			<rect x="18.03" y="17.57" style="fill:#F0C0FB;" width="565.38" height="365.38"/>
		</g>
		<g>
			<path d="M582.77,18.21v364.1H18.67V18.21H582.77 M584.06,16.93H17.39v366.67h566.67V16.93L584.06,16.93z"/>
		</g>
	</g>
	<g>
		<g>
			<rect x="1.36" y="0.9" style="fill:#F4F4F4;" width="565.38" height="365.38"/>
		</g>
		<g>
			<path d="M566.11,1.54v364.1H2.01V1.54H566.11 M567.39,0.26H0.72v366.67h566.67V0.26L567.39,0.26z"/>
		</g>
	</g>
	<g>
		<path d="M305.03,234.34h11.5v1.28h-10.04v6.72h9.39v1.28h-9.39v7.39h10.16v1.28h-11.63V234.34z"/>
		<path d="M330.54,237.95c-0.03-1.1-1.67-2.52-4.21-2.52c-2.67,0-5.52,1.05-5.52,3.23c0,3.39,11.75,3.05,11.75,8.83
			c0,3.88-3.46,5.18-6.52,5.18c-3.98,0-6.67-2.57-6.78-5.13l1.9,0.54c0.46,2.34,3.11,3.23,4.65,3.23c3.39,0,5.54-1.44,5.54-3.34
			c0-5.06-11.91-3.82-11.91-9.27c0-3.7,3.93-4.77,6.65-4.77c4.18,0,6.62,2.72,6.31,4.57L330.54,237.95z"/>
		<path d="M342.71,234.34h1.44v8.16h11.37v-8.16h1.46v17.96h-1.46v-8.52h-11.37v8.52h-1.44V234.34z"/>
		<path d="M366.99,233.95c4.95,0,8.34,3.93,8.34,9.37s-3.39,9.39-8.34,9.39s-8.34-4.03-8.34-9.39S362.04,233.95,366.99,233.95z
			 M366.99,251.35c4.06,0,6.88-3.75,6.88-8.03c0-4.29-2.82-7.98-6.88-7.98c-4.08,0-6.9,3.7-6.9,7.98
			C360.09,247.6,362.91,251.35,366.99,251.35z"/>
		<path d="M390.01,247.81c0.28,1.03,1.36,4.49,1.36,4.49h-1.41c-0.62-2.26-1.1-3.93-1.21-4.29c-0.9-2.9-2.93-3.34-4-3.39
			c-0.23,0-0.44,0-0.72,0c-0.67,0-1.92-0.03-3.49-0.03v7.7h-1.46v-17.96h5.03c3.75,0,6.83,0.82,6.83,5.03
			c0,2.64-1.57,3.62-3.52,4.31c-0.46,0.15-1.08,0.1-1.54,0.1v0.31c0.46,0,1.1-0.1,1.54,0.08C388.4,244.6,389.4,245.63,390.01,247.81
			z M380.54,243.11h3.64c2.77,0,5.31,0,5.31-3.7c0-3.54-2.36-3.36-5.31-3.36h-3.64V243.11z"/>
		<path d="M398.13,234.28h2.26l7.06,17.99h-1.72l-2.67-6.52h-7.55l-2.44,6.52h-1.8L398.13,234.28z M399.49,236.7
			c-0.15-0.41-0.1-0.95-0.1-1.39h-0.31c0,0.44,0.05,0.98-0.1,1.39l-3,7.57h6.54L399.49,236.7z"/>
		<path d="M417.69,252.3h-1.03v-18.35H422c4.8,0,8.42,3.64,8.42,8.98s-3.75,9.42-8.55,9.39L417.69,252.3z M422.02,250.94
			c3.95,0,6.93-3.82,6.93-8.03c0-4.18-2.85-7.57-6.8-7.57h-4.06v15.61H422.02z"/>
		<path d="M434.5,234.34H446v1.28h-10.04v6.72h9.39v1.28h-9.39v7.39h10.16v1.28H434.5V234.34z"/>
		<path d="M457.88,252.3h-1.46v-17.96h1.57l7.54,15.58c0.23,0.49,0.26,1.18,0.26,1.72h0.31c0-0.54,0-1.23,0.26-1.72l7.55-15.58h1.51
			v17.96h-1.44v-13.37c0-0.54,0.26-1.21,0.38-1.75l-0.31-0.08c-0.13,0.51-0.26,1.23-0.51,1.72l-6.9,13.47h-1.41l-6.9-13.47
			c-0.26-0.49-0.38-1.18-0.51-1.72l-0.31,0.08c0.13,0.54,0.39,1.21,0.39,1.75V252.3z"/>
		<path d="M480.29,234.34h1.44v17.96h-1.44V234.34z"/>
		<path d="M497.66,247.81c0.28,1.03,1.36,4.49,1.36,4.49h-1.41c-0.62-2.26-1.1-3.93-1.21-4.29c-0.9-2.9-2.93-3.34-4-3.39
			c-0.23,0-0.44,0-0.72,0c-0.67,0-1.92-0.03-3.49-0.03v7.7h-1.46v-17.96h5.03c3.75,0,6.83,0.82,6.83,5.03
			c0,2.64-1.57,3.62-3.52,4.31c-0.46,0.15-1.08,0.1-1.54,0.1v0.31c0.46,0,1.1-0.1,1.54,0.08
			C496.05,244.6,497.05,245.63,497.66,247.81z M488.19,243.11h3.64c2.77,0,5.31,0,5.31-3.7c0-3.54-2.36-3.36-5.31-3.36h-3.64V243.11
			z"/>
		<path d="M505.78,234.28h2.26l7.06,17.99h-1.72l-2.67-6.52h-7.55l-2.44,6.52h-1.8L505.78,234.28z M507.14,236.7
			c-0.15-0.41-0.1-0.95-0.1-1.39h-0.31c0,0.44,0.05,0.98-0.1,1.39l-3,7.57h6.54L507.14,236.7z"/>
		<path d="M528.67,247.81c0.28,1.03,1.36,4.49,1.36,4.49h-1.41c-0.62-2.26-1.1-3.93-1.21-4.29c-0.9-2.9-2.93-3.34-4-3.39
			c-0.23,0-0.44,0-0.72,0c-0.67,0-1.92-0.03-3.49-0.03v7.7h-1.46v-17.96h5.03c3.75,0,6.83,0.82,6.83,5.03
			c0,2.64-1.57,3.62-3.52,4.31c-0.46,0.15-1.08,0.1-1.54,0.1v0.31c0.46,0,1.1-0.1,1.54,0.08
			C527.05,244.6,528.06,245.63,528.67,247.81z M519.2,243.11h3.64c2.77,0,5.31,0,5.31-3.7c0-3.54-2.36-3.36-5.31-3.36h-3.64V243.11z
			"/>
		<path d="M377.26,260h1.44v8.16h11.37V260h1.46v17.96h-1.46v-8.52h-11.37v8.52h-1.44V260z"/>
		<path d="M399.59,259.95h2.26l7.06,17.99h-1.72l-2.67-6.52h-7.55l-2.44,6.52h-1.8L399.59,259.95z M400.95,262.36
			c-0.15-0.41-0.1-0.95-0.1-1.39h-0.31c0,0.44,0.05,0.98-0.1,1.39l-3,7.57h6.54L400.95,262.36z"/>
		<path d="M409.52,268.96c0-5.34,3.59-9.34,8.5-9.34c3.67,0,7.11,2.05,7.73,5.65h-1.59c-0.62-2.54-2.82-4.34-6.16-4.34
			c-4.24,0-7.03,4.05-7.03,8.03c0,4,2.85,8.08,7.13,8.08c3.31,0,5.54-1.8,6.16-4.34h1.59c-0.59,3.39-4,5.65-7.78,5.65
			C413.14,278.35,409.52,274.32,409.52,268.96z"/>
		<path d="M429.21,260h1.44v17.96h-1.44V260z"/>
		<path d="M438.71,259.95h2.26l7.06,17.99h-1.72l-2.67-6.52h-7.55l-2.44,6.52h-1.8L438.71,259.95z M440.07,262.36
			c-0.15-0.41-0.1-0.95-0.1-1.39h-0.31c0,0.44,0.05,0.98-0.1,1.39l-3,7.57h6.54L440.07,262.36z"/>
		<path d="M461.55,259.95h2.26l7.06,17.99h-1.72l-2.67-6.52h-7.55l-2.44,6.52h-1.8L461.55,259.95z M462.91,262.36
			c-0.15-0.41-0.1-0.95-0.1-1.39h-0.31c0,0.44,0.05,0.98-0.1,1.39l-3,7.57h6.54L462.91,262.36z"/>
		<path d="M476.59,277.97v-16.68h-5.49V260h12.45v1.28h-5.49v16.68H476.59z"/>
		<path d="M497.87,273.48c0.28,1.03,1.36,4.49,1.36,4.49h-1.41c-0.62-2.26-1.1-3.93-1.21-4.29c-0.9-2.9-2.93-3.34-4-3.39
			c-0.23,0-0.44,0-0.72,0c-0.67,0-1.92-0.03-3.49-0.03v7.7h-1.46V260h5.03c3.75,0,6.83,0.82,6.83,5.03c0,2.64-1.57,3.62-3.52,4.31
			c-0.46,0.15-1.08,0.1-1.54,0.1v0.31c0.46,0,1.1-0.1,1.54,0.08C496.25,270.27,497.25,271.3,497.87,273.48z M488.4,268.78h3.64
			c2.77,0,5.31,0,5.31-3.7c0-3.54-2.36-3.36-5.31-3.36h-3.64V268.78z"/>
		<path d="M505.98,259.95h2.26l7.06,17.99h-1.72l-2.67-6.52h-7.55l-2.44,6.52h-1.8L505.98,259.95z M507.34,262.36
			c-0.15-0.41-0.1-0.95-0.1-1.39h-0.31c0,0.44,0.05,0.98-0.1,1.39l-3,7.57h6.54L507.34,262.36z"/>
		<path d="M527.95,263.62c-0.03-1.1-1.67-2.52-4.21-2.52c-2.67,0-5.52,1.05-5.52,3.23c0,3.39,11.75,3.05,11.75,8.83
			c0,3.88-3.46,5.18-6.52,5.18c-3.98,0-6.67-2.57-6.78-5.13l1.9,0.54c0.46,2.34,3.11,3.23,4.64,3.23c3.39,0,5.54-1.44,5.54-3.34
			c0-5.06-11.91-3.82-11.91-9.27c0-3.7,3.93-4.77,6.65-4.77c4.18,0,6.62,2.72,6.31,4.57L527.95,263.62z"/>
		<path d="M344.89,297.4c0.03,4.29-3,6.62-6.9,6.62s-6.9-2.33-6.93-6.62c0-5.34,0.03-11.73,0.03-11.73h1.44v12.04
			c0.03,2.62,2.34,4.95,5.47,4.95c3.16,0,5.49-2.34,5.47-4.95c0-4.08,0-12.04,0-12.04h1.44V297.4z"/>
		<path d="M350.72,303.64h-1.44v-17.96h1.44l9.78,13.88c0.64,0.92,1.16,2.28,1.49,3.36l0.31-0.1c-0.33-1.05-0.72-2.46-0.72-3.59
			v-13.55h1.44v17.96h-1.44l-9.78-13.86c-0.64-0.92-1.16-2.28-1.49-3.36l-0.31,0.1c0.33,1.05,0.72,2.46,0.72,3.59V303.64z"/>
		<path d="M371.1,285.62h2.26l7.06,17.99h-1.72l-2.67-6.52h-7.55l-2.44,6.52h-1.8L371.1,285.62z M372.46,288.03
			c-0.15-0.41-0.1-0.95-0.1-1.39h-0.31c0,0.44,0.05,0.98-0.1,1.39l-3,7.57h6.54L372.46,288.03z"/>
		<path d="M402.8,297.4c0.03,4.29-3,6.62-6.9,6.62s-6.9-2.33-6.93-6.62c0-5.34,0.03-11.73,0.03-11.73h1.44v12.04
			c0.03,2.62,2.34,4.95,5.47,4.95c3.16,0,5.49-2.34,5.47-4.95c0-4.08,0-12.04,0-12.04h1.44V297.4z"/>
		<path d="M418.12,302.35v1.28h-10.93v-17.96h1.46v16.68H418.12z"/>
		<path d="M423.72,303.64v-16.68h-5.49v-1.28h12.45v1.28h-5.49v16.68H423.72z"/>
		<path d="M434.06,285.67h1.44v17.96h-1.44V285.67z"/>
		<path d="M441.97,303.64h-1.46v-17.96h1.57l7.54,15.58c0.23,0.49,0.26,1.18,0.26,1.72h0.31c0-0.54,0-1.23,0.26-1.72l7.55-15.58
			h1.51v17.96h-1.44v-13.37c0-0.54,0.26-1.21,0.38-1.75l-0.31-0.08c-0.13,0.51-0.26,1.23-0.51,1.72l-6.9,13.47h-1.41l-6.9-13.47
			c-0.26-0.49-0.38-1.18-0.51-1.72l-0.31,0.08c0.13,0.54,0.39,1.21,0.39,1.75V303.64z"/>
		<path d="M467.58,285.62h2.26l7.06,17.99h-1.72l-2.67-6.52h-7.55l-2.44,6.52h-1.8L467.58,285.62z M468.94,288.03
			c-0.15-0.41-0.1-0.95-0.1-1.39h-0.31c0,0.44,0.05,0.98-0.1,1.39l-3,7.57h6.54L468.94,288.03z"/>
		<path d="M491.94,300.04c0.18,0.44,0.13,1.03,0.13,1.49h0.31c0-0.46-0.03-1.05,0.13-1.49l5.75-14.37h1.57l-6.62,17.96h-1.95
			l-6.62-17.96h1.54L491.94,300.04z"/>
		<path d="M503.36,285.67h11.5v1.28h-10.04v6.72h9.39v1.28h-9.39v7.39h10.16v1.28h-11.63V285.67z"/>
		<path d="M528.08,287.65c0.31-0.41,0.92-0.72,1.39-0.95l-0.13-0.28c-0.49,0.23-1.08,0.54-1.62,0.54h-10.37v-1.28h12.73v1.28h-0.03
			l-10.99,14.68c-0.31,0.44-0.9,0.74-1.39,0.98l0.15,0.28c0.46-0.23,1.08-0.54,1.59-0.54h10.65v1.28H517.1v-1.33L528.08,287.65z"/>
		<path d="M349.05,311.34h11.5v1.28h-10.04v6.72h9.39v1.28h-9.39v7.39h10.16v1.28h-11.63V311.34z"/>
		<path d="M365.99,329.3h-1.44v-17.96h1.44l9.78,13.88c0.64,0.92,1.16,2.28,1.49,3.36l0.31-0.1c-0.33-1.05-0.72-2.46-0.72-3.59
			v-13.55h1.44v17.96h-1.44l-9.78-13.86c-0.64-0.92-1.16-2.28-1.49-3.36l-0.31,0.1c0.33,1.05,0.72,2.46,0.72,3.59V329.3z"/>
		<path d="M389.73,311.34h1.44v17.96h-1.44V311.34z"/>
		<path d="M397.61,329.3h-1.44v-17.96h1.44l9.78,13.88c0.64,0.92,1.16,2.28,1.49,3.36l0.31-0.1c-0.33-1.05-0.72-2.46-0.72-3.59
			v-13.55h1.44v17.96h-1.44l-9.78-13.86c-0.64-0.92-1.16-2.28-1.49-3.36l-0.31,0.1c0.33,1.05,0.72,2.46,0.72,3.59V329.3z"/>
		<path d="M424.95,314.96c-0.03-1.1-1.67-2.52-4.21-2.52c-2.67,0-5.52,1.05-5.52,3.23c0,3.39,11.75,3.05,11.75,8.83
			c0,3.88-3.46,5.18-6.52,5.18c-3.98,0-6.67-2.57-6.78-5.13l1.9,0.54c0.46,2.34,3.11,3.23,4.65,3.23c3.39,0,5.54-1.44,5.54-3.34
			c0-5.06-11.91-3.82-11.91-9.27c0-3.7,3.93-4.77,6.65-4.77c4.18,0,6.62,2.72,6.31,4.57L424.95,314.96z"/>
		<path d="M434.57,329.3v-16.68h-5.49v-1.28h12.45v1.28h-5.49v16.68H434.57z"/>
		<path d="M448.43,311.29h2.26l7.06,17.99h-1.72l-2.67-6.52h-7.55l-2.44,6.52h-1.8L448.43,311.29z M449.79,313.7
			c-0.15-0.41-0.1-0.95-0.1-1.39h-0.31c0,0.44,0.05,0.98-0.1,1.39l-3,7.57h6.54L449.79,313.7z"/>
		<path d="M473.46,327.1c0-0.56,0.23-1.31,0.33-1.87l-0.33-0.05c-0.08,0.56-0.05,1.36-0.31,1.87c-0.67,1.1-2.31,2.67-5.26,2.67
			c-4.85,0-8.6-4.06-8.6-9.39s3.52-9.37,8.26-9.37c3.46,0,6.26,1.85,7.37,5.08c0,0-1.31,0.77-1.28,0.74
			c-0.85-2.75-3.11-4.44-6.01-4.44c-4.11,0-6.9,3.9-6.9,7.98s3.03,8.01,7.03,8.01c4.31,0,5.31-3.8,5.31-5.85h-4.83v-1.36h6.39v8.19
			h-1.18V327.1z"/>
		<path d="M489.48,324.81c0.28,1.03,1.36,4.49,1.36,4.49h-1.41c-0.62-2.26-1.1-3.93-1.21-4.29c-0.9-2.9-2.93-3.34-4-3.39
			c-0.23,0-0.44,0-0.72,0c-0.67,0-1.92-0.03-3.49-0.03v7.7h-1.46v-17.96h5.03c3.75,0,6.83,0.82,6.83,5.03
			c0,2.64-1.57,3.62-3.52,4.31c-0.46,0.15-1.08,0.1-1.54,0.1v0.31c0.46,0,1.1-0.1,1.54,0.08
			C487.86,321.6,488.86,322.63,489.48,324.81z M480.01,320.12h3.64c2.77,0,5.31,0,5.31-3.7c0-3.54-2.36-3.36-5.31-3.36h-3.64V320.12
			z"/>
		<path d="M497.59,311.29h2.26l7.06,17.99h-1.72l-2.67-6.52h-7.55l-2.44,6.52h-1.8L497.59,311.29z M498.95,313.7
			c-0.15-0.41-0.1-0.95-0.1-1.39h-0.31c0,0.44,0.05,0.98-0.1,1.39l-3,7.57h6.54L498.95,313.7z"/>
		<path d="M511.17,329.3h-1.46v-17.96h1.57l7.54,15.58c0.23,0.49,0.26,1.18,0.26,1.72h0.31c0-0.54,0-1.23,0.26-1.72l7.55-15.58h1.51
			v17.96h-1.44v-13.37c0-0.54,0.26-1.21,0.38-1.75l-0.31-0.08c-0.13,0.51-0.26,1.23-0.51,1.72l-6.9,13.47h-1.41l-6.9-13.47
			c-0.26-0.49-0.38-1.18-0.51-1.72l-0.31,0.08c0.13,0.54,0.39,1.21,0.39,1.75V329.3z"/>
	</g>
	<g>
		<path d="M74.99,78.27c0.63,2.8,3.71,12.25,3.71,12.25H67.92c-1.54-6.16-2.66-10.71-2.94-11.69c-2.17-7.91-6.86-6.58-9.38-6.72
			h-6.86v18.41H38.58v-49h18.48c11.2,0,20.44,2.24,20.44,13.72c0,6.09-3.01,8.89-7.21,10.78c-2.59,1.19-6.3,0.77-9.17,0.77v1.75
			c2.87,0,6.79-0.77,9.17,0.84C73.17,71.19,74.08,74.27,74.99,78.27z M48.73,63.7h7.42c5.67,0,10.85-3.08,10.85-8.33
			c0-5.32-4.76-7.42-10.85-7.42h-7.42V63.7z"/>
		<path d="M85.76,41.51h34.86v9.8H95.91v9.38h22.96v9.8H95.91v10.22h25.06v9.8H85.76V41.51z"/>
		<path d="M137.07,90.52v-39.2h-12.6v-9.8h35.77v9.8h-12.67v39.2H137.07z"/>
		<path d="M203.65,78.27c0.63,2.8,3.71,12.25,3.71,12.25h-10.78c-1.54-6.16-2.66-10.71-2.94-11.69c-2.17-7.91-6.86-6.58-9.38-6.72
			h-6.86v18.41h-10.15v-49h18.48c11.2,0,20.44,2.24,20.44,13.72c0,6.09-3.01,8.89-7.21,10.78c-2.59,1.19-6.3,0.77-9.17,0.77v1.75
			c2.87,0,6.79-0.77,9.17,0.84C201.83,71.19,202.74,74.27,203.65,78.27z M177.39,63.7h7.42c5.67,0,10.85-3.08,10.85-8.33
			c0-5.32-4.76-7.42-10.85-7.42h-7.42V63.7z"/>
		<path d="M236.89,40.46c13.51,0,24.5,12.04,24.5,25.55c0,13.51-10.99,25.62-24.5,25.62s-24.5-11.13-24.5-25.62
			C212.39,51.52,223.38,40.46,236.89,40.46z M236.89,81.49c9.73,0,14-8.26,14-15.47c0-7.21-4.27-15.4-14-15.4
			c-9.73,0-14,8.19-14,15.4C222.89,73.22,227.16,81.49,236.89,81.49z"/>
		<path d="M301.71,54.39c-4.06-3.71-9.1-5.39-15.82-5.39c-3.99,0-7.56,1.61-7.56,4.27c0,6.51,32.41,5.6,32.41,23.31
			c0,8.96-9.73,14.98-24.15,14.98c-8.96,0-14.56-2.59-21-9.73l7.42-5.95c3.64,3.85,7.14,5.95,15.19,5.95c5.88,0,9.31-2.1,9.31-5.11
			c0-8.26-30.66-7.56-30.66-22.89c0-7.7,9.17-13.37,21.7-13.37c7.63,0,14.07,2.45,20.51,7.84L301.71,54.39z"/>
		<path d="M326.91,70v20.51h-10.5v-49h19.6c10.36,0,18.97,2.24,18.97,14c0,11.76-8.47,14.56-19.67,14.56
			C333.42,70.07,330.48,70.07,326.91,70z M334.05,61.39c5.6,0,10.78-0.35,10.78-5.88c0-5.25-4.76-5.25-10.78-5.25h-7.14v11.13
			H334.05z"/>
		<path d="M359.46,41.51h34.86v9.8h-24.71v9.38h22.96v9.8h-22.96v10.22h25.06v9.8h-35.21V41.51z"/>
		<path d="M397.47,65.94c0.07-14.56,10.92-25.48,25.69-25.48c16.17,0,22.61,8.75,23.38,17.99h-10.43c-1.05-3.36-2.8-7.84-12.74-7.84
			c-8.47,0-15.4,4.9-15.4,15.4c0,10.43,6.86,15.4,15.26,15.4c10.57,0,12.53-4.48,13.58-7.91h10.43
			c-1.26,11.34-8.19,18.06-23.73,18.06C408.53,91.57,397.54,80.58,397.47,65.94z"/>
		<path d="M462.92,90.52v-39.2h-12.6v-9.8h35.77v9.8h-12.67v39.2H462.92z"/>
	</g>
	<g>
		<path d="M40.7,293.23c3.41,0,5.14,3.02,5.14,7.03s-1.73,7.05-5.14,7.05c-3.43,0-5.16-3.04-5.16-7.05S37.28,293.23,40.7,293.23z
			 M40.7,305.57c2.37,0,3.31-2.54,3.31-5.31s-0.94-5.28-3.31-5.28c-2.39,0-3.33,2.5-3.33,5.28S38.32,305.57,40.7,305.57z"/>
		<path d="M53.28,298.31c2.56,0,4.26,1.68,4.26,4.39c0,2.68-2,4.58-5.03,4.58c-2.39,0-4.64-1.64-5.22-3.85h2.12
			c0.27,1.04,1.68,2.16,3.2,2.16c1.96,0,3.12-1.35,3.12-3.08c0-1.35-0.94-2.52-2.58-2.52c-1.94,0-2.83,0.63-3.43,1.25h-2.12
			l1.5-7.72h7.7v1.68h-6.1L50,298.7c-0.1,0.44-0.46,0.91-0.71,1.29l0.27,0.19c0.25-0.39,0.52-0.95,0.91-1.18
			C51.2,298.58,52.16,298.31,53.28,298.31z"/>
		<path d="M59.63,305.01h1.98V307h-1.98V305.01z"/>
		<path d="M66.06,305.52l0.13,0.33c0.52-0.23,1.17-0.54,1.73-0.54h5.28v1.7h-8.84v-1.66c1.41-1.43,2.46-2.68,5.12-5.26
			c3-2.93,1.56-5.04-0.46-5.04c-2.06,0-2.52,1.35-2.52,2.62h-1.91c0-1.96,1.1-4.43,4.68-4.43c3.33,0,5.22,3.91,2.73,6.62
			c-1.69,1.87-3.47,3.77-4.37,4.76C67.25,305.03,66.58,305.3,66.06,305.52z"/>
		<path d="M80.38,293.23c3.41,0,5.14,3.02,5.14,7.03s-1.73,7.05-5.14,7.05c-3.43,0-5.16-3.04-5.16-7.05S76.95,293.23,80.38,293.23z
			 M80.38,305.57c2.37,0,3.31-2.54,3.31-5.31s-0.94-5.28-3.31-5.28c-2.39,0-3.33,2.5-3.33,5.28S77.99,305.57,80.38,305.57z"/>
		<path d="M89.1,305.52l0.13,0.33c0.52-0.23,1.17-0.54,1.73-0.54h5.28v1.7h-8.84v-1.66c1.41-1.43,2.46-2.68,5.12-5.26
			c3-2.93,1.56-5.04-0.46-5.04c-2.06,0-2.52,1.35-2.52,2.62h-1.91c0-1.96,1.1-4.43,4.68-4.43c3.33,0,5.22,3.91,2.73,6.62
			c-1.69,1.87-3.47,3.77-4.37,4.76C90.29,305.03,89.62,305.3,89.1,305.52z"/>
		<path d="M103.42,293.23c3.41,0,5.14,3.02,5.14,7.03s-1.73,7.05-5.14,7.05c-3.43,0-5.16-3.04-5.16-7.05S100,293.23,103.42,293.23z
			 M103.42,305.57c2.37,0,3.31-2.54,3.31-5.31s-0.94-5.28-3.31-5.28c-2.39,0-3.33,2.5-3.33,5.28S101.04,305.57,103.42,305.57z"/>
		<path d="M48.62,323.84h-0.27c0,0.27-0.69,2.62-3.25,2.7c-0.27,0.02-0.52,0-0.75-0.02c-2.58-0.29-4.39-2.46-4.39-5.14
			c0-2.68,1.85-4.74,4.45-5.01c0.27-0.02,0.52-0.04,0.79-0.02c1.27,0.04,2.31,0.5,2.97,1.21c0.39,0.42,0.5,1.12,0.67,1.6l0.33-0.12
			c-0.17-0.48-0.48-1.08-0.5-1.6l-0.04-0.75h1.54v7.78c0,1.35,0.35,1.66,1.02,1.66c1.64,0,1.58-3.35,1.58-4.53
			c-0.02-4.85-3.47-7.76-7.45-7.76c-4.22,0-7.49,3.14-7.49,7.68c0,4.83,3.7,7.22,7.72,7.22c0.77,0,1.54-0.08,2.31-0.25l0.4,1.62
			c-0.94,0.19-1.85,0.27-2.73,0.27c-5.39,0-9.4-3.37-9.38-8.9c0-5.45,3.89-9.26,9.13-9.26c5.18,0,9.17,3.71,9.19,9.28
			c0,4.06-1.21,6.12-3.29,6.12c-1.54,0-2.54-0.98-2.54-2.52V323.84z M45.04,324.92c2.14,0,3.22-1.73,3.33-3.54
			c0-2.14-1.19-3.43-3.31-3.43c-2.18,0-3.33,1.5-3.33,3.43C41.72,323.32,42.86,324.92,45.04,324.92z"/>
		<path d="M66.14,322.88c0.21,0.77,1.04,3.37,1.04,3.37h-1.83c-0.44-1.69-0.79-2.95-0.87-3.21c-0.64-2.18-2.08-2.23-2.83-2.27
			c-0.15,0.02-0.31,0.02-0.5,0.02c-0.5,0-1.44-0.02-2.16-0.02v5.49h-1.77v-13.48h4.29c2.91,0,5.33,0.62,5.33,3.77
			c0,1.85-1.06,2.62-2.39,3.14c-0.48,0.19-1.17,0.12-1.69,0.12v0.35c0.52,0,1.23-0.15,1.69,0.12
			C65.21,320.66,65.77,321.45,66.14,322.88z M58.99,319.16h2.46c1.87,0,3.58-0.35,3.58-2.58c0-2.18-1.58-2.33-3.58-2.33h-2.46
			V319.16z"/>
		<path d="M69.6,312.77h9.01v1.66h-7.24v4.06h6.76v1.66h-6.76v4.45h7.34v1.66H69.6V312.77z"/>
		<path d="M83.02,326.25v-11.82h-3.87v-1.66h9.55v1.66h-3.87v11.82H83.02z"/>
		<path d="M99.9,322.88c0.21,0.77,1.04,3.37,1.04,3.37h-1.83c-0.44-1.69-0.79-2.95-0.87-3.21c-0.64-2.18-2.08-2.23-2.83-2.27
			c-0.15,0.02-0.31,0.02-0.5,0.02c-0.5,0-1.44-0.02-2.16-0.02v5.49h-1.77v-13.48h4.29c2.91,0,5.33,0.62,5.33,3.77
			c0,1.85-1.06,2.62-2.39,3.14c-0.48,0.19-1.17,0.12-1.69,0.12v0.35c0.52,0,1.23-0.15,1.69,0.12
			C98.98,320.66,99.54,321.45,99.9,322.88z M92.76,319.16h2.46c1.87,0,3.58-0.35,3.58-2.58c0-2.18-1.58-2.33-3.58-2.33h-2.46V319.16
			z"/>
		<path d="M108.08,312.48c3.72,0,6.45,3.08,6.45,7.03c0,3.93-2.73,7.05-6.45,7.05c-3.72,0-6.45-3.04-6.45-7.05
			C101.63,315.5,104.37,312.48,108.08,312.48z M108.08,324.82c2.89,0,4.64-2.6,4.64-5.32c0-2.73-1.75-5.29-4.64-5.29
			c-2.91,0-4.66,2.56-4.66,5.29C103.42,322.22,105.17,324.82,108.08,324.82z"/>
		<path d="M125.16,315.81c-0.46-0.9-1.75-1.73-3.64-1.73c-1.64,0-3.31,0.67-3.31,1.95c0,2.23,8.86,1.98,8.86,6.53
			c0,2.73-2.62,3.99-5.58,3.99c-2.77,0-4.62-1.44-5.37-3.37l1.68-0.42c0.62,1.48,2.2,2.12,3.77,2.12c2.18,0,3.52-0.88,3.52-2.08
			c0-3.18-8.74-2.54-8.74-6.68c0-2.5,2.77-3.62,5.37-3.62c2.73,0,4.53,1.48,5.1,2.91L125.16,315.81z"/>
		<path d="M131.2,320.6v5.64h-1.81v-13.48h4.37c2.87,0,5.24,0.62,5.24,3.85c0,3.23-2.35,4-5.47,4
			C133.01,320.62,132.12,320.62,131.2,320.6z M133.63,319.01c1.87,0,3.58-0.15,3.58-2.43c0-2.16-1.58-2.18-3.58-2.18h-2.43v4.6
			H133.63z"/>
		<path d="M141.04,312.77h9.01v1.66h-7.24v4.06h6.76v1.66h-6.76v4.45h7.34v1.66h-9.11V312.77z"/>
		<path d="M150.68,319.49c0.02-4.01,2.83-7.01,6.66-7.01c3.43,0,5.68,1.89,6.05,4.53h-1.87c-0.39-1.52-1.58-2.81-4.18-2.81
			c-2.83,0-4.85,2.35-4.85,5.3c0,2.96,2.04,5.33,4.89,5.33c2.66,0,3.87-1.29,4.26-2.81h1.87c-0.4,2.77-2.7,4.53-6.1,4.53
			C153.53,326.54,150.7,323.51,150.68,319.49z"/>
		<path d="M168.61,326.25v-11.82h-3.87v-1.66h9.55v1.66h-3.87v11.82H168.61z"/>
	</g>
	<g>
		<path d="M402.53,212.86c0-2.67,1.96-4.67,4.62-4.67c2.73,0,4.02,1.49,4.2,3.21h-1.69c-0.21-0.76-0.69-1.59-2.49-1.59
			c-1.66,0-2.95,1.13-2.95,3.07c0,1.92,1.28,3.07,2.95,3.07c1.89,0,2.39-0.83,2.6-1.59h1.69c-0.24,2-1.6,3.21-4.26,3.21
			C404.52,217.56,402.53,215.54,402.53,212.86z"/>
		<path d="M416.47,208.19c2.48,0,4.43,2.16,4.43,4.69c0,2.53-1.95,4.7-4.43,4.7s-4.43-2.04-4.43-4.7S413.99,208.19,416.47,208.19z
			 M416.47,215.94c1.83,0,2.75-1.58,2.75-3.07c0-1.49-0.91-3.05-2.75-3.05s-2.73,1.56-2.73,3.05
			C413.73,214.36,414.63,215.94,416.47,215.94z"/>
		<path d="M423.88,217.36h-1.68v-8.98h1.68l4.09,5.43c0.33,0.44,0.54,1.14,0.72,1.67l0.28-0.09c-0.18-0.53-0.44-1.21-0.44-1.77
			v-5.24h1.68v8.98h-1.68l-4.09-5.41c-0.35-0.45-0.55-1.14-0.73-1.68l-0.27,0.1c0.18,0.53,0.44,1.21,0.44,1.77V217.36z"/>
		<path d="M433.79,217.36v-7.42h-2.4v-1.57h6.48v1.57h-2.4v7.42H433.79z"/>
		<path d="M439.25,208.38h6.26v1.57h-4.63V212h4.31v1.56h-4.31v2.23h4.7v1.56h-6.33V208.38z"/>
		<path d="M448.36,217.36h-1.68v-8.98h1.68l4.09,5.43c0.33,0.44,0.54,1.14,0.72,1.67l0.28-0.09c-0.18-0.53-0.44-1.21-0.44-1.77
			v-5.24h1.68v8.98h-1.68l-4.09-5.41c-0.35-0.45-0.55-1.14-0.73-1.68l-0.27,0.1c0.18,0.53,0.44,1.21,0.44,1.77V217.36z"/>
		<path d="M456.69,208.38h1.68v8.98h-1.68V208.38z"/>
		<path d="M461.58,217.36h-1.48v-9.18h3.76c2.54,0,4.47,1.82,4.47,4.49s-1.99,4.71-4.53,4.7L461.58,217.36z M463.55,215.78
			c1.8,0,3.14-1.46,3.14-3.08c0-1.63-1.28-2.93-3.08-2.93h-1.83v6.01H463.55z"/>
		<path d="M473.46,208.19c2.48,0,4.43,2.16,4.43,4.69c0,2.53-1.95,4.7-4.43,4.7s-4.43-2.04-4.43-4.7S470.98,208.19,473.46,208.19z
			 M473.46,215.94c1.83,0,2.75-1.58,2.75-3.07c0-1.49-0.91-3.05-2.75-3.05s-2.73,1.56-2.73,3.05
			C470.73,214.36,471.63,215.94,473.46,215.94z"/>
		<path d="M483.88,217.36h-1.48v-9.18h3.76c2.54,0,4.47,1.82,4.47,4.49s-1.99,4.71-4.53,4.7L483.88,217.36z M485.86,215.78
			c1.8,0,3.14-1.46,3.14-3.08c0-1.63-1.28-2.93-3.08-2.93h-1.83v6.01H485.86z"/>
		<path d="M492.22,208.38h1.68v8.98h-1.68V208.38z"/>
		<path d="M502.9,216.64c0-0.51,0.23-1.15,0.36-1.65l-0.27-0.06c-0.14,0.49-0.17,1.22-0.51,1.6c-0.45,0.49-1.28,1.04-2.61,1.04
			c-2.64,0-4.7-2.03-4.7-4.7c0-2.67,2.01-4.69,4.77-4.69c1.99,0,3.59,0.93,4.2,2.54c0,0-1.68,0.39-1.67,0.37
			c-0.4-0.82-1.37-1.32-2.63-1.32c-1.77,0-2.99,1.28-2.99,3.09c0,1.81,1.31,3.11,3.21,3.11c2.04,0,2.64-1.32,2.64-2.03h-2.41v-1.45
			h4.22v4.86h-1.62V216.64z"/>
		<path d="M505.94,208.38h1.68v8.98h-1.68V208.38z"/>
		<path d="M511.18,217.36v-7.42h-2.4v-1.57h6.48v1.57h-2.4v7.42H511.18z"/>
		<path d="M518.79,208.35h1.92l3.46,9h-1.76l-1.21-3.13h-2.86l-1.1,3.13h-1.77L518.79,208.35z M519.96,210.58
			c-0.12-0.27-0.05-0.64-0.05-0.93h-0.29c0,0.28,0.06,0.66-0.05,0.93l-1.05,2.39h2.5L519.96,210.58z"/>
		<path d="M530.87,215.8v1.56h-5.98v-8.98h1.63v7.42H530.87z"/>
	</g>
	<g>
		<path d="M388.07,212.82h1.69v-1.78h1.48v1.78h1.8v1.41h-1.8v1.81h-1.48v-1.81h-1.69V212.82z"/>
	</g>
	<g>
		<path d="M404.18,193.38h1.68v8.98h-1.68V193.38z"/>
		<path d="M409.07,202.36h-1.48v-9.18h3.76c2.54,0,4.47,1.82,4.47,4.49c0,2.67-1.99,4.71-4.53,4.7L409.07,202.36z M411.05,200.78
			c1.8,0,3.14-1.46,3.14-3.08c0-1.63-1.28-2.93-3.08-2.93h-1.83v6.01H411.05z"/>
		<path d="M417.17,193.38h6.26v1.57h-4.63V197h4.31v1.56h-4.31v2.23h4.7v1.56h-6.33V193.38z"/>
		<path d="M426.28,202.36h-1.68v-8.98h1.68l4.09,5.43c0.33,0.44,0.54,1.14,0.72,1.67l0.28-0.09c-0.18-0.53-0.44-1.21-0.44-1.77
			v-5.24h1.68v8.98h-1.68l-4.09-5.41c-0.35-0.45-0.55-1.14-0.73-1.68l-0.27,0.1c0.18,0.53,0.44,1.21,0.44,1.77V202.36z"/>
		<path d="M436.19,202.36v-7.42h-2.4v-1.57h6.48v1.57h-2.4v7.42H436.19z"/>
		<path d="M441.64,193.38h1.68v8.98h-1.68V193.38z"/>
		<path d="M446.53,202.36h-1.47v-9.18h3.76c2.54,0,4.46,1.82,4.46,4.49c0,2.67-1.99,4.71-4.53,4.7L446.53,202.36z M448.51,200.78
			c1.8,0,3.14-1.46,3.14-3.08c0-1.63-1.28-2.93-3.08-2.93h-1.83v6.01H448.51z"/>
		<path d="M456.74,193.35h1.93l3.46,9h-1.76l-1.21-3.13h-2.86l-1.1,3.13h-1.77L456.74,193.35z M457.9,195.58
			c-0.12-0.27-0.05-0.64-0.05-0.92h-0.29c0,0.28,0.06,0.66-0.05,0.92l-1.05,2.39h2.5L457.9,195.58z"/>
		<path d="M464.55,202.36h-1.48v-9.18h3.76c2.54,0,4.47,1.82,4.47,4.49c0,2.67-1.99,4.71-4.53,4.7L464.55,202.36z M466.53,200.78
			c1.8,0,3.14-1.46,3.14-3.08c0-1.63-1.28-2.93-3.08-2.93h-1.83v6.01H466.53z"/>
		<path d="M483.15,201.64c0-0.51,0.23-1.15,0.36-1.65l-0.27-0.06c-0.14,0.49-0.17,1.22-0.51,1.6c-0.45,0.49-1.28,1.04-2.61,1.04
			c-2.64,0-4.7-2.03-4.7-4.7c0-2.67,2.01-4.68,4.77-4.68c1.99,0,3.59,0.92,4.2,2.54c0,0-1.68,0.39-1.67,0.37
			c-0.4-0.82-1.37-1.32-2.63-1.32c-1.77,0-2.99,1.28-2.99,3.09c0,1.81,1.31,3.11,3.21,3.11c2.04,0,2.64-1.32,2.64-2.03h-2.41v-1.45
			h4.22v4.86h-1.62V201.64z"/>
		<path d="M492.62,200.12c0.12,0.51,0.68,2.25,0.68,2.25h-1.73c-0.28-1.13-0.5-1.96-0.54-2.14c-0.41-1.45-1.31-1.3-1.78-1.32
			c-0.09,0-0.19,0-0.31,0c-0.31,0-0.96,0-1.12,0v3.46h-1.63v-8.98h3.21c2.02,0,3.68,0.41,3.68,2.51c0,1.16-0.6,1.67-1.41,2.01
			c-0.42,0.19-1.04,0.12-1.5,0.12v0.3c0.46,0,1.12-0.13,1.5,0.13C492.18,198.76,492.41,199.31,492.62,200.12z M487.82,197.51h1.45
			c1.12,0,2.13-0.45,2.13-1.59c0-1.13-0.94-1.42-2.13-1.42h-1.45V197.51z"/>
		<path d="M496.82,193.35h1.92l3.46,9h-1.76l-1.21-3.13h-2.86l-1.1,3.13h-1.77L496.82,193.35z M497.98,195.58
			c-0.12-0.27-0.05-0.64-0.05-0.92h-0.3c0,0.28,0.06,0.66-0.05,0.92l-1.05,2.39h2.5L497.98,195.58z"/>
		<path d="M504.59,195.01v2.31h3.88v1.62h-3.88v3.43h-1.68v-8.98h6.26v1.63H504.59z"/>
		<path d="M510.75,193.38h1.68v8.98h-1.68V193.38z"/>
		<path d="M513.53,197.86c0-2.67,1.96-4.67,4.62-4.67c2.73,0,4.02,1.49,4.2,3.21h-1.69c-0.21-0.76-0.69-1.59-2.49-1.59
			c-1.65,0-2.95,1.13-2.95,3.07c0,1.92,1.28,3.07,2.95,3.07c1.89,0,2.39-0.83,2.61-1.59h1.69c-0.24,2-1.6,3.21-4.26,3.21
			C515.52,202.56,513.53,200.54,513.53,197.86z"/>
		<path d="M525.99,193.35h1.92l3.46,9h-1.76l-1.21-3.13h-2.86l-1.1,3.13h-1.77L525.99,193.35z M527.16,195.58
			c-0.12-0.27-0.05-0.64-0.05-0.92h-0.3c0,0.28,0.06,0.66-0.05,0.92l-1.05,2.39h2.5L527.16,195.58z"/>
	</g>
	<g>
		<g>
			<path d="M499.04,189.18l1.13,1.13l-2.39,2.08l-0.82-0.82L499.04,189.18z"/>
		</g>
	</g>
	<g>
		<g>
			<path d="M397.36,281.26l1.18,1.18l-2.96,2.78l-1-1L397.36,281.26z"/>
		</g>
	</g>
	<g>
		<g>
			<path d="M508.36,255.26l1.18,1.18l-2.96,2.78l-1-1L508.36,255.26z"/>
		</g>
	</g>
</g>
</svg>
