<?xml version="1.0" encoding="utf-8"?>
<!-- Generator: Adobe Illustrator 25.0.0, SVG Export Plug-In . SVG Version: 6.00 Build 0)  -->
<svg version="1.1" id="Layer_1" xmlns="http://www.w3.org/2000/svg" xmlns:xlink="http://www.w3.org/1999/xlink" x="0px" y="0px"
	 viewBox="0 0 900 200" style="enable-background:new 0 0 900 200;" xml:space="preserve">
<style type="text/css">
	.st0{fill:#F0C0FB;}
	.st1{fill:#B2E2FB;}
	.st2{fill:#F4F4F4;}
	.st3{fill:#F9DEC9;}
	.st4{fill:#285F4A;}
	.st5{fill:#ED664D;}
	.st6{fill:#1147CD;}
	.st7{fill:none;}
	.st8{fill:#F4F4F4;stroke:#000000;stroke-width:1.1667;stroke-miterlimit:10;}
	.st9{fill:#FFFFFF;stroke:#000000;stroke-width:0.4375;stroke-miterlimit:10;}
	.st10{fill:#FFFFFF;stroke:#000000;stroke-width:0.7999;stroke-miterlimit:10;}
	.st11{fill:none;stroke:#000000;stroke-width:1.1667;stroke-linecap:round;stroke-linejoin:round;stroke-miterlimit:10;}
	.st12{fill:#F4F4F4;stroke:#000000;stroke-width:1.2133;stroke-miterlimit:10;}
	.st13{fill:#A67C52;}
	.st14{fill:#B3B3B3;}
	.st15{fill:#FBB03B;}
	.st16{fill:#333333;}
	.st17{fill:#FFFFFF;}
	.st18{fill:none;stroke:#000000;stroke-width:1.1;stroke-miterlimit:10;}
</style>
<g>
	<g>
		<path class="st2" d="M104.29,152.93c-7.52,0-13.64-6.12-13.64-13.64V60.71c0-7.52,6.12-13.64,13.64-13.64h691.43
			c7.52,0,13.64,6.12,13.64,13.64v78.57c0,7.52-6.12,13.64-13.64,13.64H104.29z"/>
		<path d="M795.71,49.15c6.38,0,11.57,5.19,11.57,11.57v78.57c0,6.38-5.19,11.57-11.57,11.57H104.29c-6.38,0-11.57-5.19-11.57-11.57
			V60.71c0-6.38,5.19-11.57,11.57-11.57H795.71 M795.71,45H104.29c-8.68,0-15.71,7.04-15.71,15.71v78.57
			c0,8.68,7.04,15.71,15.71,15.71h691.43c8.68,0,15.71-7.04,15.71-15.71V60.71C811.43,52.04,804.39,45,795.71,45L795.71,45z"/>
	</g>
</g>
</svg>
