<?xml version="1.0" encoding="utf-8"?>
<!-- Generator: Adobe Illustrator 25.0.0, SVG Export Plug-In . SVG Version: 6.00 Build 0)  -->
<svg version="1.1" id="Layer_1" xmlns="http://www.w3.org/2000/svg" xmlns:xlink="http://www.w3.org/1999/xlink" x="0px" y="0px"
	 viewBox="0 0 200 200" style="enable-background:new 0 0 200 200;" xml:space="preserve">
<style type="text/css">
	.st0{fill:#F0C0FB;}
	.st1{fill:#B2E2FB;}
	.st2{fill:#F4F4F4;}
	.st3{fill:#F9DEC9;}
	.st4{fill:#285F4A;}
	.st5{fill:#ED664D;}
	.st6{fill:#1147CD;}
	.st7{fill:none;}
	.st8{fill:#F4F4F4;stroke:#000000;stroke-width:1.1667;stroke-miterlimit:10;}
	.st9{fill:#FFFFFF;stroke:#000000;stroke-width:0.4375;stroke-miterlimit:10;}
	.st10{fill:#FFFFFF;stroke:#000000;stroke-width:0.7999;stroke-miterlimit:10;}
	.st11{fill:none;stroke:#000000;stroke-width:1.1667;stroke-linecap:round;stroke-linejoin:round;stroke-miterlimit:10;}
	.st12{fill:#F4F4F4;stroke:#000000;stroke-width:1.2133;stroke-miterlimit:10;}
	.st13{fill:#A67C52;}
	.st14{fill:#B3B3B3;}
	.st15{fill:#FBB03B;}
	.st16{fill:#333333;}
	.st17{fill:#FFFFFF;}
	.st18{fill:none;stroke:#000000;stroke-width:1.1;stroke-miterlimit:10;}
</style>
<g>
	<path class="st4" d="M24.81,154.26l82.38,17.05l0,0l11.45-5.41l12.48,5.75l5.01-5.74l6.34,3.24l3.28,0.38l-0.24-4.77l8.73,1.03
		l-0.81,3.92l23.95-115.7c0.32-1.54-0.67-3.05-2.2-3.36L51.55,25.06c-1.54-0.32-3.04,0.67-3.36,2.21L22.61,150.9
		C22.29,152.44,23.27,153.94,24.81,154.26z"/>
	<polygon class="st17" points="153.37,170.07 153.45,169.72 153.37,170.07 	"/>
	<polygon class="st2" points="145.52,164.77 145.76,169.54 142.48,169.15 136.14,165.91 131.13,171.65 118.64,165.9 107.19,171.31 
		118.83,167.98 131.29,173.54 137.4,170.16 143.74,175 144.91,172.64 147.37,172.93 146.81,167.17 153.37,170.07 153.45,169.72 
		154.26,165.79 	"/>
</g>
</svg>
