<?xml version="1.0" encoding="utf-8"?>
<!-- Generator: Adobe Illustrator 25.0.0, SVG Export Plug-In . SVG Version: 6.00 Build 0)  -->
<svg version="1.1" id="Layer_1" xmlns="http://www.w3.org/2000/svg" xmlns:xlink="http://www.w3.org/1999/xlink" x="0px" y="0px"
	 viewBox="0 0 158 128" style="enable-background:new 0 0 158 128;" xml:space="preserve">
<g>
	<g>
		<path style="fill:#F4F4F4;" d="M20.66,1.7c5.57,0,8.87,3.43,8.87,9.34c0,5.92-3.29,9.4-8.87,9.4h-6.61V1.7H20.66z M16.96,17.92
			h3.43c3.97,0,6.17-2.43,6.17-6.86c0-4.42-2.21-6.86-6.17-6.86h-3.43V17.92z"/>
		<path style="fill:#F4F4F4;" d="M43.14,16.43c-0.39,2.49-2.75,4.27-5.88,4.27c-4.01,0-6.44-2.71-6.44-7.03
			c0-4.29,2.47-7.14,6.32-7.14c3.79,0,6.15,2.67,6.15,6.82v0.96h-9.65v0.17c0,2.38,1.43,3.95,3.67,3.95c1.6,0,2.78-0.8,3.16-2H43.14
			z M33.67,12.35h6.83c-0.06-2.09-1.39-3.56-3.35-3.56C35.18,8.79,33.81,10.29,33.67,12.35z"/>
		<path style="fill:#F4F4F4;" d="M49.96,6.53c3.18,0,5.25,1.77,5.34,4.29h-2.64c-0.16-1.32-1.13-2.16-2.7-2.16
			c-1.52,0-2.53,0.74-2.53,1.83c0,0.86,0.62,1.44,2.1,1.78l2.22,0.51c2.79,0.65,3.86,1.74,3.86,3.71c0,2.49-2.32,4.21-5.54,4.21
			c-3.42,0-5.47-1.67-5.73-4.27h2.78c0.26,1.43,1.23,2.13,2.95,2.13c1.69,0,2.73-0.7,2.73-1.82c0-0.88-0.51-1.4-2-1.74l-2.22-0.52
			c-2.6-0.6-3.88-1.84-3.88-3.83C44.68,8.21,46.81,6.53,49.96,6.53z"/>
		<path style="fill:#F4F4F4;" d="M60.87,3.55v3.23h2.6V9h-2.6v7.53c0,1.18,0.52,1.71,1.66,1.71c0.29,0,0.74-0.03,0.92-0.07v2.22
			c-0.31,0.08-0.94,0.13-1.56,0.13c-2.77,0-3.84-1.05-3.84-3.69V9h-1.99V6.78h1.99V3.55H60.87z"/>
		<path style="fill:#F4F4F4;" d="M64.48,16.56c0-2.39,1.83-3.86,5.08-4.04l3.74-0.22v-1.05c0-1.52-1.03-2.43-2.74-2.43
			c-1.62,0-2.64,0.78-2.88,2h-2.65c0.16-2.47,2.26-4.29,5.64-4.29c3.31,0,5.43,1.75,5.43,4.49v9.41h-2.7v-2.25h-0.06
			c-0.79,1.52-2.52,2.48-4.31,2.48C66.35,20.67,64.48,19.01,64.48,16.56z M73.3,15.32v-1.08l-3.36,0.21
			c-1.68,0.12-2.62,0.86-2.62,2.03c0,1.2,0.99,1.97,2.49,1.97C71.76,18.45,73.3,17.1,73.3,15.32z"/>
		<path style="fill:#F4F4F4;" d="M87.31,11.48c-0.29-1.45-1.38-2.61-3.21-2.61c-2.17,0-3.6,1.81-3.6,4.74c0,3,1.44,4.74,3.62,4.74
			c1.73,0,2.86-0.95,3.18-2.53H90c-0.3,2.91-2.62,4.88-5.91,4.88c-3.91,0-6.45-2.67-6.45-7.09c0-4.34,2.54-7.08,6.43-7.08
			c3.52,0,5.66,2.26,5.91,4.95C89.98,11.48,87.31,11.48,87.31,11.48z"/>
		<path style="fill:#F4F4F4;" d="M90.92,16.56c0-2.39,1.83-3.86,5.08-4.04l3.74-0.22v-1.05c0-1.52-1.03-2.43-2.74-2.43
			c-1.62,0-2.64,0.78-2.88,2h-2.65c0.16-2.47,2.26-4.29,5.64-4.29c3.31,0,5.43,1.75,5.43,4.49v9.41h-2.69v-2.25h-0.06
			c-0.79,1.52-2.52,2.48-4.31,2.48C92.79,20.67,90.92,19.01,90.92,16.56z M99.74,15.32v-1.08l-3.36,0.21
			c-1.68,0.12-2.62,0.86-2.62,2.03c0,1.2,0.99,1.97,2.49,1.97C98.2,18.45,99.74,17.1,99.74,15.32z"/>
		<path style="fill:#F4F4F4;" d="M104.09,13.61c0-4.31,2.29-7.05,5.71-7.05c1.96,0,3.52,0.99,4.29,2.49h0.05V1.7h2.82v18.74h-2.73
			v-2.32h-0.05c-0.81,1.56-2.36,2.56-4.35,2.56C106.38,20.67,104.09,17.92,104.09,13.61z M106.96,13.61c0,2.88,1.39,4.69,3.61,4.69
			c2.16,0,3.6-1.83,3.6-4.69c0-2.83-1.44-4.69-3.6-4.69C108.35,8.92,106.96,10.74,106.96,13.61z"/>
		<path style="fill:#F4F4F4;" d="M118.68,13.61c0-4.39,2.58-7.08,6.48-7.08c3.9,0,6.48,2.69,6.48,7.08c0,4.4-2.57,7.09-6.48,7.09
			S118.68,18.01,118.68,13.61z M128.79,13.61c0-3.03-1.43-4.77-3.62-4.77s-3.62,1.74-3.62,4.77c0,3.04,1.43,4.78,3.62,4.78
			C127.37,18.39,128.79,16.65,128.79,13.61z"/>
		<path style="fill:#F4F4F4;" d="M138.3,6.53c3.18,0,5.25,1.77,5.34,4.29H141c-0.16-1.32-1.13-2.16-2.7-2.16
			c-1.52,0-2.53,0.74-2.53,1.83c0,0.86,0.62,1.44,2.1,1.78l2.22,0.51c2.79,0.65,3.86,1.74,3.86,3.71c0,2.49-2.33,4.21-5.54,4.21
			c-3.42,0-5.47-1.67-5.73-4.27h2.78c0.26,1.43,1.23,2.13,2.95,2.13c1.69,0,2.73-0.7,2.73-1.82c0-0.88-0.51-1.4-2-1.74l-2.22-0.52
			c-2.6-0.6-3.88-1.84-3.88-3.83C133.03,8.21,135.16,6.53,138.3,6.53z"/>
	</g>
	<g>
		<path style="fill:#F4F4F4;" d="M155.52,31.75l-0.23-0.01c-0.17-0.01-0.34-0.01-0.53-0.01c-4.11,0-6.19,0.97-8.2,1.9
			c-1.81,0.84-3.52,1.64-7.02,1.64s-5.21-0.8-7.02-1.64c-2.01-0.93-4.08-1.9-8.19-1.9s-6.18,0.97-8.2,1.9
			c-1.81,0.84-3.52,1.64-7.01,1.64c-3.5,0-5.21-0.8-7.02-1.64c-2.01-0.94-4.08-1.9-8.19-1.9s-6.18,0.97-8.19,1.9
			c-1.81,0.84-3.52,1.64-7.02,1.64s-5.21-0.8-7.02-1.64c-2.01-0.94-4.08-1.9-8.19-1.9s-6.18,0.97-8.19,1.9
			c-1.81,0.84-3.52,1.64-7.01,1.64s-5.21-0.8-7.02-1.64c-2.01-0.93-4.08-1.9-8.19-1.9s-6.18,0.97-8.2,1.91
			c-1.81,0.84-3.52,1.64-7.01,1.64c-3.5,0-5.21-0.8-7.02-1.64c-2.01-0.93-4.08-1.9-8.19-1.9H2.51c-0.27,0-0.49,0.23-0.49,0.5V34
			c0,0.28,0.37,0.5,0.64,0.5c3.49,0,5.2,0.8,7.02,1.64c2.01,0.93,4.08,1.9,8.19,1.9s6.19-0.97,8.19-1.9
			c1.81-0.84,3.52-1.64,7.02-1.64c3.49,0,5.21,0.8,7.02,1.64c2.01,0.93,4.08,1.9,8.19,1.9s6.19-0.97,8.19-1.9
			C58.29,35.3,60,34.5,63.5,34.5c3.49,0,5.2,0.8,7.02,1.64c2.01,0.93,4.08,1.9,8.19,1.9s6.19-0.97,8.19-1.9
			c1.81-0.84,3.52-1.64,7.02-1.64c3.49,0,5.21,0.8,7.02,1.64c2.01,0.93,4.08,1.9,8.19,1.9s6.19-0.97,8.19-1.9
			c1.81-0.84,3.52-1.64,7.02-1.64c3.49,0,5.21,0.8,7.02,1.64c2.01,0.93,4.08,1.9,8.19,1.9s6.19-0.97,8.2-1.9
			c1.81-0.84,3.52-1.64,7.02-1.64c0.18,0,0.34,0.01,0.51,0.01l0.22,0.01c0.13-0.01,0.27-0.05,0.36-0.14
			c0.1-0.09,0.15-0.22,0.15-0.36v-1.77C156,31.98,155.79,31.76,155.52,31.75z"/>
	</g>
	<g>
		<g>
			<path style="fill:#F4F4F4;" d="M24.15,49.87c3.13,0,4.99,1.96,4.99,5.28c0,3.33-1.85,5.29-4.99,5.29H20.6V49.87H24.15z
				 M21.91,59.25h2.15c2.4,0,3.73-1.46,3.73-4.09c0-2.64-1.33-4.11-3.73-4.11h-2.15V59.25z"/>
			<path style="fill:#F4F4F4;" d="M30.18,50.67c0-0.45,0.36-0.8,0.8-0.8c0.45,0,0.8,0.35,0.8,0.8c0,0.44-0.35,0.8-0.8,0.8
				C30.54,51.47,30.18,51.11,30.18,50.67z M30.34,52.82h1.27v7.62h-1.27V52.82z"/>
			<path style="fill:#F4F4F4;" d="M35.71,52.69c1.67,0,2.78,0.98,2.83,2.33h-1.22c-0.1-0.8-0.68-1.29-1.62-1.29
				c-0.93,0-1.55,0.46-1.55,1.13c0,0.53,0.39,0.89,1.24,1.09l1.21,0.29c1.54,0.37,2.09,0.97,2.09,2.07c0,1.33-1.25,2.26-2.95,2.26
				c-1.79,0-2.9-0.9-3.05-2.33h1.27c0.15,0.87,0.74,1.29,1.77,1.29s1.67-0.44,1.67-1.13c0-0.55-0.3-0.86-1.17-1.08l-1.21-0.29
				c-1.44-0.34-2.13-1.01-2.13-2.11C32.91,53.62,34.06,52.69,35.71,52.69z"/>
			<path style="fill:#F4F4F4;" d="M46.03,58.26c-0.22,1.33-1.51,2.31-3.17,2.31c-2.18,0-3.51-1.52-3.51-3.91
				c0-2.37,1.35-3.97,3.45-3.97c2.06,0,3.33,1.49,3.33,3.8v0.48h-5.46v0.07c0,1.46,0.86,2.42,2.23,2.42c0.97,0,1.68-0.49,1.89-1.21
				L46.03,58.26L46.03,58.26z M40.66,55.98h4.14c-0.03-1.27-0.83-2.18-2.03-2.18C41.58,53.8,40.75,54.71,40.66,55.98z"/>
			<path style="fill:#F4F4F4;" d="M47.1,52.82h1.2v1.22h0.03c0.42-0.82,1.24-1.35,2.42-1.35c1.67,0,2.64,1.08,2.64,2.81v4.94h-1.27
				v-4.72c0-1.23-0.58-1.9-1.75-1.9c-1.2,0-1.98,0.85-1.98,2.14v4.48H47.1V52.82z M49.34,50.64c-0.32,0-0.54,0.26-0.54,0.94h-0.86
				c0-1.14,0.55-1.82,1.46-1.82c1.03,0,1.19,1,1.72,1c0.35,0,0.58-0.28,0.58-0.94h0.86c0,1.14-0.55,1.82-1.46,1.82
				C50.06,51.64,49.84,50.64,49.34,50.64z"/>
			<path style="fill:#F4F4F4;" d="M54.33,56.63c0-2.43,1.42-3.94,3.53-3.94c2.1,0,3.52,1.51,3.52,3.94c0,2.42-1.42,3.94-3.52,3.94
				C55.75,60.57,54.33,59.05,54.33,56.63z M60.09,56.63c0-1.79-0.88-2.82-2.23-2.82s-2.23,1.03-2.23,2.82s0.89,2.82,2.23,2.82
				S60.09,58.43,60.09,56.63z"/>
			<path style="fill:#F4F4F4;" d="M64.77,56.63c0-2.39,1.31-3.94,3.23-3.94c1.09,0,1.97,0.53,2.42,1.37h0.03v-4.19h1.27v10.57H70.5
				v-1.29h-0.02c-0.49,0.88-1.36,1.42-2.46,1.42C66.09,60.57,64.77,59.02,64.77,56.63z M66.07,56.63c0,1.73,0.85,2.82,2.2,2.82
				c1.31,0,2.19-1.11,2.19-2.82c0-1.7-0.88-2.82-2.19-2.82C66.92,53.81,66.07,54.91,66.07,56.63z"/>
			<path style="fill:#F4F4F4;" d="M79.46,58.26c-0.22,1.33-1.51,2.31-3.17,2.31c-2.18,0-3.51-1.52-3.51-3.91
				c0-2.37,1.35-3.97,3.45-3.97c2.06,0,3.33,1.49,3.33,3.8v0.48H74.1v0.07c0,1.46,0.86,2.42,2.23,2.42c0.97,0,1.68-0.49,1.89-1.21
				L79.46,58.26L79.46,58.26z M74.09,55.98h4.14c-0.03-1.27-0.83-2.18-2.03-2.18C75.01,53.8,74.17,54.71,74.09,55.98z"/>
			<path style="fill:#F4F4F4;" d="M89.92,60.44H83.5V49.87h1.32v9.38h5.1V60.44z"/>
			<path style="fill:#F4F4F4;" d="M90.28,56.63c0-2.43,1.42-3.94,3.53-3.94c2.1,0,3.52,1.51,3.52,3.94c0,2.42-1.42,3.94-3.52,3.94
				C91.7,60.57,90.28,59.05,90.28,56.63z M96.04,56.63c0-1.79-0.88-2.82-2.23-2.82s-2.23,1.03-2.23,2.82s0.89,2.82,2.23,2.82
				S96.04,58.43,96.04,56.63z"/>
			<path style="fill:#F4F4F4;" d="M98.24,61.07h1.31c0.25,0.7,1,1.16,1.96,1.16c1.32,0,2.12-0.76,2.12-1.9v-1.2h-0.03
				c-0.47,0.83-1.37,1.37-2.44,1.37c-1.94,0-3.22-1.53-3.22-3.9c0-2.39,1.27-3.91,3.24-3.91c1.08,0,1.97,0.53,2.48,1.41h0.02v-1.28
				h1.22v7.46c0,1.82-1.34,3.03-3.44,3.03C99.78,63.31,98.46,62.37,98.24,61.07z M103.63,56.6c0-1.68-0.89-2.79-2.21-2.79
				c-1.31,0-2.17,1.08-2.17,2.79s0.86,2.78,2.17,2.78C102.74,59.38,103.63,58.28,103.63,56.6z"/>
			<path style="fill:#F4F4F4;" d="M105.88,56.63c0-2.43,1.42-3.94,3.53-3.94c2.1,0,3.52,1.51,3.52,3.94c0,2.42-1.42,3.94-3.52,3.94
				C107.3,60.57,105.88,59.05,105.88,56.63z M111.64,56.63c0-1.79-0.88-2.82-2.23-2.82s-2.23,1.03-2.23,2.82s0.89,2.82,2.23,2.82
				S111.64,58.43,111.64,56.63z"/>
			<path style="fill:#F4F4F4;" d="M115.6,50.98v1.84h1.48v1.05h-1.48v4.53c0,0.7,0.29,1.01,0.94,1.01c0.15,0,0.44-0.02,0.53-0.04
				v1.07c-0.15,0.04-0.5,0.06-0.81,0.06c-1.4,0-1.94-0.57-1.94-2.04v-4.59h-1.13v-1.05h1.13v-1.84
				C114.32,50.98,115.6,50.98,115.6,50.98z"/>
			<path style="fill:#F4F4F4;" d="M118.04,50.67c0-0.45,0.36-0.8,0.8-0.8c0.45,0,0.8,0.35,0.8,0.8c0,0.44-0.35,0.8-0.8,0.8
				C118.4,51.47,118.04,51.11,118.04,50.67z M118.2,52.82h1.27v7.62h-1.27V52.82z"/>
			<path style="fill:#F4F4F4;" d="M127.86,56.63c0,2.39-1.31,3.94-3.23,3.94c-1.09,0-1.97-0.53-2.42-1.37h-0.03v3.78h-1.28V52.82
				h1.21v1.29h0.03c0.47-0.86,1.36-1.42,2.46-1.42C126.54,52.69,127.86,54.24,127.86,56.63z M126.55,56.63
				c0-1.72-0.85-2.82-2.2-2.82c-1.3,0-2.18,1.13-2.18,2.82c0,1.7,0.88,2.82,2.18,2.82C125.7,59.45,126.55,58.36,126.55,56.63z"/>
			<path style="fill:#F4F4F4;" d="M128.46,56.63c0-2.43,1.42-3.94,3.53-3.94c2.1,0,3.52,1.51,3.52,3.94c0,2.42-1.42,3.94-3.52,3.94
				S128.46,59.05,128.46,56.63z M134.22,56.63c0-1.79-0.88-2.82-2.23-2.82s-2.23,1.03-2.23,2.82s0.89,2.82,2.23,2.82
				S134.22,58.43,134.22,56.63z"/>
		</g>
		<g>
			<path style="fill:#F4F4F4;" d="M20.19,75.15c0-3.32,1.87-5.46,4.76-5.46c2.3,0,4.05,1.4,4.39,3.51H28
				c-0.34-1.38-1.55-2.29-3.05-2.29c-2.07,0-3.41,1.67-3.41,4.24c0,2.59,1.33,4.25,3.41,4.25c1.55,0,2.67-0.75,3.05-2.04h1.33
				c-0.48,2.09-2.05,3.25-4.39,3.25C22.03,80.62,20.19,78.5,20.19,75.15z"/>
			<path style="fill:#F4F4F4;" d="M30.45,69.87h1.27v10.57h-1.27V69.87z"/>
			<path style="fill:#F4F4F4;" d="M33.05,70.67c0-0.45,0.36-0.8,0.8-0.8c0.45,0,0.8,0.35,0.8,0.8c0,0.44-0.35,0.8-0.8,0.8
				C33.41,71.47,33.05,71.11,33.05,70.67z M33.22,72.82h1.27v7.62h-1.27V72.82z"/>
			<path style="fill:#F4F4F4;" d="M42.22,78.26c-0.22,1.33-1.51,2.31-3.17,2.31c-2.18,0-3.51-1.52-3.51-3.91
				c0-2.37,1.35-3.97,3.45-3.97c2.06,0,3.33,1.49,3.33,3.8v0.48h-5.46v0.07c0,1.46,0.86,2.42,2.23,2.42c0.97,0,1.68-0.49,1.89-1.21
				h1.24V78.26z M36.86,75.98H41c-0.03-1.27-0.83-2.18-2.03-2.18C37.77,73.8,36.94,74.71,36.86,75.98z"/>
			<path style="fill:#F4F4F4;" d="M43.29,72.82h1.2v1.22h0.03c0.42-0.82,1.24-1.35,2.42-1.35c1.67,0,2.64,1.08,2.64,2.81v4.94H48.3
				v-4.72c0-1.23-0.58-1.9-1.75-1.9c-1.2,0-1.98,0.85-1.98,2.14v4.48H43.3L43.29,72.82L43.29,72.82z"/>
			<path style="fill:#F4F4F4;" d="M52.58,70.98v1.84h1.48v1.05h-1.48v4.53c0,0.7,0.29,1.01,0.94,1.01c0.15,0,0.44-0.02,0.53-0.04
				v1.07c-0.15,0.04-0.51,0.06-0.81,0.06c-1.4,0-1.94-0.57-1.94-2.04v-4.59h-1.14v-1.05h1.14v-1.84
				C51.3,70.98,52.58,70.98,52.58,70.98z"/>
			<path style="fill:#F4F4F4;" d="M61.2,78.26c-0.22,1.33-1.51,2.31-3.17,2.31c-2.18,0-3.51-1.52-3.51-3.91
				c0-2.37,1.35-3.97,3.45-3.97c2.06,0,3.33,1.49,3.33,3.8v0.48h-5.46v0.07c0,1.46,0.86,2.42,2.23,2.42c0.97,0,1.68-0.49,1.89-1.21
				h1.24V78.26z M55.84,75.98h4.14c-0.03-1.27-0.83-2.18-2.03-2.18C56.76,73.8,55.92,74.71,55.84,75.98z"/>
			<path style="fill:#F4F4F4;" d="M62.52,73.77c0-0.47,0.37-0.83,0.83-0.83s0.83,0.37,0.83,0.83s-0.37,0.83-0.83,0.83
				S62.52,74.24,62.52,73.77z M62.52,79.68c0-0.47,0.37-0.83,0.83-0.83s0.83,0.37,0.83,0.83s-0.37,0.83-0.83,0.83
				S62.52,80.15,62.52,79.68z"/>
			<path style="fill:#F4F4F4;" d="M69.36,77.96c0.03,0.89,0.71,1.52,1.67,1.52c1.16,0,1.79-0.7,1.79-1.98v-7.62h1.32v7.62
				c0,2.01-1.16,3.19-3.11,3.19c-1.76,0-2.99-1.13-2.99-2.73C68.04,77.96,69.36,77.96,69.36,77.96z"/>
			<path style="fill:#F4F4F4;" d="M82,78.26c-0.22,1.33-1.51,2.31-3.17,2.31c-2.18,0-3.51-1.52-3.51-3.91
				c0-2.37,1.35-3.97,3.45-3.97c2.06,0,3.33,1.49,3.33,3.8v0.48h-5.46v0.07c0,1.46,0.86,2.42,2.23,2.42c0.97,0,1.68-0.49,1.89-1.21
				H82V78.26z M76.64,75.98h4.14c-0.03-1.27-0.83-2.18-2.03-2.18S76.72,74.71,76.64,75.98z"/>
			<path style="fill:#F4F4F4;" d="M82.77,78.29c0-1.3,1-2.12,2.76-2.23l2.18-0.12V75.3c0-0.93-0.62-1.49-1.67-1.49
				c-0.98,0-1.6,0.46-1.76,1.21h-1.23c0.09-1.32,1.22-2.33,3.02-2.33c1.79,0,2.92,0.97,2.92,2.48v5.27h-1.21v-1.31h-0.03
				c-0.45,0.87-1.42,1.44-2.45,1.44C83.79,80.57,82.77,79.66,82.77,78.29z M87.71,77.55v-0.62l-2.04,0.12
				c-1.03,0.07-1.61,0.52-1.61,1.24c0,0.73,0.61,1.2,1.52,1.2C86.79,79.49,87.71,78.64,87.71,77.55z"/>
			<path style="fill:#F4F4F4;" d="M90.3,72.82h1.2v1.22h0.03c0.42-0.82,1.24-1.35,2.42-1.35c1.67,0,2.64,1.08,2.64,2.81v4.94h-1.27
				v-4.72c0-1.23-0.58-1.9-1.75-1.9c-1.2,0-1.98,0.85-1.98,2.14v4.48H90.3V72.82z"/>
			<path style="fill:#F4F4F4;" d="M104.65,69.87c1.99,0,3.38,1.39,3.38,3.39c0,2.01-1.41,3.41-3.4,3.41h-2.44v3.77h-1.32V69.87
				H104.65z M102.2,75.5h2.11c1.51,0,2.37-0.83,2.37-2.23s-0.86-2.22-2.37-2.22h-2.11V75.5z"/>
			<path style="fill:#F4F4F4;" d="M108.95,70.67c0-0.45,0.36-0.8,0.8-0.8c0.45,0,0.8,0.35,0.8,0.8c0,0.44-0.35,0.8-0.8,0.8
				C109.31,71.47,108.95,71.11,108.95,70.67z M109.11,72.82h1.27v7.62h-1.27V72.82z"/>
			<path style="fill:#F4F4F4;" d="M118.11,78.26c-0.22,1.33-1.51,2.31-3.17,2.31c-2.18,0-3.51-1.52-3.51-3.91
				c0-2.37,1.35-3.97,3.45-3.97c2.06,0,3.33,1.49,3.33,3.8v0.48h-5.46v0.07c0,1.46,0.86,2.42,2.23,2.42c0.97,0,1.68-0.49,1.89-1.21
				h1.24V78.26z M112.75,75.98h4.14c-0.03-1.27-0.83-2.18-2.03-2.18C113.67,73.8,112.83,74.71,112.75,75.98z"/>
			<path style="fill:#F4F4F4;" d="M119.19,72.82h1.2v1.25h0.03c0.25-0.84,0.95-1.38,1.85-1.38c0.22,0,0.41,0.04,0.51,0.05v1.24
				c-0.1-0.04-0.37-0.07-0.68-0.07c-0.99,0-1.63,0.71-1.63,1.79v4.75h-1.27v-7.63H119.19z"/>
			<path style="fill:#F4F4F4;" d="M123.51,72.82h1.2v1.25h0.03c0.25-0.84,0.95-1.38,1.85-1.38c0.22,0,0.41,0.04,0.51,0.05v1.24
				c-0.1-0.04-0.37-0.07-0.68-0.07c-0.99,0-1.63,0.71-1.63,1.79v4.75h-1.28V72.82z"/>
			<path style="fill:#F4F4F4;" d="M133.77,78.26c-0.22,1.33-1.51,2.31-3.17,2.31c-2.18,0-3.51-1.52-3.51-3.91
				c0-2.37,1.35-3.97,3.45-3.97c2.06,0,3.33,1.49,3.33,3.8v0.48h-5.46v0.07c0,1.46,0.86,2.42,2.23,2.42c0.97,0,1.68-0.49,1.89-1.21
				h1.24V78.26z M128.41,75.98h4.14c-0.03-1.27-0.83-2.18-2.03-2.18C129.33,73.8,128.49,74.71,128.41,75.98z"/>
		</g>
		<g>
			<path style="fill:#F4F4F4;" d="M26.4,97.41h-4.2l-1.06,3.03h-1.38l3.9-10.57h1.3l3.9,10.57h-1.38L26.4,97.41z M22.59,96.29h3.43
				l-1.69-4.82h-0.04L22.59,96.29z"/>
			<path style="fill:#F4F4F4;" d="M29.56,92.82h1.2v1.22h0.03c0.42-0.82,1.24-1.35,2.42-1.35c1.67,0,2.64,1.08,2.64,2.81v4.94h-1.27
				v-4.72c0-1.23-0.58-1.9-1.75-1.9c-1.2,0-1.98,0.85-1.98,2.14v4.48h-1.27v-7.62H29.56z M31.79,90.64c-0.32,0-0.54,0.26-0.54,0.94
				H30.4c0-1.14,0.55-1.82,1.46-1.82c1.03,0,1.19,1,1.72,1c0.35,0,0.58-0.28,0.58-0.94h0.86c0,1.14-0.55,1.82-1.46,1.82
				C32.52,91.64,32.3,90.64,31.79,90.64z"/>
			<path style="fill:#F4F4F4;" d="M36.79,96.63c0-2.43,1.42-3.94,3.53-3.94c2.1,0,3.52,1.51,3.52,3.94c0,2.42-1.42,3.94-3.52,3.94
				C38.21,100.57,36.79,99.05,36.79,96.63z M42.55,96.63c0-1.79-0.88-2.82-2.23-2.82s-2.23,1.03-2.23,2.82s0.89,2.82,2.23,2.82
				S42.55,98.43,42.55,96.63z"/>
			<path style="fill:#F4F4F4;" d="M45.07,93.77c0-0.47,0.37-0.83,0.83-0.83s0.83,0.37,0.83,0.83s-0.37,0.83-0.83,0.83
				S45.07,94.24,45.07,93.77z M45.07,99.68c0-0.47,0.37-0.83,0.83-0.83s0.83,0.37,0.83,0.83s-0.37,0.83-0.83,0.83
				S45.07,100.15,45.07,99.68z"/>
			<path style="fill:#F4F4F4;" d="M54.63,89.7c1.96,0,3.3,1.33,3.3,2.94c0,1.17-0.53,2.04-2.48,4.03l-2.51,2.58v0.03h5.16v1.17
				h-6.97v-0.91l3.72-3.88c1.43-1.49,1.76-2.06,1.76-2.94c0-1.04-0.78-1.87-1.98-1.87c-1.3,0-2.29,0.89-2.29,2.08h-1.27
				C51.07,91.07,52.6,89.7,54.63,89.7z"/>
			<path style="fill:#F4F4F4;" d="M59.13,95.15c0-3.31,1.44-5.46,3.9-5.46s3.88,2.13,3.88,5.45c0,3.34-1.42,5.47-3.88,5.47
				C60.56,100.62,59.13,98.49,59.13,95.15z M65.58,95.15c0-2.6-0.92-4.3-2.56-4.3s-2.57,1.71-2.57,4.29c0,2.64,0.92,4.32,2.57,4.32
				C64.67,99.46,65.58,97.79,65.58,95.15z"/>
			<path style="fill:#F4F4F4;" d="M71.47,89.7c1.96,0,3.3,1.33,3.3,2.94c0,1.17-0.53,2.04-2.48,4.03l-2.51,2.58v0.03h5.16v1.17
				h-6.97v-0.91l3.72-3.88c1.43-1.49,1.76-2.06,1.76-2.94c0-1.04-0.78-1.87-1.98-1.87c-1.3,0-2.29,0.89-2.29,2.08h-1.27
				C67.91,91.07,69.44,89.7,71.47,89.7z"/>
			<path style="fill:#F4F4F4;" d="M78.86,91.27h-0.03l-2.8,1.95v-1.33l2.81-2.02h1.29v10.57h-1.27V91.27z"/>
		</g>
		<g>
			<path style="fill:#F4F4F4;" d="M155.67,112.74l-11-11c-0.58-0.58-1.53-0.58-2.11,0s-0.58,1.53,0,2.11l8.32,8.32H3.02
				c-0.62,0-1.12,0.5-1.12,1.12v1c0,0.62,0.5,1.12,1.12,1.12h147.85l-8.32,8.32c-0.58,0.58-0.58,1.53,0,2.11
				c0.29,0.29,0.67,0.44,1.06,0.44s0.76-0.15,1.06-0.44l11.01-11.01c0.28-0.28,0.44-0.66,0.44-1.06
				C156.11,113.4,155.95,113.02,155.67,112.74z"/>
		</g>
	</g>
</g>
</svg>
