<?xml version="1.0" encoding="utf-8"?>
<!-- Generator: Adobe Illustrator 25.0.0, SVG Export Plug-In . SVG Version: 6.00 Build 0)  -->
<svg version="1.1" id="Layer_1" xmlns="http://www.w3.org/2000/svg" xmlns:xlink="http://www.w3.org/1999/xlink" x="0px" y="0px"
	 viewBox="0 0 900 200" style="enable-background:new 0 0 900 200;" xml:space="preserve">
<style type="text/css">
	.st0{fill:#F0C0FB;}
	.st1{fill:#B2E2FB;}
	.st2{fill:#F4F4F4;}
	.st3{fill:#F9DEC9;}
	.st4{fill:#285F4A;}
	.st5{fill:#ED664D;}
	.st6{fill:#1147CD;}
	.st7{fill:none;}
	.st8{fill:#F4F4F4;stroke:#000000;stroke-width:1.1667;stroke-miterlimit:10;}
	.st9{fill:#FFFFFF;stroke:#000000;stroke-width:0.4375;stroke-miterlimit:10;}
	.st10{fill:#FFFFFF;stroke:#000000;stroke-width:0.7999;stroke-miterlimit:10;}
	.st11{fill:none;stroke:#000000;stroke-width:1.1667;stroke-linecap:round;stroke-linejoin:round;stroke-miterlimit:10;}
	.st12{fill:#F4F4F4;stroke:#000000;stroke-width:1.2133;stroke-miterlimit:10;}
	.st13{fill:#A67C52;}
	.st14{fill:#B3B3B3;}
	.st15{fill:#FBB03B;}
	.st16{fill:#333333;}
	.st17{fill:#FFFFFF;}
	.st18{fill:none;stroke:#000000;stroke-width:1.1;stroke-miterlimit:10;}
</style>
<g>
	<path d="M794.93,155H105.07c-8.68,0-15.71-7.04-15.71-15.71V60.71c0-8.68,7.04-15.71,15.71-15.71h689.86
		c8.68,0,15.71,7.04,15.71,15.71v78.57C810.64,147.96,803.61,155,794.93,155z"/>
	<g>
		<path class="st2" d="M169.32,101c0-10.52,5.94-17.14,15.21-17.14c7.53,0,13.21,4.63,14.08,11.55h-5.11
			c-0.92-4.26-4.46-7.04-8.98-7.04c-6.03,0-9.94,4.95-9.94,12.63c0,7.76,3.87,12.66,9.96,12.66c4.63,0,7.92-2.37,8.95-6.37h5.13
			c-1.27,6.86-6.47,10.89-14.11,10.89C175.21,118.17,169.32,111.59,169.32,101z"/>
		<path class="st2" d="M200.67,105.51c0-7.78,4.58-12.54,11.48-12.54s11.48,4.76,11.48,12.54c0,7.8-4.56,12.57-11.48,12.57
			S200.67,113.31,200.67,105.51z M218.58,105.51c0-5.36-2.53-8.45-6.42-8.45c-3.89,0-6.42,3.08-6.42,8.45
			c0,5.39,2.53,8.47,6.42,8.47C216.07,113.98,218.58,110.9,218.58,105.51z"/>
		<path class="st2" d="M232.99,87.67v5.73h4.6v3.94h-4.6v13.35c0,2.09,0.92,3.04,2.95,3.04c0.51,0,1.31-0.05,1.63-0.12v3.94
			c-0.55,0.14-1.66,0.23-2.76,0.23c-4.9,0-6.81-1.86-6.81-6.54v-13.9h-3.52V93.4H228v-5.73H232.99z"/>
		<path class="st2" d="M240.5,86.64c0-1.59,1.29-2.85,2.88-2.85c1.59,0,2.85,1.27,2.85,2.85c0,1.56-1.27,2.85-2.85,2.85
			C241.79,89.49,240.5,88.2,240.5,86.64z M240.89,93.4h4.97v24.21h-4.97V93.4z"/>
		<path class="st2" d="M249.5,114.42l12.91-16.96v-0.09h-12.82V93.4h18.53v3.41l-12.59,16.75v0.09h12.73v3.96H249.5V114.42z"/>
		<path class="st2" d="M270.79,110.73c0-4.23,3.25-6.83,9-7.16l6.63-0.39v-1.86c0-2.69-1.82-4.3-4.86-4.3
			c-2.88,0-4.67,1.38-5.11,3.54h-4.69c0.28-4.37,4-7.59,9.99-7.59c5.87,0,9.62,3.11,9.62,7.96v16.68h-4.76v-3.98h-0.11
			c-1.4,2.69-4.47,4.4-7.64,4.4C274.11,118.03,270.79,115.08,270.79,110.73z M286.42,108.55v-1.91l-5.96,0.37
			c-2.97,0.21-4.65,1.52-4.65,3.59c0,2.12,1.75,3.5,4.42,3.5C283.7,114.09,286.42,111.7,286.42,108.55z"/>
		<path class="st2" d="M310.29,87.67v5.73h4.6v3.94h-4.6v13.35c0,2.09,0.92,3.04,2.95,3.04c0.51,0,1.31-0.05,1.63-0.12v3.94
			c-0.55,0.14-1.66,0.23-2.76,0.23c-4.9,0-6.81-1.86-6.81-6.54v-13.9h-3.52V93.4h3.52v-5.73H310.29z"/>
		<path class="st2" d="M338.79,117.62h-4.76v-4.1h-0.12c-1.33,2.9-3.8,4.53-7.5,4.53c-5.27,0-8.49-3.43-8.49-8.98V93.4h4.97v14.71
			c0,3.68,1.75,5.66,5.18,5.66c3.59,0,5.75-2.49,5.75-6.26V93.4h4.97V117.62z"/>
		<path class="st2" d="M374.17,105.51c0,7.66-4.03,12.52-10.1,12.52c-3.47,0-6.24-1.7-7.62-4.4h-0.12v11.99h-4.97V93.4h4.81v4.17
			h0.09c1.43-2.79,4.21-4.56,7.71-4.56C370.12,93.01,374.17,97.85,374.17,105.51z M369.06,105.51c0-5.06-2.46-8.31-6.4-8.31
			c-3.8,0-6.35,3.31-6.35,8.31c0,5.04,2.53,8.31,6.35,8.31C366.6,113.82,369.06,110.6,369.06,105.51z"/>
		<path class="st2" d="M377.05,93.4h4.74v4.12h0.12c0.81-2.83,2.97-4.51,5.82-4.51c0.71,0,1.34,0.12,1.7,0.18v4.63
			c-0.39-0.16-1.27-0.28-2.23-0.28c-3.2,0-5.18,2.14-5.18,5.57v14.5h-4.97V93.4z"/>
		<path class="st2" d="M389.46,105.51c0-7.78,4.58-12.54,11.48-12.54c6.9,0,11.48,4.76,11.48,12.54c0,7.8-4.56,12.57-11.48,12.57
			S389.46,113.31,389.46,105.51z M407.37,105.51c0-5.36-2.53-8.45-6.42-8.45c-3.89,0-6.42,3.08-6.42,8.45
			c0,5.39,2.53,8.47,6.42,8.47C404.86,113.98,407.37,110.9,407.37,105.51z"/>
		<path class="st2" d="M415.08,126.52v-4.03c0.37,0.09,1.2,0.09,1.61,0.09c2.3,0,3.54-0.97,4.3-3.45c0-0.05,0.44-1.47,0.44-1.5
			l-8.75-24.23h5.39l6.12,19.7h0.09l6.12-19.7h5.25l-9.07,25.48c-2.07,5.87-4.46,7.76-9.48,7.76
			C416.69,126.64,415.45,126.59,415.08,126.52z"/>
		<path class="st2" d="M457.71,110.5c-0.69,4.42-4.88,7.57-10.42,7.57c-7.11,0-11.41-4.81-11.41-12.45
			c0-7.59,4.37-12.66,11.21-12.66c6.72,0,10.91,4.74,10.91,12.08v1.7h-17.1v0.3c0,4.21,2.53,7,6.51,7c2.83,0,4.93-1.43,5.59-3.54
			H457.71z M440.91,103.28h12.1c-0.12-3.71-2.46-6.31-5.94-6.31C443.6,96.97,441.16,99.62,440.91,103.28z"/>
		<path class="st2" d="M476.93,101.74c-0.51-2.58-2.44-4.63-5.68-4.63c-3.84,0-6.37,3.2-6.37,8.4c0,5.32,2.55,8.4,6.42,8.4
			c3.06,0,5.06-1.68,5.64-4.49h4.79c-0.53,5.16-4.65,8.65-10.47,8.65c-6.93,0-11.44-4.74-11.44-12.57c0-7.69,4.51-12.54,11.39-12.54
			c6.24,0,10.03,4,10.47,8.77H476.93z"/>
		<path class="st2" d="M490.75,87.67v5.73h4.6v3.94h-4.6v13.35c0,2.09,0.92,3.04,2.95,3.04c0.51,0,1.31-0.05,1.63-0.12v3.94
			c-0.55,0.14-1.66,0.23-2.76,0.23c-4.9,0-6.81-1.86-6.81-6.54v-13.9h-3.52V93.4h3.52v-5.73H490.75z"/>
		<path class="st2" d="M496.83,105.51c0-7.78,4.58-12.54,11.48-12.54c6.9,0,11.48,4.76,11.48,12.54c0,7.8-4.56,12.57-11.48,12.57
			C501.38,118.08,496.83,113.31,496.83,105.51z M514.73,105.51c0-5.36-2.53-8.45-6.42-8.45c-3.89,0-6.42,3.08-6.42,8.45
			c0,5.39,2.53,8.47,6.42,8.47C512.22,113.98,514.73,110.9,514.73,105.51z"/>
		<path class="st2" d="M521.14,124.45l2.07-12.15h5.02l-3.13,12.15H521.14z"/>
		<path class="st2" d="M559.92,110.5c-0.69,4.42-4.88,7.57-10.42,7.57c-7.11,0-11.41-4.81-11.41-12.45
			c0-7.59,4.37-12.66,11.21-12.66c6.72,0,10.91,4.74,10.91,12.08v1.7h-17.1v0.3c0,4.21,2.53,7,6.51,7c2.83,0,4.93-1.43,5.59-3.54
			H559.92z M543.12,103.28h12.1c-0.11-3.71-2.46-6.31-5.94-6.31C545.81,96.97,543.37,99.62,543.12,103.28z"/>
		<path class="st2" d="M572.01,92.97c5.64,0,9.3,3.13,9.46,7.59h-4.67c-0.28-2.35-2-3.82-4.79-3.82c-2.69,0-4.49,1.31-4.49,3.24
			c0,1.52,1.1,2.55,3.73,3.15l3.94,0.9c4.95,1.15,6.84,3.08,6.84,6.58c0,4.42-4.12,7.46-9.83,7.46c-6.05,0-9.69-2.97-10.15-7.57
			h4.92c0.46,2.53,2.19,3.77,5.22,3.77c2.99,0,4.83-1.24,4.83-3.22c0-1.57-0.9-2.49-3.54-3.08l-3.94-0.92
			c-4.6-1.06-6.88-3.27-6.88-6.79C562.67,95.94,566.44,92.97,572.01,92.97z"/>
		<path class="st2" d="M593.33,119.5h4.99c0.71,2.03,2.92,3.36,5.75,3.36c3.89,0,6.19-2.21,6.19-5.52v-3.98h-0.09
			c-1.36,2.62-4.21,4.35-7.66,4.35c-6.08,0-10.06-4.74-10.06-12.29c0-7.62,3.96-12.4,10.17-12.4c3.43,0,6.24,1.73,7.71,4.53h0.09
			V93.4h4.83v23.77c0,5.78-4.46,9.55-11.37,9.55C598.18,126.73,593.95,123.69,593.33,119.5z M610.29,105.44
			c0-4.97-2.55-8.24-6.44-8.24c-3.82,0-6.31,3.2-6.31,8.24c0,5.06,2.49,8.15,6.31,8.15C607.73,113.59,610.29,110.44,610.29,105.44z"
			/>
		<path class="st2" d="M619.23,93.4h4.74v4.12h0.12c0.81-2.83,2.97-4.51,5.82-4.51c0.71,0,1.34,0.12,1.7,0.18v4.63
			c-0.39-0.16-1.27-0.28-2.23-0.28c-3.2,0-5.18,2.14-5.18,5.57v14.5h-4.97V93.4z"/>
		<path class="st2" d="M632.28,110.73c0-4.23,3.25-6.83,9-7.16l6.63-0.39v-1.86c0-2.69-1.82-4.3-4.86-4.3
			c-2.88,0-4.67,1.38-5.11,3.54h-4.69c0.28-4.37,4-7.59,9.99-7.59c5.87,0,9.62,3.11,9.62,7.96v16.68h-4.76v-3.98h-0.11
			c-1.4,2.69-4.47,4.4-7.64,4.4C635.59,118.03,632.28,115.08,632.28,110.73z M647.9,108.55v-1.91l-5.96,0.37
			c-2.97,0.21-4.65,1.52-4.65,3.59c0,2.12,1.75,3.5,4.42,3.5C645.19,114.09,647.9,111.7,647.9,108.55z"/>
		<path class="st2" d="M663.17,87.67v5.73h4.6v3.94h-4.6v13.35c0,2.09,0.92,3.04,2.95,3.04c0.51,0,1.31-0.05,1.63-0.12v3.94
			c-0.55,0.14-1.66,0.23-2.76,0.23c-4.9,0-6.81-1.86-6.81-6.54v-13.9h-3.52V93.4h3.52v-5.73H663.17z"/>
		<path class="st2" d="M670.68,86.64c0-1.59,1.29-2.85,2.88-2.85c1.59,0,2.85,1.27,2.85,2.85c0,1.56-1.27,2.85-2.85,2.85
			C671.96,89.49,670.68,88.2,670.68,86.64z M671.07,93.4h4.97v24.21h-4.97V93.4z"/>
		<path class="st2" d="M689.09,92.97c5.64,0,9.3,3.13,9.46,7.59h-4.67c-0.28-2.35-2-3.82-4.79-3.82c-2.69,0-4.49,1.31-4.49,3.24
			c0,1.52,1.1,2.55,3.73,3.15l3.94,0.9c4.95,1.15,6.84,3.08,6.84,6.58c0,4.42-4.12,7.46-9.83,7.46c-6.05,0-9.69-2.97-10.15-7.57
			h4.92c0.46,2.53,2.19,3.77,5.22,3.77c2.99,0,4.83-1.24,4.83-3.22c0-1.57-0.9-2.49-3.54-3.08l-3.94-0.92
			c-4.6-1.06-6.88-3.27-6.88-6.79C679.75,95.94,683.52,92.97,689.09,92.97z"/>
	</g>
	<path class="st2" d="M763.05,102.48l-17.29-17.29c-0.92-0.92-2.4-0.92-3.32,0c-0.92,0.92-0.92,2.4,0,3.32l13.36,13.36h-37.54
		c-1.3,0-2.35,1.05-2.35,2.35s1.05,2.35,2.35,2.35h37.37l-13.2,13.2c-0.92,0.92-0.92,2.4,0,3.32c0.46,0.46,1.06,0.69,1.66,0.69
		s1.2-0.23,1.66-0.69l17.3-17.3c0.44-0.44,0.69-1.04,0.69-1.66S763.49,102.92,763.05,102.48z"/>
</g>
</svg>
