<?xml version="1.0" encoding="utf-8"?>
<!-- Generator: Adobe Illustrator 25.0.0, SVG Export Plug-In . SVG Version: 6.00 Build 0)  -->
<svg version="1.1" id="Layer_1" xmlns="http://www.w3.org/2000/svg" xmlns:xlink="http://www.w3.org/1999/xlink" x="0px" y="0px"
	 viewBox="0 0 260 348" style="enable-background:new 0 0 260 348;" xml:space="preserve">
<g>
	<polygon style="fill:#1147CD;" points="149.56,21.15 140.25,35.94 124.63,43.2 107.66,64.82 89.57,69.9 73.39,79.49 58.06,87.31 
		2.17,147.51 105.85,345.36 257.83,181.66 165.11,4.72 157.98,24.22 	"/>
	<path style="fill:#FFFFFF;" d="M165.11,4.72L165.11,4.72L165.11,4.72z"/>
	<polygon style="fill:#F4F4F4;" points="149.3,2.64 141.18,24.86 122.22,33.67 109.25,52.39 98.52,54.65 58.06,87.31 58.06,87.31 
		73.39,79.49 89.57,69.9 107.66,64.82 124.63,43.2 140.25,35.94 149.56,21.15 157.98,24.22 165.11,4.72 165.11,4.72 	"/>
</g>
</svg>
