<?xml version="1.0" encoding="utf-8"?>
<!-- Generator: Adobe Illustrator 25.0.0, SVG Export Plug-In . SVG Version: 6.00 Build 0)  -->
<svg version="1.1" id="Layer_1" xmlns="http://www.w3.org/2000/svg" xmlns:xlink="http://www.w3.org/1999/xlink" x="0px" y="0px"
	 viewBox="0 0 700 500" style="enable-background:new 0 0 700 500;" xml:space="preserve">
<style type="text/css">
	.st0{fill:#F0C0FB;}
	.st1{fill:#B2E2FB;}
	.st2{fill:#F4F4F4;}
	.st3{fill:#F9DEC9;}
	.st4{fill:#285F4A;}
	.st5{fill:#ED664D;}
	.st6{fill:#1147CD;}
	.st7{fill:none;}
	.st8{fill:#F4F4F4;stroke:#000000;stroke-width:1.1667;stroke-miterlimit:10;}
	.st9{fill:#FFFFFF;stroke:#000000;stroke-width:0.4375;stroke-miterlimit:10;}
	.st10{fill:#FFFFFF;stroke:#000000;stroke-width:0.7999;stroke-miterlimit:10;}
	.st11{fill:none;stroke:#000000;stroke-width:1.1667;stroke-linecap:round;stroke-linejoin:round;stroke-miterlimit:10;}
	.st12{fill:#F4F4F4;stroke:#000000;stroke-width:1.2133;stroke-miterlimit:10;}
	.st13{fill:#A67C52;}
	.st14{fill:#B3B3B3;}
	.st15{fill:#FBB03B;}
	.st16{fill:#333333;}
	.st17{fill:#FFFFFF;}
	.st18{font-family:'Trap-Medium';}
	.st19{font-size:19.2509px;}
	.st20{fill:none;stroke:#000000;stroke-width:1.1;stroke-miterlimit:10;}
</style>
<g>
	<rect x="83.97" y="83.97" class="st1" width="565.38" height="365.38"/>
	<g>
		<path d="M648.72,84.62v364.1H84.62V84.62H648.72 M650,83.33H83.33V450H650V83.33L650,83.33z"/>
	</g>
</g>
<g>
	<rect x="67.31" y="67.31" class="st4" width="565.38" height="365.38"/>
	<path d="M632.05,67.95v364.1H67.95V67.95H632.05 M633.33,66.67H66.67v366.67h566.67V66.67L633.33,66.67z"/>
</g>
<g>
	<rect x="50.64" y="50.64" class="st2" width="565.38" height="365.38"/>
	<path d="M615.38,51.28v364.1H51.28V51.28H615.38 M616.67,50H50v366.67h566.67V50L616.67,50z"/>
</g>
<g>
	<path d="M503.96,238.34v3.76h-1.68v-8.98h3.36c1.91,0,3.49,0.41,3.49,2.57c0,2.16-1.57,2.67-3.63,2.67
		C505.17,238.36,504.62,238.36,503.96,238.34z M505.38,236.95c1.1,0,2.12-0.09,2.12-1.26c0-1.13-0.94-1.14-2.12-1.14h-1.41v2.4
		H505.38z"/>
	<path d="M512.24,233.1h1.92l3.46,9h-1.76l-1.21-3.13h-2.86l-1.1,3.13h-1.77L512.24,233.1z M513.41,235.32
		c-0.12-0.27-0.05-0.64-0.05-0.92h-0.29c0,0.28,0.06,0.66-0.05,0.92l-1.05,2.39h2.5L513.41,235.32z"/>
	<path d="M525.63,241.39c0-0.51,0.23-1.16,0.36-1.66l-0.27-0.06c-0.14,0.49-0.17,1.22-0.51,1.6c-0.45,0.49-1.28,1.04-2.61,1.04
		c-2.64,0-4.7-2.03-4.7-4.7s2.01-4.68,4.77-4.68c1.99,0,3.59,0.92,4.2,2.54c0,0-1.68,0.39-1.67,0.37c-0.4-0.82-1.37-1.32-2.63-1.32
		c-1.77,0-2.99,1.28-2.99,3.09s1.31,3.11,3.21,3.11c2.04,0,2.64-1.32,2.64-2.03h-2.41v-1.45h4.22v4.86h-1.62V241.39z"/>
	<path d="M528.67,233.12h1.68v8.98h-1.68V233.12z"/>
	<path d="M533.76,242.1h-1.68v-8.98h1.68l4.09,5.43c0.33,0.44,0.54,1.14,0.72,1.67l0.28-0.09c-0.18-0.53-0.44-1.21-0.44-1.77v-5.24
		h1.68v8.98h-1.68l-4.09-5.42c-0.35-0.45-0.55-1.14-0.73-1.68l-0.27,0.1c0.18,0.53,0.44,1.21,0.44,1.77V242.1z"/>
	<path d="M543.95,233.1h1.92l3.46,9h-1.76l-1.21-3.13h-2.86l-1.1,3.13h-1.77L543.95,233.1z M545.12,235.32
		c-0.12-0.27-0.05-0.64-0.05-0.92h-0.29c0,0.28,0.06,0.66-0.05,0.92l-1.05,2.39h2.5L545.12,235.32z"/>
	<path d="M556.76,242.1h-1.94l-2.23-8.98h1.63l1.36,5.79c0.12,0.45,0.04,1.08,0.03,1.54l0.28,0.01c0.01-0.47-0.04-1.09,0.08-1.55
		l1.63-5.79h1.92l1.66,5.79c0.12,0.46,0.06,1.08,0.08,1.55l0.29-0.01c-0.01-0.46-0.09-1.09,0.01-1.54l1.36-5.79h1.63l-2.22,8.98
		h-1.95l-1.62-6.56c-0.12-0.49-0.05-1.14-0.05-1.64h-0.29c0,0.5,0.06,1.16-0.05,1.64L556.76,242.1z"/>
	<path d="M565.63,233.12h6.26v1.57h-4.63v2.05h4.31v1.57h-4.31v2.23h4.7v1.57h-6.33V233.12z"/>
	<path d="M580.34,239.6c0,2.16-1.33,2.53-3.61,2.53c-0.35,0-1.26-0.01-2.04-0.01v-0.01h-1.63v-8.98h3.52c1.86,0,3.3,0.29,3.3,2.21
		c0,0.94-0.47,1.44-1.48,1.8c-0.33,0.13-0.81,0.04-1.16,0.04v0.28c0.35,0,0.82-0.08,1.16,0.04
		C579.36,237.81,580.34,238.31,580.34,239.6z M576.15,236.5c1.16,0,2.03-0.1,2.03-1.09c0-0.96-0.8-0.98-2.03-0.98h-1.46v2.07H576.15
		z M576.19,240.83c1.53,0,2.46,0.05,2.46-1.28c0-1.37-1.19-1.37-2.82-1.37c-0.19,0-0.58,0-1.01-0.01h-0.13v2.67H576.19z"/>
</g>
<g>
	<path d="M487.34,237.56h1.69v-1.78h1.48v1.78h1.8v1.41h-1.8v1.81h-1.48v-1.81h-1.69V237.56z"/>
</g>
<g>
	<path d="M476.28,275.76v1.28h-10.93v-17.97h1.46v16.68H476.28z"/>
	<path d="M485.11,258.69c4.95,0,8.34,3.93,8.34,9.37c0,5.44-3.39,9.39-8.34,9.39s-8.34-4.03-8.34-9.39
		C476.77,262.7,480.16,258.69,485.11,258.69z M485.11,276.09c4.06,0,6.88-3.75,6.88-8.03s-2.82-7.98-6.88-7.98
		c-4.08,0-6.9,3.7-6.9,7.98S481.03,276.09,485.11,276.09z"/>
	<path d="M496.17,268.03c0-5.34,3.59-9.34,8.5-9.34c3.67,0,7.11,2.05,7.73,5.65h-1.59c-0.62-2.54-2.82-4.34-6.16-4.34
		c-4.24,0-7.03,4.06-7.03,8.03c0,4,2.85,8.08,7.13,8.08c3.31,0,5.54-1.8,6.16-4.34h1.59c-0.59,3.39-4,5.65-7.78,5.65
		C499.79,277.43,496.17,273.4,496.17,268.03z"/>
	<path d="M529.03,270.81c0.03,4.29-3,6.62-6.9,6.62s-6.9-2.33-6.93-6.62c0-5.34,0.03-11.73,0.03-11.73h1.44v12.04
		c0.03,2.62,2.34,4.95,5.47,4.95c3.16,0,5.49-2.33,5.47-4.95c0-4.08,0-12.04,0-12.04h1.44V270.81z"/>
	<path d="M537.27,277.04v-16.68h-5.49v-1.28h12.45v1.28h-5.49v16.68H537.27z"/>
	<path d="M554.93,258.69c4.95,0,8.34,3.93,8.34,9.37c0,5.44-3.39,9.39-8.34,9.39s-8.34-4.03-8.34-9.39
		C546.58,262.7,549.97,258.69,554.93,258.69z M554.93,276.09c4.06,0,6.88-3.75,6.88-8.03s-2.82-7.98-6.88-7.98
		c-4.08,0-6.9,3.7-6.9,7.98S550.84,276.09,554.93,276.09z"/>
	<path d="M577.95,272.55c0.28,1.03,1.36,4.49,1.36,4.49h-1.41c-0.62-2.26-1.1-3.93-1.21-4.29c-0.9-2.9-2.93-3.34-4-3.39
		c-0.23,0-0.44,0-0.72,0c-0.67,0-1.92-0.03-3.49-0.03v7.7h-1.46v-17.97h5.03c3.75,0,6.83,0.82,6.83,5.03c0,2.64-1.57,3.62-3.52,4.31
		c-0.46,0.15-1.08,0.1-1.54,0.1v0.31c0.46,0,1.1-0.1,1.54,0.08C576.33,269.34,577.33,270.37,577.95,272.55z M568.48,267.85h3.64
		c2.77,0,5.31,0,5.31-3.7c0-3.54-2.36-3.36-5.31-3.36h-3.64V267.85z"/>
	<path d="M424.23,295.19v7.52h-1.44v-17.97h4.93c3.82,0,6.98,0.82,6.98,5.13c0,4.31-3.16,5.34-7.32,5.34
		C426.69,295.22,425.43,295.22,424.23,295.19z M427.9,293.75c2.77,0,5.31-0.28,5.31-3.95c0-3.54-2.33-3.57-5.31-3.57h-3.67v7.52
		H427.9z"/>
	<path d="M451.3,296.47c0.03,4.29-3,6.62-6.9,6.62s-6.9-2.33-6.93-6.62c0-5.34,0.03-11.73,0.03-11.73h1.44v12.04
		c0.03,2.62,2.34,4.95,5.47,4.95c3.16,0,5.49-2.33,5.47-4.95c0-4.08,0-12.04,0-12.04h1.44V296.47z"/>
	<path d="M468.58,297.71c0,4.31-2.93,5.06-7.47,5.06c-0.69,0-2.52-0.03-3.95-0.03v-0.03h-1.46v-17.97h5.59
		c3.44,0,6.37,0.8,6.37,4.65c0,1.87-0.1,2.98-1.41,3.52c-0.44,0.15-1.05,0.03-1.51,0.03v0.31c0.46,0.03,1.08-0.05,1.49,0.13
		C467.63,293.98,468.58,295.27,468.58,297.71z M461.47,292.52c2.41,0,4.72-0.18,4.72-3.26c0-2.93-2.16-2.93-4.72-2.93h-4.31v6.18
		H461.47z M461.96,301.2c2.34,0,5.18,0.03,5.18-3.57c0-4.05-3.36-3.8-5.9-3.8c-0.62,0-2.28,0-3.67-0.03h-0.41v7.39H461.96z"/>
	<path d="M483.13,301.43v1.28H472.2v-17.97h1.46v16.68H483.13z"/>
	<path d="M486.8,284.74h1.44v17.97h-1.44V284.74z"/>
	<path d="M489.91,293.7c0-5.34,3.59-9.34,8.5-9.34c3.67,0,7.11,2.05,7.73,5.65h-1.59c-0.62-2.54-2.82-4.34-6.16-4.34
		c-4.24,0-7.03,4.06-7.03,8.03c0,4,2.85,8.08,7.13,8.08c3.31,0,5.54-1.8,6.16-4.34h1.59c-0.59,3.39-4,5.65-7.78,5.65
		C493.53,303.09,489.91,299.07,489.91,293.7z"/>
	<path d="M509.6,284.74h1.44v17.97h-1.44V284.74z"/>
	<path d="M517.81,302.71v-16.68h-5.49v-1.28h12.45v1.28h-5.49v16.68H517.81z"/>
	<path d="M531.67,284.69h2.26l7.06,17.99h-1.72l-2.67-6.52h-7.55l-2.44,6.52h-1.8L531.67,284.69z M533.03,287.11
		c-0.15-0.41-0.1-0.95-0.1-1.39h-0.31c0,0.44,0.05,0.98-0.1,1.39l-3,7.57h6.54L533.03,287.11z"/>
	<path d="M554.57,298.22c0.28,1.03,1.36,4.49,1.36,4.49h-1.41c-0.62-2.26-1.1-3.93-1.21-4.29c-0.9-2.9-2.93-3.34-4-3.39
		c-0.23,0-0.44,0-0.72,0c-0.67,0-1.92-0.03-3.49-0.03v7.7h-1.46v-17.97h5.03c3.75,0,6.83,0.82,6.83,5.03c0,2.64-1.57,3.62-3.52,4.31
		c-0.46,0.15-1.08,0.1-1.54,0.1v0.31c0.46,0,1.1-0.1,1.54,0.08C552.95,295.01,553.95,296.04,554.57,298.22z M545.1,293.52h3.64
		c2.77,0,5.31,0,5.31-3.7c0-3.54-2.36-3.36-5.31-3.36h-3.64V293.52z"/>
	<path d="M559.47,284.74h1.44v17.97h-1.44V284.74z"/>
	<path d="M570.92,284.36c4.95,0,8.34,3.93,8.34,9.37c0,5.44-3.39,9.39-8.34,9.39s-8.34-4.03-8.34-9.39
		C562.58,288.36,565.96,284.36,570.92,284.36z M570.92,301.76c4.06,0,6.88-3.75,6.88-8.03s-2.82-7.98-6.88-7.98
		c-4.08,0-6.9,3.7-6.9,7.98S566.83,301.76,570.92,301.76z"/>
	<path d="M424.15,319.37c0-5.34,3.59-9.34,8.5-9.34c3.67,0,7.11,2.05,7.73,5.65h-1.59c-0.62-2.54-2.82-4.34-6.16-4.34
		c-4.24,0-7.03,4.06-7.03,8.03c0,4,2.85,8.08,7.13,8.08c3.31,0,5.54-1.8,6.16-4.34h1.59c-0.59,3.39-4,5.65-7.78,5.65
		C427.77,328.76,424.15,324.73,424.15,319.37z"/>
	<path d="M451.15,310.03c4.95,0,8.34,3.93,8.34,9.37c0,5.44-3.39,9.39-8.34,9.39s-8.34-4.03-8.34-9.39
		C442.81,314.03,446.2,310.03,451.15,310.03z M451.15,327.43c4.06,0,6.88-3.75,6.88-8.03s-2.82-7.98-6.88-7.98
		c-4.08,0-6.9,3.7-6.9,7.98S447.07,327.43,451.15,327.43z"/>
	<path d="M464.68,328.38h-1.44v-17.97h1.44l9.78,13.88c0.64,0.92,1.16,2.28,1.49,3.36l0.31-0.1c-0.33-1.05-0.72-2.46-0.72-3.59
		v-13.55h1.44v17.97h-1.44l-9.78-13.86c-0.64-0.92-1.16-2.28-1.49-3.36l-0.31,0.1c0.33,1.05,0.72,2.46,0.72,3.59V328.38z"/>
	<path d="M489.88,328.38h-1.46v-17.97h1.57l7.54,15.58c0.23,0.49,0.26,1.18,0.26,1.72h0.31c0-0.54,0-1.23,0.26-1.72l7.55-15.58h1.51
		v17.97h-1.44v-13.37c0-0.54,0.26-1.21,0.38-1.75l-0.31-0.08c-0.13,0.51-0.26,1.23-0.51,1.72l-6.9,13.47h-1.41l-6.9-13.47
		c-0.26-0.49-0.38-1.18-0.51-1.72l-0.31,0.08c0.13,0.54,0.39,1.21,0.39,1.75V328.38z"/>
	<path d="M515.5,310.36h2.26l7.06,17.99h-1.72l-2.67-6.52h-7.55l-2.44,6.52h-1.8L515.5,310.36z M516.86,312.77
		c-0.15-0.41-0.1-0.95-0.1-1.39h-0.31c0,0.44,0.05,0.98-0.1,1.39l-3,7.57h6.54L516.86,312.77z"/>
	<path d="M537.47,314.03c-0.03-1.1-1.67-2.52-4.21-2.52c-2.67,0-5.52,1.05-5.52,3.23c0,3.39,11.75,3.05,11.75,8.83
		c0,3.88-3.46,5.18-6.52,5.18c-3.98,0-6.67-2.57-6.78-5.13l1.9,0.54c0.46,2.33,3.11,3.23,4.65,3.23c3.39,0,5.54-1.44,5.54-3.34
		c0-5.06-11.91-3.82-11.91-9.27c0-3.7,3.93-4.77,6.65-4.77c4.18,0,6.62,2.72,6.31,4.57L537.47,314.03z"/>
	<path d="M550.69,328.38h-1.03v-18.35H555c4.8,0,8.42,3.64,8.42,8.98c0,5.34-3.75,9.42-8.55,9.39L550.69,328.38z M555.03,327.02
		c3.95,0,6.93-3.82,6.93-8.03c0-4.18-2.85-7.57-6.8-7.57h-4.06v15.6H555.03z"/>
	<path d="M567.5,310.41H579v1.28h-10.04v6.72h9.39v1.28h-9.39v7.39h10.16v1.28H567.5V310.41z"/>
	<path d="M439.5,353.17l0.15,0.31c0.67-0.31,1.57-0.67,2.31-0.67h7.29v1.23h-10.88v-1.31c3.13-3.16,3.98-4.39,7.34-7.83
		c4.03-4.13,1.95-7.7-1.39-7.7c-3.23,0-4,1.46-4,3.62h-1.69c0-2.62,1.28-5.13,5.39-5.13c4.44,0,7.11,5.36,3.52,9.39
		c-2.36,2.64-4.77,5.39-5.98,6.78C441.04,352.43,440.19,352.87,439.5,353.17z"/>
	<path d="M459.37,342.98c3.29,0,5.47,2.16,5.47,5.59c0,3.41-2.46,5.85-6.16,5.85c-2.62,0-5.54-2.44-6.18-4.83h1.8
		c0.51,1.75,3,3.46,4.47,3.46c2.72,0,4.62-2.26,4.62-4.54c0-2-1.13-4.16-3.82-4.16c-2.41,0-3.29,0.85-4.44,1.49h-2.36l1.87-9.78
		h9.24v1.33h-7.75l-0.97,6.06c-0.1,0.62-0.51,1.28-0.82,1.82l0.26,0.15c0.33-0.51,0.72-1.23,1.26-1.54
		C456.75,343.37,457.95,342.98,459.37,342.98z"/>
	<path d="M479.49,336.03h2.26l7.06,17.99h-1.72l-2.67-6.52h-7.55l-2.44,6.52h-1.8L479.49,336.03z M480.85,338.44
		c-0.15-0.41-0.1-0.95-0.1-1.39h-0.31c0,0.44,0.05,0.98-0.1,1.39l-3,7.57h6.54L480.85,338.44z"/>
	<path d="M493.04,354.05h-1.44v-17.97h1.44l9.78,13.88c0.64,0.92,1.16,2.28,1.49,3.36l0.31-0.1c-0.33-1.05-0.72-2.46-0.72-3.59
		v-13.55h1.44v17.97h-1.44l-9.78-13.86c-0.64-0.92-1.16-2.28-1.49-3.36l-0.31,0.1c0.33,1.05,0.72,2.46,0.72,3.59V354.05z"/>
	<path d="M515.37,335.7c4.95,0,8.34,3.93,8.34,9.37c0,5.44-3.39,9.39-8.34,9.39s-8.34-4.03-8.34-9.39
		C507.03,339.7,510.42,335.7,515.37,335.7z M515.37,353.1c4.06,0,6.88-3.75,6.88-8.03s-2.82-7.98-6.88-7.98
		c-4.08,0-6.9,3.7-6.9,7.98S511.29,353.1,515.37,353.1z"/>
	<path d="M537.47,339.7c-0.03-1.1-1.67-2.52-4.21-2.52c-2.67,0-5.52,1.05-5.52,3.23c0,3.39,11.75,3.05,11.75,8.83
		c0,3.88-3.46,5.18-6.52,5.18c-3.98,0-6.67-2.57-6.78-5.13l1.9,0.54c0.46,2.33,3.11,3.23,4.65,3.23c3.39,0,5.54-1.44,5.54-3.34
		c0-5.06-11.91-3.82-11.91-9.27c0-3.7,3.93-4.77,6.65-4.77c4.18,0,6.62,2.72,6.31,4.57L537.47,339.7z"/>
	<path d="M550.69,354.05h-1.03V335.7H555c4.8,0,8.42,3.64,8.42,8.98c0,5.34-3.75,9.42-8.55,9.39L550.69,354.05z M555.03,352.69
		c3.95,0,6.93-3.82,6.93-8.03c0-4.18-2.85-7.57-6.8-7.57h-4.06v15.6H555.03z"/>
	<path d="M567.5,336.08H579v1.28h-10.04v6.72h9.39v1.28h-9.39v7.39h10.16v1.28H567.5V336.08z"/>
	<path d="M429.49,361.75h11.5v1.28h-10.04v6.72h9.39v1.28h-9.39v7.39h10.16v1.28h-11.63V361.75z"/>
	<path d="M442.01,379.71h-1.31l6.03-9.39l-5.65-8.57h1.62l4.47,6.75c0.28,0.41,0.31,1.03,0.31,1.54l0.31,0.03
		c0.03-0.51,0.08-1.13,0.38-1.54l4.9-6.78h1.31l-5.75,8.91l6.13,9.06h-1.64l-4.98-7.31c-0.31-0.41-0.33-1.03-0.33-1.54h-0.31
		c0,0.51-0.05,1.13-0.36,1.54L442.01,379.71z"/>
	<path d="M459.08,372.19v7.52h-1.44v-17.97h4.93c3.82,0,6.98,0.82,6.98,5.13c0,4.31-3.16,5.34-7.32,5.34
		C461.55,372.22,460.29,372.22,459.08,372.19z M462.75,370.76c2.77,0,5.31-0.28,5.31-3.95c0-3.54-2.33-3.57-5.31-3.57h-3.67v7.52
		H462.75z"/>
	<path d="M473,361.75h11.5v1.28h-10.04v6.72h9.39v1.28h-9.39v7.39h10.16v1.28H473V361.75z"/>
	<path d="M499.43,375.22c0.28,1.03,1.36,4.49,1.36,4.49h-1.41c-0.62-2.26-1.1-3.93-1.21-4.29c-0.9-2.9-2.93-3.34-4-3.39
		c-0.23,0-0.44,0-0.72,0c-0.67,0-1.92-0.03-3.49-0.03v7.7h-1.46v-17.97h5.03c3.75,0,6.83,0.82,6.83,5.03c0,2.64-1.57,3.62-3.52,4.31
		c-0.46,0.15-1.08,0.1-1.54,0.1v0.31c0.46,0,1.1-0.1,1.54,0.08C497.81,372.01,498.82,373.04,499.43,375.22z M489.96,370.53h3.64
		c2.77,0,5.31,0,5.31-3.7c0-3.54-2.36-3.36-5.31-3.36h-3.64V370.53z"/>
	<path d="M504.34,361.75h1.44v17.97h-1.44V361.75z"/>
	<path d="M510.78,361.75h11.5v1.28h-10.04v6.72h9.39v1.28h-9.39v7.39h10.16v1.28h-11.63V361.75z"/>
	<path d="M527.72,379.71h-1.44v-17.97h1.44l9.78,13.88c0.64,0.92,1.16,2.28,1.49,3.36l0.31-0.1c-0.33-1.05-0.72-2.46-0.72-3.59
		v-13.55h1.44v17.97h-1.44l-9.78-13.86c-0.64-0.92-1.16-2.28-1.49-3.36l-0.31,0.1c0.33,1.05,0.72,2.46,0.72,3.59V379.71z"/>
	<path d="M541.71,370.71c0-5.34,3.59-9.34,8.5-9.34c3.67,0,7.11,2.05,7.73,5.65h-1.59c-0.62-2.54-2.82-4.34-6.16-4.34
		c-4.24,0-7.03,4.06-7.03,8.03c0,4,2.85,8.08,7.13,8.08c3.31,0,5.54-1.8,6.16-4.34h1.59c-0.59,3.39-4,5.65-7.78,5.65
		C545.33,380.1,541.71,376.07,541.71,370.71z"/>
	<path d="M561.39,361.75h1.44v17.97h-1.44V361.75z"/>
	<path d="M570.89,361.7h2.26l7.06,17.99h-1.72l-2.67-6.52h-7.55l-2.44,6.52h-1.8L570.89,361.7z M572.25,364.11
		c-0.15-0.41-0.1-0.95-0.1-1.39h-0.31c0,0.44,0.05,0.98-0.1,1.39l-3,7.57h6.54L572.25,364.11z"/>
</g>
<g>
	<path d="M517.64,306.01l1.18,1.18l-2.96,2.78l-1-1L517.64,306.01z"/>
</g>
<g>
	<g>
		<path d="M85.76,115.69c0.07-14.56,10.92-25.48,25.69-25.48c16.17,0,22.61,8.75,23.38,17.99H124.4c-1.05-3.36-2.8-7.84-12.74-7.84
			c-8.47,0-15.4,4.9-15.4,15.4c0,10.43,6.86,15.4,15.26,15.4c10.57,0,12.53-4.48,13.58-7.91h10.43
			c-1.26,11.34-8.19,18.06-23.73,18.06C96.82,141.31,85.83,130.32,85.76,115.69z"/>
		<path d="M142.6,91.25h34.86v9.8h-24.71v9.38h22.96v9.8h-22.96v10.22h25.06v9.8H142.6V91.25z"/>
		<path d="M216.73,104.13c-4.06-3.71-9.1-5.39-15.82-5.39c-3.99,0-7.56,1.61-7.56,4.27c0,6.51,32.41,5.6,32.41,23.31
			c0,8.96-9.73,14.98-24.15,14.98c-8.96,0-14.56-2.59-21-9.73l7.42-5.95c3.64,3.85,7.14,5.95,15.19,5.95c5.88,0,9.31-2.1,9.31-5.11
			c0-8.26-30.66-7.56-30.66-22.89c0-7.7,9.17-13.37,21.7-13.37c7.63,0,14.07,2.45,20.51,7.84L216.73,104.13z"/>
		<path d="M244.45,91.11H256l18.9,49.08h-10.85l-6.37-16.94h-14.49l-5.81,16.94h-10.85L244.45,91.11z M251.45,104.55
			c-0.7-1.47-0.28-3.64-0.28-5.32h-1.75c0,1.68,0.42,3.85-0.28,5.32l-5.11,11.13h12.6L251.45,104.55z"/>
		<path d="M315.85,128.01c0.63,2.8,3.71,12.25,3.71,12.25h-10.78c-1.54-6.16-2.66-10.71-2.94-11.69c-2.17-7.91-6.86-6.58-9.38-6.72
			h-6.86v18.41h-10.15v-49h18.48c11.2,0,20.44,2.24,20.44,13.72c0,6.09-3.01,8.89-7.21,10.78c-2.59,1.19-6.3,0.77-9.17,0.77v1.75
			c2.87,0,6.79-0.77,9.17,0.84C314.03,120.94,314.94,124.02,315.85,128.01z M289.6,113.45h7.42c5.67,0,10.85-3.08,10.85-8.33
			c0-5.32-4.76-7.42-10.85-7.42h-7.42V113.45z"/>
		<path d="M98.36,210.26h-10.5v-49h16.45l11.41,31.5c0.98,2.66,0.77,6.37,0.77,9.17h1.75c0-2.8-0.21-6.51,0.7-9.17l11.34-31.5h16.45
			v49h-10.5v-34.16c0-2.87,1.19-6.51,1.61-9.31l-1.75-0.28c-0.42,2.8-0.42,6.65-1.33,9.31l-11.13,34.44h-12.6l-11.2-34.44
			c-0.91-2.66-0.91-6.51-1.4-9.31l-1.68,0.28c0.42,2.8,1.61,6.44,1.61,9.31V210.26z"/>
		<path d="M177.6,160.2c13.51,0,24.5,12.04,24.5,25.55c0,13.51-10.99,25.62-24.5,25.62s-24.5-11.13-24.5-25.62
			C153.1,171.26,164.09,160.2,177.6,160.2z M177.6,201.23c9.73,0,14-8.26,14-15.47c0-7.21-4.27-15.4-14-15.4s-14,8.19-14,15.4
			C163.6,192.97,167.87,201.23,177.6,201.23z"/>
		<path d="M244.8,198.01c0.63,2.8,3.71,12.25,3.71,12.25h-10.78c-1.54-6.16-2.66-10.71-2.94-11.69c-2.17-7.91-6.86-6.58-9.38-6.72
			h-6.86v18.41H208.4v-49h18.48c11.2,0,20.44,2.24,20.44,13.72c0,6.09-3.01,8.89-7.21,10.78c-2.59,1.19-6.3,0.77-9.17,0.77v1.75
			c2.87,0,6.79-0.77,9.17,0.84C242.98,190.94,243.89,194.02,244.8,198.01z M218.55,183.45h7.42c5.67,0,10.85-3.08,10.85-8.33
			c0-5.32-4.76-7.42-10.85-7.42h-7.42V183.45z"/>
		<path d="M267.9,161.11h11.55l18.9,49.08H287.5l-6.37-16.94h-14.49l-5.81,16.94h-10.85L267.9,161.11z M274.9,174.55
			c-0.7-1.47-0.28-3.64-0.28-5.32h-1.75c0,1.68,0.42,3.85-0.28,5.32l-5.11,11.13h12.6L274.9,174.55z"/>
		<path d="M334.54,200.46v9.8h-33.39v-49h10.15v39.2H334.54z"/>
		<path d="M340.14,161.25H375v9.8h-24.71v9.38h22.96v9.8h-22.96v10.22h25.06v9.8h-35.21V161.25z"/>
		<path d="M414.27,174.13c-4.06-3.71-9.1-5.39-15.82-5.39c-3.99,0-7.56,1.61-7.56,4.27c0,6.51,32.41,5.6,32.41,23.31
			c0,8.96-9.73,14.98-24.15,14.98c-8.96,0-14.56-2.59-21-9.73l7.42-5.95c3.64,3.85,7.14,5.95,15.19,5.95c5.88,0,9.31-2.1,9.31-5.11
			c0-8.26-30.66-7.56-30.66-22.89c0-7.7,9.17-13.37,21.7-13.37c7.63,0,14.07,2.45,20.51,7.84L414.27,174.13z"/>
	</g>
</g>
<polygon points="166.22,75.09 155.03,88.26 159.93,93.16 173.1,81.97 "/>
<path class="st2" d="M174.51,80.56l-6.88-6.88l-1.53-1.53l-1.4,1.65l-11.19,13.17l-1.19,1.41l1.3,1.3l4.9,4.9l1.3,1.3l1.41-1.19
	l13.17-11.19l1.65-1.4L174.51,80.56z M173.1,81.97l-13.17,11.19l-4.9-4.9l11.19-13.17L173.1,81.97z"/>
<text transform="matrix(1 0 0 1 84.0889 356.7383)"><tspan x="0" y="0" class="st18 st19">11.2020</tspan><tspan x="0" y="19.25" class="st18 st19">@CESARMORALES.CO</tspan></text>
<g>
	<path d="M453.46,218.12h1.68v8.98h-1.68V218.12z"/>
	<path d="M458.35,227.1h-1.48v-9.18h3.76c2.54,0,4.47,1.82,4.47,4.49c0,2.67-1.99,4.71-4.53,4.7L458.35,227.1z M460.33,225.53
		c1.8,0,3.14-1.46,3.14-3.08c0-1.63-1.28-2.93-3.08-2.93h-1.83v6.01H460.33z"/>
	<path d="M466.45,218.12h6.26v1.57h-4.63v2.05h4.31v1.57h-4.31v2.23h4.7v1.57h-6.33V218.12z"/>
	<path d="M475.56,227.1h-1.68v-8.98h1.68l4.09,5.43c0.33,0.44,0.54,1.14,0.72,1.67l0.28-0.09c-0.18-0.53-0.44-1.21-0.44-1.77v-5.24
		h1.68v8.98h-1.68l-4.09-5.42c-0.35-0.45-0.55-1.14-0.73-1.68l-0.27,0.1c0.18,0.53,0.44,1.21,0.44,1.77V227.1z"/>
	<path d="M485.47,227.1v-7.42h-2.4v-1.57h6.48v1.57h-2.4v7.42H485.47z"/>
	<path d="M490.92,218.12h1.68v8.98h-1.68V218.12z"/>
	<path d="M495.81,227.1h-1.48v-9.18h3.76c2.54,0,4.46,1.82,4.46,4.49c0,2.67-1.99,4.71-4.53,4.7L495.81,227.1z M497.79,225.53
		c1.8,0,3.14-1.46,3.14-3.08c0-1.63-1.28-2.93-3.08-2.93h-1.84v6.01H497.79z"/>
	<path d="M506.01,218.1h1.92l3.46,9h-1.76l-1.21-3.13h-2.86l-1.1,3.13h-1.77L506.01,218.1z M507.18,220.32
		c-0.12-0.27-0.05-0.64-0.05-0.92h-0.3c0,0.28,0.06,0.66-0.05,0.92l-1.05,2.39h2.5L507.18,220.32z"/>
	<path d="M513.83,227.1h-1.47v-9.18h3.76c2.54,0,4.46,1.82,4.46,4.49c0,2.67-1.99,4.71-4.53,4.7L513.83,227.1z M515.8,225.53
		c1.8,0,3.14-1.46,3.14-3.08c0-1.63-1.28-2.93-3.08-2.93h-1.83v6.01H515.8z"/>
	<path d="M532.42,226.39c0-0.51,0.23-1.16,0.36-1.66l-0.27-0.06c-0.14,0.49-0.17,1.22-0.51,1.6c-0.45,0.49-1.28,1.04-2.61,1.04
		c-2.64,0-4.7-2.03-4.7-4.7s2.01-4.68,4.77-4.68c1.99,0,3.59,0.92,4.2,2.54c0,0-1.68,0.39-1.67,0.37c-0.4-0.82-1.37-1.32-2.63-1.32
		c-1.77,0-2.99,1.28-2.99,3.09s1.31,3.11,3.21,3.11c2.04,0,2.64-1.32,2.64-2.03h-2.41v-1.45h4.22v4.86h-1.62V226.39z"/>
	<path d="M541.9,224.86c0.12,0.51,0.68,2.25,0.68,2.25h-1.73c-0.28-1.13-0.5-1.96-0.54-2.14c-0.41-1.45-1.31-1.3-1.78-1.32
		c-0.09,0-0.19,0-0.31,0c-0.31,0-0.96,0-1.12,0v3.46h-1.63v-8.98h3.21c2.02,0,3.68,0.41,3.68,2.51c0,1.16-0.6,1.67-1.41,2.01
		c-0.42,0.19-1.04,0.12-1.5,0.12v0.3c0.46,0,1.12-0.13,1.5,0.13C541.46,223.5,541.69,224.05,541.9,224.86z M537.1,222.25h1.45
		c1.12,0,2.13-0.45,2.13-1.59c0-1.13-0.94-1.42-2.13-1.42h-1.45V222.25z"/>
	<path d="M546.09,218.1h1.92l3.46,9h-1.76l-1.21-3.13h-2.86l-1.1,3.13h-1.77L546.09,218.1z M547.26,220.32
		c-0.12-0.27-0.05-0.64-0.05-0.92h-0.29c0,0.28,0.06,0.66-0.05,0.92l-1.05,2.39h2.5L547.26,220.32z"/>
	<path d="M553.87,219.75v2.31h3.88v1.62h-3.88v3.43h-1.68v-8.98h6.26v1.63H553.87z"/>
	<path d="M560.03,218.12h1.68v8.98h-1.68V218.12z"/>
	<path d="M562.8,222.6c0-2.67,1.96-4.67,4.62-4.67c2.73,0,4.02,1.49,4.2,3.21h-1.69c-0.21-0.76-0.69-1.59-2.49-1.59
		c-1.66,0-2.95,1.13-2.95,3.07c0,1.92,1.28,3.07,2.95,3.07c1.89,0,2.39-0.83,2.6-1.59h1.69c-0.24,2-1.6,3.21-4.26,3.21
		C564.79,227.3,562.8,225.28,562.8,222.6z"/>
	<path d="M575.26,218.1h1.92l3.46,9h-1.76l-1.21-3.13h-2.86l-1.1,3.13h-1.77L575.26,218.1z M576.43,220.32
		c-0.12-0.27-0.05-0.64-0.05-0.92h-0.3c0,0.28,0.06,0.66-0.05,0.92l-1.05,2.39h2.5L576.43,220.32z"/>
</g>
<g>
	<path d="M548.32,213.92l1.13,1.13l-2.39,2.08l-0.82-0.82L548.32,213.92z"/>
</g>
<g>
	<path class="st20" d="M505,334.1c-3.25,0-3.25-0.2-6.5-0.2s-3.25,0.2-6.5,0.2"/>
</g>
</svg>
