<?xml version="1.0" encoding="utf-8"?>
<!-- Generator: Adobe Illustrator 25.0.0, SVG Export Plug-In . SVG Version: 6.00 Build 0)  -->
<svg version="1.1" id="Layer_1" xmlns="http://www.w3.org/2000/svg" xmlns:xlink="http://www.w3.org/1999/xlink" x="0px" y="0px"
	 viewBox="0 0 308 298" style="enable-background:new 0 0 308 298;" xml:space="preserve">
<g>
	<path style="fill:#285F4A;" d="M6.92,255.14l161.15,33.35l0,0l22.4-10.58l24.41,11.25l9.8-11.23l12.41,6.34l6.42,0.75l-0.46-9.33
		l17.09,2.01l-1.59,7.67L305.4,59.04c0.62-3.01-1.31-5.96-4.31-6.58L59.22,2.4c-3-0.62-5.94,1.31-6.57,4.32L2.61,248.56
		C1.98,251.57,3.91,254.52,6.92,255.14z"/>
	<path style="fill:#FFFFFF;" d="M258.41,286.07l0.14-0.69L258.41,286.07z"/>
	<polygon style="fill:#F4F4F4;" points="243.05,275.7 243.51,285.03 237.1,284.28 224.69,277.94 214.89,289.17 190.47,277.91 
		168.07,288.49 190.84,281.98 215.21,292.85 227.15,286.24 239.57,295.71 241.84,291.1 246.65,291.67 245.56,280.39 258.41,286.07 
		258.55,285.38 260.14,277.7 	"/>
</g>
</svg>
