<?xml version="1.0" encoding="utf-8"?>
<!-- Generator: Adobe Illustrator 25.0.0, SVG Export Plug-In . SVG Version: 6.00 Build 0)  -->
<svg version="1.1" id="Layer_1" xmlns="http://www.w3.org/2000/svg" xmlns:xlink="http://www.w3.org/1999/xlink" x="0px" y="0px"
	 viewBox="0 0 500 200" style="enable-background:new 0 0 500 200;" xml:space="preserve">
<style type="text/css">
	.st0{fill:#F0C0FB;}
	.st1{fill:#B2E2FB;}
	.st2{fill:#F4F4F4;}
	.st3{fill:#F9DEC9;}
	.st4{fill:#285F4A;}
	.st5{fill:#ED664D;}
	.st6{fill:#1147CD;}
	.st7{fill:none;}
	.st8{fill:#F4F4F4;stroke:#000000;stroke-width:1.1667;stroke-miterlimit:10;}
	.st9{fill:#FFFFFF;stroke:#000000;stroke-width:0.4375;stroke-miterlimit:10;}
	.st10{fill:#FFFFFF;stroke:#000000;stroke-width:0.7999;stroke-miterlimit:10;}
	.st11{fill:none;stroke:#000000;stroke-width:1.1667;stroke-linecap:round;stroke-linejoin:round;stroke-miterlimit:10;}
	.st12{fill:#F4F4F4;stroke:#000000;stroke-width:1.2133;stroke-miterlimit:10;}
	.st13{fill:#A67C52;}
	.st14{fill:#B3B3B3;}
	.st15{fill:#FBB03B;}
	.st16{fill:#333333;}
	.st17{fill:#FFFFFF;}
	.st18{fill:none;stroke:#000000;stroke-width:1.1;stroke-miterlimit:10;}
</style>
<g>
	<polygon class="st5" points="322.47,69.94 312.3,60.39 304.04,71.26 290.32,68.18 288.72,81.99 275.36,86.11 280.75,98.8 
		271.18,109.05 282.48,117.49 279.62,130.49 293.42,132.59 297.22,145.58 310.03,140.47 320.12,150 328.37,138.67 341.85,141.85 
		343.83,128.02 357.05,124.06 351.71,111.13 361.08,101.19 350,92.86 353.08,79.36 339.29,77.57 335.36,64.15 	"/>
	<circle class="st6" cx="164.82" cy="94.95" r="44.95"/>
	<g>
		<path class="st2" d="M115.4,112.69c0.92,2.49,4.42,10.84,4.42,10.84l-6.05,0.53c-1.96-5.48-3.47-9.51-3.8-10.38
			c-2.73-7.01-7.53-6.78-10.02-6.69c-0.5,0.11-1.01,0.15-1.65,0.21c-1.66,0.15-4.78,0.36-7.14,0.56l1.59,18.15l-5.86,0.51
			l-3.91-44.58l14.2-1.25c9.62-0.84,17.82,0.49,18.73,10.94c0.54,6.11-2.74,8.97-6.99,11.07c-1.54,0.78-3.85,0.72-5.57,0.87
			l0.1,1.15c1.72-0.15,4.03-0.87,5.64-0.11C111.7,105.63,113.77,108.08,115.4,112.69z M90.69,102.47l8.15-0.71
			c6.18-0.54,11.74-2.19,11.1-9.57c-0.63-7.2-5.9-7.25-12.52-6.67l-8.15,0.71L90.69,102.47z"/>
		<path class="st2" d="M124.7,84.07h29.92v5.5h-24.04v13.49h22.44v5.5h-22.44v14.77h24.36v5.5H124.7V84.07z"/>
		<path class="st2" d="M158.89,101.11c1.01-13.26,11.02-22.55,23.71-21.65c11.35,0.81,18.37,7.58,18.96,16.41l-6.19-0.44
			c-0.92-5.13-4.57-9.68-13.18-10.29c-9.37-0.67-16.62,6.64-17.31,16.4c-0.7,9.82,5.51,18.14,14.94,18.81
			c8.8,0.62,13.12-3.36,14.75-8.31l6.19,0.44c-1.99,9.09-9.99,14.35-21.28,13.55C166.67,125.12,158.01,114.45,158.89,101.11z"/>
		<path class="st2" d="M211.12,80.11l5.89,0.78l-5.84,44.37l-5.89-0.78L211.12,80.11z"/>
		<path class="st2" d="M229.32,81.08l29.03,7.24l-1.33,5.33l-23.32-5.82l-3.26,13.09l21.77,5.43l-1.33,5.33l-21.77-5.43l-3.57,14.33
			l23.63,5.89l-1.33,5.33l-29.34-7.32L229.32,81.08z"/>
		<path class="st2" d="M271.64,126.03l-5.92,0.5l-3.73-44.59l5.92-0.5l24.87,28.84c1.84,2.09,3.28,5.44,4.39,8.04l0.99-0.47
			c-1.05-2.54-2.48-5.89-2.72-8.69l-2.49-29.81l5.99-0.5l3.73,44.59l-5.99,0.5l-24.86-28.78c-1.84-2.09-3.21-5.44-4.33-8.04
			l-1.05,0.47c1.11,2.54,2.48,5.89,2.72,8.69L271.64,126.03z"/>
		<path class="st2" d="M324.81,121.47l-7.19-38.59l-12.63,2.35l-1.01-5.4l31.17-5.8l1.01,5.4l-12.63,2.35l7.19,38.59L324.81,121.47z
			"/>
		<path class="st2" d="M344.11,79.07l29.8,2.61l-0.48,5.48l-23.94-2.1l-1.18,13.44l22.35,1.96l-0.48,5.48l-22.35-1.96l-1.29,14.71
			l24.26,2.13l-0.48,5.48l-30.12-2.64L344.11,79.07z"/>
		<path class="st2" d="M411.38,92.19c-1.1-3.19-4.96-6.51-11.16-7.39c-5.38-0.76-11.2,0.68-11.79,4.86
			c-1.04,7.34,28.2,10.63,26.09,25.57c-1.27,8.99-10.46,11.89-20.21,10.51c-9.12-1.29-14.52-6.89-16.1-13.57l5.7-0.62
			c1.34,5.16,6.23,7.98,11.42,8.71c7.15,1.01,11.99-1.28,12.55-5.2c1.47-10.44-27.56-12.41-25.64-26.02
			c1.16-8.23,10.8-10.61,19.34-9.41c8.99,1.27,14.19,6.97,15.43,11.93L411.38,92.19z"/>
	</g>
</g>
</svg>
