<?xml version="1.0" encoding="utf-8"?>
<!-- Generator: Adobe Illustrator 25.0.0, SVG Export Plug-In . SVG Version: 6.00 Build 0)  -->
<svg version="1.1" id="Layer_1" xmlns="http://www.w3.org/2000/svg" xmlns:xlink="http://www.w3.org/1999/xlink" x="0px" y="0px"
	 viewBox="0 0 500 200" style="enable-background:new 0 0 500 200;" xml:space="preserve">
<style type="text/css">
	.st0{fill:#F0C0FB;}
	.st1{fill:#B2E2FB;}
	.st2{fill:#F4F4F4;}
	.st3{fill:#F9DEC9;}
	.st4{fill:#285F4A;}
	.st5{fill:#ED664D;}
	.st6{fill:#1147CD;}
	.st7{fill:none;}
	.st8{fill:#F4F4F4;stroke:#000000;stroke-width:1.1667;stroke-miterlimit:10;}
	.st9{fill:#FFFFFF;stroke:#000000;stroke-width:0.4375;stroke-miterlimit:10;}
	.st10{fill:#FFFFFF;stroke:#000000;stroke-width:0.7999;stroke-miterlimit:10;}
	.st11{fill:none;stroke:#000000;stroke-width:1.1667;stroke-linecap:round;stroke-linejoin:round;stroke-miterlimit:10;}
	.st12{fill:#F4F4F4;stroke:#000000;stroke-width:1.2133;stroke-miterlimit:10;}
	.st13{fill:#A67C52;}
	.st14{fill:#B3B3B3;}
	.st15{fill:#FBB03B;}
	.st16{fill:#333333;}
	.st17{fill:#FFFFFF;}
	.st18{fill:none;stroke:#000000;stroke-width:1.1;stroke-miterlimit:10;}
</style>
<g>
	<path d="M420.41,155H79.59C68.81,155,60,146.19,60,135.41V64.59C60,53.81,68.81,45,79.59,45h340.83C431.19,45,440,53.81,440,64.59
		v70.83C440,146.19,431.19,155,420.41,155z"/>
	<g>
		<path class="st2" d="M183.77,112.13h-16V87.98h16v4.17h-10.95v5.82h10.33v3.88h-10.33v6.09h10.95V112.13z"/>
		<path class="st2" d="M187,94.19h4.72v3.25h0.1c0.75-2.16,2.68-3.58,5.12-3.58c2.59,0,4.4,1.34,5,3.68h0.1
			c0.8-2.26,2.95-3.68,5.57-3.68c3.51,0,5.87,2.41,5.87,6.02v12.25h-4.89V101.1c0-2.08-1.04-3.21-2.93-3.21
			c-1.86,0-3.08,1.36-3.08,3.35v10.89h-4.7v-11.18c0-1.92-1.09-3.06-2.89-3.06c-1.86,0-3.11,1.41-3.11,3.41v10.83H187V94.19z"/>
		<path class="st2" d="M234.41,103.16c0,5.77-2.78,9.26-7.26,9.26c-2.61,0-4.62-1.27-5.57-3.3h-0.1v8.87h-4.89v-23.8h4.82v3.13h0.1
			c0.97-2.11,2.96-3.41,5.56-3.41C231.62,93.9,234.41,97.37,234.41,103.16z M229.41,103.16c0-3.25-1.54-5.34-3.98-5.34
			c-2.39,0-3.97,2.12-3.97,5.34c0,3.25,1.57,5.32,3.97,5.32C227.87,108.48,229.41,106.42,229.41,103.16z"/>
		<path class="st2" d="M236.89,89.25c0-1.39,1.12-2.51,2.54-2.51c1.42,0,2.54,1.12,2.54,2.51c0,1.37-1.12,2.51-2.54,2.51
			C238.01,91.76,236.89,90.62,236.89,89.25z M237.01,94.19h4.89v17.94h-4.89V94.19z"/>
		<path class="st2" d="M261.51,106.64c-0.54,3.51-3.75,5.87-8.18,5.87c-5.52,0-8.84-3.53-8.84-9.27c0-5.72,3.35-9.44,8.65-9.44
			c5.22,0,8.52,3.53,8.52,8.99v1.49h-12.37v0.3c0,2.56,1.62,4.32,4.12,4.32c1.79,0,3.16-0.89,3.61-2.26H261.51z M249.34,101.28h7.62
			c-0.1-2.29-1.59-3.87-3.77-3.87C251.05,97.42,249.51,99.04,249.34,101.28z"/>
		<path class="st2" d="M263.83,109.35l8.94-11.33v-0.1h-8.8v-3.73h14.48v3.1l-8.4,11.01v0.08h8.6v3.75h-14.81V109.35z"/>
		<path class="st2" d="M280.8,106.97c0-3.26,2.51-5.15,6.98-5.42l4.52-0.27v-1.19c0-1.67-1.17-2.65-3.01-2.65
			c-1.82,0-2.98,0.9-3.21,2.23h-4.47c0.18-3.48,3.15-5.87,7.9-5.87c4.6,0,7.6,2.38,7.6,5.99v12.33h-4.72v-2.74h-0.1
			c-1,1.91-3.23,3.03-5.47,3.03C283.4,112.41,280.8,110.2,280.8,106.97z M292.3,105.55v-1.3l-3.78,0.23
			c-1.82,0.13-2.86,0.95-2.86,2.23c0,1.34,1.1,2.18,2.76,2.18C290.54,108.88,292.3,107.49,292.3,105.55z"/>
		<path class="st2" d="M307.48,118.72v-3.78c0.17,0.03,1.05,0.05,1.24,0.05c1.77,0,2.66-0.57,3-1.99c0-0.08,0.18-0.79,0.17-0.87
			l-6.24-17.94H311l3.82,14.02h0.1l3.8-14.02h5.15l-6.18,18.33c-1.52,4.6-3.78,6.26-8.35,6.26
			C309.15,118.77,307.65,118.75,307.48,118.72z"/>
		<path class="st2" d="M324.55,106.97c0-3.26,2.51-5.15,6.98-5.42l4.52-0.27v-1.19c0-1.67-1.17-2.65-3.01-2.65
			c-1.82,0-2.98,0.9-3.21,2.23h-4.47c0.18-3.48,3.15-5.87,7.9-5.87c4.6,0,7.6,2.38,7.6,5.99v12.33h-4.72v-2.74h-0.1
			c-1,1.91-3.23,3.03-5.47,3.03C327.15,112.41,324.55,110.2,324.55,106.97z M336.05,105.55v-1.3l-3.78,0.23
			c-1.82,0.13-2.86,0.95-2.86,2.23c0,1.34,1.1,2.18,2.76,2.18C334.29,108.88,336.05,107.49,336.05,105.55z"/>
	</g>
</g>
</svg>
