<?xml version="1.0" encoding="utf-8"?>
<!-- Generator: Adobe Illustrator 25.0.0, SVG Export Plug-In . SVG Version: 6.00 Build 0)  -->
<svg version="1.1" id="Layer_1" xmlns="http://www.w3.org/2000/svg" xmlns:xlink="http://www.w3.org/1999/xlink" x="0px" y="0px"
	 viewBox="0 0 200 200" style="enable-background:new 0 0 200 200;" xml:space="preserve">
<style type="text/css">
	.st0{fill:#F0C0FB;}
	.st1{fill:#B2E2FB;}
	.st2{fill:#F4F4F4;}
	.st3{fill:#F9DEC9;}
	.st4{fill:#285F4A;}
	.st5{fill:#ED664D;}
	.st6{fill:#1147CD;}
	.st7{fill:none;}
	.st8{fill:#F4F4F4;stroke:#000000;stroke-width:1.1667;stroke-miterlimit:10;}
	.st9{fill:#FFFFFF;stroke:#000000;stroke-width:0.4375;stroke-miterlimit:10;}
	.st10{fill:#FFFFFF;stroke:#000000;stroke-width:0.7999;stroke-miterlimit:10;}
	.st11{fill:none;stroke:#000000;stroke-width:1.1667;stroke-linecap:round;stroke-linejoin:round;stroke-miterlimit:10;}
	.st12{fill:#F4F4F4;stroke:#000000;stroke-width:1.2133;stroke-miterlimit:10;}
	.st13{fill:#A67C52;}
	.st14{fill:#B3B3B3;}
	.st15{fill:#FBB03B;}
	.st16{fill:#333333;}
	.st17{fill:#FFFFFF;}
	.st18{fill:none;stroke:#000000;stroke-width:1.1;stroke-miterlimit:10;}
</style>
<g>
	<g>
		<path d="M121.82,114.31c-0.9,10.92-8.64,16.3-23.87,15.05c-17.14-1.41-22.26-10.33-21.72-19.84l10.12,0.83
			c-0.48,5.82,4.25,9.82,12.54,10.5c9.01,0.74,12.36-2.92,12.87-9.14c0.49-5.98-3.53-6.87-18.76-8.12l0.75-9.17
			c14.67,1.2,18.69,0.17,19.2-6.13c0.44-5.34-2.8-7.93-10.69-8.58c-7.81-0.64-12.81,2.56-13.29,8.38l-10.12-0.83
			c1.02-9.47,7.21-17.46,23.87-16.1c14.67,1.2,21.32,6.16,20.43,17.08c-0.38,4.62-3.07,8.09-7.83,10.35
			c-2.01,1.04-5.01,0.39-7.32,0.2l-0.22,1.75c2.39,0.2,5.37,0.04,7.27,1.4C119.69,105.07,122.24,109.21,121.82,114.31z"/>
	</g>
	<g>
		<path d="M103.6,56.15c24.18,1.98,42.24,23.27,40.25,47.45s-23.27,42.24-47.45,40.25S54.17,120.58,56.15,96.4
			C58.13,72.22,79.42,54.17,103.6,56.15 M104.09,50.17c-27.52-2.26-51.66,18.22-53.92,45.74s18.22,51.66,45.74,53.92
			c27.52,2.26,51.66-18.22,53.92-45.74C152.09,76.57,131.61,52.43,104.09,50.17L104.09,50.17z"/>
	</g>
</g>
</svg>
