<?xml version="1.0" encoding="utf-8"?>
<!-- Generator: Adobe Illustrator 25.0.0, SVG Export Plug-In . SVG Version: 6.00 Build 0)  -->
<svg version="1.1" id="Layer_1" xmlns="http://www.w3.org/2000/svg" xmlns:xlink="http://www.w3.org/1999/xlink" x="0px" y="0px"
	 viewBox="0 0 1650 230" style="enable-background:new 0 0 1650 230;" xml:space="preserve">
<g>
	<path d="M129.05,162.24c0,36.58-17.92,52.51-52.01,52.51c-25.13,0-41.31-8.71-55.24-31.11l20.15-18.91
		c8.46,13.44,21.65,20.16,35.59,19.16c12.94-0.75,18.91-7.47,18.91-23.89V37.32h32.6V162.24z"/>
	<path d="M233.17,33.09c48.03,0,85.85,41.81,85.85,90.83S281.19,215,233.17,215c-48.03,0-85.86-39.57-85.86-91.08
		C147.31,72.41,185.14,33.09,233.17,33.09z M233.17,183.39c35.59,0,53.25-30.61,53.25-59.48c0-28.87-17.67-59.23-53.25-59.23
		c-35.59,0-53.01,30.36-53.01,59.23C180.16,152.79,197.58,183.39,233.17,183.39z"/>
	<path d="M461.95,167.47c2.24,9.95,13.19,43.55,13.19,43.55h-33.6c-5.47-21.9-9.71-38.07-10.45-41.56
		c-7.96-28.12-25.38-25.13-34.59-25.63c-1.74,0-3.73,0-5.97,0c-5.97,0-18.67,0-21.65,0v67.19h-31.6V36.82h62.21
		c39.07,0,71.42,7.96,71.42,48.77c0,22.4-11.7,32.35-27.38,39.07c-8.21,3.73-20.15,2.24-29.11,2.24v5.72
		c8.96,0,21.65-2.49,29.11,2.49C453.49,141.09,457.97,151.79,461.95,167.47z M368.88,116.95H397c21.65,0,41.31-8.71,41.31-30.86
		c0-21.9-18.17-27.62-41.31-27.62h-28.12V116.95z"/>
	<path d="M636.23,197.08c0-9.95,4.48-22.4,6.97-32.1l-5.23-1.24c-2.74,9.46-3.24,23.64-9.95,31.11
		C619.31,204.3,603.14,215,577.5,215c-51.27,0-91.08-39.32-91.08-91.08S525.49,33.09,579,33.09c38.57,0,69.68,17.92,81.38,49.27
		c0,0-32.6,7.47-32.35,7.22c-7.72-15.93-26.63-25.63-51.02-25.63c-34.34,0-57.99,24.89-57.99,59.98s25.39,60.22,62.21,60.22
		c39.57,0,51.27-25.63,51.27-39.32h-46.78V116.7h81.87v94.32h-31.36V197.08z"/>
	<path d="M684.53,36.82h121.44v30.36h-89.84V107h83.62v30.36h-83.62v43.3h91.08v30.36H684.53V36.82z"/>
	<path d="M819.71,123.67c0-51.76,38.08-90.58,89.59-90.58c53,0,77.89,28.87,81.38,62.21h-32.85c-3.98-14.68-13.44-30.86-48.28-30.86
		c-32.1,0-57.24,21.9-57.24,59.48c0,37.33,24.89,59.48,57.24,59.48c36.58,0,46.28-16.17,50.52-30.86h32.85
		c-4.73,38.82-31.11,62.21-82.62,62.21C858.28,214.75,819.71,175.68,819.71,123.67z"/>
	<path d="M1272.45,80.62c-11.45-12.69-28.87-20.41-53-20.41c-16.67,0-32.1,6.72-32.1,18.41c0,25.13,114.72,21.9,114.72,83.62
		c0,32.85-34.34,52.51-81.38,52.51c-33.1,0-54.25-12.44-72.67-37.58l24.64-15.93c11.45,15.43,26.63,23.14,52.26,23.14
		c23.39,0,37.33-8.71,37.33-20.9c0-33.35-110.24-29.12-110.24-83.12c0-29.12,33.6-47.28,74.66-47.28
		c29.61,0,52.75,12.19,70.42,31.11L1272.45,80.62z"/>
	<path d="M1370.97,36.32h37.33l67.19,174.45h-34.09l-23.39-60.72h-55.49l-21.4,60.72h-34.34L1370.97,36.32z M1393.62,79.37
		c-2.24-5.23-1-12.44-1-17.92h-5.72c0,5.47,1.25,12.69-0.99,17.92l-20.41,46.29h48.53L1393.62,79.37z"/>
	<path d="M1615.01,167.47c2.24,9.95,13.19,43.55,13.19,43.55h-33.6c-5.48-21.9-9.71-38.07-10.46-41.56
		c-7.96-28.12-25.38-25.13-34.59-25.63c-1.74,0-3.73,0-5.97,0c-5.97,0-18.67,0-21.65,0v67.19h-31.6V36.82h62.21
		c39.07,0,71.42,7.96,71.42,48.77c0,22.4-11.69,32.35-27.38,39.07c-8.21,3.73-20.15,2.24-29.11,2.24v5.72
		c8.96,0,21.65-2.49,29.11,2.49C1606.55,141.09,1611.03,151.79,1615.01,167.47z M1521.94,116.95h28.12
		c21.65,0,41.31-8.71,41.31-30.86c0-21.9-18.17-27.62-41.31-27.62h-28.12V116.95z"/>
	<g>
		<polygon points="1040.46,180.66 1040.46,137.36 1124.08,137.36 1124.08,107 1040.46,107 1040.46,67.18 1130.3,67.18 1130.3,36.82 
			1109.2,36.82 1110.13,46.31 1044.24,49.14 1043.02,36.82 1008.86,36.82 1008.86,211.02 1131.55,211.02 1131.55,180.66 		"/>
		<polygon points="1102.7,36.82 1100.33,15 1047.72,24.42 1049.06,36.82 1049.82,43.81 1103.23,41.72 		"/>
	</g>
</g>
</svg>
