<?xml version="1.0" encoding="utf-8"?>
<!-- Generator: Adobe Illustrator 25.0.0, SVG Export Plug-In . SVG Version: 6.00 Build 0)  -->
<svg version="1.1" id="Layer_1" xmlns="http://www.w3.org/2000/svg" xmlns:xlink="http://www.w3.org/1999/xlink" x="0px" y="0px"
	 viewBox="0 0 500 600" style="enable-background:new 0 0 500 600;" xml:space="preserve">
<style type="text/css">
	.st0{fill:#F0C0FB;}
	.st1{fill:#B2E2FB;}
	.st2{fill:#F4F4F4;}
	.st3{fill:#F9DEC9;}
	.st4{fill:#285F4A;}
	.st5{fill:#ED664D;}
	.st6{fill:#1147CD;}
	.st7{fill:none;}
	.st8{fill:#F4F4F4;stroke:#000000;stroke-width:1.1667;stroke-miterlimit:10;}
	.st9{fill:#FFFFFF;stroke:#000000;stroke-width:0.4375;stroke-miterlimit:10;}
	.st10{fill:#FFFFFF;stroke:#000000;stroke-width:0.7999;stroke-miterlimit:10;}
	.st11{fill:none;stroke:#000000;stroke-width:1.1667;stroke-linecap:round;stroke-linejoin:round;stroke-miterlimit:10;}
	.st12{fill:#F4F4F4;stroke:#000000;stroke-width:1.2133;stroke-miterlimit:10;}
	.st13{fill:#A67C52;}
	.st14{fill:#B3B3B3;}
	.st15{fill:#FBB03B;}
	.st16{fill:#333333;}
	.st17{fill:#FFFFFF;}
	.st18{fill:none;stroke:#000000;stroke-width:1.1;stroke-miterlimit:10;}
</style>
<g>
	<g>
		<path d="M52.67,122.66v-10.68H59v0.92h-5.33v4.01h4.9v0.9h-4.9v4.85H52.67z"/>
		<path d="M66.97,122.66h-6.45v-10.68h6.45v0.92h-5.44v3.84h5.17v0.9h-5.17v4.1h5.44V122.66z"/>
		<path d="M69.02,119.81c0.13,1.28,1.32,2.1,2.99,2.1c1.61,0,2.75-0.85,2.75-2.06c0-1.01-0.67-1.61-2.31-1.99l-1.16-0.26
			c-2.12-0.47-3.01-1.38-3.01-2.86c0-1.72,1.55-2.93,3.65-2.93c2.08,0,3.61,1.24,3.67,2.95h-1.01c-0.1-1.22-1.16-2.04-2.68-2.04
			c-1.44,0-2.59,0.75-2.59,1.97c0,0.97,0.66,1.58,2.24,1.94l1.16,0.27c2.2,0.5,3.08,1.33,3.08,2.81c0,1.89-1.52,3.12-3.84,3.12
			c-2.28,0-3.84-1.21-3.95-3.02H69.02z"/>
		<path d="M80.02,122.66v-9.76H76.5v-0.92h8.07v0.92h-3.53v9.76H80.02z"/>
		<path d="M85.84,122.66v-10.68h1.01v10.68H85.84z"/>
		<path d="M92.02,122.66l-4-10.68h1.07l3.4,9.42h0.04l3.41-9.42h1.07l-4,10.68H92.02z"/>
		<path d="M102.98,119.39H98.5l-1.18,3.27h-1.07l4-10.68h1.01l3.99,10.68h-1.07L102.98,119.39z M98.8,118.52h3.88l-1.92-5.29h-0.04
			L98.8,118.52z"/>
		<path d="M112.77,122.66h-6.36v-10.68h1.01v9.76h5.35V122.66z"/>
		<path d="M120.77,111.98c3.2,0,5.06,1.96,5.06,5.34c0,3.38-1.86,5.34-5.06,5.34h-3.46v-10.68H120.77z M118.32,121.74h2.39
			c2.63,0,4.09-1.58,4.09-4.42c0-2.84-1.47-4.43-4.09-4.43h-2.39V121.74z"/>
		<path d="M133.85,122.66h-6.45v-10.68h6.45v0.92h-5.44v3.84h5.17v0.9h-5.17v4.1h5.44V122.66z"/>
		<path d="M144.6,119.39h-4.48l-1.18,3.27h-1.07l4-10.68h1.01l3.99,10.68h-1.07L144.6,119.39z M140.42,118.52h3.88l-1.92-5.29h-0.04
			L140.42,118.52z"/>
		<path d="M148.03,122.66v-10.68h1l6.26,8.92h0.05v-8.92h1v10.68h-0.98l-6.28-8.93h-0.05v8.93H148.03z"/>
		<path d="M161.15,122.66v-9.76h-3.52v-0.92h8.07v0.92h-3.53v9.76H161.15z"/>
		<path d="M166.97,122.66v-10.68h1.01v10.68H166.97z"/>
		<path d="M174.34,122.83c-2.89,0-4.8-2.21-4.8-5.57c0-3.31,1.88-5.45,4.8-5.45c2.24,0,3.97,1.34,4.37,3.38h-1.05
			c-0.44-1.53-1.69-2.44-3.32-2.44c-2.32,0-3.76,1.72-3.76,4.51c0,2.82,1.47,4.63,3.76,4.63c2.06,0,3.43-1.32,3.43-3.33v-0.38h-3.32
			v-0.89h4.32v1.03C178.78,121.14,177.12,122.83,174.34,122.83z"/>
		<path d="M181.42,118.87c0,1.79,1.17,3.02,3.12,3.02c1.96,0,3.12-1.23,3.12-3.02v-6.89h1.01v6.95c0,2.3-1.57,3.9-4.14,3.9
			c-2.57,0-4.13-1.6-4.13-3.9v-6.95h1.01V118.87z"/>
		<path d="M196.48,119.39h-4.48l-1.18,3.27h-1.07l4-10.68h1.01l3.99,10.68h-1.07L196.48,119.39z M192.3,118.52h3.88l-1.92-5.29
			h-0.04L192.3,118.52z"/>
	</g>
</g>
<g>
	<g>
		<path d="M59.11,171.19h-6.45v-10.68h6.45v0.92h-5.44v3.84h5.17v0.9h-5.17v4.1h5.44V171.19z"/>
		<path d="M67.2,171.19h-6.36v-10.68h1.01v9.76h5.35V171.19z"/>
		<path d="M81.01,165.85c0,3.38-1.87,5.51-4.85,5.51c-2.97,0-4.85-2.12-4.85-5.51c0-3.38,1.87-5.51,4.85-5.51
			C79.13,160.34,81.01,162.47,81.01,165.85z M72.34,165.85c0,2.8,1.47,4.57,3.81,4.57c2.34,0,3.82-1.77,3.82-4.57
			c0-2.8-1.48-4.57-3.82-4.57C73.81,161.28,72.34,163.05,72.34,165.85z"/>
		<path d="M82.78,168.74c0.04,1.02,0.84,1.73,1.94,1.73c1.3,0,2.05-0.79,2.05-2.22v-7.74h1.01v7.76c0,1.96-1.14,3.14-3.06,3.14
			c-1.71,0-2.92-1.1-2.94-2.67H82.78z"/>
		<path d="M99.05,165.85c0,3.38-1.87,5.51-4.85,5.51c-2.97,0-4.85-2.12-4.85-5.51c0-3.38,1.87-5.51,4.85-5.51
			C97.17,160.34,99.05,162.47,99.05,165.85z M90.39,165.85c0,2.8,1.47,4.57,3.81,4.57c2.34,0,3.82-1.77,3.82-4.57
			c0-2.8-1.48-4.57-3.82-4.57C91.86,161.28,90.39,163.05,90.39,165.85z"/>
		<path d="M107.2,160.51c3.2,0,5.06,1.96,5.06,5.34c0,3.38-1.86,5.34-5.06,5.34h-3.46v-10.68H107.2z M104.75,170.27h2.39
			c2.63,0,4.09-1.58,4.09-4.42c0-2.84-1.47-4.43-4.09-4.43h-2.39V170.27z"/>
		<path d="M120.28,171.19h-6.45v-10.68h6.45v0.92h-5.44v3.84H120v0.9h-5.17v4.1h5.44V171.19z"/>
		<path d="M125.11,171.19v-10.68h1.01v10.68H125.11z"/>
		<path d="M128.12,171.19v-10.68h3.84c1.84,0,3.08,1.06,3.08,2.63c0,1.18-0.81,2.2-1.95,2.4v0.05c1.48,0.18,2.51,1.18,2.51,2.66
			c0,1.82-1.35,2.93-3.61,2.93H128.12z M129.12,165.25h2.32c1.62,0,2.57-0.74,2.57-2c0-1.16-0.85-1.85-2.27-1.85h-2.62V165.25z
			 M131.84,170.29c1.75,0,2.72-0.76,2.72-2.09c0-1.33-1.01-2.08-2.85-2.08h-2.58v4.17H131.84z"/>
		<path d="M143.49,171.19h-6.45v-10.68h6.45v0.92h-5.44v3.84h5.17v0.9h-5.17v4.1h5.44V171.19z"/>
		<path d="M146.22,171.19h-1.01v-10.68h3.77c2.09,0,3.42,1.22,3.42,3.12c0,1.51-0.86,2.65-2.29,3.02l2.59,4.54h-1.18l-2.46-4.38
			c-0.04,0-0.11,0-0.16,0h-2.68V171.19z M146.22,165.92h2.68c1.55,0,2.46-0.83,2.46-2.26c0-1.41-0.94-2.25-2.49-2.25h-2.64V165.92z"
			/>
		<path d="M163.32,165.85c0,3.38-1.87,5.51-4.85,5.51c-2.97,0-4.85-2.12-4.85-5.51c0-3.38,1.87-5.51,4.85-5.51
			C161.44,160.34,163.32,162.47,163.32,165.85z M154.66,165.85c0,2.8,1.47,4.57,3.81,4.57c2.34,0,3.82-1.77,3.82-4.57
			c0-2.8-1.48-4.57-3.82-4.57C156.13,161.28,154.66,163.05,154.66,165.85z"/>
		<path d="M170.47,167.92h-4.48l-1.18,3.27h-1.07l4-10.68h1.01l3.99,10.68h-1.07L170.47,167.92z M166.29,167.04h3.88l-1.92-5.29
			h-0.04L166.29,167.04z"/>
		<path d="M183.24,171.19v-8.76h-0.04l-3.71,8.76h-0.88l-3.71-8.76h-0.04v8.76h-0.95v-10.68h1.16l3.96,9.39h0.04l3.95-9.39h1.17
			v10.68H183.24z"/>
		<path d="M192.64,171.19h-6.45v-10.68h6.45v0.92h-5.44v3.84h5.17v0.9h-5.17v4.1h5.44V171.19z M189.1,159.67l1.36-2.14h1.11
			l-1.69,2.14H189.1z"/>
		<path d="M195.38,171.19h-1.01v-10.68h3.77c2.09,0,3.42,1.22,3.42,3.12c0,1.51-0.86,2.65-2.29,3.02l2.59,4.54h-1.18l-2.46-4.38
			c-0.04,0-0.11,0-0.16,0h-2.68V171.19z M195.38,165.92h2.68c1.55,0,2.46-0.83,2.46-2.26c0-1.41-0.94-2.25-2.49-2.25h-2.64V165.92z"
			/>
		<path d="M203.21,171.19v-10.68h1.01v10.68H203.21z"/>
		<path d="M205.78,165.82c0-3.35,1.86-5.48,4.76-5.48c2.26,0,4.04,1.47,4.33,3.56h-1.01c-0.3-1.54-1.66-2.62-3.32-2.62
			c-2.26,0-3.72,1.77-3.72,4.54c0,2.81,1.46,4.6,3.73,4.6c1.7,0,2.99-0.91,3.31-2.39h1.01c-0.38,2.08-2.01,3.33-4.33,3.33
			C207.63,171.36,205.78,169.21,205.78,165.82z"/>
		<path d="M222.28,167.92h-4.48l-1.18,3.27h-1.07l4-10.68h1.01l3.99,10.68h-1.07L222.28,167.92z M218.1,167.04h3.88l-1.92-5.29
			h-0.04L218.1,167.04z"/>
	</g>
</g>
<g>
	<g>
		<path d="M59.11,219.72h-6.45v-10.68h6.45v0.92h-5.44v3.84h5.17v0.9h-5.17v4.1h5.44V219.72z"/>
		<path d="M60.84,219.72v-10.68h6.33v0.92h-5.33v4.01h4.9v0.9h-4.9v4.85H60.84z"/>
		<path d="M68.7,219.72v-10.68h6.33v0.92H69.7v4.01h4.9v0.9h-4.9v4.85H68.7z"/>
		<path d="M76.56,219.72v-10.68h1.01v10.68H76.56z"/>
		<path d="M86.01,219.72h-6.45v-10.68h6.45v0.92h-5.44v3.84h5.17v0.9h-5.17v4.1h5.44V219.72z"/>
		<path d="M97.2,219.72h-6.36v-10.68h1.01v9.76h5.35V219.72z"/>
		<path d="M104.54,216.45h-4.48l-1.18,3.27H97.8l4-10.68h1.01l3.99,10.68h-1.07L104.54,216.45z M100.36,215.58h3.88l-1.92-5.29
			h-0.04L100.36,215.58z"/>
		<path d="M109.28,219.72v-9.76h-3.52v-0.92h8.07v0.92h-3.53v9.76H109.28z"/>
		<path d="M115.1,219.72v-10.68h1.01v10.68H115.1z"/>
		<path d="M118.1,219.72v-10.68h1l6.26,8.92h0.05v-8.92h1v10.68h-0.98l-6.28-8.93h-0.05v8.93H118.1z"/>
		<path d="M137.69,214.38c0,3.38-1.87,5.51-4.85,5.51c-2.97,0-4.85-2.12-4.85-5.51c0-3.38,1.87-5.51,4.85-5.51
			C135.81,208.87,137.69,211,137.69,214.38z M129.03,214.38c0,2.8,1.47,4.57,3.81,4.57c2.34,0,3.82-1.77,3.82-4.57
			c0-2.8-1.48-4.57-3.82-4.57C130.5,209.81,129.03,211.58,129.03,214.38z"/>
		<path d="M144.84,216.45h-4.48l-1.18,3.27h-1.07l4-10.68h1.01l3.99,10.68h-1.07L144.84,216.45z M140.66,215.58h3.88l-1.92-5.29
			h-0.04L140.66,215.58z"/>
		<path d="M157.61,219.72v-8.76h-0.04l-3.71,8.76h-0.88l-3.71-8.76h-0.04v8.76h-0.95v-10.68h1.16l3.96,9.39h0.04l3.95-9.39h1.17
			v10.68H157.61z"/>
		<path d="M167.01,219.72h-6.45v-10.68h6.45v0.92h-5.44v3.84h5.17v0.9h-5.17v4.1h5.44V219.72z M163.47,208.2l1.36-2.14h1.11
			l-1.69,2.14H163.47z"/>
		<path d="M169.75,219.72h-1.01v-10.68h3.77c2.09,0,3.42,1.22,3.42,3.12c0,1.51-0.86,2.65-2.29,3.02l2.59,4.54h-1.18l-2.46-4.38
			c-0.04,0-0.11,0-0.16,0h-2.68V219.72z M169.75,214.45h2.68c1.55,0,2.46-0.83,2.46-2.26c0-1.41-0.94-2.25-2.49-2.25h-2.64V214.45z"
			/>
		<path d="M177.58,219.72v-10.68h1.01v10.68H177.58z"/>
		<path d="M180.15,214.36c0-3.35,1.86-5.48,4.76-5.48c2.26,0,4.04,1.47,4.33,3.56h-1.01c-0.3-1.54-1.66-2.62-3.32-2.62
			c-2.26,0-3.72,1.77-3.72,4.54c0,2.81,1.46,4.6,3.73,4.6c1.7,0,2.99-0.91,3.31-2.39h1.01c-0.38,2.08-2.01,3.33-4.33,3.33
			C182,219.89,180.15,217.74,180.15,214.36z"/>
		<path d="M196.65,216.45h-4.48l-1.18,3.27h-1.07l4-10.68h1.01l3.99,10.68h-1.07L196.65,216.45z M192.47,215.58h3.88l-1.92-5.29
			h-0.04L192.47,215.58z"/>
	</g>
</g>
<g>
	<g>
		<path d="M55.87,268.25h-0.94l-2.94-10.68h1.05l2.35,9.12h0.04l2.58-9.12h1.01l2.58,9.12h0.05l2.35-9.12h1.06l-2.95,10.68h-0.93
			l-2.63-8.95H58.5L55.87,268.25z"/>
		<path d="M70.03,257.57c2.04,0,3.43,1.34,3.43,3.32c0,1.98-1.4,3.33-3.43,3.33H67.4v4.03H66.4v-10.68H70.03z M67.4,263.32h2.39
			c1.64,0,2.63-0.91,2.63-2.43s-0.98-2.42-2.63-2.42H67.4V263.32z"/>
		<path d="M78.54,257.57c2.04,0,3.43,1.34,3.43,3.32c0,1.98-1.4,3.33-3.43,3.33h-2.62v4.03h-1.01v-10.68H78.54z M75.92,263.32h2.39
			c1.64,0,2.63-0.91,2.63-2.43s-0.98-2.42-2.63-2.42h-2.39V263.32z"/>
		<path d="M89.87,268.25h-6.45v-10.68h6.45v0.92h-5.44v3.84h5.17v0.9h-5.17v4.1h5.44V268.25z"/>
		<path d="M95.07,257.57c3.2,0,5.06,1.96,5.06,5.34c0,3.38-1.86,5.34-5.06,5.34H91.6v-10.68H95.07z M92.62,267.33h2.39
			c2.63,0,4.09-1.58,4.09-4.42c0-2.84-1.47-4.43-4.09-4.43h-2.39V267.33z"/>
		<path d="M104.38,262.88c0-3.34,1.86-5.48,4.76-5.48c2.26,0,4.04,1.47,4.33,3.56h-1.01c-0.3-1.54-1.66-2.62-3.32-2.62
			c-2.26,0-3.72,1.77-3.72,4.54c0,2.81,1.46,4.6,3.73,4.6c1.7,0,2.99-0.91,3.31-2.39h1.01c-0.38,2.08-2.01,3.33-4.33,3.33
			C106.23,268.42,104.38,266.27,104.38,262.88z"/>
		<path d="M115.96,268.25h-1.01v-10.68h3.77c2.09,0,3.42,1.22,3.42,3.12c0,1.51-0.86,2.65-2.29,3.02l2.59,4.54h-1.18l-2.46-4.37
			c-0.04,0-0.11,0-0.16,0h-2.68V268.25z M115.96,262.98h2.68c1.55,0,2.46-0.83,2.46-2.26c0-1.41-0.94-2.25-2.49-2.25h-2.64V262.98z"
			/>
		<path d="M130.24,268.25h-6.45v-10.68h6.45v0.92h-5.44v3.84h5.17v0.9h-5.17v4.1h5.44V268.25z"/>
		<path d="M137.88,264.98h-4.48l-1.18,3.27h-1.07l4-10.68h1.01l3.99,10.68h-1.07L137.88,264.98z M133.7,264.11h3.88l-1.92-5.28
			h-0.04L133.7,264.11z"/>
		<path d="M150.65,268.25v-8.76h-0.04l-3.71,8.76h-0.88l-3.71-8.76h-0.04v8.76h-0.95v-10.68h1.16l3.96,9.39h0.04l3.95-9.39h1.17
			v10.68H150.65z"/>
		<path d="M162.62,264.98h-4.48l-1.18,3.27h-1.07l4-10.68h1.01l3.99,10.68h-1.07L162.62,264.98z M158.44,264.11h3.88l-1.92-5.28
			h-0.04L158.44,264.11z"/>
		<path d="M168.32,268.25h-0.94l-2.94-10.68h1.05l2.35,9.12h0.04l2.58-9.12h1.01l2.58,9.12h0.05l2.35-9.12h1.06l-2.95,10.68h-0.93
			L171,259.3h-0.06L168.32,268.25z"/>
		<path d="M183.79,264.98h-4.48l-1.18,3.27h-1.07l4-10.68h1.01l3.99,10.68h-1.07L183.79,264.98z M179.61,264.11h3.88l-1.92-5.28
			h-0.04L179.61,264.11z"/>
		<path d="M188.23,268.25h-1.01v-10.68h3.77c2.09,0,3.42,1.22,3.42,3.12c0,1.51-0.86,2.65-2.29,3.02l2.59,4.54h-1.18l-2.46-4.37
			c-0.04,0-0.11,0-0.16,0h-2.68V268.25z M188.23,262.98h2.68c1.55,0,2.46-0.83,2.46-2.26c0-1.41-0.94-2.25-2.49-2.25h-2.64V262.98z"
			/>
		<path d="M199.52,257.57c3.2,0,5.06,1.96,5.06,5.34c0,3.38-1.86,5.34-5.06,5.34h-3.46v-10.68H199.52z M197.07,267.33h2.39
			c2.63,0,4.09-1.58,4.09-4.42c0-2.84-1.47-4.43-4.09-4.43h-2.39V267.33z"/>
		<path d="M206.65,265.4c0.13,1.28,1.32,2.1,2.99,2.1c1.61,0,2.75-0.85,2.75-2.07c0-1.01-0.67-1.61-2.31-1.99l-1.16-0.26
			c-2.12-0.47-3.01-1.38-3.01-2.86c0-1.72,1.55-2.93,3.65-2.93c2.08,0,3.61,1.24,3.67,2.95h-1.01c-0.1-1.22-1.16-2.04-2.68-2.04
			c-1.44,0-2.59,0.76-2.59,1.97c0,0.97,0.66,1.58,2.24,1.94l1.16,0.27c2.2,0.5,3.08,1.33,3.08,2.81c0,1.89-1.52,3.12-3.84,3.12
			c-2.28,0-3.84-1.21-3.95-3.02H206.65z"/>
	</g>
</g>
<g>
	<g>
		<path d="M52.73,328.91V316.1h2.24l5.99,8.35h0.07v-8.35h2.57v12.81h-2.22l-5.99-8.39H55.3v8.39H52.73z"/>
		<path d="M77.7,322.51c0,4.08-2.39,6.62-6.18,6.62c-3.8,0-6.18-2.54-6.18-6.62c0-4.08,2.38-6.63,6.18-6.63
			C75.31,315.88,77.7,318.43,77.7,322.51z M68.07,322.51c0,2.68,1.34,4.38,3.45,4.38c2.1,0,3.44-1.7,3.44-4.38
			c0-2.69-1.34-4.39-3.44-4.39C69.42,318.12,68.07,319.82,68.07,322.51z"/>
		<path d="M90.61,328.91v-8.65h-0.07l-3.48,8.65h-1.69l-3.48-8.65h-0.07v8.65h-2.39V316.1h3.11l3.64,9.2h0.07l3.64-9.2H93v12.81
			H90.61z"/>
		<path d="M95.14,328.91V316.1h2.68v12.81H95.14z"/>
		<path d="M99.95,328.91V316.1h2.24l5.99,8.35h0.07v-8.35h2.57v12.81h-2.22l-5.99-8.39h-0.08v8.39H99.95z"/>
		<path d="M120.37,325.8h-4.5l-0.98,3.11h-2.75l4.45-12.81h3.15l4.46,12.81h-2.85L120.37,325.8z M116.44,323.8h3.35l-1.64-5.25
			h-0.06L116.44,323.8z"/>
		<path d="M124.49,322.5c0-4.13,2.35-6.62,6.07-6.62c3.08,0,5.43,1.95,5.63,4.82h-2.61c-0.25-1.57-1.46-2.6-3.02-2.6
			c-2.02,0-3.33,1.7-3.33,4.39c0,2.74,1.29,4.42,3.34,4.42c1.59,0,2.74-0.93,3.02-2.45h2.61c-0.3,2.86-2.5,4.66-5.64,4.66
			C126.82,329.13,124.49,326.64,124.49,322.5z"/>
		<path d="M137.85,328.91V316.1h2.68v12.81H137.85z"/>
		<path d="M154.63,322.51c0,4.08-2.39,6.62-6.18,6.62c-3.8,0-6.18-2.54-6.18-6.62c0-4.08,2.38-6.63,6.18-6.63
			C152.24,315.88,154.63,318.43,154.63,322.51z M145.01,322.51c0,2.68,1.34,4.38,3.45,4.38c2.1,0,3.44-1.7,3.44-4.38
			c0-2.69-1.34-4.39-3.44-4.39C146.35,318.12,145.01,319.82,145.01,322.51z"/>
		<path d="M156.36,328.91V316.1h2.24l5.99,8.35h0.07v-8.35h2.57v12.81H165l-5.99-8.39h-0.08v8.39H156.36z"/>
		<path d="M177.85,328.91h-8.49V316.1h8.49v2.21h-5.81v3.09h5.48v2.06h-5.48v3.23h5.81V328.91z"/>
		<path d="M181.84,325.25c0.17,1.08,1.25,1.71,2.71,1.71c1.43,0,2.41-0.69,2.41-1.63c0-0.84-0.6-1.32-2.21-1.65l-1.35-0.27
			c-2.56-0.51-3.81-1.73-3.81-3.64c0-2.34,2.04-3.9,4.89-3.9c2.99,0,4.88,1.56,4.92,3.92h-2.53c-0.09-1.09-1.04-1.75-2.39-1.75
			c-1.32,0-2.21,0.62-2.21,1.56c0,0.79,0.62,1.28,2.13,1.58l1.36,0.28c2.71,0.54,3.89,1.63,3.89,3.58c0,2.51-1.96,4.09-5.17,4.09
			c-3.05,0-5.09-1.46-5.17-3.87H181.84z"/>
	</g>
</g>
<g>
	<g>
		<path d="M52.24,359.95c0-3.35,1.86-5.48,4.76-5.48c2.26,0,4.04,1.47,4.33,3.56h-1.01c-0.3-1.54-1.66-2.62-3.32-2.62
			c-2.26,0-3.72,1.77-3.72,4.54c0,2.81,1.46,4.6,3.73,4.6c1.7,0,2.99-0.91,3.31-2.39h1.01c-0.38,2.08-2.01,3.33-4.33,3.33
			C54.09,365.48,52.24,363.33,52.24,359.95z"/>
		<path d="M68.73,362.04h-4.48l-1.18,3.27h-1.07l4-10.68h1.01l3.99,10.68h-1.07L68.73,362.04z M64.55,361.17h3.88l-1.92-5.29h-0.04
			L64.55,361.17z"/>
		<path d="M72.16,365.31v-10.68h1l6.26,8.92h0.05v-8.92h1v10.68H79.5l-6.28-8.93h-0.05v8.93H72.16z"/>
		<path d="M82.48,365.31v-10.68h1l6.26,8.92h0.05v-8.92h1v10.68h-0.98l-6.28-8.93h-0.05v8.93H82.48z"/>
		<path d="M99.24,365.31h-6.45v-10.68h6.45v0.92H93.8v3.84h5.17v0.9H93.8v4.1h5.44V365.31z"/>
		<path d="M101.29,362.46c0.13,1.28,1.32,2.1,2.99,2.1c1.61,0,2.75-0.85,2.75-2.06c0-1.01-0.67-1.61-2.31-1.99l-1.16-0.26
			c-2.12-0.47-3.01-1.38-3.01-2.86c0-1.72,1.55-2.93,3.65-2.93c2.08,0,3.61,1.24,3.67,2.95h-1.01c-0.1-1.22-1.16-2.04-2.68-2.04
			c-1.44,0-2.59,0.75-2.59,1.97c0,0.97,0.66,1.58,2.24,1.94l1.16,0.27c2.2,0.5,3.08,1.33,3.08,2.81c0,1.89-1.52,3.12-3.84,3.12
			c-2.28,0-3.84-1.21-3.95-3.02H101.29z"/>
		<path d="M119.01,365.31h-6.36v-10.68h1.01v9.76h5.35V365.31z"/>
		<path d="M120.44,365.31v-10.68h1.01v10.68H120.44z"/>
		<path d="M132.72,359.97c0,3.38-1.87,5.51-4.85,5.51c-2.97,0-4.85-2.12-4.85-5.51c0-3.38,1.87-5.51,4.85-5.51
			C130.84,354.46,132.72,356.59,132.72,359.97z M124.06,359.97c0,2.8,1.47,4.57,3.81,4.57c2.34,0,3.82-1.77,3.82-4.57
			c0-2.8-1.48-4.57-3.82-4.57C125.53,355.4,124.06,357.17,124.06,359.97z"/>
		<path d="M134.3,365.31v-10.68h1l6.26,8.92h0.05v-8.92h1v10.68h-0.98l-6.28-8.93h-0.05v8.93H134.3z"/>
		<path d="M145.1,362.46c0.13,1.28,1.32,2.1,2.99,2.1c1.61,0,2.75-0.85,2.75-2.06c0-1.01-0.67-1.61-2.31-1.99l-1.16-0.26
			c-2.12-0.47-3.01-1.38-3.01-2.86c0-1.72,1.55-2.93,3.65-2.93c2.08,0,3.61,1.24,3.67,2.95h-1.01c-0.1-1.22-1.16-2.04-2.68-2.04
			c-1.44,0-2.59,0.75-2.59,1.97c0,0.97,0.66,1.58,2.24,1.94l1.16,0.27c2.2,0.5,3.08,1.33,3.08,2.81c0,1.89-1.52,3.12-3.84,3.12
			c-2.28,0-3.84-1.21-3.95-3.02H145.1z"/>
	</g>
</g>
<g>
	<g>
		<path d="M63.91,425.97v-8.65h-0.07l-3.48,8.65h-1.69l-3.48-8.65h-0.07v8.65h-2.39v-12.81h3.11l3.64,9.2h0.07l3.64-9.2h3.11v12.81
			H63.91z"/>
		<path d="M76.93,425.97h-8.49v-12.81h8.49v2.21h-5.81v3.09h5.48v2.06h-5.48v3.23h5.81V425.97z"/>
		<path d="M78.88,425.97v-12.81h2.24l5.99,8.35h0.07v-8.35h2.57v12.81h-2.22l-5.99-8.39h-0.08v8.39H78.88z"/>
		<path d="M91.48,419.56c0-4.13,2.35-6.62,6.07-6.62c3.08,0,5.43,1.96,5.63,4.82h-2.61c-0.25-1.57-1.46-2.6-3.02-2.6
			c-2.02,0-3.33,1.7-3.33,4.4c0,2.73,1.29,4.42,3.34,4.42c1.59,0,2.74-0.93,3.02-2.45h2.61c-0.3,2.86-2.5,4.66-5.64,4.66
			C93.81,426.19,91.48,423.7,91.48,419.56z"/>
		<path d="M104.84,425.97v-12.81h2.68v12.81H104.84z"/>
		<path d="M121.62,419.57c0,4.08-2.39,6.62-6.18,6.62c-3.8,0-6.18-2.54-6.18-6.62c0-4.09,2.38-6.63,6.18-6.63
			C119.23,412.94,121.62,415.48,121.62,419.57z M111.99,419.57c0,2.68,1.34,4.38,3.45,4.38c2.1,0,3.44-1.7,3.44-4.38
			c0-2.69-1.34-4.4-3.44-4.4C113.34,415.17,111.99,416.88,111.99,419.57z"/>
		<path d="M123.35,425.97v-12.81h2.24l5.99,8.35h0.07v-8.35h2.57v12.81h-2.22l-5.99-8.39h-0.08v8.39H123.35z"/>
		<path d="M144.84,425.97h-8.49v-12.81h8.49v2.21h-5.81v3.09h5.48v2.06h-5.48v3.23h5.81V425.97z"/>
		<path d="M148.83,422.31c0.17,1.07,1.25,1.71,2.71,1.71c1.43,0,2.41-0.69,2.41-1.63c0-0.84-0.6-1.32-2.21-1.65l-1.35-0.27
			c-2.56-0.51-3.81-1.73-3.81-3.64c0-2.35,2.04-3.9,4.89-3.9c2.99,0,4.88,1.56,4.92,3.92h-2.53c-0.09-1.09-1.04-1.75-2.39-1.75
			c-1.32,0-2.21,0.62-2.21,1.56c0,0.79,0.62,1.28,2.13,1.58l1.36,0.28c2.71,0.54,3.89,1.63,3.89,3.58c0,2.5-1.96,4.08-5.17,4.08
			c-3.05,0-5.09-1.46-5.17-3.87H148.83z"/>
	</g>
</g>
<g>
	<g>
		<path d="M59.02,462.37h-6.36v-10.68h1.01v9.76h5.35V462.37z"/>
		<path d="M60.92,458.58c0,1.79,1.17,3.02,3.12,3.02c1.96,0,3.12-1.23,3.12-3.02v-6.89h1.01v6.95c0,2.3-1.57,3.9-4.14,3.9
			c-2.57,0-4.13-1.6-4.13-3.9v-6.95h1.01V458.58z M62.13,449.71c0-0.37,0.3-0.66,0.65-0.66c0.37,0,0.66,0.29,0.66,0.66
			c0,0.36-0.29,0.65-0.66,0.65C62.42,450.36,62.13,450.07,62.13,449.71z M64.66,449.71c0-0.37,0.3-0.66,0.65-0.66
			c0.36,0,0.66,0.29,0.66,0.66c0,0.36-0.3,0.65-0.66,0.65C64.96,450.36,64.66,450.07,64.66,449.71z"/>
		<path d="M71.19,462.37h-1.01v-10.68h3.77c2.09,0,3.42,1.22,3.42,3.12c0,1.51-0.86,2.65-2.29,3.02l2.59,4.54h-1.18L74.03,458
			c-0.04,0-0.11,0-0.16,0h-2.68V462.37z M71.19,457.1h2.68c1.55,0,2.46-0.83,2.46-2.26c0-1.41-0.94-2.25-2.49-2.25h-2.64V457.1z"/>
		<path d="M78.66,461.64l6.41-8.98v-0.04h-6.2v-0.92h7.48v0.74l-6.39,8.98v0.04h6.48v0.92h-7.78V461.64z"/>
		<path d="M94.52,462.37h-6.45v-10.68h6.45v0.92h-5.44v3.84h5.17v0.9h-5.17v4.1h5.44V462.37z"/>
		<path d="M97.26,462.37h-1.01v-10.68h3.77c2.09,0,3.42,1.22,3.42,3.12c0,1.51-0.86,2.65-2.29,3.02l2.59,4.54h-1.18L100.1,458
			c-0.04,0-0.11,0-0.16,0h-2.68V462.37z M97.26,457.1h2.68c1.55,0,2.46-0.83,2.46-2.26c0-1.41-0.94-2.25-2.49-2.25h-2.64V457.1z"/>
		<path d="M104.99,455.25l0.71-3.56h1.04l-0.93,3.56H104.99z"/>
		<path d="M109.13,459.52c0.13,1.28,1.32,2.1,2.99,2.1c1.61,0,2.75-0.85,2.75-2.06c0-1.01-0.67-1.61-2.31-1.99l-1.16-0.26
			c-2.12-0.47-3.01-1.38-3.01-2.86c0-1.72,1.55-2.93,3.65-2.93c2.08,0,3.61,1.24,3.67,2.95h-1.01c-0.1-1.22-1.16-2.04-2.68-2.04
			c-1.44,0-2.59,0.75-2.59,1.97c0,0.97,0.66,1.58,2.24,1.94l1.16,0.27c2.2,0.5,3.08,1.33,3.08,2.81c0,1.89-1.52,3.12-3.84,3.12
			c-2.28,0-3.84-1.21-3.95-3.02H109.13z"/>
		<path d="M126.4,459.1h-4.48l-1.18,3.27h-1.07l4-10.68h1.01l3.99,10.68h-1.07L126.4,459.1z M122.22,458.23h3.88l-1.92-5.29h-0.04
			L122.22,458.23z"/>
		<path d="M130.84,462.37h-1.01v-10.68h3.77c2.09,0,3.42,1.22,3.42,3.12c0,1.51-0.86,2.65-2.29,3.02l2.59,4.54h-1.18l-2.46-4.38
			c-0.04,0-0.11,0-0.16,0h-2.68V462.37z M130.84,457.1h2.68c1.55,0,2.46-0.83,2.46-2.26c0-1.41-0.94-2.25-2.49-2.25h-2.64V457.1z"/>
		<path d="M138.24,457.01c0-3.35,1.86-5.48,4.76-5.48c2.26,0,4.04,1.47,4.33,3.56h-1.01c-0.3-1.54-1.66-2.62-3.32-2.62
			c-2.26,0-3.72,1.77-3.72,4.54c0,2.81,1.46,4.6,3.73,4.6c1.7,0,2.99-0.91,3.31-2.39h1.01c-0.38,2.08-2.01,3.33-4.33,3.33
			C140.09,462.54,138.24,460.39,138.24,457.01z"/>
		<path d="M156.07,462.37v-5.01h-6.25v5.01h-1.01v-10.68h1.01v4.75h6.25v-4.75h1.01v10.68H156.07z"/>
		<path d="M159.09,462.37v-10.68h1.01v10.68H159.09z"/>
		<path d="M165.27,462.37l-4-10.68h1.07l3.4,9.42h0.04l3.41-9.42h1.07l-4,10.68H165.27z"/>
		<path d="M177.89,462.37h-6.45v-10.68h6.45v0.92h-5.44v3.84h5.17v0.9h-5.17v4.1h5.44V462.37z"/>
		<path d="M185.89,462.37l-4-10.68h1.07l3.4,9.42h0.04l3.41-9.42h1.07l-4,10.68H185.89z"/>
		<path d="M201.2,457.04c0,3.38-1.87,5.51-4.85,5.51c-2.97,0-4.85-2.12-4.85-5.51c0-3.38,1.87-5.51,4.85-5.51
			C199.32,451.52,201.2,453.65,201.2,457.04z M192.53,457.04c0,2.8,1.47,4.57,3.81,4.57c2.34,0,3.82-1.77,3.82-4.57
			c0-2.8-1.48-4.57-3.82-4.57C194.01,452.46,192.53,454.23,192.53,457.04z"/>
		<path d="M209.13,462.37h-6.36v-10.68h1.01v9.76h5.35V462.37z"/>
		<path d="M210.76,461.75c0-0.39,0.31-0.7,0.7-0.7s0.69,0.3,0.69,0.7c0,0.39-0.3,0.69-0.69,0.69S210.76,462.14,210.76,461.75z"/>
		<path d="M216.14,457.26c0-3.58,1.52-5.74,4.06-5.74c1.78,0,3.15,1.05,3.44,2.66h-1.02c-0.28-1.08-1.21-1.76-2.43-1.76
			c-1.95,0-3.07,1.82-3.07,4.99h0.02c0.41-1.15,1.61-2.03,3.15-2.03c2.03,0,3.54,1.51,3.54,3.53c0,2.1-1.57,3.63-3.71,3.63
			C218.28,462.54,216.14,461.33,216.14,457.26z M222.8,458.94c0-1.53-1.13-2.66-2.68-2.66c-1.52,0-2.72,1.14-2.72,2.59
			c0,1.55,1.18,2.78,2.71,2.78C221.62,461.64,222.8,460.45,222.8,458.94z"/>
	</g>
</g>
<g>
	<g>
		<path d="M59.02,510.9h-6.36v-10.68h1.01v9.76h5.35V510.9z"/>
		<path d="M69.22,505.57c0,3.38-1.87,5.51-4.85,5.51c-2.97,0-4.85-2.12-4.85-5.51c0-3.38,1.87-5.51,4.85-5.51
			C67.34,500.05,69.22,502.19,69.22,505.57z M60.55,505.57c0,2.8,1.47,4.57,3.81,4.57c2.34,0,3.82-1.77,3.82-4.57
			c0-2.8-1.48-4.57-3.82-4.57C62.02,500.99,60.55,502.76,60.55,505.57z"/>
		<path d="M72.89,510.9v-9.76h-3.52v-0.92h8.07v0.92H73.9v9.76H72.89z"/>
		<path d="M81.56,510.9v-9.76h-3.52v-0.92h8.07v0.92h-3.53v9.76H81.56z"/>
		<path d="M87.38,510.9v-10.68h1.01v10.68H87.38z"/>
		<path d="M96.83,510.9h-6.45v-10.68h6.45v0.92h-5.44v3.84h5.17v0.9h-5.17v4.1h5.44V510.9z"/>
		<path d="M98.56,510.9v-10.68h6.33v0.92h-5.33v4.01h4.9v0.9h-4.9v4.85H98.56z"/>
		<path d="M106.42,510.9v-10.68h1.01v10.68H106.42z"/>
		<path d="M115.78,510.9h-6.36v-10.68h1.01v9.76h5.35V510.9z"/>
		<path d="M123.66,510.9h-6.45v-10.68h6.45v0.92h-5.44v3.84h5.17v0.9h-5.17v4.1h5.44V510.9z"/>
		<path d="M125.72,508.05c0.13,1.28,1.32,2.1,2.99,2.1c1.61,0,2.75-0.85,2.75-2.07c0-1.01-0.67-1.61-2.31-1.99l-1.16-0.26
			c-2.12-0.47-3.01-1.38-3.01-2.86c0-1.72,1.55-2.93,3.65-2.93c2.08,0,3.61,1.24,3.67,2.95h-1.01c-0.1-1.22-1.16-2.04-2.68-2.04
			c-1.44,0-2.59,0.76-2.59,1.97c0,0.97,0.66,1.58,2.24,1.94l1.16,0.27c2.2,0.5,3.08,1.33,3.08,2.81c0,1.89-1.52,3.12-3.84,3.12
			c-2.28,0-3.84-1.21-3.95-3.02H125.72z"/>
		<path d="M138.7,500.22l-0.71,3.56h-1.04l0.92-3.56H138.7z M141.19,500.22l-0.71,3.56h-1.04l0.93-3.56H141.19z"/>
		<path d="M145.83,510.9v-4.62l-3.83-6.06h1.15l3.16,5.07h0.04l3.16-5.07h1.15l-3.83,6.06v4.62H145.83z"/>
		<path d="M158.3,510.9h-6.45v-10.68h6.45v0.92h-5.44v3.84h5.17v0.9h-5.17v4.1h5.44V510.9z"/>
		<path d="M165.94,507.63h-4.48l-1.18,3.27h-1.07l4-10.68h1.01l3.99,10.68h-1.07L165.94,507.63z M161.76,506.76h3.88l-1.92-5.28
			h-0.04L161.76,506.76z"/>
		<path d="M170.38,510.9h-1.01v-10.68h3.77c2.09,0,3.42,1.22,3.42,3.12c0,1.51-0.86,2.65-2.29,3.02l2.59,4.54h-1.18l-2.46-4.37
			c-0.04,0-0.11,0-0.16,0h-2.68V510.9z M170.38,505.63h2.68c1.55,0,2.46-0.83,2.46-2.26c0-1.41-0.94-2.25-2.49-2.25h-2.64V505.63z"
			/>
		<path d="M181.31,510.9v-10.68h1.01v10.68H181.31z"/>
		<path d="M184.31,510.9v-10.68h1l6.26,8.92h0.05v-8.92h1v10.68h-0.98l-6.28-8.92h-0.05v8.92H184.31z"/>
		<path d="M207.07,510.9v-8.76h-0.04l-3.71,8.76h-0.88l-3.71-8.76h-0.04v8.76h-0.95v-10.68h1.16l3.96,9.39h0.04l3.95-9.39h1.17
			v10.68H207.07z"/>
		<path d="M219.3,505.57c0,3.38-1.87,5.51-4.85,5.51c-2.97,0-4.85-2.12-4.85-5.51c0-3.38,1.87-5.51,4.85-5.51
			C217.42,500.05,219.3,502.19,219.3,505.57z M210.63,505.57c0,2.8,1.47,4.57,3.81,4.57c2.34,0,3.82-1.77,3.82-4.57
			c0-2.8-1.48-4.57-3.82-4.57C212.1,500.99,210.63,502.76,210.63,505.57z"/>
		<path d="M222.97,510.9v-9.76h-3.52v-0.92h8.07v0.92h-3.53v9.76H222.97z"/>
		<path d="M228.79,510.9v-10.68h1.01v10.68H228.79z"/>
		<path d="M241.07,505.57c0,3.38-1.87,5.51-4.85,5.51c-2.97,0-4.85-2.12-4.85-5.51c0-3.38,1.87-5.51,4.85-5.51
			C239.19,500.05,241.07,502.19,241.07,505.57z M232.4,505.57c0,2.8,1.47,4.57,3.81,4.57c2.34,0,3.82-1.77,3.82-4.57
			c0-2.8-1.48-4.57-3.82-4.57C233.87,500.99,232.4,502.76,232.4,505.57z"/>
		<path d="M242.64,510.9v-10.68h1l6.26,8.92h0.05v-8.92h1v10.68h-0.98l-6.28-8.92h-0.05v8.92H242.64z"/>
		<path d="M259.38,500.05c1.92,0,3.28,1.32,3.28,2.95c0,1.15-0.53,2.03-2.43,3.99l-2.86,2.98V510h5.56v0.9h-6.96v-0.71l3.77-3.97
			c1.53-1.6,1.91-2.24,1.91-3.18c0-1.18-0.92-2.11-2.27-2.11c-1.41,0-2.47,0.97-2.49,2.28h-0.98
			C255.93,501.39,257.4,500.05,259.38,500.05z"/>
		<path d="M264.25,505.56c0-3.35,1.46-5.51,3.87-5.51c2.42,0,3.86,2.15,3.86,5.5c0,3.38-1.44,5.52-3.86,5.52
			C265.69,511.07,264.25,508.93,264.25,505.56z M270.96,505.56c0-2.81-1.06-4.61-2.85-4.61c-1.78,0-2.85,1.82-2.85,4.6
			c0,2.83,1.04,4.63,2.85,4.63C269.92,510.19,270.96,508.39,270.96,505.56z"/>
		<path d="M276.85,500.05c1.92,0,3.28,1.32,3.28,2.95c0,1.15-0.53,2.03-2.43,3.99l-2.86,2.98V510h5.56v0.9h-6.96v-0.71l3.77-3.97
			c1.53-1.6,1.91-2.24,1.91-3.18c0-1.18-0.92-2.11-2.27-2.11c-1.41,0-2.47,0.97-2.49,2.28h-0.98
			C273.4,501.39,274.88,500.05,276.85,500.05z"/>
		<path d="M281.72,505.56c0-3.35,1.46-5.51,3.87-5.51c2.42,0,3.86,2.15,3.86,5.5c0,3.38-1.44,5.52-3.86,5.52
			C283.16,511.07,281.72,508.93,281.72,505.56z M288.44,505.56c0-2.81-1.06-4.61-2.85-4.61c-1.78,0-2.85,1.82-2.85,4.6
			c0,2.83,1.04,4.63,2.85,4.63C287.4,510.19,288.44,508.39,288.44,505.56z"/>
		<path d="M291,503.78l0.71-3.56h1.04l-0.93,3.56H291z M293.49,503.78l0.71-3.56h1.04l-0.93,3.56H293.49z"/>
	</g>
</g>
<g>
	<path d="M56.28,73.47c2.63,0,4.44,1.75,4.44,4.39c0,2.63-1.87,4.39-4.57,4.39h-2.4v4.04h-2.68V73.47H56.28z M53.75,80.15h1.81
		c1.54,0,2.43-0.82,2.43-2.28c0-1.46-0.89-2.27-2.42-2.27h-1.82V80.15z"/>
	<path d="M64.99,86.28h-2.68V73.47h5.25c2.95,0,4.64,1.55,4.64,4.08c0,1.64-0.85,3.06-2.33,3.64l2.7,5.09h-3.04l-2.39-4.69h-2.15
		V86.28z M64.99,79.65h2.31c1.35,0,2.14-0.77,2.14-2.04c0-1.24-0.83-2.04-2.17-2.04h-2.28V79.65z"/>
	<path d="M82.45,86.28h-8.49V73.47h8.49v2.21h-5.81v3.09h5.48v2.06h-5.48v3.23h5.81V86.28z"/>
	<path d="M95.57,86.28v-8.65H95.5l-3.48,8.65h-1.69l-3.48-8.65h-0.07v8.65h-2.39V73.47h3.11l3.64,9.2h0.07l3.64-9.2h3.11v12.81
		H95.57z"/>
	<path d="M100.1,86.28V73.47h2.68v12.81H100.1z"/>
	<path d="M116.88,79.88c0,4.08-2.39,6.62-6.18,6.62c-3.8,0-6.18-2.54-6.18-6.62c0-4.08,2.38-6.63,6.18-6.63
		C114.49,73.25,116.88,75.79,116.88,79.88z M107.25,79.88c0,2.68,1.34,4.38,3.45,4.38c2.1,0,3.44-1.7,3.44-4.38
		c0-2.69-1.34-4.39-3.44-4.39C108.6,75.48,107.25,77.19,107.25,79.88z"/>
	<path d="M120.65,82.62c0.17,1.08,1.25,1.71,2.71,1.71c1.43,0,2.41-0.69,2.41-1.63c0-0.84-0.6-1.32-2.21-1.65l-1.35-0.27
		c-2.56-0.51-3.81-1.73-3.81-3.64c0-2.34,2.04-3.9,4.89-3.9c2.99,0,4.88,1.56,4.92,3.92h-2.53c-0.09-1.09-1.04-1.75-2.39-1.75
		c-1.32,0-2.21,0.62-2.21,1.56c0,0.79,0.62,1.28,2.13,1.58l1.36,0.28c2.71,0.54,3.89,1.63,3.89,3.58c0,2.51-1.96,4.09-5.17,4.09
		c-3.05,0-5.09-1.46-5.17-3.87H120.65z"/>
</g>
<line class="st12" x1="50.15" y1="92.46" x2="450" y2="92.46"/>
<line class="st12" x1="50.15" y1="140.99" x2="450" y2="140.99"/>
<line class="st12" x1="50.15" y1="189.52" x2="450" y2="189.52"/>
<line class="st12" x1="50.15" y1="238.05" x2="450" y2="238.05"/>
<line class="st12" x1="50.15" y1="286.58" x2="450" y2="286.58"/>
<line class="st12" x1="50.15" y1="335.11" x2="450" y2="335.11"/>
<line class="st12" x1="50.15" y1="383.64" x2="450" y2="383.64"/>
<line class="st12" x1="50.15" y1="432.17" x2="450" y2="432.17"/>
<line class="st12" x1="50.15" y1="480.7" x2="450" y2="480.7"/>
<line class="st12" x1="50.15" y1="529.23" x2="450" y2="529.23"/>
<circle class="st13" cx="443.81" cy="116.9" r="6.07"/>
<circle class="st13" cx="425.61" cy="116.9" r="6.07"/>
<circle class="st13" cx="407.41" cy="116.9" r="6.07"/>
<circle class="st13" cx="389.21" cy="116.9" r="6.07"/>
<circle class="st14" cx="443.81" cy="165.43" r="6.07"/>
<circle class="st15" cx="425.61" cy="165.43" r="6.07"/>
<circle class="st15" cx="407.41" cy="165.43" r="6.07"/>
<circle class="st15" cx="389.21" cy="165.43" r="6.07"/>
<circle class="st13" cx="443.81" cy="262.49" r="6.07"/>
<circle class="st13" cx="443.81" cy="213.96" r="6.07"/>
<circle class="st14" cx="425.61" cy="213.96" r="6.07"/>
<circle class="st16" cx="407.41" cy="213.96" r="6.07"/>
<circle class="st16" cx="389.21" cy="213.96" r="6.07"/>
<g>
	<path class="st16" d="M443.81,354.7c2.68,0,4.85,2.18,4.85,4.85s-2.18,4.85-4.85,4.85s-4.85-2.18-4.85-4.85
		S441.14,354.7,443.81,354.7 M443.81,353.49c-3.35,0-6.07,2.72-6.07,6.07s2.72,6.07,6.07,6.07c3.35,0,6.07-2.72,6.07-6.07
		S447.16,353.49,443.81,353.49L443.81,353.49z"/>
</g>
<g>
	<path class="st16" d="M425.61,354.7c2.68,0,4.85,2.18,4.85,4.85s-2.18,4.85-4.85,4.85s-4.85-2.18-4.85-4.85
		S422.94,354.7,425.61,354.7 M425.61,353.49c-3.35,0-6.07,2.72-6.07,6.07s2.72,6.07,6.07,6.07c3.35,0,6.07-2.72,6.07-6.07
		S428.96,353.49,425.61,353.49L425.61,353.49z"/>
</g>
<g>
	<path class="st16" d="M407.41,354.7c2.68,0,4.85,2.18,4.85,4.85s-2.18,4.85-4.85,4.85s-4.85-2.18-4.85-4.85
		S404.74,354.7,407.41,354.7 M407.41,353.49c-3.35,0-6.07,2.72-6.07,6.07s2.72,6.07,6.07,6.07s6.07-2.72,6.07-6.07
		S410.76,353.49,407.41,353.49L407.41,353.49z"/>
</g>
<g>
	<path class="st16" d="M443.81,451.76c2.68,0,4.85,2.18,4.85,4.85s-2.18,4.85-4.85,4.85s-4.85-2.18-4.85-4.85
		S441.14,451.76,443.81,451.76 M443.81,450.55c-3.35,0-6.07,2.72-6.07,6.07s2.72,6.07,6.07,6.07c3.35,0,6.07-2.72,6.07-6.07
		S447.16,450.55,443.81,450.55L443.81,450.55z"/>
</g>
<g>
	<path class="st16" d="M443.81,500.29c2.68,0,4.85,2.18,4.85,4.85s-2.18,4.85-4.85,4.85s-4.85-2.18-4.85-4.85
		S441.14,500.29,443.81,500.29 M443.81,499.08c-3.35,0-6.07,2.72-6.07,6.07s2.72,6.07,6.07,6.07c3.35,0,6.07-2.72,6.07-6.07
		S447.16,499.08,443.81,499.08L443.81,499.08z"/>
</g>
<circle class="st14" cx="371.02" cy="116.9" r="6.07"/>
<circle class="st14" cx="352.82" cy="116.9" r="6.07"/>
<circle class="st14" cx="334.62" cy="116.9" r="6.07"/>
<circle class="st15" cx="316.42" cy="116.9" r="6.07"/>
<circle class="st15" cx="298.22" cy="116.9" r="6.07"/>
<circle class="st15" cx="280.02" cy="116.9" r="6.07"/>
<circle class="st16" cx="261.82" cy="116.9" r="6.07"/>
</svg>
