<?xml version="1.0" encoding="utf-8"?>
<!-- Generator: Adobe Illustrator 25.0.0, SVG Export Plug-In . SVG Version: 6.00 Build 0)  -->
<svg version="1.1" id="Layer_1" xmlns="http://www.w3.org/2000/svg" xmlns:xlink="http://www.w3.org/1999/xlink" x="0px" y="0px"
	 viewBox="0 0 700 500" style="enable-background:new 0 0 700 500;" xml:space="preserve">
<style type="text/css">
	.st0{fill:#F0C0FB;}
	.st1{fill:#B2E2FB;}
	.st2{fill:#F4F4F4;}
	.st3{fill:#F9DEC9;}
	.st4{fill:#285F4A;}
	.st5{fill:#ED664D;}
	.st6{fill:#1147CD;}
	.st7{fill:none;}
	.st8{fill:#F4F4F4;stroke:#000000;stroke-width:1.1667;stroke-miterlimit:10;}
	.st9{fill:#FFFFFF;stroke:#000000;stroke-width:0.4375;stroke-miterlimit:10;}
	.st10{fill:#FFFFFF;stroke:#000000;stroke-width:0.7999;stroke-miterlimit:10;}
	.st11{fill:none;stroke:#000000;stroke-width:1.1667;stroke-linecap:round;stroke-linejoin:round;stroke-miterlimit:10;}
	.st12{fill:#F4F4F4;stroke:#000000;stroke-width:1.2133;stroke-miterlimit:10;}
	.st13{fill:#A67C52;}
	.st14{fill:#B3B3B3;}
	.st15{fill:#FBB03B;}
	.st16{fill:#333333;}
	.st17{fill:#FFFFFF;}
	.st18{fill:none;stroke:#000000;stroke-width:1.1;stroke-miterlimit:10;}
</style>
<g>
	<rect x="83.97" y="83.97" class="st1" width="565.38" height="365.38"/>
	<g>
		<path d="M648.72,84.62v364.1H84.62V84.62H648.72 M650,83.33H83.33V450H650V83.33L650,83.33z"/>
	</g>
</g>
<g>
	<rect x="67.31" y="67.31" class="st5" width="565.38" height="365.38"/>
	<path d="M632.05,67.95v364.1H67.95V67.95H632.05 M633.33,66.67H66.67v366.67h566.67V66.67L633.33,66.67z"/>
</g>
<g>
	<rect x="50.64" y="50.64" class="st2" width="565.38" height="365.38"/>
	<path d="M615.38,51.28v364.1H51.28V51.28H615.38 M616.67,50H50v366.67h566.67V50L616.67,50z"/>
</g>
<g>
	<path d="M522.75,265.54v1.57h-5.98v-8.98h1.63v7.42H522.75z"/>
	<path d="M527.76,257.93c2.48,0,4.43,2.16,4.43,4.68c0,2.53-1.95,4.7-4.43,4.7s-4.43-2.04-4.43-4.7S525.28,257.93,527.76,257.93z
		 M527.76,265.68c1.83,0,2.75-1.58,2.75-3.07c0-1.49-0.91-3.05-2.75-3.05s-2.73,1.57-2.73,3.05
		C525.02,264.1,525.92,265.68,527.76,265.68z"/>
	<path d="M540.78,266.39c0-0.51,0.23-1.16,0.36-1.66l-0.27-0.06c-0.14,0.49-0.17,1.22-0.51,1.6c-0.45,0.49-1.28,1.04-2.61,1.04
		c-2.64,0-4.7-2.03-4.7-4.7s2.01-4.68,4.77-4.68c1.99,0,3.59,0.92,4.2,2.54c0,0-1.68,0.39-1.67,0.37c-0.4-0.82-1.37-1.32-2.63-1.32
		c-1.77,0-2.99,1.28-2.99,3.09s1.31,3.11,3.21,3.11c2.04,0,2.64-1.32,2.64-2.03h-2.41v-1.45h4.22v4.86h-1.62V266.39z"/>
	<path d="M547.82,257.93c2.48,0,4.43,2.16,4.43,4.68c0,2.53-1.95,4.7-4.43,4.7s-4.43-2.04-4.43-4.7S545.34,257.93,547.82,257.93z
		 M547.82,265.68c1.83,0,2.75-1.58,2.75-3.07c0-1.49-0.91-3.05-2.75-3.05s-2.73,1.57-2.73,3.05
		C545.08,264.1,545.98,265.68,547.82,265.68z"/>
	<path d="M555.22,267.1v-7.42h-2.4v-1.57h6.48v1.57h-2.4v7.42H555.22z"/>
	<path d="M560.68,258.12h1.68v8.98h-1.68V258.12z"/>
	<path d="M565.67,263.34v3.76h-1.68v-8.98h3.36c1.91,0,3.49,0.41,3.49,2.57c0,2.16-1.57,2.67-3.63,2.67
		C566.88,263.36,566.32,263.36,565.67,263.34z M567.08,261.95c1.1,0,2.12-0.09,2.12-1.26c0-1.13-0.94-1.14-2.12-1.14h-1.41v2.4
		H567.08z"/>
	<path d="M575.63,257.93c2.48,0,4.43,2.16,4.43,4.68c0,2.53-1.95,4.7-4.43,4.7s-4.43-2.04-4.43-4.7S573.15,257.93,575.63,257.93z
		 M575.63,265.68c1.83,0,2.75-1.58,2.75-3.07c0-1.49-0.91-3.05-2.75-3.05s-2.73,1.57-2.73,3.05
		C572.89,264.1,573.79,265.68,575.63,265.68z"/>
</g>
<g>
	<path d="M502.34,262.56h1.69v-1.78h1.48v1.78h1.8v1.41h-1.8v1.81h-1.48v-1.81h-1.69V262.56z"/>
</g>
<g>
	<path d="M453.46,243.12h1.68v8.98h-1.68V243.12z"/>
	<path d="M458.35,252.1h-1.48v-9.18h3.76c2.54,0,4.47,1.82,4.47,4.49c0,2.67-1.99,4.71-4.53,4.7L458.35,252.1z M460.33,250.53
		c1.8,0,3.14-1.46,3.14-3.08c0-1.63-1.28-2.93-3.08-2.93h-1.83v6.01H460.33z"/>
	<path d="M466.45,243.12h6.26v1.57h-4.63v2.05h4.31v1.57h-4.31v2.23h4.7v1.57h-6.33V243.12z"/>
	<path d="M475.56,252.1h-1.68v-8.98h1.68l4.09,5.43c0.33,0.44,0.54,1.14,0.72,1.67l0.28-0.09c-0.18-0.53-0.44-1.21-0.44-1.77v-5.24
		h1.68v8.98h-1.68l-4.09-5.42c-0.35-0.45-0.55-1.14-0.73-1.68l-0.27,0.1c0.18,0.53,0.44,1.21,0.44,1.77V252.1z"/>
	<path d="M485.47,252.1v-7.42h-2.4v-1.57h6.48v1.57h-2.4v7.42H485.47z"/>
	<path d="M490.92,243.12h1.68v8.98h-1.68V243.12z"/>
	<path d="M495.81,252.1h-1.48v-9.18h3.76c2.54,0,4.46,1.82,4.46,4.49c0,2.67-1.99,4.71-4.53,4.7L495.81,252.1z M497.79,250.53
		c1.8,0,3.14-1.46,3.14-3.08c0-1.63-1.28-2.93-3.08-2.93h-1.84v6.01H497.79z"/>
	<path d="M506.01,243.1h1.92l3.46,9h-1.76l-1.21-3.13h-2.86l-1.1,3.13h-1.77L506.01,243.1z M507.18,245.32
		c-0.12-0.27-0.05-0.64-0.05-0.92h-0.3c0,0.28,0.06,0.66-0.05,0.92l-1.05,2.39h2.5L507.18,245.32z"/>
	<path d="M513.83,252.1h-1.47v-9.18h3.76c2.54,0,4.46,1.82,4.46,4.49c0,2.67-1.99,4.71-4.53,4.7L513.83,252.1z M515.8,250.53
		c1.8,0,3.14-1.46,3.14-3.08c0-1.63-1.28-2.93-3.08-2.93h-1.83v6.01H515.8z"/>
	<path d="M532.42,251.39c0-0.51,0.23-1.16,0.36-1.66l-0.27-0.06c-0.14,0.49-0.17,1.22-0.51,1.6c-0.45,0.49-1.28,1.04-2.61,1.04
		c-2.64,0-4.7-2.03-4.7-4.7s2.01-4.68,4.77-4.68c1.99,0,3.59,0.92,4.2,2.54c0,0-1.68,0.39-1.67,0.37c-0.4-0.82-1.37-1.32-2.63-1.32
		c-1.77,0-2.99,1.28-2.99,3.09s1.31,3.11,3.21,3.11c2.04,0,2.64-1.32,2.64-2.03h-2.41v-1.45h4.22v4.86h-1.62V251.39z"/>
	<path d="M541.9,249.86c0.12,0.51,0.68,2.25,0.68,2.25h-1.73c-0.28-1.13-0.5-1.96-0.54-2.14c-0.41-1.45-1.31-1.3-1.78-1.32
		c-0.09,0-0.19,0-0.31,0c-0.31,0-0.96,0-1.12,0v3.46h-1.63v-8.98h3.21c2.02,0,3.68,0.41,3.68,2.51c0,1.16-0.6,1.67-1.41,2.01
		c-0.42,0.19-1.04,0.12-1.5,0.12v0.3c0.46,0,1.12-0.13,1.5,0.13C541.46,248.5,541.69,249.05,541.9,249.86z M537.1,247.25h1.45
		c1.12,0,2.13-0.45,2.13-1.59c0-1.13-0.94-1.42-2.13-1.42h-1.45V247.25z"/>
	<path d="M546.09,243.1h1.92l3.46,9h-1.76l-1.21-3.13h-2.86l-1.1,3.13h-1.77L546.09,243.1z M547.26,245.32
		c-0.12-0.27-0.05-0.64-0.05-0.92h-0.29c0,0.28,0.06,0.66-0.05,0.92l-1.05,2.39h2.5L547.26,245.32z"/>
	<path d="M553.87,244.75v2.31h3.88v1.62h-3.88v3.43h-1.68v-8.98h6.26v1.63H553.87z"/>
	<path d="M560.03,243.12h1.68v8.98h-1.68V243.12z"/>
	<path d="M562.8,247.6c0-2.67,1.96-4.67,4.62-4.67c2.73,0,4.02,1.49,4.2,3.21h-1.69c-0.21-0.76-0.69-1.59-2.49-1.59
		c-1.66,0-2.95,1.13-2.95,3.07c0,1.92,1.28,3.07,2.95,3.07c1.89,0,2.39-0.83,2.6-1.59h1.69c-0.24,2-1.6,3.21-4.26,3.21
		C564.79,252.3,562.8,250.28,562.8,247.6z"/>
	<path d="M575.26,243.1h1.92l3.46,9h-1.76l-1.21-3.13h-2.86l-1.1,3.13h-1.77L575.26,243.1z M576.43,245.32
		c-0.12-0.27-0.05-0.64-0.05-0.92h-0.3c0,0.28,0.06,0.66-0.05,0.92l-1.05,2.39h2.5L576.43,245.32z"/>
</g>
<g>
	<path d="M548.32,238.92l1.13,1.13l-2.39,2.08l-0.82-0.82L548.32,238.92z"/>
</g>
<g>
	<path d="M455.64,295.81c0.03,4.29-3,6.62-6.9,6.62s-6.9-2.33-6.93-6.62c0-5.34,0.03-11.73,0.03-11.73h1.44v12.04
		c0.03,2.62,2.34,4.95,5.47,4.95c3.16,0,5.49-2.33,5.47-4.95c0-4.08,0-12.04,0-12.04h1.44V295.81z"/>
	<path d="M461.47,302.04h-1.44v-17.97h1.44l9.78,13.88c0.64,0.92,1.16,2.28,1.49,3.36l0.31-0.1c-0.33-1.05-0.72-2.46-0.72-3.59
		v-13.55h1.44v17.97h-1.44l-9.78-13.86c-0.64-0.92-1.16-2.28-1.49-3.36l-0.31,0.1c0.33,1.05,0.72,2.46,0.72,3.59V302.04z"/>
	<path d="M481.85,284.03h2.26l7.06,17.99h-1.72l-2.67-6.52h-7.55l-2.44,6.52H475L481.85,284.03z M483.21,286.44
		c-0.15-0.41-0.1-0.95-0.1-1.39h-0.31c0,0.44,0.05,0.98-0.1,1.39l-3,7.57h6.54L483.21,286.44z"/>
	<path d="M501.82,302.04h-1.44v-17.97h1.44l9.78,13.88c0.64,0.92,1.16,2.28,1.49,3.36l0.31-0.1c-0.33-1.05-0.72-2.46-0.72-3.59
		v-13.55h1.44v17.97h-1.44l-9.78-13.86c-0.64-0.92-1.16-2.28-1.49-3.36l-0.31,0.1c0.33,1.05,0.72,2.46,0.72,3.59V302.04z"/>
	<path d="M532.31,295.81c0.03,4.29-3,6.62-6.9,6.62s-6.9-2.33-6.93-6.62c0-5.34,0.03-11.73,0.03-11.73h1.44v12.04
		c0.03,2.62,2.34,4.95,5.47,4.95c3.16,0,5.49-2.33,5.47-4.95c0-4.08,0-12.04,0-12.04h1.44V295.81z"/>
	<path d="M536.7,284.08h11.5v1.28h-10.04v6.72h9.39v1.28h-9.39v7.39h10.16v1.28H536.7V284.08z"/>
	<path d="M555.95,298.45c0.18,0.44,0.13,1.03,0.13,1.49h0.31c0-0.46-0.03-1.05,0.13-1.49l5.75-14.37h1.57l-6.62,17.97h-1.95
		l-6.62-17.97h1.54L555.95,298.45z"/>
	<path d="M570.89,284.03h2.26l7.06,17.99h-1.72l-2.67-6.52h-7.55l-2.44,6.52h-1.8L570.89,284.03z M572.25,286.44
		c-0.15-0.41-0.1-0.95-0.1-1.39h-0.31c0,0.44,0.05,0.98-0.1,1.39l-3,7.57h6.54L572.25,286.44z"/>
	<path d="M437.19,325.5c0-0.56,0.23-1.31,0.33-1.87l-0.33-0.05c-0.08,0.56-0.05,1.36-0.31,1.87c-0.67,1.1-2.31,2.67-5.26,2.67
		c-4.85,0-8.6-4.06-8.6-9.39c0-5.34,3.52-9.37,8.26-9.37c3.46,0,6.26,1.85,7.37,5.08c0,0-1.31,0.77-1.28,0.74
		c-0.85-2.75-3.11-4.44-6.01-4.44c-4.11,0-6.9,3.9-6.9,7.98c0,4.08,3.03,8.01,7.03,8.01c4.31,0,5.31-3.8,5.31-5.85h-4.83v-1.36h6.39
		v8.19h-1.18V325.5z"/>
	<path d="M442.27,309.74h11.5v1.28h-10.04v6.72h9.39v1.28h-9.39v7.39h10.16v1.28h-11.63V309.74z"/>
	<path d="M459.21,327.71h-1.44v-17.97h1.44l9.78,13.88c0.64,0.92,1.16,2.28,1.49,3.36l0.31-0.1c-0.33-1.05-0.72-2.46-0.72-3.59
		v-13.55h1.44v17.97h-1.44l-9.78-13.86c-0.64-0.92-1.16-2.28-1.49-3.36l-0.31,0.1c0.33,1.05,0.72,2.46,0.72,3.59V327.71z"/>
	<path d="M476.54,309.74h11.5v1.28H478v6.72h9.39v1.28H478v7.39h10.16v1.28h-11.63V309.74z"/>
	<path d="M502.97,323.22c0.28,1.03,1.36,4.49,1.36,4.49h-1.41c-0.62-2.26-1.1-3.93-1.21-4.29c-0.9-2.9-2.93-3.34-4-3.39
		c-0.23,0-0.44,0-0.72,0c-0.67,0-1.92-0.03-3.49-0.03v7.7h-1.46v-17.97h5.03c3.75,0,6.83,0.82,6.83,5.03c0,2.64-1.57,3.62-3.52,4.31
		c-0.46,0.15-1.08,0.1-1.54,0.1v0.31c0.46,0,1.1-0.1,1.54,0.08C501.36,320.01,502.36,321.04,502.97,323.22z M493.5,318.52h3.64
		c2.77,0,5.31,0,5.31-3.7c0-3.54-2.36-3.36-5.31-3.36h-3.64V318.52z"/>
	<path d="M511.08,309.69h2.26l7.06,17.99h-1.72l-2.67-6.52h-7.55l-2.44,6.52h-1.8L511.08,309.69z M512.44,312.11
		c-0.15-0.41-0.1-0.95-0.1-1.39h-0.31c0,0.44,0.05,0.98-0.1,1.39l-3,7.57h6.54L512.44,312.11z"/>
	<path d="M521.02,318.7c0-5.34,3.59-9.34,8.5-9.34c3.67,0,7.11,2.05,7.73,5.65h-1.59c-0.62-2.54-2.82-4.34-6.16-4.34
		c-4.24,0-7.03,4.06-7.03,8.03c0,4,2.85,8.08,7.13,8.08c3.31,0,5.54-1.8,6.16-4.34h1.59c-0.59,3.39-4,5.65-7.78,5.65
		C524.64,328.09,521.02,324.07,521.02,318.7z"/>
	<path d="M540.71,309.74h1.44v17.97h-1.44V309.74z"/>
	<path d="M552.15,309.36c4.95,0,8.34,3.93,8.34,9.37c0,5.44-3.39,9.39-8.34,9.39s-8.34-4.03-8.34-9.39
		C543.81,313.36,547.2,309.36,552.15,309.36z M552.15,326.76c4.06,0,6.88-3.75,6.88-8.03s-2.82-7.98-6.88-7.98
		c-4.08,0-6.9,3.7-6.9,7.98S548.07,326.76,552.15,326.76z"/>
	<path d="M565.68,327.71h-1.44v-17.97h1.44l9.78,13.88c0.64,0.92,1.16,2.28,1.49,3.36l0.31-0.1c-0.33-1.05-0.72-2.46-0.72-3.59
		v-13.55h1.44v17.97h-1.44l-9.78-13.86c-0.64-0.92-1.16-2.28-1.49-3.36l-0.31,0.1c0.33,1.05,0.72,2.46,0.72,3.59V327.71z"/>
	<path d="M444.76,353.79c-4.9,0-8.37-4.06-8.37-9.39c0-5.34,3.39-9.37,8.16-9.37c4.8,0,8.19,4.11,8.19,9.5
		c0,3.26-1.51,5.95-3.39,7.62l2.05,3.67h-1.46l-1.41-2.75c-0.13-0.23,0.03-0.51,0.15-0.75l-0.31-0.13c-0.1,0.26-0.26,0.49-0.51,0.59
		C447.02,353.22,446.2,353.79,444.76,353.79z M451.23,344.52c0-4.23-2.64-8.03-6.7-8.03s-6.7,3.75-6.7,7.91
		c0,4.16,2.72,7.96,6.88,7.96c1.21,0,2.28-0.31,3.18-0.82l-2.08-3.7h1.46l1.13,2.23c0.1,0.23,0.03,0.56,0,0.82l0.31,0.05
		c0.03-0.28-0.03-0.64,0.18-0.82C450.04,348.6,451.23,346.47,451.23,344.52z"/>
	<path d="M469.68,347.14c0.03,4.29-3,6.62-6.9,6.62s-6.9-2.33-6.93-6.62c0-5.34,0.03-11.73,0.03-11.73h1.44v12.04
		c0.03,2.62,2.34,4.95,5.47,4.95c3.16,0,5.49-2.33,5.47-4.95c0-4.08,0-12.04,0-12.04h1.44V347.14z"/>
	<path d="M474.07,335.41h11.5v1.28h-10.04v6.72h9.39v1.28h-9.39v7.39h10.16v1.28h-11.63V335.41z"/>
	<path d="M497.45,353.38h-1.46v-17.97h1.57l7.54,15.58c0.23,0.49,0.26,1.18,0.26,1.72h0.31c0-0.54,0-1.23,0.26-1.72l7.55-15.58h1.51
		v17.97h-1.44v-13.37c0-0.54,0.26-1.21,0.38-1.75l-0.31-0.08c-0.13,0.51-0.26,1.23-0.51,1.72l-6.9,13.47h-1.41l-6.9-13.47
		c-0.26-0.49-0.38-1.18-0.51-1.72l-0.31,0.08c0.13,0.54,0.39,1.21,0.39,1.75V353.38z"/>
	<path d="M523.07,335.36h2.26l7.06,17.99h-1.72l-2.67-6.52h-7.55l-2.44,6.52h-1.8L523.07,335.36z M524.43,337.77
		c-0.15-0.41-0.1-0.95-0.1-1.39h-0.31c0,0.44,0.05,0.98-0.1,1.39l-3,7.57h6.54L524.43,337.77z"/>
	<path d="M545.96,348.89c0.28,1.03,1.36,4.49,1.36,4.49h-1.41c-0.62-2.26-1.1-3.93-1.21-4.29c-0.9-2.9-2.93-3.34-4-3.39
		c-0.23,0-0.44,0-0.72,0c-0.67,0-1.92-0.03-3.49-0.03v7.7h-1.46v-17.97h5.03c3.75,0,6.83,0.82,6.83,5.03c0,2.64-1.57,3.62-3.52,4.31
		c-0.46,0.15-1.08,0.1-1.54,0.1v0.31c0.46,0,1.1-0.1,1.54,0.08C544.35,345.68,545.35,346.71,545.96,348.89z M536.5,344.19h3.64
		c2.77,0,5.31,0,5.31-3.7c0-3.54-2.36-3.36-5.31-3.36h-3.64V344.19z"/>
	<path d="M547.69,344.37c0-5.34,3.59-9.34,8.5-9.34c3.67,0,7.11,2.05,7.73,5.65h-1.59c-0.62-2.54-2.82-4.34-6.16-4.34
		c-4.24,0-7.03,4.06-7.03,8.03c0,4,2.85,8.08,7.13,8.08c3.31,0,5.54-1.8,6.16-4.34h1.59c-0.59,3.39-4,5.65-7.78,5.65
		C551.3,353.76,547.69,349.73,547.69,344.37z"/>
	<path d="M570.89,335.36h2.26l7.06,17.99h-1.72l-2.67-6.52h-7.55l-2.44,6.52h-1.8L570.89,335.36z M572.25,337.77
		c-0.15-0.41-0.1-0.95-0.1-1.39h-0.31c0,0.44,0.05,0.98-0.1,1.39l-3,7.57h6.54L572.25,337.77z"/>
	<path d="M415.19,377.76v1.28h-10.93v-17.97h1.46v16.68H415.19z"/>
	<path d="M422.07,361.03h2.26l7.06,17.99h-1.72L427,372.5h-7.55l-2.44,6.52h-1.8L422.07,361.03z M423.43,363.44
		c-0.15-0.41-0.1-0.95-0.1-1.39h-0.31c0,0.44,0.05,0.98-0.1,1.39l-3,7.57h6.54L423.43,363.44z"/>
	<path d="M441.63,379.05h-1.03V360.7h5.34c4.8,0,8.42,3.64,8.42,8.98c0,5.34-3.75,9.42-8.55,9.39L441.63,379.05z M445.96,377.69
		c3.95,0,6.93-3.82,6.93-8.03c0-4.18-2.85-7.57-6.8-7.57h-4.06v15.6H445.96z"/>
	<path d="M458.29,361.08h1.44v17.97h-1.44V361.08z"/>
	<path d="M466.17,362.47v6.75h8.65v1.36h-8.65v8.47h-1.44v-17.97h11.5v1.39H466.17z"/>
	<path d="M479.28,361.08h11.5v1.28h-10.04v6.72h9.39v1.28h-9.39v7.39h10.16v1.28h-11.63V361.08z"/>
	<path d="M505.72,374.55c0.28,1.03,1.36,4.49,1.36,4.49h-1.41c-0.62-2.26-1.1-3.93-1.21-4.29c-0.9-2.9-2.93-3.34-4-3.39
		c-0.23,0-0.44,0-0.72,0c-0.67,0-1.92-0.03-3.49-0.03v7.7h-1.46v-17.97h5.03c3.75,0,6.83,0.82,6.83,5.03c0,2.64-1.57,3.62-3.52,4.31
		c-0.46,0.15-1.08,0.1-1.54,0.1v0.31c0.46,0,1.1-0.1,1.54,0.08C504.1,371.35,505.1,372.37,505.72,374.55z M496.25,369.86h3.64
		c2.77,0,5.31,0,5.31-3.7c0-3.54-2.36-3.36-5.31-3.36h-3.64V369.86z"/>
	<path d="M510.78,361.08h11.5v1.28h-10.04v6.72h9.39v1.28h-9.39v7.39h10.16v1.28h-11.63V361.08z"/>
	<path d="M527.72,379.05h-1.44v-17.97h1.44l9.78,13.88c0.64,0.92,1.16,2.28,1.49,3.36l0.31-0.1c-0.33-1.05-0.72-2.46-0.72-3.59
		v-13.55h1.44v17.97h-1.44l-9.78-13.86c-0.64-0.92-1.16-2.28-1.49-3.36l-0.31,0.1c0.33,1.05,0.72,2.46,0.72,3.59V379.05z"/>
	<path d="M541.71,370.04c0-5.34,3.59-9.34,8.5-9.34c3.67,0,7.11,2.05,7.73,5.65h-1.59c-0.62-2.54-2.82-4.34-6.16-4.34
		c-4.24,0-7.03,4.06-7.03,8.03c0,4,2.85,8.08,7.13,8.08c3.31,0,5.54-1.8,6.16-4.34h1.59c-0.59,3.39-4,5.65-7.78,5.65
		C545.32,379.43,541.71,375.4,541.71,370.04z"/>
	<path d="M561.39,361.08h1.44v17.97h-1.44V361.08z"/>
	<path d="M570.89,361.03h2.26l7.06,17.99h-1.72l-2.67-6.52h-7.55l-2.44,6.52h-1.8L570.89,361.03z M572.25,363.44
		c-0.15-0.41-0.1-0.95-0.1-1.39h-0.31c0,0.44,0.05,0.98-0.1,1.39l-3,7.57h6.54L572.25,363.44z"/>
</g>
<g>
	<g>
		<path d="M107.25,123.32c1.05,2.87,0.84,6.72,0.84,9.66h1.75c0-2.94-0.21-6.79,0.77-9.66l11.34-32.06h11.2l-18.06,49h-12.32
			l-18.06-49h11.2L107.25,123.32z"/>
		<path d="M138.47,91.25h34.86v9.8h-24.71v9.38h22.96v9.8h-22.96v10.22h25.06v9.8h-35.21V91.25z"/>
		<path d="M189.08,140.26h-10.5v-49h10.5l21.28,27.51c1.82,2.45,2.94,6.23,3.92,9.17l1.61-0.56c-0.98-2.94-2.45-6.58-2.45-9.66
			V91.25h10.5v49h-10.5l-21.21-27.44c-1.89-2.45-3.01-6.23-3.99-9.17l-1.61,0.56c0.98,2.94,2.45,6.58,2.45,9.66V140.26z"/>
		<path d="M267.62,105.32c1.47,2.31,1.61,5.67,1.61,8.33h1.75c0-2.66,0.07-6.02,1.54-8.33l8.96-14.07h11.2l-17.22,25.83v22.68h-10.5
			v-22.68l-17.57-25.83h11.2L267.62,105.32z"/>
		<path d="M350.22,104.13c-4.06-3.71-9.1-5.39-15.82-5.39c-3.99,0-7.56,1.61-7.56,4.27c0,6.51,32.41,5.6,32.41,23.31
			c0,8.96-9.73,14.98-24.15,14.98c-8.96,0-14.56-2.59-21-9.73l7.42-5.95c3.64,3.85,7.14,5.95,15.19,5.95c5.88,0,9.31-2.1,9.31-5.11
			c0-8.26-30.66-7.56-30.66-22.89c0-7.7,9.17-13.37,21.7-13.37c7.63,0,14.07,2.45,20.51,7.84L350.22,104.13z"/>
		<path d="M365.62,91.25h10.5v49h-10.5V91.25z"/>
		<path d="M420.92,128.01c0.63,2.8,3.71,12.25,3.71,12.25h-10.78c-1.54-6.16-2.66-10.71-2.94-11.69c-2.17-7.91-6.86-6.58-9.38-6.72
			h-6.86v18.41h-10.15v-49H403c11.2,0,20.44,2.24,20.44,13.72c0,6.09-3.01,8.89-7.21,10.78c-2.59,1.19-6.3,0.77-9.17,0.77v1.75
			c2.87,0,6.79-0.77,9.17,0.84C419.1,120.94,420.01,124.02,420.92,128.01z M394.67,113.45h7.42c5.67,0,10.85-3.08,10.85-8.33
			c0-5.32-4.76-7.42-10.85-7.42h-7.42V113.45z"/>
		<path d="M451.09,123.32c1.05,2.87,0.84,6.72,0.84,9.66h1.75c0-2.94-0.21-6.79,0.77-9.66l11.34-32.06h11.2l-18.06,49h-12.32
			l-18.06-49h11.2L451.09,123.32z"/>
		<path d="M482.3,91.25h34.86v9.8h-24.71v9.38h22.96v9.8h-22.96v10.22h25.06v9.8H482.3V91.25z"/>
	</g>
</g>
<g>
	<path d="M89.98,342.97c3.41,0,5.14,3.02,5.14,7.03c0,4.01-1.73,7.05-5.14,7.05c-3.43,0-5.16-3.04-5.16-7.05
		C84.82,345.99,86.55,342.97,89.98,342.97z M89.98,355.31c2.37,0,3.31-2.54,3.31-5.32c0-2.77-0.94-5.28-3.31-5.28
		c-2.39,0-3.33,2.5-3.33,5.28C86.65,352.77,87.59,355.31,89.98,355.31z"/>
	<path d="M101.01,349.71v-0.33c-0.48-0.02-1.1,0.04-1.52-0.15c-1.44-0.66-2.1-1.44-2.1-2.68c0-2.06,1.93-3.58,4.53-3.58
		s4.54,1.52,4.54,3.54c0,1.25-0.71,2.12-2.18,2.73c-0.42,0.19-1.06,0.12-1.52,0.12v0.35c0.46-0.02,1.1-0.1,1.54,0.08
		c1.66,0.63,2.43,1.54,2.43,3.35c0,2.46-1.79,3.89-4.91,3.89c-3.08,0-4.89-1.41-4.89-3.81c0-1.81,0.85-2.77,2.54-3.43
		C99.91,349.61,100.53,349.71,101.01,349.71z M104.9,353.18c0-1.5-1.1-2.25-3.04-2.25c-1.96,0-3.1,0.77-3.1,2.27
		c0,1.44,1.06,2.29,3.08,2.29S104.9,354.64,104.9,353.18z M104.73,346.47c0-1.23-1.06-1.98-2.81-1.98c-1.73,0-2.77,0.75-2.77,2
		c0,1.23,1.04,1.96,2.77,1.96S104.73,347.71,104.73,346.47z"/>
	<path d="M108.85,354.75h1.98v1.98h-1.98V354.75z"/>
	<path d="M115.28,355.26l0.13,0.33c0.52-0.23,1.18-0.54,1.73-0.54h5.28v1.69h-8.84v-1.66c1.41-1.42,2.46-2.68,5.12-5.26
		c3-2.93,1.56-5.04-0.46-5.04c-2.06,0-2.52,1.35-2.52,2.62h-1.91c0-1.96,1.1-4.43,4.68-4.43c3.33,0,5.22,3.91,2.73,6.62
		c-1.7,1.87-3.47,3.77-4.37,4.76C116.47,354.77,115.8,355.04,115.28,355.26z"/>
	<path d="M129.6,342.97c3.41,0,5.14,3.02,5.14,7.03c0,4.01-1.73,7.05-5.14,7.05c-3.43,0-5.16-3.04-5.16-7.05
		C124.44,345.99,126.17,342.97,129.6,342.97z M129.6,355.31c2.37,0,3.31-2.54,3.31-5.32c0-2.77-0.94-5.28-3.31-5.28
		c-2.39,0-3.33,2.5-3.33,5.28C126.27,352.77,127.21,355.31,129.6,355.31z"/>
	<path d="M138.32,355.26l0.13,0.33c0.52-0.23,1.18-0.54,1.73-0.54h5.28v1.69h-8.84v-1.66c1.41-1.42,2.46-2.68,5.12-5.26
		c3-2.93,1.56-5.04-0.46-5.04c-2.06,0-2.52,1.35-2.52,2.62h-1.91c0-1.96,1.1-4.43,4.68-4.43c3.33,0,5.22,3.91,2.73,6.62
		c-1.7,1.87-3.47,3.77-4.37,4.76C139.51,354.77,138.84,355.04,138.32,355.26z"/>
	<path d="M152.64,342.97c3.41,0,5.14,3.02,5.14,7.03c0,4.01-1.73,7.05-5.14,7.05c-3.43,0-5.16-3.04-5.16-7.05
		C147.48,345.99,149.21,342.97,152.64,342.97z M152.64,355.31c2.37,0,3.31-2.54,3.31-5.32c0-2.77-0.94-5.28-3.31-5.28
		c-2.39,0-3.33,2.5-3.33,5.28C149.31,352.77,150.25,355.31,152.64,355.31z"/>
	<path d="M97.9,373.58h-0.27c0,0.27-0.69,2.62-3.25,2.7c-0.27,0.02-0.52,0-0.75-0.02c-2.58-0.29-4.39-2.46-4.39-5.14
		s1.85-4.74,4.45-5.01c0.27-0.02,0.52-0.04,0.79-0.02c1.27,0.04,2.31,0.5,2.96,1.21c0.38,0.42,0.5,1.12,0.67,1.6l0.33-0.12
		c-0.17-0.48-0.48-1.08-0.5-1.6l-0.04-0.75h1.54v7.78c0,1.35,0.35,1.66,1.02,1.66c1.64,0,1.58-3.35,1.58-4.53
		c-0.02-4.85-3.47-7.76-7.45-7.76c-4.22,0-7.49,3.14-7.49,7.68c0,4.83,3.7,7.22,7.72,7.22c0.77,0,1.54-0.08,2.31-0.25l0.4,1.62
		c-0.94,0.19-1.85,0.27-2.73,0.27c-5.39,0-9.4-3.37-9.38-8.9c0-5.45,3.89-9.26,9.13-9.26c5.18,0,9.17,3.72,9.19,9.28
		c0,4.06-1.21,6.12-3.29,6.12c-1.54,0-2.54-0.98-2.54-2.52V373.58z M94.31,374.66c2.14,0,3.21-1.73,3.33-3.54
		c0-2.14-1.19-3.43-3.31-3.43c-2.18,0-3.33,1.5-3.33,3.43C91,373.06,92.14,374.66,94.31,374.66z"/>
	<path d="M111.25,372.52c0.19,0.48,0.13,1.17,0.13,1.71h0.35c0-0.54-0.04-1.23,0.13-1.71l3.83-10.01h1.95l-4.97,13.48h-2.23
		l-4.97-13.48h1.93L111.25,372.52z"/>
	<path d="M119.84,362.51h9.01v1.66h-7.24v4.06h6.76v1.66h-6.76v4.45h7.34v1.66h-9.11V362.51z"/>
	<path d="M133.03,375.99h-1.79v-13.48h1.79l6.74,9.28c0.5,0.67,0.85,1.71,1.12,2.52l0.31-0.12c-0.25-0.79-0.6-1.83-0.6-2.68v-9.01
		h1.81v13.48h-1.81l-6.74-9.26c-0.5-0.67-0.83-1.71-1.1-2.52l-0.33,0.12c0.27,0.79,0.6,1.83,0.6,2.68V375.99z"/>
	<path d="M148.52,367.44c0.31,0.42,0.33,1.06,0.35,1.58h0.33c0-0.52,0-1.16,0.29-1.6l3.14-4.91h1.93l-4.6,7.11v6.24h-1.79v-6.24
		l-4.99-7.11h1.92L148.52,367.44z"/>
	<path d="M164.52,365.55c-0.46-0.9-1.75-1.73-3.64-1.73c-1.64,0-3.31,0.67-3.31,1.94c0,2.23,8.86,1.98,8.86,6.53
		c0,2.73-2.62,3.99-5.58,3.99c-2.77,0-4.62-1.44-5.37-3.37l1.68-0.42c0.62,1.48,2.2,2.12,3.77,2.12c2.18,0,3.52-0.89,3.52-2.08
		c0-3.18-8.74-2.54-8.74-6.68c0-2.5,2.77-3.62,5.37-3.62c2.73,0,4.53,1.48,5.1,2.91L164.52,365.55z"/>
	<path d="M168.81,362.51h1.79v13.48h-1.79V362.51z"/>
	<path d="M182.71,372.62c0.21,0.77,1.04,3.37,1.04,3.37h-1.83c-0.44-1.69-0.79-2.95-0.87-3.22c-0.63-2.18-2.08-2.23-2.83-2.27
		c-0.15,0.02-0.31,0.02-0.5,0.02c-0.5,0-1.45-0.02-2.16-0.02v5.49h-1.77v-13.48h4.29c2.91,0,5.33,0.62,5.33,3.77
		c0,1.85-1.06,2.62-2.39,3.14c-0.48,0.19-1.17,0.12-1.69,0.12v0.35c0.52,0,1.23-0.15,1.69,0.12
		C181.79,370.41,182.35,371.19,182.71,372.62z M175.57,368.9h2.46c1.87,0,3.58-0.35,3.58-2.58c0-2.18-1.58-2.33-3.58-2.33h-2.46
		V368.9z"/>
	<path d="M189.99,372.52c0.19,0.48,0.13,1.17,0.13,1.71h0.35c0-0.54-0.04-1.23,0.13-1.71l3.83-10.01h1.95l-4.97,13.48h-2.23
		l-4.97-13.48h1.93L189.99,372.52z"/>
	<path d="M198.57,362.51h9.01v1.66h-7.24v4.06h6.76v1.66h-6.76v4.45h7.34v1.66h-9.11V362.51z"/>
</g>
<g>
	<path d="M553.64,305.01l1.18,1.18l-2.96,2.78l-1-1L553.64,305.01z"/>
</g>
</svg>
