<?xml version="1.0" encoding="utf-8"?>
<!-- Generator: Adobe Illustrator 25.0.0, SVG Export Plug-In . SVG Version: 6.00 Build 0)  -->
<svg version="1.1" id="Layer_1" xmlns="http://www.w3.org/2000/svg" xmlns:xlink="http://www.w3.org/1999/xlink" x="0px" y="0px"
	 viewBox="0 0 500 200" style="enable-background:new 0 0 500 200;" xml:space="preserve">
<style type="text/css">
	.st0{fill:#F0C0FB;}
	.st1{fill:#B2E2FB;}
	.st2{fill:#F4F4F4;}
	.st3{fill:#F9DEC9;}
	.st4{fill:#285F4A;}
	.st5{fill:#ED664D;}
	.st6{fill:#1147CD;}
	.st7{fill:none;}
	.st8{fill:#F4F4F4;stroke:#000000;stroke-width:1.1667;stroke-miterlimit:10;}
	.st9{fill:#FFFFFF;stroke:#000000;stroke-width:0.4375;stroke-miterlimit:10;}
	.st10{fill:#FFFFFF;stroke:#000000;stroke-width:0.7999;stroke-miterlimit:10;}
	.st11{fill:none;stroke:#000000;stroke-width:1.1667;stroke-linecap:round;stroke-linejoin:round;stroke-miterlimit:10;}
	.st12{fill:#F4F4F4;stroke:#000000;stroke-width:1.2133;stroke-miterlimit:10;}
	.st13{fill:#A67C52;}
	.st14{fill:#B3B3B3;}
	.st15{fill:#FBB03B;}
	.st16{fill:#333333;}
	.st17{fill:#FFFFFF;}
	.st18{fill:none;stroke:#000000;stroke-width:1.1;stroke-miterlimit:10;}
</style>
<g>
	<path d="M249.82,86.15c-7.63,0-13.84,6.21-13.84,13.84c0,2.7,0.78,5.3,2.28,7.57l19.13-19.14
		C255.12,86.93,252.52,86.15,249.82,86.15z"/>
	<path class="st2" d="M249.82,75.11c-21.1,0-34.7,18.59-38.68,24.87c1.61,2.53,4.81,7.1,9.36,11.58
		c8.99,8.85,18.85,13.33,29.32,13.33c10.48,0,20.41-4.49,29.52-13.35c4.6-4.47,7.84-9.03,9.48-11.55
		C284.73,93.7,270.84,75.11,249.82,75.11z M249.82,119.49c-4.23,0-8.24-1.33-11.64-3.87l-1.94,1.95c-1.07,1.07-2.93,1.07-4,0
		c-1.1-1.1-1.1-2.9,0-4l1.94-1.94c-2.53-3.39-3.87-7.4-3.87-11.64c0-10.75,8.75-19.5,19.5-19.5c4.24,0,8.24,1.33,11.64,3.87
		l1.94-1.94c1.1-1.1,2.9-1.1,4,0c1.1,1.1,1.1,2.9,0,4l-1.94,1.94c2.53,3.39,3.87,7.4,3.87,11.63
		C269.32,110.75,260.57,119.49,249.82,119.49z"/>
	<path d="M185.08,103.25h-58.36c1.66,13.6,13.66,26.6,34.26,36.9c15.92,7.96,35.44,13.5,56.78,16.29
		C199.08,145.74,186.2,126.04,185.08,103.25z"/>
	<path d="M176.82,46.27c-23.18,3.17-44.44,7.86-62.65,13.93c-30.43,10.14-49.53,23.59-52.3,36.55h58.3
		C122.23,75.77,144.2,57.4,176.82,46.27z"/>
	<path d="M120.16,103.25h-58.3c2.78,12.96,21.88,26.4,52.3,36.55c18.21,6.07,39.47,10.76,62.65,13.93
		C144.2,142.6,122.23,124.23,120.16,103.25z"/>
	<path d="M126.72,96.75h58.36c1.12-22.79,14-42.49,32.68-53.18c-21.34,2.78-40.86,8.33-56.78,16.29
		C140.38,70.15,128.38,83.15,126.72,96.75z"/>
	<path d="M242.25,111.56c2.26,1.49,4.86,2.27,7.57,2.27c7.63,0,13.84-6.21,13.84-13.84c0-2.7-0.78-5.3-2.27-7.57L242.25,111.56z"/>
	<path d="M385.83,60.2c-18.21-6.07-39.47-10.76-62.65-13.93c32.63,11.13,54.59,29.5,56.66,50.48h58.3
		C435.36,83.79,416.26,70.35,385.83,60.2z"/>
	<path d="M323.18,153.73c23.18-3.17,44.44-7.86,62.65-13.93c30.43-10.14,49.53-23.59,52.3-36.55h-58.3
		C377.77,124.23,355.8,142.6,323.18,153.73z"/>
	<path d="M373.28,103.25h-58.36c-1.12,22.8-14,42.49-32.68,53.18c21.34-2.78,40.86-8.33,56.78-16.29
		C359.62,129.85,371.62,116.85,373.28,103.25z"/>
	<path d="M308.5,100c0-32.26-26.24-58.5-58.5-58.5c-32.26,0-58.5,26.24-58.5,58.5s26.24,58.5,58.5,58.5
		C282.26,158.5,308.5,132.26,308.5,100z M249.82,130.55c-28.77,0-44.92-29.95-45.08-30.25l-0.16-0.3l0.16-0.3
		c0.16-0.3,16.16-30.24,45.09-30.24c28.92,0,45.28,29.93,45.44,30.23l0.17,0.31l-0.17,0.31
		C295.09,100.6,278.59,130.55,249.82,130.55z"/>
	<path d="M314.92,96.75h58.36c-1.66-13.6-13.66-26.6-34.26-36.9c-15.92-7.96-35.44-13.5-56.78-16.29
		C300.92,54.26,313.8,73.96,314.92,96.75z"/>
	<path class="st0" d="M250,35C142.3,35,55,64.1,55,100c0,35.9,87.3,65,195,65s195-29.1,195-65C445,64.1,357.7,35,250,35z
		 M114.17,60.2c18.21-6.07,39.47-10.76,62.65-13.93c-32.63,11.13-54.59,29.5-56.66,50.48h-58.3C64.64,83.79,83.74,70.35,114.17,60.2
		z M217.76,43.57c-18.68,10.7-31.56,30.39-32.68,53.18h-58.36c1.66-13.6,13.66-26.6,34.26-36.9
		C176.9,51.89,196.43,46.35,217.76,43.57z M114.17,139.8c-30.43-10.14-49.53-23.59-52.3-36.55h58.3
		c2.07,20.98,24.03,39.35,56.66,50.48C153.64,150.56,132.38,145.86,114.17,139.8z M160.98,140.15c-20.6-10.3-32.61-23.3-34.26-36.9
		h58.36c1.12,22.8,14,42.49,32.68,53.18C196.43,153.65,176.9,148.11,160.98,140.15z M191.5,100c0-32.26,26.24-58.5,58.5-58.5
		c32.26,0,58.5,26.24,58.5,58.5s-26.24,58.5-58.5,58.5C217.74,158.5,191.5,132.26,191.5,100z M282.24,43.57
		c21.34,2.78,40.86,8.33,56.78,16.29c20.6,10.3,32.61,23.3,34.26,36.9h-58.36C313.8,73.96,300.92,54.26,282.24,43.57z
		 M314.92,103.25h58.36c-1.66,13.6-13.66,26.6-34.26,36.9c-15.92,7.96-35.44,13.5-56.78,16.29
		C300.92,145.74,313.8,126.04,314.92,103.25z M385.83,139.8c-18.21,6.07-39.47,10.76-62.65,13.93
		c32.63-11.13,54.59-29.5,56.66-50.48h58.3C435.36,116.21,416.26,129.65,385.83,139.8z M379.84,96.75
		c-2.07-20.98-24.03-39.35-56.66-50.48c23.18,3.17,44.44,7.86,62.65,13.93c30.43,10.14,49.53,23.59,52.3,36.55H379.84z"/>
	<path class="st0" d="M267.4,86.41c1.1-1.1,1.1-2.9,0-4c-1.11-1.1-2.9-1.1-4,0l-1.94,1.94c-3.39-2.53-7.4-3.87-11.64-3.87
		c-10.75,0-19.5,8.75-19.5,19.5c0,4.24,1.33,8.25,3.87,11.64l-1.94,1.94c-1.1,1.1-1.1,2.9,0,4c1.07,1.07,2.93,1.07,4,0l1.94-1.95
		c3.39,2.53,7.4,3.87,11.64,3.87c10.75,0,19.5-8.75,19.5-19.5c0-4.24-1.33-8.25-3.87-11.63L267.4,86.41z M235.98,99.99
		c0-7.63,6.21-13.84,13.84-13.84c2.7,0,5.3,0.78,7.57,2.27l-19.13,19.14C236.76,105.29,235.98,102.69,235.98,99.99z M249.82,113.83
		c-2.7,0-5.3-0.78-7.57-2.27l19.14-19.13c1.49,2.26,2.27,4.86,2.27,7.57C263.66,107.62,257.45,113.83,249.82,113.83z"/>
	<path class="st0" d="M295.42,99.99l-0.17-0.31c-0.16-0.3-16.52-30.23-45.44-30.23c-28.93,0-44.93,29.94-45.09,30.24l-0.16,0.3
		l0.16,0.3c0.16,0.3,16.31,30.25,45.08,30.25c28.77,0,45.27-29.95,45.44-30.25L295.42,99.99z M279.34,111.53
		c-9.11,8.86-19.04,13.35-29.52,13.35c-10.47,0-20.33-4.48-29.32-13.33c-4.55-4.48-7.75-9.05-9.36-11.58
		c3.99-6.28,17.58-24.87,38.68-24.87c21.02,0,34.91,18.58,39,24.88C287.18,102.51,283.94,107.06,279.34,111.53z"/>
</g>
</svg>
