<?xml version="1.0" encoding="utf-8"?>
<!-- Generator: Adobe Illustrator 25.0.0, SVG Export Plug-In . SVG Version: 6.00 Build 0)  -->
<svg version="1.1" id="Layer_1" xmlns="http://www.w3.org/2000/svg" xmlns:xlink="http://www.w3.org/1999/xlink" x="0px" y="0px"
	 viewBox="0 0 700 500" style="enable-background:new 0 0 700 500;" xml:space="preserve">
<style type="text/css">
	.st0{fill:#F0C0FB;}
	.st1{fill:#B2E2FB;}
	.st2{fill:#F4F4F4;}
	.st3{fill:#F9DEC9;}
	.st4{fill:#285F4A;}
	.st5{fill:#ED664D;}
	.st6{fill:#1147CD;}
	.st7{fill:none;}
	.st8{fill:#F4F4F4;stroke:#000000;stroke-width:1.1667;stroke-miterlimit:10;}
	.st9{fill:#FFFFFF;stroke:#000000;stroke-width:0.4375;stroke-miterlimit:10;}
	.st10{fill:#FFFFFF;stroke:#000000;stroke-width:0.7999;stroke-miterlimit:10;}
	.st11{fill:none;stroke:#000000;stroke-width:1.1667;stroke-linecap:round;stroke-linejoin:round;stroke-miterlimit:10;}
	.st12{fill:#F4F4F4;stroke:#000000;stroke-width:1.2133;stroke-miterlimit:10;}
	.st13{fill:#A67C52;}
	.st14{fill:#B3B3B3;}
	.st15{fill:#FBB03B;}
	.st16{fill:#333333;}
	.st17{fill:#FFFFFF;}
	.st18{fill:none;stroke:#000000;stroke-width:1.1;stroke-miterlimit:10;}
</style>
<g>
	<rect x="83.98" y="83.97" class="st1" width="565.38" height="365.38"/>
	<g>
		<path d="M648.72,84.62v364.1H84.62V84.62H648.72 M650,83.33H83.33V450H650V83.33L650,83.33z"/>
	</g>
</g>
<g>
	<rect x="67.31" y="67.31" class="st3" width="565.38" height="365.38"/>
	<path d="M632.05,67.95v364.1H67.95V67.95H632.05 M633.33,66.67H66.67v366.67h566.67V66.67L633.33,66.67z"/>
</g>
<g>
	<rect x="50.64" y="50.64" class="st2" width="565.38" height="365.38"/>
	<path d="M615.38,51.28v364.1H51.28V51.28H615.38 M616.67,50H50v366.67h566.67V50L616.67,50z"/>
</g>
<g>
	<path d="M451.81,262.6c0-2.67,1.96-4.67,4.62-4.67c2.73,0,4.02,1.49,4.2,3.21h-1.69c-0.21-0.76-0.69-1.59-2.49-1.59
		c-1.66,0-2.95,1.13-2.95,3.07c0,1.92,1.28,3.07,2.95,3.07c1.89,0,2.39-0.83,2.6-1.59h1.69c-0.24,2-1.6,3.21-4.26,3.21
		C453.8,267.3,451.81,265.28,451.81,262.6z"/>
	<path d="M465.74,257.93c2.48,0,4.43,2.16,4.43,4.68c0,2.53-1.95,4.7-4.43,4.7s-4.43-2.04-4.43-4.7S463.27,257.93,465.74,257.93z
		 M465.74,265.68c1.83,0,2.75-1.58,2.75-3.07c0-1.49-0.91-3.05-2.75-3.05s-2.73,1.57-2.73,3.05
		C463.01,264.1,463.91,265.68,465.74,265.68z"/>
	<path d="M473.16,267.1h-1.68v-8.98h1.68l4.09,5.43c0.33,0.44,0.54,1.14,0.72,1.67l0.28-0.09c-0.18-0.53-0.44-1.21-0.44-1.77v-5.24
		h1.68v8.98h-1.68l-4.09-5.42c-0.35-0.45-0.55-1.14-0.73-1.68l-0.27,0.1c0.18,0.53,0.44,1.21,0.44,1.77V267.1z"/>
	<path d="M483.07,267.1v-7.42h-2.4v-1.57h6.48v1.57h-2.4v7.42H483.07z"/>
	<path d="M488.53,258.12h6.26v1.57h-4.63v2.05h4.31v1.57h-4.31v2.23h4.7v1.57h-6.33V258.12z"/>
	<path d="M497.64,267.1h-1.68v-8.98h1.68l4.09,5.43c0.33,0.44,0.54,1.14,0.72,1.67l0.28-0.09c-0.18-0.53-0.44-1.21-0.44-1.77v-5.24
		h1.68v8.98h-1.68l-4.09-5.42c-0.35-0.45-0.55-1.14-0.73-1.68l-0.27,0.1c0.18,0.53,0.44,1.21,0.44,1.77V267.1z"/>
	<path d="M505.97,258.12h1.68v8.98h-1.68V258.12z"/>
	<path d="M510.86,267.1h-1.48v-9.18h3.76c2.54,0,4.47,1.82,4.47,4.49c0,2.67-1.99,4.71-4.53,4.7L510.86,267.1z M512.83,265.53
		c1.8,0,3.14-1.46,3.14-3.08c0-1.63-1.28-2.93-3.08-2.93h-1.83v6.01H512.83z"/>
	<path d="M522.74,257.93c2.48,0,4.43,2.16,4.43,4.68c0,2.53-1.95,4.7-4.43,4.7s-4.43-2.04-4.43-4.7S520.26,257.93,522.74,257.93z
		 M522.74,265.68c1.83,0,2.75-1.58,2.75-3.07c0-1.49-0.91-3.05-2.75-3.05s-2.73,1.57-2.73,3.05
		C520.01,264.1,520.9,265.68,522.74,265.68z"/>
	<path d="M533.16,267.1h-1.48v-9.18h3.76c2.54,0,4.47,1.82,4.47,4.49c0,2.67-1.99,4.71-4.53,4.7L533.16,267.1z M535.14,265.53
		c1.8,0,3.14-1.46,3.14-3.08c0-1.63-1.28-2.93-3.08-2.93h-1.83v6.01H535.14z"/>
	<path d="M541.5,258.12h1.68v8.98h-1.68V258.12z"/>
	<path d="M552.18,266.39c0-0.51,0.23-1.16,0.36-1.66l-0.27-0.06c-0.14,0.49-0.17,1.22-0.51,1.6c-0.45,0.49-1.28,1.04-2.61,1.04
		c-2.64,0-4.7-2.03-4.7-4.7s2.01-4.68,4.77-4.68c1.99,0,3.59,0.92,4.2,2.54c0,0-1.68,0.39-1.67,0.37c-0.4-0.82-1.37-1.32-2.63-1.32
		c-1.77,0-2.99,1.28-2.99,3.09s1.31,3.11,3.21,3.11c2.04,0,2.64-1.32,2.64-2.03h-2.41v-1.45h4.22v4.86h-1.62V266.39z"/>
	<path d="M555.22,258.12h1.68v8.98h-1.68V258.12z"/>
	<path d="M560.46,267.1v-7.42h-2.4v-1.57h6.48v1.57h-2.4v7.42H560.46z"/>
	<path d="M568.07,258.1H570l3.46,9h-1.76l-1.21-3.13h-2.86l-1.1,3.13h-1.77L568.07,258.1z M569.24,260.32
		c-0.12-0.27-0.05-0.64-0.05-0.92h-0.29c0,0.28,0.06,0.66-0.05,0.92l-1.05,2.39h2.5L569.24,260.32z"/>
	<path d="M580.15,265.54v1.57h-5.98v-8.98h1.63v7.42H580.15z"/>
</g>
<g>
	<path d="M437.34,262.56h1.69v-1.78h1.48v1.78h1.8v1.41h-1.8v1.81h-1.48v-1.81h-1.69V262.56z"/>
</g>
<g>
	<path d="M443.24,287.7c-0.03-1.1-1.67-2.52-4.21-2.52c-2.67,0-5.52,1.05-5.52,3.23c0,3.39,11.75,3.05,11.75,8.83
		c0,3.88-3.46,5.18-6.52,5.18c-3.98,0-6.67-2.57-6.78-5.13l1.9,0.54c0.46,2.33,3.11,3.23,4.65,3.23c3.39,0,5.54-1.44,5.54-3.34
		c0-5.06-11.91-3.82-11.91-9.27c0-3.7,3.93-4.77,6.65-4.77c4.18,0,6.62,2.72,6.31,4.57L443.24,287.7z"/>
	<path d="M456.1,283.69c4.95,0,8.34,3.93,8.34,9.37c0,5.44-3.39,9.39-8.34,9.39c-4.95,0-8.34-4.03-8.34-9.39
		C447.76,287.7,451.15,283.69,456.1,283.69z M456.1,301.09c4.06,0,6.88-3.75,6.88-8.03s-2.82-7.98-6.88-7.98
		c-4.08,0-6.9,3.7-6.9,7.98S452.02,301.09,456.1,301.09z"/>
	<path d="M469.66,302.04h-1.46v-17.97h1.57l7.55,15.58c0.23,0.49,0.26,1.18,0.26,1.72h0.31c0-0.54,0-1.23,0.26-1.72l7.55-15.58h1.51
		v17.97h-1.44v-13.37c0-0.54,0.26-1.21,0.39-1.75l-0.31-0.08c-0.13,0.51-0.26,1.23-0.51,1.72l-6.9,13.47H477l-6.9-13.47
		c-0.26-0.49-0.38-1.18-0.51-1.72l-0.31,0.08c0.13,0.54,0.38,1.21,0.38,1.75V302.04z"/>
	<path d="M497.22,283.69c4.95,0,8.34,3.93,8.34,9.37c0,5.44-3.39,9.39-8.34,9.39s-8.34-4.03-8.34-9.39
		C488.88,287.7,492.27,283.69,497.22,283.69z M497.22,301.09c4.06,0,6.88-3.75,6.88-8.03s-2.82-7.98-6.88-7.98
		c-4.08,0-6.9,3.7-6.9,7.98S493.14,301.09,497.22,301.09z"/>
	<path d="M519.32,287.7c-0.03-1.1-1.67-2.52-4.21-2.52c-2.67,0-5.52,1.05-5.52,3.23c0,3.39,11.75,3.05,11.75,8.83
		c0,3.88-3.46,5.18-6.52,5.18c-3.98,0-6.67-2.57-6.78-5.13l1.9,0.54c0.46,2.33,3.11,3.23,4.65,3.23c3.39,0,5.54-1.44,5.54-3.34
		c0-5.06-11.91-3.82-11.91-9.27c0-3.7,3.93-4.77,6.65-4.77c4.18,0,6.62,2.72,6.31,4.57L519.32,287.7z"/>
	<path d="M544.68,295.81c0.03,4.29-3,6.62-6.9,6.62s-6.9-2.33-6.93-6.62c0-5.34,0.03-11.73,0.03-11.73h1.44v12.04
		c0.03,2.62,2.34,4.95,5.47,4.95c3.16,0,5.49-2.33,5.47-4.95c0-4.08,0-12.04,0-12.04h1.44V295.81z"/>
	<path d="M550.51,302.04h-1.44v-17.97h1.44l9.78,13.88c0.64,0.92,1.16,2.28,1.49,3.36l0.31-0.1c-0.33-1.05-0.72-2.46-0.72-3.59
		v-13.55h1.44v17.97h-1.44l-9.78-13.86c-0.64-0.92-1.16-2.28-1.49-3.36l-0.31,0.1c0.33,1.05,0.72,2.46,0.72,3.59V302.04z"/>
	<path d="M570.89,284.03h2.26l7.06,17.99h-1.72l-2.67-6.52h-7.55l-2.44,6.52h-1.8L570.89,284.03z M572.25,286.44
		c-0.15-0.41-0.1-0.95-0.1-1.39h-0.31c0,0.44,0.05,0.98-0.1,1.39l-3,7.57h6.54L572.25,286.44z"/>
	<path d="M399.28,327.71v-16.68h-5.49v-1.28h12.45v1.28h-5.49v16.68H399.28z"/>
	<path d="M409.62,309.74h1.44v17.97h-1.44V309.74z"/>
	<path d="M416.06,309.74h11.5v1.28h-10.04v6.72h9.39v1.28h-9.39v7.39h10.16v1.28h-11.63V309.74z"/>
	<path d="M433,327.71h-1.44v-17.97H433l9.78,13.88c0.64,0.92,1.15,2.28,1.49,3.36l0.31-0.1c-0.33-1.05-0.72-2.46-0.72-3.59v-13.55
		h1.44v17.97h-1.44l-9.78-13.86c-0.64-0.92-1.15-2.28-1.49-3.36l-0.31,0.1c0.33,1.05,0.72,2.46,0.72,3.59V327.71z"/>
	<path d="M451.36,327.71h-1.03v-18.35h5.34c4.8,0,8.42,3.64,8.42,8.98c0,5.34-3.75,9.42-8.55,9.39L451.36,327.71z M455.69,326.35
		c3.95,0,6.93-3.82,6.93-8.03c0-4.18-2.85-7.57-6.8-7.57h-4.06v15.6H455.69z"/>
	<path d="M471.22,309.69h2.26l7.06,17.99h-1.72l-2.67-6.52h-7.55l-2.44,6.52h-1.8L471.22,309.69z M472.58,312.11
		c-0.15-0.41-0.1-0.95-0.1-1.39h-0.31c0,0.44,0.05,0.98-0.1,1.39l-3,7.57h6.54L472.58,312.11z"/>
	<path d="M496.84,309.36c4.95,0,8.34,3.93,8.34,9.37c0,5.44-3.39,9.39-8.34,9.39s-8.34-4.03-8.34-9.39
		C488.5,313.36,491.89,309.36,496.84,309.36z M496.84,326.76c4.06,0,6.88-3.75,6.88-8.03s-2.82-7.98-6.88-7.98
		c-4.08,0-6.9,3.7-6.9,7.98S492.76,326.76,496.84,326.76z"/>
	<path d="M510.37,327.71h-1.44v-17.97h1.44l9.78,13.88c0.64,0.92,1.16,2.28,1.49,3.36l0.31-0.1c-0.33-1.05-0.72-2.46-0.72-3.59
		v-13.55h1.44v17.97h-1.44l-9.78-13.86c-0.64-0.92-1.16-2.28-1.49-3.36l-0.31,0.1c0.33,1.05,0.72,2.46,0.72,3.59V327.71z"/>
	<path d="M538.62,326.43v1.28h-10.93v-17.97h1.46v16.68H538.62z"/>
	<path d="M542.3,309.74h1.44v17.97h-1.44V309.74z"/>
	<path d="M550.18,327.71h-1.44v-17.97h1.44l9.78,13.88c0.64,0.92,1.16,2.28,1.49,3.36l0.31-0.1c-0.33-1.05-0.72-2.46-0.72-3.59
		v-13.55h1.44v17.97h-1.44l-9.78-13.86c-0.64-0.92-1.16-2.28-1.49-3.36l-0.31,0.1c0.33,1.05,0.72,2.46,0.72,3.59V327.71z"/>
	<path d="M567.5,309.74H579v1.28h-10.04v6.72h9.39v1.28h-9.39v7.39h10.16v1.28H567.5V309.74z"/>
	<path d="M395.53,353.79c-4.9,0-8.37-4.06-8.37-9.39c0-5.34,3.39-9.37,8.16-9.37c4.8,0,8.19,4.11,8.19,9.5
		c0,3.26-1.51,5.95-3.39,7.62l2.05,3.67h-1.46l-1.41-2.75c-0.13-0.23,0.03-0.51,0.15-0.75l-0.31-0.13c-0.1,0.26-0.26,0.49-0.51,0.59
		C397.79,353.22,396.97,353.79,395.53,353.79z M402,344.52c0-4.23-2.64-8.03-6.7-8.03s-6.7,3.75-6.7,7.91
		c0,4.16,2.72,7.96,6.88,7.96c1.21,0,2.28-0.31,3.18-0.82l-2.08-3.7h1.46l1.13,2.23c0.1,0.23,0.03,0.56,0,0.82l0.31,0.05
		c0.03-0.28-0.03-0.64,0.18-0.82C400.82,348.6,402,346.47,402,344.52z"/>
	<path d="M420.45,347.14c0.03,4.29-3,6.62-6.9,6.62c-3.9,0-6.9-2.33-6.93-6.62c0-5.34,0.03-11.73,0.03-11.73h1.44v12.04
		c0.03,2.62,2.34,4.95,5.47,4.95c3.16,0,5.49-2.33,5.47-4.95c0-4.08,0-12.04,0-12.04h1.44V347.14z"/>
	<path d="M424.84,335.41h11.5v1.28h-10.04v6.72h9.39v1.28h-9.39v7.39h10.16v1.28h-11.63V335.41z"/>
	<path d="M448.25,345.86v7.52h-1.44v-17.97h4.93c3.82,0,6.98,0.82,6.98,5.13c0,4.31-3.16,5.34-7.31,5.34
		C450.71,345.88,449.46,345.88,448.25,345.86z M451.92,344.42c2.77,0,5.31-0.28,5.31-3.95c0-3.54-2.34-3.57-5.31-3.57h-3.67v7.52
		H451.92z"/>
	<path d="M473.1,348.89c0.28,1.03,1.36,4.49,1.36,4.49h-1.41c-0.62-2.26-1.1-3.93-1.21-4.29c-0.9-2.9-2.93-3.34-4-3.39
		c-0.23,0-0.44,0-0.72,0c-0.67,0-1.92-0.03-3.49-0.03v7.7h-1.46v-17.97h5.03c3.75,0,6.83,0.82,6.83,5.03c0,2.64-1.57,3.62-3.52,4.31
		c-0.46,0.15-1.08,0.1-1.54,0.1v0.31c0.46,0,1.1-0.1,1.54,0.08C471.48,345.68,472.48,346.71,473.1,348.89z M463.63,344.19h3.65
		c2.77,0,5.31,0,5.31-3.7c0-3.54-2.36-3.36-5.31-3.36h-3.65V344.19z"/>
	<path d="M483.16,335.03c4.95,0,8.34,3.93,8.34,9.37c0,5.44-3.39,9.39-8.34,9.39s-8.34-4.03-8.34-9.39
		C474.82,339.03,478.21,335.03,483.16,335.03z M483.16,352.43c4.06,0,6.88-3.75,6.88-8.03s-2.82-7.98-6.88-7.98
		c-4.08,0-6.9,3.7-6.9,7.98S479.08,352.43,483.16,352.43z"/>
	<path d="M496.71,353.38h-1.46v-17.97h1.57l7.54,15.58c0.23,0.49,0.26,1.18,0.26,1.72h0.31c0-0.54,0-1.23,0.26-1.72l7.55-15.58h1.51
		v17.97h-1.44v-13.37c0-0.54,0.26-1.21,0.38-1.75l-0.31-0.08c-0.13,0.51-0.26,1.23-0.51,1.72l-6.9,13.47h-1.41l-6.9-13.47
		c-0.26-0.49-0.38-1.18-0.51-1.72l-0.31,0.08c0.13,0.54,0.39,1.21,0.39,1.75V353.38z"/>
	<path d="M532.44,347.14c0.03,4.29-3,6.62-6.9,6.62s-6.9-2.33-6.93-6.62c0-5.34,0.03-11.73,0.03-11.73h1.44v12.04
		c0.03,2.62,2.34,4.95,5.47,4.95c3.16,0,5.49-2.33,5.47-4.95c0-4.08,0-12.04,0-12.04h1.44V347.14z"/>
	<path d="M536.83,335.41h11.5v1.28h-10.04v6.72h9.39v1.28h-9.39v7.39h10.16v1.28h-11.63V335.41z"/>
	<path d="M556.08,349.79c0.18,0.44,0.13,1.03,0.13,1.49h0.31c0-0.46-0.03-1.05,0.13-1.49l5.75-14.37h1.57l-6.62,17.97h-1.95
		l-6.62-17.97h1.54L556.08,349.79z"/>
	<path d="M567.5,335.41H579v1.28h-10.04v6.72h9.39v1.28h-9.39v7.39h10.16v1.28H567.5V335.41z"/>
	<path d="M420.09,361.03h2.26l7.06,17.99h-1.72l-2.67-6.52h-7.55l-2.44,6.52h-1.8L420.09,361.03z M421.45,363.44
		c-0.15-0.41-0.1-0.95-0.1-1.39h-0.31c0,0.44,0.05,0.98-0.1,1.39l-3,7.57h6.54L421.45,363.44z"/>
	<path d="M433.67,379.05h-1.46v-17.97h1.57l7.55,15.58c0.23,0.49,0.26,1.18,0.26,1.72h0.31c0-0.54,0-1.23,0.26-1.72l7.55-15.58h1.51
		v17.97h-1.44v-13.37c0-0.54,0.26-1.21,0.38-1.75l-0.31-0.08c-0.13,0.51-0.26,1.23-0.51,1.72l-6.9,13.47h-1.41l-6.9-13.47
		c-0.26-0.49-0.39-1.18-0.51-1.72l-0.31,0.08c0.13,0.54,0.38,1.21,0.38,1.75V379.05z"/>
	<path d="M461.24,360.7c4.95,0,8.34,3.93,8.34,9.37c0,5.44-3.39,9.39-8.34,9.39s-8.34-4.03-8.34-9.39
		C452.9,364.7,456.28,360.7,461.24,360.7z M461.24,378.1c4.06,0,6.88-3.75,6.88-8.03s-2.82-7.98-6.88-7.98c-4.08,0-6.9,3.7-6.9,7.98
		S457.16,378.1,461.24,378.1z"/>
	<path d="M484.26,374.55c0.28,1.03,1.36,4.49,1.36,4.49h-1.41c-0.62-2.26-1.1-3.93-1.21-4.29c-0.9-2.9-2.93-3.34-4-3.39
		c-0.23,0-0.44,0-0.72,0c-0.67,0-1.92-0.03-3.49-0.03v7.7h-1.46v-17.97h5.03c3.75,0,6.83,0.82,6.83,5.03c0,2.64-1.57,3.62-3.52,4.31
		c-0.46,0.15-1.08,0.1-1.54,0.1v0.31c0.46,0,1.1-0.1,1.54,0.08C482.64,371.35,483.65,372.37,484.26,374.55z M474.79,369.86h3.64
		c2.77,0,5.31,0,5.31-3.7c0-3.54-2.36-3.36-5.31-3.36h-3.64V369.86z"/>
	<path d="M497.22,371.53v7.52h-1.44v-17.97h4.93c3.82,0,6.98,0.82,6.98,5.13c0,4.31-3.16,5.34-7.32,5.34
		C499.69,371.55,498.43,371.55,497.22,371.53z M500.89,370.09c2.77,0,5.31-0.28,5.31-3.95c0-3.54-2.33-3.57-5.31-3.57h-3.67v7.52
		H500.89z"/>
	<path d="M522.07,374.55c0.28,1.03,1.36,4.49,1.36,4.49h-1.41c-0.62-2.26-1.1-3.93-1.21-4.29c-0.9-2.9-2.93-3.34-4-3.39
		c-0.23,0-0.44,0-0.72,0c-0.67,0-1.92-0.03-3.49-0.03v7.7h-1.46v-17.97h5.03c3.75,0,6.83,0.82,6.83,5.03c0,2.64-1.57,3.62-3.52,4.31
		c-0.46,0.15-1.08,0.1-1.54,0.1v0.31c0.46,0,1.1-0.1,1.54,0.08C520.45,371.35,521.45,372.37,522.07,374.55z M512.6,369.86h3.64
		c2.77,0,5.31,0,5.31-3.7c0-3.54-2.36-3.36-5.31-3.36h-3.64V369.86z"/>
	<path d="M532.13,360.7c4.95,0,8.34,3.93,8.34,9.37c0,5.44-3.39,9.39-8.34,9.39s-8.34-4.03-8.34-9.39
		C523.79,364.7,527.18,360.7,532.13,360.7z M532.13,378.1c4.06,0,6.88-3.75,6.88-8.03s-2.82-7.98-6.88-7.98
		c-4.08,0-6.9,3.7-6.9,7.98S528.05,378.1,532.13,378.1z"/>
	<path d="M545.71,371.53v7.52h-1.44v-17.97h4.93c3.82,0,6.98,0.82,6.98,5.13c0,4.31-3.16,5.34-7.32,5.34
		C548.17,371.55,546.92,371.55,545.71,371.53z M549.38,370.09c2.77,0,5.31-0.28,5.31-3.95c0-3.54-2.33-3.57-5.31-3.57h-3.67v7.52
		H549.38z"/>
	<path d="M559.47,361.08h1.44v17.97h-1.44V361.08z"/>
	<path d="M570.92,360.7c4.95,0,8.34,3.93,8.34,9.37c0,5.44-3.39,9.39-8.34,9.39s-8.34-4.03-8.34-9.39
		C562.58,364.7,565.96,360.7,570.92,360.7z M570.92,378.1c4.06,0,6.88-3.75,6.88-8.03s-2.82-7.98-6.88-7.98
		c-4.08,0-6.9,3.7-6.9,7.98S566.83,378.1,570.92,378.1z"/>
</g>
<g>
	<g>
		<path d="M99.06,139.26v-39.2h-12.6v-9.8h35.77v9.8h-12.67v39.2H99.06z"/>
		<path d="M149.11,89.2c13.51,0,24.5,12.04,24.5,25.55c0,13.51-10.99,25.62-24.5,25.62c-13.51,0-24.5-11.13-24.5-25.62
			C124.61,100.26,135.6,89.2,149.11,89.2z M149.11,130.23c9.73,0,14-8.26,14-15.47c0-7.21-4.27-15.4-14-15.4s-14,8.19-14,15.4
			C135.11,121.97,139.38,130.23,149.11,130.23z"/>
		<path d="M186.91,139.26h-11.97l17.29-25.62l-16.24-23.38h12.11l8.26,13.72c1.12,1.89,0.98,4.55,0.98,6.72h1.75
			c0-2.17-0.07-4.83,1.12-6.72l8.61-13.72h12.11l-16.52,24.29l17.57,24.71h-11.97l-9.8-15.26c-1.19-1.89-1.12-4.55-1.12-6.72h-1.75
			c0,2.17,0.14,4.9-0.98,6.72L186.91,139.26z"/>
		<path d="M228,90.25h10.5v49H228V90.25z"/>
		<path d="M244.8,114.69c0.07-14.56,10.92-25.48,25.69-25.48c16.17,0,22.61,8.75,23.38,17.99h-10.43c-1.05-3.36-2.8-7.84-12.74-7.84
			c-8.47,0-15.4,4.9-15.4,15.4c0,10.43,6.86,15.4,15.26,15.4c10.57,0,12.53-4.48,13.58-7.91h10.43
			c-1.26,11.34-8.19,18.06-23.73,18.06C255.86,140.31,244.87,129.32,244.8,114.69z"/>
		<path d="M321.52,89.2c13.51,0,24.5,12.04,24.5,25.55c0,13.51-10.99,25.62-24.5,25.62c-13.51,0-24.5-11.13-24.5-25.62
			C297.02,100.26,308.01,89.2,321.52,89.2z M321.52,130.23c9.73,0,14-8.26,14-15.47c0-7.21-4.27-15.4-14-15.4s-14,8.19-14,15.4
			C307.52,121.97,311.79,130.23,321.52,130.23z"/>
		<path d="M386.34,103.13c-4.06-3.71-9.1-5.39-15.82-5.39c-3.99,0-7.56,1.61-7.56,4.27c0,6.51,32.41,5.6,32.41,23.31
			c0,8.96-9.73,14.98-24.15,14.98c-8.96,0-14.56-2.59-21-9.73l7.42-5.95c3.64,3.85,7.14,5.95,15.19,5.95c5.88,0,9.31-2.1,9.31-5.11
			c0-8.26-30.66-7.56-30.66-22.89c0-7.7,9.17-13.37,21.7-13.37c7.63,0,14.07,2.45,20.51,7.84L386.34,103.13z"/>
	</g>
</g>
<polygon points="155.22,75.09 144.03,88.26 148.93,93.16 162.1,81.97 "/>
<path class="st2" d="M163.51,80.56l-6.88-6.88l-1.53-1.53l-1.4,1.65l-11.19,13.17l-1.19,1.41l1.3,1.3l4.9,4.9l1.3,1.3l1.41-1.19
	l13.17-11.19l1.65-1.4L163.51,80.56z M162.1,81.97l-13.17,11.19l-4.9-4.9l11.19-13.17L162.1,81.97z"/>
<g>
	<path d="M89.98,342.97c3.41,0,5.14,3.02,5.14,7.03c0,4.01-1.73,7.05-5.14,7.05c-3.43,0-5.16-3.04-5.16-7.05
		C84.82,345.99,86.55,342.97,89.98,342.97z M89.98,355.31c2.37,0,3.31-2.54,3.31-5.32c0-2.77-0.94-5.28-3.31-5.28
		c-2.39,0-3.33,2.5-3.33,5.28C86.65,352.77,87.59,355.31,89.98,355.31z"/>
	<path d="M97.1,344.93v-1.67h9.42v1.67c-1.77,2.04-5.93,7.57-6.39,11.8h-2.06c0.37-3.89,3.68-8.84,5.49-11.07
		c0.35-0.44,1.02-0.73,1.54-0.96l-0.15-0.31c-0.5,0.23-1.16,0.54-1.71,0.54H97.1z"/>
	<path d="M108.4,354.75h1.98v1.98h-1.98V354.75z"/>
	<path d="M114.83,355.26l0.13,0.33c0.52-0.23,1.17-0.54,1.73-0.54h5.28v1.69h-8.84v-1.66c1.41-1.42,2.46-2.68,5.12-5.26
		c3-2.93,1.56-5.04-0.46-5.04c-2.06,0-2.52,1.35-2.52,2.62h-1.91c0-1.96,1.1-4.43,4.68-4.43c3.33,0,5.22,3.91,2.73,6.62
		c-1.69,1.87-3.47,3.77-4.37,4.76C116.03,354.77,115.35,355.04,114.83,355.26z"/>
	<path d="M129.16,342.97c3.41,0,5.14,3.02,5.14,7.03c0,4.01-1.73,7.05-5.14,7.05c-3.43,0-5.16-3.04-5.16-7.05
		C124,345.99,125.73,342.97,129.16,342.97z M129.16,355.31c2.37,0,3.31-2.54,3.31-5.32c0-2.77-0.94-5.28-3.31-5.28
		c-2.39,0-3.33,2.5-3.33,5.28C125.82,352.77,126.77,355.31,129.16,355.31z"/>
	<path d="M137.88,355.26l0.13,0.33c0.52-0.23,1.17-0.54,1.73-0.54h5.28v1.69h-8.84v-1.66c1.41-1.42,2.46-2.68,5.12-5.26
		c3-2.93,1.56-5.04-0.46-5.04c-2.06,0-2.52,1.35-2.52,2.62h-1.91c0-1.96,1.1-4.43,4.68-4.43c3.33,0,5.22,3.91,2.73,6.62
		c-1.69,1.87-3.47,3.77-4.37,4.76C139.07,354.77,138.4,355.04,137.88,355.26z"/>
	<path d="M152.2,342.97c3.41,0,5.14,3.02,5.14,7.03c0,4.01-1.73,7.05-5.14,7.05c-3.43,0-5.16-3.04-5.16-7.05
		C147.04,345.99,148.77,342.97,152.2,342.97z M152.2,355.31c2.37,0,3.31-2.54,3.31-5.32c0-2.77-0.94-5.28-3.31-5.28
		c-2.39,0-3.33,2.5-3.33,5.28C148.87,352.77,149.81,355.31,152.2,355.31z"/>
	<path d="M97.9,373.58h-0.27c0,0.27-0.69,2.62-3.25,2.7c-0.27,0.02-0.52,0-0.75-0.02c-2.58-0.29-4.39-2.46-4.39-5.14
		s1.85-4.74,4.45-5.01c0.27-0.02,0.52-0.04,0.79-0.02c1.27,0.04,2.31,0.5,2.97,1.21c0.39,0.42,0.5,1.12,0.67,1.6l0.33-0.12
		c-0.17-0.48-0.48-1.08-0.5-1.6l-0.04-0.75h1.54v7.78c0,1.35,0.35,1.66,1.02,1.66c1.64,0,1.58-3.35,1.58-4.53
		c-0.02-4.85-3.47-7.76-7.45-7.76c-4.22,0-7.49,3.14-7.49,7.68c0,4.83,3.7,7.22,7.72,7.22c0.77,0,1.54-0.08,2.31-0.25l0.4,1.62
		c-0.94,0.19-1.85,0.27-2.73,0.27c-5.39,0-9.4-3.37-9.38-8.9c0-5.45,3.89-9.26,9.13-9.26c5.18,0,9.17,3.72,9.19,9.28
		c0,4.06-1.21,6.12-3.29,6.12c-1.54,0-2.54-0.98-2.54-2.52V373.58z M94.31,374.66c2.14,0,3.22-1.73,3.33-3.54
		c0-2.14-1.19-3.43-3.31-3.43c-2.18,0-3.33,1.5-3.33,3.43C91,373.06,92.14,374.66,94.31,374.66z"/>
	<path d="M109.46,375.99v-11.82h-3.87v-1.66h9.55v1.66h-3.87v11.82H109.46z"/>
	<path d="M122.92,362.22c3.72,0,6.45,3.08,6.45,7.03c0,3.93-2.73,7.05-6.45,7.05s-6.45-3.04-6.45-7.05
		C116.47,365.24,119.2,362.22,122.92,362.22z M122.92,374.56c2.89,0,4.64-2.6,4.64-5.32c0-2.73-1.75-5.29-4.64-5.29
		c-2.91,0-4.66,2.56-4.66,5.29C118.26,371.96,120.01,374.56,122.92,374.56z"/>
	<path d="M132.24,375.99h-1.91l4.6-7.05l-4.31-6.43h2.06l2.91,4.54c0.27,0.4,0.25,0.96,0.25,1.44h0.33
		c0.02-0.46,0.02-1.04,0.29-1.42l3.18-4.56h1.91l-4.41,6.68l4.7,6.8h-2.06l-3.31-4.97c-0.27-0.39-0.27-0.96-0.27-1.44h-0.33
		c0,0.48-0.02,1.04-0.27,1.44L132.24,375.99z"/>
	<path d="M143.77,362.51h1.79v13.48h-1.79V362.51z"/>
	<path d="M147,369.23c0.02-4.01,2.83-7.01,6.66-7.01c3.43,0,5.68,1.89,6.05,4.53h-1.87c-0.39-1.52-1.58-2.81-4.18-2.81
		c-2.83,0-4.85,2.35-4.85,5.3c0,2.96,2.04,5.33,4.89,5.33c2.66,0,3.87-1.29,4.26-2.81h1.87c-0.4,2.77-2.7,4.53-6.1,4.53
		C149.85,376.28,147.02,373.25,147,369.23z"/>
	<path d="M167.62,362.22c3.72,0,6.45,3.08,6.45,7.03c0,3.93-2.73,7.05-6.45,7.05c-3.72,0-6.45-3.04-6.45-7.05
		C161.17,365.24,163.9,362.22,167.62,362.22z M167.62,374.56c2.89,0,4.64-2.6,4.64-5.32c0-2.73-1.75-5.29-4.64-5.29
		c-2.91,0-4.66,2.56-4.66,5.29C162.96,371.96,164.71,374.56,167.62,374.56z"/>
	<path d="M184.7,365.55c-0.46-0.9-1.75-1.73-3.64-1.73c-1.64,0-3.31,0.67-3.31,1.94c0,2.23,8.86,1.98,8.86,6.53
		c0,2.73-2.62,3.99-5.58,3.99c-2.77,0-4.62-1.44-5.37-3.37l1.68-0.42c0.62,1.48,2.2,2.12,3.77,2.12c2.18,0,3.52-0.89,3.52-2.08
		c0-3.18-8.74-2.54-8.74-6.68c0-2.5,2.77-3.62,5.37-3.62c2.73,0,4.53,1.48,5.1,2.91L184.7,365.55z"/>
	<path d="M192.28,362.47h2.29l5.26,13.5h-1.98l-1.89-4.79h-4.99l-1.75,4.79h-2L192.28,362.47z M193.67,365.03
		c-0.15-0.35-0.08-0.83-0.08-1.21h-0.35c0,0.38,0.08,0.87-0.06,1.21l-1.93,4.64h4.33L193.67,365.03z"/>
	<path d="M203.27,370.35v5.64h-1.81v-13.48h4.37c2.87,0,5.24,0.62,5.24,3.85c0,3.23-2.35,4-5.47,4
		C205.08,370.37,204.2,370.37,203.27,370.35z M205.7,368.75c1.87,0,3.58-0.15,3.58-2.43c0-2.16-1.58-2.18-3.58-2.18h-2.43v4.6H205.7
		z"/>
	<path d="M214.86,370.35v5.64h-1.81v-13.48h4.37c2.87,0,5.24,0.62,5.24,3.85c0,3.23-2.35,4-5.47,4
		C216.67,370.37,215.78,370.37,214.86,370.35z M217.29,368.75c1.87,0,3.58-0.15,3.58-2.43c0-2.16-1.58-2.18-3.58-2.18h-2.43v4.6
		H217.29z"/>
	<path d="M227.43,362.47h2.29l5.26,13.5H233l-1.89-4.79h-4.99l-1.75,4.79h-2L227.43,362.47z M228.82,365.03
		c-0.15-0.35-0.08-0.83-0.08-1.21h-0.35c0,0.38,0.08,0.87-0.06,1.21l-1.93,4.64h4.33L228.82,365.03z"/>
	<path d="M245.59,372.62c0.21,0.77,1.04,3.37,1.04,3.37h-1.83c-0.44-1.69-0.79-2.95-0.87-3.22c-0.64-2.18-2.08-2.23-2.83-2.27
		c-0.15,0.02-0.31,0.02-0.5,0.02c-0.5,0-1.44-0.02-2.16-0.02v5.49h-1.77v-13.48h4.29c2.91,0,5.33,0.62,5.33,3.77
		c0,1.85-1.06,2.62-2.39,3.14c-0.48,0.19-1.17,0.12-1.69,0.12v0.35c0.52,0,1.23-0.15,1.69,0.12
		C244.66,370.41,245.22,371.19,245.59,372.62z M238.44,368.9h2.46c1.87,0,3.58-0.35,3.58-2.58c0-2.18-1.58-2.33-3.58-2.33h-2.46
		V368.9z"/>
	<path d="M249.05,362.51h9.01v1.66h-7.24v4.06h6.76v1.66h-6.76v4.45h7.34v1.66h-9.11V362.51z"/>
	<path d="M269.03,374.33v1.66h-8.59v-13.48h1.77v11.82H269.03z"/>
</g>
<g>
	<path d="M453.46,243.12h1.68v8.98h-1.68V243.12z"/>
	<path d="M458.35,252.1h-1.48v-9.18h3.76c2.54,0,4.47,1.82,4.47,4.49c0,2.67-1.99,4.71-4.53,4.7L458.35,252.1z M460.33,250.53
		c1.8,0,3.14-1.46,3.14-3.08c0-1.63-1.28-2.93-3.08-2.93h-1.83v6.01H460.33z"/>
	<path d="M466.45,243.12h6.26v1.57h-4.63v2.05h4.31v1.57h-4.31v2.23h4.7v1.57h-6.33V243.12z"/>
	<path d="M475.56,252.1h-1.68v-8.98h1.68l4.09,5.43c0.33,0.44,0.54,1.14,0.72,1.67l0.28-0.09c-0.18-0.53-0.44-1.21-0.44-1.77v-5.24
		h1.68v8.98h-1.68l-4.09-5.42c-0.35-0.45-0.55-1.14-0.73-1.68l-0.27,0.1c0.18,0.53,0.44,1.21,0.44,1.77V252.1z"/>
	<path d="M485.47,252.1v-7.42h-2.4v-1.57h6.48v1.57h-2.4v7.42H485.47z"/>
	<path d="M490.92,243.12h1.68v8.98h-1.68V243.12z"/>
	<path d="M495.81,252.1h-1.48v-9.18h3.76c2.54,0,4.47,1.82,4.47,4.49c0,2.67-1.99,4.71-4.53,4.7L495.81,252.1z M497.79,250.53
		c1.8,0,3.14-1.46,3.14-3.08c0-1.63-1.28-2.93-3.08-2.93h-1.83v6.01H497.79z"/>
	<path d="M506.01,243.1h1.92l3.46,9h-1.76l-1.21-3.13h-2.86l-1.1,3.13h-1.77L506.01,243.1z M507.18,245.32
		c-0.12-0.27-0.05-0.64-0.05-0.92h-0.3c0,0.28,0.06,0.66-0.05,0.92l-1.05,2.39h2.5L507.18,245.32z"/>
	<path d="M513.83,252.1h-1.48v-9.18h3.76c2.54,0,4.47,1.82,4.47,4.49c0,2.67-1.99,4.71-4.53,4.7L513.83,252.1z M515.81,250.53
		c1.8,0,3.14-1.46,3.14-3.08c0-1.63-1.28-2.93-3.08-2.93h-1.83v6.01H515.81z"/>
	<path d="M532.42,251.39c0-0.51,0.23-1.16,0.36-1.66l-0.27-0.06c-0.14,0.49-0.17,1.22-0.51,1.6c-0.45,0.49-1.28,1.04-2.61,1.04
		c-2.64,0-4.7-2.03-4.7-4.7s2.01-4.68,4.77-4.68c1.99,0,3.59,0.92,4.2,2.54c0,0-1.68,0.39-1.67,0.37c-0.4-0.82-1.37-1.32-2.63-1.32
		c-1.77,0-2.99,1.28-2.99,3.09s1.31,3.11,3.21,3.11c2.04,0,2.64-1.32,2.64-2.03h-2.41v-1.45h4.22v4.86h-1.62V251.39z"/>
	<path d="M541.9,249.86c0.12,0.51,0.68,2.25,0.68,2.25h-1.73c-0.28-1.13-0.5-1.96-0.54-2.14c-0.41-1.45-1.31-1.3-1.78-1.32
		c-0.09,0-0.19,0-0.31,0c-0.31,0-0.96,0-1.12,0v3.46h-1.63v-8.98h3.21c2.02,0,3.68,0.41,3.68,2.51c0,1.16-0.6,1.67-1.41,2.01
		c-0.42,0.19-1.04,0.12-1.5,0.12v0.3c0.46,0,1.12-0.13,1.5,0.13C541.46,248.5,541.69,249.05,541.9,249.86z M537.1,247.25h1.45
		c1.12,0,2.13-0.45,2.13-1.59c0-1.13-0.94-1.42-2.13-1.42h-1.45V247.25z"/>
	<path d="M546.09,243.1h1.92l3.46,9h-1.76l-1.21-3.13h-2.86l-1.1,3.13h-1.77L546.09,243.1z M547.26,245.32
		c-0.12-0.27-0.05-0.64-0.05-0.92h-0.3c0,0.28,0.06,0.66-0.05,0.92l-1.05,2.39h2.5L547.26,245.32z"/>
	<path d="M553.87,244.75v2.31h3.88v1.62h-3.88v3.43h-1.68v-8.98h6.26v1.63H553.87z"/>
	<path d="M560.03,243.12h1.68v8.98h-1.68V243.12z"/>
	<path d="M562.8,247.6c0-2.67,1.96-4.67,4.62-4.67c2.73,0,4.02,1.49,4.2,3.21h-1.69c-0.21-0.76-0.69-1.59-2.49-1.59
		c-1.66,0-2.95,1.13-2.95,3.07c0,1.92,1.28,3.07,2.95,3.07c1.89,0,2.39-0.83,2.6-1.59h1.69c-0.24,2-1.6,3.21-4.26,3.21
		C564.79,252.3,562.8,250.28,562.8,247.6z"/>
	<path d="M575.26,243.1h1.92l3.46,9h-1.76l-1.21-3.13h-2.86l-1.1,3.13h-1.77L575.26,243.1z M576.43,245.32
		c-0.12-0.27-0.05-0.64-0.05-0.92h-0.3c0,0.28,0.06,0.66-0.05,0.92l-1.05,2.39h2.5L576.43,245.32z"/>
</g>
<g>
	<path d="M548.32,238.92l1.13,1.13l-2.39,2.08l-0.82-0.82L548.32,238.92z"/>
</g>
</svg>
