<?xml version="1.0" encoding="utf-8"?>
<!-- Generator: Adobe Illustrator 25.0.0, SVG Export Plug-In . SVG Version: 6.00 Build 0)  -->
<svg version="1.1" id="Layer_1" xmlns="http://www.w3.org/2000/svg" xmlns:xlink="http://www.w3.org/1999/xlink" x="0px" y="0px"
	 viewBox="0 0 1162 356" style="enable-background:new 0 0 1162 356;" xml:space="preserve">
<g>
	<polygon style="fill:#ED664D;" points="832.8,71.95 797.61,38.9 769.03,76.53 721.56,65.87 715.99,113.66 669.76,127.94 
		688.42,171.86 655.3,207.32 694.42,236.53 684.5,281.52 732.27,288.79 745.44,333.73 789.75,316.08 824.68,349.04 853.22,309.84 
		899.89,320.84 906.72,272.99 952.48,259.25 934.01,214.53 966.43,180.13 928.09,151.29 938.74,104.56 891.04,98.38 877.43,51.93 	
		"/>
	<circle style="fill:#1147CD;" cx="287.2" cy="158.52" r="155.57"/>
	<g>
		<path style="fill:#F4F4F4;" d="M116.15,219.91c3.2,8.6,15.28,37.53,15.28,37.53l-20.94,1.84c-6.77-18.95-11.99-32.93-13.15-35.94
			c-9.46-24.27-26.05-23.48-34.68-23.17c-1.74,0.37-3.51,0.53-5.71,0.72c-5.73,0.5-16.55,1.23-24.7,1.94l5.51,62.81l-20.28,1.78
			L3.96,113.15l49.15-4.31c33.28-2.92,61.67,1.7,64.84,37.85c1.86,21.16-9.49,31.04-24.18,38.32c-5.32,2.69-13.33,2.5-19.28,3.02
			l0.35,3.97c5.95-0.52,13.95-3,19.51-0.38C103.35,195.49,110.53,203.97,116.15,219.91z M30.65,184.54l28.21-2.47
			c21.38-1.88,40.65-7.56,38.41-33.13c-2.18-24.91-20.41-25.08-43.33-23.07l-28.21,2.47L30.65,184.54z"/>
		<path style="fill:#F4F4F4;" d="M148.34,120.87h103.54v19.03H168.7v46.68h77.66v19.03H168.7v51.11H253v19.03H148.34V120.87z"/>
		<path style="fill:#F4F4F4;" d="M266.68,179.86c3.48-45.89,38.14-78.03,82.06-74.91c39.28,2.79,63.57,26.25,65.62,56.78
			l-21.41-1.52c-3.18-17.75-15.81-33.51-45.6-35.62c-32.44-2.3-57.53,22.98-59.92,56.74c-2.41,33.99,19.05,62.79,51.72,65.11
			c30.45,2.16,45.41-11.64,51.06-28.76l21.41,1.52c-6.89,31.45-34.58,49.67-73.64,46.9C293.6,262.95,263.62,226,266.68,179.86z"/>
		<path style="fill:#F4F4F4;" d="M447.45,107.18l20.4,2.69l-20.22,153.55l-20.4-2.69L447.45,107.18z"/>
		<path style="fill:#F4F4F4;" d="M510.42,110.51l100.47,25.06l-4.6,18.46l-80.72-20.13l-11.3,45.3l75.35,18.79l-4.6,18.46
			l-75.35-18.79l-12.37,49.59l81.79,20.4l-4.6,18.46l-101.54-25.33L510.42,110.51z"/>
		<path style="fill:#F4F4F4;" d="M656.88,266.09l-20.5,1.72l-12.91-154.33l20.5-1.72l86.06,99.81c6.38,7.24,11.34,18.81,15.2,27.81
			l3.42-1.62c-3.62-8.8-8.59-20.37-9.4-30.07l-8.63-103.18l20.72-1.73l12.91,154.33l-20.72,1.73l-86.04-99.59
			c-6.38-7.24-11.12-18.83-14.98-27.83l-3.64,1.64c3.84,8.78,8.59,20.37,9.4,30.07L656.88,266.09z"/>
		<path style="fill:#F4F4F4;" d="M840.92,250.31l-24.87-133.55l-43.72,8.14l-3.48-18.71L876.73,86.1l3.48,18.71l-43.72,8.14
			l24.87,133.55L840.92,250.31z"/>
		<path style="fill:#F4F4F4;" d="M907.69,103.58l103.15,9.05l-1.66,18.95l-82.87-7.27l-4.08,46.51l77.36,6.79l-1.66,18.95
			l-77.36-6.79l-4.47,50.91l83.97,7.37L998.41,267l-104.25-9.15L907.69,103.58z"/>
		<path style="fill:#F4F4F4;" d="M1140.52,148.97c-3.8-11.04-17.15-22.53-38.62-25.56c-18.62-2.63-38.76,2.35-40.81,16.81
			c-3.59,25.41,97.59,36.79,90.29,88.49c-4.39,31.11-36.2,41.14-69.93,36.38c-31.55-4.45-50.26-23.85-55.71-46.97l19.74-2.13
			c4.63,17.86,21.57,27.62,39.54,30.16c24.76,3.49,41.51-4.42,43.43-18c5.1-36.15-95.38-42.96-88.73-90.06
			c4.02-28.48,37.36-36.73,66.94-32.56c31.11,4.39,49.1,24.14,53.39,41.28L1140.52,148.97z"/>
	</g>
</g>
</svg>
