<?xml version="1.0" encoding="utf-8"?>
<!-- Generator: Adobe Illustrator 25.0.0, SVG Export Plug-In . SVG Version: 6.00 Build 0)  -->
<svg version="1.1" id="Layer_1" xmlns="http://www.w3.org/2000/svg" xmlns:xlink="http://www.w3.org/1999/xlink" x="0px" y="0px"
	 viewBox="0 0 660.66 756.73" style="enable-background:new 0 0 660.66 756.73;" xml:space="preserve">
<g>
	<path d="M5.04,84.06V66.45h10.45v1.51H6.7v6.62h8.08v1.49H6.7v8L5.04,84.06L5.04,84.06z"/>
	<path d="M28.62,84.06H17.99V66.45h10.63v1.51h-8.97v6.33h8.52v1.49h-8.52v6.76h8.97L28.62,84.06L28.62,84.06z"/>
	<path d="M32,79.36c0.21,2.11,2.17,3.47,4.93,3.47c2.65,0,4.54-1.4,4.54-3.41c0-1.66-1.1-2.66-3.81-3.28l-1.92-0.43
		c-3.5-0.78-4.97-2.28-4.97-4.71c0-2.84,2.56-4.83,6.02-4.83c3.43,0,5.96,2.04,6.05,4.87h-1.67c-0.17-2.01-1.92-3.36-4.42-3.36
		c-2.38,0-4.27,1.25-4.27,3.25c0,1.6,1.09,2.61,3.7,3.2l1.92,0.44c3.63,0.82,5.08,2.2,5.08,4.64c0,3.12-2.51,5.14-6.34,5.14
		c-3.76,0-6.34-2-6.52-4.98H32V79.36z"/>
	<path d="M50.13,84.06v-16.1h-5.81v-1.51h13.31v1.51h-5.82v16.1H50.13z"/>
	<path d="M59.72,84.06V66.45h1.66v17.61L59.72,84.06L59.72,84.06z"/>
	<path d="M69.9,84.06l-6.59-17.61h1.77l5.62,15.54h0.07l5.63-15.54h1.76l-6.59,17.61L69.9,84.06L69.9,84.06z"/>
	<path d="M87.98,78.67h-7.4l-1.95,5.4h-1.77l6.59-17.61h1.66l6.58,17.61h-1.76L87.98,78.67z M81.09,77.23h6.4l-3.16-8.72h-0.07
		L81.09,77.23z"/>
	<path d="M104.12,84.06H93.63V66.45h1.66v16.1h8.83V84.06z"/>
	<path d="M117.3,66.45c5.27,0,8.35,3.23,8.35,8.8c0,5.58-3.06,8.81-8.35,8.81h-5.71V66.45H117.3z M113.26,82.55h3.94
		c4.33,0,6.75-2.61,6.75-7.29c0-4.69-2.42-7.3-6.75-7.3h-3.94V82.55z"/>
	<path d="M138.87,84.06h-10.63V66.45h10.63v1.51h-8.97v6.33h8.52v1.49h-8.52v6.76h8.97V84.06z"/>
	<path d="M156.59,78.67h-7.4l-1.95,5.4h-1.77l6.59-17.61h1.66l6.58,17.61h-1.76L156.59,78.67z M149.69,77.23h6.4l-3.16-8.72h-0.07
		L149.69,77.23z"/>
	<path d="M162.24,84.06V66.45h1.65l10.33,14.71h0.09V66.45h1.65v17.61h-1.61l-10.36-14.72h-0.09v14.72H162.24z"/>
	<path d="M183.87,84.06v-16.1h-5.81v-1.51h13.31v1.51h-5.82v16.1H183.87z"/>
	<path d="M193.46,84.06V66.45h1.66v17.61L193.46,84.06L193.46,84.06z"/>
	<path d="M205.62,84.34c-4.77,0-7.91-3.64-7.91-9.19c0-5.46,3.1-8.98,7.91-8.98c3.7,0,6.54,2.21,7.2,5.58h-1.73
		c-0.72-2.51-2.78-4.03-5.47-4.03c-3.82,0-6.2,2.84-6.2,7.43c0,4.65,2.43,7.64,6.2,7.64c3.41,0,5.65-2.17,5.65-5.49v-0.62h-5.47
		v-1.46h7.13v1.7C212.93,81.56,210.2,84.34,205.62,84.34z"/>
	<path d="M217.28,77.81c0,2.95,1.93,4.98,5.15,4.98c3.23,0,5.15-2.03,5.15-4.98V66.45h1.67v11.46c0,3.8-2.59,6.43-6.82,6.43
		s-6.81-2.64-6.81-6.43V66.45h1.66V77.81z"/>
	<path d="M242.11,78.67h-7.4l-1.95,5.4h-1.77l6.59-17.61h1.66l6.58,17.61h-1.76L242.11,78.67z M235.21,77.23h6.4l-3.16-8.72h-0.07
		L235.21,77.23z"/>
</g>
<g>
	<path d="M15.67,164.06H5.04v-17.61h10.63v1.51H6.7v6.33h8.52v1.49H6.7v6.76h8.97V164.06z"/>
	<path d="M29,164.06H18.51v-17.61h1.66v16.1H29V164.06z"/>
	<path d="M51.76,155.26c0,5.58-3.09,9.08-8.01,9.08c-4.91,0-8-3.5-8-9.08s3.09-9.09,8-9.09S51.76,149.68,51.76,155.26z
		 M37.47,155.26c0,4.62,2.43,7.53,6.29,7.53s6.3-2.92,6.3-7.53c0-4.63-2.44-7.54-6.3-7.54S37.47,150.64,37.47,155.26z"/>
	<path d="M54.68,160.02c0.07,1.68,1.38,2.86,3.2,2.86c2.15,0,3.38-1.31,3.38-3.66v-12.77h1.66v12.79c0,3.23-1.88,5.19-5.04,5.19
		c-2.82,0-4.82-1.82-4.85-4.41L54.68,160.02L54.68,160.02z"/>
	<path d="M81.51,155.26c0,5.58-3.09,9.08-8.01,9.08c-4.91,0-8-3.5-8-9.08s3.09-9.09,8-9.09S81.51,149.68,81.51,155.26z
		 M67.22,155.26c0,4.62,2.43,7.53,6.29,7.53s6.3-2.92,6.3-7.53c0-4.63-2.44-7.54-6.3-7.54S67.22,150.64,67.22,155.26z"/>
	<path d="M94.93,146.45c5.27,0,8.35,3.23,8.35,8.8c0,5.58-3.06,8.81-8.35,8.81h-5.71v-17.61H94.93z M90.89,162.55h3.94
		c4.33,0,6.75-2.61,6.75-7.29c0-4.69-2.42-7.3-6.75-7.3h-3.94V162.55z"/>
	<path d="M116.5,164.06h-10.63v-17.61h10.63v1.51h-8.97v6.33h8.52v1.49h-8.52v6.76h8.97V164.06z"/>
	<path d="M124.46,164.06v-17.61h1.66v17.61H124.46z"/>
	<path d="M129.41,164.06v-17.61h6.34c3.03,0,5.08,1.75,5.08,4.35c0,1.95-1.34,3.62-3.22,3.97v0.09c2.44,0.29,4.14,1.94,4.14,4.38
		c0,3-2.23,4.83-5.96,4.83h-6.38V164.06z M131.07,154.27h3.83c2.67,0,4.24-1.22,4.24-3.3c0-1.92-1.4-3.05-3.75-3.05h-4.32V154.27z
		 M135.55,162.59c2.88,0,4.48-1.26,4.48-3.44c0-2.2-1.66-3.43-4.7-3.43h-4.26v6.87H135.55z"/>
	<path d="M154.76,164.06h-10.63v-17.61h10.63v1.51h-8.97v6.33h8.52v1.49h-8.52v6.76h8.97C154.76,162.54,154.76,164.06,154.76,164.06
		z"/>
	<path d="M159.26,164.06h-1.66v-17.61h6.21c3.44,0,5.64,2.01,5.64,5.15c0,2.49-1.42,4.37-3.77,4.98l4.27,7.48H168l-4.05-7.21
		c-0.06,0-0.18,0-0.27,0h-4.42V164.06z M159.26,155.37h4.42c2.56,0,4.05-1.37,4.05-3.72c0-2.33-1.55-3.71-4.11-3.71h-4.36V155.37z"
		/>
	<path d="M187.46,155.26c0,5.58-3.09,9.08-8.01,9.08c-4.91,0-8-3.5-8-9.08s3.09-9.09,8-9.09S187.46,149.68,187.46,155.26z
		 M173.16,155.26c0,4.62,2.43,7.53,6.29,7.53s6.3-2.92,6.3-7.53c0-4.63-2.44-7.54-6.3-7.54S173.16,150.64,173.16,155.26z"/>
	<path d="M199.24,158.67h-7.4l-1.95,5.4h-1.77l6.59-17.61h1.66l6.58,17.61h-1.76L199.24,158.67z M192.34,157.23h6.4l-3.16-8.72
		h-0.07L192.34,157.23z"/>
	<path d="M220.29,164.06v-14.45h-0.07l-6.13,14.45h-1.45l-6.12-14.45h-0.07v14.45h-1.56v-17.61h1.92l6.53,15.49h0.07l6.52-15.49
		h1.93v17.61H220.29z"/>
	<path d="M235.79,164.06h-10.63v-17.61h10.63v1.51h-8.97v6.33h8.51v1.49h-8.52v6.76h8.97v1.52H235.79z M229.94,145.06l2.25-3.53
		h1.83l-2.78,3.53H229.94z"/>
	<path d="M240.29,164.06h-1.66v-17.61h6.21c3.44,0,5.64,2.01,5.64,5.15c0,2.49-1.42,4.37-3.77,4.98l4.27,7.48h-1.95l-4.05-7.21
		c-0.06,0-0.18,0-0.27,0h-4.42V164.06z M240.29,155.37h4.42c2.56,0,4.05-1.37,4.05-3.72c0-2.33-1.55-3.71-4.11-3.71h-4.36
		C240.29,147.94,240.29,155.37,240.29,155.37z"/>
	<path d="M253.19,164.06v-17.61h1.66v17.61H253.19z"/>
	<path d="M257.44,155.21c0-5.52,3.06-9.04,7.85-9.04c3.72,0,6.67,2.43,7.14,5.87h-1.67c-0.49-2.54-2.73-4.32-5.47-4.32
		c-3.74,0-6.14,2.92-6.14,7.49c0,4.64,2.4,7.58,6.15,7.58c2.81,0,4.93-1.5,5.46-3.94h1.67c-0.62,3.43-3.32,5.49-7.14,5.49
		C260.49,164.34,257.44,160.79,257.44,155.21z"/>
	<path d="M284.64,158.67h-7.4l-1.95,5.4h-1.77l6.59-17.61h1.66l6.58,17.61h-1.76L284.64,158.67z M277.74,157.23h6.4l-3.16-8.72
		h-0.08L277.74,157.23z"/>
</g>
<g>
	<path d="M15.67,244.06H5.04v-17.61h10.63v1.51H6.7v6.33h8.52v1.49H6.7v6.76h8.97V244.06z"/>
	<path d="M18.51,244.06v-17.61h10.45v1.51h-8.79v6.62h8.08v1.49h-8.08v8L18.51,244.06L18.51,244.06z"/>
	<path d="M31.46,244.06v-17.61h10.45v1.51h-8.79v6.62h8.08v1.49h-8.08v8L31.46,244.06L31.46,244.06z"/>
	<path d="M44.42,244.06v-17.61h1.66v17.61H44.42z"/>
	<path d="M60,244.06H49.37v-17.61H60v1.51h-8.97v6.33h8.52v1.49h-8.52v6.76H60V244.06z"/>
	<path d="M78.45,244.06H67.96v-17.61h1.66v16.1h8.83V244.06z"/>
	<path d="M90.56,238.67h-7.4l-1.95,5.4h-1.77l6.59-17.61h1.66l6.58,17.61h-1.76L90.56,238.67z M83.66,237.23h6.4l-3.16-8.72h-0.07
		L83.66,237.23z"/>
	<path d="M98.36,244.06v-16.1h-5.81v-1.51h13.31v1.51h-5.82v16.1H98.36z"/>
	<path d="M107.95,244.06v-17.61h1.66v17.61H107.95z"/>
	<path d="M112.91,244.06v-17.61h1.65l10.33,14.71h0.09v-14.71h1.65v17.61h-1.61l-10.36-14.72h-0.09v14.72H112.91z"/>
	<path d="M145.21,235.26c0,5.58-3.09,9.08-8.01,9.08c-4.91,0-8-3.5-8-9.08s3.09-9.09,8-9.09S145.21,229.68,145.21,235.26z
		 M130.91,235.26c0,4.62,2.43,7.53,6.29,7.53s6.3-2.92,6.3-7.53c0-4.63-2.44-7.54-6.3-7.54S130.91,230.64,130.91,235.26z"/>
	<path d="M156.99,238.67h-7.4l-1.95,5.4h-1.77l6.59-17.61h1.66l6.58,17.61h-1.76L156.99,238.67z M150.09,237.23h6.4l-3.16-8.72
		h-0.07L150.09,237.23z"/>
	<path d="M178.05,244.06v-14.45h-0.07l-6.13,14.45h-1.45l-6.12-14.45h-0.07v14.45h-1.56v-17.61h1.92l6.53,15.49h0.07l6.52-15.49
		h1.93v17.61H178.05z"/>
	<path d="M193.54,244.06h-10.63v-17.61h10.63v1.51h-8.97v6.33h8.52v1.49h-8.52v6.76h8.97C193.54,242.54,193.54,244.06,193.54,244.06
		z M187.69,225.06l2.25-3.53h1.83l-2.78,3.53H187.69z"/>
	<path d="M198.04,244.06h-1.66v-17.61h6.21c3.44,0,5.64,2.01,5.64,5.15c0,2.49-1.42,4.37-3.77,4.98l4.27,7.48h-1.95l-4.05-7.21
		c-0.06,0-0.18,0-0.27,0h-4.42V244.06z M198.04,235.37h4.42c2.56,0,4.05-1.37,4.05-3.72c0-2.33-1.55-3.71-4.11-3.71h-4.36V235.37z"
		/>
	<path d="M210.94,244.06v-17.61h1.66v17.61H210.94z"/>
	<path d="M215.19,235.21c0-5.52,3.06-9.04,7.85-9.04c3.72,0,6.67,2.43,7.14,5.87h-1.67c-0.49-2.54-2.73-4.32-5.47-4.32
		c-3.74,0-6.14,2.92-6.14,7.49c0,4.64,2.4,7.58,6.15,7.58c2.81,0,4.93-1.5,5.46-3.94h1.67c-0.62,3.43-3.32,5.49-7.14,5.49
		C218.24,244.34,215.19,240.79,215.19,235.21z"/>
	<path d="M242.39,238.67h-7.4l-1.95,5.4h-1.77l6.59-17.61h1.66l6.58,17.61h-1.76L242.39,238.67z M235.49,237.23h6.4l-3.16-8.72
		h-0.07L235.49,237.23z"/>
</g>
<g>
	<path d="M10.32,324.06H8.77l-4.85-17.61h1.73l3.88,15.05H9.6l4.26-15.05h1.66l4.25,15.05h0.09l3.87-15.05h1.75l-4.86,17.61h-1.54
		l-4.33-14.76h-0.1L10.32,324.06z"/>
	<path d="M33.66,306.45c3.37,0,5.65,2.21,5.65,5.48s-2.31,5.49-5.66,5.49h-4.32v6.64h-1.66v-17.61
		C27.67,306.45,33.66,306.45,33.66,306.45z M29.33,315.93h3.94c2.71,0,4.33-1.5,4.33-4s-1.61-3.99-4.33-3.99h-3.94V315.93z"/>
	<path d="M47.7,306.45c3.37,0,5.65,2.21,5.65,5.48s-2.31,5.49-5.66,5.49h-4.32v6.64h-1.66v-17.61
		C41.71,306.45,47.7,306.45,47.7,306.45z M43.37,315.93h3.94c2.71,0,4.33-1.5,4.33-4s-1.61-3.99-4.33-3.99h-3.94V315.93z"/>
	<path d="M66.38,324.06H55.75v-17.61h10.63v1.51h-8.97v6.33h8.52v1.49h-8.52v6.76h8.97V324.06z"/>
	<path d="M74.93,306.45c5.27,0,8.35,3.23,8.35,8.8c0,5.58-3.06,8.81-8.35,8.81h-5.71v-17.61H74.93z M70.89,322.55h3.94
		c4.33,0,6.75-2.61,6.75-7.29c0-4.69-2.42-7.3-6.75-7.3h-3.94V322.55z"/>
	<path d="M90.28,315.21c0-5.52,3.06-9.04,7.85-9.04c3.72,0,6.67,2.43,7.14,5.87h-1.67c-0.49-2.54-2.73-4.32-5.47-4.32
		c-3.74,0-6.14,2.92-6.14,7.49c0,4.64,2.4,7.58,6.15,7.58c2.81,0,4.93-1.5,5.46-3.94h1.67c-0.62,3.43-3.32,5.49-7.14,5.49
		C93.33,324.34,90.28,320.79,90.28,315.21z"/>
	<path d="M109.38,324.06h-1.66v-17.61h6.21c3.44,0,5.64,2.01,5.64,5.15c0,2.49-1.42,4.37-3.77,4.98l4.27,7.48h-1.95l-4.05-7.21
		c-0.06,0-0.18,0-0.27,0h-4.42V324.06z M109.38,315.37h4.42c2.56,0,4.05-1.37,4.05-3.72c0-2.33-1.55-3.71-4.11-3.71h-4.36V315.37z"
		/>
	<path d="M132.92,324.06h-10.63v-17.61h10.63v1.51h-8.97v6.33h8.52v1.49h-8.52v6.76h8.97V324.06z"/>
	<path d="M145.51,318.67h-7.4l-1.95,5.4h-1.77l6.59-17.61h1.66l6.58,17.61h-1.76L145.51,318.67z M138.62,317.23h6.4l-3.16-8.72
		h-0.07L138.62,317.23z"/>
	<path d="M166.57,324.06v-14.45h-0.07l-6.13,14.45h-1.45l-6.12-14.45h-0.07v14.45h-1.56v-17.61h1.92l6.53,15.49h0.07l6.52-15.49
		h1.93v17.61C168.14,324.06,166.57,324.06,166.57,324.06z"/>
	<path d="M186.3,318.67h-7.4l-1.95,5.4h-1.77l6.59-17.61h1.66l6.58,17.61h-1.76L186.3,318.67z M179.4,317.23h6.4l-3.16-8.72h-0.07
		L179.4,317.23z"/>
	<path d="M195.69,324.06h-1.55l-4.85-17.61h1.73l3.88,15.05h0.07l4.26-15.05h1.66l4.25,15.05h0.09l3.87-15.05h1.75l-4.86,17.61
		h-1.54l-4.33-14.76h-0.1L195.69,324.06z"/>
	<path d="M221.2,318.67h-7.4l-1.95,5.4h-1.77l6.59-17.61h1.66l6.58,17.61h-1.76L221.2,318.67z M214.3,317.23h6.4l-3.16-8.72h-0.07
		L214.3,317.23z"/>
	<path d="M228.51,324.06h-1.66v-17.61h6.21c3.44,0,5.64,2.01,5.64,5.15c0,2.49-1.42,4.37-3.77,4.98l4.27,7.48h-1.95l-4.05-7.21
		c-0.06,0-0.18,0-0.27,0h-4.42V324.06z M228.51,315.37h4.42c2.56,0,4.05-1.37,4.05-3.72c0-2.33-1.55-3.71-4.11-3.71h-4.36
		C228.51,307.94,228.51,315.37,228.51,315.37z"/>
	<path d="M247.13,306.45c5.27,0,8.35,3.23,8.35,8.8c0,5.58-3.06,8.81-8.35,8.81h-5.71v-17.61H247.13z M243.09,322.55h3.94
		c4.33,0,6.75-2.61,6.75-7.29c0-4.69-2.42-7.3-6.75-7.3h-3.94V322.55z"/>
	<path d="M258.87,319.36c0.21,2.11,2.17,3.47,4.93,3.47c2.65,0,4.54-1.4,4.54-3.41c0-1.66-1.1-2.66-3.81-3.28l-1.92-0.43
		c-3.5-0.78-4.97-2.28-4.97-4.71c0-2.84,2.56-4.83,6.02-4.83c3.43,0,5.96,2.04,6.05,4.87h-1.67c-0.17-2.01-1.92-3.36-4.42-3.36
		c-2.38,0-4.27,1.25-4.27,3.25c0,1.6,1.09,2.61,3.7,3.2l1.92,0.44c3.63,0.82,5.08,2.2,5.08,4.64c0,3.12-2.51,5.14-6.34,5.14
		c-3.76,0-6.34-2-6.52-4.98h1.68V319.36z"/>
</g>
<g>
	<path d="M5.15,424.06v-21.13h3.69l9.87,13.77h0.12v-13.77h4.23v21.14H19.4l-9.89-13.84H9.38v13.84L5.15,424.06L5.15,424.06z"/>
	<path d="M46.31,413.5c0,6.72-3.94,10.91-10.2,10.91c-6.27,0-10.2-4.19-10.2-10.91c0-6.74,3.93-10.94,10.2-10.94
		C42.37,402.56,46.31,406.76,46.31,413.5z M30.43,413.5c0,4.42,2.21,7.22,5.68,7.22c3.46,0,5.67-2.8,5.67-7.22
		c0-4.44-2.21-7.25-5.67-7.25S30.43,409.06,30.43,413.5z"/>
	<path d="M67.59,424.06V409.8h-0.12l-5.74,14.27h-2.78l-5.74-14.27h-0.12v14.27h-3.94v-21.14h5.13l6.01,15.18h0.12l6.01-15.18h5.13
		v21.14L67.59,424.06L67.59,424.06z"/>
	<path d="M75.05,424.06v-21.13h4.42v21.14L75.05,424.06L75.05,424.06z"/>
	<path d="M82.99,424.06v-21.13h3.69l9.87,13.77h0.12v-13.77h4.23v21.14h-3.66l-9.89-13.84h-0.13v13.84L82.99,424.06L82.99,424.06z"
		/>
	<path d="M116.65,418.94h-7.43l-1.61,5.13h-4.54l7.34-21.14h5.2l7.35,21.14h-4.7L116.65,418.94z M110.18,415.63h5.52l-2.71-8.66
		h-0.1L110.18,415.63z"/>
	<path d="M123.43,413.49c0-6.81,3.88-10.93,10-10.93c5.08,0,8.95,3.22,9.29,7.95h-4.31c-0.41-2.59-2.4-4.29-4.98-4.29
		c-3.34,0-5.49,2.8-5.49,7.25c0,4.51,2.12,7.29,5.51,7.29c2.62,0,4.51-1.54,4.98-4.04h4.31c-0.5,4.72-4.12,7.69-9.3,7.69
		C127.28,424.41,123.43,420.31,123.43,413.49z"/>
	<path d="M145.46,424.06v-21.13h4.42v21.14L145.46,424.06L145.46,424.06z"/>
	<path d="M173.13,413.5c0,6.72-3.94,10.91-10.2,10.91c-6.27,0-10.2-4.19-10.2-10.91c0-6.74,3.93-10.94,10.2-10.94
		C169.19,402.56,173.13,406.76,173.13,413.5z M157.26,413.5c0,4.42,2.21,7.22,5.68,7.22c3.46,0,5.67-2.8,5.67-7.22
		c0-4.44-2.21-7.25-5.67-7.25C159.48,406.25,157.26,409.06,157.26,413.5z"/>
	<path d="M175.98,424.06v-21.13h3.69l9.87,13.77h0.12v-13.77h4.23v21.14h-3.66l-9.89-13.84h-0.13v13.84L175.98,424.06L175.98,424.06
		z"/>
	<path d="M211.41,424.06h-14v-21.13h14v3.65h-9.58v5.1h9.04v3.4h-9.04v5.32h9.58V424.06z"/>
	<path d="M217.97,418.03c0.28,1.77,2.07,2.83,4.47,2.83c2.36,0,3.97-1.14,3.97-2.7c0-1.39-1-2.18-3.65-2.72l-2.23-0.44
		c-4.22-0.83-6.28-2.86-6.28-6.01c0-3.87,3.37-6.43,8.07-6.43c4.94,0,8.04,2.58,8.12,6.46h-4.17c-0.15-1.8-1.71-2.89-3.94-2.89
		c-2.18,0-3.65,1.03-3.65,2.58c0,1.3,1.03,2.11,3.52,2.61l2.24,0.45c4.47,0.89,6.42,2.7,6.42,5.9c0,4.13-3.24,6.74-8.53,6.74
		c-5.04,0-8.39-2.4-8.53-6.39h4.17V418.03z"/>
</g>
<g>
	<path d="M4.33,475.21c0-5.52,3.06-9.04,7.85-9.04c3.72,0,6.67,2.43,7.14,5.87h-1.67c-0.49-2.54-2.73-4.32-5.47-4.32
		c-3.74,0-6.14,2.92-6.14,7.49c0,4.64,2.4,7.58,6.15,7.58c2.81,0,4.93-1.5,5.46-3.94h1.67c-0.62,3.43-3.32,5.49-7.14,5.49
		C7.38,484.34,4.33,480.79,4.33,475.21z"/>
	<path d="M31.53,478.67h-7.4l-1.95,5.4h-1.77L27,466.46h1.66l6.58,17.61h-1.76L31.53,478.67z M24.63,477.23h6.4l-3.16-8.72H27.8
		L24.63,477.23z"/>
	<path d="M37.18,484.06v-17.61h1.65l10.33,14.71h0.09v-14.71h1.65v17.61h-1.61l-10.36-14.72h-0.09v14.72H37.18z"/>
	<path d="M54.18,484.06v-17.61h1.65l10.33,14.71h0.09v-14.71h1.65v17.61h-1.61l-10.36-14.72h-0.09v14.72H54.18z"/>
	<path d="M81.82,484.06H71.19v-17.61h10.63v1.51h-8.97v6.33h8.52v1.49h-8.52v6.76h8.97V484.06z"/>
	<path d="M85.2,479.36c0.21,2.11,2.17,3.47,4.93,3.47c2.65,0,4.54-1.4,4.54-3.41c0-1.66-1.1-2.66-3.81-3.28l-1.92-0.43
		c-3.5-0.78-4.97-2.28-4.97-4.71c0-2.84,2.56-4.83,6.02-4.83c3.43,0,5.96,2.04,6.05,4.87h-1.67c-0.17-2.01-1.92-3.36-4.42-3.36
		c-2.38,0-4.27,1.25-4.27,3.25c0,1.6,1.09,2.61,3.7,3.2l1.92,0.44c3.63,0.82,5.08,2.2,5.08,4.64c0,3.12-2.51,5.14-6.34,5.14
		c-3.76,0-6.34-2-6.52-4.98h1.68V479.36z"/>
	<path d="M114.41,484.06h-10.49v-17.61h1.66v16.1h8.83V484.06z"/>
	<path d="M116.77,484.06v-17.61h1.66v17.61H116.77z"/>
	<path d="M137.02,475.26c0,5.58-3.09,9.08-8.01,9.08c-4.91,0-8-3.5-8-9.08c0-5.58,3.09-9.09,8-9.09S137.02,469.68,137.02,475.26z
		 M122.72,475.26c0,4.62,2.43,7.53,6.29,7.53s6.3-2.92,6.3-7.53c0-4.63-2.44-7.54-6.3-7.54S122.72,470.64,122.72,475.26z"/>
	<path d="M139.61,484.06v-17.61h1.65l10.33,14.71h0.09v-14.71h1.65v17.61h-1.61l-10.36-14.72h-0.09v14.72H139.61z"/>
	<path d="M157.42,479.36c0.21,2.11,2.17,3.47,4.93,3.47c2.65,0,4.54-1.4,4.54-3.41c0-1.66-1.1-2.66-3.81-3.28l-1.92-0.43
		c-3.5-0.78-4.97-2.28-4.97-4.71c0-2.84,2.56-4.83,6.02-4.83c3.43,0,5.96,2.04,6.05,4.87h-1.67c-0.17-2.01-1.92-3.36-4.42-3.36
		c-2.38,0-4.27,1.25-4.27,3.25c0,1.6,1.09,2.61,3.7,3.2l1.92,0.44c3.63,0.82,5.08,2.2,5.08,4.64c0,3.12-2.51,5.14-6.34,5.14
		c-3.76,0-6.34-2-6.52-4.98h1.68V479.36z"/>
</g>
<g>
	<path d="M23.59,584.06V569.8h-0.12l-5.74,14.27h-2.78L9.21,569.8H9.09v14.27H5.15v-21.14h5.13l6.01,15.18h0.12l6.01-15.18h5.13
		v21.14h-3.96V584.06z"/>
	<path d="M45.05,584.06h-14v-21.14h14v3.65h-9.58v5.1h9.04v3.4h-9.04v5.33h9.58V584.06z"/>
	<path d="M48.24,584.06v-21.14h3.69l9.87,13.77h0.12v-13.77h4.23v21.14h-3.66l-9.89-13.84h-0.13v13.84H48.24z"/>
	<path d="M69.01,573.49c0-6.81,3.88-10.93,10-10.93c5.08,0,8.95,3.22,9.29,7.95h-4.31c-0.41-2.59-2.4-4.29-4.98-4.29
		c-3.34,0-5.49,2.8-5.49,7.25c0,4.51,2.12,7.29,5.51,7.29c2.62,0,4.51-1.54,4.98-4.04h4.31c-0.5,4.72-4.12,7.69-9.3,7.69
		C72.87,584.41,69.01,580.31,69.01,573.49z"/>
	<path d="M91.04,584.06v-21.14h4.42v21.14H91.04z"/>
	<path d="M118.72,573.5c0,6.72-3.94,10.91-10.2,10.91c-6.27,0-10.2-4.19-10.2-10.91c0-6.74,3.93-10.94,10.2-10.94
		C114.77,562.56,118.72,566.76,118.72,573.5z M102.84,573.5c0,4.42,2.21,7.22,5.68,7.22c3.46,0,5.67-2.8,5.67-7.22
		c0-4.44-2.21-7.25-5.67-7.25S102.84,569.06,102.84,573.5z"/>
	<path d="M121.56,584.06v-21.14h3.69l9.87,13.77h0.12v-13.77h4.23v21.14h-3.66l-9.89-13.84h-0.13v13.84H121.56z"/>
	<path d="M156.99,584.06h-14v-21.14h14v3.65h-9.58v5.1h9.04v3.4h-9.04v5.33h9.58V584.06z"/>
	<path d="M163.55,578.03c0.28,1.77,2.07,2.83,4.47,2.83c2.36,0,3.97-1.14,3.97-2.7c0-1.39-1-2.18-3.65-2.72l-2.23-0.44
		c-4.22-0.83-6.28-2.86-6.28-6.01c0-3.87,3.37-6.43,8.07-6.43c4.94,0,8.04,2.58,8.12,6.46h-4.17c-0.15-1.8-1.71-2.89-3.94-2.89
		c-2.18,0-3.65,1.03-3.65,2.58c0,1.3,1.03,2.11,3.52,2.61l2.24,0.45c4.47,0.89,6.42,2.7,6.42,5.9c0,4.13-3.24,6.74-8.53,6.74
		c-5.04,0-8.39-2.4-8.53-6.39h4.17V578.03z"/>
</g>
<g>
	<path d="M15.52,644.06H5.03v-17.61h1.66v16.1h8.83V644.06z"/>
	<path d="M18.65,637.81c0,2.95,1.93,4.98,5.15,4.98c3.23,0,5.15-2.03,5.15-4.98v-11.36h1.67v11.46c0,3.8-2.59,6.43-6.82,6.43
		c-4.23,0-6.81-2.64-6.81-6.43v-11.46h1.66V637.81z M20.64,623.18c0-0.61,0.49-1.09,1.07-1.09c0.61,0,1.09,0.48,1.09,1.09
		c0,0.59-0.48,1.07-1.09,1.07C21.12,624.25,20.64,623.76,20.64,623.18z M24.81,623.18c0-0.61,0.49-1.09,1.07-1.09
		c0.6,0,1.09,0.48,1.09,1.09c0,0.59-0.49,1.07-1.09,1.07C25.3,624.25,24.81,623.76,24.81,623.18z"/>
	<path d="M35.57,644.06h-1.66v-17.61h6.21c3.44,0,5.64,2.01,5.64,5.15c0,2.49-1.42,4.37-3.77,4.98l4.27,7.48h-1.95l-4.05-7.21
		c-0.06,0-0.18,0-0.27,0h-4.42V644.06z M35.57,635.37h4.42c2.56,0,4.05-1.37,4.05-3.72c0-2.33-1.55-3.71-4.11-3.71h-4.36V635.37z"/>
	<path d="M47.88,642.86l10.57-14.82v-0.07H48.22v-1.51h12.34v1.22l-10.55,14.81v0.07H60.7v1.51H47.87v-1.21H47.88z"/>
	<path d="M74.04,644.06H63.41v-17.61h10.63v1.51h-8.97v6.33h8.52v1.49h-8.52v6.76h8.97V644.06z"/>
	<path d="M78.55,644.06h-1.66v-17.61h6.21c3.44,0,5.64,2.01,5.64,5.15c0,2.49-1.42,4.37-3.77,4.98l4.27,7.48h-1.95l-4.05-7.21
		c-0.06,0-0.18,0-0.27,0h-4.42V644.06z M78.55,635.37h4.42c2.56,0,4.05-1.37,4.05-3.72c0-2.33-1.55-3.71-4.11-3.71h-4.36V635.37z"/>
	<path d="M91.29,632.32l1.17-5.87h1.72l-1.54,5.87H91.29z"/>
	<path d="M98.11,639.36c0.21,2.11,2.17,3.47,4.93,3.47c2.65,0,4.54-1.4,4.54-3.41c0-1.66-1.1-2.66-3.81-3.28l-1.92-0.43
		c-3.5-0.78-4.97-2.28-4.97-4.71c0-2.84,2.56-4.83,6.02-4.83c3.43,0,5.96,2.04,6.05,4.87h-1.67c-0.17-2.01-1.92-3.36-4.42-3.36
		c-2.38,0-4.27,1.25-4.27,3.25c0,1.6,1.09,2.61,3.7,3.2l1.92,0.44c3.63,0.82,5.08,2.2,5.08,4.64c0,3.12-2.51,5.14-6.34,5.14
		c-3.76,0-6.34-2-6.52-4.98h1.68V639.36z"/>
	<path d="M126.59,638.67h-7.4l-1.95,5.4h-1.77l6.59-17.61h1.66l6.58,17.61h-1.76L126.59,638.67z M119.7,637.23h6.4l-3.16-8.72h-0.07
		L119.7,637.23z"/>
	<path d="M133.91,644.06h-1.66v-17.61h6.21c3.44,0,5.64,2.01,5.64,5.15c0,2.49-1.42,4.37-3.77,4.98l4.27,7.48h-1.95l-4.05-7.21
		c-0.06,0-0.18,0-0.27,0h-4.42V644.06z M133.91,635.37h4.42c2.56,0,4.05-1.37,4.05-3.72c0-2.33-1.55-3.71-4.11-3.71h-4.36V635.37z"
		/>
	<path d="M146.1,635.21c0-5.52,3.06-9.04,7.85-9.04c3.72,0,6.67,2.43,7.14,5.87h-1.67c-0.49-2.54-2.73-4.32-5.47-4.32
		c-3.74,0-6.14,2.92-6.14,7.49c0,4.64,2.4,7.58,6.15,7.58c2.81,0,4.93-1.5,5.46-3.94h1.67c-0.62,3.43-3.32,5.49-7.14,5.49
		C149.15,644.34,146.1,640.79,146.1,635.21z"/>
	<path d="M175.51,644.06v-8.26h-10.3v8.26h-1.66v-17.61h1.66v7.84h10.3v-7.84h1.67v17.61H175.51L175.51,644.06z"/>
	<path d="M180.48,644.06v-17.61h1.66v17.61H180.48L180.48,644.06z"/>
	<path d="M190.66,644.06l-6.59-17.61h1.77l5.62,15.54h0.07l5.63-15.54h1.76l-6.59,17.61H190.66L190.66,644.06z"/>
	<path d="M211.47,644.06h-10.63v-17.61h10.63v1.51h-8.97v6.33h8.52v1.49h-8.52v6.76h8.97V644.06z"/>
	<path d="M224.65,644.06l-6.59-17.61h1.77l5.62,15.54h0.07l5.63-15.54h1.76l-6.59,17.61H224.65L224.65,644.06z"/>
	<path d="M249.9,635.26c0,5.58-3.09,9.08-8.01,9.08c-4.91,0-8-3.5-8-9.08c0-5.58,3.09-9.09,8-9.09S249.9,629.68,249.9,635.26z
		 M235.6,635.26c0,4.62,2.43,7.53,6.29,7.53s6.3-2.92,6.3-7.53c0-4.63-2.44-7.54-6.3-7.54S235.6,630.64,235.6,635.26z"/>
	<path d="M262.97,644.06h-10.49v-17.61h1.66v16.1h8.83V644.06z"/>
	<path d="M265.64,643.04c0-0.65,0.51-1.15,1.15-1.15c0.64,0,1.14,0.5,1.14,1.15c0,0.63-0.5,1.14-1.14,1.14
		C266.15,644.18,265.64,643.67,265.64,643.04z"/>
	<path d="M274.52,635.63c0-5.91,2.51-9.46,6.69-9.46c2.93,0,5.19,1.73,5.68,4.38h-1.69c-0.46-1.78-2-2.91-4-2.91
		c-3.22,0-5.07,3-5.07,8.23h0.04c0.67-1.89,2.66-3.35,5.19-3.35c3.34,0,5.85,2.49,5.85,5.82c0,3.45-2.59,5.99-6.12,5.99
		C278.05,644.34,274.52,642.34,274.52,635.63z M285.5,638.4c0-2.53-1.87-4.39-4.42-4.39c-2.51,0-4.48,1.88-4.48,4.27
		c0,2.56,1.94,4.58,4.47,4.58C283.55,642.86,285.5,640.89,285.5,638.4z"/>
</g>
<g>
	<path d="M15.52,724.06H5.03v-17.61h1.66v16.1h8.83V724.06z"/>
	<path d="M32.33,715.26c0,5.58-3.09,9.08-8.01,9.08c-4.91,0-8-3.5-8-9.08c0-5.58,3.09-9.09,8-9.09S32.33,709.68,32.33,715.26z
		 M18.04,715.26c0,4.62,2.43,7.53,6.29,7.53s6.3-2.92,6.3-7.53c0-4.63-2.44-7.54-6.3-7.54C20.47,707.72,18.04,710.64,18.04,715.26z"
		/>
	<path d="M38.37,724.06v-16.1h-5.81v-1.51h13.31v1.51h-5.82v16.1H38.37z"/>
	<path d="M52.67,724.06v-16.1h-5.81v-1.51h13.31v1.51h-5.82v16.1H52.67z"/>
	<path d="M62.26,724.06v-17.61h1.66v17.61H62.26L62.26,724.06z"/>
	<path d="M77.85,724.06H67.22v-17.61h10.63v1.51h-8.97v6.33h8.52v1.49h-8.52v6.76h8.97V724.06z"/>
	<path d="M80.7,724.06v-17.61h10.45v1.51h-8.79v6.62h8.08v1.49h-8.08v8H80.7V724.06z"/>
	<path d="M93.65,724.06v-17.61h1.66v17.61H93.65L93.65,724.06z"/>
	<path d="M109.09,724.06H98.6v-17.61h1.66v16.1h8.83V724.06z"/>
	<path d="M122.08,724.06h-10.63v-17.61h10.63v1.51h-8.97v6.33h8.52v1.49h-8.52v6.76h8.97V724.06z"/>
	<path d="M125.46,719.36c0.21,2.11,2.17,3.47,4.93,3.47c2.65,0,4.54-1.4,4.54-3.41c0-1.66-1.1-2.66-3.81-3.28l-1.92-0.43
		c-3.5-0.78-4.97-2.28-4.97-4.71c0-2.84,2.56-4.83,6.02-4.83c3.43,0,5.96,2.04,6.05,4.87h-1.67c-0.17-2.01-1.92-3.36-4.42-3.36
		c-2.38,0-4.27,1.25-4.27,3.25c0,1.6,1.09,2.61,3.7,3.2l1.92,0.44c3.63,0.82,5.08,2.2,5.08,4.64c0,3.12-2.51,5.14-6.34,5.14
		c-3.76,0-6.34-2-6.52-4.98h1.68V719.36z"/>
	<path d="M146.87,706.45l-1.17,5.87h-1.71l1.53-5.87H146.87z M150.97,706.45l-1.17,5.87h-1.71l1.53-5.87H150.97z"/>
	<path d="M158.61,724.06v-7.62l-6.31-10h1.9l5.21,8.36h0.06l5.21-8.36h1.9l-6.31,10v7.62H158.61z"/>
	<path d="M179.17,724.06h-10.63v-17.61h10.63v1.51h-8.97v6.33h8.52v1.49h-8.52v6.76h8.97V724.06z"/>
	<path d="M191.77,718.67h-7.4l-1.95,5.4h-1.77l6.59-17.61h1.66l6.58,17.61h-1.76L191.77,718.67z M184.87,717.23h6.4l-3.16-8.72
		h-0.07L184.87,717.23z"/>
	<path d="M199.08,724.06h-1.66v-17.61h6.21c3.44,0,5.64,2.01,5.64,5.15c0,2.49-1.42,4.37-3.77,4.98l4.27,7.48h-1.95l-4.05-7.21
		c-0.06,0-0.18,0-0.27,0h-4.42V724.06z M199.08,715.37h4.42c2.56,0,4.05-1.37,4.05-3.72c0-2.33-1.55-3.71-4.11-3.71h-4.36V715.37z"
		/>
	<path d="M217.1,724.06v-17.61h1.66v17.61H217.1L217.1,724.06z"/>
	<path d="M222.05,724.06v-17.61h1.65l10.33,14.71h0.09v-14.71h1.65v17.61h-1.61l-10.36-14.72h-0.09v14.72H222.05L222.05,724.06z"/>
	<path d="M259.58,724.06v-14.45h-0.07l-6.13,14.45h-1.45l-6.12-14.45h-0.07v14.45h-1.56v-17.61h1.92l6.53,15.49h0.07l6.52-15.49
		h1.93v17.61H259.58L259.58,724.06z"/>
	<path d="M279.73,715.26c0,5.58-3.09,9.08-8.01,9.08c-4.91,0-8-3.5-8-9.08c0-5.58,3.09-9.09,8-9.09
		C276.63,706.17,279.73,709.68,279.73,715.26z M265.44,715.26c0,4.62,2.43,7.53,6.29,7.53c3.86,0,6.3-2.92,6.3-7.53
		c0-4.63-2.44-7.54-6.3-7.54C267.87,707.72,265.44,710.64,265.44,715.26z"/>
	<path d="M285.77,724.06v-16.1h-5.81v-1.51h13.31v1.51h-5.82v16.1H285.77z"/>
	<path d="M295.37,724.06v-17.61h1.66v17.61H295.37L295.37,724.06z"/>
	<path d="M315.62,715.26c0,5.58-3.09,9.08-8.01,9.08c-4.91,0-8-3.5-8-9.08c0-5.58,3.09-9.09,8-9.09S315.62,709.68,315.62,715.26z
		 M301.33,715.26c0,4.62,2.43,7.53,6.29,7.53c3.86,0,6.3-2.92,6.3-7.53c0-4.63-2.44-7.54-6.3-7.54
		C303.76,707.72,301.33,710.64,301.33,715.26z"/>
	<path d="M318.21,724.06v-17.61h1.65l10.33,14.71h0.09v-14.71h1.65v17.61h-1.61l-10.36-14.72h-0.09v14.72H318.21L318.21,724.06z"/>
	<path d="M345.79,706.17c3.16,0,5.41,2.17,5.41,4.86c0,1.9-0.87,3.34-4,6.58l-4.71,4.92v0.05h9.17v1.49h-11.49v-1.17l6.23-6.54
		c2.53-2.64,3.15-3.69,3.15-5.24c0-1.94-1.53-3.48-3.75-3.48c-2.33,0-4.08,1.6-4.1,3.76h-1.61
		C340.11,708.38,342.54,706.17,345.79,706.17z"/>
	<path d="M353.82,715.25c0-5.53,2.41-9.08,6.38-9.08c3.99,0,6.37,3.54,6.37,9.07c0,5.57-2.37,9.11-6.37,9.11
		S353.82,720.82,353.82,715.25z M364.9,715.25c0-4.63-1.75-7.61-4.7-7.61c-2.94,0-4.7,3-4.7,7.59c0,4.67,1.72,7.64,4.7,7.64
		C363.18,722.87,364.9,719.91,364.9,715.25z"/>
	<path d="M374.6,706.17c3.16,0,5.41,2.17,5.41,4.86c0,1.9-0.87,3.34-4,6.58l-4.71,4.92v0.05h9.17v1.49h-11.49v-1.17l6.23-6.54
		c2.53-2.64,3.15-3.69,3.15-5.24c0-1.94-1.53-3.48-3.75-3.48c-2.33,0-4.08,1.6-4.1,3.76h-1.61
		C368.92,708.38,371.34,706.17,374.6,706.17z"/>
	<path d="M382.62,715.25c0-5.53,2.41-9.08,6.38-9.08c3.99,0,6.37,3.54,6.37,9.07c0,5.57-2.37,9.11-6.37,9.11
		S382.62,720.82,382.62,715.25z M393.71,715.25c0-4.63-1.75-7.61-4.7-7.61c-2.94,0-4.7,3-4.7,7.59c0,4.67,1.72,7.64,4.7,7.64
		C391.99,722.87,393.71,719.91,393.71,715.25z"/>
	<path d="M397.92,712.32l1.17-5.87h1.72l-1.54,5.87H397.92z M402.02,712.32l1.17-5.87h1.72l-1.54,5.87H402.02z"/>
</g>
<g>
	<path d="M11,2.96c4.34,0,7.32,2.89,7.32,7.24c0,4.34-3.09,7.24-7.54,7.24H6.82v6.67H2.4V2.97H11V2.96z M6.82,13.97h2.99
		c2.53,0,4.01-1.35,4.01-3.76c0-2.4-1.46-3.75-4-3.75h-3V13.97z"/>
	<path d="M25.35,24.1h-4.42V2.96h8.66c4.86,0,7.65,2.56,7.65,6.74c0,2.71-1.41,5.05-3.84,6.01l4.45,8.39h-5.01l-3.94-7.73h-3.54
		v7.73H25.35z M25.35,13.15h3.81c2.23,0,3.53-1.27,3.53-3.37c0-2.05-1.38-3.37-3.57-3.37h-3.76L25.35,13.15L25.35,13.15z"/>
	<path d="M54.14,24.1h-14V2.96h14v3.65h-9.58v5.1h9.04v3.4h-9.04v5.33h9.58V24.1z"/>
	<path d="M75.77,24.1V9.83h-0.12L69.91,24.1h-2.78L61.39,9.83h-0.12V24.1h-3.94V2.96h5.13l6.01,15.18h0.12L74.6,2.96h5.13V24.1
		H75.77z"/>
	<path d="M83.23,24.1V2.96h4.42V24.1H83.23z"/>
	<path d="M110.9,13.53c0,6.72-3.94,10.91-10.2,10.91c-6.27,0-10.2-4.19-10.2-10.91c0-6.74,3.93-10.94,10.2-10.94
		C106.96,2.59,110.9,6.8,110.9,13.53z M95.02,13.53c0,4.42,2.21,7.22,5.68,7.22c3.46,0,5.67-2.8,5.67-7.22
		c0-4.44-2.21-7.25-5.67-7.25S95.02,9.1,95.02,13.53z"/>
	<path d="M117.11,18.06c0.28,1.77,2.07,2.83,4.47,2.83c2.36,0,3.97-1.14,3.97-2.7c0-1.39-1-2.18-3.65-2.72l-2.23-0.44
		c-4.22-0.83-6.28-2.86-6.28-6.01c0-3.87,3.37-6.43,8.07-6.43c4.94,0,8.04,2.58,8.12,6.46h-4.17c-0.15-1.8-1.71-2.89-3.94-2.89
		c-2.18,0-3.65,1.03-3.65,2.58c0,1.3,1.03,2.11,3.52,2.61l2.24,0.45c4.47,0.89,6.42,2.7,6.42,5.9c0,4.13-3.24,6.74-8.53,6.74
		c-5.04,0-8.39-2.4-8.53-6.39h4.17V18.06z"/>
</g>
<g>
	<line style="fill:none;" x1="0.89" y1="34.27" x2="660.02" y2="34.27"/>
	<rect x="0.89" y="33.27" width="659.14" height="2"/>
</g>
<g>
	<line style="fill:none;" x1="0.89" y1="114.27" x2="660.02" y2="114.27"/>
	<rect x="0.89" y="113.27" width="659.14" height="2"/>
</g>
<g>
	<line style="fill:none;" x1="0.89" y1="194.27" x2="660.02" y2="194.27"/>
	<rect x="0.89" y="193.27" width="659.14" height="2"/>
</g>
<g>
	<line style="fill:none;" x1="0.89" y1="274.27" x2="660.02" y2="274.27"/>
	<rect x="0.89" y="273.27" width="659.14" height="2"/>
</g>
<g>
	<line style="fill:none;" x1="0.89" y1="354.27" x2="660.02" y2="354.27"/>
	<rect x="0.89" y="353.27" width="659.14" height="2"/>
</g>
<g>
	<line style="fill:none;" x1="0.89" y1="434.27" x2="660.02" y2="434.27"/>
	<rect x="0.89" y="433.27" width="659.14" height="2"/>
</g>
<g>
	<line style="fill:none;" x1="0.89" y1="514.27" x2="660.02" y2="514.27"/>
	<rect x="0.89" y="513.27" width="659.14" height="2"/>
</g>
<g>
	<line style="fill:none;" x1="0.89" y1="594.27" x2="660.02" y2="594.27"/>
	<rect x="0.89" y="593.27" width="659.14" height="2"/>
</g>
<g>
	<line style="fill:none;" x1="0.89" y1="674.27" x2="660.02" y2="674.27"/>
	<rect x="0.89" y="673.27" width="659.14" height="2"/>
</g>
<g>
	<line style="fill:none;" x1="0.89" y1="754.27" x2="660.02" y2="754.27"/>
	<rect x="0.89" y="753.27" width="659.14" height="2"/>
</g>
<g>
	<circle style="fill:#A67C52;" cx="649.82" cy="74.57" r="10"/>
</g>
<g>
	<circle style="fill:#A67C52;" cx="619.82" cy="74.57" r="10"/>
</g>
<g>
	<circle style="fill:#A67C52;" cx="589.82" cy="74.57" r="10"/>
</g>
<g>
	<circle style="fill:#A67C52;" cx="559.82" cy="74.57" r="10"/>
</g>
<g>
	<circle style="fill:#B3B3B3;" cx="649.82" cy="154.57" r="10"/>
</g>
<g>
	<circle style="fill:#FBB03B;" cx="619.82" cy="154.57" r="10"/>
</g>
<g>
	<circle style="fill:#FBB03B;" cx="589.82" cy="154.57" r="10"/>
</g>
<g>
	<circle style="fill:#FBB03B;" cx="559.82" cy="154.57" r="10"/>
</g>
<g>
	<circle style="fill:#A67C52;" cx="649.82" cy="314.57" r="10"/>
</g>
<g>
	<circle style="fill:#A67C52;" cx="649.82" cy="234.57" r="10"/>
</g>
<g>
	<circle style="fill:#B3B3B3;" cx="619.82" cy="234.57" r="10"/>
</g>
<g>
	<circle style="fill:#333333;" cx="589.82" cy="234.57" r="10"/>
</g>
<g>
	<circle style="fill:#333333;" cx="559.82" cy="234.57" r="10"/>
</g>
<g>
	<path style="fill:#333333;" d="M649.82,466.57c4.41,0,8,3.59,8,8s-3.59,8-8,8c-4.41,0-8-3.59-8-8S645.41,466.57,649.82,466.57
		 M649.82,464.57c-5.52,0-10,4.48-10,10c0,5.52,4.48,10,10,10c5.52,0,10-4.48,10-10C659.82,469.05,655.34,464.57,649.82,464.57
		L649.82,464.57z"/>
</g>
<g>
	<path style="fill:#333333;" d="M619.82,466.57c4.41,0,8,3.59,8,8s-3.59,8-8,8c-4.41,0-8-3.59-8-8S615.41,466.57,619.82,466.57
		 M619.82,464.57c-5.52,0-10,4.48-10,10c0,5.52,4.48,10,10,10c5.52,0,10-4.48,10-10C629.82,469.05,625.34,464.57,619.82,464.57
		L619.82,464.57z"/>
</g>
<g>
	<path style="fill:#333333;" d="M589.82,466.57c4.41,0,8,3.59,8,8s-3.59,8-8,8c-4.41,0-8-3.59-8-8S585.41,466.57,589.82,466.57
		 M589.82,464.57c-5.52,0-10,4.48-10,10c0,5.52,4.48,10,10,10c5.52,0,10-4.48,10-10C599.82,469.05,595.34,464.57,589.82,464.57
		L589.82,464.57z"/>
</g>
<g>
	<path style="fill:#333333;" d="M649.82,626.57c4.41,0,8,3.59,8,8c0,4.41-3.59,8-8,8c-4.41,0-8-3.59-8-8
		C641.82,630.16,645.41,626.57,649.82,626.57 M649.82,624.57c-5.52,0-10,4.48-10,10c0,5.52,4.48,10,10,10c5.52,0,10-4.48,10-10
		S655.34,624.57,649.82,624.57L649.82,624.57z"/>
</g>
<g>
	<path style="fill:#333333;" d="M649.82,706.57c4.41,0,8,3.59,8,8c0,4.41-3.59,8-8,8c-4.41,0-8-3.59-8-8
		C641.82,710.16,645.41,706.57,649.82,706.57 M649.82,704.57c-5.52,0-10,4.48-10,10c0,5.52,4.48,10,10,10c5.52,0,10-4.48,10-10
		S655.34,704.57,649.82,704.57L649.82,704.57z"/>
</g>
<g>
	
		<ellipse transform="matrix(0.1222 -0.9925 0.9925 0.1222 391.0757 591.3109)" style="fill:#B3B3B3;" cx="529.82" cy="74.57" rx="10" ry="10"/>
</g>
<g>
	<circle style="fill:#B3B3B3;" cx="499.82" cy="74.57" r="10"/>
</g>
<g>
	<circle style="fill:#B3B3B3;" cx="469.82" cy="74.57" r="10"/>
</g>
<g>
	<circle style="fill:#FBB03B;" cx="439.82" cy="74.57" r="10"/>
</g>
<g>
	<circle style="fill:#FBB03B;" cx="409.82" cy="74.57" r="10"/>
</g>
<g>
	<circle style="fill:#FBB03B;" cx="379.82" cy="74.57" r="10"/>
</g>
<g>
	<circle style="fill:#333333;" cx="349.82" cy="74.57" r="10"/>
</g>
</svg>
