<?xml version="1.0" encoding="utf-8"?>
<!-- Generator: Adobe Illustrator 25.0.0, SVG Export Plug-In . SVG Version: 6.00 Build 0)  -->
<svg version="1.1" id="Layer_1" xmlns="http://www.w3.org/2000/svg" xmlns:xlink="http://www.w3.org/1999/xlink" x="0px" y="0px"
	 viewBox="0 0 500 200" style="enable-background:new 0 0 500 200;" xml:space="preserve">
<style type="text/css">
	.st0{fill:#F0C0FB;}
	.st1{fill:#B2E2FB;}
	.st2{fill:#F4F4F4;}
	.st3{fill:#F9DEC9;}
	.st4{fill:#285F4A;}
	.st5{fill:#ED664D;}
	.st6{fill:#1147CD;}
	.st7{fill:none;}
	.st8{fill:#F4F4F4;stroke:#000000;stroke-width:1.1667;stroke-miterlimit:10;}
	.st9{fill:#FFFFFF;stroke:#000000;stroke-width:0.4375;stroke-miterlimit:10;}
	.st10{fill:#FFFFFF;stroke:#000000;stroke-width:0.7999;stroke-miterlimit:10;}
	.st11{fill:none;stroke:#000000;stroke-width:1.1667;stroke-linecap:round;stroke-linejoin:round;stroke-miterlimit:10;}
	.st12{fill:#F4F4F4;stroke:#000000;stroke-width:1.2133;stroke-miterlimit:10;}
	.st13{fill:#A67C52;}
	.st14{fill:#B3B3B3;}
	.st15{fill:#FBB03B;}
	.st16{fill:#333333;}
	.st17{fill:#FFFFFF;}
	.st18{fill:none;stroke:#000000;stroke-width:1.1;stroke-miterlimit:10;}
</style>
<g>
	<path d="M76.01,111.81c0,9.15-4.48,13.13-13,13.13c-6.28,0-10.33-2.18-13.81-7.78l5.04-4.73c2.12,3.36,5.41,5.04,8.9,4.79
		c3.23-0.19,4.73-1.87,4.73-5.97V80.58h8.15V111.81z"/>
	<path d="M102.04,79.52c12.01,0,21.46,10.45,21.46,22.71S114.05,125,102.04,125c-12.01,0-21.46-9.89-21.46-22.77
		C80.58,89.35,90.03,79.52,102.04,79.52z M102.04,117.1c8.9,0,13.31-7.65,13.31-14.87c0-7.22-4.42-14.81-13.31-14.81
		c-8.9,0-13.25,7.59-13.25,14.81C88.79,109.45,93.14,117.1,102.04,117.1z"/>
	<path d="M159.24,113.12c0.56,2.49,3.3,10.89,3.3,10.89h-8.4c-1.37-5.47-2.43-9.52-2.61-10.39c-1.99-7.03-6.35-6.28-8.65-6.41
		c-0.43,0-0.93,0-1.49,0c-1.49,0-4.67,0-5.41,0V124h-7.9V80.46h15.55c9.77,0,17.86,1.99,17.86,12.19c0,5.6-2.92,8.09-6.84,9.77
		c-2.05,0.93-5.04,0.56-7.28,0.56v1.43c2.24,0,5.41-0.62,7.28,0.62C157.12,106.52,158.24,109.2,159.24,113.12z M135.97,100.49H143
		c5.41,0,10.33-2.18,10.33-7.71c0-5.47-4.54-6.91-10.33-6.91h-7.03V100.49z"/>
	<path d="M202.81,120.52c0-2.49,1.12-5.6,1.74-8.03l-1.31-0.31c-0.68,2.36-0.81,5.91-2.49,7.78c-2.18,2.36-6.22,5.04-12.63,5.04
		c-12.82,0-22.77-9.83-22.77-22.77s9.77-22.71,23.14-22.71c9.64,0,17.42,4.48,20.34,12.32c0,0-8.15,1.87-8.09,1.8
		c-1.93-3.98-6.66-6.41-12.75-6.41c-8.59,0-14.5,6.22-14.5,14.99s6.35,15.06,15.55,15.06c9.89,0,12.82-6.41,12.82-9.83h-11.7v-7.03
		h20.47V124h-7.84V120.52z"/>
	<path d="M214.88,80.46h30.36v7.59h-22.46V98h20.9v7.59h-20.9v10.83h22.77V124h-30.67V80.46z"/>
	<path d="M248.68,102.17c0-12.94,9.52-22.65,22.4-22.65c13.25,0,19.47,7.22,20.34,15.55h-8.21c-1-3.67-3.36-7.71-12.07-7.71
		c-8.03,0-14.31,5.47-14.31,14.87c0,9.33,6.22,14.87,14.31,14.87c9.15,0,11.57-4.04,12.63-7.71h8.21
		c-1.18,9.71-7.78,15.55-20.65,15.55C258.32,124.94,248.68,115.17,248.68,102.17z"/>
	<path d="M361.86,91.4c-2.86-3.17-7.22-5.1-13.25-5.1c-4.17,0-8.03,1.68-8.03,4.6c0,6.28,28.68,5.48,28.68,20.9
		c0,8.21-8.59,13.13-20.34,13.13c-8.27,0-13.56-3.11-18.17-9.39l6.16-3.98c2.86,3.86,6.66,5.79,13.07,5.79
		c5.85,0,9.33-2.18,9.33-5.23c0-8.34-27.56-7.28-27.56-20.78c0-7.28,8.4-11.82,18.66-11.82c7.4,0,13.19,3.05,17.61,7.78L361.86,91.4
		z"/>
	<path d="M386.49,80.33h9.33l16.8,43.61h-8.52l-5.85-15.18h-13.87l-5.35,15.18h-8.59L386.49,80.33z M392.16,91.09
		c-0.56-1.31-0.25-3.11-0.25-4.48h-1.43c0,1.37,0.31,3.17-0.25,4.48l-5.1,11.57h12.13L392.16,91.09z"/>
	<path d="M447.5,113.12c0.56,2.49,3.3,10.89,3.3,10.89h-8.4c-1.37-5.47-2.43-9.52-2.61-10.39c-1.99-7.03-6.35-6.28-8.65-6.41
		c-0.43,0-0.93,0-1.49,0c-1.49,0-4.67,0-5.41,0V124h-7.9V80.46h15.55c9.77,0,17.85,1.99,17.85,12.19c0,5.6-2.92,8.09-6.84,9.77
		c-2.05,0.93-5.04,0.56-7.28,0.56v1.43c2.24,0,5.41-0.62,7.28,0.62C445.39,106.52,446.51,109.2,447.5,113.12z M424.23,100.49h7.03
		c5.41,0,10.33-2.18,10.33-7.71c0-5.47-4.54-6.91-10.33-6.91h-7.03V100.49z"/>
	<g>
		<polygon points="303.87,116.41 303.87,105.59 324.77,105.59 324.77,98 303.87,98 303.87,88.04 326.32,88.04 326.32,80.46 
			321.05,80.46 321.28,82.83 304.81,83.54 304.51,80.46 295.96,80.46 295.96,124 326.64,124 326.64,116.41 		"/>
		<polygon points="319.42,80.46 318.83,75 305.68,77.35 306.02,80.46 306.21,82.2 319.56,81.68 		"/>
	</g>
</g>
</svg>
