<?xml version="1.0" encoding="utf-8"?>
<!-- Generator: Adobe Illustrator 25.0.0, SVG Export Plug-In . SVG Version: 6.00 Build 0)  -->
<svg version="1.1" id="Layer_1" xmlns="http://www.w3.org/2000/svg" xmlns:xlink="http://www.w3.org/1999/xlink" x="0px" y="0px"
	 viewBox="0 0 200 200" style="enable-background:new 0 0 200 200;" xml:space="preserve">
<style type="text/css">
	.st0{fill:#F0C0FB;}
	.st1{fill:#B2E2FB;}
	.st2{fill:#F4F4F4;}
	.st3{fill:#F9DEC9;}
	.st4{fill:#285F4A;}
	.st5{fill:#ED664D;}
	.st6{fill:#1147CD;}
	.st7{fill:none;}
	.st8{fill:#F4F4F4;stroke:#000000;stroke-width:1.1667;stroke-miterlimit:10;}
	.st9{fill:#FFFFFF;stroke:#000000;stroke-width:0.4375;stroke-miterlimit:10;}
	.st10{fill:#FFFFFF;stroke:#000000;stroke-width:0.7999;stroke-miterlimit:10;}
	.st11{fill:none;stroke:#000000;stroke-width:1.1667;stroke-linecap:round;stroke-linejoin:round;stroke-miterlimit:10;}
	.st12{fill:#F4F4F4;stroke:#000000;stroke-width:1.2133;stroke-miterlimit:10;}
	.st13{fill:#A67C52;}
	.st14{fill:#B3B3B3;}
	.st15{fill:#FBB03B;}
	.st16{fill:#333333;}
	.st17{fill:#FFFFFF;}
	.st18{fill:none;stroke:#000000;stroke-width:1.1;stroke-miterlimit:10;}
</style>
<g>
	<g>
		<path d="M92.44,119.37l0.86,1.61c2.08-1.06,4.58-2.73,6.89-2.93l21.04-1.82l0.88,10.2l-39.36,3.41l-0.83-9.64
			c1.75-2.08,7.31-9.22,17.94-20.82c11.36-12.54,5.22-18.52-1.07-17.97c-6.93,0.6-7.88,7.27-7.54,11.17l-10.6,0.92
			c-0.7-8.13,3.47-21.17,20.28-22.63c13.79-1.19,22.4,13.95,13.94,24.64c-6.15,7.76-12.61,15.7-16.02,19.85
			C97.31,117.18,94.52,118.3,92.44,119.37z"/>
	</g>
	<g>
		<path d="M96.2,56.17c24.17-2.09,45.54,15.87,47.63,40.04s-15.87,45.54-40.04,47.63s-45.54-15.87-47.63-40.04
			S72.03,58.26,96.2,56.17 M95.69,50.19c-27.51,2.38-47.88,26.61-45.5,54.12s26.61,47.88,54.12,45.5
			c27.51-2.38,47.88-26.61,45.5-54.12C147.43,68.18,123.2,47.81,95.69,50.19L95.69,50.19z"/>
	</g>
</g>
</svg>
