<?xml version="1.0" encoding="utf-8"?>
<!-- Generator: Adobe Illustrator 25.0.0, SVG Export Plug-In . SVG Version: 6.00 Build 0)  -->
<svg version="1.1" id="Layer_1" xmlns="http://www.w3.org/2000/svg" xmlns:xlink="http://www.w3.org/1999/xlink" x="0px" y="0px"
	 viewBox="0 0 1550 270" style="enable-background:new 0 0 1550 270;" xml:space="preserve">
<style type="text/css">
	.st0{fill:#F0C0FB;}
</style>
<g>
	<path class="st0" d="M114.22,168.03c1.83,32.92-16.98,47.6-42.74,49.03c-22.18,1.23-42.8-8.15-53.41-26.95l14.13-12.75
		c9.18,14.56,28.26,22.12,42.88,18.2c10.87-2.52,17.59-10.79,16.69-27.01L84.95,45.71l22.42-1.24L114.22,168.03z"/>
	<path class="st0" d="M215.68,48.31c46.11,0,80.03,38.22,80.03,87.2c0,48.74-33.93,87.44-80.03,87.44s-80.03-37.75-80.03-87.44
		S169.57,48.31,215.68,48.31z M215.68,201.45c35.84,0,57.58-32.25,57.58-65.94c0-33.92-21.74-65.7-57.58-65.7
		c-36.07,0-57.81,31.77-57.81,65.7C157.87,169.19,179.61,201.45,215.68,201.45z"/>
	<path class="st0" d="M425.58,172.56c1.49,9.8,7.9,43.03,7.9,43.03l-22.54-2.67c-2.98-21.52-5.43-37.45-5.98-40.88
		c-4.66-27.73-22.37-30.55-31.56-32.12c-1.93,0.01-3.82-0.21-6.2-0.49c-6.17-0.73-17.77-2.34-26.54-3.38l-8,67.61l-21.83-2.58
		L330.48,35l52.91,6.26c35.83,4.24,64.82,15.37,60.22,54.28c-2.7,22.78-16.87,30.72-34,35.19c-6.21,1.67-14.64-0.29-21.05-1.05
		l-0.51,4.27c6.41,0.76,15.41-0.1,20.71,3.89C417.42,143.92,423.16,154.47,425.58,172.56z M342.99,116.35l30.37,3.59
		c23.01,2.72,44.63,0.95,47.89-26.57c3.17-26.81-16.06-31.01-40.73-33.93l-30.37-3.59L342.99,116.35z"/>
	<path class="st0" d="M588.63,205.41c0.42-7.39,4.05-16.52,6.15-23.82l-4-1.19c-2.09,7.3-2.69,17.79-7.55,23.26
		c-7.95,9.36-23.93,20.89-49.92,19.4c-46.99-2.69-81.56-42.47-78.73-92.08c2.84-49.61,40.27-85.04,87.98-82.31
		c34.58,1.98,61.51,20.74,70.52,51.41c0,0-22.11,5.91-22.1,5.68c-6.46-20.95-25.31-34.47-50.35-35.9
		c-35.54-2.03-61.58,26.63-63.63,62.41c-2.04,35.78,22.46,67.57,58.72,69.64c39.11,2.24,51.09-27.23,52-43.21l-44.84-2.56l1.13-19.8
		l68.93,3.94l-4.76,83.24l-20.51-1.17L588.63,205.41z"/>
	<path class="st0" d="M631.5,68.77l111.14-12.18L744.88,77l-89.29,9.79l5.49,50.11l83.36-9.14l2.24,20.42l-83.36,9.14l6.01,54.86
		l90.48-9.92l2.24,20.42L649.72,235L631.5,68.77z"/>
	<path class="st0" d="M770.18,135.27c0.24-49.69,35.12-86.96,82.66-86.96c42.52,0,70.48,23.41,75.01,56.14h-23.17
		c-4.78-18.87-19.59-34.88-51.84-34.88c-35.12,0-60.2,29.15-60.2,65.7c0,36.79,25.32,66.18,60.68,66.18
		c32.97,0,48.02-16.01,52.8-34.88h23.17c-5.02,34.4-33.45,56.14-75.73,56.14C805.54,222.71,770.42,185.2,770.18,135.27z"/>
	<path class="st0" d="M1199.38,93.74c-4.72-11.69-19.75-23.34-43.07-25.41c-20.23-1.8-41.67,4.69-43.06,20.4
		c-2.45,27.6,107.29,34.23,102.31,90.39c-3,33.79-36.74,46.39-73.38,43.13c-34.27-3.04-55.53-22.92-62.7-47.54l21.17-3.4
		c5.99,19,24.8,28.58,44.32,30.32c26.89,2.39,44.52-7.08,45.83-21.84c3.48-39.26-105.25-41-100.71-92.16
		c2.75-30.94,38.24-41.7,70.37-38.84c33.79,3,54.29,23.29,59.87,41.53L1199.38,93.74z"/>
	<path class="st0" d="M1276.91,52.38l28.39-1.55l74.26,163.66l-24.57,1.34l-26.62-58.12l-61.78,3.37l-18.46,60.58l-24.81,1.36
		L1276.91,52.38z M1295.82,83.17c-2.14-4.19-1.51-10.21-1.78-14.98l-4.3,0.23c0.26,4.77,1.54,10.68,0.11,15.07l-20.71,58.79
		l53.67-2.93L1295.82,83.17z"/>
	<path class="st0" d="M1502.5,142.39c6.44,7.53,29.44,32.37,29.44,32.37l-20.55,9.64c-13.9-16.7-24.39-28.93-26.68-31.55
		c-18.61-21.09-35.13-14.12-43.77-10.6c-1.63,1.03-3.36,1.84-5.52,2.86c-5.62,2.64-16.32,7.4-24.32,11.15l28.93,61.64l-19.9,9.34
		l-71.05-151.39l48.23-22.63c32.66-15.33,63.16-21.19,79.8,14.27c9.74,20.76,1.91,34.99-10.27,47.84
		c-4.39,4.7-12.58,7.49-18.42,10.23l1.83,3.89c5.84-2.74,13.03-8.23,19.64-7.64C1480.44,122.39,1490.88,128.31,1502.5,142.39z
		 M1402.68,138.3l27.68-12.99c20.98-9.85,38.4-22.77,26.62-47.86c-11.47-24.44-30.02-17.84-52.51-7.29l-27.68,12.99L1402.68,138.3z"
		/>
	<g>
		<path class="st0" d="M947.58,74.99l111.58-7.09l1.3,20.5l-89.65,5.7l1.25,19.72l83.69-5.32l1.3,20.5l-83.69,5.32l3.5,55.07
			l90.84-5.78l1.3,20.5l-112.78,7.17L947.58,74.99z"/>
		<polygon class="st0" points="977.08,62.79 1036.38,59.02 1035.04,37.94 976.01,45.94 		"/>
	</g>
</g>
</svg>
