<?xml version="1.0" encoding="utf-8"?>
<!-- Generator: Adobe Illustrator 25.0.0, SVG Export Plug-In . SVG Version: 6.00 Build 0)  -->
<svg version="1.1" id="Layer_1" xmlns="http://www.w3.org/2000/svg" xmlns:xlink="http://www.w3.org/1999/xlink" x="0px" y="0px"
	 viewBox="0 0 460 160" style="enable-background:new 0 0 460 160;" xml:space="preserve">
<g>
	<path style="fill:#F4F4F4;" d="M230,3.67C103.53,3.67,1,37.84,1,80s102.53,76.33,229,76.33S459,122.15,459,80
		C459,37.84,356.47,3.67,230,3.67z M389.51,33.27c35.73,11.91,58.16,27.7,61.42,42.92h-68.46c-2.43-24.64-28.22-46.21-66.54-59.28
		C343.16,20.63,368.13,26.14,389.51,33.27z M153.76,76.18H85.22c1.95-15.97,16.05-31.24,40.24-43.33
		c18.7-9.35,41.62-15.86,66.68-19.12C170.2,26.29,155.08,49.41,153.76,76.18z M153.76,83.82c1.32,26.77,16.44,49.89,38.38,62.46
		c-25.06-3.27-47.98-9.78-66.68-19.13c-24.19-12.1-38.29-27.36-40.24-43.33H153.76z M161.3,80c0-37.88,30.82-68.7,68.7-68.7
		s68.7,30.82,68.7,68.7s-30.82,68.7-68.7,68.7S161.3,117.88,161.3,80z M306.24,83.82h68.54c-1.95,15.97-16.05,31.24-40.24,43.33
		c-18.7,9.35-41.62,15.86-66.68,19.13C289.8,133.71,304.92,110.59,306.24,83.82z M306.24,76.18c-1.32-26.77-16.44-49.89-38.38-62.46
		c25.06,3.27,47.98,9.78,66.68,19.12c24.19,12.1,38.29,27.36,40.24,43.33L306.24,76.18L306.24,76.18z M70.49,33.27
		c21.38-7.13,46.36-12.64,73.58-16.36c-38.32,13.07-64.11,34.64-66.54,59.28H9.06C12.32,60.97,34.76,45.18,70.49,33.27z
		 M70.49,126.73c-35.73-11.91-58.16-27.7-61.42-42.92h68.46c2.43,24.64,28.22,46.21,66.54,59.28
		C116.84,139.37,91.87,133.86,70.49,126.73z M389.51,126.73c-21.38,7.13-46.35,12.64-73.58,16.36
		c38.32-13.07,64.11-34.64,66.54-59.28h68.46C447.68,99.03,425.25,114.82,389.51,126.73z"/>
	<g>
		<path style="fill:#F4F4F4;" d="M250.44,64.04c1.3-1.3,1.3-3.4,0-4.7s-3.41-1.29-4.7,0l-2.28,2.28c-3.98-2.97-8.69-4.54-13.66-4.54
			c-12.63,0-22.9,10.27-22.9,22.9c0,4.97,1.57,9.68,4.54,13.66l-2.28,2.28c-1.3,1.3-1.3,3.4,0,4.7c1.26,1.26,3.44,1.26,4.7,0
			l2.28-2.28c3.98,2.97,8.69,4.54,13.66,4.54c12.63,0,22.9-10.27,22.9-22.9c0-4.98-1.57-9.68-4.54-13.66L250.44,64.04z M238.67,66.4
			L216.2,88.88c-1.75-2.66-2.67-5.71-2.67-8.89c0-8.96,7.29-16.26,16.26-16.26C232.96,63.73,236.02,64.65,238.67,66.4z
			 M246.05,79.99c0,8.96-7.29,16.26-16.26,16.26c-3.17,0-6.23-0.92-8.89-2.67l22.47-22.47C245.13,73.76,246.05,76.82,246.05,79.99z"
			/>
		<path style="fill:#F4F4F4;" d="M283.15,79.63c-0.19-0.35-19.39-35.5-53.36-35.5s-52.76,35.16-52.95,35.51L176.66,80l0.19,0.35
			c0.19,0.36,19.16,35.53,52.95,35.53c33.78,0,53.17-35.17,53.36-35.52l0.2-0.36L283.15,79.63z M275.59,79.99
			c-1.93,2.96-5.74,8.31-11.14,13.56c-10.7,10.4-22.36,15.68-34.67,15.68c-12.29,0-23.88-5.27-34.43-15.65
			c-5.35-5.26-9.1-10.63-11-13.6c4.68-7.38,20.65-29.2,45.43-29.2C254.47,50.77,270.78,72.6,275.59,79.99z"/>
	</g>
</g>
</svg>
