<?xml version="1.0" encoding="utf-8"?>
<!-- Generator: Adobe Illustrator 25.0.0, SVG Export Plug-In . SVG Version: 6.00 Build 0)  -->
<svg version="1.1" id="Layer_1" xmlns="http://www.w3.org/2000/svg" xmlns:xlink="http://www.w3.org/1999/xlink" x="0px" y="0px"
	 viewBox="0 0 250 209.2" style="enable-background:new 0 0 250 209.2;" xml:space="preserve">
<style type="text/css">
	.st0{fill:#F0C0FB;}
</style>
<g>
	<g>
		<path class="st0" d="M101.6,95.81c0,0,22.13-1.64,22.13-27.6c0-25.95-18.1-38.61-41.04-38.61H40.48h-1.24H7.22v145.03h32.01h1.24
			h42.21c0,0,46.07,1.46,46.07-42.81C128.76,131.83,130.77,95.81,101.6,95.81z M39.18,54.18H75.5h5.37c0,0,10.13,0,10.13,14.9
			s-5.96,17.06-12.71,17.06h-39.1V54.18H39.18z M80.04,150.05H39.18v-39.33h42.83c0,0,15.52-0.2,15.52,20.21
			C97.53,147.95,86.18,149.88,80.04,150.05z"/>
		<rect x="159.63" y="36.98" class="st0" width="61.45" height="17.21"/>
		<path class="st0" d="M190.88,66.17c-56.89,0-56.84,56.83-56.84,56.83s-3.9,56.55,56.84,56.55c0,0,50.62,2.89,50.62-39.34h-26.03
			c0,0,0.87,15.91-23.72,15.91c0,0-26.03,1.74-26.03-25.75h76.65C242.37,130.38,250.76,66.17,190.88,66.17z M213.72,110.72h-47.98
			c0,0,3.14-22.51,25.7-22.51C214.01,88.21,213.72,110.72,213.72,110.72z"/>
	</g>
</g>
</svg>
