<?xml version="1.0" encoding="utf-8"?>
<!-- Generator: Adobe Illustrator 25.0.0, SVG Export Plug-In . SVG Version: 6.00 Build 0)  -->
<svg version="1.1" id="Layer_1" xmlns="http://www.w3.org/2000/svg" xmlns:xlink="http://www.w3.org/1999/xlink" x="0px" y="0px"
	 viewBox="0 0 130 108" style="enable-background:new 0 0 130 108;" xml:space="preserve">
<path style="fill:#F4F4F4;" d="M124.12,49.76L80.11,5.75c-2.34-2.34-6.12-2.34-8.46,0c-2.34,2.33-2.34,6.12,0,8.46l34.02,34.02
	H10.11c-3.3,0-5.98,2.68-5.98,5.98s2.68,5.98,5.98,5.98h95.13l-33.61,33.6c-2.34,2.33-2.34,6.12,0,8.46
	c1.17,1.17,2.7,1.75,4.23,1.75s3.06-0.58,4.23-1.75l44.04-44.04c1.12-1.12,1.75-2.64,1.75-4.23S125.24,50.88,124.12,49.76z"/>
</svg>
