<?xml version="1.0" encoding="utf-8"?>
<!-- Generator: Adobe Illustrator 25.0.0, SVG Export Plug-In . SVG Version: 6.00 Build 0)  -->
<svg version="1.1" id="Layer_1" xmlns="http://www.w3.org/2000/svg" xmlns:xlink="http://www.w3.org/1999/xlink" x="0px" y="0px"
	 viewBox="0 0 200 200" style="enable-background:new 0 0 200 200;" xml:space="preserve">
<style type="text/css">
	.st0{fill:#F0C0FB;}
	.st1{fill:#B2E2FB;}
	.st2{fill:#F4F4F4;}
	.st3{fill:#F9DEC9;}
	.st4{fill:#285F4A;}
	.st5{fill:#ED664D;}
	.st6{fill:#1147CD;}
	.st7{fill:none;}
	.st8{fill:#F4F4F4;stroke:#000000;stroke-width:1.1667;stroke-miterlimit:10;}
	.st9{fill:#FFFFFF;stroke:#000000;stroke-width:0.4375;stroke-miterlimit:10;}
	.st10{fill:#FFFFFF;stroke:#000000;stroke-width:0.7999;stroke-miterlimit:10;}
	.st11{fill:none;stroke:#000000;stroke-width:1.1667;stroke-linecap:round;stroke-linejoin:round;stroke-miterlimit:10;}
	.st12{fill:#F4F4F4;stroke:#000000;stroke-width:1.2133;stroke-miterlimit:10;}
	.st13{fill:#A67C52;}
	.st14{fill:#B3B3B3;}
	.st15{fill:#FBB03B;}
	.st16{fill:#333333;}
	.st17{fill:#FFFFFF;}
	.st18{fill:none;stroke:#000000;stroke-width:1.1;stroke-miterlimit:10;}
</style>
<g>
	<g>
		<path class="st0" d="M88.3,95.61c0,0,11.06-0.82,11.06-13.8c0-12.98-9.05-19.31-20.52-19.31H57.74h-0.62H41.11v72.51h16.01h0.62
			h21.11c0,0,23.03,0.73,23.03-21.4C101.88,113.61,102.89,95.61,88.3,95.61z M57.09,74.79h18.16h2.68c0,0,5.07,0,5.07,7.45
			c0,7.45-2.98,8.53-6.36,8.53H57.09V74.79z M77.52,122.72H57.09v-19.66h21.42c0,0,7.76-0.1,7.76,10.11
			C86.27,121.67,80.59,122.64,77.52,122.72z"/>
		<rect x="117.31" y="66.19" class="st0" width="30.73" height="8.6"/>
		<path class="st0" d="M132.94,80.79c-28.44,0-28.42,28.42-28.42,28.42s-1.95,28.28,28.42,28.28c0,0,25.31,1.45,25.31-19.67h-13.02
			c0,0,0.43,7.96-11.86,7.96c0,0-13.02,0.87-13.02-12.87h38.33C158.69,112.89,162.88,80.79,132.94,80.79z M144.36,103.06h-23.99
			c0,0,1.57-11.26,12.85-11.26C144.51,91.8,144.36,103.06,144.36,103.06z"/>
	</g>
</g>
</svg>
