<?xml version="1.0" encoding="utf-8"?>
<!-- Generator: Adobe Illustrator 25.0.0, SVG Export Plug-In . SVG Version: 6.00 Build 0)  -->
<svg version="1.1" id="Layer_1" xmlns="http://www.w3.org/2000/svg" xmlns:xlink="http://www.w3.org/1999/xlink" x="0px" y="0px"
	 viewBox="0 0 102 102" style="enable-background:new 0 0 102 102;" xml:space="preserve">
<path style="fill:#F0C0FB;" d="M51,1C23.4,1,1,23.4,1,51s22.4,50,50,50c27.55,0,50-22.4,50-50S78.55,1,51,1z M84.03,24.05
	c5.97,7.27,9.54,16.54,9.65,26.57c-1.41-0.27-15.51-3.15-29.72-1.36c-0.33-0.7-0.6-1.46-0.92-2.22c-0.87-2.06-1.84-4.18-2.82-6.18
	C75.95,34.46,83.1,25.24,84.03,24.05z M51,8.38c10.85,0,20.77,4.07,28.31,10.74c-0.76,1.08-7.21,9.71-22.4,15.4
	c-7-12.85-14.75-23.37-15.94-25C44.17,8.75,47.53,8.38,51,8.38z M32.83,12.39c1.14,1.52,8.73,12.09,15.84,24.67
	c-19.96,5.31-37.58,5.21-39.48,5.21C11.95,29.04,20.9,18.03,32.83,12.39z M8.27,51.05c0-0.43,0-0.87,0-1.3
	c1.84,0.05,22.56,0.33,43.87-6.07c1.25,2.39,2.39,4.83,3.47,7.27c-0.54,0.16-1.14,0.33-1.68,0.49
	c-22.02,7.1-33.73,26.52-34.71,28.15C12.44,72.04,8.27,62.01,8.27,51.05z M51,93.73c-9.87,0-18.98-3.36-26.19-9
	c0.76-1.57,9.44-18.28,33.51-26.68c0.11-0.05,0.16-0.05,0.27-0.11c6.02,15.56,8.46,28.63,9.11,32.38
	C62.55,92.54,56.91,93.73,51,93.73z M74.81,86.41c-0.43-2.6-2.71-15.08-8.3-30.42c13.39-2.11,25.11,1.36,26.57,1.84
	C91.24,69.71,84.41,79.96,74.81,86.41z"/>
</svg>
