<?xml version="1.0" encoding="utf-8"?>
<!-- Generator: Adobe Illustrator 25.0.0, SVG Export Plug-In . SVG Version: 6.00 Build 0)  -->
<svg version="1.1" id="Layer_1" xmlns="http://www.w3.org/2000/svg" xmlns:xlink="http://www.w3.org/1999/xlink" x="0px" y="0px"
	 viewBox="0 0 200 200" style="enable-background:new 0 0 200 200;" xml:space="preserve">
<style type="text/css">
	.st0{fill:#F0C0FB;}
	.st1{fill:#B2E2FB;}
	.st2{fill:#F4F4F4;}
	.st3{fill:#F9DEC9;}
	.st4{fill:#285F4A;}
	.st5{fill:#ED664D;}
	.st6{fill:#1147CD;}
	.st7{fill:none;}
	.st8{fill:#F4F4F4;stroke:#000000;stroke-width:1.1667;stroke-miterlimit:10;}
	.st9{fill:#FFFFFF;stroke:#000000;stroke-width:0.4375;stroke-miterlimit:10;}
	.st10{fill:#FFFFFF;stroke:#000000;stroke-width:0.7999;stroke-miterlimit:10;}
	.st11{fill:none;stroke:#000000;stroke-width:1.1667;stroke-linecap:round;stroke-linejoin:round;stroke-miterlimit:10;}
	.st12{fill:#F4F4F4;stroke:#000000;stroke-width:1.2133;stroke-miterlimit:10;}
	.st13{fill:#A67C52;}
	.st14{fill:#B3B3B3;}
	.st15{fill:#FBB03B;}
	.st16{fill:#333333;}
	.st17{fill:#FFFFFF;}
	.st18{fill:none;stroke:#000000;stroke-width:1.1;stroke-miterlimit:10;}
</style>
<g>
	<path class="st0" d="M139.72,79.64c4.07-2.89,7.49-6.49,10.28-10.64v0c-3.72,1.63-7.68,2.71-11.81,3.24
		c4.25-2.54,7.5-6.52,9.02-11.33c-3.96,2.36-8.34,4.03-13,4.96c-3.76-4.01-9.12-6.49-14.97-6.49c-11.35,0-20.49,9.21-20.49,20.5
		c0,1.63,0.14,3.19,0.47,4.68c-17.04-0.83-32.12-9-42.26-21.45c-1.77,3.07-2.81,6.58-2.81,10.36c0,7.1,3.65,13.39,9.11,17.04
		c-3.3-0.06-6.53-1.02-9.26-2.53v0.22c0,9.96,7.1,18.24,16.43,20.15c-1.67,0.46-3.49,0.68-5.38,0.68c-1.31,0-2.64-0.08-3.88-0.35
		c2.65,8.12,10.2,14.09,19.15,14.28c-6.98,5.45-15.83,8.74-25.42,8.74c-1.68,0-3.29-0.07-4.9-0.28c9.08,5.85,19.84,9.2,31.45,9.2
		C117.63,140.62,141.21,110.44,139.72,79.64L139.72,79.64z M139.6,79.66"/>
</g>
</svg>
