<?xml version="1.0" encoding="utf-8"?>
<!-- Generator: Adobe Illustrator 25.0.0, SVG Export Plug-In . SVG Version: 6.00 Build 0)  -->
<svg version="1.1" id="Layer_1" xmlns="http://www.w3.org/2000/svg" xmlns:xlink="http://www.w3.org/1999/xlink" x="0px" y="0px"
	 viewBox="0 0 500 200" style="enable-background:new 0 0 500 200;" xml:space="preserve">
<style type="text/css">
	.st0{fill:#F0C0FB;}
	.st1{fill:#B2E2FB;}
	.st2{fill:#F4F4F4;}
	.st3{fill:#F9DEC9;}
	.st4{fill:#285F4A;}
	.st5{fill:#ED664D;}
	.st6{fill:#1147CD;}
	.st7{fill:none;}
	.st8{fill:#F4F4F4;stroke:#000000;stroke-width:1.1667;stroke-miterlimit:10;}
	.st9{fill:#FFFFFF;stroke:#000000;stroke-width:0.4375;stroke-miterlimit:10;}
	.st10{fill:#FFFFFF;stroke:#000000;stroke-width:0.7999;stroke-miterlimit:10;}
	.st11{fill:none;stroke:#000000;stroke-width:1.1667;stroke-linecap:round;stroke-linejoin:round;stroke-miterlimit:10;}
	.st12{fill:#F4F4F4;stroke:#000000;stroke-width:1.2133;stroke-miterlimit:10;}
	.st13{fill:#A67C52;}
	.st14{fill:#B3B3B3;}
	.st15{fill:#FBB03B;}
	.st16{fill:#333333;}
	.st17{fill:#FFFFFF;}
	.st18{fill:none;stroke:#000000;stroke-width:1.1;stroke-miterlimit:10;}
</style>
<g>
	<path d="M250,50c-82.84,0-150,22.39-150,50c0,27.61,67.16,50,150,50c82.84,0,150-22.39,150-50C400,72.39,332.84,50,250,50z
		 M354.48,69.39c23.4,7.8,38.1,18.15,40.23,28.11h-44.84c-1.59-16.14-18.49-30.27-43.58-38.83
		C324.12,61.11,340.48,64.72,354.48,69.39z M200.06,97.5h-44.9c1.28-10.46,10.51-20.46,26.36-28.38
		c12.25-6.12,27.26-10.39,43.68-12.53C210.83,64.82,200.93,79.97,200.06,97.5z M200.06,102.5c0.86,17.53,10.77,32.68,25.14,40.91
		c-16.41-2.14-31.43-6.4-43.68-12.53c-15.85-7.92-25.08-17.92-26.36-28.38H200.06z M205,100c0-24.81,20.19-45,45-45s45,20.19,45,45
		s-20.19,45-45,45S205,124.81,205,100z M299.94,102.5h44.9c-1.28,10.46-10.51,20.46-26.36,28.38
		c-12.25,6.12-27.26,10.39-43.68,12.53C289.17,135.18,299.07,120.03,299.94,102.5z M299.94,97.5
		c-0.86-17.53-10.77-32.68-25.14-40.91c16.41,2.14,31.43,6.4,43.68,12.53c15.85,7.92,25.08,17.92,26.36,28.38H299.94z M145.52,69.39
		c14.01-4.67,30.36-8.28,48.19-10.72c-25.1,8.56-42,22.69-43.58,38.83h-44.84C107.42,87.53,122.11,77.19,145.52,69.39z
		 M145.52,130.61c-23.41-7.8-38.1-18.15-40.23-28.11h44.84c1.59,16.14,18.49,30.27,43.58,38.83
		C175.88,138.89,159.52,135.28,145.52,130.61z M354.48,130.61c-14.01,4.67-30.36,8.28-48.19,10.72c25.1-8.56,42-22.69,43.58-38.83
		h44.84C392.58,112.47,377.89,122.81,354.48,130.61z"/>
	<g>
		<path d="M263.39,89.55c0.85-0.85,0.85-2.23,0-3.08c-0.85-0.85-2.23-0.85-3.08,0l-1.5,1.5c-2.61-1.95-5.69-2.97-8.95-2.97
			c-8.27,0-15,6.73-15,15c0,3.26,1.03,6.34,2.97,8.95l-1.5,1.5c-0.85,0.85-0.85,2.23,0,3.08c0.82,0.82,2.25,0.82,3.08,0l1.5-1.5
			c2.61,1.95,5.69,2.97,8.95,2.97c8.27,0,15-6.73,15-15c0-3.26-1.03-6.34-2.97-8.95L263.39,89.55z M255.68,91.09l-14.72,14.72
			c-1.15-1.74-1.75-3.74-1.75-5.82c0-5.87,4.78-10.65,10.65-10.65C251.94,89.34,253.94,89.95,255.68,91.09z M260.51,99.99
			c0,5.87-4.78,10.65-10.65,10.65c-2.08,0-4.08-0.6-5.82-1.75l14.72-14.72C259.91,95.91,260.51,97.91,260.51,99.99z"/>
		<path d="M284.81,99.76c-0.12-0.23-12.7-23.26-34.95-23.26c-22.25,0-34.56,23.03-34.68,23.26l-0.12,0.23l0.12,0.23
			c0.12,0.23,12.55,23.27,34.68,23.27c22.13,0,34.83-23.03,34.95-23.27l0.13-0.24L284.81,99.76z M279.86,99.99
			c-1.26,1.94-3.76,5.44-7.29,8.88c-7.01,6.82-14.65,10.27-22.71,10.27c-8.05,0-15.64-3.45-22.55-10.25
			c-3.5-3.45-5.96-6.96-7.2-8.91c3.07-4.83,13.53-19.13,29.76-19.13C266.03,80.86,276.71,95.15,279.86,99.99z"/>
	</g>
</g>
</svg>
