<?xml version="1.0" encoding="utf-8"?>
<!-- Generator: Adobe Illustrator 25.0.0, SVG Export Plug-In . SVG Version: 6.00 Build 0)  -->
<svg version="1.1" id="Layer_1" xmlns="http://www.w3.org/2000/svg" xmlns:xlink="http://www.w3.org/1999/xlink" x="0px" y="0px"
	 viewBox="0 0 200 200" style="enable-background:new 0 0 200 200;" xml:space="preserve">
<style type="text/css">
	.st0{fill:#F0C0FB;}
	.st1{fill:#B2E2FB;}
	.st2{fill:#F4F4F4;}
	.st3{fill:#F9DEC9;}
	.st4{fill:#285F4A;}
	.st5{fill:#ED664D;}
	.st6{fill:#1147CD;}
	.st7{fill:none;}
	.st8{fill:#F4F4F4;stroke:#000000;stroke-width:1.1667;stroke-miterlimit:10;}
	.st9{fill:#FFFFFF;stroke:#000000;stroke-width:0.4375;stroke-miterlimit:10;}
	.st10{fill:#FFFFFF;stroke:#000000;stroke-width:0.7999;stroke-miterlimit:10;}
	.st11{fill:none;stroke:#000000;stroke-width:1.1667;stroke-linecap:round;stroke-linejoin:round;stroke-miterlimit:10;}
	.st12{fill:#F4F4F4;stroke:#000000;stroke-width:1.2133;stroke-miterlimit:10;}
	.st13{fill:#A67C52;}
	.st14{fill:#B3B3B3;}
	.st15{fill:#FBB03B;}
	.st16{fill:#333333;}
	.st17{fill:#FFFFFF;}
	.st18{fill:none;stroke:#000000;stroke-width:1.1;stroke-miterlimit:10;}
</style>
<g>
	<g>
		<path d="M85.83,89.65L87,80.12c5.8,0.71,10.99-2.92,11.65-8.24l12.62,1.55l-6.8,55.57l-10.4-1.27l4.54-37.07
			c0.29-2.38,2.1-4.66,3.46-6.59l-1.49-0.99c-1.35,1.85-2.83,4.65-5.02,5.43C92.45,89.57,88.77,90.01,85.83,89.65z"/>
	</g>
	<g>
		<path d="M105.35,56.33c24.08,2.95,41.27,24.94,38.32,49.02s-24.94,41.27-49.02,38.32s-41.27-24.94-38.32-49.02
			S81.27,53.38,105.35,56.33 M106.08,50.38c-27.41-3.36-52.34,16.14-55.7,43.55c-3.36,27.41,16.14,52.34,43.55,55.7
			c27.41,3.36,52.34-16.14,55.7-43.55C152.98,78.67,133.48,53.73,106.08,50.38L106.08,50.38z"/>
	</g>
</g>
</svg>
