<?xml version="1.0" encoding="utf-8"?>
<!-- Generator: Adobe Illustrator 25.0.0, SVG Export Plug-In . SVG Version: 6.00 Build 0)  -->
<svg version="1.1" id="Layer_1" xmlns="http://www.w3.org/2000/svg" xmlns:xlink="http://www.w3.org/1999/xlink" x="0px" y="0px"
	 viewBox="0 0 1000 200" style="enable-background:new 0 0 1000 200;" xml:space="preserve">
<style type="text/css">
	.st0{fill:#F0C0FB;}
	.st1{fill:#B2E2FB;}
	.st2{fill:#F4F4F4;}
	.st3{fill:#F9DEC9;}
	.st4{fill:#285F4A;}
	.st5{fill:#ED664D;}
	.st6{fill:#1147CD;}
	.st7{fill:none;}
	.st8{fill:#F4F4F4;stroke:#000000;stroke-width:1.1667;stroke-miterlimit:10;}
	.st9{fill:#FFFFFF;stroke:#000000;stroke-width:0.4375;stroke-miterlimit:10;}
	.st10{fill:#FFFFFF;stroke:#000000;stroke-width:0.7999;stroke-miterlimit:10;}
	.st11{fill:none;stroke:#000000;stroke-width:1.1667;stroke-linecap:round;stroke-linejoin:round;stroke-miterlimit:10;}
	.st12{fill:#F4F4F4;stroke:#000000;stroke-width:1.2133;stroke-miterlimit:10;}
	.st13{fill:#A67C52;}
	.st14{fill:#B3B3B3;}
	.st15{fill:#FBB03B;}
	.st16{fill:#333333;}
	.st17{fill:#FFFFFF;}
	.st18{fill:none;stroke:#000000;stroke-width:1.1;stroke-miterlimit:10;}
</style>
<g>
	<g>
		<path class="st0" d="M285.58,100.83v-1.89h31.54v1.89H285.58z"/>
		<path class="st0" d="M326.48,101.02c0,3.73,2.43,6.28,6.5,6.28c4.08,0,6.5-2.56,6.5-6.28V86.68h2.11v14.46
			c0,4.79-3.26,8.12-8.61,8.12s-8.59-3.33-8.59-8.12V86.68h2.09V101.02z"/>
		<path class="st0" d="M344.78,92.89h1.92v2.96h0.05c0.82-1.94,2.7-3.22,5.28-3.22c3.51,0,5.67,2.26,5.67,5.9v10.38h-2.03V98.85
			c0-2.8-1.54-4.41-4.22-4.41c-2.77,0-4.64,2-4.64,4.97v9.49h-2.03V92.89z"/>
		<path class="st0" d="M379.41,104.36c-0.48,2.77-3.08,4.8-6.61,4.8c-4.5,0-7.28-3.14-7.28-8.22c0-4.97,2.82-8.32,7.16-8.32
			c4.25,0,6.93,3.13,6.93,7.9v0.86h-12v0.12c0,3.62,2.05,5.87,5.24,5.87c2.42,0,4.1-1.26,4.54-3.02H379.41z M367.63,99.77h9.89
			c-0.05-3.16-1.97-5.36-4.87-5.36C369.79,94.41,367.8,96.61,367.63,99.77z"/>
		<path class="st0" d="M387.08,92.62c3.42,0,5.7,1.99,5.88,4.9h-1.96c-0.26-2-1.71-3.22-3.93-3.22c-2.19,0-3.68,1.16-3.68,2.76
			c0,1.31,0.91,2.12,3.03,2.63l2.42,0.57c3.2,0.77,4.4,2,4.4,4.27c0,2.71-2.54,4.63-6.04,4.63c-3.62,0-6.02-1.92-6.3-4.85h2.03
			c0.31,2.02,1.86,3.17,4.27,3.17s3.99-1.12,3.99-2.8c0-1.39-0.79-2.16-2.94-2.68l-2.4-0.57c-3.05-0.71-4.48-2.05-4.48-4.27
			C381.39,94.52,383.74,92.62,387.08,92.62z"/>
		<path class="st0" d="M398.26,88.88v4h3.16v1.69h-3.16v10.29c0,1.65,0.65,2.36,2.13,2.36c0.22,0,0.99-0.03,1.11-0.06v1.74
			c-0.22,0.05-1.08,0.09-1.51,0.09c-2.68,0-3.76-1.14-3.76-4.03V94.58h-2.39v-1.69h2.39v-4H398.26z"/>
		<path class="st0" d="M416.53,108.9h-1.92v-2.97h-0.05c-0.85,1.97-2.77,3.23-5.31,3.23c-3.48,0-5.65-2.26-5.65-5.87V92.89h2.05
			v10.06c0,2.83,1.51,4.41,4.19,4.41c2.79,0,4.67-1.96,4.67-4.96v-9.5h2.03V108.9z"/>
		<path class="st0" d="M418.61,100.89c0-4.99,2.79-8.27,6.81-8.27c2.59,0,4.64,1.48,5.48,3.56h0.05v-9.5h2.05v22.22h-1.94v-3.39
			h-0.05c-0.91,2.16-2.96,3.65-5.54,3.65C421.41,109.16,418.61,105.87,418.61,100.89z M420.7,100.89c0,3.91,2.03,6.47,5.11,6.47
			c3.05,0,5.14-2.59,5.14-6.47c0-3.87-2.09-6.47-5.14-6.47C422.74,94.43,420.7,96.98,420.7,100.89z"/>
		<path class="st0" d="M435.81,88.2c0-0.75,0.62-1.36,1.36-1.36c0.75,0,1.37,0.6,1.37,1.36s-0.62,1.36-1.37,1.36
			C436.43,89.56,435.81,88.96,435.81,88.2z M436.15,92.89h2.03v16.02h-2.03V92.89z"/>
		<path class="st0" d="M440.4,100.89c0-5.1,2.96-8.27,7.3-8.27c4.36,0,7.3,3.17,7.3,8.27c0,5.08-2.94,8.27-7.3,8.27
			S440.4,105.98,440.4,100.89z M452.94,100.89c0-4.07-2.09-6.47-5.24-6.47c-3.14,0-5.22,2.4-5.22,6.47s2.08,6.47,5.22,6.47
			C450.84,107.36,452.94,104.96,452.94,100.89z"/>
		<path class="st0" d="M473.93,97.95c-0.43-1.97-2.05-3.53-4.57-3.53c-3.13,0-5.17,2.51-5.17,6.47c0,4.02,2.06,6.47,5.19,6.47
			c2.42,0,4.1-1.34,4.56-3.42h2.02c-0.45,3.06-3.05,5.22-6.59,5.22c-4.37,0-7.25-3.14-7.25-8.27c0-5.05,2.88-8.27,7.24-8.27
			c3.77,0,6.19,2.46,6.59,5.33H473.93z"/>
		<path class="st0" d="M477.86,92.89h1.92v2.85h0.05c0.59-1.96,2.08-3.11,4.05-3.11c0.54,0,1.02,0.11,1.26,0.17v2
			c-0.26-0.12-0.83-0.23-1.52-0.23c-2.28,0-3.73,1.77-3.73,4.36v9.98h-2.03V92.89z"/>
		<path class="st0" d="M498.88,104.36c-0.48,2.77-3.08,4.8-6.61,4.8c-4.5,0-7.28-3.14-7.28-8.22c0-4.97,2.82-8.32,7.16-8.32
			c4.25,0,6.93,3.13,6.93,7.9v0.86h-12v0.12c0,3.62,2.05,5.87,5.24,5.87c2.42,0,4.1-1.26,4.54-3.02H498.88z M487.1,99.77h9.89
			c-0.05-3.16-1.97-5.36-4.87-5.36C489.25,94.41,487.27,96.61,487.1,99.77z"/>
		<path class="st0" d="M500.6,104.47c0-2.74,2.05-4.4,5.74-4.65l4.99-0.31v-1.39c0-2.31-1.46-3.7-3.96-3.7
			c-2.36,0-3.87,1.16-4.22,3.09h-1.97c0.23-2.86,2.59-4.9,6.24-4.9c3.65,0,5.94,2.05,5.94,5.31v10.96h-1.94v-3.05h-0.05
			c-0.89,1.99-3.08,3.31-5.47,3.31C502.76,109.16,500.6,107.27,500.6,104.47z M511.34,102.88v-1.77l-4.74,0.32
			c-2.53,0.17-3.93,1.26-3.93,3.03c0,1.74,1.49,2.94,3.67,2.94C509.13,107.41,511.34,105.42,511.34,102.88z"/>
		<path class="st0" d="M519.07,88.88v4h3.16v1.69h-3.16v10.29c0,1.65,0.65,2.36,2.13,2.36c0.22,0,0.99-0.03,1.11-0.06v1.74
			c-0.22,0.05-1.08,0.09-1.51,0.09c-2.68,0-3.76-1.14-3.76-4.03V94.58h-2.39v-1.69h2.39v-4H519.07z"/>
		<path class="st0" d="M524.29,88.2c0-0.75,0.62-1.36,1.36-1.36c0.75,0,1.37,0.6,1.37,1.36s-0.62,1.36-1.37,1.36
			C524.9,89.56,524.29,88.96,524.29,88.2z M524.63,92.89h2.03v16.02h-2.03V92.89z"/>
		<path class="st0" d="M536.3,108.9h-2.17l-5.96-16.02h2.16l4.87,13.87h0.05l4.88-13.87h2.13L536.3,108.9z"/>
		<path class="st0" d="M542.49,100.89c0-5.1,2.96-8.27,7.3-8.27c4.36,0,7.3,3.17,7.3,8.27c0,5.08-2.94,8.27-7.3,8.27
			C545.43,109.16,542.49,105.98,542.49,100.89z M555.03,100.89c0-4.07-2.09-6.47-5.24-6.47s-5.22,2.4-5.22,6.47s2.08,6.47,5.22,6.47
			S555.03,104.96,555.03,100.89z"/>
		<path class="st0" d="M576.02,97.95c-0.43-1.97-2.05-3.53-4.57-3.53c-3.13,0-5.17,2.51-5.17,6.47c0,4.02,2.06,6.47,5.19,6.47
			c2.42,0,4.1-1.34,4.56-3.42h2.02c-0.45,3.06-3.05,5.22-6.59,5.22c-4.37,0-7.25-3.14-7.25-8.27c0-5.05,2.88-8.27,7.24-8.27
			c3.77,0,6.19,2.46,6.59,5.33H576.02z"/>
		<path class="st0" d="M579.15,100.89c0-5.1,2.96-8.27,7.3-8.27c4.36,0,7.3,3.17,7.3,8.27c0,5.08-2.94,8.27-7.3,8.27
			C582.09,109.16,579.15,105.98,579.15,100.89z M591.68,100.89c0-4.07-2.09-6.47-5.24-6.47s-5.22,2.4-5.22,6.47s2.08,6.47,5.22,6.47
			S591.68,104.96,591.68,100.89z"/>
		<path class="st0" d="M595.83,92.89h1.92v2.96h0.05c0.82-1.94,2.69-3.22,5.28-3.22c3.51,0,5.67,2.26,5.67,5.9v10.38h-2.03V98.85
			c0-2.8-1.54-4.41-4.22-4.41c-2.77,0-4.64,2-4.64,4.97v9.49h-2.03V92.89z"/>
		<path class="st0" d="M617.51,86.68h2.03v22.22h-2.03V86.68z"/>
		<path class="st0" d="M622.36,88.2c0-0.75,0.62-1.36,1.36-1.36c0.75,0,1.37,0.6,1.37,1.36s-0.62,1.36-1.37,1.36
			C622.98,89.56,622.36,88.96,622.36,88.2z M622.7,92.89h2.03v16.02h-2.03V92.89z"/>
		<path class="st0" d="M629.89,105.51h-0.05v3.39h-1.96V86.68h2.05v9.55h0.05c0.91-2.2,2.97-3.6,5.48-3.6
			c4.02,0,6.76,3.28,6.76,8.27s-2.74,8.27-6.78,8.27C632.9,109.16,630.85,107.76,629.89,105.51z M629.92,100.89
			c0,3.85,2.13,6.47,5.14,6.47c3.08,0,5.07-2.54,5.07-6.47c0-3.91-1.99-6.47-5.07-6.47C632.06,94.43,629.92,97.06,629.92,100.89z"/>
		<path class="st0" d="M657.41,104.36c-0.48,2.77-3.08,4.8-6.61,4.8c-4.5,0-7.28-3.14-7.28-8.22c0-4.97,2.82-8.32,7.16-8.32
			c4.25,0,6.93,3.13,6.93,7.9v0.86h-12v0.12c0,3.62,2.05,5.87,5.24,5.87c2.42,0,4.1-1.26,4.54-3.02H657.41z M645.63,99.77h9.89
			c-0.05-3.16-1.97-5.36-4.87-5.36C647.79,94.41,645.8,96.61,645.63,99.77z"/>
		<path class="st0" d="M659.71,92.89h1.92v2.85h0.05c0.59-1.96,2.08-3.11,4.05-3.11c0.54,0,1.02,0.11,1.26,0.17v2
			c-0.26-0.12-0.83-0.23-1.52-0.23c-2.28,0-3.73,1.77-3.73,4.36v9.98h-2.03V92.89z"/>
		<path class="st0" d="M672.12,88.88v4h3.16v1.69h-3.16v10.29c0,1.65,0.65,2.36,2.13,2.36c0.22,0,0.99-0.03,1.11-0.06v1.74
			c-0.22,0.05-1.08,0.09-1.51,0.09c-2.68,0-3.76-1.14-3.76-4.03V94.58h-2.39v-1.69h2.39v-4H672.12z"/>
		<path class="st0" d="M676.53,104.47c0-2.74,2.05-4.4,5.74-4.65l4.99-0.31v-1.39c0-2.31-1.46-3.7-3.96-3.7
			c-2.36,0-3.87,1.16-4.22,3.09h-1.97c0.23-2.86,2.59-4.9,6.24-4.9s5.94,2.05,5.94,5.31v10.96h-1.94v-3.05h-0.05
			c-0.89,1.99-3.08,3.31-5.47,3.31C678.68,109.16,676.53,107.27,676.53,104.47z M687.26,102.88v-1.77l-4.74,0.32
			c-2.53,0.17-3.93,1.26-3.93,3.03c0,1.74,1.49,2.94,3.67,2.94C685.06,107.41,687.26,105.42,687.26,102.88z"/>
		<path class="st0" d="M691.28,100.89c0-4.99,2.79-8.27,6.81-8.27c2.59,0,4.64,1.48,5.48,3.56h0.05v-9.5h2.05v22.22h-1.94v-3.39
			h-0.05c-0.91,2.16-2.96,3.65-5.54,3.65C694.08,109.16,691.28,105.87,691.28,100.89z M693.37,100.89c0,3.91,2.03,6.47,5.11,6.47
			c3.05,0,5.14-2.59,5.14-6.47c0-3.87-2.09-6.47-5.14-6.47C695.41,94.43,693.37,96.98,693.37,100.89z"/>
		<path class="st0" d="M713.7,100.89c0-4.99,2.79-8.27,6.81-8.27c2.59,0,4.64,1.48,5.48,3.56h0.05v-9.5h2.05v22.22h-1.94v-3.39
			h-0.05c-0.91,2.16-2.96,3.65-5.54,3.65C716.51,109.16,713.7,105.87,713.7,100.89z M715.8,100.89c0,3.91,2.03,6.47,5.11,6.47
			c3.05,0,5.14-2.59,5.14-6.47c0-3.87-2.09-6.47-5.14-6.47C717.83,94.43,715.8,96.98,715.8,100.89z"/>
		<path class="st0" d="M744.2,104.36c-0.48,2.77-3.08,4.8-6.61,4.8c-4.5,0-7.28-3.14-7.28-8.22c0-4.97,2.82-8.32,7.16-8.32
			c4.25,0,6.93,3.13,6.93,7.9v0.86h-12v0.12c0,3.62,2.05,5.87,5.24,5.87c2.42,0,4.1-1.26,4.54-3.02H744.2z M732.41,99.77h9.89
			c-0.05-3.16-1.97-5.36-4.87-5.36C734.57,94.41,732.58,96.61,732.41,99.77z"/>
		<path class="st0" d="M765.4,104.36c-0.48,2.77-3.08,4.8-6.61,4.8c-4.5,0-7.28-3.14-7.28-8.22c0-4.97,2.82-8.32,7.16-8.32
			c4.25,0,6.93,3.13,6.93,7.9v0.86h-12v0.12c0,3.62,2.05,5.87,5.24,5.87c2.42,0,4.1-1.26,4.54-3.02H765.4z M753.62,99.77h9.89
			c-0.05-3.16-1.97-5.36-4.87-5.36C755.78,94.41,753.79,96.61,753.62,99.77z"/>
		<path class="st0" d="M772.78,102.32l-4.42,6.58h-2.28l5.62-8.05l-5.56-7.96h2.31l4.39,6.42h0.05l4.37-6.42h2.29l-5.59,7.88
			l5.54,8.13h-2.29l-4.39-6.58H772.78z"/>
		<path class="st0" d="M795.36,100.89c0,4.99-2.76,8.27-6.78,8.27c-2.59,0-4.6-1.48-5.45-3.56h-0.06v8.59h-2.03V92.89h1.92v3.39
			h0.06c0.88-2.13,2.91-3.65,5.51-3.65C792.58,92.62,795.36,95.92,795.36,100.89z M793.28,100.89c0-3.9-2-6.47-5.1-6.47
			c-3.03,0-5.11,2.62-5.11,6.47c0,3.87,2.08,6.47,5.11,6.47C791.28,107.36,793.28,104.8,793.28,100.89z"/>
		<path class="st0" d="M797.45,92.89h1.93v2.85h0.05c0.59-1.96,2.08-3.11,4.05-3.11c0.54,0,1.02,0.11,1.26,0.17v2
			c-0.26-0.12-0.83-0.23-1.52-0.23c-2.28,0-3.73,1.77-3.73,4.36v9.98h-2.03V92.89z"/>
		<path class="st0" d="M818.47,104.36c-0.48,2.77-3.08,4.8-6.61,4.8c-4.5,0-7.28-3.14-7.28-8.22c0-4.97,2.82-8.32,7.16-8.32
			c4.25,0,6.93,3.13,6.93,7.9v0.86h-12v0.12c0,3.62,2.05,5.87,5.24,5.87c2.42,0,4.1-1.26,4.54-3.02H818.47z M806.69,99.77h9.89
			c-0.05-3.16-1.97-5.36-4.87-5.36C808.85,94.41,806.86,96.61,806.69,99.77z"/>
		<path class="st0" d="M826.14,92.62c3.42,0,5.7,1.99,5.88,4.9h-1.96c-0.26-2-1.71-3.22-3.93-3.22c-2.19,0-3.68,1.16-3.68,2.76
			c0,1.31,0.91,2.12,3.03,2.63l2.42,0.57c3.2,0.77,4.4,2,4.4,4.27c0,2.71-2.54,4.63-6.04,4.63c-3.62,0-6.02-1.92-6.3-4.85h2.03
			c0.31,2.02,1.86,3.17,4.27,3.17s3.99-1.12,3.99-2.8c0-1.39-0.79-2.16-2.94-2.68l-2.4-0.57c-3.05-0.71-4.48-2.05-4.48-4.27
			C820.45,94.52,822.8,92.62,826.14,92.62z"/>
		<path class="st0" d="M834.21,88.2c0-0.75,0.62-1.36,1.36-1.36c0.75,0,1.37,0.6,1.37,1.36s-0.62,1.36-1.37,1.36
			C834.83,89.56,834.21,88.96,834.21,88.2z M834.55,92.89h2.03v16.02h-2.03V92.89z"/>
		<path class="st0" d="M838.8,100.89c0-5.1,2.96-8.27,7.3-8.27c4.36,0,7.3,3.17,7.3,8.27c0,5.08-2.94,8.27-7.3,8.27
			C841.74,109.16,838.8,105.98,838.8,100.89z M851.34,100.89c0-4.07-2.09-6.47-5.24-6.47s-5.22,2.4-5.22,6.47s2.08,6.47,5.22,6.47
			S851.34,104.96,851.34,100.89z M845.3,90.45l2.86-4.65h2.26l-3.5,4.65H845.3z"/>
		<path class="st0" d="M855.48,92.89h1.92v2.96h0.05c0.82-1.94,2.69-3.22,5.28-3.22c3.51,0,5.67,2.26,5.67,5.9v10.38h-2.03V98.85
			c0-2.8-1.54-4.41-4.22-4.41c-2.77,0-4.64,2-4.64,4.97v9.49h-2.03V92.89z"/>
		<path class="st0" d="M883.65,108.9h-2.17l-5.96-16.02h2.16l4.87,13.87h0.05l4.88-13.87h2.13L883.65,108.9z"/>
		<path class="st0" d="M890.76,88.2c0-0.75,0.62-1.36,1.36-1.36c0.75,0,1.37,0.6,1.37,1.36s-0.62,1.36-1.37,1.36
			C891.38,89.56,890.76,88.96,890.76,88.2z M891.1,92.89h2.03v16.02h-2.03V92.89z"/>
		<path class="st0" d="M901.53,92.62c3.42,0,5.7,1.99,5.88,4.9h-1.96c-0.26-2-1.71-3.22-3.93-3.22c-2.19,0-3.68,1.16-3.68,2.76
			c0,1.31,0.91,2.12,3.03,2.63l2.42,0.57c3.2,0.77,4.4,2,4.4,4.27c0,2.71-2.54,4.63-6.04,4.63c-3.62,0-6.02-1.92-6.3-4.85h2.03
			c0.31,2.02,1.86,3.17,4.27,3.17s3.99-1.12,3.99-2.8c0-1.39-0.79-2.16-2.94-2.68l-2.4-0.57c-3.05-0.71-4.48-2.05-4.48-4.27
			C895.83,94.52,898.19,92.62,901.53,92.62z"/>
		<path class="st0" d="M922.64,108.9h-1.92v-2.97h-0.05c-0.85,1.97-2.77,3.23-5.31,3.23c-3.48,0-5.65-2.26-5.65-5.87V92.89h2.05
			v10.06c0,2.83,1.51,4.41,4.19,4.41c2.79,0,4.67-1.96,4.67-4.96v-9.5h2.03V108.9z"/>
		<path class="st0" d="M924.95,104.47c0-2.74,2.05-4.4,5.74-4.65l4.99-0.31v-1.39c0-2.31-1.46-3.7-3.96-3.7
			c-2.36,0-3.87,1.16-4.22,3.09h-1.97c0.23-2.86,2.59-4.9,6.24-4.9s5.94,2.05,5.94,5.31v10.96h-1.94v-3.05h-0.05
			c-0.89,1.99-3.08,3.31-5.47,3.31C927.11,109.16,924.95,107.27,924.95,104.47z M935.69,102.88v-1.77l-4.74,0.32
			c-2.53,0.17-3.93,1.26-3.93,3.03c0,1.74,1.49,2.94,3.67,2.94C933.49,107.41,935.69,105.42,935.69,102.88z"/>
		<path class="st0" d="M940.65,86.68h2.03v22.22h-2.03V86.68z"/>
		<path class="st0" d="M946.04,107.61c0-0.82,0.65-1.45,1.45-1.45s1.43,0.63,1.43,1.45c0,0.8-0.63,1.43-1.43,1.43
			S946.04,108.41,946.04,107.61z"/>
	</g>
	<g>
		<path class="st0" d="M65.51,104.95c0.27,4.94-2.55,7.14-6.41,7.35c-3.33,0.18-6.42-1.22-8.01-4.04l2.12-1.91
			c1.38,2.18,4.24,3.32,6.43,2.73c1.63-0.38,2.64-1.62,2.5-4.05l-1.02-18.43l3.36-0.19L65.51,104.95z"/>
		<path class="st0" d="M80.72,87c6.92,0,12.01,5.73,12.01,13.08c0,7.31-5.09,13.12-12.01,13.12s-12-5.66-12-13.12S73.81,87,80.72,87
			z M80.72,109.97c5.38,0,8.64-4.84,8.64-9.89c0-5.09-3.26-9.85-8.64-9.85c-5.41,0-8.67,4.77-8.67,9.85
			C72.05,105.13,75.31,109.97,80.72,109.97z"/>
		<path class="st0" d="M112.21,105.63c0.22,1.47,1.18,6.46,1.18,6.46l-3.38-0.4c-0.45-3.23-0.81-5.62-0.9-6.13
			c-0.7-4.16-3.36-4.58-4.73-4.82c-0.29,0-0.57-0.03-0.93-0.07c-0.93-0.11-2.66-0.35-3.98-0.51l-1.2,10.14L95,109.91L97.94,85
			l7.94,0.94c5.37,0.64,9.72,2.31,9.03,8.14c-0.4,3.42-2.53,4.61-5.1,5.28c-0.93,0.25-2.2-0.04-3.16-0.16l-0.08,0.64
			c0.96,0.11,2.31-0.02,3.11,0.58C110.99,101.34,111.85,102.92,112.21,105.63z M99.82,97.2l4.56,0.54c3.45,0.41,6.7,0.14,7.18-3.99
			c0.48-4.02-2.41-4.65-6.11-5.09l-4.56-0.54L99.82,97.2z"/>
		<path class="st0" d="M136.67,110.56c0.06-1.11,0.61-2.48,0.92-3.57l-0.6-0.18c-0.31,1.09-0.4,2.67-1.13,3.49
			c-1.19,1.4-3.59,3.13-7.49,2.91c-7.05-0.4-12.23-6.37-11.81-13.81c0.43-7.44,6.04-12.76,13.2-12.35c5.19,0.3,9.23,3.11,10.58,7.71
			c0,0-3.32,0.89-3.31,0.85c-0.97-3.14-3.8-5.17-7.55-5.38c-5.33-0.3-9.24,3.99-9.54,9.36c-0.31,5.37,3.37,10.14,8.81,10.45
			c5.87,0.34,7.66-4.08,7.8-6.48l-6.73-0.38l0.17-2.97l10.34,0.59l-0.71,12.49l-3.08-0.18L136.67,110.56z"/>
		<path class="st0" d="M143.1,90.06l16.67-1.83l0.34,3.06l-13.39,1.47l0.82,7.52l12.5-1.37l0.34,3.06l-12.5,1.37l0.9,8.23
			l13.57-1.49l0.34,3.06L145.83,115L143.1,90.06z"/>
		<path class="st0" d="M163.9,100.04c0.04-7.45,5.27-13.04,12.4-13.04c6.38,0,10.57,3.51,11.25,8.42h-3.48
			c-0.72-2.83-2.94-5.23-7.78-5.23c-5.27,0-9.03,4.37-9.03,9.85c0,5.52,3.8,9.93,9.1,9.93c4.95,0,7.2-2.4,7.92-5.23h3.48
			c-0.75,5.16-5.02,8.42-11.36,8.42C169.2,113.16,163.94,107.53,163.9,100.04z"/>
		<path class="st0" d="M228.28,93.81c-0.71-1.75-2.96-3.5-6.46-3.81c-3.03-0.27-6.25,0.7-6.46,3.06
			c-0.37,4.14,16.09,5.13,15.35,13.56c-0.45,5.07-5.51,6.96-11.01,6.47c-5.14-0.46-8.33-3.44-9.4-7.13l3.18-0.51
			c0.9,2.85,3.72,4.29,6.65,4.55c4.03,0.36,6.68-1.06,6.87-3.28c0.52-5.89-15.79-6.15-15.11-13.82c0.41-4.64,5.74-6.25,10.55-5.83
			c5.07,0.45,8.14,3.49,8.98,6.23L228.28,93.81z"/>
		<path class="st0" d="M239.91,87.61l4.26-0.23l11.14,24.55l-3.69,0.2l-3.99-8.72l-9.27,0.51l-2.77,9.09l-3.72,0.2L239.91,87.61z
			 M242.74,92.23c-0.32-0.63-0.23-1.53-0.27-2.25l-0.64,0.04c0.04,0.72,0.23,1.6,0.02,2.26l-3.11,8.82l8.05-0.44L242.74,92.23z"/>
		<path class="st0" d="M273.75,101.11c0.97,1.13,4.42,4.86,4.42,4.86l-3.08,1.45c-2.09-2.5-3.66-4.34-4-4.73
			c-2.79-3.16-5.27-2.12-6.57-1.59c-0.24,0.15-0.5,0.28-0.83,0.43c-0.84,0.4-2.45,1.11-3.65,1.67l4.34,9.25l-2.98,1.4l-10.66-22.71
			l7.23-3.4c4.9-2.3,9.47-3.18,11.97,2.14c1.46,3.11,0.29,5.25-1.54,7.18c-0.66,0.71-1.89,1.12-2.76,1.53l0.27,0.58
			c0.88-0.41,1.95-1.23,2.95-1.15C270.44,98.11,272,99,273.75,101.11z M258.77,100.49l4.15-1.95c3.15-1.48,5.76-3.42,3.99-7.18
			c-1.72-3.67-4.5-2.68-7.88-1.09l-4.15,1.95L258.77,100.49z"/>
		<g>
			<path class="st0" d="M190.51,91l16.74-1.06l0.2,3.08L194,93.87l0.19,2.96l12.55-0.8l0.2,3.08l-12.55,0.8l0.53,8.26l13.63-0.87
				l0.2,3.08l-16.92,1.08L190.51,91z"/>
			<polygon class="st0" points="194.93,89.17 203.83,88.6 203.63,85.44 194.77,86.64 			"/>
		</g>
	</g>
</g>
</svg>
