<?xml version="1.0" encoding="utf-8"?>
<!-- Generator: Adobe Illustrator 25.0.0, SVG Export Plug-In . SVG Version: 6.00 Build 0)  -->
<svg version="1.1" id="Layer_1" xmlns="http://www.w3.org/2000/svg" xmlns:xlink="http://www.w3.org/1999/xlink" x="0px" y="0px"
	 viewBox="0 0 700 500" style="enable-background:new 0 0 700 500;" xml:space="preserve">
<style type="text/css">
	.st0{fill:#F0C0FB;}
	.st1{fill:#B2E2FB;}
	.st2{fill:#F4F4F4;}
	.st3{fill:#F9DEC9;}
	.st4{fill:#285F4A;}
	.st5{fill:#ED664D;}
	.st6{fill:#1147CD;}
	.st7{fill:none;}
	.st8{fill:#F4F4F4;stroke:#000000;stroke-width:1.1667;stroke-miterlimit:10;}
	.st9{fill:#FFFFFF;stroke:#000000;stroke-width:0.4375;stroke-miterlimit:10;}
	.st10{fill:#FFFFFF;stroke:#000000;stroke-width:0.7999;stroke-miterlimit:10;}
	.st11{fill:none;stroke:#000000;stroke-width:1.1667;stroke-linecap:round;stroke-linejoin:round;stroke-miterlimit:10;}
	.st12{fill:#F4F4F4;stroke:#000000;stroke-width:1.2133;stroke-miterlimit:10;}
	.st13{fill:#A67C52;}
	.st14{fill:#B3B3B3;}
	.st15{fill:#FBB03B;}
	.st16{fill:#333333;}
	.st17{fill:#FFFFFF;}
	.st18{fill:none;stroke:#000000;stroke-width:1.1;stroke-miterlimit:10;}
</style>
<g>
	<rect x="83.97" y="83.97" class="st1" width="565.38" height="365.38"/>
	<g>
		<path d="M648.72,84.62v364.1H84.62V84.62H648.72 M650,83.33H83.33V450H650V83.33L650,83.33z"/>
	</g>
</g>
<g>
	<rect x="67.31" y="67.31" class="st6" width="565.38" height="365.38"/>
	<path d="M632.05,67.95v364.1H67.95V67.95H632.05 M633.33,66.67H66.67v366.67h566.67V66.67L633.33,66.67z"/>
</g>
<g>
	<rect x="50.64" y="50.64" class="st2" width="565.38" height="365.38"/>
	<path d="M615.38,51.28v364.1H51.28V51.28H615.38 M616.67,50H50v366.67h566.67V50L616.67,50z"/>
</g>
<g>
	<path d="M453.46,243.12h1.68v8.98h-1.68V243.12z"/>
	<path d="M458.35,252.1h-1.48v-9.18h3.76c2.54,0,4.47,1.82,4.47,4.49c0,2.67-1.99,4.71-4.53,4.7L458.35,252.1z M460.33,250.53
		c1.8,0,3.14-1.46,3.14-3.08c0-1.63-1.28-2.93-3.08-2.93h-1.83v6.01H460.33z"/>
	<path d="M466.45,243.12h6.26v1.57h-4.63v2.05h4.31v1.57h-4.31v2.23h4.7v1.57h-6.33V243.12z"/>
	<path d="M475.56,252.1h-1.68v-8.98h1.68l4.09,5.43c0.33,0.44,0.54,1.14,0.72,1.67l0.28-0.09c-0.18-0.53-0.44-1.21-0.44-1.77v-5.24
		h1.68v8.98h-1.68l-4.09-5.42c-0.35-0.45-0.55-1.14-0.73-1.68l-0.27,0.1c0.18,0.53,0.44,1.21,0.44,1.77V252.1z"/>
	<path d="M485.47,252.1v-7.42h-2.4v-1.57h6.48v1.57h-2.4v7.42H485.47z"/>
	<path d="M490.92,243.12h1.68v8.98h-1.68V243.12z"/>
	<path d="M495.81,252.1h-1.48v-9.18h3.76c2.54,0,4.46,1.82,4.46,4.49c0,2.67-1.99,4.71-4.53,4.7L495.81,252.1z M497.79,250.53
		c1.8,0,3.14-1.46,3.14-3.08c0-1.63-1.28-2.93-3.08-2.93h-1.84v6.01H497.79z"/>
	<path d="M506.01,243.1h1.92l3.46,9h-1.76l-1.21-3.13h-2.86l-1.1,3.13h-1.77L506.01,243.1z M507.18,245.32
		c-0.12-0.27-0.05-0.64-0.05-0.92h-0.3c0,0.28,0.06,0.66-0.05,0.92l-1.05,2.39h2.5L507.18,245.32z"/>
	<path d="M513.83,252.1h-1.47v-9.18h3.76c2.54,0,4.46,1.82,4.46,4.49c0,2.67-1.99,4.71-4.53,4.7L513.83,252.1z M515.8,250.53
		c1.8,0,3.14-1.46,3.14-3.08c0-1.63-1.28-2.93-3.08-2.93h-1.83v6.01H515.8z"/>
	<path d="M532.42,251.39c0-0.51,0.23-1.16,0.36-1.66l-0.27-0.06c-0.14,0.49-0.17,1.22-0.51,1.6c-0.45,0.49-1.28,1.04-2.61,1.04
		c-2.64,0-4.7-2.03-4.7-4.7s2.01-4.68,4.77-4.68c1.99,0,3.59,0.92,4.2,2.54c0,0-1.68,0.39-1.67,0.37c-0.4-0.82-1.37-1.32-2.63-1.32
		c-1.77,0-2.99,1.28-2.99,3.09s1.31,3.11,3.21,3.11c2.04,0,2.64-1.32,2.64-2.03h-2.41v-1.45h4.22v4.86h-1.62V251.39z"/>
	<path d="M541.9,249.86c0.12,0.51,0.68,2.25,0.68,2.25h-1.73c-0.28-1.13-0.5-1.96-0.54-2.14c-0.41-1.45-1.31-1.3-1.78-1.32
		c-0.09,0-0.19,0-0.31,0c-0.31,0-0.96,0-1.12,0v3.46h-1.63v-8.98h3.21c2.02,0,3.68,0.41,3.68,2.51c0,1.16-0.6,1.67-1.41,2.01
		c-0.42,0.19-1.04,0.12-1.5,0.12v0.3c0.46,0,1.12-0.13,1.5,0.13C541.46,248.5,541.69,249.05,541.9,249.86z M537.1,247.25h1.45
		c1.12,0,2.13-0.45,2.13-1.59c0-1.13-0.94-1.42-2.13-1.42h-1.45V247.25z"/>
	<path d="M546.09,243.1h1.92l3.46,9h-1.76l-1.21-3.13h-2.86l-1.1,3.13h-1.77L546.09,243.1z M547.26,245.32
		c-0.12-0.27-0.05-0.64-0.05-0.92h-0.29c0,0.28,0.06,0.66-0.05,0.92l-1.05,2.39h2.5L547.26,245.32z"/>
	<path d="M553.87,244.75v2.31h3.88v1.62h-3.88v3.43h-1.68v-8.98h6.26v1.63H553.87z"/>
	<path d="M560.03,243.12h1.68v8.98h-1.68V243.12z"/>
	<path d="M562.8,247.6c0-2.67,1.96-4.67,4.62-4.67c2.73,0,4.02,1.49,4.2,3.21h-1.69c-0.21-0.76-0.69-1.59-2.49-1.59
		c-1.66,0-2.95,1.13-2.95,3.07c0,1.92,1.28,3.07,2.95,3.07c1.89,0,2.39-0.83,2.6-1.59h1.69c-0.24,2-1.6,3.21-4.26,3.21
		C564.79,252.3,562.8,250.28,562.8,247.6z"/>
	<path d="M575.26,243.1h1.92l3.46,9h-1.76l-1.21-3.13h-2.86l-1.1,3.13h-1.77L575.26,243.1z M576.43,245.32
		c-0.12-0.27-0.05-0.64-0.05-0.92h-0.3c0,0.28,0.06,0.66-0.05,0.92l-1.05,2.39h2.5L576.43,245.32z"/>
</g>
<g>
	<path d="M548.32,238.92l1.13,1.13l-2.39,2.08l-0.82-0.82L548.32,238.92z"/>
</g>
<g>
	<path d="M503.96,263.34v3.76h-1.68v-8.98h3.36c1.91,0,3.49,0.41,3.49,2.57c0,2.16-1.57,2.67-3.63,2.67
		C505.17,263.36,504.62,263.36,503.96,263.34z M505.38,261.95c1.1,0,2.12-0.09,2.12-1.26c0-1.13-0.94-1.14-2.12-1.14h-1.41v2.4
		H505.38z"/>
	<path d="M512.24,258.1h1.92l3.46,9h-1.76l-1.21-3.13h-2.86l-1.1,3.13h-1.77L512.24,258.1z M513.41,260.32
		c-0.12-0.27-0.05-0.64-0.05-0.92h-0.29c0,0.28,0.06,0.66-0.05,0.92l-1.05,2.39h2.5L513.41,260.32z"/>
	<path d="M525.63,266.39c0-0.51,0.23-1.16,0.36-1.66l-0.27-0.06c-0.14,0.49-0.17,1.22-0.51,1.6c-0.45,0.49-1.28,1.04-2.61,1.04
		c-2.64,0-4.7-2.03-4.7-4.7s2.01-4.68,4.77-4.68c1.99,0,3.59,0.92,4.2,2.54c0,0-1.68,0.39-1.67,0.37c-0.4-0.82-1.37-1.32-2.63-1.32
		c-1.77,0-2.99,1.28-2.99,3.09s1.31,3.11,3.21,3.11c2.04,0,2.64-1.32,2.64-2.03h-2.41v-1.45h4.22v4.86h-1.62V266.39z"/>
	<path d="M528.67,258.12h1.68v8.98h-1.68V258.12z"/>
	<path d="M533.76,267.1h-1.68v-8.98h1.68l4.09,5.43c0.33,0.44,0.54,1.14,0.72,1.67l0.28-0.09c-0.18-0.53-0.44-1.21-0.44-1.77v-5.24
		h1.68v8.98h-1.68l-4.09-5.42c-0.35-0.45-0.55-1.14-0.73-1.68l-0.27,0.1c0.18,0.53,0.44,1.21,0.44,1.77V267.1z"/>
	<path d="M543.95,258.1h1.92l3.46,9h-1.76l-1.21-3.13h-2.86l-1.1,3.13h-1.77L543.95,258.1z M545.12,260.32
		c-0.12-0.27-0.05-0.64-0.05-0.92h-0.29c0,0.28,0.06,0.66-0.05,0.92l-1.05,2.39h2.5L545.12,260.32z"/>
	<path d="M556.76,267.1h-1.94l-2.23-8.98h1.63l1.36,5.79c0.12,0.45,0.04,1.08,0.03,1.54l0.28,0.01c0.01-0.47-0.04-1.09,0.08-1.55
		l1.63-5.79h1.92l1.66,5.79c0.12,0.46,0.06,1.08,0.08,1.55l0.29-0.01c-0.01-0.46-0.09-1.09,0.01-1.54l1.36-5.79h1.63l-2.22,8.98
		h-1.95l-1.62-6.56c-0.12-0.49-0.05-1.14-0.05-1.64h-0.29c0,0.5,0.06,1.16-0.05,1.64L556.76,267.1z"/>
	<path d="M565.63,258.12h6.26v1.57h-4.63v2.05h4.31v1.57h-4.31v2.23h4.7v1.57h-6.33V258.12z"/>
	<path d="M580.34,264.6c0,2.16-1.33,2.53-3.61,2.53c-0.35,0-1.26-0.01-2.04-0.01v-0.01h-1.63v-8.98h3.52c1.86,0,3.3,0.29,3.3,2.21
		c0,0.94-0.47,1.44-1.48,1.8c-0.33,0.13-0.81,0.04-1.16,0.04v0.28c0.35,0,0.82-0.08,1.16,0.04
		C579.36,262.81,580.34,263.31,580.34,264.6z M576.15,261.5c1.16,0,2.03-0.1,2.03-1.09c0-0.96-0.8-0.98-2.03-0.98h-1.46v2.07H576.15
		z M576.19,265.83c1.53,0,2.46,0.05,2.46-1.28c0-1.37-1.19-1.37-2.82-1.37c-0.19,0-0.58,0-1.01-0.01h-0.13v2.67H576.19z"/>
</g>
<g>
	<path d="M514.32,253.92l1.13,1.13l-2.39,2.08l-0.82-0.82L514.32,253.92z"/>
</g>
<g>
	<path d="M451.25,295.81c0.03,4.29-3,6.62-6.9,6.62s-6.9-2.33-6.93-6.62c0-5.34,0.03-11.73,0.03-11.73h1.44v12.04
		c0.03,2.62,2.34,4.95,5.47,4.95c3.16,0,5.49-2.33,5.47-4.95c0-4.08,0-12.04,0-12.04h1.44V295.81z"/>
	<path d="M457.08,302.04h-1.44v-17.97h1.44l9.78,13.88c0.64,0.92,1.16,2.28,1.49,3.36l0.31-0.1c-0.33-1.05-0.72-2.46-0.72-3.59
		v-13.55h1.44v17.97h-1.44l-9.78-13.86c-0.64-0.92-1.16-2.28-1.49-3.36l-0.31,0.1c0.33,1.05,0.72,2.46,0.72,3.59V302.04z"/>
	<path d="M477.46,284.03h2.26l7.06,17.99h-1.72l-2.67-6.52h-7.55l-2.44,6.52h-1.8L477.46,284.03z M478.82,286.44
		c-0.15-0.41-0.1-0.95-0.1-1.39h-0.31c0,0.44,0.05,0.98-0.1,1.39l-3,7.57h6.54L478.82,286.44z"/>
	<path d="M497.46,302.04h-1.46v-17.97h1.57l7.54,15.58c0.23,0.49,0.26,1.18,0.26,1.72h0.31c0-0.54,0-1.23,0.26-1.72l7.55-15.58h1.51
		v17.97h-1.44v-13.37c0-0.54,0.26-1.21,0.38-1.75l-0.31-0.08c-0.13,0.51-0.26,1.23-0.51,1.72l-6.9,13.47h-1.41l-6.9-13.47
		c-0.26-0.49-0.38-1.18-0.51-1.72l-0.31,0.08c0.13,0.54,0.39,1.21,0.39,1.75V302.04z"/>
	<path d="M523.07,284.03h2.26l7.06,17.99h-1.72L528,295.5h-7.55l-2.44,6.52h-1.8L523.07,284.03z M524.43,286.44
		c-0.15-0.41-0.1-0.95-0.1-1.39h-0.31c0,0.44,0.05,0.98-0.1,1.39l-3,7.57h6.54L524.43,286.44z"/>
	<path d="M545.97,297.55c0.28,1.03,1.36,4.49,1.36,4.49h-1.41c-0.62-2.26-1.1-3.93-1.21-4.29c-0.9-2.9-2.93-3.34-4-3.39
		c-0.23,0-0.44,0-0.72,0c-0.67,0-1.92-0.03-3.49-0.03v7.7h-1.46v-17.97h5.03c3.75,0,6.83,0.82,6.83,5.03c0,2.64-1.57,3.62-3.52,4.31
		c-0.46,0.15-1.08,0.1-1.54,0.1v0.31c0.46,0,1.1-0.1,1.54,0.08C544.35,294.34,545.35,295.37,545.97,297.55z M536.5,292.85h3.64
		c2.77,0,5.31,0,5.31-3.7c0-3.54-2.36-3.36-5.31-3.36h-3.64V292.85z"/>
	<path d="M547.69,293.03c0-5.34,3.59-9.34,8.5-9.34c3.67,0,7.11,2.05,7.73,5.65h-1.59c-0.62-2.54-2.82-4.34-6.16-4.34
		c-4.24,0-7.03,4.06-7.03,8.03c0,4,2.85,8.08,7.13,8.08c3.31,0,5.54-1.8,6.16-4.34h1.59c-0.59,3.39-4,5.65-7.78,5.65
		C551.31,302.43,547.69,298.4,547.69,293.03z"/>
	<path d="M570.89,284.03h2.26l7.06,17.99h-1.72l-2.67-6.52h-7.55l-2.44,6.52h-1.8L570.89,284.03z M572.25,286.44
		c-0.15-0.41-0.1-0.95-0.1-1.39h-0.31c0,0.44,0.05,0.98-0.1,1.39l-3,7.57h6.54L572.25,286.44z"/>
	<path d="M461.83,327.71h-1.03v-18.35h5.34c4.8,0,8.42,3.64,8.42,8.98c0,5.34-3.75,9.42-8.55,9.39L461.83,327.71z M466.17,326.35
		c3.95,0,6.93-3.82,6.93-8.03c0-4.18-2.85-7.57-6.8-7.57h-4.06v15.6H466.17z"/>
	<path d="M478.49,309.74h1.44v17.97h-1.44V309.74z"/>
	<path d="M494.94,313.36c-0.03-1.1-1.67-2.52-4.21-2.52c-2.67,0-5.52,1.05-5.52,3.23c0,3.39,11.75,3.05,11.75,8.83
		c0,3.88-3.46,5.18-6.52,5.18c-3.98,0-6.67-2.57-6.78-5.13l1.9,0.54c0.46,2.33,3.11,3.23,4.64,3.23c3.39,0,5.54-1.44,5.54-3.34
		c0-5.06-11.91-3.82-11.91-9.27c0-3.7,3.93-4.77,6.65-4.77c4.18,0,6.62,2.72,6.31,4.57L494.94,313.36z"/>
	<path d="M500.72,309.74h11.5v1.28h-10.04v6.72h9.39v1.28h-9.39v7.39h10.16v1.28h-11.63V309.74z"/>
	<path d="M517.66,327.71h-1.44v-17.97h1.44l9.78,13.88c0.64,0.92,1.16,2.28,1.49,3.36l0.31-0.1c-0.33-1.05-0.72-2.46-0.72-3.59
		v-13.55h1.44v17.97h-1.44l-9.78-13.86c-0.64-0.92-1.16-2.28-1.49-3.36l-0.31,0.1c0.33,1.05,0.72,2.46,0.72,3.59V327.71z"/>
	<path d="M538.04,309.69h2.26l7.06,17.99h-1.72l-2.67-6.52h-7.55l-2.44,6.52h-1.8L538.04,309.69z M539.4,312.11
		c-0.15-0.41-0.1-0.95-0.1-1.39h-0.31c0,0.44,0.05,0.98-0.1,1.39l-3,7.57h6.54L539.4,312.11z"/>
	<path d="M551.02,327.71H550v-18.35h5.34c4.8,0,8.42,3.64,8.42,8.98c0,5.34-3.75,9.42-8.55,9.39L551.02,327.71z M555.36,326.35
		c3.95,0,6.93-3.82,6.93-8.03c0-4.18-2.85-7.57-6.8-7.57h-4.06v15.6H555.36z"/>
	<path d="M570.89,309.69h2.26l7.06,17.99h-1.72l-2.67-6.52h-7.55l-2.44,6.52h-1.8L570.89,309.69z M572.25,312.11
		c-0.15-0.41-0.1-0.95-0.1-1.39h-0.31c0,0.44,0.05,0.98-0.1,1.39l-3,7.57h6.54L572.25,312.11z"/>
	<path d="M412.99,345.86v7.52h-1.44v-17.97h4.93c3.82,0,6.98,0.82,6.98,5.13c0,4.31-3.16,5.34-7.32,5.34
		C415.45,345.88,414.19,345.88,412.99,345.86z M416.66,344.42c2.77,0,5.31-0.28,5.31-3.95c0-3.54-2.33-3.57-5.31-3.57h-3.67v7.52
		H416.66z"/>
	<path d="M431.9,335.03c4.95,0,8.34,3.93,8.34,9.37c0,5.44-3.39,9.39-8.34,9.39s-8.34-4.03-8.34-9.39
		C423.56,339.03,426.95,335.03,431.9,335.03z M431.9,352.43c4.06,0,6.88-3.75,6.88-8.03s-2.82-7.98-6.88-7.98
		c-4.08,0-6.9,3.7-6.9,7.98S427.82,352.43,431.9,352.43z"/>
	<path d="M454.92,348.89c0.28,1.03,1.36,4.49,1.36,4.49h-1.41c-0.62-2.26-1.1-3.93-1.21-4.29c-0.9-2.9-2.93-3.34-4-3.39
		c-0.23,0-0.44,0-0.72,0c-0.67,0-1.92-0.03-3.49-0.03v7.7h-1.46v-17.97h5.03c3.75,0,6.83,0.82,6.83,5.03c0,2.64-1.57,3.62-3.52,4.31
		c-0.46,0.15-1.08,0.1-1.54,0.1v0.31c0.46,0,1.1-0.1,1.54,0.08C453.31,345.68,454.31,346.71,454.92,348.89z M445.46,344.19h3.64
		c2.77,0,5.31,0,5.31-3.7c0-3.54-2.36-3.36-5.31-3.36h-3.64V344.19z"/>
	<path d="M467.86,353.38h-1.46v-17.97h1.57l7.54,15.58c0.23,0.49,0.26,1.18,0.26,1.72h0.31c0-0.54,0-1.23,0.26-1.72l7.55-15.58h1.51
		v17.97h-1.44v-13.37c0-0.54,0.26-1.21,0.38-1.75l-0.31-0.08c-0.13,0.51-0.26,1.23-0.51,1.72l-6.9,13.47h-1.41l-6.9-13.47
		c-0.26-0.49-0.38-1.18-0.51-1.72l-0.31,0.08c0.13,0.54,0.39,1.21,0.39,1.75V353.38z"/>
	<path d="M503.59,347.14c0.03,4.29-3,6.62-6.9,6.62s-6.9-2.33-6.93-6.62c0-5.34,0.03-11.73,0.03-11.73h1.44v12.04
		c0.03,2.62,2.34,4.95,5.47,4.95c3.16,0,5.49-2.33,5.47-4.95c0-4.08,0-12.04,0-12.04h1.44V347.14z"/>
	<path d="M515.22,349.12c0,3.29-2.36,4.59-4.39,4.59c-2.16,0-4.83-1.36-5.44-3.23l1.16-0.62c0.74,1.57,2.69,2.62,4.36,2.62
		c1.87,0,2.87-1.49,2.87-3.29v-13.81h1.44V349.12z"/>
	<path d="M520.22,335.41h11.5v1.28h-10.04v6.72h9.39v1.28h-9.39v7.39h10.16v1.28h-11.63V335.41z"/>
	<path d="M546.66,348.89c0.28,1.03,1.36,4.49,1.36,4.49h-1.41c-0.62-2.26-1.1-3.93-1.21-4.29c-0.9-2.9-2.93-3.34-4-3.39
		c-0.23,0-0.44,0-0.72,0c-0.67,0-1.92-0.03-3.49-0.03v7.7h-1.46v-17.97h5.03c3.75,0,6.83,0.82,6.83,5.03c0,2.64-1.57,3.62-3.52,4.31
		c-0.46,0.15-1.08,0.1-1.54,0.1v0.31c0.46,0,1.1-0.1,1.54,0.08C545.04,345.68,546.04,346.71,546.66,348.89z M537.19,344.19h3.64
		c2.77,0,5.31,0,5.31-3.7c0-3.54-2.36-3.36-5.31-3.36h-3.64V344.19z"/>
	<path d="M551.72,335.41h11.5v1.28h-10.04v6.72h9.39v1.28h-9.39v7.39h10.16v1.28h-11.63V335.41z"/>
	<path d="M577.23,339.03c-0.03-1.1-1.67-2.52-4.21-2.52c-2.67,0-5.52,1.05-5.52,3.23c0,3.39,11.75,3.05,11.75,8.83
		c0,3.88-3.46,5.18-6.52,5.18c-3.98,0-6.67-2.57-6.78-5.13l1.9,0.54c0.46,2.33,3.11,3.23,4.65,3.23c3.39,0,5.54-1.44,5.54-3.34
		c0-5.06-11.91-3.82-11.91-9.27c0-3.7,3.93-4.77,6.65-4.77c4.18,0,6.62,2.72,6.31,4.57L577.23,339.03z"/>
	<path d="M399.89,371.53v7.52h-1.44v-17.97h4.93c3.82,0,6.98,0.82,6.98,5.13c0,4.31-3.16,5.34-7.32,5.34
		C402.36,371.55,401.1,371.55,399.89,371.53z M403.56,370.09c2.77,0,5.31-0.28,5.31-3.95c0-3.54-2.33-3.57-5.31-3.57h-3.67v7.52
		H403.56z"/>
	<path d="M416.86,361.03h2.26l7.06,17.99h-1.72l-2.67-6.52h-7.55l-2.44,6.52h-1.8L416.86,361.03z M418.22,363.44
		c-0.15-0.41-0.1-0.95-0.1-1.39h-0.31c0,0.44,0.05,0.98-0.1,1.39l-3,7.57h6.54L418.22,363.44z"/>
	<path d="M439.76,374.55c0.28,1.03,1.36,4.49,1.36,4.49h-1.41c-0.62-2.26-1.1-3.93-1.21-4.29c-0.9-2.9-2.93-3.34-4-3.39
		c-0.23,0-0.44,0-0.72,0c-0.67,0-1.92-0.03-3.49-0.03v7.7h-1.46v-17.97h5.03c3.75,0,6.83,0.82,6.83,5.03c0,2.64-1.57,3.62-3.52,4.31
		c-0.46,0.15-1.08,0.1-1.54,0.1v0.31c0.46,0,1.1-0.1,1.54,0.08C438.14,371.35,439.14,372.37,439.76,374.55z M430.29,369.86h3.64
		c2.77,0,5.31,0,5.31-3.7c0-3.54-2.36-3.36-5.31-3.36h-3.64V369.86z"/>
	<path d="M447.87,361.03h2.26l7.06,17.99h-1.72l-2.67-6.52h-7.55l-2.44,6.52h-1.8L447.87,361.03z M449.23,363.44
		c-0.15-0.41-0.1-0.95-0.1-1.39h-0.31c0,0.44,0.05,0.98-0.1,1.39l-3,7.57h6.54L449.23,363.44z"/>
	<path d="M467.86,379.05h-1.46v-17.97h1.57l7.54,15.58c0.23,0.49,0.26,1.18,0.26,1.72h0.31c0-0.54,0-1.23,0.26-1.72l7.55-15.58h1.51
		v17.97h-1.44v-13.37c0-0.54,0.26-1.21,0.38-1.75l-0.31-0.08c-0.13,0.51-0.26,1.23-0.51,1.72l-6.9,13.47h-1.41l-6.9-13.47
		c-0.26-0.49-0.38-1.18-0.51-1.72l-0.31,0.08c0.13,0.54,0.39,1.21,0.39,1.75V379.05z"/>
	<path d="M503.59,372.81c0.03,4.29-3,6.62-6.9,6.62s-6.9-2.33-6.93-6.62c0-5.34,0.03-11.73,0.03-11.73h1.44v12.04
		c0.03,2.62,2.34,4.95,5.47,4.95c3.16,0,5.49-2.33,5.47-4.95c0-4.08,0-12.04,0-12.04h1.44V372.81z"/>
	<path d="M515.22,374.79c0,3.29-2.36,4.59-4.39,4.59c-2.16,0-4.83-1.36-5.44-3.23l1.16-0.62c0.74,1.57,2.69,2.62,4.36,2.62
		c1.87,0,2.87-1.49,2.87-3.29v-13.81h1.44V374.79z"/>
	<path d="M520.22,361.08h11.5v1.28h-10.04v6.72h9.39v1.28h-9.39v7.39h10.16v1.28h-11.63V361.08z"/>
	<path d="M546.66,374.55c0.28,1.03,1.36,4.49,1.36,4.49h-1.41c-0.62-2.26-1.1-3.93-1.21-4.29c-0.9-2.9-2.93-3.34-4-3.39
		c-0.23,0-0.44,0-0.72,0c-0.67,0-1.92-0.03-3.49-0.03v7.7h-1.46v-17.97h5.03c3.75,0,6.83,0.82,6.83,5.03c0,2.64-1.57,3.62-3.52,4.31
		c-0.46,0.15-1.08,0.1-1.54,0.1v0.31c0.46,0,1.1-0.1,1.54,0.08C545.04,371.35,546.04,372.37,546.66,374.55z M537.19,369.86h3.64
		c2.77,0,5.31,0,5.31-3.7c0-3.54-2.36-3.36-5.31-3.36h-3.64V369.86z"/>
	<path d="M551.72,361.08h11.5v1.28h-10.04v6.72h9.39v1.28h-9.39v7.39h10.16v1.28h-11.63V361.08z"/>
	<path d="M577.23,364.7c-0.03-1.1-1.67-2.52-4.21-2.52c-2.67,0-5.52,1.05-5.52,3.23c0,3.39,11.75,3.05,11.75,8.83
		c0,3.88-3.46,5.18-6.52,5.18c-3.98,0-6.67-2.57-6.78-5.13l1.9,0.54c0.46,2.33,3.11,3.23,4.65,3.23c3.39,0,5.54-1.44,5.54-3.34
		c0-5.06-11.91-3.82-11.91-9.27c0-3.7,3.93-4.77,6.65-4.77c4.18,0,6.62,2.72,6.31,4.57L577.23,364.7z"/>
</g>
<g>
	<g>
		<path d="M98.36,101.4v11.13h20.51v10.15H98.36v17.57h-10.5v-49h34.86v10.15H98.36z"/>
		<path d="M142.04,91.11h11.55l18.9,49.08h-10.85l-6.37-16.94h-14.49l-5.81,16.94h-10.85L142.04,91.11z M149.04,104.55
			c-0.7-1.47-0.28-3.64-0.28-5.32h-1.75c0,1.68,0.42,3.85-0.28,5.32l-5.11,11.13h12.6L149.04,104.55z"/>
		<path d="M173.19,115.69c0.07-14.56,10.92-25.48,25.69-25.48c16.17,0,22.61,8.75,23.38,17.99h-10.43
			c-1.05-3.36-2.8-7.84-12.74-7.84c-8.47,0-15.4,4.9-15.4,15.4c0,10.43,6.86,15.4,15.26,15.4c10.57,0,12.53-4.48,13.58-7.91h10.43
			c-1.26,11.34-8.19,18.06-23.73,18.06C184.25,141.31,173.26,130.32,173.19,115.69z"/>
		<path d="M242.35,91.11h11.55l18.9,49.08h-10.85l-6.37-16.94h-14.49l-5.81,16.94h-10.85L242.35,91.11z M249.35,104.55
			c-0.7-1.47-0.28-3.64-0.28-5.32h-1.75c0,1.68,0.42,3.85-0.28,5.32l-5.11,11.13h12.6L249.35,104.55z"/>
		<path d="M286.73,140.26h-9.38V90.2h22.05c14,0,24.71,9.94,24.71,24.5s-11.06,25.69-25.06,25.62L286.73,140.26z M297.23,130.46
			c9.59,0,16.73-7.42,16.73-15.61c0-8.19-6.79-14.7-16.38-14.7h-9.73v30.31H297.23z"/>
		<path d="M330.48,91.25h34.86v9.8h-24.71v9.38h22.96v9.8h-22.96v10.22h25.06v9.8h-35.21V91.25z"/>
	</g>
</g>
<g>
	<path d="M487.34,262.56h1.69v-1.78h1.48v1.78h1.8v1.41h-1.8v1.81h-1.48v-1.81h-1.69V262.56z"/>
</g>
<g>
	<path d="M87.32,347.3v-1.73c1.41,0,2.54-1.02,2.54-2.31h2.33v13.48h-1.79v-9.57c0-0.58,0.33-1.19,0.58-1.69l-0.29-0.15
		c-0.27,0.5-0.58,1.17-1.08,1.42C88.9,347.09,88.04,347.3,87.32,347.3z"/>
	<path d="M98.59,355.26l0.13,0.33c0.52-0.23,1.17-0.54,1.73-0.54h5.28v1.69h-8.84v-1.66c1.41-1.42,2.46-2.68,5.12-5.26
		c3-2.93,1.56-5.04-0.46-5.04c-2.06,0-2.52,1.35-2.52,2.62h-1.91c0-1.96,1.1-4.43,4.68-4.43c3.33,0,5.22,3.91,2.73,6.62
		c-1.69,1.87-3.47,3.77-4.37,4.76C99.78,354.77,99.11,355.04,98.59,355.26z"/>
	<path d="M108.38,354.75h1.98v1.98h-1.98V354.75z"/>
	<path d="M114.81,355.26l0.13,0.33c0.52-0.23,1.17-0.54,1.73-0.54h5.28v1.69h-8.84v-1.66c1.41-1.42,2.46-2.68,5.12-5.26
		c3-2.93,1.56-5.04-0.46-5.04c-2.06,0-2.52,1.35-2.52,2.62h-1.91c0-1.96,1.1-4.43,4.68-4.43c3.33,0,5.22,3.91,2.73,6.62
		c-1.69,1.87-3.47,3.77-4.37,4.76C116.01,354.77,115.33,355.04,114.81,355.26z"/>
	<path d="M129.14,342.97c3.41,0,5.14,3.02,5.14,7.03c0,4.01-1.73,7.05-5.14,7.05c-3.43,0-5.16-3.04-5.16-7.05
		C123.98,345.99,125.71,342.97,129.14,342.97z M129.14,355.31c2.37,0,3.31-2.54,3.31-5.32c0-2.77-0.94-5.28-3.31-5.28
		c-2.39,0-3.33,2.5-3.33,5.28C125.8,352.77,126.75,355.31,129.14,355.31z"/>
	<path d="M137.86,355.26l0.13,0.33c0.52-0.23,1.17-0.54,1.73-0.54H145v1.69h-8.84v-1.66c1.41-1.42,2.46-2.68,5.12-5.26
		c3-2.93,1.56-5.04-0.46-5.04c-2.06,0-2.52,1.35-2.52,2.62h-1.91c0-1.96,1.1-4.43,4.68-4.43c3.33,0,5.22,3.91,2.73,6.62
		c-1.69,1.87-3.47,3.77-4.37,4.76C139.05,354.77,138.38,355.04,137.86,355.26z"/>
	<path d="M152.18,342.97c3.41,0,5.14,3.02,5.14,7.03c0,4.01-1.73,7.05-5.14,7.05c-3.43,0-5.16-3.04-5.16-7.05
		C147.02,345.99,148.75,342.97,152.18,342.97z M152.18,355.31c2.37,0,3.31-2.54,3.31-5.32c0-2.77-0.94-5.28-3.31-5.28
		c-2.39,0-3.33,2.5-3.33,5.28C148.85,352.77,149.79,355.31,152.18,355.31z"/>
	<path d="M97.9,373.58h-0.27c0,0.27-0.69,2.62-3.25,2.7c-0.27,0.02-0.52,0-0.75-0.02c-2.58-0.29-4.39-2.46-4.39-5.14
		s1.85-4.74,4.45-5.01c0.27-0.02,0.52-0.04,0.79-0.02c1.27,0.04,2.31,0.5,2.96,1.21c0.38,0.42,0.5,1.12,0.67,1.6l0.33-0.12
		c-0.17-0.48-0.48-1.08-0.5-1.6l-0.04-0.75h1.54v7.78c0,1.35,0.35,1.66,1.02,1.66c1.64,0,1.58-3.35,1.58-4.53
		c-0.02-4.85-3.47-7.76-7.45-7.76c-4.22,0-7.49,3.14-7.49,7.68c0,4.83,3.7,7.22,7.72,7.22c0.77,0,1.54-0.08,2.31-0.25l0.4,1.62
		c-0.94,0.19-1.85,0.27-2.73,0.27c-5.39,0-9.4-3.37-9.38-8.9c0-5.45,3.89-9.26,9.13-9.26c5.18,0,9.17,3.72,9.19,9.28
		c0,4.06-1.21,6.12-3.29,6.12c-1.54,0-2.54-0.98-2.54-2.52V373.58z M94.31,374.66c2.14,0,3.21-1.73,3.33-3.54
		c0-2.14-1.19-3.43-3.31-3.43c-2.18,0-3.33,1.5-3.33,3.43C91,373.06,92.14,374.66,94.31,374.66z"/>
	<path d="M108.29,364.24v4.27h6.16v1.73h-6.16v5.74h-1.79v-13.48h9.01v1.73H108.29z"/>
	<path d="M120.38,362.47h2.29l5.26,13.5h-1.98l-1.89-4.79h-4.99l-1.75,4.79h-2L120.38,362.47z M121.76,365.03
		c-0.15-0.35-0.08-0.83-0.08-1.21h-0.35c0,0.38,0.08,0.87-0.06,1.21l-1.93,4.64h4.33L121.76,365.03z"/>
	<path d="M128.27,369.23c0.02-4.01,2.83-7.01,6.66-7.01c3.43,0,5.68,1.89,6.05,4.53h-1.87c-0.39-1.52-1.58-2.81-4.18-2.81
		c-2.83,0-4.85,2.35-4.85,5.3c0,2.96,2.04,5.33,4.89,5.33c2.66,0,3.87-1.29,4.26-2.81h1.87c-0.4,2.77-2.7,4.53-6.1,4.53
		C131.12,376.28,128.29,373.25,128.27,369.23z"/>
	<path d="M146.33,362.47h2.29l5.26,13.5h-1.98l-1.89-4.79h-4.99l-1.75,4.79h-2L146.33,362.47z M147.71,365.03
		c-0.15-0.35-0.08-0.83-0.08-1.21h-0.35c0,0.38,0.08,0.87-0.06,1.21l-1.93,4.64h4.33L147.71,365.03z"/>
	<path d="M157.05,375.99h-1.48v-13.77h4.83c3.7,0,6.51,2.73,6.51,6.74c0,4-2.91,7.07-6.6,7.05L157.05,375.99z M160.17,374.29
		c2.83,0,4.95-2.54,4.95-5.33c0-2.77-2.02-5.03-4.85-5.03h-2.91v10.36H160.17z"/>
	<path d="M169.45,362.51h9.01v1.66h-7.24v4.06h6.76v1.66h-6.76v4.45h7.34v1.66h-9.11V362.51z"/>
</g>
<g>
	<path class="st18" d="M517,307.9c3.25,0,3.25,0.2,6.5,0.2s3.25-0.2,6.5-0.2"/>
</g>
</svg>
