<?xml version="1.0" encoding="utf-8"?>
<!-- Generator: Adobe Illustrator 25.0.0, SVG Export Plug-In . SVG Version: 6.00 Build 0)  -->
<svg version="1.1" id="Layer_1" xmlns="http://www.w3.org/2000/svg" xmlns:xlink="http://www.w3.org/1999/xlink" x="0px" y="0px"
	 viewBox="0 0 200 200" style="enable-background:new 0 0 200 200;" xml:space="preserve">
<style type="text/css">
	.st0{fill:#F0C0FB;}
	.st1{fill:#B2E2FB;}
	.st2{fill:#F4F4F4;}
	.st3{fill:#F9DEC9;}
	.st4{fill:#285F4A;}
	.st5{fill:#ED664D;}
	.st6{fill:#1147CD;}
	.st7{fill:none;}
	.st8{fill:#F4F4F4;stroke:#000000;stroke-width:1.1667;stroke-miterlimit:10;}
	.st9{fill:#FFFFFF;stroke:#000000;stroke-width:0.4375;stroke-miterlimit:10;}
	.st10{fill:#FFFFFF;stroke:#000000;stroke-width:0.7999;stroke-miterlimit:10;}
	.st11{fill:none;stroke:#000000;stroke-width:1.1667;stroke-linecap:round;stroke-linejoin:round;stroke-miterlimit:10;}
	.st12{fill:#F4F4F4;stroke:#000000;stroke-width:1.2133;stroke-miterlimit:10;}
	.st13{fill:#A67C52;}
	.st14{fill:#B3B3B3;}
	.st15{fill:#FBB03B;}
	.st16{fill:#333333;}
	.st17{fill:#FFFFFF;}
	.st18{fill:none;stroke:#000000;stroke-width:1.1;stroke-miterlimit:10;}
</style>
<g>
	<path class="st0" d="M122.95,109.61l-0.04,0.31c-9.16-4.57-10.12-5.18-11.3-3.4c-0.82,1.23-3.21,4.02-3.93,4.84
		c-0.73,0.81-1.45,0.87-2.69,0.31c-1.25-0.62-5.26-1.94-10.01-6.19c-3.7-3.31-6.18-7.37-6.92-8.63c-1.22-2.11,1.33-2.41,3.66-6.81
		c0.42-0.87,0.2-1.56-0.1-2.18c-0.31-0.63-2.8-6.75-3.84-9.19c-1-2.43-2.03-2.13-2.8-2.13c-2.4-0.21-4.15-0.18-5.7,1.43
		c-6.72,7.39-5.03,15.02,0.73,23.12c11.31,14.8,17.33,17.52,28.35,21.31c2.98,0.95,5.69,0.81,7.83,0.5c2.39-0.38,7.36-3,8.4-5.94
		c1.06-2.94,1.06-5.37,0.75-5.94C125.01,110.49,124.19,110.18,122.95,109.61L122.95,109.61z M122.95,109.61"/>
	<path class="st0" d="M135.5,64.37c-32.04-30.97-85.06-8.51-85.08,35.18c0,8.73,2.29,17.25,6.65,24.77L50,150l26.4-6.88
		c32.94,17.79,73.59-5.83,73.6-43.54c0-13.23-5.17-25.69-14.56-35.04L135.5,64.37z M141.67,99.44
		c-0.02,31.8-34.94,51.67-62.55,35.43l-1.5-0.89L62,138.05l4.19-15.19l-1-1.56c-17.18-27.35,2.56-63.1,35.11-63.1
		c11.06,0,21.44,4.31,29.25,12.12C137.37,78.06,141.67,88.44,141.67,99.44L141.67,99.44z M141.67,99.44"/>
</g>
</svg>
