<?xml version="1.0" encoding="utf-8"?>
<!-- Generator: Adobe Illustrator 25.0.0, SVG Export Plug-In . SVG Version: 6.00 Build 0)  -->
<svg version="1.1" id="Layer_1" xmlns="http://www.w3.org/2000/svg" xmlns:xlink="http://www.w3.org/1999/xlink" x="0px" y="0px"
	 viewBox="0 0 209.2 209.2" style="enable-background:new 0 0 209.2 209.2;" xml:space="preserve">
<style type="text/css">
	.st0{fill:#F0C0FB;}
</style>
<g>
	<path class="st0" d="M153.86,123.83l-0.07,0.63c-18.32-9.13-20.24-10.35-22.61-6.8c-1.64,2.46-6.42,8.03-7.87,9.68
		c-1.46,1.63-2.91,1.75-5.38,0.62c-2.5-1.25-10.53-3.88-20.03-12.37c-7.4-6.63-12.37-14.75-13.83-17.25
		c-2.44-4.22,2.67-4.82,7.32-13.62c0.83-1.75,0.41-3.12-0.21-4.37c-0.63-1.25-5.6-13.5-7.68-18.38c-2-4.87-4.06-4.25-5.6-4.25
		c-4.8-0.42-8.31-0.35-11.4,2.87c-13.45,14.78-10.06,30.03,1.45,46.25c22.62,29.6,34.67,35.05,56.7,42.62
		c5.95,1.89,11.37,1.62,15.67,1.01c4.78-0.76,14.72-6.01,16.8-11.88c2.13-5.87,2.13-10.75,1.5-11.87
		C158,125.58,156.36,124.95,153.86,123.83L153.86,123.83z"/>
	<path class="st0" d="M178.97,33.35C114.9-28.59,8.86,16.33,8.82,103.71c0,17.47,4.57,34.5,13.29,49.54L7.97,204.6l52.79-13.77
		c65.87,35.58,147.17-11.67,147.21-87.07c0-26.47-10.33-51.37-29.13-70.09L178.97,33.35z M191.32,103.49
		c-0.05,63.61-69.87,103.33-125.1,70.87l-3-1.78l-31.25,8.13l8.38-30.38l-1.99-3.12C3.99,92.49,43.47,20.99,108.57,20.99
		c22.12,0,42.87,8.62,58.51,24.25C182.71,60.73,191.32,81.49,191.32,103.49L191.32,103.49z"/>
</g>
</svg>
