<?xml version="1.0" encoding="utf-8"?>
<!-- Generator: Adobe Illustrator 25.0.0, SVG Export Plug-In . SVG Version: 6.00 Build 0)  -->
<svg version="1.1" id="Layer_1" xmlns="http://www.w3.org/2000/svg" xmlns:xlink="http://www.w3.org/1999/xlink" x="0px" y="0px"
	 viewBox="0 0 500 700" style="enable-background:new 0 0 500 700;" xml:space="preserve">
<style type="text/css">
	.st0{fill:#F0C0FB;}
	.st1{fill:#B2E2FB;}
	.st2{fill:#F4F4F4;}
	.st3{fill:#F9DEC9;}
	.st4{fill:#285F4A;}
	.st5{fill:#ED664D;}
	.st6{fill:#1147CD;}
	.st7{font-family:'Trap-ExtraBold';}
	.st8{font-size:70px;}
	.st9{fill:none;}
	.st10{fill:#F4F4F4;stroke:#000000;stroke-width:1.1667;stroke-miterlimit:10;}
	.st11{fill:#FFFFFF;stroke:#000000;stroke-width:0.4375;stroke-miterlimit:10;}
	.st12{fill:#FFFFFF;stroke:#000000;stroke-width:0.7999;stroke-miterlimit:10;}
	.st13{fill:none;stroke:#000000;stroke-width:1.1667;stroke-linecap:round;stroke-linejoin:round;stroke-miterlimit:10;}
	.st14{fill:#F4F4F4;stroke:#000000;stroke-width:1.2133;stroke-miterlimit:10;}
	.st15{fill:#A67C52;}
	.st16{fill:#B3B3B3;}
	.st17{fill:#FBB03B;}
	.st18{fill:#333333;}
	.st19{fill:#FFFFFF;}
	.st20{fill:none;stroke:#000000;stroke-width:1.1;stroke-miterlimit:10;}
</style>
<g>
	<rect x="83.97" y="83.97" class="st0" width="365.38" height="565.38"/>
	<path d="M448.72,84.62v564.1H84.62V84.62H448.72 M450,83.33H83.33V650H450V83.33L450,83.33z"/>
</g>
<g>
	<rect x="67.31" y="67.31" class="st5" width="365.38" height="565.38"/>
	<path d="M432.05,67.95v564.1H67.95V67.95H432.05 M433.33,66.67H66.67v566.67h366.67V66.67L433.33,66.67z"/>
</g>
<g>
	<rect x="50.64" y="50.64" class="st2" width="365.38" height="565.38"/>
	<path d="M415.38,51.28v564.1H51.28V51.28H415.38 M416.67,50H50v566.67h366.67V50L416.67,50z"/>
</g>
<g>
	<path d="M360.07,435.24v1.28h-10.93v-17.97h1.46v16.68H360.07z"/>
	<path d="M366.95,418.51h2.26l7.06,17.99h-1.72l-2.67-6.52h-7.55l-2.44,6.52h-1.8L366.95,418.51z M368.31,420.92
		c-0.15-0.41-0.1-0.95-0.1-1.39h-0.31c0,0.44,0.05,0.97-0.1,1.39l-3,7.57h6.54L368.31,420.92z"/>
	<path d="M225.55,444.23h11.5v1.28h-10.04v6.72h9.39v1.28h-9.39v7.39h10.16v1.28h-11.63V444.23z"/>
	<path d="M238.08,462.2h-1.31l6.03-9.39l-5.65-8.57h1.62l4.47,6.75c0.28,0.41,0.31,1.03,0.31,1.54l0.31,0.03
		c0.03-0.51,0.08-1.13,0.38-1.54l4.9-6.78h1.31l-5.75,8.91l6.13,9.06h-1.64l-4.98-7.31c-0.31-0.41-0.33-1.03-0.33-1.54h-0.31
		c0,0.51-0.05,1.13-0.36,1.54L238.08,462.2z"/>
	<path d="M255.15,454.68v7.52h-1.44v-17.97h4.93c3.82,0,6.98,0.82,6.98,5.13c0,4.31-3.16,5.34-7.32,5.34
		C257.61,454.7,256.35,454.7,255.15,454.68z M258.82,453.24c2.77,0,5.31-0.28,5.31-3.95c0-3.54-2.33-3.57-5.31-3.57h-3.67v7.52
		H258.82z"/>
	<path d="M269.06,444.23h11.5v1.28h-10.04v6.72h9.39v1.28h-9.39v7.39h10.16v1.28h-11.63V444.23z"/>
	<path d="M295.49,457.7c0.28,1.03,1.36,4.49,1.36,4.49h-1.41c-0.62-2.26-1.1-3.93-1.21-4.29c-0.9-2.9-2.93-3.34-4-3.39
		c-0.23,0-0.44,0-0.72,0c-0.67,0-1.92-0.03-3.49-0.03v7.7h-1.46v-17.97h5.03c3.75,0,6.83,0.82,6.83,5.03c0,2.64-1.57,3.62-3.52,4.31
		c-0.46,0.15-1.08,0.1-1.54,0.1v0.31c0.46,0,1.1-0.1,1.54,0.08C293.88,454.5,294.88,455.52,295.49,457.7z M286.02,453.01h3.64
		c2.77,0,5.31,0,5.31-3.7c0-3.54-2.36-3.36-5.31-3.36h-3.64V453.01z"/>
	<path d="M300.4,444.23h1.44v17.97h-1.44V444.23z"/>
	<path d="M306.84,444.23h11.5v1.28H308.3v6.72h9.39v1.28h-9.39v7.39h10.16v1.28h-11.63V444.23z"/>
	<path d="M323.78,462.2h-1.44v-17.97h1.44l9.78,13.88c0.64,0.92,1.16,2.28,1.49,3.36l0.31-0.1c-0.33-1.05-0.72-2.46-0.72-3.59
		v-13.55h1.44v17.97h-1.44l-9.78-13.86c-0.64-0.92-1.16-2.28-1.49-3.36l-0.31,0.1c0.33,1.05,0.72,2.46,0.72,3.59V462.2z"/>
	<path d="M337.77,453.19c0-5.34,3.59-9.34,8.5-9.34c3.67,0,7.11,2.05,7.73,5.65h-1.59c-0.62-2.54-2.82-4.34-6.16-4.34
		c-4.24,0-7.03,4.06-7.03,8.03c0,4,2.85,8.08,7.13,8.08c3.31,0,5.54-1.8,6.16-4.34h1.59c-0.59,3.39-4,5.65-7.78,5.65
		C341.39,462.58,337.77,458.55,337.77,453.19z"/>
	<path d="M357.46,444.23h1.44v17.97h-1.44V444.23z"/>
	<path d="M366.95,444.18h2.26l7.06,17.99h-1.72l-2.67-6.52h-7.55l-2.44,6.52h-1.8L366.95,444.18z M368.31,446.59
		c-0.15-0.41-0.1-0.95-0.1-1.39h-0.31c0,0.44,0.05,0.97-0.1,1.39l-3,7.57h6.54L368.31,446.59z"/>
	<path d="M219.57,488.27c-4.9,0-8.37-4.05-8.37-9.39c0-5.34,3.39-9.37,8.16-9.37c4.8,0,8.19,4.11,8.19,9.5
		c0,3.26-1.51,5.95-3.39,7.62l2.05,3.67h-1.46l-1.41-2.75c-0.13-0.23,0.03-0.51,0.15-0.75l-0.31-0.13c-0.1,0.26-0.26,0.49-0.51,0.59
		C221.83,487.71,221.01,488.27,219.57,488.27z M226.04,479.01c0-4.23-2.64-8.03-6.7-8.03s-6.7,3.75-6.7,7.91
		c0,4.16,2.72,7.96,6.88,7.96c1.21,0,2.28-0.31,3.18-0.82l-2.08-3.7h1.46l1.13,2.23c0.1,0.23,0.03,0.56,0,0.82l0.31,0.05
		c0.03-0.28-0.03-0.64,0.18-0.82C224.86,483.09,226.04,480.96,226.04,479.01z"/>
	<path d="M244.49,481.63c0.03,4.29-3,6.62-6.9,6.62s-6.9-2.33-6.93-6.62c0-5.34,0.03-11.73,0.03-11.73h1.44v12.04
		c0.03,2.62,2.34,4.95,5.47,4.95c3.16,0,5.49-2.33,5.47-4.95c0-4.08,0-12.04,0-12.04h1.44V481.63z"/>
	<path d="M248.88,469.9h11.5v1.28h-10.04v6.72h9.39v1.28h-9.39v7.39h10.16v1.28h-11.63V469.9z"/>
	<path d="M270.8,469.9h11.5v1.28h-10.04v6.72h9.39v1.28h-9.39v7.39h10.16v1.28H270.8V469.9z"/>
	<path d="M296.32,473.52c-0.03-1.1-1.67-2.52-4.21-2.52c-2.67,0-5.52,1.05-5.52,3.23c0,3.39,11.75,3.05,11.75,8.83
		c0,3.88-3.46,5.18-6.52,5.18c-3.98,0-6.67-2.57-6.78-5.13l1.9,0.54c0.46,2.33,3.11,3.23,4.65,3.23c3.39,0,5.54-1.44,5.54-3.34
		c0-5.06-11.91-3.82-11.91-9.27c0-3.7,3.93-4.77,6.65-4.77c4.18,0,6.62,2.72,6.31,4.57L296.32,473.52z"/>
	<path d="M305.94,487.86v-16.68h-5.49v-1.28h12.45v1.28h-5.49v16.68H305.94z"/>
	<path d="M319.8,469.85h2.26l7.06,17.99h-1.72l-2.67-6.52h-7.55l-2.44,6.52h-1.8L319.8,469.85z M321.16,472.26
		c-0.15-0.41-0.1-0.95-0.1-1.39h-0.31c0,0.44,0.05,0.97-0.1,1.39l-3,7.57h6.54L321.16,472.26z"/>
	<path d="M344.65,482.86c0,4.31-2.93,5.06-7.47,5.06c-0.69,0-2.52-0.03-3.95-0.03v-0.03h-1.46V469.9h5.59c3.44,0,6.37,0.8,6.37,4.65
		c0,1.87-0.1,2.98-1.41,3.52c-0.44,0.15-1.05,0.03-1.51,0.03v0.31c0.46,0.03,1.08-0.05,1.49,0.13
		C343.7,479.14,344.65,480.42,344.65,482.86z M337.54,477.67c2.41,0,4.72-0.18,4.72-3.26c0-2.93-2.16-2.93-4.72-2.93h-4.31v6.18
		H337.54z M338.03,486.35c2.34,0,5.18,0.03,5.18-3.57c0-4.05-3.36-3.8-5.9-3.8c-0.62,0-2.28,0-3.67-0.03h-0.41v7.39H338.03z"/>
	<path d="M351.32,469.85h2.26l7.06,17.99h-1.72l-2.67-6.52h-7.55l-2.44,6.52h-1.8L351.32,469.85z M352.68,472.26
		c-0.15-0.41-0.1-0.95-0.1-1.39h-0.31c0,0.44,0.05,0.97-0.1,1.39l-3,7.57h6.54L352.68,472.26z"/>
	<path d="M373.29,473.52c-0.03-1.1-1.67-2.52-4.21-2.52c-2.67,0-5.52,1.05-5.52,3.23c0,3.39,11.75,3.05,11.75,8.83
		c0,3.88-3.46,5.18-6.52,5.18c-3.98,0-6.67-2.57-6.78-5.13l1.9,0.54c0.46,2.33,3.11,3.23,4.64,3.23c3.39,0,5.54-1.44,5.54-3.34
		c0-5.06-11.91-3.82-11.91-9.27c0-3.7,3.93-4.77,6.65-4.77c4.18,0,6.62,2.72,6.31,4.57L373.29,473.52z"/>
	<path d="M254.35,508.53c0,4.31-2.93,5.06-7.47,5.06c-0.69,0-2.52-0.03-3.95-0.03v-0.03h-1.46v-17.97h5.59
		c3.44,0,6.37,0.8,6.37,4.65c0,1.87-0.1,2.98-1.41,3.52c-0.44,0.15-1.05,0.03-1.51,0.03v0.31c0.46,0.03,1.08-0.05,1.49,0.13
		C253.4,504.8,254.35,506.09,254.35,508.53z M247.24,503.34c2.41,0,4.72-0.18,4.72-3.26c0-2.93-2.16-2.93-4.72-2.93h-4.31v6.18
		H247.24z M247.73,512.02c2.34,0,5.18,0.03,5.18-3.57c0-4.05-3.36-3.8-5.9-3.8c-0.62,0-2.28,0-3.67-0.03h-0.41v7.39H247.73z"/>
	<path d="M271.14,507.29c0.03,4.29-3,6.62-6.9,6.62s-6.9-2.33-6.93-6.62c0-5.34,0.03-11.73,0.03-11.73h1.44v12.04
		c0.03,2.62,2.34,4.95,5.47,4.95c3.16,0,5.49-2.33,5.47-4.95c0-4.08,0-12.04,0-12.04h1.44V507.29z"/>
	<path d="M285.54,499.18c-0.03-1.1-1.67-2.52-4.21-2.52c-2.67,0-5.52,1.05-5.52,3.23c0,3.39,11.75,3.05,11.75,8.83
		c0,3.88-3.46,5.18-6.52,5.18c-3.98,0-6.67-2.57-6.78-5.13l1.9,0.54c0.46,2.33,3.11,3.23,4.65,3.23c3.39,0,5.54-1.44,5.54-3.34
		c0-5.06-11.91-3.82-11.91-9.27c0-3.7,3.93-4.77,6.65-4.77c4.18,0,6.62,2.72,6.31,4.57L285.54,499.18z"/>
	<path d="M290.05,504.52c0-5.34,3.59-9.34,8.5-9.34c3.67,0,7.11,2.05,7.73,5.65h-1.59c-0.62-2.54-2.82-4.34-6.16-4.34
		c-4.24,0-7.03,4.06-7.03,8.03c0,4,2.85,8.08,7.13,8.08c3.31,0,5.54-1.8,6.16-4.34h1.59c-0.59,3.39-4,5.65-7.78,5.65
		C293.67,513.92,290.05,509.89,290.05,504.52z"/>
	<path d="M313.26,495.51h2.26l7.06,17.99h-1.72l-2.67-6.52h-7.55l-2.44,6.52h-1.8L313.26,495.51z M314.62,497.93
		c-0.15-0.41-0.1-0.95-0.1-1.39h-0.31c0,0.44,0.05,0.97-0.1,1.39l-3,7.57h6.54L314.62,497.93z"/>
	<path d="M326.81,513.53h-1.44v-17.97h1.44l9.78,13.88c0.64,0.92,1.16,2.28,1.49,3.36l0.31-0.1c-0.33-1.05-0.72-2.46-0.72-3.59
		v-13.55h1.44v17.97h-1.44l-9.78-13.86c-0.64-0.92-1.16-2.28-1.49-3.36l-0.31,0.1c0.33,1.05,0.72,2.46,0.72,3.59V513.53z"/>
	<path d="M345.16,513.53h-1.03v-18.35h5.34c4.8,0,8.42,3.64,8.42,8.98c0,5.34-3.75,9.42-8.55,9.39L345.16,513.53z M349.5,512.17
		c3.95,0,6.93-3.82,6.93-8.03c0-4.18-2.85-7.57-6.8-7.57h-4.06v15.6H349.5z"/>
	<path d="M366.98,495.18c4.95,0,8.34,3.93,8.34,9.37c0,5.44-3.39,9.39-8.34,9.39s-8.34-4.03-8.34-9.39
		C358.64,499.18,362.03,495.18,366.98,495.18z M366.98,512.58c4.06,0,6.88-3.75,6.88-8.03s-2.82-7.98-6.88-7.98
		c-4.08,0-6.9,3.7-6.9,7.98S362.9,512.58,366.98,512.58z"/>
</g>
<text transform="matrix(1 0 0 1 81.0039 140.9263)"><tspan x="0" y="0" class="st2 st7 st8">JEAN</tspan><tspan x="0" y="70" class="st2 st7 st8">PIERRE</tspan></text>
<g>
	<path d="M308.81,543.26c3.41,0,5.14,3.02,5.14,7.03c0,4.01-1.73,7.05-5.14,7.05c-3.43,0-5.16-3.04-5.16-7.05
		C303.65,546.28,305.39,543.26,308.81,543.26z M308.81,555.6c2.37,0,3.31-2.54,3.31-5.32c0-2.77-0.94-5.28-3.31-5.28
		c-2.39,0-3.33,2.5-3.33,5.28C305.48,553.06,306.43,555.6,308.81,555.6z"/>
	<path d="M317.69,547.59v-1.73c1.41,0,2.54-1.02,2.54-2.31h2.33v13.48h-1.79v-9.57c0-0.58,0.33-1.19,0.58-1.69l-0.29-0.15
		c-0.27,0.5-0.58,1.17-1.08,1.42C319.27,547.38,318.4,547.59,317.69,547.59z"/>
	<path d="M327.23,555.04h1.98v1.98h-1.98V555.04z"/>
	<path d="M333.67,555.54l0.13,0.33c0.52-0.23,1.17-0.54,1.73-0.54h5.28v1.69h-8.84v-1.66c1.41-1.42,2.46-2.68,5.12-5.26
		c3-2.93,1.56-5.04-0.46-5.04c-2.06,0-2.52,1.35-2.52,2.62h-1.91c0-1.96,1.1-4.43,4.68-4.43c3.33,0,5.22,3.91,2.73,6.62
		c-1.69,1.87-3.47,3.77-4.37,4.76C334.86,555.06,334.18,555.33,333.67,555.54z"/>
	<path d="M347.99,543.26c3.41,0,5.14,3.02,5.14,7.03c0,4.01-1.73,7.05-5.14,7.05c-3.43,0-5.16-3.04-5.16-7.05
		C342.83,546.28,344.56,543.26,347.99,543.26z M347.99,555.6c2.37,0,3.31-2.54,3.31-5.32c0-2.77-0.94-5.28-3.31-5.28
		c-2.39,0-3.33,2.5-3.33,5.28C344.66,553.06,345.6,555.6,347.99,555.6z"/>
	<path d="M356.71,555.54l0.13,0.33c0.52-0.23,1.17-0.54,1.73-0.54h5.28v1.69h-8.84v-1.66c1.41-1.42,2.46-2.68,5.12-5.26
		c3-2.93,1.56-5.04-0.46-5.04c-2.06,0-2.52,1.35-2.52,2.62h-1.91c0-1.96,1.1-4.43,4.68-4.43c3.33,0,5.22,3.91,2.73,6.62
		c-1.69,1.87-3.47,3.77-4.37,4.76C357.9,555.06,357.23,555.33,356.71,555.54z"/>
	<path d="M368.37,547.59v-1.73c1.41,0,2.54-1.02,2.54-2.31h2.33v13.48h-1.79v-9.57c0-0.58,0.33-1.19,0.58-1.69l-0.29-0.15
		c-0.27,0.5-0.58,1.17-1.08,1.42C369.95,547.38,369.09,547.59,368.37,547.59z"/>
	<path d="M255.36,573.87h-0.27c0,0.27-0.69,2.62-3.25,2.7c-0.27,0.02-0.52,0-0.75-0.02c-2.58-0.29-4.39-2.46-4.39-5.14
		s1.85-4.74,4.45-5.01c0.27-0.02,0.52-0.04,0.79-0.02c1.27,0.04,2.31,0.5,2.97,1.21c0.38,0.42,0.5,1.12,0.67,1.6l0.33-0.12
		c-0.17-0.48-0.48-1.08-0.5-1.6l-0.04-0.75h1.54v7.78c0,1.35,0.35,1.66,1.02,1.66c1.64,0,1.58-3.35,1.58-4.53
		c-0.02-4.85-3.47-7.76-7.45-7.76c-4.22,0-7.49,3.14-7.49,7.68c0,4.83,3.7,7.22,7.72,7.22c0.77,0,1.54-0.08,2.31-0.25l0.4,1.62
		c-0.94,0.19-1.85,0.27-2.73,0.27c-5.39,0-9.4-3.37-9.38-8.9c0-5.45,3.89-9.26,9.13-9.26c5.18,0,9.17,3.72,9.19,9.28
		c0,4.06-1.21,6.12-3.29,6.12c-1.54,0-2.54-0.98-2.54-2.52V573.87z M251.78,574.95c2.14,0,3.22-1.73,3.33-3.54
		c0-2.14-1.19-3.43-3.31-3.43c-2.18,0-3.33,1.5-3.33,3.43C248.46,573.35,249.6,574.95,251.78,574.95z"/>
	<path d="M263.15,569.52c0.02-4.01,2.83-7.01,6.66-7.01c3.43,0,5.68,1.89,6.05,4.53h-1.87c-0.38-1.52-1.58-2.81-4.18-2.81
		c-2.83,0-4.85,2.35-4.85,5.3c0,2.96,2.04,5.33,4.89,5.33c2.66,0,3.87-1.29,4.25-2.81h1.87c-0.4,2.77-2.7,4.53-6.1,4.53
		C266,576.57,263.17,573.54,263.15,569.52z"/>
	<path d="M278.28,562.8h1.79v13.48h-1.79V562.8z"/>
	<path d="M283.27,562.8h9.01v1.66h-7.24v4.06h6.76v1.66h-6.76v4.45h7.34v1.66h-9.11V562.8z"/>
	<path d="M296.45,576.28h-1.79V562.8h1.79l6.74,9.28c0.5,0.67,0.85,1.71,1.12,2.52l0.31-0.12c-0.25-0.79-0.6-1.83-0.6-2.68v-9.01
		h1.81v13.48h-1.81l-6.74-9.26c-0.5-0.67-0.83-1.71-1.1-2.52l-0.33,0.12c0.27,0.79,0.6,1.83,0.6,2.68V576.28z"/>
	<path d="M311.05,576.28v-11.82h-3.87v-1.66h9.55v1.66h-3.87v11.82H311.05z"/>
	<path d="M319.02,562.8h1.79v13.48h-1.79V562.8z"/>
	<path d="M325.79,564.53v4.27h6.16v1.73h-6.16v5.74H324V562.8h9.01v1.73H325.79z"/>
	<path d="M335.26,562.8h1.79v13.48h-1.79V562.8z"/>
	<path d="M338.5,569.52c0.02-4.01,2.83-7.01,6.66-7.01c3.43,0,5.68,1.89,6.05,4.53h-1.87c-0.38-1.52-1.58-2.81-4.18-2.81
		c-2.83,0-4.85,2.35-4.85,5.3c0,2.96,2.04,5.33,4.89,5.33c2.66,0,3.87-1.29,4.25-2.81h1.87c-0.4,2.77-2.7,4.53-6.1,4.53
		C341.35,576.57,338.52,573.54,338.5,569.52z"/>
	<path d="M359.12,562.51c3.72,0,6.45,3.08,6.45,7.03c0,3.93-2.73,7.05-6.45,7.05s-6.45-3.04-6.45-7.05
		C352.66,565.53,355.4,562.51,359.12,562.51z M359.12,574.85c2.89,0,4.64-2.6,4.64-5.32c0-2.73-1.75-5.29-4.64-5.29
		c-2.91,0-4.66,2.56-4.66,5.29C354.46,572.25,356.21,574.85,359.12,574.85z"/>
	<path d="M366.89,577.66h8.55v1.56h-8.55V577.66z"/>
</g>
<g>
	<path d="M318.81,400.03v1.57h-5.98v-8.98h1.63v7.42H318.81z"/>
	<path d="M323.82,392.42c2.48,0,4.43,2.16,4.43,4.68c0,2.53-1.95,4.7-4.43,4.7s-4.43-2.04-4.43-4.7S321.34,392.42,323.82,392.42z
		 M323.82,400.17c1.83,0,2.75-1.58,2.75-3.07c0-1.49-0.91-3.05-2.75-3.05s-2.73,1.57-2.73,3.05
		C321.09,398.59,321.98,400.17,323.82,400.17z"/>
	<path d="M336.85,400.88c0-0.51,0.23-1.16,0.36-1.66l-0.27-0.06c-0.14,0.49-0.17,1.22-0.51,1.6c-0.45,0.49-1.28,1.04-2.61,1.04
		c-2.64,0-4.7-2.03-4.7-4.7s2.01-4.68,4.77-4.68c1.99,0,3.59,0.92,4.2,2.54c0,0-1.68,0.39-1.67,0.37c-0.4-0.82-1.37-1.32-2.63-1.32
		c-1.77,0-2.99,1.28-2.99,3.09s1.31,3.11,3.21,3.11c2.04,0,2.64-1.32,2.64-2.03h-2.41v-1.45h4.22v4.86h-1.62V400.88z"/>
	<path d="M343.88,392.42c2.48,0,4.43,2.16,4.43,4.68c0,2.53-1.95,4.7-4.43,4.7s-4.43-2.04-4.43-4.7S341.4,392.42,343.88,392.42z
		 M343.88,400.17c1.83,0,2.75-1.58,2.75-3.07c0-1.49-0.91-3.05-2.75-3.05s-2.73,1.57-2.73,3.05
		C341.15,398.59,342.04,400.17,343.88,400.17z"/>
	<path d="M351.29,401.59v-7.42h-2.4v-1.57h6.48v1.57h-2.4v7.42H351.29z"/>
	<path d="M356.74,392.61h1.68v8.98h-1.68V392.61z"/>
	<path d="M361.73,397.83v3.76h-1.68v-8.98h3.36c1.91,0,3.49,0.41,3.49,2.57c0,2.16-1.57,2.67-3.63,2.67
		C362.94,397.85,362.39,397.85,361.73,397.83z M363.14,396.44c1.1,0,2.12-0.09,2.12-1.26c0-1.13-0.94-1.14-2.12-1.14h-1.41v2.4
		H363.14z"/>
	<path d="M371.69,392.42c2.48,0,4.43,2.16,4.43,4.68c0,2.53-1.95,4.7-4.43,4.7s-4.43-2.04-4.43-4.7S369.21,392.42,371.69,392.42z
		 M371.69,400.17c1.83,0,2.75-1.58,2.75-3.07c0-1.49-0.91-3.05-2.75-3.05s-2.73,1.57-2.73,3.05
		C368.96,398.59,369.86,400.17,371.69,400.17z"/>
</g>
<g>
	<path d="M134.97,553.46c10.64,0,15.33,4.69,15.33,15.33c0,7.35-2.1,11.2-8.68,15.75l-6.23-6.3c3.43-2.45,5.04-5.32,5.04-8.89
		c0-3.85-1.75-5.39-6.23-5.39h-33.74v-10.5H134.97z"/>
	<path d="M100.25,545v-34.86h9.8v24.71h9.38v-22.96h9.8v22.96h10.22v-25.06h9.8V545H100.25z"/>
	<path d="M100.11,492.57v-11.55l49.08-18.9v10.85l-16.94,6.37v14.49l16.94,5.81v10.85L100.11,492.57z M113.55,485.57
		c-1.47,0.7-3.64,0.28-5.32,0.28v1.75c1.68,0,3.85-0.42,5.32,0.28l11.13,5.11v-12.6L113.55,485.57z"/>
	<path d="M149.25,448.82v10.5h-49v-10.5l27.51-21.28c2.45-1.82,6.23-2.94,9.17-3.92l-0.56-1.61c-2.94,0.98-6.58,2.45-9.66,2.45
		h-26.46v-10.5h49v10.5l-27.44,21.21c-2.45,1.89-6.23,3.01-9.17,3.99l0.56,1.61c2.94-0.98,6.58-2.45,9.66-2.45H149.25z"/>
	<path d="M128.74,378.26h20.51v10.5h-49v-19.6c0-10.36,2.24-18.97,14-18.97c11.76,0,14.56,8.47,14.56,19.67
		C128.81,371.75,128.81,374.69,128.74,378.26z M120.13,371.12c0-5.6-0.35-10.78-5.88-10.78c-5.25,0-5.25,4.76-5.25,10.78v7.14h11.13
		V371.12z"/>
	<path d="M100.25,343.96v-10.5h49v10.5H100.25z"/>
	<path d="M100.25,325.06V290.2h9.8v24.71h9.38v-22.96h9.8v22.96h10.22v-25.06h9.8v35.21H100.25z"/>
	<path d="M137,248.55c2.8-0.63,12.25-3.71,12.25-3.71v10.78c-6.16,1.54-10.71,2.66-11.69,2.94c-7.91,2.17-6.58,6.86-6.72,9.38v6.86
		h18.41v10.15h-49v-18.48c0-11.2,2.24-20.44,13.72-20.44c6.09,0,8.89,3.01,10.78,7.21c1.19,2.59,0.77,6.3,0.77,9.17h1.75
		c0-2.87-0.77-6.79,0.84-9.17C129.93,250.37,133.01,249.46,137,248.55z M122.44,274.8v-7.42c0-5.67-3.08-10.85-8.33-10.85
		c-5.32,0-7.42,4.76-7.42,10.85v7.42H122.44z"/>
	<path d="M137,201.37c2.8-0.63,12.25-3.71,12.25-3.71v10.78c-6.16,1.54-10.71,2.66-11.69,2.94c-7.91,2.17-6.58,6.86-6.72,9.38v6.86
		h18.41v10.15h-49v-18.48c0-11.2,2.24-20.44,13.72-20.44c6.09,0,8.89,3.01,10.78,7.21c1.19,2.59,0.77,6.3,0.77,9.17h1.75
		c0-2.87-0.77-6.79,0.84-9.17C129.93,203.19,133.01,202.28,137,201.37z M122.44,227.62v-7.42c0-5.67-3.08-10.85-8.33-10.85
		c-5.32,0-7.42,4.76-7.42,10.85v7.42H122.44z"/>
	<path d="M100.25,190.59v-34.86h9.8v24.71h9.38v-22.96h9.8v22.96h10.22v-25.06h9.8v35.21H100.25z"/>
</g>
</svg>
