<?xml version="1.0" encoding="utf-8"?>
<!-- Generator: Adobe Illustrator 25.0.0, SVG Export Plug-In . SVG Version: 6.00 Build 0)  -->
<svg version="1.1" id="Layer_1" xmlns="http://www.w3.org/2000/svg" xmlns:xlink="http://www.w3.org/1999/xlink" x="0px" y="0px"
	 viewBox="0 0 700 500" style="enable-background:new 0 0 700 500;" xml:space="preserve">
<style type="text/css">
	.st0{fill:#F0C0FB;}
	.st1{fill:#B2E2FB;}
	.st2{fill:#F4F4F4;}
	.st3{fill:#F9DEC9;}
	.st4{fill:#285F4A;}
	.st5{fill:#ED664D;}
	.st6{fill:#1147CD;}
	.st7{fill:none;}
	.st8{fill:#F4F4F4;stroke:#000000;stroke-width:1.1667;stroke-miterlimit:10;}
	.st9{fill:#FFFFFF;stroke:#000000;stroke-width:0.4375;stroke-miterlimit:10;}
	.st10{fill:#FFFFFF;stroke:#000000;stroke-width:0.7999;stroke-miterlimit:10;}
	.st11{fill:none;stroke:#000000;stroke-width:1.1667;stroke-linecap:round;stroke-linejoin:round;stroke-miterlimit:10;}
	.st12{fill:#F4F4F4;stroke:#000000;stroke-width:1.2133;stroke-miterlimit:10;}
	.st13{fill:#A67C52;}
	.st14{fill:#B3B3B3;}
	.st15{fill:#FBB03B;}
	.st16{fill:#333333;}
	.st17{fill:#FFFFFF;}
	.st18{fill:none;stroke:#000000;stroke-width:1.1;stroke-miterlimit:10;}
</style>
<g>
	<rect x="83.98" y="83.97" class="st1" width="565.38" height="365.38"/>
	<g>
		<path d="M648.72,84.62v364.1H84.62V84.62H648.72 M650,83.33H83.33V450H650V83.33L650,83.33z"/>
	</g>
</g>
<g>
	<rect x="67.31" y="67.31" class="st0" width="565.38" height="365.38"/>
	<path d="M632.05,67.95v364.1H67.95V67.95H632.05 M633.33,66.67H66.67v366.67h566.67V66.67L633.33,66.67z"/>
</g>
<g>
	<rect x="50.64" y="50.64" class="st2" width="565.38" height="365.38"/>
	<path d="M615.38,51.28v364.1H51.28V51.28H615.38 M616.67,50H50v366.67h566.67V50L616.67,50z"/>
</g>
<g>
	<path d="M522.75,265.54v1.57h-5.98v-8.98h1.63v7.42H522.75z"/>
	<path d="M527.76,257.93c2.48,0,4.43,2.16,4.43,4.68c0,2.53-1.95,4.7-4.43,4.7s-4.43-2.04-4.43-4.7S525.28,257.93,527.76,257.93z
		 M527.76,265.68c1.83,0,2.75-1.58,2.75-3.07c0-1.49-0.91-3.05-2.75-3.05s-2.73,1.57-2.73,3.05
		C525.02,264.1,525.92,265.68,527.76,265.68z"/>
	<path d="M540.78,266.39c0-0.51,0.23-1.16,0.36-1.66l-0.27-0.06c-0.14,0.49-0.17,1.22-0.51,1.6c-0.45,0.49-1.28,1.04-2.61,1.04
		c-2.64,0-4.7-2.03-4.7-4.7s2.01-4.68,4.77-4.68c1.99,0,3.59,0.92,4.2,2.54c0,0-1.68,0.39-1.67,0.37c-0.4-0.82-1.37-1.32-2.63-1.32
		c-1.77,0-2.99,1.28-2.99,3.09s1.31,3.11,3.21,3.11c2.04,0,2.64-1.32,2.64-2.03h-2.41v-1.45h4.22v4.86h-1.62V266.39z"/>
	<path d="M547.82,257.93c2.48,0,4.43,2.16,4.43,4.68c0,2.53-1.95,4.7-4.43,4.7s-4.43-2.04-4.43-4.7S545.34,257.93,547.82,257.93z
		 M547.82,265.68c1.83,0,2.75-1.58,2.75-3.07c0-1.49-0.91-3.05-2.75-3.05s-2.73,1.57-2.73,3.05
		C545.08,264.1,545.98,265.68,547.82,265.68z"/>
	<path d="M555.22,267.1v-7.42h-2.4v-1.57h6.48v1.57h-2.4v7.42H555.22z"/>
	<path d="M560.68,258.12h1.68v8.98h-1.68V258.12z"/>
	<path d="M565.67,263.34v3.76h-1.68v-8.98h3.36c1.91,0,3.49,0.41,3.49,2.57c0,2.16-1.57,2.67-3.63,2.67
		C566.88,263.36,566.32,263.36,565.67,263.34z M567.08,261.95c1.1,0,2.12-0.09,2.12-1.26c0-1.13-0.94-1.14-2.12-1.14h-1.41v2.4
		H567.08z"/>
	<path d="M575.63,257.93c2.48,0,4.43,2.16,4.43,4.68c0,2.53-1.95,4.7-4.43,4.7s-4.43-2.04-4.43-4.7S573.15,257.93,575.63,257.93z
		 M575.63,265.68c1.83,0,2.75-1.58,2.75-3.07c0-1.49-0.91-3.05-2.75-3.05s-2.73,1.57-2.73,3.05
		C572.89,264.1,573.79,265.68,575.63,265.68z"/>
</g>
<g>
	<path d="M502.34,262.56h1.69v-1.78h1.48v1.78h1.8v1.41h-1.8v1.81h-1.48v-1.81h-1.69V262.56z"/>
</g>
<g>
	<path d="M399.17,284.08h11.5v1.28h-10.04v6.72h9.39v1.28h-9.39v7.39h10.16v1.28h-11.63V284.08z"/>
	<path d="M425.61,300.76v1.28h-10.93v-17.97h1.46v16.68H425.61z"/>
	<path d="M437.34,294.52v7.52h-1.44v-17.97h4.93c3.82,0,6.98,0.82,6.98,5.13c0,4.31-3.16,5.34-7.31,5.34
		C439.8,294.55,438.55,294.55,437.34,294.52z M441.01,293.08c2.77,0,5.31-0.28,5.31-3.95c0-3.54-2.34-3.57-5.31-3.57h-3.67v7.52
		H441.01z"/>
	<path d="M462.19,297.55c0.28,1.03,1.36,4.49,1.36,4.49h-1.41c-0.62-2.26-1.1-3.93-1.21-4.29c-0.9-2.9-2.93-3.34-4-3.39
		c-0.23,0-0.44,0-0.72,0c-0.67,0-1.93-0.03-3.49-0.03v7.7h-1.46v-17.97h5.03c3.75,0,6.83,0.82,6.83,5.03c0,2.64-1.57,3.62-3.52,4.31
		c-0.46,0.15-1.08,0.1-1.54,0.1v0.31c0.46,0,1.1-0.1,1.54,0.08C460.57,294.34,461.57,295.37,462.19,297.55z M452.71,292.85h3.64
		c2.77,0,5.31,0,5.31-3.7c0-3.54-2.36-3.36-5.31-3.36h-3.64V292.85z"/>
	<path d="M472.25,283.69c4.95,0,8.34,3.93,8.34,9.37c0,5.44-3.39,9.39-8.34,9.39c-4.95,0-8.34-4.03-8.34-9.39
		C463.91,287.7,467.29,283.69,472.25,283.69z M472.25,301.09c4.06,0,6.88-3.75,6.88-8.03s-2.82-7.98-6.88-7.98
		c-4.08,0-6.9,3.7-6.9,7.98S468.17,301.09,472.25,301.09z"/>
	<path d="M485.83,294.52v7.52h-1.44v-17.97h4.93c3.82,0,6.98,0.82,6.98,5.13c0,4.31-3.16,5.34-7.31,5.34
		C488.29,294.55,487.03,294.55,485.83,294.52z M489.5,293.08c2.77,0,5.31-0.28,5.31-3.95c0-3.54-2.34-3.57-5.31-3.57h-3.67v7.52
		H489.5z"/>
	<path d="M512.9,295.81c0.03,4.29-3,6.62-6.9,6.62c-3.9,0-6.9-2.33-6.93-6.62c0-5.34,0.03-11.73,0.03-11.73h1.44v12.04
		c0.03,2.62,2.34,4.95,5.47,4.95c3.16,0,5.49-2.33,5.47-4.95c0-4.08,0-12.04,0-12.04h1.44V295.81z"/>
	<path d="M528.23,300.76v1.28h-10.93v-17.97h1.46v16.68H528.23z"/>
	<path d="M542.06,287.7c-0.03-1.1-1.67-2.52-4.21-2.52c-2.67,0-5.52,1.05-5.52,3.23c0,3.39,11.75,3.05,11.75,8.83
		c0,3.88-3.46,5.18-6.52,5.18c-3.98,0-6.67-2.57-6.78-5.13l1.9,0.54c0.46,2.33,3.11,3.23,4.65,3.23c3.39,0,5.54-1.44,5.54-3.34
		c0-5.06-11.91-3.82-11.91-9.27c0-3.7,3.93-4.77,6.65-4.77c4.18,0,6.62,2.72,6.31,4.57L542.06,287.7z"/>
	<path d="M554.92,283.69c4.95,0,8.34,3.93,8.34,9.37c0,5.44-3.39,9.39-8.34,9.39c-4.95,0-8.34-4.03-8.34-9.39
		C546.58,287.7,549.97,283.69,554.92,283.69z M554.92,301.09c4.06,0,6.88-3.75,6.88-8.03s-2.82-7.98-6.88-7.98
		c-4.08,0-6.9,3.7-6.9,7.98S550.84,301.09,554.92,301.09z"/>
	<path d="M577.95,297.55c0.28,1.03,1.36,4.49,1.36,4.49h-1.41c-0.62-2.26-1.1-3.93-1.21-4.29c-0.9-2.9-2.93-3.34-4-3.39
		c-0.23,0-0.44,0-0.72,0c-0.67,0-1.93-0.03-3.49-0.03v7.7h-1.46v-17.97h5.03c3.75,0,6.83,0.82,6.83,5.03c0,2.64-1.57,3.62-3.52,4.31
		c-0.46,0.15-1.08,0.1-1.54,0.1v0.31c0.46,0,1.1-0.1,1.54,0.08C576.33,294.34,577.33,295.37,577.95,297.55z M568.48,292.85h3.64
		c2.77,0,5.31,0,5.31-3.7c0-3.54-2.36-3.36-5.31-3.36h-3.64V292.85z"/>
	<path d="M496.63,327.71h-1.03v-18.35h5.34c4.8,0,8.42,3.64,8.42,8.98c0,5.34-3.75,9.42-8.55,9.39L496.63,327.71z M500.97,326.35
		c3.95,0,6.93-3.82,6.93-8.03c0-4.18-2.85-7.57-6.8-7.57h-4.05v15.6H500.97z"/>
	<path d="M513.44,309.74h11.5v1.28h-10.04v6.72h9.39v1.28h-9.39v7.39h10.16v1.28h-11.63V309.74z"/>
	<path d="M546.3,326.43v1.28h-10.93v-17.97h1.46v16.68H546.3z"/>
	<path d="M555.13,309.36c4.95,0,8.34,3.93,8.34,9.37c0,5.44-3.39,9.39-8.34,9.39c-4.95,0-8.34-4.03-8.34-9.39
		C546.79,313.36,550.17,309.36,555.13,309.36z M555.13,326.76c4.06,0,6.88-3.75,6.88-8.03s-2.82-7.98-6.88-7.98
		c-4.08,0-6.9,3.7-6.9,7.98S551.05,326.76,555.13,326.76z"/>
	<path d="M577.23,313.36c-0.03-1.1-1.67-2.52-4.21-2.52c-2.67,0-5.52,1.05-5.52,3.23c0,3.39,11.75,3.05,11.75,8.83
		c0,3.88-3.46,5.18-6.52,5.18c-3.98,0-6.67-2.57-6.78-5.13l1.9,0.54c0.46,2.33,3.11,3.23,4.65,3.23c3.39,0,5.54-1.44,5.54-3.34
		c0-5.06-11.91-3.82-11.91-9.27c0-3.7,3.93-4.77,6.65-4.77c4.18,0,6.62,2.72,6.31,4.57L577.23,313.36z"/>
	<path d="M394.42,335.41h11.5v1.28h-10.04v6.72h9.39v1.28h-9.39v7.39h10.16v1.28h-11.63V335.41z"/>
	<path d="M406.95,353.38h-1.31l6.03-9.39l-5.65-8.57h1.62l4.47,6.75c0.28,0.41,0.31,1.03,0.31,1.54l0.31,0.03
		c0.03-0.51,0.08-1.13,0.38-1.54l4.9-6.78h1.31l-5.75,8.91l6.13,9.06h-1.64l-4.98-7.31c-0.31-0.41-0.33-1.03-0.33-1.54h-0.31
		c0,0.51-0.05,1.13-0.36,1.54L406.95,353.38z"/>
	<path d="M424.02,345.86v7.52h-1.44v-17.97h4.93c3.82,0,6.98,0.82,6.98,5.13c0,4.31-3.16,5.34-7.31,5.34
		C426.48,345.88,425.22,345.88,424.02,345.86z M427.69,344.42c2.77,0,5.31-0.28,5.31-3.95c0-3.54-2.34-3.57-5.31-3.57h-3.67v7.52
		H427.69z"/>
	<path d="M448.86,352.09v1.28h-10.93v-17.97h1.46v16.68H448.86z"/>
	<path d="M457.69,335.03c4.95,0,8.34,3.93,8.34,9.37c0,5.44-3.39,9.39-8.34,9.39c-4.95,0-8.34-4.03-8.34-9.39
		C449.35,339.03,452.74,335.03,457.69,335.03z M457.69,352.43c4.06,0,6.88-3.75,6.88-8.03s-2.82-7.98-6.88-7.98
		c-4.08,0-6.9,3.7-6.9,7.98S453.61,352.43,457.69,352.43z"/>
	<path d="M480.72,348.89c0.28,1.03,1.36,4.49,1.36,4.49h-1.41c-0.62-2.26-1.1-3.93-1.21-4.29c-0.9-2.9-2.93-3.34-4-3.39
		c-0.23,0-0.44,0-0.72,0c-0.67,0-1.92-0.03-3.49-0.03v7.7h-1.46v-17.97h5.03c3.75,0,6.83,0.82,6.83,5.03c0,2.64-1.57,3.62-3.52,4.31
		c-0.46,0.15-1.08,0.1-1.54,0.1v0.31c0.46,0,1.1-0.1,1.54,0.08C479.1,345.68,480.1,346.71,480.72,348.89z M471.25,344.19h3.64
		c2.77,0,5.31,0,5.31-3.7c0-3.54-2.36-3.36-5.31-3.36h-3.64V344.19z"/>
	<path d="M488.83,335.36h2.26l7.06,17.99h-1.72l-2.67-6.52h-7.55l-2.44,6.52h-1.8L488.83,335.36z M490.19,337.77
		c-0.15-0.41-0.1-0.95-0.1-1.39h-0.31c0,0.44,0.05,0.98-0.1,1.39l-3,7.57h6.54L490.19,337.77z"/>
	<path d="M501.82,353.38h-1.03v-18.35h5.34c4.8,0,8.42,3.64,8.42,8.98c0,5.34-3.75,9.42-8.55,9.39L501.82,353.38z M506.15,352.02
		c3.95,0,6.93-3.82,6.93-8.03c0-4.18-2.85-7.57-6.8-7.57h-4.05v15.6H506.15z"/>
	<path d="M523.63,335.03c4.95,0,8.34,3.93,8.34,9.37c0,5.44-3.39,9.39-8.34,9.39c-4.95,0-8.34-4.03-8.34-9.39
		C515.29,339.03,518.68,335.03,523.63,335.03z M523.63,352.43c4.06,0,6.88-3.75,6.88-8.03s-2.82-7.98-6.88-7.98
		c-4.08,0-6.9,3.7-6.9,7.98S519.55,352.43,523.63,352.43z"/>
	<path d="M546.66,348.89c0.28,1.03,1.36,4.49,1.36,4.49h-1.41c-0.62-2.26-1.1-3.93-1.21-4.29c-0.9-2.9-2.93-3.34-4-3.39
		c-0.23,0-0.44,0-0.72,0c-0.67,0-1.93-0.03-3.49-0.03v7.7h-1.46v-17.97h5.03c3.75,0,6.83,0.82,6.83,5.03c0,2.64-1.57,3.62-3.52,4.31
		c-0.46,0.15-1.08,0.1-1.54,0.1v0.31c0.46,0,1.1-0.1,1.54,0.08C545.04,345.68,546.04,346.71,546.66,348.89z M537.19,344.19h3.64
		c2.77,0,5.31,0,5.31-3.7c0-3.54-2.36-3.36-5.31-3.36h-3.64V344.19z"/>
	<path d="M551.71,335.41h11.5v1.28h-10.04v6.72h9.39v1.28h-9.39v7.39h10.16v1.28h-11.63V335.41z"/>
	<path d="M577.23,339.03c-0.03-1.1-1.67-2.52-4.21-2.52c-2.67,0-5.52,1.05-5.52,3.23c0,3.39,11.75,3.05,11.75,8.83
		c0,3.88-3.46,5.18-6.52,5.18c-3.98,0-6.67-2.57-6.78-5.13l1.9,0.54c0.46,2.33,3.11,3.23,4.65,3.23c3.39,0,5.54-1.44,5.54-3.34
		c0-5.06-11.91-3.82-11.91-9.27c0-3.7,3.93-4.77,6.65-4.77c4.18,0,6.62,2.72,6.31,4.57L577.23,339.03z"/>
	<path d="M461.9,379.05h-1.03V360.7h5.34c4.8,0,8.42,3.64,8.42,8.98c0,5.34-3.75,9.42-8.55,9.39L461.9,379.05z M466.24,377.69
		c3.95,0,6.93-3.82,6.93-8.03c0-4.18-2.85-7.57-6.8-7.57h-4.05v15.6H466.24z"/>
	<path d="M478.56,361.08H480v17.97h-1.44V361.08z"/>
	<path d="M497.68,376.84c0-0.56,0.23-1.31,0.33-1.87l-0.33-0.05c-0.08,0.56-0.05,1.36-0.31,1.87c-0.67,1.1-2.31,2.67-5.26,2.67
		c-4.85,0-8.6-4.06-8.6-9.39c0-5.34,3.52-9.37,8.26-9.37c3.46,0,6.26,1.85,7.37,5.08c0,0-1.31,0.77-1.28,0.74
		c-0.85-2.75-3.11-4.44-6.01-4.44c-4.11,0-6.9,3.9-6.9,7.98c0,4.08,3.03,8.01,7.03,8.01c4.31,0,5.31-3.8,5.31-5.85h-4.83v-1.36h6.39
		v8.19h-1.18V376.84z"/>
	<path d="M502.77,361.08h1.44v17.97h-1.44V361.08z"/>
	<path d="M510.98,379.05v-16.68h-5.49v-1.28h12.45v1.28h-5.49v16.68H510.98z"/>
	<path d="M524.84,361.03h2.26l7.06,17.99h-1.72l-2.67-6.52h-7.55l-2.44,6.52h-1.8L524.84,361.03z M526.2,363.44
		c-0.15-0.41-0.1-0.95-0.1-1.39h-0.31c0,0.44,0.05,0.98-0.1,1.39l-3,7.57h6.54L526.2,363.44z"/>
	<path d="M547.89,377.76v1.28h-10.93v-17.97h1.46v16.68H547.89z"/>
	<path d="M551.71,361.08h11.5v1.28h-10.04v6.72h9.39v1.28h-9.39v7.39h10.16v1.28h-11.63V361.08z"/>
	<path d="M577.23,364.7c-0.03-1.1-1.67-2.52-4.21-2.52c-2.67,0-5.52,1.05-5.52,3.23c0,3.39,11.75,3.05,11.75,8.83
		c0,3.88-3.46,5.18-6.52,5.18c-3.98,0-6.67-2.57-6.78-5.13l1.9,0.54c0.46,2.33,3.11,3.23,4.65,3.23c3.39,0,5.54-1.44,5.54-3.34
		c0-5.06-11.91-3.82-11.91-9.27c0-3.7,3.93-4.77,6.65-4.77c4.18,0,6.62,2.72,6.31,4.57L577.23,364.7z"/>
</g>
<g>
	<g>
		<path d="M100.18,91.11h11.55l18.9,49.08h-10.85l-6.37-16.94H98.92l-5.81,16.94H82.26L100.18,91.11z M107.18,104.55
			c-0.7-1.47-0.28-3.64-0.28-5.32h-1.75c0,1.68,0.42,3.85-0.28,5.32l-5.11,11.13h12.6L107.18,104.55z"/>
		<path d="M143.93,140.26h-10.5v-49h10.5l21.28,27.51c1.82,2.45,2.94,6.23,3.92,9.17l1.61-0.56c-0.98-2.94-2.45-6.58-2.45-9.66
			V91.25h10.5v49h-10.5l-21.21-27.44c-1.89-2.45-3.01-6.23-3.99-9.17l-1.61,0.56c0.98,2.94,2.45,6.58,2.45,9.66V140.26z"/>
		<path d="M198.39,140.26v-39.2h-12.6v-9.8h35.77v9.8h-12.67v39.2H198.39z"/>
		<path d="M228.55,91.25h10.5v49h-10.5V91.25z"/>
		<path d="M257.95,140.26h-10.5v-49h16.45l11.41,31.5c0.98,2.66,0.77,6.37,0.77,9.17h1.75c0-2.8-0.21-6.51,0.7-9.17l11.34-31.5
			h16.45v49h-10.5v-34.16c0-2.87,1.19-6.51,1.61-9.31l-1.75-0.28c-0.42,2.8-0.42,6.65-1.33,9.31l-11.13,34.44h-12.6l-11.2-34.44
			c-0.91-2.66-0.91-6.51-1.4-9.31l-1.68,0.28c0.42,2.8,1.61,6.44,1.61,9.31V140.26z"/>
		<path d="M327.04,91.11h11.55l18.9,49.08h-10.85l-6.37-16.94h-14.49l-5.81,16.94h-10.85L327.04,91.11z M334.04,104.55
			c-0.7-1.47-0.28-3.64-0.28-5.32h-1.75c0,1.68,0.42,3.85-0.28,5.32l-5.11,11.13h12.6L334.04,104.55z"/>
		<path d="M371.49,140.26v-39.2h-12.6v-9.8h35.77v9.8h-12.67v39.2H371.49z"/>
		<path d="M401.66,91.25h34.86v9.8h-24.71v9.38h22.96v9.8h-22.96v10.22h25.06v9.8h-35.21V91.25z"/>
		<path d="M478.17,128.01c0.63,2.8,3.71,12.25,3.71,12.25H471.1c-1.54-6.16-2.66-10.71-2.94-11.69c-2.17-7.91-6.86-6.58-9.38-6.72
			h-6.86v18.41h-10.15v-49h18.48c11.2,0,20.44,2.24,20.44,13.72c0,6.09-3.01,8.89-7.21,10.78c-2.59,1.19-6.3,0.77-9.17,0.77v1.75
			c2.87,0,6.79-0.77,9.17,0.84C476.35,120.94,477.26,124.02,478.17,128.01z M451.92,113.45h7.42c5.67,0,10.85-3.08,10.85-8.33
			c0-5.32-4.76-7.42-10.85-7.42h-7.42V113.45z"/>
		<path d="M490.7,91.25h10.5v49h-10.5V91.25z"/>
		<path d="M521.92,91.11h11.55l18.9,49.08h-10.85l-6.37-16.94h-14.49l-5.81,16.94H504L521.92,91.11z M528.92,104.55
			c-0.7-1.47-0.28-3.64-0.28-5.32h-1.75c0,1.68,0.42,3.85-0.28,5.32l-5.11,11.13h12.6L528.92,104.55z"/>
	</g>
</g>
<g>
	<path d="M89.98,342.97c3.41,0,5.14,3.02,5.14,7.03c0,4.01-1.73,7.05-5.14,7.05c-3.43,0-5.16-3.04-5.16-7.05
		C84.82,345.99,86.55,342.97,89.98,342.97z M89.98,355.31c2.37,0,3.31-2.54,3.31-5.32c0-2.77-0.94-5.28-3.31-5.28
		c-2.39,0-3.33,2.5-3.33,5.28C86.65,352.77,87.59,355.31,89.98,355.31z"/>
	<path d="M101.42,352.17c-2.45,0-4.72-1.41-4.72-4.24c0-2.43,1.87-4.68,4.85-4.68c4.06,0,5.33,2.68,5.33,6.62
		c0,4.83-1.75,7.14-4.68,7.14c-3.56,0-4.89-2.04-5.2-3.68h1.91c0.35,0.96,1.27,1.94,3.1,1.94c2.16,0,2.95-1.71,3.06-4.66
		c0.02-0.56,0.27-1.25,0.42-1.79l-0.33-0.08c-0.15,0.54-0.23,1.27-0.54,1.73C104,351.46,103.13,352.17,101.42,352.17z
		 M101.55,345.01c-1.96,0-3,1.12-3,2.77s1.17,2.66,3.16,2.66c1.96,0,2.85-1.16,2.85-2.66S103.53,345.01,101.55,345.01z"/>
	<path d="M109.65,354.75h1.98v1.98h-1.98V354.75z"/>
	<path d="M116.08,355.26l0.13,0.33c0.52-0.23,1.17-0.54,1.73-0.54h5.28v1.69h-8.84v-1.66c1.41-1.42,2.46-2.68,5.12-5.26
		c3-2.93,1.56-5.04-0.46-5.04c-2.06,0-2.52,1.35-2.52,2.62h-1.91c0-1.96,1.1-4.43,4.68-4.43c3.33,0,5.22,3.91,2.73,6.62
		c-1.69,1.87-3.47,3.77-4.37,4.76C117.28,354.77,116.6,355.04,116.08,355.26z"/>
	<path d="M130.41,342.97c3.41,0,5.14,3.02,5.14,7.03c0,4.01-1.73,7.05-5.14,7.05c-3.43,0-5.16-3.04-5.16-7.05
		C125.25,345.99,126.98,342.97,130.41,342.97z M130.41,355.31c2.37,0,3.31-2.54,3.31-5.32c0-2.77-0.94-5.28-3.31-5.28
		c-2.39,0-3.33,2.5-3.33,5.28C127.08,352.77,128.02,355.31,130.41,355.31z"/>
	<path d="M139.13,355.26l0.13,0.33c0.52-0.23,1.17-0.54,1.73-0.54h5.28v1.69h-8.84v-1.66c1.41-1.42,2.46-2.68,5.12-5.26
		c3-2.93,1.56-5.04-0.46-5.04c-2.06,0-2.52,1.35-2.52,2.62h-1.91c0-1.96,1.1-4.43,4.68-4.43c3.33,0,5.22,3.91,2.73,6.62
		c-1.69,1.87-3.47,3.77-4.37,4.76C140.32,354.77,139.65,355.04,139.13,355.26z"/>
	<path d="M153.45,342.97c3.41,0,5.14,3.02,5.14,7.03c0,4.01-1.73,7.05-5.14,7.05c-3.43,0-5.16-3.04-5.16-7.05
		C148.29,345.99,150.02,342.97,153.45,342.97z M153.45,355.31c2.37,0,3.31-2.54,3.31-5.32c0-2.77-0.94-5.28-3.31-5.28
		c-2.39,0-3.33,2.5-3.33,5.28C150.12,352.77,151.06,355.31,153.45,355.31z"/>
	<path d="M97.9,373.58h-0.27c0,0.27-0.69,2.62-3.25,2.7c-0.27,0.02-0.52,0-0.75-0.02c-2.58-0.29-4.39-2.46-4.39-5.14
		s1.85-4.74,4.45-5.01c0.27-0.02,0.52-0.04,0.79-0.02c1.27,0.04,2.31,0.5,2.97,1.21c0.39,0.42,0.5,1.12,0.67,1.6l0.33-0.12
		c-0.17-0.48-0.48-1.08-0.5-1.6l-0.04-0.75h1.54v7.78c0,1.35,0.35,1.66,1.02,1.66c1.64,0,1.58-3.35,1.58-4.53
		c-0.02-4.85-3.47-7.76-7.45-7.76c-4.22,0-7.49,3.14-7.49,7.68c0,4.83,3.7,7.22,7.72,7.22c0.77,0,1.54-0.08,2.31-0.25l0.4,1.62
		c-0.94,0.19-1.85,0.27-2.73,0.27c-5.39,0-9.4-3.37-9.38-8.9c0-5.45,3.89-9.26,9.13-9.26c5.18,0,9.17,3.72,9.19,9.28
		c0,4.06-1.21,6.12-3.29,6.12c-1.54,0-2.54-0.98-2.54-2.52V373.58z M94.31,374.66c2.14,0,3.22-1.73,3.33-3.54
		c0-2.14-1.19-3.43-3.31-3.43c-2.18,0-3.33,1.5-3.33,3.43C91,373.06,92.14,374.66,94.31,374.66z"/>
	<path d="M109.79,362.47h2.29l5.26,13.5h-1.98l-1.89-4.79h-4.99l-1.75,4.79h-2L109.79,362.47z M111.18,365.03
		c-0.15-0.35-0.08-0.83-0.08-1.21h-0.35c0,0.38,0.08,0.87-0.06,1.21l-1.93,4.64h4.33L111.18,365.03z"/>
	<path d="M120.7,375.99h-1.79v-13.48h1.79l6.74,9.28c0.5,0.67,0.85,1.71,1.12,2.52l0.31-0.12c-0.25-0.79-0.6-1.83-0.6-2.68v-9.01
		h1.81v13.48h-1.81l-6.74-9.26c-0.5-0.67-0.83-1.71-1.1-2.52l-0.33,0.12c0.27,0.79,0.6,1.83,0.6,2.68V375.99z"/>
	<path d="M135.3,375.99v-11.82h-3.87v-1.66h9.55v1.66h-3.87v11.82H135.3z"/>
	<path d="M143.27,362.51h1.79v13.48h-1.79V362.51z"/>
	<path d="M147.19,377.38h8.55v1.56h-8.55V377.38z"/>
	<path d="M160.26,375.99h-1.81v-13.48h2.52l4.64,10.48c0.21,0.52,0.19,1.23,0.19,1.79h0.35c0-0.56-0.04-1.27,0.19-1.79l4.64-10.48
		h2.48v13.48h-1.79v-9.78c0-0.56,0.23-1.25,0.35-1.81l-0.33-0.06c-0.12,0.54-0.17,1.29-0.38,1.79l-4.33,9.86h-2.02l-4.35-9.86
		c-0.21-0.5-0.27-1.25-0.37-1.79l-0.33,0.06c0.1,0.56,0.35,1.25,0.35,1.81V375.99z"/>
	<path d="M179.4,362.47h2.29l5.26,13.5h-1.98l-1.89-4.79h-4.99l-1.75,4.79h-2L179.4,362.47z M180.79,365.03
		c-0.15-0.35-0.08-0.83-0.08-1.21h-0.35c0,0.38,0.08,0.87-0.06,1.21l-1.93,4.64h4.33L180.79,365.03z"/>
	<path d="M191.07,375.99v-11.82h-3.87v-1.66h9.55v1.66h-3.87v11.82H191.07z"/>
	<path d="M199.04,362.51h9.01v1.66h-7.24v4.06h6.76v1.66h-6.76v4.45h7.34v1.66h-9.11V362.51z"/>
	<path d="M219.35,372.62c0.21,0.77,1.04,3.37,1.04,3.37h-1.83c-0.44-1.69-0.79-2.95-0.87-3.22c-0.64-2.18-2.08-2.23-2.83-2.27
		c-0.15,0.02-0.31,0.02-0.5,0.02c-0.5,0-1.44-0.02-2.16-0.02v5.49h-1.77v-13.48h4.29c2.91,0,5.33,0.62,5.33,3.77
		c0,1.85-1.06,2.62-2.39,3.14c-0.48,0.19-1.17,0.12-1.69,0.12v0.35c0.52,0,1.23-0.15,1.69,0.12
		C218.42,370.41,218.98,371.19,219.35,372.62z M212.2,368.9h2.46c1.87,0,3.58-0.35,3.58-2.58c0-2.18-1.58-2.33-3.58-2.33h-2.46
		V368.9z"/>
	<path d="M222.93,362.51h1.79v13.48h-1.79V362.51z"/>
	<path d="M230.65,362.47h2.29l5.26,13.5h-1.98l-1.89-4.79h-4.99l-1.75,4.79h-2L230.65,362.47z M232.03,365.03
		c-0.15-0.35-0.08-0.83-0.08-1.21h-0.35c0,0.38,0.08,0.87-0.06,1.21l-1.93,4.64h4.33L232.03,365.03z"/>
	<path d="M238.71,377.38h8.55v1.56h-8.55V377.38z"/>
</g>
<g>
	<path d="M453.46,243.12h1.68v8.98h-1.68V243.12z"/>
	<path d="M458.35,252.1h-1.48v-9.18h3.76c2.54,0,4.47,1.82,4.47,4.49c0,2.67-1.99,4.71-4.53,4.7L458.35,252.1z M460.33,250.53
		c1.8,0,3.14-1.46,3.14-3.08c0-1.63-1.28-2.93-3.08-2.93h-1.83v6.01H460.33z"/>
	<path d="M466.45,243.12h6.26v1.57h-4.63v2.05h4.31v1.57h-4.31v2.23h4.7v1.57h-6.33V243.12z"/>
	<path d="M475.56,252.1h-1.68v-8.98h1.68l4.09,5.43c0.33,0.44,0.54,1.14,0.72,1.67l0.28-0.09c-0.18-0.53-0.44-1.21-0.44-1.77v-5.24
		h1.68v8.98h-1.68l-4.09-5.42c-0.35-0.45-0.55-1.14-0.73-1.68l-0.27,0.1c0.18,0.53,0.44,1.21,0.44,1.77V252.1z"/>
	<path d="M485.47,252.1v-7.42h-2.4v-1.57h6.48v1.57h-2.4v7.42H485.47z"/>
	<path d="M490.92,243.12h1.68v8.98h-1.68V243.12z"/>
	<path d="M495.81,252.1h-1.48v-9.18h3.76c2.54,0,4.47,1.82,4.47,4.49c0,2.67-1.99,4.71-4.53,4.7L495.81,252.1z M497.79,250.53
		c1.8,0,3.14-1.46,3.14-3.08c0-1.63-1.28-2.93-3.08-2.93h-1.83v6.01H497.79z"/>
	<path d="M506.01,243.1h1.92l3.46,9h-1.76l-1.21-3.13h-2.86l-1.1,3.13h-1.77L506.01,243.1z M507.18,245.32
		c-0.12-0.27-0.05-0.64-0.05-0.92h-0.3c0,0.28,0.06,0.66-0.05,0.92l-1.05,2.39h2.5L507.18,245.32z"/>
	<path d="M513.83,252.1h-1.48v-9.18h3.76c2.54,0,4.47,1.82,4.47,4.49c0,2.67-1.99,4.71-4.53,4.7L513.83,252.1z M515.81,250.53
		c1.8,0,3.14-1.46,3.14-3.08c0-1.63-1.28-2.93-3.08-2.93h-1.83v6.01H515.81z"/>
	<path d="M532.42,251.39c0-0.51,0.23-1.16,0.36-1.66l-0.27-0.06c-0.14,0.49-0.17,1.22-0.51,1.6c-0.45,0.49-1.28,1.04-2.61,1.04
		c-2.64,0-4.7-2.03-4.7-4.7s2.01-4.68,4.77-4.68c1.99,0,3.59,0.92,4.2,2.54c0,0-1.68,0.39-1.67,0.37c-0.4-0.82-1.37-1.32-2.63-1.32
		c-1.77,0-2.99,1.28-2.99,3.09s1.31,3.11,3.21,3.11c2.04,0,2.64-1.32,2.64-2.03h-2.41v-1.45h4.22v4.86h-1.62V251.39z"/>
	<path d="M541.9,249.86c0.12,0.51,0.68,2.25,0.68,2.25h-1.73c-0.28-1.13-0.5-1.96-0.54-2.14c-0.41-1.45-1.31-1.3-1.78-1.32
		c-0.09,0-0.19,0-0.31,0c-0.31,0-0.96,0-1.12,0v3.46h-1.63v-8.98h3.21c2.02,0,3.68,0.41,3.68,2.51c0,1.16-0.6,1.67-1.41,2.01
		c-0.42,0.19-1.04,0.12-1.5,0.12v0.3c0.46,0,1.12-0.13,1.5,0.13C541.46,248.5,541.69,249.05,541.9,249.86z M537.1,247.25h1.45
		c1.12,0,2.13-0.45,2.13-1.59c0-1.13-0.94-1.42-2.13-1.42h-1.45V247.25z"/>
	<path d="M546.09,243.1h1.92l3.46,9h-1.76l-1.21-3.13h-2.86l-1.1,3.13h-1.77L546.09,243.1z M547.26,245.32
		c-0.12-0.27-0.05-0.64-0.05-0.92h-0.3c0,0.28,0.06,0.66-0.05,0.92l-1.05,2.39h2.5L547.26,245.32z"/>
	<path d="M553.87,244.75v2.31h3.88v1.62h-3.88v3.43h-1.68v-8.98h6.26v1.63H553.87z"/>
	<path d="M560.03,243.12h1.68v8.98h-1.68V243.12z"/>
	<path d="M562.8,247.6c0-2.67,1.96-4.67,4.62-4.67c2.73,0,4.02,1.49,4.2,3.21h-1.69c-0.21-0.76-0.69-1.59-2.49-1.59
		c-1.66,0-2.95,1.13-2.95,3.07c0,1.92,1.28,3.07,2.95,3.07c1.89,0,2.39-0.83,2.6-1.59h1.69c-0.24,2-1.6,3.21-4.26,3.21
		C564.79,252.3,562.8,250.28,562.8,247.6z"/>
	<path d="M575.26,243.1h1.92l3.46,9h-1.76l-1.21-3.13h-2.86l-1.1,3.13h-1.77L575.26,243.1z M576.43,245.32
		c-0.12-0.27-0.05-0.64-0.05-0.92h-0.3c0,0.28,0.06,0.66-0.05,0.92l-1.05,2.39h2.5L576.43,245.32z"/>
</g>
<g>
	<path d="M548.32,238.92l1.13,1.13l-2.39,2.08l-0.82-0.82L548.32,238.92z"/>
</g>
</svg>
