<?xml version="1.0" encoding="utf-8"?>
<!-- Generator: Adobe Illustrator 25.0.0, SVG Export Plug-In . SVG Version: 6.00 Build 0)  -->
<svg version="1.1" id="Layer_1" xmlns="http://www.w3.org/2000/svg" xmlns:xlink="http://www.w3.org/1999/xlink" x="0px" y="0px"
	 viewBox="0 0 500 500" style="enable-background:new 0 0 500 500;" xml:space="preserve">
<style type="text/css">
	.st0{fill:#F0C0FB;}
	.st1{fill:#B2E2FB;}
	.st2{fill:#F4F4F4;}
	.st3{fill:#F9DEC9;}
	.st4{fill:#285F4A;}
	.st5{fill:#ED664D;}
	.st6{fill:#1147CD;}
	.st7{font-family:'SFProDisplay-Medium';}
	.st8{font-size:62.0517px;}
	.st9{letter-spacing:-1;}
	.st10{fill:none;}
	.st11{fill:#F4F4F4;stroke:#000000;stroke-width:1.1667;stroke-miterlimit:10;}
	.st12{fill:#FFFFFF;stroke:#000000;stroke-width:0.4375;stroke-miterlimit:10;}
	.st13{fill:#FFFFFF;stroke:#000000;stroke-width:0.7999;stroke-miterlimit:10;}
	.st14{fill:none;stroke:#000000;stroke-width:1.1667;stroke-linecap:round;stroke-linejoin:round;stroke-miterlimit:10;}
	.st15{fill:#F4F4F4;stroke:#000000;stroke-width:1.2133;stroke-miterlimit:10;}
	.st16{fill:#A67C52;}
	.st17{fill:#B3B3B3;}
	.st18{fill:#FBB03B;}
	.st19{fill:#333333;}
	.st20{fill:#FFFFFF;}
	.st21{fill:none;stroke:#000000;stroke-width:1.1;stroke-miterlimit:10;}
</style>
<g>
	<text transform="matrix(1 0 0 1 96.3812 152.8848)" class="st7 st8 st9">Destacados</text>
	<path d="M429.15,179.29l-0.53-0.02c-0.4-0.02-0.8-0.03-1.24-0.03c-9.6,0-14.44,2.26-19.13,4.44c-4.23,1.97-8.23,3.83-16.39,3.83
		s-12.15-1.86-16.39-3.84c-4.68-2.18-9.53-4.44-19.12-4.44c-9.59,0-14.43,2.26-19.13,4.45c-4.23,1.97-8.22,3.83-16.37,3.83
		c-8.16,0-12.16-1.86-16.39-3.83c-4.68-2.18-9.53-4.44-19.12-4.44c-9.59,0-14.44,2.26-19.13,4.45c-4.23,1.97-8.23,3.83-16.38,3.83
		c-8.16,0-12.16-1.86-16.38-3.83c-4.68-2.18-9.53-4.44-19.12-4.44c-9.59,0-14.43,2.26-19.13,4.45c-4.23,1.97-8.22,3.83-16.37,3.83
		c-8.16,0-12.15-1.86-16.39-3.84c-4.68-2.18-9.53-4.44-19.12-4.44c-9.59,0-14.43,2.26-19.13,4.45c-4.23,1.97-8.22,3.83-16.37,3.83
		c-8.16,0-12.15-1.86-16.39-3.84c-4.68-2.18-9.52-4.44-19.11-4.44l-0.36,0.01c-0.63,0.01-1.14,0.53-1.14,1.17v4.14
		c0,0.65,0.86,1.16,1.5,1.16c8.16,0,12.15,1.86,16.38,3.83c4.68,2.18,9.53,4.44,19.12,4.44c9.6,0,14.44-2.26,19.12-4.44
		c4.23-1.97,8.22-3.83,16.38-3.83c8.16,0,12.15,1.86,16.39,3.83c4.68,2.18,9.52,4.44,19.12,4.44c9.6,0,14.44-2.26,19.12-4.44
		c4.23-1.97,8.22-3.83,16.38-3.83c8.15,0,12.15,1.86,16.39,3.83c4.68,2.18,9.52,4.44,19.12,4.44c9.6,0,14.44-2.26,19.12-4.44
		c4.23-1.97,8.22-3.83,16.38-3.83c8.16,0,12.15,1.86,16.39,3.83c4.68,2.18,9.52,4.44,19.12,4.44c9.6,0,14.44-2.26,19.12-4.44
		c4.23-1.97,8.22-3.83,16.38-3.83c8.16,0,12.15,1.86,16.39,3.83c4.68,2.18,9.53,4.44,19.12,4.44s14.44-2.26,19.13-4.44
		c4.23-1.97,8.23-3.83,16.39-3.83c0.42,0,0.8,0.02,1.19,0.03l0.51,0.02c0.3-0.03,0.62-0.11,0.85-0.33c0.23-0.22,0.36-0.52,0.36-0.84
		v-4.14C430.28,179.83,429.78,179.31,429.15,179.29z"/>
	<g>
		<g>
			<path d="M121.67,221.6c7.31,0,11.64,4.56,11.64,12.32c0,7.78-4.31,12.34-11.64,12.34h-8.29V221.6H121.67z M116.46,243.49h5.01
				c5.59,0,8.7-3.42,8.7-9.54c0-6.17-3.09-9.59-8.7-9.59h-5.01V243.49z"/>
			<path d="M135.76,223.46c0-1.04,0.84-1.86,1.86-1.86c1.04,0,1.86,0.82,1.86,1.86c0,1.03-0.82,1.86-1.86,1.86
				C136.6,225.32,135.76,224.48,135.76,223.46z M136.14,228.48h2.97v17.77h-2.97V228.48z"/>
			<path d="M148.65,228.18c3.9,0,6.49,2.29,6.61,5.43h-2.84c-0.22-1.86-1.59-3.01-3.78-3.01c-2.17,0-3.61,1.08-3.61,2.63
				c0,1.23,0.91,2.07,2.89,2.55l2.82,0.68c3.59,0.87,4.89,2.27,4.89,4.82c0,3.09-2.92,5.28-6.89,5.28c-4.17,0-6.77-2.1-7.11-5.43
				h2.97c0.36,2.03,1.73,3.01,4.14,3.01c2.41,0,3.9-1.03,3.9-2.63c0-1.28-0.7-2.02-2.73-2.51l-2.82-0.68
				c-3.35-0.8-4.97-2.36-4.97-4.92C142.12,230.35,144.81,228.18,148.65,228.18z"/>
			<path d="M172.74,241.16c-0.51,3.11-3.52,5.4-7.4,5.4c-5.09,0-8.19-3.54-8.19-9.13c0-5.52,3.14-9.26,8.05-9.26
				c4.8,0,7.76,3.49,7.76,8.87v1.13h-12.75v0.17c0,3.4,2,5.64,5.2,5.64c2.26,0,3.91-1.15,4.41-2.82H172.74z M160.23,235.85h9.66
				c-0.07-2.97-1.93-5.09-4.73-5.09C162.36,230.76,160.42,232.89,160.23,235.85z"/>
			<path d="M175.26,228.48h2.8v2.84h0.07c0.99-1.91,2.89-3.14,5.64-3.14c3.9,0,6.15,2.51,6.15,6.54v11.54h-2.97v-11.01
				c0-2.87-1.35-4.44-4.08-4.44c-2.8,0-4.63,1.98-4.63,4.99v10.46h-2.97V228.48z M180.47,223.39c-0.75,0-1.26,0.6-1.26,2.21h-2
				c0-2.67,1.28-4.26,3.4-4.26c2.41,0,2.79,2.34,4.02,2.34c0.82,0,1.35-0.65,1.35-2.21h2c0,2.65-1.28,4.26-3.42,4.26
				C182.16,225.73,181.65,223.39,180.47,223.39z"/>
			<path d="M192.13,237.37c0-5.67,3.32-9.19,8.24-9.19c4.9,0,8.22,3.52,8.22,9.19c0,5.66-3.32,9.19-8.22,9.19
				C195.45,246.56,192.13,243.03,192.13,237.37z M205.57,237.37c0-4.19-2.05-6.58-5.2-6.58s-5.21,2.39-5.21,6.58
				s2.07,6.58,5.21,6.58S205.57,241.56,205.57,237.37z"/>
			<path d="M216.5,237.37c0-5.57,3.06-9.19,7.54-9.19c2.55,0,4.6,1.25,5.66,3.2h0.07v-9.78h2.97v24.66h-2.84v-3.01h-0.05
				c-1.14,2.05-3.18,3.32-5.74,3.32C219.57,246.56,216.5,242.94,216.5,237.37z M219.54,237.37c0,4.03,1.98,6.58,5.13,6.58
				c3.06,0,5.11-2.6,5.11-6.58c0-3.96-2.05-6.58-5.11-6.58C221.52,230.79,219.54,233.35,219.54,237.37z"/>
			<path d="M250.77,241.16c-0.51,3.11-3.52,5.4-7.4,5.4c-5.09,0-8.19-3.54-8.19-9.13c0-5.52,3.14-9.26,8.05-9.26
				c4.8,0,7.76,3.49,7.76,8.87v1.13h-12.75v0.17c0,3.4,2,5.64,5.2,5.64c2.26,0,3.91-1.15,4.41-2.82H250.77z M238.26,235.85h9.66
				c-0.07-2.97-1.93-5.09-4.73-5.09C240.4,230.76,238.45,232.89,238.26,235.85z"/>
			<path d="M275.21,246.26h-14.97V221.6h3.08v21.89h11.89V246.26z"/>
			<path d="M276.05,237.37c0-5.67,3.32-9.19,8.24-9.19c4.9,0,8.22,3.52,8.22,9.19c0,5.66-3.32,9.19-8.22,9.19
				C279.37,246.56,276.05,243.03,276.05,237.37z M289.48,237.37c0-4.19-2.05-6.58-5.2-6.58s-5.21,2.39-5.21,6.58
				s2.07,6.58,5.21,6.58S289.48,241.56,289.48,237.37z"/>
			<path d="M294.63,247.73h3.06c0.58,1.62,2.34,2.7,4.56,2.7c3.08,0,4.94-1.78,4.94-4.43v-2.8h-0.07c-1.09,1.93-3.2,3.2-5.69,3.2
				c-4.53,0-7.5-3.57-7.5-9.09c0-5.57,2.97-9.13,7.57-9.13c2.51,0,4.6,1.23,5.78,3.3h0.05v-2.99h2.84v17.42
				c0,4.24-3.13,7.06-8.03,7.06C298.22,252.96,295.13,250.75,294.63,247.73z M307.2,237.3c0-3.91-2.07-6.51-5.16-6.51
				c-3.06,0-5.06,2.53-5.06,6.51s2,6.48,5.06,6.48C305.13,243.78,307.2,241.21,307.2,237.3z"/>
			<path d="M312.47,237.37c0-5.67,3.32-9.19,8.24-9.19c4.9,0,8.22,3.52,8.22,9.19c0,5.66-3.32,9.19-8.22,9.19
				C315.78,246.56,312.47,243.03,312.47,237.37z M325.9,237.37c0-4.19-2.05-6.58-5.2-6.58s-5.21,2.39-5.21,6.58s2.07,6.58,5.21,6.58
				S325.9,241.56,325.9,237.37z"/>
			<path d="M335.16,224.19v4.29h3.45v2.44h-3.45v10.56c0,1.62,0.68,2.36,2.2,2.36c0.34,0,1.03-0.05,1.23-0.09v2.5
				c-0.36,0.08-1.18,0.14-1.88,0.14c-3.26,0-4.53-1.33-4.53-4.75v-10.71h-2.65v-2.44h2.65v-4.29H335.16z"/>
			<path d="M340.85,223.46c0-1.04,0.84-1.86,1.86-1.86c1.04,0,1.86,0.82,1.86,1.86c0,1.03-0.82,1.86-1.86,1.86
				C341.69,225.32,340.85,224.48,340.85,223.46z M341.23,228.48h2.97v17.77h-2.97V228.48z"/>
			<path d="M363.75,237.37c0,5.57-3.06,9.19-7.54,9.19c-2.55,0-4.6-1.25-5.66-3.2h-0.07v8.82h-2.97v-23.7h2.82v3.01h0.07
				c1.09-2,3.16-3.32,5.74-3.32C360.68,228.18,363.75,231.8,363.75,237.37z M360.71,237.37c0-4.02-1.98-6.58-5.14-6.58
				c-3.04,0-5.09,2.63-5.09,6.58c0,3.96,2.05,6.58,5.09,6.58C358.73,243.95,360.71,241.4,360.71,237.37z"/>
			<path d="M365.18,237.37c0-5.67,3.32-9.19,8.24-9.19c4.9,0,8.22,3.52,8.22,9.19c0,5.66-3.32,9.19-8.22,9.19
				C368.5,246.56,365.18,243.03,365.18,237.37z M378.61,237.37c0-4.19-2.05-6.58-5.2-6.58s-5.21,2.39-5.21,6.58s2.07,6.58,5.21,6.58
				S378.61,241.56,378.61,237.37z"/>
		</g>
		<g>
			<path d="M112.42,280.61c0-7.74,4.36-12.73,11.11-12.73c5.37,0,9.45,3.26,10.24,8.19h-3.11c-0.79-3.23-3.61-5.35-7.13-5.35
				c-4.82,0-7.95,3.9-7.95,9.89c0,6.05,3.09,9.91,7.96,9.91c3.62,0,6.22-1.74,7.11-4.75h3.11c-1.13,4.87-4.79,7.59-10.24,7.59
				C116.73,293.35,112.42,288.42,112.42,280.61z"/>
			<path d="M136.39,268.28h2.97v24.66h-2.97V268.28z"/>
			<path d="M142.46,270.15c0-1.04,0.84-1.86,1.86-1.86c1.04,0,1.86,0.82,1.86,1.86c0,1.03-0.82,1.86-1.86,1.86
				C143.3,272.01,142.46,271.17,142.46,270.15z M142.84,275.17h2.97v17.77h-2.97V275.17z"/>
			<path d="M163.85,287.85c-0.51,3.11-3.52,5.4-7.4,5.4c-5.09,0-8.19-3.54-8.19-9.13c0-5.52,3.14-9.26,8.05-9.26
				c4.8,0,7.76,3.49,7.76,8.87v1.13h-12.75v0.17c0,3.4,2,5.64,5.2,5.64c2.26,0,3.91-1.15,4.41-2.82H163.85z M151.34,282.54h9.66
				c-0.07-2.97-1.93-5.09-4.73-5.09C153.47,277.44,151.52,279.58,151.34,282.54z"/>
			<path d="M166.37,275.17h2.8v2.84h0.07c0.99-1.91,2.89-3.14,5.64-3.14c3.9,0,6.15,2.51,6.15,6.54v11.54h-2.97v-11.01
				c0-2.87-1.35-4.44-4.08-4.44c-2.8,0-4.63,1.98-4.63,4.99v10.46h-2.97V275.17z"/>
			<path d="M188.04,270.88v4.29h3.45v2.44h-3.45v10.56c0,1.62,0.68,2.36,2.21,2.36c0.34,0,1.03-0.05,1.23-0.09v2.5
				c-0.36,0.08-1.18,0.14-1.88,0.14c-3.26,0-4.53-1.33-4.53-4.75v-10.71h-2.65v-2.44h2.65v-4.29H188.04z"/>
			<path d="M208.17,287.85c-0.51,3.11-3.52,5.4-7.4,5.4c-5.09,0-8.19-3.54-8.19-9.13c0-5.52,3.14-9.26,8.05-9.26
				c4.8,0,7.76,3.49,7.76,8.87v1.13h-12.75v0.17c0,3.4,2,5.64,5.2,5.64c2.26,0,3.91-1.15,4.41-2.82H208.17z M195.66,282.54h9.66
				c-0.07-2.97-1.93-5.09-4.73-5.09C197.79,277.44,195.84,279.58,195.66,282.54z"/>
			<path d="M211.25,277.39c0-1.09,0.85-1.95,1.95-1.95s1.95,0.85,1.95,1.95s-0.85,1.95-1.95,1.95S211.25,278.49,211.25,277.39z
				 M211.25,291.17c0-1.09,0.85-1.95,1.95-1.95s1.95,0.85,1.95,1.95s-0.85,1.95-1.95,1.95S211.25,292.26,211.25,291.17z"/>
			<path d="M227.2,287.15c0.07,2.09,1.66,3.54,3.9,3.54c2.72,0,4.19-1.62,4.19-4.63v-17.77h3.08v17.79c0,4.68-2.7,7.45-7.25,7.45
				c-4.1,0-6.97-2.63-6.97-6.38H227.2z"/>
			<path d="M256.71,287.85c-0.51,3.11-3.52,5.4-7.4,5.4c-5.09,0-8.19-3.54-8.19-9.13c0-5.52,3.14-9.26,8.05-9.26
				c4.8,0,7.76,3.49,7.76,8.87v1.13h-12.75v0.17c0,3.4,2,5.64,5.2,5.64c2.26,0,3.91-1.15,4.41-2.82H256.71z M244.2,282.54h9.66
				c-0.07-2.97-1.93-5.09-4.73-5.09C246.33,277.44,244.38,279.58,244.2,282.54z"/>
			<path d="M258.51,287.92c0-3.04,2.34-4.96,6.44-5.2l5.09-0.29v-1.49c0-2.17-1.44-3.47-3.9-3.47c-2.29,0-3.73,1.08-4.1,2.82h-2.87
				c0.21-3.08,2.84-5.43,7.04-5.43c4.17,0,6.8,2.26,6.8,5.79v12.29h-2.82v-3.06h-0.07c-1.06,2.03-3.32,3.37-5.71,3.37
				C260.88,293.25,258.51,291.12,258.51,287.92z M270.04,286.19v-1.45l-4.75,0.29c-2.39,0.15-3.76,1.21-3.76,2.89
				c0,1.69,1.42,2.8,3.55,2.8C267.89,290.72,270.04,288.76,270.04,286.19z"/>
			<path d="M276.1,275.17h2.8v2.84h0.07c0.99-1.91,2.89-3.14,5.64-3.14c3.9,0,6.15,2.51,6.15,6.54v11.54h-2.97v-11.01
				c0-2.87-1.35-4.44-4.08-4.44c-2.8,0-4.63,1.98-4.63,4.99v10.46h-2.97V275.17z"/>
			<path d="M309.59,268.28c4.63,0,7.9,3.25,7.9,7.91c0,4.68-3.3,7.95-7.93,7.95h-5.69v8.8h-3.08v-24.66H309.59z M303.87,281.41h4.92
				c3.52,0,5.54-1.93,5.54-5.21c0-3.26-2-5.18-5.54-5.18h-4.92V281.41z"/>
			<path d="M319.63,270.15c0-1.04,0.84-1.86,1.86-1.86c1.04,0,1.86,0.82,1.86,1.86c0,1.03-0.82,1.86-1.86,1.86
				C320.47,272.01,319.63,271.17,319.63,270.15z M320.01,275.17h2.97v17.77h-2.97V275.17z"/>
			<path d="M341.02,287.85c-0.51,3.11-3.52,5.4-7.4,5.4c-5.09,0-8.19-3.54-8.19-9.13c0-5.52,3.14-9.26,8.05-9.26
				c4.8,0,7.76,3.49,7.76,8.87v1.13h-12.75v0.17c0,3.4,2,5.64,5.2,5.64c2.26,0,3.91-1.15,4.41-2.82H341.02z M328.51,282.54h9.66
				c-0.07-2.97-1.93-5.09-4.73-5.09C330.64,277.44,328.7,279.58,328.51,282.54z"/>
			<path d="M343.54,275.17h2.8v2.91h0.07c0.58-1.96,2.22-3.21,4.31-3.21c0.51,0,0.96,0.09,1.2,0.12v2.89
				c-0.24-0.09-0.87-0.17-1.59-0.17c-2.31,0-3.81,1.66-3.81,4.17v11.07h-2.97V275.17z"/>
			<path d="M353.62,275.17h2.8v2.91h0.07c0.58-1.96,2.22-3.21,4.31-3.21c0.51,0,0.96,0.09,1.2,0.12v2.89
				c-0.24-0.09-0.87-0.17-1.59-0.17c-2.31,0-3.81,1.66-3.81,4.17v11.07h-2.97V275.17z"/>
			<path d="M377.57,287.85c-0.51,3.11-3.52,5.4-7.4,5.4c-5.09,0-8.19-3.54-8.19-9.13c0-5.52,3.14-9.26,8.05-9.26
				c4.8,0,7.76,3.49,7.76,8.87v1.13h-12.75v0.17c0,3.4,2,5.64,5.2,5.64c2.26,0,3.91-1.15,4.41-2.82H377.57z M365.06,282.54h9.66
				c-0.07-2.97-1.93-5.09-4.73-5.09C367.2,277.44,365.25,279.58,365.06,282.54z"/>
		</g>
		<g>
			<path d="M126.93,332.57h-9.81l-2.48,7.06h-3.23l9.09-24.66h3.04l9.09,24.66h-3.23L126.93,332.57z M118.03,329.96h8l-3.95-11.25
				h-0.1L118.03,329.96z"/>
			<path d="M134.31,321.86h2.8v2.84h0.07c0.99-1.91,2.89-3.14,5.64-3.14c3.9,0,6.15,2.51,6.15,6.55v11.54H146v-11.01
				c0-2.87-1.35-4.44-4.08-4.44c-2.8,0-4.63,1.98-4.63,4.99v10.46h-2.97V321.86z M139.52,316.76c-0.75,0-1.26,0.6-1.26,2.2h-2
				c0-2.67,1.28-4.25,3.4-4.25c2.41,0,2.79,2.34,4.02,2.34c0.82,0,1.35-0.65,1.35-2.2h2c0,2.65-1.28,4.25-3.42,4.25
				C141.21,319.11,140.7,316.76,139.52,316.76z"/>
			<path d="M151.18,330.74c0-5.67,3.32-9.19,8.24-9.19c4.9,0,8.22,3.52,8.22,9.19c0,5.66-3.32,9.19-8.22,9.19
				C154.5,339.94,151.18,336.4,151.18,330.74z M164.62,330.74c0-4.19-2.05-6.58-5.2-6.58s-5.21,2.39-5.21,6.58s2.07,6.58,5.21,6.58
				S164.62,334.93,164.62,330.74z"/>
			<path d="M170.5,324.08c0-1.09,0.85-1.95,1.95-1.95s1.95,0.85,1.95,1.95s-0.85,1.95-1.95,1.95S170.5,325.17,170.5,324.08z
				 M170.5,337.85c0-1.09,0.85-1.95,1.95-1.95s1.95,0.85,1.95,1.95s-0.85,1.95-1.95,1.95S170.5,338.95,170.5,337.85z"/>
			<path d="M192.83,314.56c4.56,0,7.71,3.11,7.71,6.85c0,2.72-1.25,4.75-5.78,9.4l-5.86,6.02v0.07h12.05v2.73h-16.27v-2.12
				l8.68-9.06c3.33-3.47,4.1-4.8,4.1-6.85c0-2.43-1.81-4.36-4.63-4.36c-3.04,0-5.33,2.08-5.33,4.85h-2.97
				C184.53,317.77,188.08,314.56,192.83,314.56z"/>
			<path d="M203.33,327.29c0-7.72,3.37-12.73,9.09-12.73c5.73,0,9.06,4.97,9.06,12.71c0,7.79-3.32,12.77-9.06,12.77
				C206.67,340.04,203.33,335.08,203.33,327.29z M218.39,327.29c0-6.07-2.15-10.03-5.96-10.03c-3.81,0-6,4-6,10.02
				c0,6.15,2.14,10.08,6,10.08C216.27,337.36,218.39,333.44,218.39,327.29z"/>
			<path d="M232.14,314.56c4.56,0,7.71,3.11,7.71,6.85c0,2.72-1.25,4.75-5.78,9.4l-5.86,6.02v0.07h12.05v2.73h-16.27v-2.12
				l8.68-9.06c3.33-3.47,4.1-4.8,4.1-6.85c0-2.43-1.81-4.36-4.63-4.36c-3.04,0-5.33,2.08-5.33,4.85h-2.97
				C223.83,317.77,227.39,314.56,232.14,314.56z"/>
			<path d="M249.39,318.23h-0.07l-6.53,4.55v-3.09l6.56-4.72h3.01v24.66h-2.97V318.23z"/>
		</g>
		<path d="M428.69,368.34l-25.68-25.68c-1.36-1.36-3.57-1.36-4.93,0c-1.36,1.36-1.36,3.57,0,4.93l19.43,19.43H72.35
			c-1.45,0-2.63,1.18-2.63,2.63v2.33c0,1.45,1.18,2.63,2.63,2.63h345.14l-19.43,19.43c-1.36,1.36-1.36,3.57,0,4.93
			c0.68,0.68,1.57,1.02,2.47,1.02s1.79-0.34,2.47-1.02l25.7-25.7c0.65-0.65,1.02-1.54,1.02-2.47
			C429.72,369.89,429.35,369,428.69,368.34z"/>
	</g>
</g>
</svg>
