<?xml version="1.0" encoding="utf-8"?>
<!-- Generator: Adobe Illustrator 25.0.0, SVG Export Plug-In . SVG Version: 6.00 Build 0)  -->
<svg version="1.1" id="Layer_1" xmlns="http://www.w3.org/2000/svg" xmlns:xlink="http://www.w3.org/1999/xlink" x="0px" y="0px"
	 viewBox="0 0 200 200" style="enable-background:new 0 0 200 200;" xml:space="preserve">
<style type="text/css">
	.st0{fill:#F0C0FB;}
	.st1{fill:#B2E2FB;}
	.st2{fill:#F4F4F4;}
	.st3{fill:#F9DEC9;}
	.st4{fill:#285F4A;}
	.st5{fill:#ED664D;}
	.st6{fill:#1147CD;}
	.st7{fill:none;}
	.st8{fill:#F4F4F4;stroke:#000000;stroke-width:1.1667;stroke-miterlimit:10;}
	.st9{fill:#FFFFFF;stroke:#000000;stroke-width:0.4375;stroke-miterlimit:10;}
	.st10{fill:#FFFFFF;stroke:#000000;stroke-width:0.7999;stroke-miterlimit:10;}
	.st11{fill:none;stroke:#000000;stroke-width:1.1667;stroke-linecap:round;stroke-linejoin:round;stroke-miterlimit:10;}
	.st12{fill:#F4F4F4;stroke:#000000;stroke-width:1.2133;stroke-miterlimit:10;}
	.st13{fill:#A67C52;}
	.st14{fill:#B3B3B3;}
	.st15{fill:#FBB03B;}
	.st16{fill:#333333;}
	.st17{fill:#FFFFFF;}
	.st18{fill:none;stroke:#000000;stroke-width:1.1;stroke-miterlimit:10;}
</style>
<g>
	<path class="st0" d="M100.02,74.32c-14.18,0-25.66,11.49-25.66,25.66c0,14.18,11.49,25.66,25.66,25.66
		c14.18,0,25.66-11.49,25.66-25.66C125.68,85.8,114.18,74.32,100.02,74.32L100.02,74.32z M100.02,116.63
		c-9.2,0-16.65-7.45-16.65-16.65c0-9.2,7.45-16.65,16.65-16.65c9.2,0,16.65,7.45,16.65,16.65
		C116.68,109.18,109.22,116.63,100.02,116.63L100.02,116.63z M100.02,116.63"/>
	<path class="st0" d="M120.62,50.31c-9.2-0.43-31.99-0.41-41.19,0c-8.09,0.38-15.23,2.33-20.98,8.09
		c-9.62,9.62-8.39,22.57-8.39,41.58c0,19.45-1.08,32.11,8.39,41.58c9.65,9.65,22.8,8.39,41.58,8.39c19.27,0,25.92,0.01,32.73-2.63
		c9.26-3.59,16.25-11.87,16.94-26.75c0.43-9.2,0.41-31.99,0-41.19C148.86,61.83,139.44,51.18,120.62,50.31L120.62,50.31z
		 M135.18,135.2c-6.3,6.3-15.05,5.74-35.28,5.74c-20.83,0-29.19,0.31-35.28-5.8c-7.02-6.99-5.75-18.21-5.75-35.22
		c0-23.02-2.36-39.6,20.74-40.78c5.31-0.19,6.87-0.25,20.23-0.25l0.19,0.13c22.2,0,39.62-2.33,40.67,20.77
		c0.24,5.27,0.29,6.85,0.29,20.2C140.98,120.57,141.37,128.97,135.18,135.2L135.18,135.2z M135.18,135.2"/>
	<path class="st0" d="M132.69,73.31c0,3.31-2.68,6-6,6s-6-2.68-6-6c0-3.31,2.68-6,6-6S132.69,70,132.69,73.31L132.69,73.31z
		 M132.69,73.31"/>
</g>
</svg>
