<?xml version="1.0" encoding="utf-8"?>
<!-- Generator: Adobe Illustrator 25.0.0, SVG Export Plug-In . SVG Version: 6.00 Build 0)  -->
<svg version="1.1" id="Layer_1" xmlns="http://www.w3.org/2000/svg" xmlns:xlink="http://www.w3.org/1999/xlink" x="0px" y="0px"
	 viewBox="0 0 210 210" style="enable-background:new 0 0 210 210;" xml:space="preserve">
<style type="text/css">
	.st0{fill:#F0C0FB;}
</style>
<g>
	<path class="st0" d="M105.03,53.64c-28.36,0-51.31,22.98-51.31,51.32c0,28.36,22.98,51.31,51.31,51.31
		c28.36,0,51.32-22.98,51.32-51.31C156.35,76.6,133.37,53.64,105.03,53.64L105.03,53.64z M105.03,138.27
		c-18.41,0-33.31-14.91-33.31-33.31s14.91-33.31,33.31-33.31s33.31,14.91,33.31,33.31C138.35,123.36,123.44,138.27,105.03,138.27
		L105.03,138.27z"/>
	<path class="st0" d="M146.23,5.63c-18.4-0.86-63.97-0.82-82.39,0C47.66,6.39,33.39,10.3,21.88,21.8
		C2.65,41.04,5.1,66.95,5.1,104.96c0,38.9-2.17,64.21,16.77,83.16c19.31,19.3,45.6,16.77,83.16,16.77c38.53,0,51.83,0.02,65.46-5.25
		c18.53-7.19,32.51-23.75,33.88-53.49c0.87-18.41,0.82-63.97,0-82.39C202.72,28.65,183.88,7.36,146.23,5.63L146.23,5.63z
		 M175.36,175.39c-12.61,12.61-30.1,11.48-70.57,11.48c-41.67,0-58.37,0.62-70.57-11.61c-14.04-13.97-11.5-36.42-11.5-70.44
		c0-46.04-4.72-79.2,41.48-81.57c10.62-0.37,13.74-0.5,40.47-0.5l0.38,0.25c44.41,0,79.25-4.65,81.34,41.55
		c0.47,10.54,0.58,13.71,0.58,40.39C186.97,146.13,187.75,162.94,175.36,175.39L175.36,175.39z"/>
	<path class="st0" d="M170.38,51.62c0,6.62-5.37,11.99-11.99,11.99s-11.99-5.37-11.99-11.99s5.37-11.99,11.99-11.99
		S170.38,45,170.38,51.62L170.38,51.62z"/>
</g>
</svg>
