<?xml version="1.0" encoding="utf-8"?>
<!-- Generator: Adobe Illustrator 25.0.0, SVG Export Plug-In . SVG Version: 6.00 Build 0)  -->
<svg version="1.1" id="Layer_1" xmlns="http://www.w3.org/2000/svg" xmlns:xlink="http://www.w3.org/1999/xlink" x="0px" y="0px"
	 viewBox="0 0 700 500" style="enable-background:new 0 0 700 500;" xml:space="preserve">
<style type="text/css">
	.st0{fill:#F0C0FB;}
	.st1{fill:#B2E2FB;}
	.st2{fill:#F4F4F4;}
	.st3{fill:#F9DEC9;}
	.st4{fill:#285F4A;}
	.st5{fill:#ED664D;}
	.st6{fill:#1147CD;}
	.st7{fill:none;}
	.st8{fill:#F4F4F4;stroke:#000000;stroke-width:1.1667;stroke-miterlimit:10;}
	.st9{fill:#FFFFFF;stroke:#000000;stroke-width:0.4375;stroke-miterlimit:10;}
	.st10{fill:#FFFFFF;stroke:#000000;stroke-width:0.7999;stroke-miterlimit:10;}
	.st11{fill:none;stroke:#000000;stroke-width:1.1667;stroke-linecap:round;stroke-linejoin:round;stroke-miterlimit:10;}
	.st12{fill:#F4F4F4;stroke:#000000;stroke-width:1.2133;stroke-miterlimit:10;}
	.st13{fill:#A67C52;}
	.st14{fill:#B3B3B3;}
	.st15{fill:#FBB03B;}
	.st16{fill:#333333;}
	.st17{fill:#FFFFFF;}
	.st18{fill:none;stroke:#000000;stroke-width:1.1;stroke-miterlimit:10;}
</style>
<g>
	<rect x="83.97" y="83.97" class="st1" width="565.38" height="365.38"/>
	<g>
		<path d="M648.72,84.62v364.1H84.62V84.62H648.72 M650,83.33H83.33V450H650V83.33L650,83.33z"/>
	</g>
</g>
<g>
	<rect x="67.31" y="67.31" class="st0" width="565.38" height="365.38"/>
	<path d="M632.05,67.95v364.1H67.95V67.95H632.05 M633.33,66.67H66.67v366.67h566.67V66.67L633.33,66.67z"/>
</g>
<g>
	<rect x="50.64" y="50.64" class="st2" width="565.38" height="365.38"/>
	<path d="M615.38,51.28v364.1H51.28V51.28H615.38 M616.67,50H50v366.67h566.67V50L616.67,50z"/>
</g>
<g>
	<path d="M354.31,284.08h11.5v1.28h-10.04v6.72h9.39v1.28h-9.39v7.39h10.16v1.28h-11.63V284.08z"/>
	<path d="M379.82,287.7c-0.03-1.1-1.67-2.52-4.21-2.52c-2.67,0-5.52,1.05-5.52,3.23c0,3.39,11.75,3.05,11.75,8.83
		c0,3.88-3.46,5.18-6.52,5.18c-3.98,0-6.67-2.57-6.78-5.13l1.9,0.54c0.46,2.33,3.11,3.23,4.65,3.23c3.39,0,5.54-1.44,5.54-3.34
		c0-5.06-11.91-3.82-11.91-9.27c0-3.7,3.93-4.77,6.65-4.77c4.18,0,6.62,2.72,6.31,4.57L379.82,287.7z"/>
	<path d="M391.99,284.08h1.44v8.16h11.37v-8.16h1.46v17.97h-1.46v-8.52h-11.37v8.52h-1.44V284.08z"/>
	<path d="M416.27,283.69c4.95,0,8.34,3.93,8.34,9.37c0,5.44-3.39,9.39-8.34,9.39s-8.34-4.03-8.34-9.39
		C407.93,287.7,411.31,283.69,416.27,283.69z M416.27,301.09c4.06,0,6.88-3.75,6.88-8.03s-2.82-7.98-6.88-7.98
		c-4.08,0-6.9,3.7-6.9,7.98S412.19,301.09,416.27,301.09z"/>
	<path d="M439.29,297.55c0.28,1.03,1.36,4.49,1.36,4.49h-1.41c-0.62-2.26-1.1-3.93-1.21-4.29c-0.9-2.9-2.93-3.34-4-3.39
		c-0.23,0-0.44,0-0.72,0c-0.67,0-1.92-0.03-3.49-0.03v7.7h-1.46v-17.97h5.03c3.75,0,6.83,0.82,6.83,5.03c0,2.64-1.57,3.62-3.52,4.31
		c-0.46,0.15-1.08,0.1-1.54,0.1v0.31c0.46,0,1.1-0.1,1.54,0.08C437.67,294.34,438.68,295.37,439.29,297.55z M429.82,292.85h3.64
		c2.77,0,5.31,0,5.31-3.7c0-3.54-2.36-3.36-5.31-3.36h-3.64V292.85z"/>
	<path d="M447.4,284.03h2.26l7.06,17.99H455l-2.67-6.52h-7.55l-2.44,6.52h-1.8L447.4,284.03z M448.76,286.44
		c-0.15-0.41-0.1-0.95-0.1-1.39h-0.31c0,0.44,0.05,0.98-0.1,1.39l-3,7.57h6.54L448.76,286.44z"/>
	<path d="M466.96,302.04h-1.03v-18.35h5.34c4.8,0,8.42,3.64,8.42,8.98c0,5.34-3.75,9.42-8.55,9.39L466.96,302.04z M471.3,300.68
		c3.95,0,6.93-3.82,6.93-8.03c0-4.18-2.85-7.57-6.8-7.57h-4.06v15.6H471.3z"/>
	<path d="M483.77,284.08h11.5v1.28h-10.04v6.72h9.39v1.28h-9.39v7.39h10.16v1.28h-11.63V284.08z"/>
	<path d="M507.16,302.04h-1.46v-17.97h1.57l7.54,15.58c0.23,0.49,0.26,1.18,0.26,1.72h0.31c0-0.54,0-1.23,0.26-1.72l7.55-15.58h1.51
		v17.97h-1.44v-13.37c0-0.54,0.26-1.21,0.38-1.75l-0.31-0.08c-0.13,0.51-0.26,1.23-0.51,1.72l-6.9,13.47h-1.41l-6.9-13.47
		c-0.26-0.49-0.38-1.18-0.51-1.72l-0.31,0.08c0.13,0.54,0.39,1.21,0.39,1.75V302.04z"/>
	<path d="M529.57,284.08H531v17.97h-1.44V284.08z"/>
	<path d="M546.94,297.55c0.28,1.03,1.36,4.49,1.36,4.49h-1.41c-0.62-2.26-1.1-3.93-1.21-4.29c-0.9-2.9-2.93-3.34-4-3.39
		c-0.23,0-0.44,0-0.72,0c-0.67,0-1.92-0.03-3.49-0.03v7.7h-1.46v-17.97h5.03c3.75,0,6.83,0.82,6.83,5.03c0,2.64-1.57,3.62-3.52,4.31
		c-0.46,0.15-1.08,0.1-1.54,0.1v0.31c0.46,0,1.1-0.1,1.54,0.08C545.32,294.34,546.33,295.37,546.94,297.55z M537.47,292.85h3.64
		c2.77,0,5.31,0,5.31-3.7c0-3.54-2.36-3.36-5.31-3.36h-3.64V292.85z"/>
	<path d="M555.05,284.03h2.26l7.06,17.99h-1.72l-2.67-6.52h-7.55l-2.44,6.52h-1.8L555.05,284.03z M556.41,286.44
		c-0.15-0.41-0.1-0.95-0.1-1.39H556c0,0.44,0.05,0.98-0.1,1.39l-3,7.57h6.54L556.41,286.44z"/>
	<path d="M577.95,297.55c0.28,1.03,1.36,4.49,1.36,4.49h-1.41c-0.62-2.26-1.1-3.93-1.21-4.29c-0.9-2.9-2.93-3.34-4-3.39
		c-0.23,0-0.44,0-0.72,0c-0.67,0-1.92-0.03-3.49-0.03v7.7h-1.46v-17.97h5.03c3.75,0,6.83,0.82,6.83,5.03c0,2.64-1.57,3.62-3.52,4.31
		c-0.46,0.15-1.08,0.1-1.54,0.1v0.31c0.46,0,1.1-0.1,1.54,0.08C576.33,294.34,577.33,295.37,577.95,297.55z M568.48,292.85h3.64
		c2.77,0,5.31,0,5.31-3.7c0-3.54-2.36-3.36-5.31-3.36h-3.64V292.85z"/>
	<path d="M426.53,309.74h1.44v8.16h11.37v-8.16h1.46v17.97h-1.46v-8.52h-11.37v8.52h-1.44V309.74z"/>
	<path d="M448.87,309.69h2.26l7.06,17.99h-1.72l-2.67-6.52h-7.55l-2.44,6.52h-1.8L448.87,309.69z M450.23,312.11
		c-0.15-0.41-0.1-0.95-0.1-1.39h-0.31c0,0.44,0.05,0.98-0.1,1.39l-3,7.57h6.54L450.23,312.11z"/>
	<path d="M458.8,318.7c0-5.34,3.59-9.34,8.5-9.34c3.67,0,7.11,2.05,7.73,5.65h-1.59c-0.62-2.54-2.82-4.34-6.16-4.34
		c-4.24,0-7.03,4.06-7.03,8.03c0,4,2.85,8.08,7.13,8.08c3.31,0,5.54-1.8,6.16-4.34h1.59c-0.59,3.39-4,5.65-7.78,5.65
		C462.42,328.09,458.8,324.07,458.8,318.7z"/>
	<path d="M478.49,309.74h1.44v17.97h-1.44V309.74z"/>
	<path d="M487.98,309.69h2.26l7.06,17.99h-1.72l-2.67-6.52h-7.55l-2.44,6.52h-1.8L487.98,309.69z M489.34,312.11
		c-0.15-0.41-0.1-0.95-0.1-1.39h-0.31c0,0.44,0.05,0.98-0.1,1.39l-3,7.57h6.54L489.34,312.11z"/>
	<path d="M510.83,309.69h2.26l7.06,17.99h-1.72l-2.67-6.52h-7.55l-2.44,6.52h-1.8L510.83,309.69z M512.19,312.11
		c-0.15-0.41-0.1-0.95-0.1-1.39h-0.31c0,0.44,0.05,0.98-0.1,1.39l-3,7.57h6.54L512.19,312.11z"/>
	<path d="M525.87,327.71v-16.68h-5.49v-1.28h12.45v1.28h-5.49v16.68H525.87z"/>
	<path d="M547.15,323.22c0.28,1.03,1.36,4.49,1.36,4.49h-1.41c-0.62-2.26-1.1-3.93-1.21-4.29c-0.9-2.9-2.93-3.34-4-3.39
		c-0.23,0-0.44,0-0.72,0c-0.67,0-1.92-0.03-3.49-0.03v7.7h-1.46v-17.97h5.03c3.75,0,6.83,0.82,6.83,5.03c0,2.64-1.57,3.62-3.52,4.31
		c-0.46,0.15-1.08,0.1-1.54,0.1v0.31c0.46,0,1.1-0.1,1.54,0.08C545.53,320.01,546.53,321.04,547.15,323.22z M537.68,318.52h3.64
		c2.77,0,5.31,0,5.31-3.7c0-3.54-2.36-3.36-5.31-3.36h-3.64V318.52z"/>
	<path d="M555.26,309.69h2.26l7.06,17.99h-1.72l-2.67-6.52h-7.55l-2.44,6.52h-1.8L555.26,309.69z M556.62,312.11
		c-0.15-0.41-0.1-0.95-0.1-1.39h-0.31c0,0.44,0.05,0.98-0.1,1.39l-3,7.57h6.54L556.62,312.11z"/>
	<path d="M577.23,313.36c-0.03-1.1-1.67-2.52-4.21-2.52c-2.67,0-5.52,1.05-5.52,3.23c0,3.39,11.75,3.05,11.75,8.83
		c0,3.88-3.46,5.18-6.52,5.18c-3.98,0-6.67-2.57-6.78-5.13l1.9,0.54c0.46,2.33,3.11,3.23,4.64,3.23c3.39,0,5.54-1.44,5.54-3.34
		c0-5.06-11.91-3.82-11.91-9.27c0-3.7,3.93-4.77,6.65-4.77c4.18,0,6.62,2.72,6.31,4.57L577.23,313.36z"/>
	<path d="M394.17,347.14c0.03,4.29-3,6.62-6.9,6.62s-6.9-2.33-6.93-6.62c0-5.34,0.03-11.73,0.03-11.73h1.44v12.04
		c0.03,2.62,2.34,4.95,5.47,4.95c3.16,0,5.49-2.33,5.47-4.95c0-4.08,0-12.04,0-12.04h1.44V347.14z"/>
	<path d="M399.99,353.38h-1.44v-17.97h1.44l9.78,13.88c0.64,0.92,1.16,2.28,1.49,3.36l0.31-0.1c-0.33-1.05-0.72-2.46-0.72-3.59
		v-13.55h1.44v17.97h-1.44l-9.78-13.86c-0.64-0.92-1.16-2.28-1.49-3.36l-0.31,0.1c0.33,1.05,0.72,2.46,0.72,3.59V353.38z"/>
	<path d="M420.37,335.36h2.26l7.06,17.99h-1.72l-2.67-6.52h-7.55l-2.44,6.52h-1.8L420.37,335.36z M421.73,337.77
		c-0.15-0.41-0.1-0.95-0.1-1.39h-0.31c0,0.44,0.05,0.98-0.1,1.39l-3,7.57h6.54L421.73,337.77z"/>
	<path d="M452.07,347.14c0.03,4.29-3,6.62-6.9,6.62s-6.9-2.33-6.93-6.62c0-5.34,0.03-11.73,0.03-11.73h1.44v12.04
		c0.03,2.62,2.34,4.95,5.47,4.95c3.16,0,5.49-2.33,5.47-4.95c0-4.08,0-12.04,0-12.04h1.44V347.14z"/>
	<path d="M467.4,352.09v1.28h-10.93v-17.97h1.46v16.68H467.4z"/>
	<path d="M472.99,353.38V336.7h-5.49v-1.28h12.45v1.28h-5.49v16.68H472.99z"/>
	<path d="M483.34,335.41h1.44v17.97h-1.44V335.41z"/>
	<path d="M491.24,353.38h-1.46v-17.97h1.57l7.54,15.58c0.23,0.49,0.26,1.18,0.26,1.72h0.31c0-0.54,0-1.23,0.26-1.72l7.55-15.58h1.51
		v17.97h-1.44v-13.37c0-0.54,0.26-1.21,0.38-1.75l-0.31-0.08c-0.13,0.51-0.26,1.23-0.51,1.72l-6.9,13.47h-1.41l-6.9-13.47
		c-0.26-0.49-0.38-1.18-0.51-1.72l-0.31,0.08c0.13,0.54,0.39,1.21,0.39,1.75V353.38z"/>
	<path d="M516.86,335.36h2.26l7.06,17.99h-1.72l-2.67-6.52h-7.55l-2.44,6.52h-1.8L516.86,335.36z M518.22,337.77
		c-0.15-0.41-0.1-0.95-0.1-1.39h-0.31c0,0.44,0.05,0.98-0.1,1.39l-3,7.57h6.54L518.22,337.77z"/>
	<path d="M541.22,349.79c0.18,0.44,0.13,1.03,0.13,1.49h0.31c0-0.46-0.03-1.05,0.13-1.49l5.75-14.37h1.57l-6.62,17.97h-1.95
		l-6.62-17.97h1.54L541.22,349.79z"/>
	<path d="M552.64,335.41h11.5v1.28H554.1v6.72h9.39v1.28h-9.39v7.39h10.16v1.28h-11.63V335.41z"/>
	<path d="M577.36,337.39c0.31-0.41,0.92-0.72,1.39-0.95l-0.13-0.28c-0.49,0.23-1.08,0.54-1.62,0.54h-10.37v-1.28h12.73v1.28h-0.03
		l-10.99,14.68c-0.31,0.44-0.9,0.74-1.39,0.98l0.15,0.28c0.46-0.23,1.08-0.54,1.59-0.54h10.65v1.28h-12.99v-1.33L577.36,337.39z"/>
	<path d="M398.33,361.08h11.5v1.28h-10.04v6.72h9.39v1.28h-9.39v7.39h10.16v1.28h-11.63V361.08z"/>
	<path d="M415.27,379.05h-1.44v-17.97h1.44l9.78,13.88c0.64,0.92,1.16,2.28,1.49,3.36l0.31-0.1c-0.33-1.05-0.72-2.46-0.72-3.59
		v-13.55h1.44v17.97h-1.44l-9.78-13.86c-0.64-0.92-1.16-2.28-1.49-3.36l-0.31,0.1c0.33,1.05,0.72,2.46,0.72,3.59V379.05z"/>
	<path d="M439.01,361.08h1.44v17.97h-1.44V361.08z"/>
	<path d="M446.89,379.05h-1.44v-17.97h1.44l9.78,13.88c0.64,0.92,1.16,2.28,1.49,3.36l0.31-0.1c-0.33-1.05-0.72-2.46-0.72-3.59
		v-13.55h1.44v17.97h-1.44l-9.78-13.86c-0.64-0.92-1.16-2.28-1.49-3.36l-0.31,0.1c0.33,1.05,0.72,2.46,0.72,3.59V379.05z"/>
	<path d="M474.22,364.7c-0.03-1.1-1.67-2.52-4.21-2.52c-2.67,0-5.52,1.05-5.52,3.23c0,3.39,11.75,3.05,11.75,8.83
		c0,3.88-3.46,5.18-6.52,5.18c-3.98,0-6.67-2.57-6.78-5.13l1.9,0.54c0.46,2.33,3.11,3.23,4.64,3.23c3.39,0,5.54-1.44,5.54-3.34
		c0-5.06-11.91-3.82-11.91-9.27c0-3.7,3.93-4.77,6.65-4.77c4.18,0,6.62,2.72,6.31,4.57L474.22,364.7z"/>
	<path d="M483.85,379.05v-16.68h-5.49v-1.28h12.45v1.28h-5.49v16.68H483.85z"/>
	<path d="M497.71,361.03h2.26l7.06,17.99h-1.72l-2.67-6.52h-7.55l-2.44,6.52h-1.8L497.71,361.03z M499.07,363.44
		c-0.15-0.41-0.1-0.95-0.1-1.39h-0.31c0,0.44,0.05,0.98-0.1,1.39l-3,7.57h6.54L499.07,363.44z"/>
	<path d="M522.74,376.84c0-0.56,0.23-1.31,0.33-1.87l-0.33-0.05c-0.08,0.56-0.05,1.36-0.31,1.87c-0.67,1.1-2.31,2.67-5.26,2.67
		c-4.85,0-8.6-4.06-8.6-9.39c0-5.34,3.52-9.37,8.26-9.37c3.46,0,6.26,1.85,7.37,5.08c0,0-1.31,0.77-1.28,0.74
		c-0.85-2.75-3.11-4.44-6.01-4.44c-4.11,0-6.9,3.9-6.9,7.98c0,4.08,3.03,8.01,7.03,8.01c4.31,0,5.31-3.8,5.31-5.85h-4.83v-1.36h6.39
		v8.19h-1.18V376.84z"/>
	<path d="M538.75,374.55c0.28,1.03,1.36,4.49,1.36,4.49h-1.41c-0.62-2.26-1.1-3.93-1.21-4.29c-0.9-2.9-2.93-3.34-4-3.39
		c-0.23,0-0.44,0-0.72,0c-0.67,0-1.92-0.03-3.49-0.03v7.7h-1.46v-17.97h5.03c3.75,0,6.83,0.82,6.83,5.03c0,2.64-1.57,3.62-3.52,4.31
		c-0.46,0.15-1.08,0.1-1.54,0.1v0.31c0.46,0,1.1-0.1,1.54,0.08C537.14,371.35,538.14,372.37,538.75,374.55z M529.28,369.86h3.64
		c2.77,0,5.31,0,5.31-3.7c0-3.54-2.36-3.36-5.31-3.36h-3.64V369.86z"/>
	<path d="M546.87,361.03h2.26l7.06,17.99h-1.72l-2.67-6.52h-7.55l-2.44,6.52h-1.8L546.87,361.03z M548.23,363.44
		c-0.15-0.41-0.1-0.95-0.1-1.39h-0.31c0,0.44,0.05,0.98-0.1,1.39l-3,7.57h6.54L548.23,363.44z"/>
	<path d="M560.45,379.05h-1.46v-17.97h1.57l7.54,15.58c0.23,0.49,0.26,1.18,0.26,1.72h0.31c0-0.54,0-1.23,0.26-1.72l7.55-15.58h1.51
		v17.97h-1.44v-13.37c0-0.54,0.26-1.21,0.38-1.75l-0.31-0.08c-0.13,0.51-0.26,1.23-0.51,1.72l-6.9,13.47h-1.41l-6.9-13.47
		c-0.26-0.49-0.38-1.18-0.51-1.72l-0.31,0.08c0.13,0.54,0.39,1.21,0.39,1.75V379.05z"/>
</g>
<g>
	<g>
		<path d="M124.26,128.01c0.63,2.8,3.71,12.25,3.71,12.25h-10.78c-1.54-6.16-2.66-10.71-2.94-11.69c-2.17-7.91-6.86-6.58-9.38-6.72
			h-6.86v18.41H87.86v-49h18.48c11.2,0,20.44,2.24,20.44,13.72c0,6.09-3.01,8.89-7.21,10.78c-2.59,1.19-6.3,0.77-9.17,0.77v1.75
			c2.87,0,6.79-0.77,9.17,0.84C122.44,120.94,123.35,124.02,124.26,128.01z M98.01,113.45h7.42c5.67,0,10.85-3.08,10.85-8.33
			c0-5.32-4.76-7.42-10.85-7.42h-7.42V113.45z"/>
		<path d="M135.04,91.25h34.86v9.8h-24.71v9.38h22.96v9.8h-22.96v10.22h25.06v9.8h-35.21V91.25z"/>
		<path d="M186.35,140.26v-39.2h-12.6v-9.8h35.77v9.8h-12.67v39.2H186.35z"/>
		<path d="M252.92,128.01c0.63,2.8,3.71,12.25,3.71,12.25h-10.78c-1.54-6.16-2.66-10.71-2.94-11.69c-2.17-7.91-6.86-6.58-9.38-6.72
			h-6.86v18.41h-10.15v-49H235c11.2,0,20.44,2.24,20.44,13.72c0,6.09-3.01,8.89-7.21,10.78c-2.59,1.19-6.3,0.77-9.17,0.77v1.75
			c2.87,0,6.79-0.77,9.17,0.84C251.1,120.94,252.01,124.02,252.92,128.01z M226.67,113.45h7.42c5.67,0,10.85-3.08,10.85-8.33
			c0-5.32-4.76-7.42-10.85-7.42h-7.42V113.45z"/>
		<path d="M286.17,90.2c13.51,0,24.5,12.04,24.5,25.55c0,13.51-10.99,25.62-24.5,25.62s-24.5-11.13-24.5-25.62
			C261.67,101.26,272.66,90.2,286.17,90.2z M286.17,131.23c9.73,0,14-8.26,14-15.47c0-7.21-4.27-15.4-14-15.4s-14,8.19-14,15.4
			C272.17,122.97,276.44,131.23,286.17,131.23z"/>
		<path d="M350.99,104.13c-4.06-3.71-9.1-5.39-15.82-5.39c-3.99,0-7.56,1.61-7.56,4.27c0,6.51,32.41,5.6,32.41,23.31
			c0,8.96-9.73,14.98-24.15,14.98c-8.96,0-14.56-2.59-21-9.73l7.42-5.95c3.64,3.85,7.14,5.95,15.19,5.95c5.88,0,9.31-2.1,9.31-5.11
			c0-8.26-30.66-7.56-30.66-22.89c0-7.7,9.17-13.37,21.7-13.37c7.63,0,14.07,2.45,20.51,7.84L350.99,104.13z"/>
		<path d="M376.19,119.75v20.51h-10.5v-49h19.6c10.36,0,18.97,2.24,18.97,14c0,11.76-8.47,14.56-19.67,14.56
			C382.7,119.82,379.76,119.82,376.19,119.75z M383.33,111.13c5.6,0,10.78-0.35,10.78-5.88c0-5.25-4.76-5.25-10.78-5.25h-7.14v11.13
			H383.33z"/>
		<path d="M408.74,91.25h34.86v9.8h-24.71v9.38h22.96v9.8h-22.96v10.22h25.06v9.8h-35.21V91.25z"/>
		<path d="M446.75,115.69c0.07-14.56,10.92-25.48,25.69-25.48c16.17,0,22.61,8.75,23.38,17.99h-10.43
			c-1.05-3.36-2.8-7.84-12.74-7.84c-8.47,0-15.4,4.9-15.4,15.4c0,10.43,6.86,15.4,15.26,15.4c10.57,0,12.53-4.48,13.58-7.91h10.43
			c-1.26,11.34-8.19,18.06-23.73,18.06C457.81,141.31,446.82,130.32,446.75,115.69z"/>
		<path d="M512.2,140.26v-39.2h-12.6v-9.8h35.77v9.8H522.7v39.2H512.2z"/>
	</g>
</g>
<g>
	<path d="M89.98,342.97c3.41,0,5.14,3.02,5.14,7.03c0,4.01-1.73,7.05-5.14,7.05c-3.43,0-5.16-3.04-5.16-7.05
		C84.82,345.99,86.55,342.97,89.98,342.97z M89.98,355.31c2.37,0,3.31-2.54,3.31-5.32c0-2.77-0.94-5.28-3.31-5.28
		c-2.39,0-3.33,2.5-3.33,5.28C86.65,352.77,87.59,355.31,89.98,355.31z"/>
	<path d="M102.55,348.05c2.56,0,4.26,1.67,4.26,4.39c0,2.68-2,4.58-5.03,4.58c-2.39,0-4.64-1.64-5.22-3.85h2.12
		c0.27,1.04,1.68,2.16,3.2,2.16c1.96,0,3.12-1.35,3.12-3.08c0-1.35-0.94-2.52-2.58-2.52c-1.95,0-2.83,0.64-3.43,1.25h-2.12l1.5-7.72
		h7.7v1.67h-6.1l-0.69,3.5c-0.1,0.44-0.46,0.91-0.71,1.29l0.27,0.19c0.25-0.39,0.52-0.94,0.91-1.17
		C100.47,348.32,101.44,348.05,102.55,348.05z"/>
	<path d="M108.9,354.75h1.98v1.98h-1.98V354.75z"/>
	<path d="M115.33,355.26l0.13,0.33c0.52-0.23,1.17-0.54,1.73-0.54h5.28v1.69h-8.84v-1.66c1.41-1.42,2.46-2.68,5.12-5.26
		c3-2.93,1.56-5.04-0.46-5.04c-2.06,0-2.52,1.35-2.52,2.62h-1.91c0-1.96,1.1-4.43,4.68-4.43c3.33,0,5.22,3.91,2.73,6.62
		c-1.69,1.87-3.47,3.77-4.37,4.76C116.53,354.77,115.85,355.04,115.33,355.26z"/>
	<path d="M129.66,342.97c3.41,0,5.14,3.02,5.14,7.03c0,4.01-1.73,7.05-5.14,7.05c-3.43,0-5.16-3.04-5.16-7.05
		C124.5,345.99,126.23,342.97,129.66,342.97z M129.66,355.31c2.37,0,3.31-2.54,3.31-5.32c0-2.77-0.94-5.28-3.31-5.28
		c-2.39,0-3.33,2.5-3.33,5.28C126.33,352.77,127.27,355.31,129.66,355.31z"/>
	<path d="M138.38,355.26l0.13,0.33c0.52-0.23,1.17-0.54,1.73-0.54h5.28v1.69h-8.84v-1.66c1.41-1.42,2.46-2.68,5.12-5.26
		c3-2.93,1.56-5.04-0.46-5.04c-2.06,0-2.52,1.35-2.52,2.62h-1.91c0-1.96,1.1-4.43,4.68-4.43c3.33,0,5.22,3.91,2.73,6.62
		c-1.69,1.87-3.47,3.77-4.37,4.76C139.57,354.77,138.9,355.04,138.38,355.26z"/>
	<path d="M152.7,342.97c3.41,0,5.14,3.02,5.14,7.03c0,4.01-1.73,7.05-5.14,7.05c-3.43,0-5.16-3.04-5.16-7.05
		C147.54,345.99,149.27,342.97,152.7,342.97z M152.7,355.31c2.37,0,3.31-2.54,3.31-5.32c0-2.77-0.94-5.28-3.31-5.28
		c-2.39,0-3.33,2.5-3.33,5.28C149.37,352.77,150.31,355.31,152.7,355.31z"/>
	<path d="M97.9,373.58h-0.27c0,0.27-0.69,2.62-3.25,2.7c-0.27,0.02-0.52,0-0.75-0.02c-2.58-0.29-4.39-2.46-4.39-5.14
		s1.85-4.74,4.45-5.01c0.27-0.02,0.52-0.04,0.79-0.02c1.27,0.04,2.31,0.5,2.96,1.21c0.38,0.42,0.5,1.12,0.67,1.6l0.33-0.12
		c-0.17-0.48-0.48-1.08-0.5-1.6l-0.04-0.75h1.54v7.78c0,1.35,0.35,1.66,1.02,1.66c1.64,0,1.58-3.35,1.58-4.53
		c-0.02-4.85-3.47-7.76-7.45-7.76c-4.22,0-7.49,3.14-7.49,7.68c0,4.83,3.7,7.22,7.72,7.22c0.77,0,1.54-0.08,2.31-0.25l0.4,1.62
		c-0.94,0.19-1.85,0.27-2.73,0.27c-5.39,0-9.4-3.37-9.38-8.9c0-5.45,3.89-9.26,9.13-9.26c5.18,0,9.17,3.72,9.19,9.28
		c0,4.06-1.21,6.12-3.29,6.12c-1.54,0-2.54-0.98-2.54-2.52V373.58z M94.31,374.66c2.14,0,3.21-1.73,3.33-3.54
		c0-2.14-1.19-3.43-3.31-3.43c-2.18,0-3.33,1.5-3.33,3.43C91,373.06,92.14,374.66,94.31,374.66z"/>
	<path d="M115.41,372.62c0.21,0.77,1.04,3.37,1.04,3.37h-1.83c-0.44-1.69-0.79-2.95-0.87-3.22c-0.64-2.18-2.08-2.23-2.83-2.27
		c-0.15,0.02-0.31,0.02-0.5,0.02c-0.5,0-1.44-0.02-2.16-0.02v5.49h-1.77v-13.48h4.29c2.91,0,5.33,0.62,5.33,3.77
		c0,1.85-1.06,2.62-2.39,3.14c-0.48,0.19-1.18,0.12-1.7,0.12v0.35c0.52,0,1.23-0.15,1.7,0.12
		C114.49,370.41,115.05,371.19,115.41,372.62z M108.27,368.9h2.46c1.87,0,3.58-0.35,3.58-2.58c0-2.18-1.58-2.33-3.58-2.33h-2.46
		V368.9z"/>
	<path d="M118.88,362.51h9.01v1.66h-7.24v4.06h6.76v1.66h-6.76v4.45h7.34v1.66h-9.11V362.51z"/>
	<path d="M132.29,375.99v-11.82h-3.87v-1.66h9.55v1.66h-3.87v11.82H132.29z"/>
	<path d="M149.18,372.62c0.21,0.77,1.04,3.37,1.04,3.37h-1.83c-0.44-1.69-0.79-2.95-0.87-3.22c-0.64-2.18-2.08-2.23-2.83-2.27
		c-0.15,0.02-0.31,0.02-0.5,0.02c-0.5,0-1.44-0.02-2.16-0.02v5.49h-1.77v-13.48h4.29c2.91,0,5.33,0.62,5.33,3.77
		c0,1.85-1.06,2.62-2.39,3.14c-0.48,0.19-1.18,0.12-1.7,0.12v0.35c0.52,0,1.23-0.15,1.7,0.12
		C148.25,370.41,148.81,371.19,149.18,372.62z M142.04,368.9h2.46c1.87,0,3.58-0.35,3.58-2.58c0-2.18-1.58-2.33-3.58-2.33h-2.46
		V368.9z"/>
	<path d="M157.36,362.22c3.72,0,6.45,3.08,6.45,7.03c0,3.93-2.73,7.05-6.45,7.05s-6.45-3.04-6.45-7.05
		C150.91,365.24,153.64,362.22,157.36,362.22z M157.36,374.56c2.89,0,4.64-2.6,4.64-5.32c0-2.73-1.75-5.29-4.64-5.29
		c-2.91,0-4.66,2.56-4.66,5.29C152.7,371.96,154.45,374.56,157.36,374.56z"/>
	<path d="M174.44,365.55c-0.46-0.9-1.75-1.73-3.64-1.73c-1.64,0-3.31,0.67-3.31,1.94c0,2.23,8.86,1.98,8.86,6.53
		c0,2.73-2.62,3.99-5.58,3.99c-2.77,0-4.62-1.44-5.37-3.37l1.68-0.42c0.62,1.48,2.2,2.12,3.77,2.12c2.18,0,3.52-0.89,3.52-2.08
		c0-3.18-8.74-2.54-8.74-6.68c0-2.5,2.77-3.62,5.37-3.62c2.73,0,4.53,1.48,5.1,2.91L174.44,365.55z"/>
	<path d="M180.48,370.35v5.64h-1.81v-13.48h4.37c2.87,0,5.24,0.62,5.24,3.85c0,3.23-2.35,4-5.47,4
		C182.29,370.37,181.4,370.37,180.48,370.35z M182.9,368.75c1.87,0,3.58-0.15,3.58-2.43c0-2.16-1.58-2.18-3.58-2.18h-2.43v4.6H182.9
		z"/>
	<path d="M190.31,362.51h9.01v1.66h-7.24v4.06h6.76v1.66h-6.76v4.45h7.34v1.66h-9.11V362.51z"/>
	<path d="M199.96,369.23c0.02-4.01,2.83-7.01,6.66-7.01c3.43,0,5.68,1.89,6.05,4.53h-1.87c-0.39-1.52-1.58-2.81-4.18-2.81
		c-2.83,0-4.85,2.35-4.85,5.3c0,2.96,2.04,5.33,4.89,5.33c2.66,0,3.87-1.29,4.26-2.81h1.87c-0.4,2.77-2.7,4.53-6.1,4.53
		C202.81,376.28,199.98,373.25,199.96,369.23z"/>
	<path d="M217.88,375.99v-11.82h-3.87v-1.66h9.55v1.66h-3.87v11.82H217.88z"/>
</g>
<g>
	<path d="M451.81,262.6c0-2.67,1.96-4.67,4.62-4.67c2.73,0,4.02,1.49,4.2,3.21h-1.69c-0.21-0.76-0.69-1.59-2.49-1.59
		c-1.66,0-2.95,1.13-2.95,3.07c0,1.92,1.28,3.07,2.95,3.07c1.89,0,2.39-0.83,2.6-1.59h1.69c-0.24,2-1.6,3.21-4.26,3.21
		C453.8,267.3,451.81,265.28,451.81,262.6z"/>
	<path d="M465.74,257.93c2.48,0,4.43,2.16,4.43,4.68c0,2.53-1.95,4.7-4.43,4.7s-4.43-2.04-4.43-4.7S463.27,257.93,465.74,257.93z
		 M465.74,265.68c1.83,0,2.75-1.58,2.75-3.07c0-1.49-0.91-3.05-2.75-3.05s-2.73,1.57-2.73,3.05
		C463.01,264.1,463.91,265.68,465.74,265.68z"/>
	<path d="M473.16,267.1h-1.68v-8.98h1.68l4.09,5.43c0.33,0.44,0.54,1.14,0.72,1.67l0.28-0.09c-0.18-0.53-0.44-1.21-0.44-1.77v-5.24
		h1.68v8.98h-1.68l-4.09-5.42c-0.35-0.45-0.55-1.14-0.73-1.68l-0.27,0.1c0.18,0.53,0.44,1.21,0.44,1.77V267.1z"/>
	<path d="M483.07,267.1v-7.42h-2.4v-1.57h6.48v1.57h-2.4v7.42H483.07z"/>
	<path d="M488.53,258.12h6.26v1.57h-4.63v2.05h4.31v1.57h-4.31v2.23h4.7v1.57h-6.33V258.12z"/>
	<path d="M497.64,267.1h-1.68v-8.98h1.68l4.09,5.43c0.33,0.44,0.54,1.14,0.72,1.67l0.28-0.09c-0.18-0.53-0.44-1.21-0.44-1.77v-5.24
		h1.68v8.98h-1.68l-4.09-5.42c-0.35-0.45-0.55-1.14-0.73-1.68l-0.27,0.1c0.18,0.53,0.44,1.21,0.44,1.77V267.1z"/>
	<path d="M505.97,258.12h1.68v8.98h-1.68V258.12z"/>
	<path d="M510.86,267.1h-1.48v-9.18h3.76c2.54,0,4.47,1.82,4.47,4.49c0,2.67-1.99,4.71-4.53,4.7L510.86,267.1z M512.83,265.53
		c1.8,0,3.14-1.46,3.14-3.08c0-1.63-1.28-2.93-3.08-2.93h-1.83v6.01H512.83z"/>
	<path d="M522.74,257.93c2.48,0,4.43,2.16,4.43,4.68c0,2.53-1.95,4.7-4.43,4.7s-4.43-2.04-4.43-4.7S520.26,257.93,522.74,257.93z
		 M522.74,265.68c1.83,0,2.75-1.58,2.75-3.07c0-1.49-0.91-3.05-2.75-3.05s-2.73,1.57-2.73,3.05
		C520.01,264.1,520.9,265.68,522.74,265.68z"/>
	<path d="M533.16,267.1h-1.48v-9.18h3.76c2.54,0,4.47,1.82,4.47,4.49c0,2.67-1.99,4.71-4.53,4.7L533.16,267.1z M535.14,265.53
		c1.8,0,3.14-1.46,3.14-3.08c0-1.63-1.28-2.93-3.08-2.93h-1.83v6.01H535.14z"/>
	<path d="M541.5,258.12h1.68v8.98h-1.68V258.12z"/>
	<path d="M552.18,266.39c0-0.51,0.23-1.16,0.36-1.66l-0.27-0.06c-0.14,0.49-0.17,1.22-0.51,1.6c-0.45,0.49-1.28,1.04-2.61,1.04
		c-2.64,0-4.7-2.03-4.7-4.7s2.01-4.68,4.77-4.68c1.99,0,3.59,0.92,4.2,2.54c0,0-1.68,0.39-1.67,0.37c-0.4-0.82-1.37-1.32-2.63-1.32
		c-1.77,0-2.99,1.28-2.99,3.09s1.31,3.11,3.21,3.11c2.04,0,2.64-1.32,2.64-2.03h-2.41v-1.45h4.22v4.86h-1.62V266.39z"/>
	<path d="M555.22,258.12h1.68v8.98h-1.68V258.12z"/>
	<path d="M560.46,267.1v-7.42h-2.4v-1.57h6.48v1.57h-2.4v7.42H560.46z"/>
	<path d="M568.07,258.1H570l3.46,9h-1.76l-1.21-3.13h-2.86l-1.1,3.13h-1.77L568.07,258.1z M569.24,260.32
		c-0.12-0.27-0.05-0.64-0.05-0.92h-0.29c0,0.28,0.06,0.66-0.05,0.92l-1.05,2.39h2.5L569.24,260.32z"/>
	<path d="M580.15,265.54v1.57h-5.98v-8.98h1.63v7.42H580.15z"/>
</g>
<g>
	<path d="M437.34,262.56h1.69v-1.78h1.48v1.78h1.8v1.41h-1.8v1.81h-1.48v-1.81h-1.69V262.56z"/>
</g>
<g>
	<path d="M453.46,243.12h1.68v8.98h-1.68V243.12z"/>
	<path d="M458.35,252.1h-1.48v-9.18h3.76c2.54,0,4.47,1.82,4.47,4.49c0,2.67-1.99,4.71-4.53,4.7L458.35,252.1z M460.33,250.53
		c1.8,0,3.14-1.46,3.14-3.08c0-1.63-1.28-2.93-3.08-2.93h-1.83v6.01H460.33z"/>
	<path d="M466.45,243.12h6.26v1.57h-4.63v2.05h4.31v1.57h-4.31v2.23h4.7v1.57h-6.33V243.12z"/>
	<path d="M475.56,252.1h-1.68v-8.98h1.68l4.09,5.43c0.33,0.44,0.54,1.14,0.72,1.67l0.28-0.09c-0.18-0.53-0.44-1.21-0.44-1.77v-5.24
		h1.68v8.98h-1.68l-4.09-5.42c-0.35-0.45-0.55-1.14-0.73-1.68l-0.27,0.1c0.18,0.53,0.44,1.21,0.44,1.77V252.1z"/>
	<path d="M485.47,252.1v-7.42h-2.4v-1.57h6.48v1.57h-2.4v7.42H485.47z"/>
	<path d="M490.92,243.12h1.68v8.98h-1.68V243.12z"/>
	<path d="M495.81,252.1h-1.48v-9.18h3.76c2.54,0,4.46,1.82,4.46,4.49c0,2.67-1.99,4.71-4.53,4.7L495.81,252.1z M497.79,250.53
		c1.8,0,3.14-1.46,3.14-3.08c0-1.63-1.28-2.93-3.08-2.93h-1.84v6.01H497.79z"/>
	<path d="M506.01,243.1h1.92l3.46,9h-1.76l-1.21-3.13h-2.86l-1.1,3.13h-1.77L506.01,243.1z M507.18,245.32
		c-0.12-0.27-0.05-0.64-0.05-0.92h-0.3c0,0.28,0.06,0.66-0.05,0.92l-1.05,2.39h2.5L507.18,245.32z"/>
	<path d="M513.83,252.1h-1.47v-9.18h3.76c2.54,0,4.46,1.82,4.46,4.49c0,2.67-1.99,4.71-4.53,4.7L513.83,252.1z M515.8,250.53
		c1.8,0,3.14-1.46,3.14-3.08c0-1.63-1.28-2.93-3.08-2.93h-1.83v6.01H515.8z"/>
	<path d="M532.42,251.39c0-0.51,0.23-1.16,0.36-1.66l-0.27-0.06c-0.14,0.49-0.17,1.22-0.51,1.6c-0.45,0.49-1.28,1.04-2.61,1.04
		c-2.64,0-4.7-2.03-4.7-4.7s2.01-4.68,4.77-4.68c1.99,0,3.59,0.92,4.2,2.54c0,0-1.68,0.39-1.67,0.37c-0.4-0.82-1.37-1.32-2.63-1.32
		c-1.77,0-2.99,1.28-2.99,3.09s1.31,3.11,3.21,3.11c2.04,0,2.64-1.32,2.64-2.03h-2.41v-1.45h4.22v4.86h-1.62V251.39z"/>
	<path d="M541.9,249.86c0.12,0.51,0.68,2.25,0.68,2.25h-1.73c-0.28-1.13-0.5-1.96-0.54-2.14c-0.41-1.45-1.31-1.3-1.78-1.32
		c-0.09,0-0.19,0-0.31,0c-0.31,0-0.96,0-1.12,0v3.46h-1.63v-8.98h3.21c2.02,0,3.68,0.41,3.68,2.51c0,1.16-0.6,1.67-1.41,2.01
		c-0.42,0.19-1.04,0.12-1.5,0.12v0.3c0.46,0,1.12-0.13,1.5,0.13C541.46,248.5,541.69,249.05,541.9,249.86z M537.1,247.25h1.45
		c1.12,0,2.13-0.45,2.13-1.59c0-1.13-0.94-1.42-2.13-1.42h-1.45V247.25z"/>
	<path d="M546.09,243.1h1.92l3.46,9h-1.76l-1.21-3.13h-2.86l-1.1,3.13h-1.77L546.09,243.1z M547.26,245.32
		c-0.12-0.27-0.05-0.64-0.05-0.92h-0.29c0,0.28,0.06,0.66-0.05,0.92l-1.05,2.39h2.5L547.26,245.32z"/>
	<path d="M553.87,244.75v2.31h3.88v1.62h-3.88v3.43h-1.68v-8.98h6.26v1.63H553.87z"/>
	<path d="M560.03,243.12h1.68v8.98h-1.68V243.12z"/>
	<path d="M562.8,247.6c0-2.67,1.96-4.67,4.62-4.67c2.73,0,4.02,1.49,4.2,3.21h-1.69c-0.21-0.76-0.69-1.59-2.49-1.59
		c-1.66,0-2.95,1.13-2.95,3.07c0,1.92,1.28,3.07,2.95,3.07c1.89,0,2.39-0.83,2.6-1.59h1.69c-0.24,2-1.6,3.21-4.26,3.21
		C564.79,252.3,562.8,250.28,562.8,247.6z"/>
	<path d="M575.26,243.1h1.92l3.46,9h-1.76l-1.21-3.13h-2.86l-1.1,3.13h-1.77L575.26,243.1z M576.43,245.32
		c-0.12-0.27-0.05-0.64-0.05-0.92h-0.3c0,0.28,0.06,0.66-0.05,0.92l-1.05,2.39h2.5L576.43,245.32z"/>
</g>
<g>
	<path d="M548.32,238.92l1.13,1.13l-2.39,2.08l-0.82-0.82L548.32,238.92z"/>
</g>
<g>
	<path d="M446.64,331.01l1.18,1.18l-2.96,2.78l-1-1L446.64,331.01z"/>
</g>
<g>
	<path d="M557.64,305.01l1.18,1.18l-2.96,2.78l-1-1L557.64,305.01z"/>
</g>
</svg>
