<?xml version="1.0" encoding="utf-8"?>
<!-- Generator: Adobe Illustrator 25.0.0, SVG Export Plug-In . SVG Version: 6.00 Build 0)  -->
<svg version="1.1" id="Layer_1" xmlns="http://www.w3.org/2000/svg" xmlns:xlink="http://www.w3.org/1999/xlink" x="0px" y="0px"
	 viewBox="0 0 1000 200" style="enable-background:new 0 0 1000 200;" xml:space="preserve">
<style type="text/css">
	.st0{fill:#F0C0FB;}
	.st1{fill:#B2E2FB;}
	.st2{fill:#F4F4F4;}
	.st3{fill:#F9DEC9;}
	.st4{fill:#285F4A;}
	.st5{fill:#ED664D;}
	.st6{fill:#1147CD;}
	.st7{fill:none;}
	.st8{fill:#F4F4F4;stroke:#000000;stroke-width:1.1667;stroke-miterlimit:10;}
	.st9{fill:#FFFFFF;stroke:#000000;stroke-width:0.4375;stroke-miterlimit:10;}
	.st10{fill:#FFFFFF;stroke:#000000;stroke-width:0.7999;stroke-miterlimit:10;}
	.st11{fill:none;stroke:#000000;stroke-width:1.1667;stroke-linecap:round;stroke-linejoin:round;stroke-miterlimit:10;}
	.st12{fill:#F4F4F4;stroke:#000000;stroke-width:1.2133;stroke-miterlimit:10;}
	.st13{fill:#A67C52;}
	.st14{fill:#B3B3B3;}
	.st15{fill:#FBB03B;}
	.st16{fill:#333333;}
	.st17{fill:#FFFFFF;}
	.st18{fill:none;stroke:#000000;stroke-width:1.1;stroke-miterlimit:10;}
</style>
<g>
	<path d="M952.5,135h-449V65h449c5.52,0,10,4.48,10,10v50C962.5,130.52,958.02,135,952.5,135z"/>
	<g>
		<path class="st2" d="M554.39,100.63c0-6.69,3.78-10.91,9.68-10.91c4.79,0,8.41,2.94,8.96,7.35h-3.25
			c-0.59-2.71-2.84-4.48-5.71-4.48c-3.84,0-6.33,3.15-6.33,8.04c0,4.94,2.46,8.06,6.34,8.06c2.94,0,5.04-1.51,5.7-4.06h3.27
			c-0.81,4.37-4.12,6.93-8.98,6.93C558.14,111.56,554.39,107.37,554.39,100.63z"/>
		<path class="st2" d="M574.34,103.5c0-4.95,2.92-7.98,7.31-7.98s7.31,3.03,7.31,7.98c0,4.97-2.9,8-7.31,8
			S574.34,108.47,574.34,103.5z M585.73,103.5c0-3.41-1.61-5.38-4.09-5.38s-4.09,1.96-4.09,5.38c0,3.43,1.61,5.39,4.09,5.39
			C584.14,108.9,585.73,106.93,585.73,103.5z"/>
		<path class="st2" d="M594.9,92.15v3.65h2.93v2.5h-2.93v8.5c0,1.33,0.59,1.93,1.88,1.93c0.32,0,0.83-0.03,1.04-0.07v2.5
			c-0.35,0.09-1.05,0.15-1.76,0.15c-3.12,0-4.34-1.19-4.34-4.16V98.3h-2.24v-2.5h2.24v-3.65H594.9z"/>
		<path class="st2" d="M599.68,91.49c0-1.01,0.82-1.82,1.83-1.82s1.82,0.81,1.82,1.82c0,1-0.81,1.82-1.82,1.82
			S599.68,92.49,599.68,91.49z M599.93,95.8h3.16v15.41h-3.16V95.8z"/>
		<path class="st2" d="M605.41,109.17l8.22-10.8v-0.06h-8.16V95.8h11.79v2.17l-8.01,10.66v0.06h8.1v2.52h-11.94V109.17z"/>
		<path class="st2" d="M618.96,106.83c0-2.7,2.07-4.35,5.73-4.56l4.22-0.25v-1.19c0-1.71-1.16-2.74-3.09-2.74
			c-1.83,0-2.97,0.88-3.25,2.26h-2.99c0.18-2.78,2.55-4.83,6.36-4.83c3.74,0,6.12,1.98,6.12,5.07v10.62h-3.03v-2.53h-0.07
			c-0.89,1.71-2.84,2.8-4.86,2.8C621.07,111.47,618.96,109.6,618.96,106.83z M628.91,105.44v-1.22l-3.79,0.23
			c-1.89,0.13-2.96,0.97-2.96,2.29c0,1.35,1.11,2.23,2.81,2.23C627.18,108.97,628.91,107.45,628.91,105.44z"/>
		<path class="st2" d="M644.1,92.15v3.65h2.93v2.5h-2.93v8.5c0,1.33,0.59,1.93,1.88,1.93c0.32,0,0.83-0.03,1.04-0.07v2.5
			c-0.35,0.09-1.05,0.15-1.76,0.15c-3.12,0-4.34-1.19-4.34-4.16V98.3h-2.24v-2.5h2.24v-3.65H644.1z"/>
		<path class="st2" d="M662.23,111.21h-3.03v-2.61h-0.07c-0.85,1.85-2.42,2.89-4.78,2.89c-3.35,0-5.41-2.18-5.41-5.71V95.8h3.16
			v9.36c0,2.34,1.11,3.6,3.3,3.6c2.29,0,3.66-1.58,3.66-3.98V95.8h3.16V111.21z"/>
		<path class="st2" d="M684.75,103.5c0,4.88-2.56,7.97-6.43,7.97c-2.21,0-3.97-1.08-4.85-2.8h-0.07v7.63h-3.16V95.8h3.06v2.65h0.06
			c0.91-1.77,2.68-2.9,4.91-2.9C682.17,95.55,684.75,98.63,684.75,103.5z M681.5,103.5c0-3.22-1.57-5.29-4.07-5.29
			c-2.42,0-4.04,2.11-4.04,5.29c0,3.21,1.61,5.29,4.04,5.29C679.93,108.79,681.5,106.74,681.5,103.5z"/>
		<path class="st2" d="M686.58,95.8h3.02v2.62h0.07c0.51-1.8,1.89-2.87,3.71-2.87c0.45,0,0.85,0.07,1.08,0.12v2.94
			c-0.25-0.1-0.81-0.18-1.42-0.18c-2.04,0-3.3,1.36-3.3,3.54v9.23h-3.16V95.8z"/>
		<path class="st2" d="M694.48,103.5c0-4.95,2.92-7.98,7.31-7.98s7.31,3.03,7.31,7.98c0,4.97-2.9,8-7.31,8
			S694.48,108.47,694.48,103.5z M705.87,103.5c0-3.41-1.61-5.38-4.09-5.38s-4.09,1.96-4.09,5.38c0,3.43,1.61,5.39,4.09,5.39
			C704.28,108.9,705.87,106.93,705.87,103.5z"/>
		<path class="st2" d="M710.78,116.88v-2.56c0.23,0.06,0.76,0.06,1.03,0.06c1.46,0,2.26-0.62,2.74-2.2c0-0.03,0.28-0.94,0.28-0.95
			l-5.57-15.42h3.43l3.9,12.54h0.06l3.9-12.54h3.34l-5.77,16.22c-1.32,3.74-2.84,4.94-6.04,4.94
			C711.81,116.95,711.01,116.92,710.78,116.88z"/>
		<path class="st2" d="M737.91,106.68c-0.44,2.81-3.11,4.82-6.64,4.82c-4.53,0-7.27-3.06-7.27-7.92c0-4.83,2.78-8.06,7.13-8.06
			c4.28,0,6.94,3.02,6.94,7.69v1.08H727.2v0.19c0,2.68,1.61,4.45,4.15,4.45c1.8,0,3.13-0.91,3.56-2.26H737.91z M727.22,102.08h7.71
			c-0.07-2.36-1.57-4.01-3.78-4.01S727.38,99.75,727.22,102.08z"/>
		<path class="st2" d="M750.14,101.1c-0.32-1.64-1.55-2.94-3.62-2.94c-2.45,0-4.06,2.04-4.06,5.35c0,3.38,1.63,5.35,4.09,5.35
			c1.95,0,3.22-1.07,3.59-2.86h3.05c-0.34,3.28-2.96,5.51-6.67,5.51c-4.41,0-7.28-3.02-7.28-8c0-4.89,2.87-7.98,7.25-7.98
			c3.97,0,6.39,2.55,6.67,5.58H750.14z"/>
		<path class="st2" d="M758.93,92.15v3.65h2.93v2.5h-2.93v8.5c0,1.33,0.59,1.93,1.88,1.93c0.32,0,0.83-0.03,1.04-0.07v2.5
			c-0.35,0.09-1.05,0.15-1.76,0.15c-3.12,0-4.34-1.19-4.34-4.16V98.3h-2.24v-2.5h2.24v-3.65H758.93z"/>
		<path class="st2" d="M762.8,103.5c0-4.95,2.92-7.98,7.31-7.98s7.31,3.03,7.31,7.98c0,4.97-2.9,8-7.31,8S762.8,108.47,762.8,103.5z
			 M774.2,103.5c0-3.41-1.61-5.38-4.09-5.38s-4.09,1.96-4.09,5.38c0,3.43,1.61,5.39,4.09,5.39C772.6,108.9,774.2,106.93,774.2,103.5
			z"/>
		<path class="st2" d="M778.27,115.56l1.32-7.73h3.19l-1.99,7.73H778.27z"/>
		<path class="st2" d="M802.95,106.68c-0.44,2.81-3.11,4.82-6.64,4.82c-4.53,0-7.27-3.06-7.27-7.92c0-4.83,2.78-8.06,7.13-8.06
			c4.28,0,6.94,3.02,6.94,7.69v1.08h-10.88v0.19c0,2.68,1.61,4.45,4.15,4.45c1.8,0,3.13-0.91,3.56-2.26H802.95z M792.26,102.08h7.71
			c-0.07-2.36-1.57-4.01-3.78-4.01S792.42,99.75,792.26,102.08z"/>
		<path class="st2" d="M810.64,95.52c3.59,0,5.92,1.99,6.02,4.83h-2.97c-0.18-1.49-1.27-2.43-3.05-2.43c-1.71,0-2.86,0.83-2.86,2.07
			c0,0.97,0.7,1.63,2.37,2.01l2.5,0.57c3.15,0.73,4.35,1.96,4.35,4.19c0,2.81-2.62,4.75-6.25,4.75c-3.85,0-6.17-1.89-6.46-4.82h3.13
			c0.29,1.61,1.39,2.4,3.33,2.4c1.9,0,3.08-0.79,3.08-2.05c0-1-0.57-1.58-2.26-1.96l-2.5-0.59c-2.93-0.67-4.38-2.08-4.38-4.32
			C804.7,97.41,807.1,95.52,810.64,95.52z"/>
		<path class="st2" d="M824.21,112.41h3.18c0.45,1.29,1.86,2.14,3.66,2.14c2.48,0,3.94-1.41,3.94-3.52v-2.53h-0.06
			c-0.86,1.67-2.68,2.77-4.88,2.77c-3.87,0-6.4-3.02-6.4-7.82c0-4.85,2.52-7.9,6.47-7.9c2.18,0,3.97,1.1,4.91,2.89h0.06V95.8h3.08
			v15.13c0,3.68-2.84,6.08-7.24,6.08C827.3,117.01,824.6,115.08,824.21,112.41z M835,103.46c0-3.16-1.63-5.24-4.1-5.24
			c-2.43,0-4.01,2.04-4.01,5.24c0,3.22,1.58,5.19,4.01,5.19C833.38,108.65,835,106.64,835,103.46z"/>
		<path class="st2" d="M840.69,95.8h3.02v2.62h0.07c0.51-1.8,1.89-2.87,3.71-2.87c0.45,0,0.85,0.07,1.08,0.12v2.94
			c-0.25-0.1-0.81-0.18-1.42-0.18c-2.04,0-3.3,1.36-3.3,3.54v9.23h-3.16V95.8z"/>
		<path class="st2" d="M849,106.83c0-2.7,2.07-4.35,5.73-4.56l4.22-0.25v-1.19c0-1.71-1.16-2.74-3.09-2.74
			c-1.83,0-2.97,0.88-3.25,2.26h-2.99c0.18-2.78,2.55-4.83,6.36-4.83c3.74,0,6.12,1.98,6.12,5.07v10.62h-3.03v-2.53h-0.07
			c-0.89,1.71-2.84,2.8-4.86,2.8C851.1,111.47,849,109.6,849,106.83z M858.94,105.44v-1.22l-3.79,0.23
			c-1.89,0.13-2.96,0.97-2.96,2.29c0,1.35,1.11,2.23,2.81,2.23C857.21,108.97,858.94,107.45,858.94,105.44z"/>
		<path class="st2" d="M868.65,92.15v3.65h2.93v2.5h-2.93v8.5c0,1.33,0.59,1.93,1.88,1.93c0.32,0,0.83-0.03,1.04-0.07v2.5
			c-0.35,0.09-1.05,0.15-1.76,0.15c-3.12,0-4.34-1.19-4.34-4.16V98.3h-2.24v-2.5h2.24v-3.65H868.65z"/>
		<path class="st2" d="M873.43,91.49c0-1.01,0.82-1.82,1.83-1.82s1.82,0.81,1.82,1.82c0,1-0.81,1.82-1.82,1.82
			S873.43,92.49,873.43,91.49z M873.68,95.8h3.16v15.41h-3.16V95.8z"/>
		<path class="st2" d="M885.15,95.52c3.59,0,5.92,1.99,6.02,4.83h-2.97c-0.18-1.49-1.27-2.43-3.05-2.43c-1.71,0-2.86,0.83-2.86,2.07
			c0,0.97,0.7,1.63,2.37,2.01l2.5,0.57c3.15,0.73,4.35,1.96,4.35,4.19c0,2.81-2.62,4.75-6.25,4.75c-3.85,0-6.17-1.89-6.46-4.82h3.13
			c0.29,1.61,1.39,2.4,3.33,2.4c1.9,0,3.08-0.79,3.08-2.05c0-1-0.57-1.58-2.26-1.96l-2.5-0.59c-2.93-0.67-4.38-2.08-4.38-4.32
			C879.2,97.41,881.6,95.52,885.15,95.52z"/>
	</g>
	<g>
		<path class="st2" d="M47.5,133.68c-4.79,0-8.68-3.89-8.68-8.68V75c0-4.79,3.89-8.68,8.68-8.68h467c4.79,0,8.68,3.89,8.68,8.68v50
			c0,4.79-3.89,8.68-8.68,8.68H47.5z"/>
		<path d="M514.5,67.64c4.06,0,7.36,3.3,7.36,7.36v50c0,4.06-3.3,7.36-7.36,7.36h-467c-4.06,0-7.36-3.3-7.36-7.36V75
			c0-4.06,3.3-7.36,7.36-7.36H514.5 M514.5,65h-467c-5.52,0-10,4.48-10,10v50c0,5.52,4.48,10,10,10h467c5.52,0,10-4.48,10-10V75
			C524.5,69.48,520.02,65,514.5,65L514.5,65z"/>
	</g>
	<path class="st2" d="M932.21,101.58l-11-11c-0.58-0.58-1.53-0.58-2.11,0c-0.58,0.58-0.58,1.53,0,2.11l8.5,8.5h-23.89
		c-0.83,0-1.49,0.67-1.49,1.49s0.67,1.49,1.49,1.49h23.78l-8.4,8.4c-0.58,0.58-0.58,1.53,0,2.11c0.29,0.29,0.67,0.44,1.06,0.44
		s0.76-0.15,1.06-0.44l11.01-11.01c0.28-0.28,0.44-0.66,0.44-1.06S932.49,101.86,932.21,101.58z"/>
</g>
</svg>
