<?xml version="1.0" encoding="utf-8"?>
<!-- Generator: Adobe Illustrator 25.0.0, SVG Export Plug-In . SVG Version: 6.00 Build 0)  -->
<svg version="1.1" id="Layer_1" xmlns="http://www.w3.org/2000/svg" xmlns:xlink="http://www.w3.org/1999/xlink" x="0px" y="0px"
	 viewBox="0 0 601.45 400.52" style="enable-background:new 0 0 601.45 400.52;" xml:space="preserve">
<g>
	<g>
		<g>
			<rect x="34.7" y="34.23" style="fill:#B2E2FB;" width="565.38" height="365.38"/>
		</g>
		<g>
			<g>
				<path d="M599.44,34.88v364.1H35.34V34.88H599.44 M600.72,33.59H34.06v366.67h566.67V33.59L600.72,33.59z"/>
			</g>
		</g>
	</g>
	<g>
		<g>
			<rect x="18.03" y="17.57" style="fill:#F9DEC9;" width="565.38" height="365.38"/>
		</g>
		<g>
			<path d="M582.77,18.21v364.1H18.67V18.21H582.77 M584.06,16.93H17.39v366.67h566.67V16.93L584.06,16.93z"/>
		</g>
	</g>
	<g>
		<g>
			<rect x="1.36" y="0.9" style="fill:#F4F4F4;" width="565.38" height="365.38"/>
		</g>
		<g>
			<path d="M566.11,1.54v364.1H2.01V1.54H566.11 M567.39,0.26H0.72v366.67h566.67V0.26L567.39,0.26z"/>
		</g>
	</g>
	<g>
		<path d="M402.53,212.86c0-2.67,1.96-4.67,4.62-4.67c2.73,0,4.02,1.49,4.2,3.21h-1.69c-0.21-0.76-0.69-1.59-2.49-1.59
			c-1.66,0-2.95,1.13-2.95,3.07c0,1.92,1.28,3.07,2.95,3.07c1.89,0,2.39-0.83,2.6-1.59h1.69c-0.24,2-1.6,3.21-4.26,3.21
			C404.52,217.56,402.53,215.54,402.53,212.86z"/>
		<path d="M416.47,208.19c2.48,0,4.43,2.16,4.43,4.69c0,2.53-1.95,4.7-4.43,4.7s-4.43-2.04-4.43-4.7S413.99,208.19,416.47,208.19z
			 M416.47,215.94c1.83,0,2.75-1.58,2.75-3.07c0-1.49-0.91-3.05-2.75-3.05s-2.73,1.56-2.73,3.05
			C413.73,214.36,414.63,215.94,416.47,215.94z"/>
		<path d="M423.88,217.36h-1.68v-8.98h1.68l4.09,5.43c0.33,0.44,0.54,1.14,0.72,1.67l0.28-0.09c-0.18-0.53-0.44-1.21-0.44-1.77
			v-5.24h1.68v8.98h-1.68l-4.09-5.41c-0.35-0.45-0.55-1.14-0.73-1.68l-0.27,0.1c0.18,0.53,0.44,1.21,0.44,1.77V217.36z"/>
		<path d="M433.79,217.36v-7.42h-2.4v-1.57h6.48v1.57h-2.4v7.42H433.79z"/>
		<path d="M439.25,208.38h6.26v1.57h-4.63V212h4.31v1.56h-4.31v2.23h4.7v1.56h-6.33V208.38z"/>
		<path d="M448.36,217.36h-1.68v-8.98h1.68l4.09,5.43c0.33,0.44,0.54,1.14,0.72,1.67l0.28-0.09c-0.18-0.53-0.44-1.21-0.44-1.77
			v-5.24h1.68v8.98h-1.68l-4.09-5.41c-0.35-0.45-0.55-1.14-0.73-1.68l-0.27,0.1c0.18,0.53,0.44,1.21,0.44,1.77V217.36z"/>
		<path d="M456.69,208.38h1.68v8.98h-1.68V208.38z"/>
		<path d="M461.58,217.36h-1.48v-9.18h3.76c2.54,0,4.47,1.82,4.47,4.49s-1.99,4.71-4.53,4.7L461.58,217.36z M463.55,215.78
			c1.8,0,3.14-1.46,3.14-3.08c0-1.63-1.28-2.93-3.08-2.93h-1.83v6.01H463.55z"/>
		<path d="M473.46,208.19c2.48,0,4.43,2.16,4.43,4.69c0,2.53-1.95,4.7-4.43,4.7s-4.43-2.04-4.43-4.7S470.98,208.19,473.46,208.19z
			 M473.46,215.94c1.83,0,2.75-1.58,2.75-3.07c0-1.49-0.91-3.05-2.75-3.05s-2.73,1.56-2.73,3.05
			C470.73,214.36,471.63,215.94,473.46,215.94z"/>
		<path d="M483.88,217.36h-1.48v-9.18h3.76c2.54,0,4.47,1.82,4.47,4.49s-1.99,4.71-4.53,4.7L483.88,217.36z M485.86,215.78
			c1.8,0,3.14-1.46,3.14-3.08c0-1.63-1.28-2.93-3.08-2.93h-1.83v6.01H485.86z"/>
		<path d="M492.22,208.38h1.68v8.98h-1.68V208.38z"/>
		<path d="M502.9,216.64c0-0.51,0.23-1.15,0.36-1.65l-0.27-0.06c-0.14,0.49-0.17,1.22-0.51,1.6c-0.45,0.49-1.28,1.04-2.61,1.04
			c-2.64,0-4.7-2.03-4.7-4.7c0-2.67,2.01-4.69,4.77-4.69c1.99,0,3.59,0.93,4.2,2.54c0,0-1.68,0.39-1.67,0.37
			c-0.4-0.82-1.37-1.32-2.63-1.32c-1.77,0-2.99,1.28-2.99,3.09c0,1.81,1.31,3.11,3.21,3.11c2.04,0,2.64-1.32,2.64-2.03h-2.41v-1.45
			h4.22v4.86h-1.62V216.64z"/>
		<path d="M505.94,208.38h1.68v8.98h-1.68V208.38z"/>
		<path d="M511.18,217.36v-7.42h-2.4v-1.57h6.48v1.57h-2.4v7.42H511.18z"/>
		<path d="M518.79,208.35h1.92l3.46,9h-1.76l-1.21-3.13h-2.86l-1.1,3.13h-1.77L518.79,208.35z M519.96,210.58
			c-0.12-0.27-0.05-0.64-0.05-0.93h-0.29c0,0.28,0.06,0.66-0.05,0.93l-1.05,2.39h2.5L519.96,210.58z"/>
		<path d="M530.87,215.8v1.56h-5.98v-8.98h1.63v7.42H530.87z"/>
	</g>
	<g>
		<path d="M388.07,212.82h1.69v-1.78h1.48v1.78h1.8v1.41h-1.8v1.81h-1.48v-1.81h-1.69V212.82z"/>
	</g>
	<g>
		<path d="M393.97,237.95c-0.03-1.1-1.67-2.52-4.21-2.52c-2.67,0-5.52,1.05-5.52,3.23c0,3.39,11.75,3.05,11.75,8.83
			c0,3.88-3.46,5.18-6.52,5.18c-3.98,0-6.67-2.57-6.78-5.13l1.9,0.54c0.46,2.34,3.11,3.23,4.65,3.23c3.39,0,5.54-1.44,5.54-3.34
			c0-5.06-11.91-3.82-11.91-9.27c0-3.7,3.93-4.77,6.65-4.77c4.18,0,6.62,2.72,6.31,4.57L393.97,237.95z"/>
		<path d="M406.83,233.95c4.95,0,8.34,3.93,8.34,9.37s-3.39,9.39-8.34,9.39c-4.95,0-8.34-4.03-8.34-9.39
			S401.87,233.95,406.83,233.95z M406.83,251.35c4.06,0,6.88-3.75,6.88-8.03c0-4.29-2.82-7.98-6.88-7.98c-4.08,0-6.9,3.7-6.9,7.98
			C399.92,247.6,402.75,251.35,406.83,251.35z"/>
		<path d="M420.38,252.3h-1.46v-17.96h1.57l7.54,15.58c0.23,0.49,0.26,1.18,0.26,1.72h0.31c0-0.54,0-1.23,0.26-1.72l7.55-15.58h1.51
			v17.96h-1.44v-13.37c0-0.54,0.26-1.21,0.38-1.75l-0.31-0.08c-0.13,0.51-0.26,1.23-0.51,1.72l-6.9,13.47h-1.41l-6.9-13.47
			c-0.26-0.49-0.38-1.18-0.51-1.72l-0.31,0.08c0.13,0.54,0.39,1.21,0.39,1.75V252.3z"/>
		<path d="M447.95,233.95c4.95,0,8.34,3.93,8.34,9.37s-3.39,9.39-8.34,9.39s-8.34-4.03-8.34-9.39S442.99,233.95,447.95,233.95z
			 M447.95,251.35c4.06,0,6.88-3.75,6.88-8.03c0-4.29-2.82-7.98-6.88-7.98c-4.08,0-6.9,3.7-6.9,7.98
			C441.04,247.6,443.87,251.35,447.95,251.35z"/>
		<path d="M470.05,237.95c-0.03-1.1-1.67-2.52-4.21-2.52c-2.67,0-5.52,1.05-5.52,3.23c0,3.39,11.75,3.05,11.75,8.83
			c0,3.88-3.46,5.18-6.52,5.18c-3.98,0-6.67-2.57-6.78-5.13l1.9,0.54c0.46,2.34,3.11,3.23,4.65,3.23c3.39,0,5.54-1.44,5.54-3.34
			c0-5.06-11.91-3.82-11.91-9.27c0-3.7,3.93-4.77,6.65-4.77c4.18,0,6.62,2.72,6.31,4.57L470.05,237.95z"/>
		<path d="M495.41,246.06c0.03,4.29-3,6.62-6.9,6.62s-6.9-2.33-6.93-6.62c0-5.34,0.03-11.73,0.03-11.73h1.44v12.04
			c0.03,2.62,2.34,4.95,5.47,4.95c3.16,0,5.49-2.34,5.47-4.95c0-4.08,0-12.04,0-12.04h1.44V246.06z"/>
		<path d="M501.23,252.3h-1.44v-17.96h1.44l9.78,13.88c0.64,0.92,1.16,2.28,1.49,3.36l0.31-0.1c-0.33-1.05-0.72-2.46-0.72-3.59
			v-13.55h1.44v17.96h-1.44l-9.78-13.86c-0.64-0.92-1.16-2.28-1.49-3.36l-0.31,0.1c0.33,1.05,0.72,2.46,0.72,3.59V252.3z"/>
		<path d="M521.61,234.28h2.26l7.06,17.99h-1.72l-2.67-6.52h-7.55l-2.44,6.52h-1.8L521.61,234.28z M522.97,236.7
			c-0.15-0.41-0.1-0.95-0.1-1.39h-0.31c0,0.44,0.05,0.98-0.1,1.39l-3,7.57H526L522.97,236.7z"/>
		<path d="M350,277.97v-16.68h-5.49V260h12.45v1.28h-5.49v16.68H350z"/>
		<path d="M360.34,260h1.44v17.96h-1.44V260z"/>
		<path d="M366.79,260h11.5v1.28h-10.04v6.72h9.39v1.28h-9.39v7.39h10.16v1.28h-11.63V260z"/>
		<path d="M383.73,277.97h-1.44V260h1.44l9.78,13.88c0.64,0.92,1.16,2.28,1.49,3.36l0.31-0.1c-0.33-1.05-0.72-2.46-0.72-3.59V260
			h1.44v17.96h-1.44l-9.78-13.86c-0.64-0.92-1.16-2.28-1.49-3.36l-0.31,0.1c0.33,1.05,0.72,2.46,0.72,3.59V277.97z"/>
		<path d="M402.08,277.97h-1.03v-18.35h5.34c4.8,0,8.42,3.64,8.42,8.98s-3.75,9.42-8.55,9.39L402.08,277.97z M406.42,276.61
			c3.95,0,6.93-3.82,6.93-8.03c0-4.18-2.85-7.57-6.8-7.57h-4.06v15.61H406.42z"/>
		<path d="M421.95,259.95h2.26l7.06,17.99h-1.72l-2.67-6.52h-7.54l-2.44,6.52h-1.8L421.95,259.95z M423.31,262.36
			c-0.15-0.41-0.1-0.95-0.1-1.39h-0.31c0,0.44,0.05,0.98-0.1,1.39l-3,7.57h6.54L423.31,262.36z"/>
		<path d="M447.56,259.62c4.95,0,8.34,3.93,8.34,9.37s-3.39,9.39-8.34,9.39s-8.34-4.03-8.34-9.39S442.61,259.62,447.56,259.62z
			 M447.56,277.02c4.06,0,6.88-3.75,6.88-8.03c0-4.29-2.82-7.98-6.88-7.98c-4.08,0-6.9,3.7-6.9,7.98
			C440.66,273.27,443.48,277.02,447.56,277.02z"/>
		<path d="M461.09,277.97h-1.44V260h1.44l9.78,13.88c0.64,0.92,1.16,2.28,1.49,3.36l0.31-0.1c-0.33-1.05-0.72-2.46-0.72-3.59V260
			h1.44v17.96h-1.44l-9.78-13.86c-0.64-0.92-1.16-2.28-1.49-3.36l-0.31,0.1c0.33,1.05,0.72,2.46,0.72,3.59V277.97z"/>
		<path d="M489.35,276.68v1.28h-10.93V260h1.46v16.68H489.35z"/>
		<path d="M493.02,260h1.44v17.96h-1.44V260z"/>
		<path d="M500.9,277.97h-1.44V260h1.44l9.78,13.88c0.64,0.92,1.16,2.28,1.49,3.36l0.31-0.1c-0.33-1.05-0.72-2.46-0.72-3.59V260
			h1.44v17.96h-1.44l-9.78-13.86c-0.64-0.92-1.16-2.28-1.49-3.36l-0.31,0.1c0.33,1.05,0.72,2.46,0.72,3.59V277.97z"/>
		<path d="M518.23,260h11.5v1.28h-10.04v6.72h9.39v1.28h-9.39v7.39h10.16v1.28h-11.63V260z"/>
		<path d="M346.25,304.05c-4.9,0-8.37-4.06-8.37-9.39s3.39-9.37,8.16-9.37c4.8,0,8.19,4.11,8.19,9.5c0,3.26-1.51,5.95-3.39,7.62
			l2.05,3.67h-1.46l-1.41-2.75c-0.13-0.23,0.03-0.51,0.15-0.75l-0.31-0.13c-0.1,0.26-0.26,0.49-0.51,0.59
			C348.51,303.48,347.69,304.05,346.25,304.05z M352.72,294.78c0-4.23-2.64-8.03-6.7-8.03c-4.05,0-6.7,3.75-6.7,7.9
			s2.72,7.96,6.88,7.96c1.21,0,2.28-0.31,3.18-0.82l-2.08-3.7h1.46l1.13,2.23c0.1,0.23,0.03,0.56,0,0.82l0.31,0.05
			c0.03-0.28-0.03-0.64,0.18-0.82C351.54,298.86,352.72,296.73,352.72,294.78z"/>
		<path d="M371.17,297.4c0.03,4.29-3,6.62-6.9,6.62s-6.9-2.33-6.93-6.62c0-5.34,0.03-11.73,0.03-11.73h1.44v12.04
			c0.03,2.62,2.34,4.95,5.47,4.95c3.16,0,5.49-2.34,5.47-4.95c0-4.08,0-12.04,0-12.04h1.44V297.4z"/>
		<path d="M375.56,285.67h11.5v1.28h-10.04v6.72h9.39v1.28h-9.39v7.39h10.16v1.28h-11.63V285.67z"/>
		<path d="M398.97,296.12v7.52h-1.44v-17.96h4.93c3.82,0,6.98,0.82,6.98,5.13s-3.16,5.34-7.31,5.34
			C401.44,296.14,400.18,296.14,398.97,296.12z M402.64,294.68c2.77,0,5.31-0.28,5.31-3.95c0-3.54-2.34-3.57-5.31-3.57h-3.67v7.52
			H402.64z"/>
		<path d="M423.82,299.15c0.28,1.03,1.36,4.49,1.36,4.49h-1.41c-0.62-2.26-1.1-3.93-1.21-4.29c-0.9-2.9-2.93-3.34-4-3.39
			c-0.23,0-0.44,0-0.72,0c-0.67,0-1.92-0.03-3.49-0.03v7.7h-1.46v-17.96h5.03c3.75,0,6.83,0.82,6.83,5.03
			c0,2.64-1.57,3.62-3.52,4.31c-0.46,0.15-1.08,0.1-1.54,0.1v0.31c0.46,0,1.1-0.1,1.54,0.08
			C422.2,295.94,423.2,296.96,423.82,299.15z M414.35,294.45h3.65c2.77,0,5.31,0,5.31-3.7c0-3.54-2.36-3.36-5.31-3.36h-3.65V294.45z
			"/>
		<path d="M433.88,285.29c4.95,0,8.34,3.93,8.34,9.37s-3.39,9.39-8.34,9.39s-8.34-4.03-8.34-9.39S428.93,285.29,433.88,285.29z
			 M433.88,302.69c4.06,0,6.88-3.75,6.88-8.03c0-4.29-2.82-7.98-6.88-7.98c-4.08,0-6.9,3.7-6.9,7.98
			C426.98,298.94,429.8,302.69,433.88,302.69z"/>
		<path d="M447.43,303.64h-1.46v-17.96h1.57l7.54,15.58c0.23,0.49,0.26,1.18,0.26,1.72h0.31c0-0.54,0-1.23,0.26-1.72l7.55-15.58
			h1.51v17.96h-1.44v-13.37c0-0.54,0.26-1.21,0.38-1.75l-0.31-0.08c-0.13,0.51-0.26,1.23-0.51,1.72l-6.9,13.47h-1.41l-6.9-13.47
			c-0.26-0.49-0.38-1.18-0.51-1.72l-0.31,0.08c0.13,0.54,0.39,1.21,0.39,1.75V303.64z"/>
		<path d="M483.16,297.4c0.03,4.29-3,6.62-6.9,6.62s-6.9-2.33-6.93-6.62c0-5.34,0.03-11.73,0.03-11.73h1.44v12.04
			c0.03,2.62,2.34,4.95,5.47,4.95c3.16,0,5.49-2.34,5.47-4.95c0-4.08,0-12.04,0-12.04h1.44V297.4z"/>
		<path d="M487.55,285.67h11.5v1.28h-10.04v6.72h9.39v1.28h-9.39v7.39h10.16v1.28h-11.63V285.67z"/>
		<path d="M506.8,300.04c0.18,0.44,0.13,1.03,0.13,1.49h0.31c0-0.46-0.03-1.05,0.13-1.49l5.75-14.37h1.57l-6.62,17.96h-1.95
			l-6.62-17.96h1.54L506.8,300.04z"/>
		<path d="M518.23,285.67h11.5v1.28h-10.04v6.72h9.39v1.28h-9.39v7.39h10.16v1.28h-11.63V285.67z"/>
		<path d="M370.82,311.29h2.26l7.06,17.99h-1.72l-2.67-6.52h-7.55l-2.44,6.52h-1.8L370.82,311.29z M372.17,313.7
			c-0.15-0.41-0.1-0.95-0.1-1.39h-0.31c0,0.44,0.05,0.98-0.1,1.39l-3,7.57h6.54L372.17,313.7z"/>
		<path d="M384.39,329.3h-1.46v-17.96h1.57l7.55,15.58c0.23,0.49,0.26,1.18,0.26,1.72h0.31c0-0.54,0-1.23,0.26-1.72l7.54-15.58h1.51
			v17.96h-1.44v-13.37c0-0.54,0.26-1.21,0.38-1.75l-0.31-0.08c-0.13,0.51-0.26,1.23-0.51,1.72l-6.9,13.47h-1.41l-6.9-13.47
			c-0.26-0.49-0.39-1.18-0.51-1.72l-0.31,0.08c0.13,0.54,0.38,1.21,0.38,1.75V329.3z"/>
		<path d="M411.96,310.95c4.95,0,8.34,3.93,8.34,9.37s-3.39,9.39-8.34,9.39c-4.95,0-8.34-4.03-8.34-9.39
			S407.01,310.95,411.96,310.95z M411.96,328.35c4.06,0,6.88-3.75,6.88-8.03c0-4.29-2.82-7.98-6.88-7.98c-4.08,0-6.9,3.7-6.9,7.98
			C405.06,324.61,407.88,328.35,411.96,328.35z"/>
		<path d="M434.98,324.81c0.28,1.03,1.36,4.49,1.36,4.49h-1.41c-0.62-2.26-1.1-3.93-1.21-4.29c-0.9-2.9-2.93-3.34-4-3.39
			c-0.23,0-0.44,0-0.72,0c-0.67,0-1.92-0.03-3.49-0.03v7.7h-1.46v-17.96h5.03c3.75,0,6.83,0.82,6.83,5.03
			c0,2.64-1.57,3.62-3.52,4.31c-0.46,0.15-1.08,0.1-1.54,0.1v0.31c0.46,0,1.1-0.1,1.54,0.08
			C433.37,321.6,434.37,322.63,434.98,324.81z M425.51,320.12h3.64c2.77,0,5.31,0,5.31-3.7c0-3.54-2.36-3.36-5.31-3.36h-3.64V320.12
			z"/>
		<path d="M447.95,321.78v7.52h-1.44v-17.96h4.93c3.82,0,6.98,0.82,6.98,5.13s-3.16,5.34-7.32,5.34
			C450.41,321.81,449.15,321.81,447.95,321.78z M451.62,320.35c2.77,0,5.31-0.28,5.31-3.95c0-3.54-2.33-3.57-5.31-3.57h-3.67v7.52
			H451.62z"/>
		<path d="M472.79,324.81c0.28,1.03,1.36,4.49,1.36,4.49h-1.41c-0.62-2.26-1.1-3.93-1.21-4.29c-0.9-2.9-2.93-3.34-4-3.39
			c-0.23,0-0.44,0-0.72,0c-0.67,0-1.92-0.03-3.49-0.03v7.7h-1.46v-17.96h5.03c3.75,0,6.83,0.82,6.83,5.03
			c0,2.64-1.57,3.62-3.52,4.31c-0.46,0.15-1.08,0.1-1.54,0.1v0.31c0.46,0,1.1-0.1,1.54,0.08
			C471.18,321.6,472.18,322.63,472.79,324.81z M463.32,320.12h3.64c2.77,0,5.31,0,5.31-3.7c0-3.54-2.36-3.36-5.31-3.36h-3.64V320.12
			z"/>
		<path d="M482.85,310.95c4.95,0,8.34,3.93,8.34,9.37s-3.39,9.39-8.34,9.39s-8.34-4.03-8.34-9.39S477.9,310.95,482.85,310.95z
			 M482.85,328.35c4.06,0,6.88-3.75,6.88-8.03c0-4.29-2.82-7.98-6.88-7.98c-4.08,0-6.9,3.7-6.9,7.98
			C475.95,324.61,478.77,328.35,482.85,328.35z"/>
		<path d="M496.43,321.78v7.52H495v-17.96h4.93c3.82,0,6.98,0.82,6.98,5.13s-3.16,5.34-7.32,5.34
			C498.9,321.81,497.64,321.81,496.43,321.78z M500.1,320.35c2.77,0,5.31-0.28,5.31-3.95c0-3.54-2.33-3.57-5.31-3.57h-3.67v7.52
			H500.1z"/>
		<path d="M510.19,311.34h1.44v17.96h-1.44V311.34z"/>
		<path d="M521.64,310.95c4.95,0,8.34,3.93,8.34,9.37s-3.39,9.39-8.34,9.39s-8.34-4.03-8.34-9.39S516.68,310.95,521.64,310.95z
			 M521.64,328.35c4.06,0,6.88-3.75,6.88-8.03c0-4.29-2.82-7.98-6.88-7.98c-4.08,0-6.9,3.7-6.9,7.98
			C514.73,324.61,517.56,328.35,521.64,328.35z"/>
	</g>
	<g>
		<path d="M49.78,89.52v-39.2h-12.6v-9.8h35.77v9.8H60.28v39.2H49.78z"/>
		<path d="M99.83,39.46c13.51,0,24.5,12.04,24.5,25.55c0,13.51-10.99,25.62-24.5,25.62c-13.51,0-24.5-11.13-24.5-25.62
			C75.33,50.52,86.32,39.46,99.83,39.46z M99.83,80.49c9.73,0,14-8.26,14-15.47c0-7.21-4.27-15.4-14-15.4s-14,8.19-14,15.4
			C85.83,72.22,90.1,80.49,99.83,80.49z"/>
		<path d="M137.63,89.52h-11.97l17.29-25.62l-16.24-23.38h12.11l8.26,13.72c1.12,1.89,0.98,4.55,0.98,6.72h1.75
			c0-2.17-0.07-4.83,1.12-6.72l8.61-13.72h12.11L155.14,64.8l17.57,24.71h-11.97l-9.8-15.26c-1.19-1.89-1.12-4.55-1.12-6.72h-1.75
			c0,2.17,0.14,4.9-0.98,6.72L137.63,89.52z"/>
		<path d="M178.72,40.51h10.5v49h-10.5V40.51z"/>
		<path d="M195.52,64.94c0.07-14.56,10.92-25.48,25.69-25.48c16.17,0,22.61,8.75,23.38,17.99h-10.43c-1.05-3.36-2.8-7.84-12.74-7.84
			c-8.47,0-15.4,4.9-15.4,15.4c0,10.43,6.86,15.4,15.26,15.4c10.57,0,12.53-4.48,13.58-7.91h10.43
			c-1.26,11.34-8.19,18.06-23.73,18.06C206.58,90.57,195.59,79.58,195.52,64.94z"/>
		<path d="M272.24,39.46c13.51,0,24.5,12.04,24.5,25.55c0,13.51-10.99,25.62-24.5,25.62s-24.5-11.13-24.5-25.62
			C247.74,50.52,258.73,39.46,272.24,39.46z M272.24,80.49c9.73,0,14-8.26,14-15.47c0-7.21-4.27-15.4-14-15.4s-14,8.19-14,15.4
			C258.24,72.22,262.51,80.49,272.24,80.49z"/>
		<path d="M337.06,53.39C333,49.68,327.96,48,321.24,48c-3.99,0-7.56,1.61-7.56,4.27c0,6.51,32.41,5.6,32.41,23.31
			c0,8.96-9.73,14.98-24.15,14.98c-8.96,0-14.56-2.59-21-9.73l7.42-5.95c3.64,3.85,7.14,5.95,15.19,5.95c5.88,0,9.31-2.1,9.31-5.11
			c0-8.26-30.66-7.56-30.66-22.89c0-7.7,9.17-13.37,21.7-13.37c7.63,0,14.07,2.45,20.51,7.84L337.06,53.39z"/>
	</g>
	<g>
		<polygon points="105.94,25.35 94.75,38.52 99.65,43.42 112.82,32.23 		"/>
	</g>
	<g>
		<path style="fill:#F4F4F4;" d="M114.24,30.81l-6.88-6.88l-1.53-1.53l-1.4,1.65L93.23,37.22l-1.19,1.41l1.3,1.3l4.9,4.9l1.3,1.3
			l1.41-1.19l13.17-11.19l1.65-1.4L114.24,30.81z M112.82,32.23L99.65,43.42l-4.9-4.9l11.19-13.17L112.82,32.23z"/>
	</g>
	<g>
		<path d="M40.7,293.23c3.41,0,5.14,3.02,5.14,7.03s-1.73,7.05-5.14,7.05c-3.43,0-5.16-3.04-5.16-7.05S37.28,293.23,40.7,293.23z
			 M40.7,305.57c2.37,0,3.31-2.54,3.31-5.31s-0.94-5.28-3.31-5.28c-2.39,0-3.33,2.5-3.33,5.28S38.32,305.57,40.7,305.57z"/>
		<path d="M47.83,295.19v-1.68h9.42v1.68c-1.77,2.04-5.93,7.57-6.39,11.8h-2.06c0.37-3.89,3.68-8.84,5.49-11.07
			c0.35-0.44,1.02-0.73,1.54-0.96l-0.15-0.31c-0.5,0.23-1.16,0.54-1.71,0.54H47.83z"/>
		<path d="M59.13,305.01h1.98V307h-1.98V305.01z"/>
		<path d="M65.56,305.52l0.13,0.33c0.52-0.23,1.17-0.54,1.73-0.54h5.28v1.7h-8.84v-1.66c1.41-1.43,2.46-2.68,5.12-5.26
			c3-2.93,1.56-5.04-0.46-5.04c-2.06,0-2.52,1.35-2.52,2.62h-1.91c0-1.96,1.1-4.43,4.68-4.43c3.33,0,5.22,3.91,2.73,6.62
			c-1.69,1.87-3.47,3.77-4.37,4.76C66.75,305.03,66.08,305.3,65.56,305.52z"/>
		<path d="M79.88,293.23c3.41,0,5.14,3.02,5.14,7.03s-1.73,7.05-5.14,7.05c-3.43,0-5.16-3.04-5.16-7.05S76.45,293.23,79.88,293.23z
			 M79.88,305.57c2.37,0,3.31-2.54,3.31-5.31s-0.94-5.28-3.31-5.28c-2.39,0-3.33,2.5-3.33,5.28S77.49,305.57,79.88,305.57z"/>
		<path d="M88.6,305.52l0.13,0.33c0.52-0.23,1.17-0.54,1.73-0.54h5.28v1.7H86.9v-1.66c1.41-1.43,2.46-2.68,5.12-5.26
			c3-2.93,1.56-5.04-0.46-5.04c-2.06,0-2.52,1.35-2.52,2.62h-1.91c0-1.96,1.1-4.43,4.68-4.43c3.33,0,5.22,3.91,2.73,6.62
			c-1.69,1.87-3.47,3.77-4.37,4.76C89.79,305.03,89.12,305.3,88.6,305.52z"/>
		<path d="M102.92,293.23c3.41,0,5.14,3.02,5.14,7.03s-1.73,7.05-5.14,7.05c-3.43,0-5.16-3.04-5.16-7.05S99.49,293.23,102.92,293.23
			z M102.92,305.57c2.37,0,3.31-2.54,3.31-5.31s-0.94-5.28-3.31-5.28c-2.39,0-3.33,2.5-3.33,5.28S100.53,305.57,102.92,305.57z"/>
		<path d="M48.62,323.84h-0.27c0,0.27-0.69,2.62-3.25,2.7c-0.27,0.02-0.52,0-0.75-0.02c-2.58-0.29-4.39-2.46-4.39-5.14
			c0-2.68,1.85-4.74,4.45-5.01c0.27-0.02,0.52-0.04,0.79-0.02c1.27,0.04,2.31,0.5,2.97,1.21c0.39,0.42,0.5,1.12,0.67,1.6l0.33-0.12
			c-0.17-0.48-0.48-1.08-0.5-1.6l-0.04-0.75h1.54v7.78c0,1.35,0.35,1.66,1.02,1.66c1.64,0,1.58-3.35,1.58-4.53
			c-0.02-4.85-3.47-7.76-7.45-7.76c-4.22,0-7.49,3.14-7.49,7.68c0,4.83,3.7,7.22,7.72,7.22c0.77,0,1.54-0.08,2.31-0.25l0.4,1.62
			c-0.94,0.19-1.85,0.27-2.73,0.27c-5.39,0-9.4-3.37-9.38-8.9c0-5.45,3.89-9.26,9.13-9.26c5.18,0,9.17,3.71,9.19,9.28
			c0,4.06-1.21,6.12-3.29,6.12c-1.54,0-2.54-0.98-2.54-2.52V323.84z M45.04,324.92c2.14,0,3.22-1.73,3.33-3.54
			c0-2.14-1.19-3.43-3.31-3.43c-2.18,0-3.33,1.5-3.33,3.43C41.72,323.32,42.86,324.92,45.04,324.92z"/>
		<path d="M60.19,326.25v-11.82h-3.87v-1.66h9.55v1.66H62v11.82H60.19z"/>
		<path d="M73.64,312.48c3.72,0,6.45,3.08,6.45,7.03c0,3.93-2.73,7.05-6.45,7.05c-3.72,0-6.45-3.04-6.45-7.05
			C67.19,315.5,69.93,312.48,73.64,312.48z M73.64,324.82c2.89,0,4.64-2.6,4.64-5.32c0-2.73-1.75-5.29-4.64-5.29
			c-2.91,0-4.66,2.56-4.66,5.29C68.98,322.22,70.73,324.82,73.64,324.82z"/>
		<path d="M82.96,326.25h-1.91l4.6-7.05l-4.31-6.43h2.06l2.91,4.54c0.27,0.4,0.25,0.96,0.25,1.44h0.33
			c0.02-0.46,0.02-1.04,0.29-1.43l3.18-4.56h1.91l-4.41,6.68l4.7,6.8h-2.06l-3.31-4.97c-0.27-0.39-0.27-0.96-0.27-1.45h-0.33
			c0,0.48-0.02,1.04-0.27,1.45L82.96,326.25z"/>
		<path d="M94.49,312.77h1.79v13.48h-1.79V312.77z"/>
		<path d="M97.72,319.49c0.02-4.01,2.83-7.01,6.66-7.01c3.43,0,5.68,1.89,6.05,4.53h-1.87c-0.39-1.52-1.58-2.81-4.18-2.81
			c-2.83,0-4.85,2.35-4.85,5.3c0,2.96,2.04,5.33,4.89,5.33c2.66,0,3.87-1.29,4.26-2.81h1.87c-0.4,2.77-2.7,4.53-6.1,4.53
			C100.57,326.54,97.74,323.51,97.72,319.49z"/>
		<path d="M118.34,312.48c3.72,0,6.45,3.08,6.45,7.03c0,3.93-2.73,7.05-6.45,7.05s-6.45-3.04-6.45-7.05
			C111.89,315.5,114.63,312.48,118.34,312.48z M118.34,324.82c2.89,0,4.64-2.6,4.64-5.32c0-2.73-1.75-5.29-4.64-5.29
			c-2.91,0-4.66,2.56-4.66,5.29C113.68,322.22,115.44,324.82,118.34,324.82z"/>
		<path d="M135.42,315.81c-0.46-0.9-1.75-1.73-3.64-1.73c-1.64,0-3.31,0.67-3.31,1.95c0,2.23,8.86,1.98,8.86,6.53
			c0,2.73-2.62,3.99-5.58,3.99c-2.77,0-4.62-1.44-5.37-3.37l1.68-0.42c0.62,1.48,2.2,2.12,3.77,2.12c2.18,0,3.52-0.88,3.52-2.08
			c0-3.18-8.74-2.54-8.74-6.68c0-2.5,2.77-3.62,5.37-3.62c2.73,0,4.53,1.48,5.1,2.91L135.42,315.81z"/>
		<path d="M143,312.73h2.29l5.26,13.5h-1.98l-1.89-4.79h-4.99l-1.75,4.79h-2L143,312.73z M144.39,315.29
			c-0.15-0.35-0.08-0.83-0.08-1.21h-0.35c0,0.38,0.08,0.87-0.06,1.21l-1.93,4.64h4.33L144.39,315.29z"/>
		<path d="M153.99,320.6v5.64h-1.81v-13.48h4.37c2.87,0,5.24,0.62,5.24,3.85c0,3.23-2.35,4-5.47,4
			C155.8,320.62,154.92,320.62,153.99,320.6z M156.42,319.01c1.87,0,3.58-0.15,3.58-2.43c0-2.16-1.58-2.18-3.58-2.18h-2.43v4.6
			H156.42z"/>
		<path d="M165.58,320.6v5.64h-1.81v-13.48h4.37c2.87,0,5.24,0.62,5.24,3.85c0,3.23-2.35,4-5.47,4
			C167.39,320.62,166.51,320.62,165.58,320.6z M168.01,319.01c1.87,0,3.58-0.15,3.58-2.43c0-2.16-1.58-2.18-3.58-2.18h-2.43v4.6
			H168.01z"/>
		<path d="M178.15,312.73h2.29l5.26,13.5h-1.98l-1.89-4.79h-4.99l-1.75,4.79h-2L178.15,312.73z M179.54,315.29
			c-0.15-0.35-0.08-0.83-0.08-1.21h-0.35c0,0.38,0.08,0.87-0.06,1.21l-1.93,4.64h4.33L179.54,315.29z"/>
		<path d="M196.31,322.88c0.21,0.77,1.04,3.37,1.04,3.37h-1.83c-0.44-1.69-0.79-2.95-0.87-3.21c-0.64-2.18-2.08-2.23-2.83-2.27
			c-0.15,0.02-0.31,0.02-0.5,0.02c-0.5,0-1.44-0.02-2.16-0.02v5.49h-1.77v-13.48h4.29c2.91,0,5.33,0.62,5.33,3.77
			c0,1.85-1.06,2.62-2.39,3.14c-0.48,0.19-1.17,0.12-1.69,0.12v0.35c0.52,0,1.23-0.15,1.69,0.12
			C195.38,320.66,195.94,321.45,196.31,322.88z M189.17,319.16h2.46c1.87,0,3.58-0.35,3.58-2.58c0-2.18-1.58-2.33-3.58-2.33h-2.46
			V319.16z"/>
		<path d="M199.77,312.77h9.01v1.66h-7.24v4.06h6.76v1.66h-6.76v4.45h7.34v1.66h-9.11V312.77z"/>
		<path d="M219.76,324.59v1.66h-8.59v-13.48h1.77v11.82H219.76z"/>
	</g>
	<g>
		<path d="M404.18,193.38h1.68v8.98h-1.68V193.38z"/>
		<path d="M409.07,202.36h-1.48v-9.18h3.76c2.54,0,4.46,1.82,4.46,4.49c0,2.67-1.99,4.71-4.53,4.7L409.07,202.36z M411.05,200.78
			c1.8,0,3.14-1.46,3.14-3.08c0-1.63-1.28-2.93-3.08-2.93h-1.83v6.01H411.05z"/>
		<path d="M417.17,193.38h6.26v1.57h-4.63V197h4.31v1.56h-4.31v2.23h4.7v1.56h-6.33V193.38z"/>
		<path d="M426.28,202.36h-1.68v-8.98h1.68l4.09,5.43c0.33,0.44,0.54,1.14,0.72,1.67l0.28-0.09c-0.18-0.53-0.44-1.21-0.44-1.77
			v-5.24h1.68v8.98h-1.68l-4.09-5.41c-0.35-0.45-0.55-1.14-0.73-1.68l-0.27,0.1c0.18,0.53,0.44,1.21,0.44,1.77V202.36z"/>
		<path d="M436.19,202.36v-7.42h-2.4v-1.57h6.48v1.57h-2.4v7.42H436.19z"/>
		<path d="M441.64,193.38h1.68v8.98h-1.68V193.38z"/>
		<path d="M446.53,202.36h-1.48v-9.18h3.76c2.54,0,4.46,1.82,4.46,4.49c0,2.67-1.99,4.71-4.53,4.7L446.53,202.36z M448.51,200.78
			c1.8,0,3.14-1.46,3.14-3.08c0-1.63-1.28-2.93-3.08-2.93h-1.83v6.01H448.51z"/>
		<path d="M456.74,193.35h1.92l3.46,9h-1.76l-1.21-3.13h-2.86l-1.1,3.13h-1.77L456.74,193.35z M457.9,195.58
			c-0.12-0.27-0.05-0.64-0.05-0.92h-0.3c0,0.28,0.06,0.66-0.05,0.92l-1.05,2.39h2.5L457.9,195.58z"/>
		<path d="M464.55,202.36h-1.48v-9.18h3.76c2.54,0,4.46,1.82,4.46,4.49c0,2.67-1.99,4.71-4.53,4.7L464.55,202.36z M466.53,200.78
			c1.8,0,3.14-1.46,3.14-3.08c0-1.63-1.28-2.93-3.08-2.93h-1.83v6.01H466.53z"/>
		<path d="M483.15,201.64c0-0.51,0.23-1.15,0.36-1.65l-0.27-0.06c-0.14,0.49-0.17,1.22-0.51,1.6c-0.45,0.49-1.28,1.04-2.61,1.04
			c-2.64,0-4.7-2.03-4.7-4.7c0-2.67,2.01-4.68,4.77-4.68c1.99,0,3.59,0.92,4.2,2.54c0,0-1.68,0.39-1.67,0.37
			c-0.4-0.82-1.37-1.32-2.63-1.32c-1.77,0-2.99,1.28-2.99,3.09c0,1.81,1.31,3.11,3.21,3.11c2.04,0,2.64-1.32,2.64-2.03h-2.41v-1.45
			h4.22v4.86h-1.62V201.64z"/>
		<path d="M492.62,200.12c0.12,0.51,0.68,2.25,0.68,2.25h-1.73c-0.28-1.13-0.5-1.96-0.54-2.14c-0.41-1.45-1.31-1.3-1.78-1.32
			c-0.09,0-0.19,0-0.31,0c-0.31,0-0.96,0-1.12,0v3.46h-1.63v-8.98h3.21c2.01,0,3.68,0.41,3.68,2.51c0,1.16-0.6,1.67-1.41,2.01
			c-0.42,0.19-1.04,0.12-1.5,0.12v0.3c0.46,0,1.12-0.13,1.5,0.13C492.18,198.76,492.41,199.31,492.62,200.12z M487.82,197.51h1.45
			c1.12,0,2.13-0.45,2.13-1.59c0-1.13-0.94-1.42-2.13-1.42h-1.45V197.51z"/>
		<path d="M496.82,193.35h1.92l3.46,9h-1.76l-1.21-3.13h-2.86l-1.1,3.13h-1.77L496.82,193.35z M497.98,195.58
			c-0.12-0.27-0.05-0.64-0.05-0.92h-0.29c0,0.28,0.06,0.66-0.05,0.92l-1.05,2.39h2.5L497.98,195.58z"/>
		<path d="M504.59,195.01v2.31h3.88v1.62h-3.88v3.43h-1.68v-8.98h6.26v1.63H504.59z"/>
		<path d="M510.75,193.38h1.68v8.98h-1.68V193.38z"/>
		<path d="M513.53,197.86c0-2.67,1.96-4.67,4.62-4.67c2.73,0,4.02,1.49,4.2,3.21h-1.69c-0.21-0.76-0.69-1.59-2.49-1.59
			c-1.66,0-2.95,1.13-2.95,3.07c0,1.92,1.28,3.07,2.95,3.07c1.89,0,2.39-0.83,2.61-1.59h1.69c-0.24,2-1.6,3.21-4.26,3.21
			C515.51,202.56,513.53,200.54,513.53,197.86z"/>
		<path d="M525.99,193.35h1.92l3.46,9h-1.76l-1.21-3.13h-2.86l-1.1,3.13h-1.77L525.99,193.35z M527.16,195.58
			c-0.12-0.27-0.05-0.64-0.05-0.92h-0.3c0,0.28,0.06,0.66-0.05,0.92l-1.05,2.39h2.5L527.16,195.58z"/>
	</g>
	<g>
		<g>
			<path d="M499.04,189.18l1.13,1.13l-2.39,2.08l-0.82-0.82L499.04,189.18z"/>
		</g>
	</g>
</g>
</svg>
