<?xml version="1.0" encoding="utf-8"?>
<!-- Generator: Adobe Illustrator 25.0.0, SVG Export Plug-In . SVG Version: 6.00 Build 0)  -->
<svg version="1.1" id="Layer_1" xmlns="http://www.w3.org/2000/svg" xmlns:xlink="http://www.w3.org/1999/xlink" x="0px" y="0px"
	 viewBox="0 0 601.45 400.52" style="enable-background:new 0 0 601.45 400.52;" xml:space="preserve">
<g>
	<g>
		<g>
			<rect x="34.7" y="34.23" style="fill:#B2E2FB;" width="565.38" height="365.38"/>
		</g>
		<g>
			<g>
				<path d="M599.44,34.88v364.1H35.34V34.88H599.44 M600.72,33.59H34.06v366.67h566.67V33.59L600.72,33.59z"/>
			</g>
		</g>
	</g>
	<g>
		<g>
			<rect x="18.03" y="17.57" style="fill:#ED664D;" width="565.38" height="365.38"/>
		</g>
		<g>
			<path d="M582.77,18.21v364.1H18.67V18.21H582.77 M584.06,16.93H17.39v366.67h566.67V16.93L584.06,16.93z"/>
		</g>
	</g>
	<g>
		<g>
			<rect x="1.36" y="0.9" style="fill:#F4F4F4;" width="565.38" height="365.38"/>
		</g>
		<g>
			<path d="M566.11,1.54v364.1H2.01V1.54H566.11 M567.39,0.26H0.72v366.67h566.67V0.26L567.39,0.26z"/>
		</g>
	</g>
	<g>
		<path d="M473.47,215.8v1.56h-5.98v-8.98h1.63v7.42H473.47z"/>
		<path d="M478.48,208.19c2.48,0,4.43,2.16,4.43,4.69c0,2.53-1.95,4.7-4.43,4.7s-4.43-2.04-4.43-4.7S476,208.19,478.48,208.19z
			 M478.48,215.94c1.83,0,2.75-1.58,2.75-3.07c0-1.49-0.91-3.05-2.75-3.05s-2.73,1.56-2.73,3.05
			C475.75,214.36,476.64,215.94,478.48,215.94z"/>
		<path d="M491.5,216.64c0-0.51,0.23-1.15,0.36-1.65l-0.27-0.06c-0.14,0.49-0.17,1.22-0.51,1.6c-0.45,0.49-1.28,1.04-2.61,1.04
			c-2.64,0-4.7-2.03-4.7-4.7c0-2.67,2.01-4.69,4.77-4.69c1.99,0,3.59,0.93,4.2,2.54c0,0-1.68,0.39-1.67,0.37
			c-0.4-0.82-1.37-1.32-2.63-1.32c-1.77,0-2.99,1.28-2.99,3.09c0,1.81,1.31,3.11,3.21,3.11c2.04,0,2.64-1.32,2.64-2.03h-2.41v-1.45
			h4.22v4.86h-1.62V216.64z"/>
		<path d="M498.54,208.19c2.48,0,4.43,2.16,4.43,4.69c0,2.53-1.95,4.7-4.43,4.7s-4.43-2.04-4.43-4.7S496.06,208.19,498.54,208.19z
			 M498.54,215.94c1.83,0,2.75-1.58,2.75-3.07c0-1.49-0.91-3.05-2.75-3.05s-2.73,1.56-2.73,3.05
			C495.8,214.36,496.7,215.94,498.54,215.94z"/>
		<path d="M505.94,217.36v-7.42h-2.4v-1.57h6.48v1.57h-2.4v7.42H505.94z"/>
		<path d="M511.4,208.38h1.68v8.98h-1.68V208.38z"/>
		<path d="M516.39,213.6v3.76h-1.68v-8.98h3.36c1.91,0,3.49,0.41,3.49,2.57s-1.57,2.67-3.63,2.67
			C517.6,213.62,517.04,213.62,516.39,213.6z M517.8,212.2c1.1,0,2.12-0.09,2.12-1.26c0-1.13-0.94-1.14-2.12-1.14h-1.41v2.4H517.8z"
			/>
		<path d="M526.35,208.19c2.48,0,4.43,2.16,4.43,4.69c0,2.53-1.95,4.7-4.43,4.7s-4.43-2.04-4.43-4.7S523.87,208.19,526.35,208.19z
			 M526.35,215.94c1.83,0,2.75-1.58,2.75-3.07c0-1.49-0.91-3.05-2.75-3.05s-2.73,1.56-2.73,3.05
			C523.62,214.36,524.51,215.94,526.35,215.94z"/>
	</g>
	<g>
		<path d="M453.07,212.82h1.69v-1.78h1.48v1.78h1.8v1.41h-1.8v1.81h-1.48v-1.81h-1.69V212.82z"/>
	</g>
	<g>
		<path d="M404.18,193.38h1.68v8.98h-1.68V193.38z"/>
		<path d="M409.07,202.36h-1.48v-9.18h3.76c2.54,0,4.46,1.82,4.46,4.49c0,2.67-1.99,4.71-4.53,4.7L409.07,202.36z M411.05,200.78
			c1.8,0,3.14-1.46,3.14-3.08c0-1.63-1.28-2.93-3.08-2.93h-1.83v6.01H411.05z"/>
		<path d="M417.17,193.38h6.26v1.57h-4.63V197h4.31v1.56h-4.31v2.23h4.7v1.56h-6.33V193.38z"/>
		<path d="M426.28,202.36h-1.68v-8.98h1.68l4.09,5.43c0.33,0.44,0.54,1.14,0.72,1.67l0.28-0.09c-0.18-0.53-0.44-1.21-0.44-1.77
			v-5.24h1.68v8.98h-1.68l-4.09-5.41c-0.35-0.45-0.55-1.14-0.73-1.68l-0.27,0.1c0.18,0.53,0.44,1.21,0.44,1.77V202.36z"/>
		<path d="M436.19,202.36v-7.42h-2.4v-1.57h6.48v1.57h-2.4v7.42H436.19z"/>
		<path d="M441.64,193.38h1.68v8.98h-1.68V193.38z"/>
		<path d="M446.53,202.36h-1.48v-9.18h3.76c2.54,0,4.46,1.82,4.46,4.49c0,2.67-1.99,4.71-4.53,4.7L446.53,202.36z M448.51,200.78
			c1.8,0,3.14-1.46,3.14-3.08c0-1.63-1.28-2.93-3.08-2.93h-1.83v6.01H448.51z"/>
		<path d="M456.74,193.35h1.92l3.46,9h-1.76l-1.21-3.13h-2.86l-1.1,3.13h-1.77L456.74,193.35z M457.9,195.58
			c-0.12-0.27-0.05-0.64-0.05-0.92h-0.3c0,0.28,0.06,0.66-0.05,0.92l-1.05,2.39h2.5L457.9,195.58z"/>
		<path d="M464.55,202.36h-1.48v-9.18h3.76c2.54,0,4.46,1.82,4.46,4.49c0,2.67-1.99,4.71-4.53,4.7L464.55,202.36z M466.53,200.78
			c1.8,0,3.14-1.46,3.14-3.08c0-1.63-1.28-2.93-3.08-2.93h-1.83v6.01H466.53z"/>
		<path d="M483.15,201.64c0-0.51,0.23-1.15,0.36-1.65l-0.27-0.06c-0.14,0.49-0.17,1.22-0.51,1.6c-0.45,0.49-1.28,1.04-2.61,1.04
			c-2.64,0-4.7-2.03-4.7-4.7c0-2.67,2.01-4.68,4.77-4.68c1.99,0,3.59,0.92,4.2,2.54c0,0-1.68,0.39-1.67,0.37
			c-0.4-0.82-1.37-1.32-2.63-1.32c-1.77,0-2.99,1.28-2.99,3.09c0,1.81,1.31,3.11,3.21,3.11c2.04,0,2.64-1.32,2.64-2.03h-2.41v-1.45
			h4.22v4.86h-1.62V201.64z"/>
		<path d="M492.62,200.12c0.12,0.51,0.68,2.25,0.68,2.25h-1.73c-0.28-1.13-0.5-1.96-0.54-2.14c-0.41-1.45-1.31-1.3-1.78-1.32
			c-0.09,0-0.19,0-0.31,0c-0.31,0-0.96,0-1.12,0v3.46h-1.63v-8.98h3.21c2.01,0,3.68,0.41,3.68,2.51c0,1.16-0.6,1.67-1.41,2.01
			c-0.42,0.19-1.04,0.12-1.5,0.12v0.3c0.46,0,1.12-0.13,1.5,0.13C492.18,198.76,492.41,199.31,492.62,200.12z M487.82,197.51h1.45
			c1.12,0,2.13-0.45,2.13-1.59c0-1.13-0.94-1.42-2.13-1.42h-1.45V197.51z"/>
		<path d="M496.82,193.35h1.92l3.46,9h-1.76l-1.21-3.13h-2.86l-1.1,3.13h-1.77L496.82,193.35z M497.98,195.58
			c-0.12-0.27-0.05-0.64-0.05-0.92h-0.29c0,0.28,0.06,0.66-0.05,0.92l-1.05,2.39h2.5L497.98,195.58z"/>
		<path d="M504.59,195.01v2.31h3.88v1.62h-3.88v3.43h-1.68v-8.98h6.26v1.63H504.59z"/>
		<path d="M510.75,193.38h1.68v8.98h-1.68V193.38z"/>
		<path d="M513.53,197.86c0-2.67,1.96-4.67,4.62-4.67c2.73,0,4.02,1.49,4.2,3.21h-1.69c-0.21-0.76-0.69-1.59-2.49-1.59
			c-1.66,0-2.95,1.13-2.95,3.07c0,1.92,1.28,3.07,2.95,3.07c1.89,0,2.39-0.83,2.61-1.59h1.69c-0.24,2-1.6,3.21-4.26,3.21
			C515.51,202.56,513.53,200.54,513.53,197.86z"/>
		<path d="M525.99,193.35h1.92l3.46,9h-1.76l-1.21-3.13h-2.86l-1.1,3.13h-1.77L525.99,193.35z M527.16,195.58
			c-0.12-0.27-0.05-0.64-0.05-0.92h-0.3c0,0.28,0.06,0.66-0.05,0.92l-1.05,2.39h2.5L527.16,195.58z"/>
	</g>
	<g>
		<g>
			<path d="M499.04,189.18l1.13,1.13l-2.39,2.08l-0.82-0.82L499.04,189.18z"/>
		</g>
	</g>
	<g>
		<path d="M406.36,246.06c0.03,4.29-3,6.62-6.9,6.62s-6.9-2.33-6.93-6.62c0-5.34,0.03-11.73,0.03-11.73h1.44v12.04
			c0.03,2.62,2.34,4.95,5.47,4.95c3.16,0,5.49-2.34,5.47-4.95c0-4.08,0-12.04,0-12.04h1.44V246.06z"/>
		<path d="M412.19,252.3h-1.44v-17.96h1.44l9.78,13.88c0.64,0.92,1.16,2.28,1.49,3.36l0.31-0.1c-0.33-1.05-0.72-2.46-0.72-3.59
			v-13.55h1.44v17.96h-1.44l-9.78-13.86c-0.64-0.92-1.16-2.28-1.49-3.36l-0.31,0.1c0.33,1.05,0.72,2.46,0.72,3.59V252.3z"/>
		<path d="M432.57,234.28h2.26l7.06,17.99h-1.72l-2.67-6.52h-7.55l-2.44,6.52h-1.8L432.57,234.28z M433.93,236.7
			c-0.15-0.41-0.1-0.95-0.1-1.39h-0.31c0,0.44,0.05,0.98-0.1,1.39l-3,7.57h6.54L433.93,236.7z"/>
		<path d="M452.54,252.3h-1.44v-17.96h1.44l9.78,13.88c0.64,0.92,1.16,2.28,1.49,3.36l0.31-0.1c-0.33-1.05-0.72-2.46-0.72-3.59
			v-13.55h1.44v17.96h-1.44l-9.78-13.86c-0.64-0.92-1.16-2.28-1.49-3.36l-0.31,0.1c0.33,1.05,0.72,2.46,0.72,3.59V252.3z"/>
		<path d="M483.03,246.06c0.03,4.29-3,6.62-6.9,6.62s-6.9-2.33-6.93-6.62c0-5.34,0.03-11.73,0.03-11.73h1.44v12.04
			c0.03,2.62,2.34,4.95,5.47,4.95c3.16,0,5.49-2.34,5.47-4.95c0-4.08,0-12.04,0-12.04h1.44V246.06z"/>
		<path d="M487.42,234.34h11.5v1.28h-10.04v6.72h9.39v1.28h-9.39v7.39h10.16v1.28h-11.63V234.34z"/>
		<path d="M506.67,248.71c0.18,0.44,0.13,1.03,0.13,1.49h0.31c0-0.46-0.03-1.05,0.13-1.49l5.75-14.37h1.57l-6.62,17.96h-1.95
			l-6.62-17.96h1.54L506.67,248.71z"/>
		<path d="M521.61,234.28h2.26l7.06,17.99h-1.72l-2.67-6.52h-7.55l-2.44,6.52h-1.8L521.61,234.28z M522.97,236.7
			c-0.15-0.41-0.1-0.95-0.1-1.39h-0.31c0,0.44,0.05,0.98-0.1,1.39l-3,7.57H526L522.97,236.7z"/>
		<path d="M387.91,275.76c0-0.56,0.23-1.31,0.33-1.87l-0.33-0.05c-0.08,0.56-0.05,1.36-0.31,1.87c-0.67,1.1-2.31,2.67-5.26,2.67
			c-4.85,0-8.6-4.06-8.6-9.39s3.52-9.37,8.26-9.37c3.46,0,6.26,1.85,7.37,5.08c0,0-1.31,0.77-1.28,0.74
			c-0.85-2.75-3.11-4.44-6.01-4.44c-4.11,0-6.9,3.9-6.9,7.98s3.03,8.01,7.03,8.01c4.31,0,5.31-3.8,5.31-5.85h-4.83v-1.36h6.39v8.19
			h-1.18V275.76z"/>
		<path d="M392.99,260h11.5v1.28h-10.04v6.72h9.39v1.28h-9.39v7.39h10.16v1.28h-11.63V260z"/>
		<path d="M409.93,277.97h-1.44V260h1.44l9.78,13.88c0.64,0.92,1.16,2.28,1.49,3.36l0.31-0.1c-0.33-1.05-0.72-2.46-0.72-3.59V260
			h1.44v17.96h-1.44l-9.78-13.86c-0.64-0.92-1.16-2.28-1.49-3.36l-0.31,0.1c0.33,1.05,0.72,2.46,0.72,3.59V277.97z"/>
		<path d="M427.26,260h11.5v1.28h-10.04v6.72h9.39v1.28h-9.39v7.39h10.16v1.28h-11.63V260z"/>
		<path d="M453.69,273.48c0.28,1.03,1.36,4.49,1.36,4.49h-1.41c-0.62-2.26-1.1-3.93-1.21-4.29c-0.9-2.9-2.93-3.34-4-3.39
			c-0.23,0-0.44,0-0.72,0c-0.67,0-1.92-0.03-3.49-0.03v7.7h-1.46V260h5.03c3.75,0,6.83,0.82,6.83,5.03c0,2.64-1.57,3.62-3.52,4.31
			c-0.46,0.15-1.08,0.1-1.54,0.1v0.31c0.46,0,1.1-0.1,1.54,0.08C452.08,270.27,453.08,271.3,453.69,273.48z M444.22,268.78h3.64
			c2.77,0,5.31,0,5.31-3.7c0-3.54-2.36-3.36-5.31-3.36h-3.64V268.78z"/>
		<path d="M461.81,259.95h2.26l7.06,17.99h-1.72l-2.67-6.52h-7.55l-2.44,6.52h-1.8L461.81,259.95z M463.17,262.36
			c-0.15-0.41-0.1-0.95-0.1-1.39h-0.31c0,0.44,0.05,0.98-0.1,1.39l-3,7.57h6.54L463.17,262.36z"/>
		<path d="M471.74,268.96c0-5.34,3.59-9.34,8.5-9.34c3.67,0,7.11,2.05,7.73,5.65h-1.59c-0.62-2.54-2.82-4.34-6.16-4.34
			c-4.24,0-7.03,4.05-7.03,8.03c0,4,2.85,8.08,7.13,8.08c3.31,0,5.54-1.8,6.16-4.34h1.59c-0.59,3.39-4,5.65-7.78,5.65
			C475.36,278.35,471.74,274.32,471.74,268.96z"/>
		<path d="M491.43,260h1.44v17.96h-1.44V260z"/>
		<path d="M502.87,259.62c4.95,0,8.34,3.93,8.34,9.37s-3.39,9.39-8.34,9.39s-8.34-4.03-8.34-9.39S497.92,259.62,502.87,259.62z
			 M502.87,277.02c4.06,0,6.88-3.75,6.88-8.03c0-4.29-2.82-7.98-6.88-7.98c-4.08,0-6.9,3.7-6.9,7.98
			C495.97,273.27,498.79,277.02,502.87,277.02z"/>
		<path d="M516.4,277.97h-1.44V260h1.44l9.78,13.88c0.64,0.92,1.16,2.28,1.49,3.36l0.31-0.1c-0.33-1.05-0.72-2.46-0.72-3.59V260
			h1.44v17.96h-1.44l-9.78-13.86c-0.64-0.92-1.16-2.28-1.49-3.36l-0.31,0.1c0.33,1.05,0.72,2.46,0.72,3.59V277.97z"/>
		<path d="M395.48,304.05c-4.9,0-8.37-4.06-8.37-9.39s3.39-9.37,8.16-9.37c4.8,0,8.19,4.11,8.19,9.5c0,3.26-1.51,5.95-3.39,7.62
			l2.05,3.67h-1.46l-1.41-2.75c-0.13-0.23,0.03-0.51,0.15-0.75l-0.31-0.13c-0.1,0.26-0.26,0.49-0.51,0.59
			C397.74,303.48,396.92,304.05,395.48,304.05z M401.95,294.78c0-4.23-2.64-8.03-6.7-8.03s-6.7,3.75-6.7,7.9s2.72,7.96,6.88,7.96
			c1.21,0,2.28-0.31,3.18-0.82l-2.08-3.7H398l1.13,2.23c0.1,0.23,0.03,0.56,0,0.82l0.31,0.05c0.03-0.28-0.03-0.64,0.18-0.82
			C400.77,298.86,401.95,296.73,401.95,294.78z"/>
		<path d="M420.4,297.4c0.03,4.29-3,6.62-6.9,6.62s-6.9-2.33-6.93-6.62c0-5.34,0.03-11.73,0.03-11.73h1.44v12.04
			c0.03,2.62,2.34,4.95,5.47,4.95c3.16,0,5.49-2.34,5.47-4.95c0-4.08,0-12.04,0-12.04h1.44V297.4z"/>
		<path d="M424.79,285.67h11.5v1.28h-10.04v6.72h9.39v1.28h-9.39v7.39h10.16v1.28h-11.63V285.67z"/>
		<path d="M448.18,303.64h-1.46v-17.96h1.57l7.54,15.58c0.23,0.49,0.26,1.18,0.26,1.72h0.31c0-0.54,0-1.23,0.26-1.72l7.55-15.58
			h1.51v17.96h-1.44v-13.37c0-0.54,0.26-1.21,0.38-1.75l-0.31-0.08c-0.13,0.51-0.26,1.23-0.51,1.72l-6.9,13.47h-1.41l-6.9-13.47
			c-0.26-0.49-0.38-1.18-0.51-1.72l-0.31,0.08c0.13,0.54,0.39,1.21,0.39,1.75V303.64z"/>
		<path d="M473.79,285.62h2.26l7.06,17.99h-1.72l-2.67-6.52h-7.55l-2.44,6.52h-1.8L473.79,285.62z M475.15,288.03
			c-0.15-0.41-0.1-0.95-0.1-1.39h-0.31c0,0.44,0.05,0.98-0.1,1.39l-3,7.57h6.54L475.15,288.03z"/>
		<path d="M496.69,299.15c0.28,1.03,1.36,4.49,1.36,4.49h-1.41c-0.62-2.26-1.1-3.93-1.21-4.29c-0.9-2.9-2.93-3.34-4-3.39
			c-0.23,0-0.44,0-0.72,0c-0.67,0-1.92-0.03-3.49-0.03v7.7h-1.46v-17.96h5.03c3.75,0,6.83,0.82,6.83,5.03
			c0,2.64-1.57,3.62-3.52,4.31c-0.46,0.15-1.08,0.1-1.54,0.1v0.31c0.46,0,1.1-0.1,1.54,0.08
			C495.07,295.94,496.07,296.96,496.69,299.15z M487.22,294.45h3.64c2.77,0,5.31,0,5.31-3.7c0-3.54-2.36-3.36-5.31-3.36h-3.64
			V294.45z"/>
		<path d="M498.41,294.63c0-5.34,3.59-9.34,8.5-9.34c3.67,0,7.11,2.05,7.73,5.65h-1.59c-0.62-2.54-2.82-4.34-6.16-4.34
			c-4.24,0-7.03,4.05-7.03,8.03c0,4,2.85,8.08,7.13,8.08c3.31,0,5.54-1.8,6.16-4.34h1.59c-0.59,3.39-4,5.65-7.78,5.65
			C502.03,304.02,498.41,299.99,498.41,294.63z"/>
		<path d="M521.61,285.62h2.26l7.06,17.99h-1.72l-2.67-6.52h-7.55l-2.44,6.52h-1.8L521.61,285.62z M522.97,288.03
			c-0.15-0.41-0.1-0.95-0.1-1.39h-0.31c0,0.44,0.05,0.98-0.1,1.39l-3,7.57H526L522.97,288.03z"/>
		<path d="M365.91,328.02v1.28h-10.93v-17.96h1.46v16.68H365.91z"/>
		<path d="M372.79,311.29h2.26l7.06,17.99h-1.72l-2.67-6.52h-7.55l-2.44,6.52h-1.8L372.79,311.29z M374.15,313.7
			c-0.15-0.41-0.1-0.95-0.1-1.39h-0.31c0,0.44,0.05,0.98-0.1,1.39l-3,7.57h6.54L374.15,313.7z"/>
		<path d="M392.35,329.3h-1.03v-18.35h5.34c4.8,0,8.42,3.64,8.42,8.98s-3.75,9.42-8.55,9.39L392.35,329.3z M396.69,327.94
			c3.95,0,6.93-3.82,6.93-8.03c0-4.18-2.85-7.57-6.8-7.57h-4.06v15.61H396.69z"/>
		<path d="M409.01,311.34h1.44v17.96h-1.44V311.34z"/>
		<path d="M416.89,312.72v6.75h8.65v1.36h-8.65v8.47h-1.44v-17.96h11.5v1.38H416.89z"/>
		<path d="M430,311.34h11.5v1.28h-10.04v6.72h9.39v1.28h-9.39v7.39h10.16v1.28H430V311.34z"/>
		<path d="M456.44,324.81c0.28,1.03,1.36,4.49,1.36,4.49h-1.41c-0.62-2.26-1.1-3.93-1.21-4.29c-0.9-2.9-2.93-3.34-4-3.39
			c-0.23,0-0.44,0-0.72,0c-0.67,0-1.92-0.03-3.49-0.03v7.7h-1.46v-17.96h5.03c3.75,0,6.83,0.82,6.83,5.03
			c0,2.64-1.57,3.62-3.52,4.31c-0.46,0.15-1.08,0.1-1.54,0.1v0.31c0.46,0,1.1-0.1,1.54,0.08
			C454.82,321.6,455.83,322.63,456.44,324.81z M446.97,320.12h3.64c2.77,0,5.31,0,5.31-3.7c0-3.54-2.36-3.36-5.31-3.36h-3.64V320.12
			z"/>
		<path d="M461.5,311.34H473v1.28h-10.04v6.72h9.39v1.28h-9.39v7.39h10.16v1.28H461.5V311.34z"/>
		<path d="M478.44,329.3H477v-17.96h1.44l9.78,13.88c0.64,0.92,1.16,2.28,1.49,3.36l0.31-0.1c-0.33-1.05-0.72-2.46-0.72-3.59v-13.55
			h1.44v17.96h-1.44l-9.78-13.86c-0.64-0.92-1.16-2.28-1.49-3.36l-0.31,0.1c0.33,1.05,0.72,2.46,0.72,3.59V329.3z"/>
		<path d="M492.43,320.3c0-5.34,3.59-9.34,8.5-9.34c3.67,0,7.11,2.05,7.73,5.65h-1.59c-0.62-2.54-2.82-4.34-6.16-4.34
			c-4.24,0-7.03,4.05-7.03,8.03c0,4,2.85,8.08,7.13,8.08c3.31,0,5.54-1.8,6.16-4.34h1.59c-0.59,3.39-4,5.65-7.78,5.65
			C496.05,329.69,492.43,325.66,492.43,320.3z"/>
		<path d="M512.12,311.34h1.44v17.96h-1.44V311.34z"/>
		<path d="M521.61,311.29h2.26l7.06,17.99h-1.72l-2.67-6.52h-7.55l-2.44,6.52h-1.8L521.61,311.29z M522.97,313.7
			c-0.15-0.41-0.1-0.95-0.1-1.39h-0.31c0,0.44,0.05,0.98-0.1,1.39l-3,7.57H526L522.97,313.7z"/>
	</g>
	<g>
		<path d="M57.97,73.58c1.05,2.87,0.84,6.72,0.84,9.66h1.75c0-2.94-0.21-6.79,0.77-9.66l11.34-32.06h11.2l-18.06,49H53.49l-18.06-49
			h11.2L57.97,73.58z"/>
		<path d="M89.19,41.51h34.86v9.8H99.34v9.38h22.96v9.8H99.34v10.22h25.06v9.8H89.19V41.51z"/>
		<path d="M139.8,90.52h-10.5v-49h10.5l21.28,27.51c1.82,2.45,2.94,6.23,3.92,9.17l1.61-0.56c-0.98-2.94-2.45-6.58-2.45-9.66V41.51
			h10.5v49h-10.5l-21.21-27.44c-1.89-2.45-3.01-6.23-3.99-9.17l-1.61,0.56c0.98,2.94,2.45,6.58,2.45,9.66V90.52z"/>
		<path d="M218.34,55.58c1.47,2.31,1.61,5.67,1.61,8.33h1.75c0-2.66,0.07-6.02,1.54-8.33l8.96-14.07h11.2l-17.22,25.83v22.68h-10.5
			V67.34l-17.57-25.83h11.2L218.34,55.58z"/>
		<path d="M300.94,54.39c-4.06-3.71-9.1-5.39-15.82-5.39c-3.99,0-7.56,1.61-7.56,4.27c0,6.51,32.41,5.6,32.41,23.31
			c0,8.96-9.73,14.98-24.15,14.98c-8.96,0-14.56-2.59-21-9.73l7.42-5.95c3.64,3.85,7.14,5.95,15.19,5.95c5.88,0,9.31-2.1,9.31-5.11
			c0-8.26-30.66-7.56-30.66-22.89c0-7.7,9.17-13.37,21.7-13.37c7.63,0,14.07,2.45,20.51,7.84L300.94,54.39z"/>
		<path d="M316.34,41.51h10.5v49h-10.5V41.51z"/>
		<path d="M371.64,78.27c0.63,2.8,3.71,12.25,3.71,12.25h-10.78c-1.54-6.16-2.66-10.71-2.94-11.69c-2.17-7.91-6.86-6.58-9.38-6.72
			h-6.86v18.41h-10.15v-49h18.48c11.2,0,20.44,2.24,20.44,13.72c0,6.09-3.01,8.89-7.21,10.78c-2.59,1.19-6.3,0.77-9.17,0.77v1.75
			c2.87,0,6.79-0.77,9.17,0.84C369.82,71.19,370.73,74.27,371.64,78.27z M345.39,63.7h7.42c5.67,0,10.85-3.08,10.85-8.33
			c0-5.32-4.76-7.42-10.85-7.42h-7.42V63.7z"/>
		<path d="M401.81,73.58c1.05,2.87,0.84,6.72,0.84,9.66h1.75c0-2.94-0.21-6.79,0.77-9.66l11.34-32.06h11.2l-18.06,49h-12.32
			l-18.06-49h11.2L401.81,73.58z"/>
		<path d="M433.03,41.51h34.86v9.8h-24.71v9.38h22.96v9.8h-22.96v10.22h25.06v9.8h-35.21V41.51z"/>
	</g>
	<g>
		<path d="M40.7,293.23c3.41,0,5.14,3.02,5.14,7.03s-1.73,7.05-5.14,7.05c-3.43,0-5.16-3.04-5.16-7.05S37.28,293.23,40.7,293.23z
			 M40.7,305.57c2.37,0,3.31-2.54,3.31-5.31s-0.94-5.28-3.31-5.28c-2.39,0-3.33,2.5-3.33,5.28S38.32,305.57,40.7,305.57z"/>
		<path d="M51.73,299.97v-0.33c-0.48-0.02-1.1,0.04-1.52-0.15c-1.44-0.66-2.1-1.45-2.1-2.68c0-2.06,1.93-3.58,4.53-3.58
			s4.54,1.52,4.54,3.54c0,1.25-0.71,2.12-2.18,2.73c-0.42,0.19-1.06,0.12-1.52,0.12v0.35c0.46-0.02,1.1-0.1,1.54,0.08
			c1.66,0.63,2.43,1.54,2.43,3.35c0,2.46-1.79,3.89-4.91,3.89c-3.08,0-4.89-1.41-4.89-3.81c0-1.81,0.85-2.77,2.54-3.43
			C50.64,299.87,51.25,299.97,51.73,299.97z M55.62,303.43c0-1.5-1.1-2.25-3.04-2.25c-1.96,0-3.1,0.77-3.1,2.27
			c0,1.44,1.06,2.29,3.08,2.29S55.62,304.9,55.62,303.43z M55.45,296.73c0-1.23-1.06-1.98-2.81-1.98c-1.73,0-2.77,0.75-2.77,2
			c0,1.23,1.04,1.96,2.77,1.96S55.45,297.97,55.45,296.73z"/>
		<path d="M59.57,305.01h1.98V307h-1.98V305.01z"/>
		<path d="M66,305.52l0.13,0.33c0.52-0.23,1.17-0.54,1.73-0.54h5.28v1.7H64.3v-1.66c1.41-1.43,2.46-2.68,5.12-5.26
			c3-2.93,1.56-5.04-0.46-5.04c-2.06,0-2.52,1.35-2.52,2.62h-1.91c0-1.96,1.1-4.43,4.68-4.43c3.33,0,5.22,3.91,2.73,6.62
			c-1.69,1.87-3.47,3.77-4.37,4.76C67.19,305.03,66.52,305.3,66,305.52z"/>
		<path d="M80.32,293.23c3.41,0,5.14,3.02,5.14,7.03s-1.73,7.05-5.14,7.05c-3.43,0-5.16-3.04-5.16-7.05S76.89,293.23,80.32,293.23z
			 M80.32,305.57c2.37,0,3.31-2.54,3.31-5.31s-0.94-5.28-3.31-5.28c-2.39,0-3.33,2.5-3.33,5.28S77.93,305.57,80.32,305.57z"/>
		<path d="M89.04,305.52l0.13,0.33c0.52-0.23,1.17-0.54,1.73-0.54h5.28v1.7h-8.84v-1.66c1.41-1.43,2.46-2.68,5.12-5.26
			c3-2.93,1.56-5.04-0.46-5.04c-2.06,0-2.52,1.35-2.52,2.62h-1.91c0-1.96,1.1-4.43,4.68-4.43c3.33,0,5.22,3.91,2.73,6.62
			c-1.69,1.87-3.47,3.77-4.37,4.76C90.24,305.03,89.56,305.3,89.04,305.52z"/>
		<path d="M103.37,293.23c3.41,0,5.14,3.02,5.14,7.03s-1.73,7.05-5.14,7.05c-3.43,0-5.16-3.04-5.16-7.05S99.94,293.23,103.37,293.23
			z M103.37,305.57c2.37,0,3.31-2.54,3.31-5.31s-0.94-5.28-3.31-5.28c-2.39,0-3.33,2.5-3.33,5.28S100.98,305.57,103.37,305.57z"/>
		<path d="M48.62,323.84h-0.27c0,0.27-0.69,2.62-3.25,2.7c-0.27,0.02-0.52,0-0.75-0.02c-2.58-0.29-4.39-2.46-4.39-5.14
			c0-2.68,1.85-4.74,4.45-5.01c0.27-0.02,0.52-0.04,0.79-0.02c1.27,0.04,2.31,0.5,2.97,1.21c0.39,0.42,0.5,1.12,0.67,1.6l0.33-0.12
			c-0.17-0.48-0.48-1.08-0.5-1.6l-0.04-0.75h1.54v7.78c0,1.35,0.35,1.66,1.02,1.66c1.64,0,1.58-3.35,1.58-4.53
			c-0.02-4.85-3.47-7.76-7.45-7.76c-4.22,0-7.49,3.14-7.49,7.68c0,4.83,3.7,7.22,7.72,7.22c0.77,0,1.54-0.08,2.31-0.25l0.4,1.62
			c-0.94,0.19-1.85,0.27-2.73,0.27c-5.39,0-9.4-3.37-9.38-8.9c0-5.45,3.89-9.26,9.13-9.26c5.18,0,9.17,3.71,9.19,9.28
			c0,4.06-1.21,6.12-3.29,6.12c-1.54,0-2.54-0.98-2.54-2.52V323.84z M45.04,324.92c2.14,0,3.22-1.73,3.33-3.54
			c0-2.14-1.19-3.43-3.31-3.43c-2.18,0-3.33,1.5-3.33,3.43C41.72,323.32,42.86,324.92,45.04,324.92z"/>
		<path d="M61.98,322.78c0.19,0.48,0.13,1.17,0.13,1.71h0.35c0-0.54-0.04-1.23,0.13-1.71l3.83-10.01h1.95l-4.97,13.48h-2.23
			l-4.97-13.48h1.93L61.98,322.78z"/>
		<path d="M70.56,312.77h9.01v1.66h-7.24v4.06h6.76v1.66h-6.76v4.45h7.34v1.66h-9.11V312.77z"/>
		<path d="M83.75,326.25h-1.79v-13.48h1.79l6.74,9.28c0.5,0.67,0.85,1.71,1.12,2.52l0.31-0.12c-0.25-0.79-0.6-1.83-0.6-2.68v-9.01
			h1.81v13.48h-1.81l-6.74-9.26c-0.5-0.67-0.83-1.71-1.1-2.52l-0.33,0.12c0.27,0.79,0.6,1.83,0.6,2.68V326.25z"/>
		<path d="M99.25,317.7c0.31,0.42,0.33,1.06,0.35,1.58h0.33c0-0.52,0-1.15,0.29-1.6l3.14-4.91h1.93l-4.6,7.11v6.24h-1.79v-6.24
			l-4.99-7.11h1.93L99.25,317.7z"/>
		<path d="M115.24,315.81c-0.46-0.9-1.75-1.73-3.64-1.73c-1.64,0-3.31,0.67-3.31,1.95c0,2.23,8.86,1.98,8.86,6.53
			c0,2.73-2.62,3.99-5.58,3.99c-2.77,0-4.62-1.44-5.37-3.37l1.68-0.42c0.62,1.48,2.2,2.12,3.77,2.12c2.18,0,3.52-0.88,3.52-2.08
			c0-3.18-8.74-2.54-8.74-6.68c0-2.5,2.77-3.62,5.37-3.62c2.73,0,4.53,1.48,5.1,2.91L115.24,315.81z"/>
		<path d="M119.53,312.77h1.79v13.48h-1.79V312.77z"/>
		<path d="M133.44,322.88c0.21,0.77,1.04,3.37,1.04,3.37h-1.83c-0.44-1.69-0.79-2.95-0.87-3.21c-0.64-2.18-2.08-2.23-2.83-2.27
			c-0.15,0.02-0.31,0.02-0.5,0.02c-0.5,0-1.44-0.02-2.16-0.02v5.49h-1.77v-13.48h4.29c2.91,0,5.33,0.62,5.33,3.77
			c0,1.85-1.06,2.62-2.39,3.14c-0.48,0.19-1.17,0.12-1.69,0.12v0.35c0.52,0,1.23-0.15,1.69,0.12
			C132.51,320.66,133.07,321.45,133.44,322.88z M126.29,319.16h2.46c1.87,0,3.58-0.35,3.58-2.58c0-2.18-1.58-2.33-3.58-2.33h-2.46
			V319.16z"/>
		<path d="M140.71,322.78c0.19,0.48,0.13,1.17,0.13,1.71h0.35c0-0.54-0.04-1.23,0.13-1.71l3.83-10.01h1.95l-4.97,13.48h-2.23
			l-4.97-13.48h1.93L140.71,322.78z"/>
		<path d="M149.3,312.77h9.01v1.66h-7.24v4.06h6.76v1.66h-6.76v4.45h7.34v1.66h-9.11V312.77z"/>
	</g>
	<g>
		<g>
			<path d="M504.36,255.26l1.18,1.18l-2.96,2.78l-1-1L504.36,255.26z"/>
		</g>
	</g>
</g>
</svg>
